<?xml version="1.0" encoding="UTF-8" standalone="no"?>
<!DOCTYPE svg PUBLIC "-//W3C//DTD SVG 1.1//EN"
"http://www.w3.org/Graphics/SVG/1.1/DTD/svg11.dtd">
<svg version="1.1" xmlns="http://www.w3.org/2000/svg" xmlns:xlink="http://www.w3.org/1999/xlink">
<defs>
<style type="text/css"><![CDATA[
.g3_37{
fill: #364E60;
}
.g2_37{
fill: #373433;
}
.g1_37{
fill: #A84097;
}
.g4_37{
fill: #4D4A4B;
}
.g5_37{
fill: none;
stroke: #2AABE1;
stroke-width: 3;
stroke-linecap: butt;
stroke-linejoin: miter;
stroke-miterlimit: 22;
}
]]></style>
</defs>
<path d="M-13.2,-15.7l0,49.4l537,0l39.5,78.5l358.7,0l0,-127.9Z" class="g1_37" />
<path d="M84.2,237.7l6,-5.5l-6.1,-5.3c-0.6,-0.6,-0.8,-1.6,-0.3,-2.4c0.4,-0.8,1.3,-0.9,1.9,-0.4l7.6,6.7c0.4,0.3,0.6,0.8,0.6,1.4c0,0.5,-0.2,1,-0.5,1.3l-7.5,6.9c-0.6,0.6,-1.5,0.4,-2,-0.3c-0.4,-0.8,-0.3,-1.8,0.3,-2.4Z" class="g2_37" />
<path d="M82,1124l7,0l0,-82l-7,0l0,82Z" class="g1_37" />
<path d="M339,124l-351,0l0,68l316,0Z" class="g3_37" />
<path d="M817.7,1262.4l3,-2.8l-3,-2.6c-0.3,-0.3,-0.4,-0.8,-0.2,-1.2c0.2,-0.4,0.7,-0.5,1,-0.2l3.8,3.3c0.2,0.2,0.3,0.4,0.3,0.7c0,0.3,-0.1,0.5,-0.3,0.7l-3.7,3.4c-0.3,0.3,-0.8,0.2,-1,-0.2c-0.2,-0.3,-0.2,-0.9,0.1,-1.1Z" class="g4_37" />
<path d="M833.5,1269.5l13,0" class="g5_37" />
</svg>