<?xml version="1.0" encoding="UTF-8" standalone="no"?>
<!DOCTYPE svg PUBLIC "-//W3C//DTD SVG 1.1//EN"
"http://www.w3.org/Graphics/SVG/1.1/DTD/svg11.dtd">
<svg version="1.1" xmlns="http://www.w3.org/2000/svg" xmlns:xlink="http://www.w3.org/1999/xlink">
<defs>
<style type="text/css"><![CDATA[
.g8_4{
fill: none;
stroke: #5E5A5C;
stroke-width: 1;
stroke-linecap: butt;
stroke-linejoin: miter;
stroke-miterlimit: 22;
}
.g3_4{
fill: #2BADE3;
}
.g2_4{
fill: #FFFFFF;
}
.g1_4{
fill: #19A8E0;
}
.g5_4{
fill: #EA1D23;
}
.g4_4{
fill: #174798;
}
.g7_4{
fill: none;
stroke: #19A8E0;
stroke-width: 3;
stroke-linecap: butt;
stroke-linejoin: miter;
stroke-miterlimit: 22;
}
.g6_4{
fill: #433F40;
}
]]></style>
</defs>
<path fill-rule="evenodd" d="M925.7,-9.9l0,372.4l-841.9,0L-12.3,291.1l0,-301Z" class="g1_4" />
<path d="M356.5,443.5l5.6,-5.1l-5.7,-5c-0.5,-0.5,-0.7,-1.5,-0.3,-2.2c0.4,-0.7,1.2,-0.8,1.8,-0.3l7.1,6.2c0.3,0.3,0.5,0.7,0.6,1.2c0,0.5,-0.2,1,-0.6,1.3l-6.9,6.4c-0.6,0.5,-1.4,0.3,-1.8,-0.3c-0.4,-0.7,-0.3,-1.7,0.2,-2.2Z" class="g1_4" />
<path d="M425,191.3l9.3,-8.5l-9.5,-8.3c-0.9,-0.8,-1.1,-2.5,-0.5,-3.6c0.7,-1.2,2,-1.5,3,-0.7l11.9,10.4c0.5,0.5,0.9,1.3,0.9,2.1c0,0.9,-0.3,1.7,-0.9,2.2l-11.6,10.6c-1,0.9,-2.3,0.6,-3,-0.5c-0.7,-1.2,-0.5,-2.8,0.4,-3.7Z" class="g2_4" />
<image x="526" y="946" width="72" height="72" xlink:href="img/1.png" />
<image x="526" y="971" width="72" height="16" xlink:href="img/2.png" />
<image x="693" y="946" width="72" height="72" xlink:href="img/3.png" />
<image x="693" y="971" width="72" height="16" xlink:href="img/4.png" />
<image x="350" y="944" width="72" height="73" xlink:href="img/5.png" />
<image x="410" y="971" width="12" height="16" xlink:href="img/6.png" />
<image x="369" y="967" width="44" height="44" xlink:href="img/7.png" />
<path d="M385.3,994.5c9.1,0,16.6,-7.5,16.6,-16.7c0,-9.1,-7.5,-16.6,-16.6,-16.6c-9.2,0,-16.6,7.5,-16.6,16.6c0,9.2,7.4,16.7,16.6,16.7Z" class="g3_4" />
<image x="376" y="973" width="25" height="22" xlink:href="img/8.png" />
<path d="M393.6,973.5c-0.6,0.3,-1.3,0.5,-2,0.5c0.7,-0.4,1.3,-1.1,1.5,-1.9c-0.6,0.4,-1.3,0.7,-2.1,0.9c-0.7,-0.7,-1.5,-1.1,-2.5,-1.1c-1.9,0,-3.4,1.5,-3.4,3.4c0,0.3,0,0.5,0.1,0.8c-2.9,-0.2,-5.4,-1.5,-7.1,-3.6c-0.3,0.5,-0.4,1.1,-0.4,1.7c0,1.2,0.6,2.3,1.5,2.9c-0.6,0,-1.1,-0.2,-1.6,-0.4c0,1.6,1.2,3,2.8,3.3c-0.3,0.1,-0.6,0.2,-0.9,0.2c-0.3,0,-0.5,-0.1,-0.7,-0.1c0.5,1.4,1.7,2.3,3.2,2.4c-1.2,0.9,-2.6,1.4,-4.2,1.4c-0.3,0,-0.6,0,-0.8,0c1.5,1,3.3,1.5,5.2,1.5c6.3,0,9.7,-5.2,9.7,-9.7c0,-0.1,0,-0.3,0,-0.4c0.7,-0.5,1.2,-1.1,1.7,-1.8Z" class="g2_4" />
<image x="544" y="967" width="45" height="44" xlink:href="img/9.png" />
<path d="M561.2,994.5c9.1,0,16.6,-7.5,16.6,-16.7c0,-9.1,-7.5,-16.6,-16.6,-16.6c-9.2,0,-16.7,7.5,-16.7,16.6c0,9.2,7.5,16.7,16.7,16.7Z" class="g4_4" />
<image x="558" y="969" width="17" height="26" xlink:href="img/10.png" />
<path d="M557.2,975l1.7,0l0,-1.6c0,-0.8,0,-1.9,0.5,-2.6c0.6,-0.8,1.4,-1.3,2.7,-1.3c2.2,0,3.1,0.3,3.1,0.3l-0.5,2.6c0,0,-0.7,-0.2,-1.3,-0.2c-0.7,0,-1.3,0.2,-1.3,0.9l0,1.9l2.7,0l-0.2,2.5l-2.5,0l0,8.7l-3.2,0l0,-8.7l-1.7,0Z" class="g2_4" />
<image x="714" y="967" width="44" height="44" xlink:href="img/11.png" />
<path d="M730.6,994.5c9.2,0,16.6,-7.5,16.6,-16.7c0,-9.1,-7.4,-16.6,-16.6,-16.6c-9.2,0,-16.6,7.5,-16.6,16.6c0,9.2,7.4,16.7,16.6,16.7Z" class="g5_4" />
<image x="722" y="978" width="22" height="17" xlink:href="img/12.png" />
<image x="726" y="970" width="13" height="9" xlink:href="img/13.png" />
<path d="M734,972.2l0,3.2l-0.2,0.2l-0.3,0.1l-0.1,0l-0.1,-0.3l0,-3.2l-0.9,0l0,3.5c0,0.3,0.1,0.5,0.2,0.6c0.1,0.1,0.2,0.2,0.4,0.2c0.2,0,0.4,-0.1,0.5,-0.2c0.2,-0.1,0.4,-0.2,0.5,-0.4l0,0.5l0.9,0l0,-4.2Zm-2.6,0.2c-0.2,-0.2,-0.5,-0.3,-0.8,-0.3c-0.4,0,-0.7,0.1,-1,0.3c-0.2,0.2,-0.3,0.5,-0.3,0.8l0,2.2c0,0.3,0.1,0.6,0.3,0.8c0.2,0.2,0.5,0.3,0.9,0.3c0.4,0,0.7,-0.1,0.9,-0.3c0.2,-0.2,0.4,-0.5,0.4,-0.8l0,-2.2c0,-0.3,-0.2,-0.6,-0.4,-0.8Zm-0.5,3l-0.1,0.3l-0.3,0.1l-0.3,-0.1l0,-0.3l0,-2.2l0.1,-0.3l0.2,0l0.3,0l0.1,0.3Zm-2.7,-4.6l-0.6,2.2L727,970.8l-1,0l1.1,3.4l0,2.2l1,0l0,-2.3l1.1,-3.3Zm6.7,9.9c0,0.1,0.1,0.2,0.1,0.3l0,0.4l-0.7,0l0,-0.4c0,-0.1,0,-0.2,0.1,-0.3l0.2,-0.1l0.3,0.1Zm-2.6,0L732,980.6l-0.1,0l-0.2,0.1l0,2.4l0.2,0.1l0.2,0.1l0.2,-0.1l0,-0.3l0,-1.9l0,-0.3m0,0L732,980.6l-0.1,0l-0.2,0.1l0,2.4l0.2,0.1l0.2,0.1l0.2,-0.1l0,-0.3l0,-1.9l0,-0.3Zm4.3,-2.9l-11.9,0c-1.3,0,-2.4,1,-2.4,2.3l0,2.5c0,1.3,1.1,2.3,2.4,2.3l11.9,0c1.3,0,2.3,-1,2.3,-2.3l0,-2.5c0,-1.3,-1,-2.3,-2.3,-2.3Zm-8.7,1.6l-0.9,0l0,4.4l-0.9,0l0,-4.4l-0.8,0l0,-0.7l2.6,0Zm2.5,4.4l-0.8,0l0,-0.4c-0.1,0.2,-0.3,0.3,-0.4,0.4c-0.2,0,-0.3,0.1,-0.5,0.1c-0.1,0,-0.3,-0.1,-0.4,-0.2c0,-0.1,-0.1,-0.3,-0.1,-0.5l0,-3.2l0.8,0l0,2.9l0,0.2l0.2,0.1l0.2,-0.1l0.2,-0.2l0,-2.9l0.8,0Zm2.7,-0.8c0,0.3,0,0.5,-0.1,0.7c-0.2,0.1,-0.3,0.2,-0.6,0.2c-0.1,0,-0.2,0,-0.4,-0.1l-0.3,-0.3l0,0.3l-0.7,0l0,-5.1l0.7,0l0,1.6l0.3,-0.2l0.4,-0.1c0.2,0,0.4,0.1,0.5,0.2c0.2,0.2,0.2,0.4,0.2,0.7Zm2.7,-1l-1.5,0l0,0.7c0,0.2,0,0.4,0.1,0.4l0.2,0.2l0.3,-0.1c0,-0.1,0.1,-0.2,0.1,-0.5l0,-0.1l0.8,0l0,0.2c0,0.3,-0.1,0.6,-0.3,0.8c-0.2,0.2,-0.5,0.3,-0.9,0.3c-0.3,0,-0.6,-0.1,-0.8,-0.3c-0.2,-0.2,-0.3,-0.5,-0.3,-0.8l0,-1.7c0,-0.4,0.1,-0.6,0.3,-0.9c0.3,-0.1,0.5,-0.3,0.9,-0.3c0.3,0,0.6,0.1,0.8,0.3c0.2,0.2,0.3,0.5,0.3,0.9ZM732,980.6l-0.1,0l-0.2,0.1l0,2.4l0.2,0.1l0.2,0.1l0.2,-0.1l0,-0.3l0,-1.9l0,-0.3L732,980.6Zm0.3,0.1L732,980.6l-0.1,0l-0.2,0.1l0,2.4l0.2,0.1l0.2,0.1l0.2,-0.1l0,-0.3l0,-1.9l0,-0.3m0,0L732,980.6l-0.1,0l-0.2,0.1l0,2.4l0.2,0.1l0.2,0.1l0.2,-0.1l0,-0.3l0,-1.9l0,-0.3Z" class="g2_4" />
<image x="368" y="1072" width="45" height="44" xlink:href="img/14.png" />
<path d="M384.6,1099.7c9.2,0,16.6,-7.5,16.6,-16.6c0,-9.2,-7.4,-16.7,-16.6,-16.7c-9.2,0,-16.6,7.5,-16.6,16.7c0,9.1,7.4,16.6,16.6,16.6Z" class="g3_4" />
<image x="376" y="1078" width="24" height="22" xlink:href="img/15.png" />
<path d="M392.9,1078.7c-0.6,0.3,-1.2,0.5,-1.9,0.5c0.7,-0.4,1.2,-1.1,1.5,-1.8c-0.7,0.3,-1.4,0.6,-2.2,0.8c-0.6,-0.7,-1.5,-1.1,-2.5,-1.1c-1.9,0,-3.4,1.5,-3.4,3.4c0,0.3,0,0.5,0.1,0.8c-2.9,-0.2,-5.4,-1.5,-7,-3.6c-0.3,0.5,-0.5,1.1,-0.5,1.7c0,1.2,0.6,2.3,1.5,2.9c-0.6,0,-1.1,-0.2,-1.5,-0.4c0,1.7,1.1,3,2.7,3.3c-0.3,0.1,-0.6,0.2,-0.9,0.2c-0.2,0,-0.4,-0.1,-0.6,-0.1c0.4,1.4,1.7,2.3,3.1,2.4c-1.1,0.9,-2.6,1.4,-4.2,1.4c-0.3,0,-0.5,0,-0.8,0c1.5,1,3.3,1.5,5.2,1.5c6.3,0,9.7,-5.2,9.7,-9.7c0,-0.1,0,-0.3,0,-0.4c0.7,-0.5,1.3,-1.1,1.7,-1.8Z" class="g2_4" />
<path d="M107.1,1262.4l3,-2.8l-3,-2.6c-0.3,-0.3,-0.4,-0.8,-0.2,-1.2c0.2,-0.4,0.7,-0.5,1,-0.2l3.8,3.3c0.2,0.2,0.3,0.4,0.3,0.7c0,0.3,-0.1,0.5,-0.3,0.7l-3.7,3.4c-0.3,0.3,-0.8,0.2,-1,-0.2c-0.2,-0.3,-0.2,-0.9,0.1,-1.1Z" class="g6_4" />
<path d="M83.5,1269.5l13,0" class="g7_4" />
<image x="567" y="1070" width="45" height="44" xlink:href="img/16.png" />
<path d="M584.4,1097.6c9.1,0,16.6,-7.5,16.6,-16.7c0,-9.1,-7.5,-16.6,-16.6,-16.6c-9.2,0,-16.7,7.5,-16.7,16.6c0,9.2,7.5,16.7,16.7,16.7Z" class="g4_4" />
<image x="581" y="1072" width="18" height="26" xlink:href="img/17.png" />
<path d="M580.3,1078.1l1.8,0l0,-1.6c0,-0.8,0,-1.9,0.5,-2.6c0.6,-0.8,1.4,-1.3,2.7,-1.3c2.2,0,3.1,0.3,3.1,0.3l-0.5,2.6c0,0,-0.7,-0.2,-1.4,-0.2c-0.6,0,-1.2,0.2,-1.2,0.9l0,1.9l2.7,0l-0.2,2.5l-2.5,0l0,8.7l-3.2,0l0,-8.7l-1.8,0Z" class="g2_4" />
<path d="M287.7,365c-6.5,0,-12.1,-1.9,-16.9,-5.5c-4.8,-3.7,-8.5,-9.1,-11.2,-16.2c-2.6,-7.2,-3.9,-15.5,-3.9,-25c0,-14.7,2.9,-26.2,8.8,-34.5c5.9,-8.3,14.1,-12.5,24.4,-12.5c5,0,9.5,1,13.2,3c3.9,2.1,7.3,5.5,10.5,10.3l0.6,0c-1,-7.1,-1.5,-14.2,-1.5,-21.3l0,-24.2l31.4,0l0,124.2l-23.5,0L312.9,352l-1.2,0c-5.4,8.6,-13.4,13,-24,13Zm12.7,-24.7c5,0,8.6,-1.6,10.6,-4.7c2,-3.1,3.2,-8,3.3,-14.5l0,-2.5c0,-8,-1.1,-13.7,-3.4,-17c-2.3,-3.4,-5.9,-5.1,-10.8,-5.1c-4.1,0,-7.2,1.9,-9.5,5.8c-2.3,3.8,-3.4,9.3,-3.4,16.4c0,7.1,1.1,12.4,3.4,16.1c2.3,3.7,5.6,5.5,9.8,5.5Zm124.3,23l-3.9,-11.2l-1.8,0c-2.6,4.2,-6.3,7.3,-10.9,9.6c-4.7,2.2,-10.1,3.3,-16.4,3.3c-10,0,-17.7,-2.9,-23.3,-8.7c-5.5,-5.8,-8.2,-13.9,-8.2,-24.5l0,-58.8l31.2,0l0,49.3c0,6,0.8,10.4,2.5,13.4c1.6,3.1,4.4,4.6,8.2,4.6c5.4,0,9.2,-2.1,11.5,-6.3c2.3,-4.3,3.5,-11.4,3.5,-21.5l0,-39.5l31.2,0l0,90.3Zm81.9,1.7c-14.8,0,-26,-4,-33.6,-12c-7.6,-8,-11.5,-19.5,-11.5,-34.4c0,-15,4.2,-26.7,12.4,-34.9c8.3,-8.3,20,-12.4,35.2,-12.4c10.5,0,20.3,2.3,29.6,6.9l-9.2,23.1c-3.8,-1.7,-7.2,-3,-10.4,-4c-3.2,-1,-6.5,-1.5,-10,-1.5c-5.1,0,-9,2,-11.7,5.9c-2.8,4,-4.2,9.5,-4.2,16.7c0,14.5,5.4,21.7,16.1,21.7c9.1,0,17.9,-2.6,26.3,-8l0,24.9c-8.1,5.3,-17.7,8,-29,8Zm83.7,0c-14.7,0,-25.9,-4,-33.6,-12c-7.6,-8,-11.4,-19.5,-11.4,-34.4c0,-15,4.1,-26.7,12.3,-34.9c8.3,-8.3,20,-12.4,35.2,-12.4c10.5,0,20.4,2.3,29.6,6.9l-9.1,23.1c-3.8,-1.7,-7.3,-3,-10.5,-4c-3.2,-1,-6.5,-1.5,-10,-1.5c-5,0,-8.9,2,-11.7,5.9c-2.8,4,-4.2,9.5,-4.2,16.7c0,14.5,5.4,21.7,16.1,21.7c9.1,0,17.9,-2.6,26.3,-8l0,24.9c-8,5.3,-17.7,8,-29,8Zm74,-1.7l-31.2,0l0,-90.3l31.2,0ZM768,318c0,14.8,-4,26.3,-11.9,34.6c-8,8.2,-19.1,12.4,-33.4,12.4C709,365,698,360.8,689.9,352.3C681.8,343.8,677.8,332.4,677.8,318c0,-14.8,4,-26.2,11.9,-34.4c8,-8.2,19.1,-12.3,33.5,-12.3c8.8,0,16.7,1.9,23.5,5.7c6.8,3.8,12.1,9.2,15.8,16.3c3.6,7,5.5,15.2,5.5,24.7Zm-58.5,-0.1c0,7.8,1,13.7,3.1,17.8c2,4,5.5,6.1,10.4,6.1c4.8,0,8.2,-2.1,10.3,-6.1c2,-4.1,2.9,-10,2.9,-17.8c0,-7.7,-1,-13.5,-3,-17.5c-2,-3.9,-5.5,-5.9,-10.3,-5.9c-4.8,0,-8.3,2,-10.3,5.9c-2.1,3.9,-3.1,9.7,-3.1,17.5Zm-5.4,-53.6l0,-2.3c8.2,-8.8,13.4,-14.5,15.6,-17c2.2,-2.5,4,-4.8,5.4,-6.9l34.2,0l0,1.7c-4.3,3.4,-10.1,7.7,-17.6,13c-7.4,5.3,-13,9.1,-16.9,11.5Zm134.4,99l0,-49.3c0,-6,-0.8,-10.5,-2.6,-13.6c-1.7,-3,-4.5,-4.6,-8.3,-4.6c-5.3,0,-9.1,2.1,-11.4,6.3c-2.4,4.3,-3.5,11.4,-3.5,21.7l0,39.5l-31.2,0l0,-90.3l23.5,0l3.9,11.1l1.9,0c2.6,-4.3,6.3,-7.5,11,-9.6c4.7,-2.1,10.1,-3.2,16.2,-3.2c10,0,17.8,2.9,23.4,8.7c5.5,5.8,8.3,14,8.3,24.5l0,58.8Z" class="g2_4" />
<path d="M352.5,942.5l0,-13m0,13l485,0" class="g8_4" />
<path d="M352.5,1047.5l0,-13m0,13l485,0" class="g8_4" />
</svg>