<?xml version="1.0" encoding="UTF-8" standalone="no"?>
<!DOCTYPE svg PUBLIC "-//W3C//DTD SVG 1.1//EN"
"http://www.w3.org/Graphics/SVG/1.1/DTD/svg11.dtd">
<svg version="1.1" xmlns="http://www.w3.org/2000/svg" xmlns:xlink="http://www.w3.org/1999/xlink">
<defs>
<style type="text/css"><![CDATA[
.g2_12{
fill: #FFFFFF;
}
.g1_12{
fill: #373433;
}
.g5_12{
fill: #211D1D;
}
.g7_12{
fill: none;
stroke: #4D4A4B;
stroke-width: 2;
stroke-linecap: butt;
stroke-linejoin: miter;
stroke-miterlimit: 22;
}
.g4_12{
fill: #2A60AB;
}
.g3_12{
fill: none;
stroke: #211D1D;
stroke-width: 2;
stroke-linecap: butt;
stroke-linejoin: miter;
stroke-miterlimit: 4;
}
.g8_12{
fill: #4D4A4B;
}
.g9_12{
fill: none;
stroke: #2AABE1;
stroke-width: 3;
stroke-linecap: butt;
stroke-linejoin: miter;
stroke-miterlimit: 22;
}
.g6_12{
fill: #2AABE1;
}
]]></style>
</defs>
<path d="M86.5,174.6l6,-5.5l-6.1,-5.3c-0.6,-0.6,-0.8,-1.6,-0.4,-2.4c0.5,-0.8,1.3,-0.9,2,-0.4l7.6,6.7c0.4,0.3,0.6,0.8,0.6,1.4c0,0.5,-0.2,1,-0.6,1.3l-7.5,6.9c-0.6,0.6,-1.4,0.4,-1.9,-0.3c-0.4,-0.8,-0.3,-1.8,0.3,-2.4Z" class="g1_12" />
<image x="605" y="190" width="248" height="174" xlink:href="img/1.png" />
<path d="M608,355l235,0l0,-162l-235,0l0,162Z" class="g2_12" />
<image x="611" y="199" width="229" height="153" xlink:href="img/2.png" />
<path d="M608,355l235,0l0,-162l-235,0l0,162Z" class="g3_12" />
<path d="M84.5,576.1l6,-5.5l-6.1,-5.4c-0.6,-0.5,-0.8,-1.6,-0.4,-2.3c0.5,-0.8,1.3,-1,2,-0.4l7.6,6.7c0.4,0.3,0.6,0.8,0.6,1.3c0,0.6,-0.2,1.1,-0.6,1.4l-7.5,6.9c-0.6,0.5,-1.4,0.4,-1.9,-0.4c-0.4,-0.7,-0.3,-1.8,0.3,-2.3Z" class="g1_12" />
<image x="82" y="788" width="132" height="187" xlink:href="img/3.png" />
<image x="239" y="788" width="205" height="149" xlink:href="img/4.png" />
<path d="M95,500l0,33l32,0Z" class="g2_12" />
<path d="M820.7,515.5c0,9.2,-7.5,16.7,-16.6,16.7l-692.5,0C102.4,532.2,95,524.7,95,515.5L95,443c0,-9.2,7.4,-16.6,16.6,-16.6l692.5,0c9.1,0,16.6,7.4,16.6,16.6Z" class="g4_12" />
<path d="M135.5,446.4c-13.5,0,-24.4,10.9,-24.4,24.4c0,7.8,3.6,14.7,9.3,19.2c4.2,2.8,-2.5,10.6,-2.5,10.6c0,0,11.1,0.3,17.6,-5.4c13.4,0,24.4,-10.9,24.4,-24.4c0,-13.5,-11,-24.4,-24.4,-24.4Z" class="g2_12" />
<path d="M127.3,472c0,2,-1.6,3.6,-3.6,3.6c-2,0,-3.6,-1.6,-3.6,-3.6c0,-1.9,1.6,-3.5,3.6,-3.5c2,0,3.6,1.6,3.6,3.5Z" class="g5_12" />
<path d="M139,472c0,2,-1.6,3.6,-3.5,3.6c-2,0,-3.6,-1.6,-3.6,-3.6c0,-1.9,1.6,-3.5,3.6,-3.5c1.9,0,3.5,1.6,3.5,3.5Z" class="g5_12" />
<path d="M150.8,472c0,2,-1.6,3.6,-3.6,3.6c-2,0,-3.6,-1.6,-3.6,-3.6c0,-1.9,1.6,-3.5,3.6,-3.5c2,0,3.6,1.6,3.6,3.5Z" class="g5_12" />
<path d="M611.2,380.1c-1.8,0,-3.2,-1.4,-3.2,-3.2c0,-1.7,1.4,-3.2,3.2,-3.2c1.7,0,3.2,1.5,3.2,3.2c0,1.8,-1.5,3.2,-3.2,3.2Z" class="g6_12" />
<path d="M84.7,988.6c-1.8,0,-3.2,-1.4,-3.2,-3.2c0,-1.7,1.4,-3.2,3.2,-3.2c1.8,0,3.2,1.5,3.2,3.2c0,1.8,-1.4,3.2,-3.2,3.2Z" class="g6_12" />
<path d="M246,949.3c-1.7,0,-3.2,-1.4,-3.2,-3.1c0,-1.8,1.5,-3.2,3.2,-3.2c1.8,0,3.2,1.4,3.2,3.2c0,1.7,-1.4,3.1,-3.2,3.1Z" class="g6_12" />
<path d="M473.2,925.2c-1.7,0,-3.2,-1.4,-3.2,-3.2c0,-1.7,1.5,-3.2,3.2,-3.2c1.8,0,3.2,1.5,3.2,3.2c0,1.8,-1.4,3.2,-3.2,3.2Z" class="g6_12" />
<image x="83" y="789" width="129" height="179" xlink:href="img/5.png" />
<path d="M83,755l343,0l0,-25L83,730l0,25Z" class="g7_12" />
<image x="241" y="788" width="198" height="141" xlink:href="img/6.png" />
<image x="162" y="859.499" width="18" height="9" xlink:href="img/7.png" transform="scale(1 , 1.111)" />
<image x="471" y="791" width="162" height="116" xlink:href="img/8.png" />
<image x="662" y="790" width="165" height="118" xlink:href="img/9.png" />
<path d="M665,925.2c-1.7,0,-3.2,-1.4,-3.2,-3.2c0,-1.7,1.5,-3.2,3.2,-3.2c1.8,0,3.2,1.5,3.2,3.2c0,1.8,-1.4,3.2,-3.2,3.2Z" class="g6_12" />
<image x="511" y="602" width="335" height="158" xlink:href="img/10.png" />
<path d="M119.1,1179.6c-1.8,0,-3.2,-1.4,-3.2,-3.2c0,-1.8,1.4,-3.2,3.2,-3.2c1.8,0,3.2,1.4,3.2,3.2c0,1.8,-1.4,3.2,-3.2,3.2Z" class="g6_12" />
<path d="M363.8,1179.6c-1.8,0,-3.2,-1.4,-3.2,-3.2c0,-1.8,1.4,-3.2,3.2,-3.2c1.8,0,3.2,1.4,3.2,3.2c0,1.8,-1.4,3.2,-3.2,3.2Z" class="g6_12" />
<path d="M556.5,1177.4c-1.7,0,-3.2,-1.4,-3.2,-3.2c0,-1.7,1.5,-3.2,3.2,-3.2c1.8,0,3.2,1.5,3.2,3.2c0,1.8,-1.4,3.2,-3.2,3.2Z" class="g6_12" />
<image x="362" y="974" width="131" height="185" xlink:href="img/11.png" />
<image x="115" y="1026" width="186" height="133" xlink:href="img/12.png" />
<image x="553" y="978" width="251" height="181" xlink:href="img/13.png" />
<path d="M107.1,1262.4l3,-2.8l-3,-2.6c-0.3,-0.3,-0.4,-0.8,-0.2,-1.2c0.2,-0.4,0.7,-0.5,1,-0.2l3.8,3.3c0.2,0.2,0.3,0.4,0.3,0.7c0,0.3,-0.1,0.5,-0.3,0.7l-3.7,3.4c-0.3,0.3,-0.8,0.2,-1,-0.2c-0.2,-0.3,-0.2,-0.9,0.1,-1.1Z" class="g8_12" />
<path d="M83.5,1269.5l13,0" class="g9_12" />
<path d="M922,-15.7l0,49.4l-537.1,0l-39.5,78.5l-358.6,0l0,-127.9Z" class="g6_12" />
<path fill-rule="evenodd" d="M107,964l28,0l0,-8l-28,0l0,8Z" class="g2_12" />
<image x="103.31" y="836.499" width="28" height="6.999" xlink:href="img/14.png" transform="scale(1.035 , 1.142)" />
<path fill-rule="evenodd" d="M263,924l33,0l0,-8l-33,0l0,8Z" class="g2_12" />
<image x="264" y="916" width="33" height="8" xlink:href="img/15.png" />
<path fill-rule="evenodd" d="M489,903l31,0l0,-8l-31,0l0,8Z" class="g2_12" />
<image x="474.068" y="783.124" width="28" height="6.999" xlink:href="img/16.png" transform="scale(1.035 , 1.142)" />
<path fill-rule="evenodd" d="M681,903l28,0l0,-6l-28,0l0,6Z" class="g2_12" />
<image x="682" y="897" width="29" height="7" xlink:href="img/17.png" />
<path fill-rule="evenodd" d="M381,1147l41,0l0,-12l-41,0l0,12Z" class="g2_12" />
<image x="382" y="1136" width="39" height="10" xlink:href="img/18.png" />
</svg>