<?xml version="1.0" encoding="UTF-8" standalone="no"?>
<!DOCTYPE svg PUBLIC "-//W3C//DTD SVG 1.1//EN"
"http://www.w3.org/Graphics/SVG/1.1/DTD/svg11.dtd">
<svg version="1.1" xmlns="http://www.w3.org/2000/svg" xmlns:xlink="http://www.w3.org/1999/xlink">
<defs>
<style type="text/css"><![CDATA[
.g3_28{
fill: #364E60;
}
.g2_28{
fill: #4D4A4B;
}
.g1_28{
fill: #A84097;
}
.g4_28{
fill: #373433;
}
.g5_28{
fill: none;
stroke: #2AABE1;
stroke-width: 3;
stroke-linecap: butt;
stroke-linejoin: miter;
stroke-miterlimit: 22;
}
]]></style>
</defs>
<path d="M922,-15.7l0,49.4l-537.1,0l-39.5,78.5l-358.6,0l0,-127.9Z" class="g1_28" />
<path fill-rule="evenodd" d="M82,514l173,0l0,-22L82,492l0,22Z" class="g1_28" />
<path d="M84.1,902.6l0,-81.6l761.4,0l0,56.8l-26.6,24.8Z" class="g2_28" />
<path fill-rule="evenodd" d="M81,958l217,0l0,-22L81,936l0,22Z" class="g1_28" />
<path d="M339,124l-351,0l0,68l316,0Z" class="g3_28" />
<path d="M84.3,243.5l6,-5.5l-6.1,-5.4c-0.6,-0.5,-0.8,-1.6,-0.3,-2.3c0.4,-0.8,1.3,-1,1.9,-0.4l7.6,6.7c0.4,0.3,0.6,0.8,0.6,1.3c0,0.6,-0.2,1.1,-0.5,1.4L86,246.2c-0.7,0.5,-1.5,0.4,-2,-0.4c-0.4,-0.7,-0.3,-1.8,0.3,-2.3Z" class="g4_28" />
<path d="M107.1,1262.4l3,-2.8l-3,-2.6c-0.3,-0.3,-0.4,-0.8,-0.2,-1.2c0.2,-0.4,0.7,-0.5,1,-0.2l3.8,3.3c0.2,0.2,0.3,0.4,0.3,0.7c0,0.3,-0.1,0.5,-0.3,0.7l-3.7,3.4c-0.3,0.3,-0.8,0.2,-1,-0.2c-0.2,-0.3,-0.2,-0.9,0.1,-1.1Z" class="g2_28" />
<path d="M83.5,1269.5l13,0" class="g5_28" />
</svg>