<?xml version="1.0" encoding="UTF-8" standalone="no"?>
<!DOCTYPE svg PUBLIC "-//W3C//DTD SVG 1.1//EN"
"http://www.w3.org/Graphics/SVG/1.1/DTD/svg11.dtd">
<svg version="1.1" xmlns="http://www.w3.org/2000/svg" xmlns:xlink="http://www.w3.org/1999/xlink">
<defs>
<style type="text/css"><![CDATA[
.g5_19{
fill: none;
stroke: #2AABE1;
stroke-width: 3;
stroke-linecap: butt;
stroke-linejoin: miter;
stroke-miterlimit: 22;
}
.g4_19{
fill: none;
stroke: #4D4A4B;
stroke-width: 3;
stroke-linecap: butt;
stroke-linejoin: miter;
stroke-miterlimit: 22;
}
.g3_19{
fill: #4D4A4B;
}
.g2_19{
fill: #373433;
}
.g1_19{
fill: #44479C;
}
]]></style>
</defs>
<path d="M-13.2,-15.7l0,49.4l537,0l39.5,78.5l358.7,0l0,-127.9Z" class="g1_19" />
<path d="M84.3,492.6l6,-5.5l-6.1,-5.3c-0.6,-0.6,-0.8,-1.6,-0.3,-2.4c0.4,-0.7,1.3,-0.9,1.9,-0.4l7.6,6.7c0.4,0.4,0.6,0.9,0.6,1.4c0,0.5,-0.2,1.1,-0.5,1.4L86,495.3c-0.7,0.6,-1.5,0.4,-2,-0.3c-0.4,-0.8,-0.3,-1.8,0.3,-2.4Z" class="g2_19" />
<path d="M84.5,950.1l6,-5.4l-6.1,-5.4c-0.6,-0.6,-0.8,-1.6,-0.3,-2.4c0.4,-0.7,1.3,-0.9,1.9,-0.4l7.7,6.8c0.3,0.3,0.5,0.8,0.5,1.3c0,0.6,-0.2,1.1,-0.5,1.4l-7.5,6.8c-0.6,0.6,-1.5,0.4,-2,-0.3c-0.4,-0.8,-0.3,-1.8,0.3,-2.4Z" class="g2_19" />
<path fill-rule="evenodd" d="M84,189l15,0l0,-23l-15,0l0,23Z" class="g3_19" />
<path d="M84.5,189.5l15,0l0,-23l-15,0l0,23Z" class="g4_19" />
<path fill-rule="evenodd" d="M84,270l15,0l0,-23l-15,0l0,23Z" class="g3_19" />
<path d="M84.5,270.5l15,0l0,-23l-15,0l0,23Z" class="g4_19" />
<path fill-rule="evenodd" d="M84,353l15,0l0,-23l-15,0l0,23Z" class="g3_19" />
<path d="M84.5,353.5l15,0l0,-23l-15,0l0,23Z" class="g4_19" />
<image x="575" y="171" width="271" height="174" xlink:href="img/1.png" />
<image x="575" y="765" width="272" height="158" xlink:href="img/2.png" />
<image x="591" y="962" width="257" height="245" xlink:href="img/3.png" />
<path d="M83.2,450l0,-65.2l762.8,0l0,34L827.1,450Z" class="g3_19" />
<path d="M817.7,1262.4l3,-2.8l-3,-2.6c-0.3,-0.3,-0.4,-0.8,-0.2,-1.2c0.2,-0.4,0.7,-0.5,1,-0.2l3.8,3.3c0.2,0.2,0.3,0.4,0.3,0.7c0,0.3,-0.1,0.5,-0.3,0.7l-3.7,3.4c-0.3,0.3,-0.8,0.2,-1,-0.2c-0.2,-0.3,-0.2,-0.9,0.1,-1.1Z" class="g3_19" />
<path d="M833.5,1269.5l13,0" class="g5_19" />
<path d="M84.3,731.9l6,-5.5L84.2,721c-0.6,-0.5,-0.8,-1.6,-0.3,-2.3c0.4,-0.8,1.3,-1,1.9,-0.4l7.6,6.7c0.4,0.3,0.6,0.8,0.6,1.4c0,0.5,-0.2,1,-0.5,1.3L86,734.6c-0.7,0.5,-1.5,0.4,-2,-0.4c-0.4,-0.7,-0.3,-1.8,0.3,-2.3Z" class="g2_19" />
</svg>