<?xml version="1.0" encoding="UTF-8" standalone="no"?>
<!DOCTYPE svg PUBLIC "-//W3C//DTD SVG 1.1//EN"
"http://www.w3.org/Graphics/SVG/1.1/DTD/svg11.dtd">
<svg version="1.1" xmlns="http://www.w3.org/2000/svg" xmlns:xlink="http://www.w3.org/1999/xlink">
<defs>
<style type="text/css"><![CDATA[
.g3_41{
fill: #373433;
}
.g2_41{
fill: #FFFFFF;
}
.g1_41{
fill: #A84097;
}
.g5_41{
fill: #364E60;
}
.g4_41{
fill: #211D1D;
}
.g7_41{
fill: none;
stroke: #2AABE1;
stroke-width: 3;
stroke-linecap: butt;
stroke-linejoin: miter;
stroke-miterlimit: 22;
}
.g6_41{
fill: #4D4A4B;
}
]]></style>
</defs>
<path d="M-13.2,-15.7l0,49.4l537,0l39.5,78.5l358.7,0l0,-127.9Z" class="g1_41" />
<path d="M408,327.8c-13.1,0,-23.7,10.6,-23.7,23.7c0,7.6,3.5,14.3,9.1,18.7c4,2.7,-2.4,10.4,-2.4,10.4c0,0,10.7,0.2,17,-5.3c13.1,0,23.7,-10.7,23.7,-23.8c0,-13.1,-10.6,-23.7,-23.7,-23.7Z" class="g2_41" />
<path d="M84.4,225.7l6,-5.5l-6.1,-5.3c-0.6,-0.6,-0.8,-1.6,-0.3,-2.4c0.4,-0.8,1.3,-0.9,1.9,-0.4l7.6,6.7c0.4,0.3,0.6,0.8,0.6,1.4c0,0.5,-0.2,1,-0.5,1.3l-7.5,6.9c-0.6,0.6,-1.5,0.4,-2,-0.3c-0.4,-0.8,-0.3,-1.8,0.3,-2.4Z" class="g3_41" />
<path d="M817.6,947.9c0,9.1,-7.5,16.6,-16.6,16.6l-408.7,0c-9.2,0,-16.6,-7.5,-16.6,-16.6l0,-622c0,-9.2,7.4,-16.7,16.6,-16.7l408.7,0c9.1,0,16.6,7.5,16.6,16.7Z" class="g1_41" />
<path d="M408,332.2c-13.1,0,-23.7,10.6,-23.7,23.7c0,7.6,3.5,14.3,9.1,18.7c4,2.7,-2.4,10.4,-2.4,10.4c0,0,10.7,0.2,17,-5.3c13.1,0,23.7,-10.7,23.7,-23.8c0,-13.1,-10.6,-23.7,-23.7,-23.7Z" class="g2_41" />
<path d="M400.1,357.2c0,1.9,-1.6,3.4,-3.5,3.4c-1.9,0,-3.5,-1.5,-3.5,-3.4c0,-2,1.6,-3.5,3.5,-3.5c1.9,0,3.5,1.5,3.5,3.5Z" class="g4_41" />
<path d="M411.5,357.2c0,1.9,-1.6,3.4,-3.5,3.4c-1.9,0,-3.5,-1.5,-3.5,-3.4c0,-2,1.6,-3.5,3.5,-3.5c1.9,0,3.5,1.5,3.5,3.5Z" class="g4_41" />
<path d="M422.9,357.2c0,1.9,-1.5,3.4,-3.5,3.4c-1.9,0,-3.4,-1.5,-3.4,-3.4c0,-2,1.5,-3.5,3.4,-3.5c2,0,3.5,1.5,3.5,3.5Z" class="g4_41" />
<path d="M339,124l-351,0l0,68l316,0Z" class="g5_41" />
<path d="M817.7,1262.4l3,-2.8l-3,-2.6c-0.3,-0.3,-0.4,-0.8,-0.2,-1.2c0.2,-0.4,0.7,-0.5,1,-0.2l3.8,3.3c0.2,0.2,0.3,0.4,0.3,0.7c0,0.3,-0.1,0.5,-0.3,0.7l-3.7,3.4c-0.3,0.3,-0.8,0.2,-1,-0.2c-0.2,-0.3,-0.2,-0.9,0.1,-1.1Z" class="g6_41" />
<path d="M833.5,1269.5l13,0" class="g7_41" />
</svg>