<?xml version="1.0" encoding="UTF-8" standalone="no"?>
<!DOCTYPE svg PUBLIC "-//W3C//DTD SVG 1.1//EN"
"http://www.w3.org/Graphics/SVG/1.1/DTD/svg11.dtd">
<svg version="1.1" xmlns="http://www.w3.org/2000/svg" xmlns:xlink="http://www.w3.org/1999/xlink">
<defs>
<style type="text/css"><![CDATA[
.g3_11{
fill: #050505;
}
.g9_11{
fill: #433F40;
}
.g8_11{
fill: none;
stroke: #050505;
stroke-width: 1;
stroke-linecap: butt;
stroke-linejoin: miter;
}
.g2_11{
fill: #FFFFFF;
}
.g1_11{
fill: #19A8E0;
}
.g5_11{
fill: #96959B;
}
.g4_11{
fill: #C9C9CE;
}
.g7_11{
fill: #2F3032;
}
.g10_11{
fill: none;
stroke: #19A8E0;
stroke-width: 3;
stroke-linecap: butt;
stroke-linejoin: miter;
stroke-miterlimit: 22;
}
.g6_11{
fill: #67696C;
}
]]></style>
</defs>
<path d="M-13.2,-15.7l0,49.4l537,0l39.5,78.5l358.7,0l0,-127.9Z" class="g1_11" />
<path d="M471.7,1174.7c-1.8,0,-3.2,-1.5,-3.2,-3.2c0,-1.8,1.4,-3.2,3.2,-3.2c1.8,0,3.2,1.4,3.2,3.2c0,1.7,-1.4,3.2,-3.2,3.2Z" class="g1_11" />
<image x="643" y="375" width="148" height="202" xlink:href="img/1.png" />
<path d="M121.6,579.7c-1.8,0,-3.2,-1.4,-3.2,-3.1c0,-1.8,1.4,-3.2,3.2,-3.2c1.8,0,3.2,1.4,3.2,3.2c0,1.7,-1.4,3.1,-3.2,3.1Z" class="g1_11" />
<path d="M653.5,591.9c-1.8,0,-3.2,-1.5,-3.2,-3.2c0,-1.8,1.4,-3.2,3.2,-3.2c1.7,0,3.2,1.4,3.2,3.2c0,1.7,-1.5,3.2,-3.2,3.2Z" class="g1_11" />
<path d="M120.3,1014.9c-1.8,0,-3.2,-1.5,-3.2,-3.2c0,-1.8,1.4,-3.2,3.2,-3.2c1.8,0,3.2,1.4,3.2,3.2c0,1.7,-1.4,3.2,-3.2,3.2Z" class="g1_11" />
<image x="118" y="819" width="246" height="175" xlink:href="img/2.png" />
<path d="M151,327l220,0l0,-163l-220,0l0,163Z" class="g2_11" />
<path d="M385,327l220,0l0,-163l-220,0l0,163Z" class="g2_11" />
<path d="M132.9,361.6c-1.8,0,-3.2,-1.4,-3.2,-3.2c0,-1.7,1.4,-3.2,3.2,-3.2c1.7,0,3.2,1.5,3.2,3.2c0,1.8,-1.5,3.2,-3.2,3.2Z" class="g1_11" />
<path d="M686.3,361.6c-1.7,0,-3.2,-1.4,-3.2,-3.2c0,-1.7,1.5,-3.2,3.2,-3.2c1.8,0,3.2,1.5,3.2,3.2c0,1.8,-1.4,3.2,-3.2,3.2Z" class="g1_11" />
<path d="M404.8,361.6c-1.7,0,-3.1,-1.4,-3.1,-3.2c0,-1.7,1.4,-3.2,3.1,-3.2c1.8,0,3.2,1.5,3.2,3.2c0,1.8,-1.4,3.2,-3.2,3.2Z" class="g1_11" />
<path d="M610.3,777.7c-1.8,0,-3.2,-1.4,-3.2,-3.2c0,-1.7,1.4,-3.2,3.2,-3.2c1.7,0,3.2,1.5,3.2,3.2c0,1.8,-1.5,3.2,-3.2,3.2Z" class="g1_11" />
<image x="602" y="630" width="183" height="135" xlink:href="img/3.png" />
<path d="M374.7,579.7c-1.8,0,-3.2,-1.4,-3.2,-3.2c0,-1.7,1.4,-3.1,3.2,-3.1c1.7,0,3.2,1.4,3.2,3.1c0,1.8,-1.5,3.2,-3.2,3.2Z" class="g1_11" />
<image x="393" y="862" width="105" height="75" xlink:href="img/4.png" />
<image x="118" y="408" width="228" height="152" xlink:href="img/5.png" />
<path d="M120.2,1102.5c-1.8,0,-3.2,-1.4,-3.2,-3.2c0,-1.7,1.4,-3.2,3.2,-3.2c1.7,0,3.1,1.5,3.1,3.2c0,1.8,-1.4,3.2,-3.1,3.2Z" class="g1_11" />
<image x="104" y="1028" width="438" height="65" xlink:href="img/6.png" />
<path d="M586.9,1111.5c-1.8,0,-3.2,-1.5,-3.2,-3.2c0,-1.8,1.4,-3.2,3.2,-3.2c1.8,0,3.2,1.4,3.2,3.2c0,1.7,-1.4,3.2,-3.2,3.2Z" class="g1_11" />
<image x="665" y="815" width="74" height="122" xlink:href="img/7.png" />
<path d="M583.4,957.7c-1.7,0,-3.2,-1.4,-3.2,-3.2c0,-1.7,1.5,-3.2,3.2,-3.2c1.8,0,3.2,1.5,3.2,3.2c0,1.8,-1.4,3.2,-3.2,3.2Z" class="g1_11" />
<image x="375" y="408" width="227" height="151" xlink:href="img/8.png" />
<image x="373" y="637" width="157" height="221" xlink:href="img/9.png" />
<image x="105" y="624" width="271" height="201" xlink:href="img/10.png" />
<image x="118" y="637" width="244" height="175" xlink:href="img/11.png" />
<path d="M664.3,529l-1.1,-1.2l-1,1.2c-0.1,0.1,-0.3,0.1,-0.4,0c-0.2,0,-0.2,-0.2,-0.1,-0.3l1.3,-1.5l0.2,-0.1l0.3,0.1l1.3,1.5c0.1,0.1,0.1,0.2,-0.1,0.3c-0.1,0.1,-0.3,0.1,-0.4,0Z" class="g2_11" />
<path d="M777.2,410.5l0,-26.1l-26.1,0l26.1,26.1Z" class="g2_11" />
<path d="M777.5,410.5l0,-26.1l-26.1,0l26.1,26.1Z" class="g2_11" />
<path d="M757,554.9l-0.1,0l0,-0.6l0.2,0l0.1,0.3l0,0.1l0,-0.1l0.1,-0.3l0.2,0l0,0.6l-0.2,0l0,-0.2c0,-0.1,0,-0.3,0.1,-0.4l-0.2,0.6l-0.1,0L757,554.3c0,0.1,0,0.3,0,0.4Z" class="g3_11" />
<path d="M758,550l1,0l0,3l-3,0l0,-3l1,0l-2,0l0,3l4,0l0,-3Z" class="g3_11" />
<path d="M757,552.6c0,0,0.1,-1.8,-0.3,-3.3l0.6,0.2c0.4,1.5,0.2,3.1,0.2,3.1Z" class="g4_11" />
<path d="M758.1,552.6c0,0,0.1,-1.7,-0.2,-2.9l0.6,0.2c0.3,1.5,0.1,2.7,0.1,2.7Z" class="g4_11" />
<path d="M762.6,552.4l0,0.6c0,0.2,-0.1,0.4,-0.3,0.5c-0.1,0.2,-0.4,0.3,-0.8,0.3c-0.2,0,-0.4,-0.1,-0.6,-0.2c-0.2,-0.2,-0.3,-0.4,-0.3,-0.7l0,-1.7c0,-0.2,0.1,-0.4,0.2,-0.6c0.2,-0.2,0.4,-0.3,0.8,-0.3c0.3,0,0.5,0.1,0.7,0.3c0.2,0.1,0.3,0.3,0.3,0.6l0,0.5l-0.8,0l0,-0.4l-0.1,-0.2L761.6,551l-0.1,0l-0.1,0l-0.1,0.3l0,1.5c0,0.1,0.1,0.2,0.1,0.3l0.2,0.1l0.1,-0.1l0.1,-0.3l0,-0.4Z" class="g3_11" />
<path d="M763.8,550.4l0.6,2l0,-2l0.8,0l0,3.3l-0.9,0l-0.6,-1.9l0,1.9l-0.7,0l0,-3.3Z" class="g3_11" />
<path d="M767,550l0,1l-1,0l1,0l0,1l-1,0l0,1l1,0l-2,0l0,-3Z" class="g3_11" />
<image x="650" y="380" width="134" height="67" xlink:href="img/12.png" />
<image x="750" y="383" width="28" height="29" xlink:href="img/13.png" />
<image x="750" y="383" width="29" height="29" xlink:href="img/14.png" />
<path d="M652.7,381.4l0,55.3l18.8,9.5l0,120.2l111.2,0l0,1.8l-132.1,0l0,-186.8Z" class="g5_11" />
<path d="M697.2,497.5l1.6,0l0,0.2l-1.3,0l0,1.2l1.2,0l0,0.3l-1.2,0l0,1.3l1.3,0l0,0.3l-1.6,0Zm2.4,-0.3l0.3,0l0,3.6l-0.3,0Zm2.9,2.3l0,0.2l-1.7,0c0,0.3,0.1,0.5,0.2,0.7c0.2,0.1,0.4,0.2,0.7,0.2l0.3,0l0.3,-0.2l0,0.3l-0.3,0.1l-0.4,0.1c-0.3,0,-0.6,-0.1,-0.8,-0.4c-0.2,-0.2,-0.3,-0.5,-0.3,-0.9c0,-0.4,0.1,-0.7,0.3,-0.9c0.2,-0.2,0.4,-0.3,0.8,-0.3c0.2,0,0.5,0.1,0.6,0.3c0.2,0.2,0.3,0.4,0.3,0.8Zm-0.3,-0.1c0,-0.2,-0.1,-0.4,-0.2,-0.6c-0.1,-0.1,-0.3,-0.2,-0.5,-0.2c-0.2,0,-0.3,0.1,-0.5,0.2c-0.1,0.2,-0.2,0.4,-0.2,0.6Zm2.4,-0.9l0,0.3l-0.3,-0.1l-0.3,0c-0.2,0,-0.4,0,-0.6,0.2c-0.2,0.2,-0.2,0.4,-0.2,0.7c0,0.3,0,0.5,0.2,0.7c0.1,0.2,0.4,0.3,0.6,0.3l0.3,-0.1l0.3,-0.1l0,0.3l-0.3,0.1l-0.3,0c-0.3,0,-0.6,-0.1,-0.8,-0.3c-0.3,-0.2,-0.4,-0.5,-0.4,-0.9c0,-0.4,0.2,-0.6,0.4,-0.9c0.2,-0.2,0.5,-0.3,0.9,-0.3l0.2,0l0.3,0.1Zm2.2,0l-0.1,0.3l-0.2,-0.1l-0.3,0c-0.3,0,-0.5,0,-0.6,0.2c-0.2,0.2,-0.3,0.4,-0.3,0.7c0,0.3,0.1,0.5,0.2,0.7c0.2,0.2,0.4,0.3,0.7,0.3l0.2,-0.1l0.3,-0.1l0.1,0.3l-0.3,0.1l-0.4,0c-0.3,0,-0.6,-0.1,-0.8,-0.3C705.1,500.3,705,500,705,499.6c0,-0.4,0.1,-0.6,0.3,-0.9c0.2,-0.2,0.5,-0.3,0.9,-0.3l0.3,0l0.3,0.1Zm0.5,-0.1l0.3,0l0,2.4l-0.3,0Zm0,-1.1l0.3,0l0,0.4l-0.3,0Zm2,1.3c-0.2,0,-0.4,0.1,-0.5,0.3c-0.2,0.2,-0.3,0.4,-0.3,0.7c0,0.3,0.1,0.5,0.3,0.7c0.1,0.2,0.3,0.3,0.5,0.3c0.3,0,0.5,-0.1,0.6,-0.3c0.2,-0.2,0.2,-0.4,0.2,-0.7c0,-0.3,0,-0.5,-0.2,-0.7c-0.1,-0.2,-0.3,-0.3,-0.6,-0.3Zm0,-0.2c0.4,0,0.6,0.1,0.8,0.3c0.2,0.2,0.3,0.5,0.3,0.9c0,0.4,-0.1,0.7,-0.3,0.9c-0.2,0.3,-0.4,0.4,-0.8,0.4c-0.3,0,-0.6,-0.1,-0.8,-0.4c-0.2,-0.2,-0.3,-0.5,-0.3,-0.9c0,-0.4,0.1,-0.7,0.3,-0.9c0.2,-0.2,0.5,-0.3,0.8,-0.3Zm3.7,0.9l0,1.5l-0.3,0l0,-1.4c0,-0.3,0,-0.4,-0.1,-0.6c-0.1,-0.1,-0.3,-0.2,-0.5,-0.2c-0.2,0,-0.4,0.1,-0.5,0.3c-0.1,0.1,-0.2,0.4,-0.2,0.7l0,1.2l-0.3,0l0,-2.4l0.3,0l0,0.5c0.1,-0.2,0.2,-0.3,0.3,-0.4c0.2,-0.1,0.3,-0.1,0.5,-0.1c0.3,0,0.5,0,0.6,0.2c0.1,0.2,0.2,0.4,0.2,0.7Zm2.6,0.2l0,0.2l-1.7,0c0,0.3,0.1,0.5,0.2,0.7c0.2,0.1,0.4,0.2,0.7,0.2l0.3,0l0.3,-0.2l0,0.3l-0.3,0.1l-0.4,0.1c-0.3,0,-0.6,-0.1,-0.8,-0.4c-0.2,-0.2,-0.3,-0.5,-0.3,-0.9c0,-0.4,0.1,-0.7,0.3,-0.9c0.2,-0.2,0.5,-0.3,0.8,-0.3c0.3,0,0.5,0.1,0.6,0.3c0.2,0.2,0.3,0.4,0.3,0.8Zm-0.3,-0.1c0,-0.2,-0.1,-0.4,-0.2,-0.6c-0.1,-0.1,-0.3,-0.2,-0.5,-0.2c-0.2,0,-0.3,0.1,-0.5,0.2c-0.1,0.2,-0.2,0.4,-0.2,0.6Zm2,-0.9l0,0.2l-0.3,0l-0.2,-0.1c-0.2,0,-0.3,0.1,-0.4,0.1l-0.1,0.3c0,0.1,0.1,0.3,0.4,0.4l0.1,0c0.2,0.2,0.4,0.3,0.5,0.4c0.1,0.1,0.1,0.2,0.1,0.4c0,0.2,0,0.3,-0.2,0.5c-0.2,0.1,-0.4,0.1,-0.6,0.1l-0.4,0l-0.3,-0.1l0,-0.3l0.3,0.2l0.3,0c0.2,0,0.4,0,0.5,-0.1l0.1,-0.3L717,499.9c0,-0.1,-0.2,-0.1,-0.4,-0.3c-0.3,-0.1,-0.4,-0.2,-0.5,-0.3L715.9,499c0,-0.2,0.1,-0.3,0.3,-0.5c0.1,-0.1,0.3,-0.1,0.5,-0.1l0.3,0l0.3,0.1Zm2.4,-0.8l0,1.4l0.3,0c0.3,0,0.5,-0.1,0.7,-0.2c0.1,-0.1,0.2,-0.3,0.2,-0.5c0,-0.2,-0.1,-0.4,-0.2,-0.5c-0.1,-0.1,-0.3,-0.2,-0.6,-0.2Zm-0.3,-0.2l0.7,0c0.4,0,0.6,0,0.8,0.2c0.2,0.2,0.3,0.4,0.3,0.7c0,0.3,-0.1,0.6,-0.3,0.7c-0.2,0.2,-0.5,0.3,-0.9,0.3l-0.3,0l0,1.4l-0.3,0Zm3.5,0.9l0,0.3l-0.1,0l-0.1,0c-0.2,0,-0.3,0.1,-0.5,0.2c-0.1,0.2,-0.1,0.4,-0.1,0.6l0,1.3l-0.3,0l0,-2.4l0.2,0l0,0.5c0.1,-0.2,0.2,-0.3,0.3,-0.4c0.1,-0.1,0.3,-0.1,0.4,-0.1l0.1,0l0.1,0Zm0.4,0l0.3,0l0,2.4l-0.3,0Zm0,-1.1l0.4,0l0,0.4l-0.4,0Zm2.9,1.6c0.1,-0.2,0.2,-0.3,0.3,-0.4c0.2,-0.1,0.3,-0.1,0.5,-0.1c0.2,0,0.4,0,0.5,0.2c0.2,0.2,0.2,0.4,0.2,0.7l0,1.5l-0.3,0l0,-1.4c0,-0.2,0,-0.4,-0.1,-0.6c-0.1,-0.1,-0.2,-0.2,-0.4,-0.2c-0.2,0,-0.3,0.1,-0.5,0.3c-0.1,0.1,-0.2,0.4,-0.2,0.7l0,1.2l-0.3,0l0,-1.4c0,-0.2,0,-0.4,-0.1,-0.6c-0.1,-0.1,-0.2,-0.2,-0.4,-0.2c-0.2,0,-0.3,0.1,-0.5,0.3c-0.1,0.1,-0.1,0.4,-0.1,0.7l0,1.2l-0.3,0l0,-2.4l0.2,0l0,0.5c0.1,-0.2,0.2,-0.3,0.4,-0.4c0.1,-0.1,0.2,-0.1,0.4,-0.1c0.2,0,0.3,0,0.4,0.1c0.2,0.1,0.2,0.2,0.3,0.4Zm3.3,0.7c-0.3,0,-0.5,0,-0.7,0.1c-0.1,0.1,-0.2,0.3,-0.2,0.4c0,0.2,0.1,0.3,0.2,0.4c0,0.1,0.2,0.1,0.3,0.1c0.2,0,0.4,-0.1,0.5,-0.2c0.2,-0.2,0.2,-0.3,0.2,-0.6l0,-0.2Zm0.6,-0.3l0,1.5l-0.2,0l0,-0.4c-0.1,0.1,-0.2,0.3,-0.4,0.3c-0.1,0.1,-0.3,0.1,-0.4,0.1c-0.3,0,-0.4,0,-0.6,-0.1c-0.1,-0.2,-0.2,-0.3,-0.2,-0.5c0,-0.3,0.1,-0.5,0.3,-0.6c0.2,-0.2,0.5,-0.3,0.9,-0.3l0.3,0c0,-0.2,0,-0.4,-0.1,-0.5c-0.1,-0.1,-0.2,-0.2,-0.4,-0.2l-0.4,0.1l-0.3,0.1l0,-0.3l0.4,-0.1l0.3,0c0.3,0,0.5,0,0.6,0.2c0.2,0.1,0.2,0.4,0.2,0.7Zm2,-0.9l0,0.3l-0.1,0l-0.1,0c-0.2,0,-0.4,0.1,-0.5,0.2c-0.1,0.2,-0.2,0.4,-0.2,0.6l0,1.3l-0.3,0l0,-2.4l0.3,0l0,0.5c0.1,-0.2,0.2,-0.3,0.3,-0.4c0.1,-0.1,0.2,-0.1,0.4,-0.1l0.1,0l0.1,0Zm0.4,0l0.3,0l0,2.4l-0.3,0Zm0,-1.1l0.3,0l0,0.4l-0.3,0Zm2.1,2.3c-0.3,0,-0.5,0,-0.6,0.1c-0.2,0.1,-0.3,0.3,-0.3,0.4c0,0.2,0.1,0.3,0.2,0.4c0.1,0.1,0.2,0.1,0.3,0.1c0.2,0,0.4,-0.1,0.5,-0.2c0.2,-0.2,0.3,-0.3,0.3,-0.6l0,-0.2Zm0.6,-0.3l0,1.5l-0.2,0l0,-0.4c-0.1,0.1,-0.2,0.3,-0.4,0.3c-0.1,0.1,-0.2,0.1,-0.4,0.1c-0.3,0,-0.4,0,-0.6,-0.1c-0.1,-0.2,-0.2,-0.3,-0.2,-0.5c0,-0.3,0.1,-0.5,0.3,-0.6c0.2,-0.2,0.6,-0.3,0.9,-0.3l0.4,0c0,-0.2,-0.1,-0.4,-0.2,-0.5c-0.1,-0.1,-0.2,-0.2,-0.4,-0.2l-0.4,0.1l-0.3,0.1l0,-0.3l0.4,-0.1l0.3,0c0.3,0,0.5,0,0.6,0.2c0.2,0.1,0.2,0.4,0.2,0.7Zm2,-0.8l0,0.2l-0.2,0l-0.3,-0.1c-0.2,0,-0.3,0.1,-0.4,0.1l-0.1,0.3c0,0.1,0.1,0.3,0.4,0.4l0.1,0c0.2,0.2,0.4,0.3,0.5,0.4c0.1,0.1,0.1,0.2,0.1,0.4c0,0.2,0,0.3,-0.2,0.5c-0.1,0.1,-0.4,0.1,-0.6,0.1l-0.4,0l-0.3,-0.1l0,-0.3l0.3,0.2l0.4,0c0.1,0,0.3,0,0.4,-0.1l0.1,-0.3l-0.1,-0.3c0,-0.1,-0.2,-0.1,-0.4,-0.3c-0.3,-0.1,-0.4,-0.2,-0.5,-0.3L735.9,499c0,-0.2,0,-0.3,0.2,-0.5c0.1,-0.1,0.3,-0.1,0.5,-0.1l0.3,0l0.3,0.1Zm1.7,-0.1l0.3,0l0.7,2.1l0.7,-2.1l0.3,0l-0.9,2.8c-0.1,0.2,-0.2,0.4,-0.3,0.5c-0.1,0.1,-0.3,0.2,-0.4,0.2l-0.1,0L739,501.8l0.1,-0.2l0.2,0l0.2,-0.2c0.1,-0.1,0.2,-0.2,0.3,-0.5Zm6.3,-0.8l-0.1,0.3l-0.4,-0.1c-0.1,-0.1,-0.3,-0.1,-0.4,-0.1c-0.5,0,-0.8,0.1,-1,0.4c-0.3,0.3,-0.4,0.6,-0.4,1c0,0.5,0.1,0.8,0.4,1.1c0.2,0.2,0.6,0.4,1,0.4l0.4,-0.1l0.2,-0.1l0,-1.1l-0.7,0l0,-0.3l1.1,0l0,1.6c-0.2,0.1,-0.3,0.2,-0.5,0.2c-0.2,0,-0.3,0,-0.5,0c-0.2,0,-0.4,0,-0.6,0c-0.2,-0.1,-0.4,-0.2,-0.5,-0.3c-0.2,-0.1,-0.4,-0.3,-0.5,-0.6c-0.1,-0.2,-0.1,-0.5,-0.1,-0.8c0,-0.2,0,-0.3,0,-0.5c0.1,-0.2,0.2,-0.4,0.3,-0.5c0.1,-0.2,0.3,-0.4,0.5,-0.5c0.3,-0.1,0.6,-0.1,0.9,-0.1c0.1,0,0.3,0,0.4,0c0.2,0,0.3,0.1,0.5,0.1Zm2.6,1.9l0,0.2l-1.7,0c0,0.3,0.1,0.5,0.3,0.7c0.1,0.1,0.3,0.2,0.6,0.2l0.3,0l0.3,-0.2l0,0.3l-0.3,0.1l-0.3,0.1c-0.4,0,-0.7,-0.1,-0.9,-0.4c-0.2,-0.2,-0.3,-0.5,-0.3,-0.9c0,-0.4,0.1,-0.7,0.3,-0.9c0.2,-0.2,0.5,-0.3,0.8,-0.3c0.3,0,0.5,0.1,0.7,0.3c0.1,0.2,0.2,0.4,0.2,0.8Zm-0.3,-0.1c0,-0.2,0,-0.4,-0.2,-0.6c-0.1,-0.1,-0.2,-0.2,-0.4,-0.2c-0.2,0,-0.4,0.1,-0.5,0.2c-0.2,0.2,-0.2,0.4,-0.3,0.6Zm2.8,-0.1l0,1.5l-0.3,0l0,-1.4c0,-0.3,-0.1,-0.4,-0.2,-0.6c-0.1,-0.1,-0.2,-0.2,-0.4,-0.2c-0.2,0,-0.4,0.1,-0.5,0.3c-0.2,0.1,-0.2,0.4,-0.2,0.7l0,1.2l-0.3,0l0,-2.4l0.2,0l0,0.5c0.1,-0.2,0.2,-0.3,0.4,-0.4c0.1,-0.1,0.3,-0.1,0.5,-0.1c0.2,0,0.4,0,0.6,0.2c0.1,0.2,0.2,0.4,0.2,0.7Zm2.6,0.2l0,0.2l-1.7,0c0,0.3,0,0.5,0.2,0.7c0.1,0.1,0.4,0.2,0.6,0.2l0.4,0l0.3,-0.2l0,0.3l-0.3,0.1l-0.4,0.1c-0.4,0,-0.6,-0.1,-0.8,-0.4c-0.2,-0.2,-0.3,-0.5,-0.3,-0.9c0,-0.4,0.1,-0.7,0.3,-0.9c0.2,-0.2,0.4,-0.3,0.7,-0.3c0.3,0,0.5,0.1,0.7,0.3c0.2,0.2,0.3,0.4,0.3,0.8Zm-0.3,-0.1c0,-0.2,-0.1,-0.4,-0.2,-0.6c-0.2,-0.1,-0.3,-0.2,-0.5,-0.2c-0.2,0,-0.4,0.1,-0.5,0.2c-0.1,0.2,-0.2,0.4,-0.2,0.6Zm1.9,-1l0,0.3l-0.1,0l-0.1,0c-0.2,0,-0.3,0.1,-0.4,0.2c-0.1,0.2,-0.2,0.4,-0.2,0.6l0,1.3l-0.3,0l0,-2.4l0.3,0l0,0.5c0,-0.2,0.1,-0.3,0.2,-0.4c0.2,-0.1,0.3,-0.1,0.5,-0.1l0.1,0Zm1.5,1.2c-0.3,0,-0.5,0,-0.7,0.1c-0.1,0.1,-0.2,0.3,-0.2,0.4c0,0.2,0,0.3,0.1,0.4c0.1,0.1,0.2,0.1,0.4,0.1c0.2,0,0.4,-0.1,0.5,-0.2c0.1,-0.2,0.2,-0.3,0.2,-0.6l0,-0.2Zm0.6,-0.3l0,1.5l-0.3,0l0,-0.4c0,0.1,-0.2,0.3,-0.3,0.3c-0.1,0.1,-0.3,0.1,-0.5,0.1c-0.2,0,-0.4,0,-0.5,-0.1c-0.2,-0.2,-0.2,-0.3,-0.2,-0.5c0,-0.3,0.1,-0.5,0.3,-0.6c0.2,-0.2,0.5,-0.3,0.9,-0.3l0.3,0c0,-0.2,0,-0.4,-0.1,-0.5c-0.1,-0.1,-0.3,-0.2,-0.4,-0.2l-0.4,0.1l-0.3,0.1l0,-0.3l0.3,-0.1l0.4,0c0.3,0,0.5,0,0.6,0.2c0.1,0.1,0.2,0.4,0.2,0.7Zm0.8,-2.1l0.3,0l0,3.6l-0.3,0Zm2.9,2.3l0,0.2l-1.7,0c0,0.3,0.1,0.5,0.2,0.7c0.2,0.1,0.4,0.2,0.7,0.2l0.3,0l0.3,-0.2l0,0.3l-0.3,0.1l-0.3,0.1c-0.4,0,-0.7,-0.1,-0.9,-0.4c-0.2,-0.2,-0.3,-0.5,-0.3,-0.9c0,-0.4,0.1,-0.7,0.3,-0.9c0.2,-0.2,0.5,-0.3,0.8,-0.3c0.3,0,0.5,0.1,0.7,0.3c0.1,0.2,0.2,0.4,0.2,0.8ZM760,499.4c0,-0.2,-0.1,-0.4,-0.2,-0.6c-0.1,-0.1,-0.3,-0.2,-0.5,-0.2c-0.2,0,-0.3,0.1,-0.5,0.2c-0.1,0.2,-0.2,0.4,-0.2,0.6Zm2,-0.9l0,0.2l-0.2,0l-0.3,-0.1c-0.2,0,-0.3,0.1,-0.4,0.1L761,499c0,0.1,0.1,0.3,0.4,0.4l0.1,0c0.2,0.2,0.4,0.3,0.5,0.4c0.1,0.1,0.1,0.2,0.1,0.4c0,0.2,0,0.3,-0.2,0.5c-0.2,0.1,-0.4,0.1,-0.6,0.1l-0.4,0l-0.3,-0.1l0,-0.3l0.3,0.2l0.3,0c0.2,0,0.4,0,0.5,-0.1l0.1,-0.3l-0.1,-0.3c0,-0.1,-0.2,-0.1,-0.4,-0.3c-0.3,-0.1,-0.4,-0.2,-0.5,-0.3L760.6,499c0,-0.2,0.1,-0.3,0.3,-0.5c0.1,-0.1,0.3,-0.1,0.5,-0.1l0.3,0l0.3,0.1Zm2.3,2l1.6,0l0,0.3l-2,0l0,-0.3c0.6,-0.6,1.1,-1.1,1.3,-1.4c0.2,-0.3,0.3,-0.6,0.3,-0.8c0,-0.2,-0.1,-0.3,-0.2,-0.4c-0.1,-0.1,-0.3,-0.2,-0.4,-0.2l-0.4,0.1l-0.4,0.2L764,497.6c0.2,0,0.3,-0.1,0.5,-0.1c0.1,-0.1,0.3,-0.1,0.4,-0.1c0.3,0,0.5,0.1,0.7,0.3c0.1,0.1,0.2,0.3,0.2,0.6c0,0.2,-0.1,0.5,-0.3,0.8c-0.2,0.3,-0.6,0.8,-1.2,1.4Zm3.4,-2.8c-0.2,0,-0.4,0.1,-0.6,0.3c-0.1,0.3,-0.1,0.7,-0.1,1.1c0,0.5,0,0.9,0.1,1.1c0.2,0.3,0.4,0.4,0.6,0.4c0.3,0,0.4,-0.1,0.6,-0.4c0.1,-0.2,0.2,-0.6,0.2,-1.1c0,-0.4,-0.1,-0.8,-0.2,-1.1c-0.2,-0.2,-0.3,-0.3,-0.6,-0.3Zm0,-0.3c0.4,0,0.6,0.2,0.8,0.5c0.2,0.2,0.3,0.7,0.3,1.2c0,0.6,-0.1,1,-0.3,1.3c-0.2,0.3,-0.4,0.5,-0.8,0.5c-0.4,0,-0.6,-0.2,-0.8,-0.5c-0.2,-0.3,-0.3,-0.7,-0.3,-1.3c0,-0.5,0.1,-1,0.3,-1.2c0.2,-0.3,0.5,-0.5,0.8,-0.5Zm2.7,0.1l0.2,0l0,3.3l-0.3,0l0,-3l-0.5,0.5l-0.2,-0.2Zm1.9,0l1.7,0l0,0.2l-1.4,0l0,1.1l0.2,-0.1l0.2,0c0.4,0,0.7,0.1,0.8,0.3c0.2,0.2,0.3,0.4,0.3,0.7c0,0.4,-0.1,0.7,-0.3,0.9c-0.2,0.2,-0.5,0.3,-0.9,0.3l-0.4,-0.1l-0.3,-0.1l0,-0.3l0.3,0.1l0.4,0.1c0.3,0,0.5,-0.1,0.7,-0.3c0.1,-0.1,0.2,-0.3,0.2,-0.6c0,-0.2,-0.1,-0.4,-0.2,-0.5C773.4,499.1,773.2,499,773,499l-0.3,0c-0.1,0.1,-0.3,0.1,-0.5,0.1Z" class="g5_11" />
<path d="M691.9,500.3l1,-0.9l-1,-0.9l0,-0.4l0.3,-0.1l1.2,1.1l0.1,0.3l-0.1,0.2l-1.2,1.1l-0.3,-0.1l0,-0.3Z" class="g6_11" />
<path d="M693.3,471.8l-1.6,0l-4,-6.5l0,0.4c0,0.7,0.1,1.3,0.1,1.9l0,4.2l-1.2,0l0,-8.1l1.6,0l3.9,6.4l0.1,0c-0.1,-0.1,-0.1,-0.4,-0.1,-0.9c0,-0.6,0,-1,0,-1.3l0,-4.2l1.2,0Zm7.4,-3.1c0,1,-0.2,1.8,-0.8,2.3c-0.5,0.6,-1.2,0.9,-2.1,0.9c-0.6,0,-1.1,-0.1,-1.5,-0.4c-0.5,-0.3,-0.8,-0.6,-1,-1.1c-0.3,-0.5,-0.4,-1.1,-0.4,-1.7c0,-1,0.3,-1.8,0.8,-2.3c0.5,-0.6,1.2,-0.9,2.1,-0.9c0.9,0,1.6,0.3,2.1,0.9c0.6,0.6,0.8,1.3,0.8,2.3Zm-4.4,0c0,1.4,0.5,2.1,1.5,2.1c1.1,0,1.6,-0.7,1.6,-2.1c0,-1.4,-0.5,-2.1,-1.6,-2.1c-0.5,0,-0.9,0.2,-1.2,0.5c-0.2,0.4,-0.3,0.9,-0.3,1.6Zm9,-3.2c0.3,0,0.5,0.1,0.7,0.1l-0.2,1.2c-0.2,0,-0.4,-0.1,-0.5,-0.1c-0.6,0,-1,0.2,-1.3,0.5c-0.3,0.4,-0.5,0.8,-0.5,1.4l0,3.2l-1.3,0l0,-6.2l1,0l0.2,1.1l0.1,0c0.2,-0.3,0.4,-0.6,0.7,-0.8c0.4,-0.3,0.7,-0.4,1.1,-0.4Zm6.9,6.3l-1.3,0l0,-3.8c0,-0.5,-0.1,-0.8,-0.2,-1.1c-0.2,-0.2,-0.5,-0.3,-0.9,-0.3c-0.5,0,-0.8,0.2,-1.1,0.5c-0.2,0.3,-0.3,0.9,-0.3,1.6l0,3.1l-1.3,0l0,-6.2l1,0l0.2,0.8l0.1,0c0.1,-0.2,0.4,-0.5,0.7,-0.6c0.3,-0.2,0.7,-0.3,1.1,-0.3c0.9,0,1.5,0.4,1.8,1l0.1,0c0.2,-0.3,0.4,-0.5,0.8,-0.7c0.3,-0.2,0.7,-0.3,1.1,-0.3c0.7,0,1.3,0.2,1.6,0.6c0.3,0.4,0.5,0.9,0.5,1.7l0,4l-1.3,0l0,-3.8c0,-0.5,-0.1,-0.8,-0.3,-1.1c-0.1,-0.2,-0.4,-0.3,-0.8,-0.3c-0.5,0,-0.9,0.2,-1.1,0.5c-0.2,0.3,-0.4,0.8,-0.4,1.4Zm9.5,0l-0.2,-0.9l-0.1,0c-0.3,0.4,-0.6,0.6,-0.9,0.8c-0.3,0.1,-0.6,0.2,-1.1,0.2c-0.6,0,-1.1,-0.2,-1.4,-0.5c-0.4,-0.3,-0.5,-0.8,-0.5,-1.4c0,-0.6,0.2,-1.1,0.7,-1.4c0.4,-0.3,1.2,-0.5,2.1,-0.5l1.1,-0.1l0,-0.3c0,-0.4,-0.1,-0.7,-0.3,-0.9c-0.2,-0.2,-0.5,-0.3,-0.8,-0.3c-0.4,0,-0.7,0.1,-0.9,0.2c-0.3,0.1,-0.6,0.2,-0.9,0.3l-0.4,-0.9c0.3,-0.2,0.7,-0.3,1.1,-0.4c0.4,-0.1,0.8,-0.2,1.1,-0.2c0.8,0,1.4,0.2,1.8,0.5c0.4,0.4,0.6,0.9,0.6,1.6l0,4.2Zm-1.9,-0.9c0.5,0,0.9,-0.2,1.1,-0.4c0.3,-0.3,0.5,-0.6,0.5,-1.1l0,-0.6l-0.8,0.1c-0.6,0,-1.1,0.1,-1.4,0.3c-0.2,0.2,-0.4,0.4,-0.4,0.8c0,0.3,0.1,0.5,0.3,0.7c0.1,0.1,0.4,0.2,0.7,0.2Zm7,-0.1c0.3,0,0.6,0,0.9,-0.1l0,1c-0.1,0,-0.3,0.1,-0.6,0.1c-0.2,0.1,-0.4,0.1,-0.7,0.1c-1.2,0,-1.8,-0.7,-1.8,-2l0,-3.3l-0.8,0l0,-0.5l0.9,-0.5l0.4,-1.3l0.8,0l0,1.3l1.7,0l0,1l-1.7,0l0,3.3c0,0.3,0.1,0.5,0.2,0.7c0.2,0.1,0.4,0.2,0.7,0.2Zm3.4,1l-1.3,0l0,-6.2l1.3,0ZM728.8,464c0,-0.2,0.1,-0.4,0.2,-0.5c0.2,-0.1,0.3,-0.2,0.6,-0.2c0.2,0,0.4,0.1,0.5,0.2c0.1,0.1,0.2,0.3,0.2,0.5c0,0.3,-0.1,0.4,-0.2,0.6c-0.1,0.1,-0.3,0.1,-0.5,0.1c-0.3,0,-0.4,0,-0.6,-0.1c-0.1,-0.2,-0.2,-0.3,-0.2,-0.6Zm4.7,7.8l-2.3,-6.2l1.3,0l1.3,3.6c0.2,0.6,0.3,1.1,0.4,1.5c0,-0.3,0.2,-0.8,0.4,-1.5l1.2,-3.6l1.4,0l-2.3,6.2Zm8.5,0l-0.3,-0.9c-0.3,0.4,-0.6,0.6,-0.9,0.8c-0.3,0.1,-0.7,0.2,-1.2,0.2c-0.6,0,-1,-0.2,-1.4,-0.5c-0.3,-0.3,-0.5,-0.8,-0.5,-1.4c0,-0.6,0.2,-1.1,0.7,-1.4c0.5,-0.3,1.2,-0.5,2.1,-0.5l1.1,-0.1l0,-0.3c0,-0.4,-0.1,-0.7,-0.3,-0.9c-0.1,-0.2,-0.4,-0.3,-0.8,-0.3c-0.3,0,-0.6,0.1,-0.9,0.2c-0.3,0.1,-0.6,0.2,-0.8,0.3l-0.5,-0.9c0.4,-0.2,0.7,-0.3,1.1,-0.4c0.4,-0.1,0.8,-0.2,1.1,-0.2c0.8,0,1.4,0.2,1.8,0.5c0.4,0.4,0.6,0.9,0.6,1.6l0,4.2Zm-2,-0.9c0.5,0,0.9,-0.2,1.2,-0.4c0.3,-0.3,0.4,-0.6,0.4,-1.1l0,-0.6l-0.8,0.1c-0.6,0,-1,0.1,-1.3,0.3c-0.3,0.2,-0.4,0.4,-0.4,0.8c0,0.3,0,0.5,0.2,0.7c0.2,0.1,0.4,0.2,0.7,0.2Zm7.8,0.9l0,-8.1l1.3,0l0,6.9l3.4,0l0,1.2Zm8.7,0.1c-1,0,-1.7,-0.3,-2.3,-0.9c-0.5,-0.5,-0.8,-1.3,-0.8,-2.2c0,-1,0.3,-1.8,0.8,-2.4c0.5,-0.6,1.2,-0.9,2,-0.9c0.8,0,1.5,0.3,1.9,0.8c0.5,0.5,0.7,1.1,0.7,2l0,0.7l-4,0c0,0.6,0.1,1,0.4,1.4c0.3,0.3,0.8,0.4,1.3,0.4c0.4,0,0.7,0,1,-0.1c0.3,0,0.7,-0.1,1,-0.3l0,1.1c-0.3,0.1,-0.6,0.2,-0.9,0.3c-0.4,0,-0.7,0.1,-1.1,0.1Zm-0.3,-5.4c-0.4,0,-0.7,0.2,-1,0.4c-0.2,0.3,-0.4,0.7,-0.4,1.2l2.8,0c-0.1,-0.5,-0.2,-0.9,-0.4,-1.2c-0.2,-0.2,-0.6,-0.4,-1,-0.4Zm9.3,-0.9l0,0.8l-1.1,0.2c0.1,0.1,0.2,0.2,0.3,0.4c0,0.2,0.1,0.4,0.1,0.6c0,0.7,-0.3,1.2,-0.7,1.5c-0.4,0.4,-1,0.6,-1.8,0.6c-0.2,0,-0.4,-0.1,-0.5,-0.1c-0.3,0.2,-0.4,0.4,-0.4,0.6c0,0.2,0,0.3,0.2,0.3c0.1,0.1,0.3,0.1,0.7,0.1l1,0c0.7,0,1.2,0.2,1.6,0.5c0.3,0.3,0.5,0.7,0.5,1.2c0,0.7,-0.3,1.2,-0.8,1.6c-0.6,0.4,-1.4,0.6,-2.5,0.6c-0.9,0,-1.5,-0.2,-1.9,-0.5c-0.5,-0.3,-0.7,-0.7,-0.7,-1.2c0,-0.4,0.1,-0.7,0.4,-1c0.2,-0.2,0.5,-0.4,1,-0.5c-0.2,-0.1,-0.4,-0.2,-0.5,-0.4c-0.1,-0.1,-0.1,-0.3,-0.1,-0.5c0,-0.2,0,-0.4,0.2,-0.6c0.1,-0.1,0.3,-0.3,0.5,-0.4c-0.3,-0.2,-0.5,-0.4,-0.7,-0.7C760.1,468.4,760,468,760,467.6c0,-0.6,0.2,-1.2,0.6,-1.5c0.4,-0.4,1,-0.6,1.8,-0.6c0.2,0,0.3,0,0.5,0.1c0.2,0,0.4,0,0.5,0Zm-4.8,7.1c0,0.3,0.1,0.5,0.3,0.7c0.3,0.1,0.7,0.2,1.1,0.2c0.7,0,1.2,-0.1,1.6,-0.3c0.3,-0.2,0.5,-0.5,0.5,-0.8c0,-0.3,-0.1,-0.5,-0.3,-0.6c-0.2,-0.1,-0.5,-0.2,-1,-0.2l-1,0c-0.4,0,-0.7,0.1,-0.9,0.3c-0.2,0.2,-0.3,0.4,-0.3,0.7Zm0.5,-5.1c0,0.4,0.1,0.7,0.3,0.9c0.2,0.2,0.5,0.3,0.9,0.3c0.7,0,1.1,-0.4,1.1,-1.2c0,-0.4,-0.1,-0.7,-0.3,-0.9c-0.2,-0.2,-0.4,-0.3,-0.8,-0.3c-0.4,0,-0.7,0.1,-0.9,0.3c-0.2,0.2,-0.3,0.5,-0.3,0.9Zm9.2,4.2l-0.2,-0.9l-0.1,0c-0.3,0.4,-0.6,0.6,-0.9,0.8c-0.3,0.1,-0.6,0.2,-1.1,0.2c-0.6,0,-1.1,-0.2,-1.4,-0.5c-0.4,-0.3,-0.5,-0.8,-0.5,-1.4c0,-0.6,0.2,-1.1,0.7,-1.4c0.4,-0.3,1.2,-0.5,2.1,-0.5l1.1,-0.1l0,-0.3c0,-0.4,-0.1,-0.7,-0.3,-0.9c-0.2,-0.2,-0.5,-0.3,-0.8,-0.3c-0.4,0,-0.7,0.1,-1,0.2c-0.2,0.1,-0.5,0.2,-0.8,0.3l-0.4,-0.9c0.3,-0.2,0.7,-0.3,1.1,-0.4c0.4,-0.1,0.8,-0.2,1.1,-0.2c0.8,0,1.4,0.2,1.8,0.5c0.4,0.4,0.6,0.9,0.6,1.6l0,4.2Zm-1.9,-0.9c0.5,0,0.9,-0.2,1.1,-0.4c0.3,-0.3,0.5,-0.6,0.5,-1.1l0,-0.6l-0.8,0.1c-0.6,0,-1.1,0.1,-1.4,0.3c-0.2,0.2,-0.4,0.4,-0.4,0.8c0,0.3,0.1,0.5,0.3,0.7c0.1,0.1,0.4,0.2,0.7,0.2Zm6,0.9l-1.3,0l0,-8.6l1.3,0Z" class="g7_11" />
<path d="M686.9,476.2c-0.3,0,-0.5,0.1,-0.7,0.3c-0.1,0.2,-0.2,0.5,-0.2,0.8c0,0.4,0.1,0.6,0.2,0.8c0.2,0.2,0.4,0.3,0.7,0.3l0.3,-0.1l0.4,-0.1l0,0.4c-0.3,0.1,-0.5,0.2,-0.8,0.2c-0.4,0,-0.7,-0.2,-1,-0.4c-0.2,-0.3,-0.3,-0.6,-0.3,-1.1c0,-0.3,0.1,-0.6,0.2,-0.8c0.1,-0.2,0.2,-0.4,0.4,-0.5c0.2,-0.1,0.5,-0.2,0.8,-0.2c0.3,0,0.5,0.1,0.8,0.2l-0.2,0.4l-0.3,-0.1l-0.3,-0.1Zm3.1,1.4c0,0.4,0,0.7,-0.2,0.9c-0.2,0.2,-0.5,0.3,-0.8,0.3c-0.2,0,-0.4,-0.1,-0.5,-0.2c-0.2,-0.1,-0.3,-0.2,-0.4,-0.4C688,478.1,688,477.9,688,477.6c0,-0.3,0.1,-0.6,0.3,-0.8c0.1,-0.2,0.4,-0.3,0.7,-0.3c0.3,0,0.6,0.1,0.8,0.3c0.1,0.2,0.2,0.5,0.2,0.8Zm-1.5,0c0,0.5,0.2,0.8,0.5,0.8c0.4,0,0.6,-0.3,0.6,-0.8c0,-0.4,-0.2,-0.7,-0.6,-0.7c-0.2,0,-0.3,0.1,-0.4,0.2c-0.1,0.1,-0.1,0.3,-0.1,0.5Zm0.2,-1.3L689,476l0.1,-0.3l0.6,0l-0.3,0.3l-0.4,0.3Zm2.6,2.5c-0.3,0,-0.5,-0.1,-0.6,-0.3c-0.2,-0.2,-0.3,-0.5,-0.3,-0.8c0,-0.4,0.1,-0.7,0.3,-0.9c0.1,-0.2,0.3,-0.3,0.6,-0.3c0.3,0,0.5,0.1,0.7,0.3c0,-0.1,-0.1,-0.2,-0.1,-0.3l0,-0.8l0.5,0l0,3l-0.4,0l0,-0.3l-0.1,0c-0.1,0.3,-0.3,0.4,-0.6,0.4Zm0.1,-0.4c0.2,0,0.3,-0.1,0.4,-0.2c0.1,-0.1,0.2,-0.2,0.2,-0.5c0,-0.3,-0.1,-0.5,-0.2,-0.6c-0.1,-0.1,-0.2,-0.2,-0.4,-0.2c-0.1,0,-0.3,0.1,-0.4,0.2c0,0.1,-0.1,0.3,-0.1,0.6c0,0.2,0.1,0.4,0.1,0.5c0.1,0.1,0.3,0.2,0.4,0.2Zm2.1,0.3l-0.4,0l0,-2.1l0.4,0ZM693,476l0.1,-0.2l0.2,-0.1l0.2,0.1l0,0.2l0,0.2l-0.2,0.1l-0.2,-0.1L693,476Zm3,0.6l0,0.2l-0.4,0.1l0.1,0.2l0,0.2c0,0.2,0,0.4,-0.2,0.5c-0.1,0.1,-0.4,0.2,-0.6,0.2l-0.2,0l-0.2,0.2l0.1,0.1l0.3,0l0.3,0c0.3,0,0.5,0.1,0.6,0.2c0.1,0.1,0.2,0.2,0.2,0.4c0,0.3,-0.1,0.5,-0.3,0.6c-0.2,0.1,-0.5,0.2,-0.9,0.2c-0.3,0,-0.5,-0.1,-0.7,-0.2c-0.1,-0.1,-0.2,-0.2,-0.2,-0.4l0.1,-0.3c0.1,-0.1,0.2,-0.2,0.4,-0.2l-0.2,-0.2l0,-0.1l0,-0.2l0.2,-0.2l-0.2,-0.2c-0.1,-0.2,-0.1,-0.3,-0.1,-0.4c0,-0.3,0,-0.4,0.2,-0.6c0.1,-0.1,0.3,-0.2,0.6,-0.2l0.2,0l0.1,0.1Zm-1.7,2.5l0.1,0.2c0.1,0,0.2,0.1,0.4,0.1c0.3,0,0.4,-0.1,0.6,-0.1l0.2,-0.3l-0.2,-0.2c0,-0.1,-0.1,-0.1,-0.3,-0.1l-0.4,0l-0.3,0.1l-0.1,0.3Zm0.2,-1.8l0.1,0.3l0.3,0.1c0.3,0,0.4,-0.2,0.4,-0.4c0,-0.2,0,-0.3,-0.1,-0.4l-0.3,-0.1l-0.3,0.1c-0.1,0.1,-0.1,0.2,-0.1,0.4Zm3.8,0.3c0,0.4,-0.1,0.7,-0.3,0.9c-0.1,0.2,-0.4,0.3,-0.7,0.3c-0.2,0,-0.4,-0.1,-0.5,-0.2c-0.2,-0.1,-0.3,-0.2,-0.4,-0.4c-0.1,-0.1,-0.1,-0.3,-0.1,-0.6c0,-0.3,0.1,-0.6,0.2,-0.8c0.2,-0.2,0.5,-0.3,0.8,-0.3c0.3,0,0.6,0.1,0.7,0.3c0.2,0.2,0.3,0.5,0.3,0.8Zm-1.6,0c0,0.5,0.2,0.8,0.6,0.8c0.4,0,0.5,-0.3,0.5,-0.8c0,-0.4,-0.1,-0.7,-0.5,-0.7c-0.2,0,-0.3,0.1,-0.4,0.2c-0.1,0.1,-0.2,0.3,-0.2,0.5Zm4.8,1.1l-1.6,0l0,-2.8l1.6,0l0,0.4l-1.1,0l0,0.7l1.1,0l0,0.4l-1.1,0l0,0.9l1.1,0Zm1.1,0l-0.5,0l0,-3l0.5,0Zm1.6,0.1c-0.4,0,-0.6,-0.1,-0.8,-0.3c-0.2,-0.2,-0.3,-0.5,-0.3,-0.8c0,-0.4,0.1,-0.7,0.3,-0.9c0.1,-0.2,0.4,-0.3,0.7,-0.3c0.3,0,0.5,0.1,0.7,0.3c0.1,0.2,0.2,0.4,0.2,0.7l0,0.3l-1.4,0c0,0.2,0,0.3,0.1,0.4c0.1,0.2,0.3,0.2,0.5,0.2l0.3,0l0.4,-0.1l0,0.3l-0.3,0.1c-0.2,0.1,-0.3,0.1,-0.4,0.1Zm-0.1,-1.9c-0.2,0,-0.3,0,-0.4,0.1c-0.1,0.1,-0.1,0.2,-0.1,0.4l1,0c-0.1,-0.2,-0.1,-0.3,-0.2,-0.4c-0.1,-0.1,-0.2,-0.1,-0.3,-0.1Zm2.3,1.9c-0.3,0,-0.6,-0.1,-0.8,-0.3c-0.1,-0.2,-0.2,-0.5,-0.2,-0.8c0,-0.4,0.1,-0.7,0.3,-0.9c0.1,-0.2,0.4,-0.3,0.7,-0.3c0.3,0,0.5,0.1,0.6,0.2l-0.1,0.3c-0.2,0,-0.3,-0.1,-0.5,-0.1c-0.3,0,-0.5,0.3,-0.5,0.8c0,0.2,0,0.4,0.1,0.5c0.1,0.1,0.2,0.2,0.4,0.2c0.2,0,0.4,-0.1,0.6,-0.2l0,0.4l-0.3,0.1l-0.3,0.1Zm1.9,-0.4l0.3,-0.1l0,0.4l-0.2,0l-0.2,0.1c-0.4,0,-0.7,-0.3,-0.7,-0.7l0,-1.2l-0.3,0l0,-0.2l0.4,-0.1l0.1,-0.5l0.3,0l0,0.5l0.6,0l0,0.3l-0.6,0l0,1.2l0.1,0.2l0.2,0.1Zm2.7,-0.8c0,0.4,-0.1,0.7,-0.3,0.9c-0.2,0.2,-0.4,0.3,-0.7,0.3c-0.2,0,-0.4,-0.1,-0.6,-0.2c-0.1,-0.1,-0.2,-0.2,-0.3,-0.4c-0.1,-0.1,-0.2,-0.3,-0.2,-0.6c0,-0.3,0.1,-0.6,0.3,-0.8c0.2,-0.2,0.4,-0.3,0.8,-0.3c0.3,0,0.5,0.1,0.7,0.3c0.2,0.2,0.3,0.5,0.3,0.8Zm-1.6,0c0,0.5,0.2,0.8,0.6,0.8c0.3,0,0.5,-0.3,0.5,-0.8c0,-0.4,-0.2,-0.7,-0.5,-0.7c-0.2,0,-0.4,0.1,-0.5,0.2c0,0.1,-0.1,0.3,-0.1,0.5Zm3.2,-1.1l0.2,0.1l0,0.4l-0.2,0c-0.2,0,-0.3,0,-0.5,0.1c-0.1,0.2,-0.1,0.3,-0.1,0.5l0,1.1l-0.5,0l0,-2.1l0.4,0l0,0.4l0.1,0l0.2,-0.4l0.4,-0.1Zm2,2.2l-0.1,-0.3l-0.3,0.3c-0.1,0,-0.3,0.1,-0.4,0.1c-0.3,0,-0.4,-0.1,-0.5,-0.2c-0.2,-0.1,-0.2,-0.3,-0.2,-0.5c0,-0.2,0.1,-0.4,0.2,-0.5c0.2,-0.1,0.4,-0.2,0.8,-0.2l0.4,0l0,-0.1c0,-0.1,-0.1,-0.2,-0.1,-0.3l-0.3,-0.1l-0.4,0l-0.2,0.1l-0.2,-0.3c0.1,0,0.2,-0.1,0.4,-0.1c0.1,-0.1,0.3,-0.1,0.4,-0.1c0.3,0,0.5,0.1,0.6,0.2c0.1,0.1,0.2,0.3,0.2,0.6l0,1.4Zm-0.7,-0.3c0.2,0,0.3,0,0.4,-0.1c0.1,-0.1,0.2,-0.2,0.2,-0.4l0,-0.2l-0.3,0c-0.2,0,-0.4,0.1,-0.5,0.1l-0.1,0.3l0,0.2l0.3,0.1Zm2.1,0.3l-0.4,0l0,-3l0.4,0Zm4.1,0l-0.5,0l-1.4,-2.2l-0.1,0l0,0.1c0.1,0.2,0.1,0.4,0.1,0.6l0,1.5l-0.4,0l0,-2.8l0.5,0l1.4,2.2c0,0,0,-0.1,0,-0.3c0,-0.2,0,-0.3,0,-0.4l0,-1.5l0.4,0Zm2.1,0l-0.1,-0.3l-0.3,0.3c-0.1,0,-0.3,0.1,-0.4,0.1c-0.3,0,-0.4,-0.1,-0.5,-0.2c-0.2,-0.1,-0.2,-0.3,-0.2,-0.5c0,-0.2,0.1,-0.4,0.2,-0.5c0.2,-0.1,0.4,-0.2,0.8,-0.2l0.4,0l0,-0.1c0,-0.1,-0.1,-0.2,-0.1,-0.3l-0.3,-0.1l-0.4,0l-0.2,0.1l-0.2,-0.3c0.1,0,0.2,-0.1,0.4,-0.1c0.1,-0.1,0.3,-0.1,0.4,-0.1c0.3,0,0.5,0.1,0.6,0.2c0.1,0.1,0.2,0.3,0.2,0.6l0,1.4Zm-0.7,-0.3c0.2,0,0.3,0,0.4,-0.1c0.1,-0.1,0.2,-0.2,0.2,-0.4l0,-0.2l-0.3,0c-0.2,0,-0.4,0.1,-0.5,0.1l-0.1,0.3l0,0.2l0.3,0.1Zm2.5,0.4c-0.3,0,-0.6,-0.1,-0.7,-0.3C723.1,478.3,723,478,723,477.7c0,-0.4,0.1,-0.7,0.3,-0.9c0.2,-0.2,0.4,-0.3,0.8,-0.3c0.2,0,0.4,0.1,0.6,0.2l-0.2,0.3c-0.2,0,-0.3,-0.1,-0.4,-0.1c-0.4,0,-0.6,0.3,-0.6,0.8c0,0.2,0,0.4,0.1,0.5c0.1,0.1,0.3,0.2,0.4,0.2c0.2,0,0.4,-0.1,0.6,-0.2l0,0.4l-0.2,0.1l-0.4,0.1Zm1.6,-0.1l-0.5,0l0,-2.1l0.5,0ZM725.1,476l0.1,-0.2l0.2,-0.1l0.2,0.1l0,0.2l0,0.2l-0.2,0.1l-0.2,-0.1L725.1,476Zm3.1,1.6c0,0.4,-0.1,0.7,-0.3,0.9c-0.2,0.2,-0.4,0.3,-0.8,0.3c-0.2,0,-0.3,-0.1,-0.5,-0.2c-0.2,-0.1,-0.3,-0.2,-0.4,-0.4c0,-0.1,-0.1,-0.3,-0.1,-0.6c0,-0.3,0.1,-0.6,0.3,-0.8c0.2,-0.2,0.4,-0.3,0.7,-0.3c0.4,0,0.6,0.1,0.8,0.3c0.2,0.2,0.3,0.5,0.3,0.8Zm-1.6,0c0,0.5,0.2,0.8,0.5,0.8c0.4,0,0.6,-0.3,0.6,-0.8c0,-0.4,-0.2,-0.7,-0.6,-0.7c-0.2,0,-0.3,0.1,-0.4,0.2c-0.1,0.1,-0.1,0.3,-0.1,0.5Zm4,1.1l-0.5,0l0,-1.3c0,-0.2,0,-0.3,-0.1,-0.4c0,0,-0.1,-0.1,-0.3,-0.1c-0.2,0,-0.3,0.1,-0.4,0.2c-0.1,0.1,-0.2,0.3,-0.2,0.6l0,1l-0.4,0l0,-2.1l0.3,0l0.1,0.3l0.3,-0.3c0.1,0,0.3,-0.1,0.4,-0.1c0.5,0,0.8,0.3,0.8,0.8Zm2,0l-0.1,-0.3l-0.3,0.3c-0.2,0,-0.3,0.1,-0.5,0.1c-0.2,0,-0.3,-0.1,-0.4,-0.2c-0.2,-0.1,-0.2,-0.3,-0.2,-0.5c0,-0.2,0.1,-0.4,0.2,-0.5c0.2,-0.1,0.4,-0.2,0.8,-0.2l0.3,0l0,-0.1c0,-0.1,0,-0.2,0,-0.3l-0.3,-0.1l-0.4,0l-0.3,0.1l-0.1,-0.3c0.1,0,0.2,-0.1,0.4,-0.1c0.1,-0.1,0.2,-0.1,0.4,-0.1c0.2,0,0.5,0.1,0.6,0.2c0.1,0.1,0.2,0.3,0.2,0.6l0,1.4Zm-0.7,-0.3c0.2,0,0.3,0,0.4,-0.1c0.1,-0.1,0.1,-0.2,0.1,-0.4l0,-0.2l-0.2,0c-0.2,0,-0.4,0.1,-0.5,0.1l-0.2,0.3l0.1,0.2l0.3,0.1Zm2.1,0.3l-0.5,0l0,-3l0.5,0Zm1.5,-1.1c0,-0.3,0.1,-0.6,0.2,-0.9c0.1,-0.3,0.2,-0.6,0.4,-0.8l0.4,0c-0.2,0.2,-0.3,0.5,-0.4,0.8c-0.1,0.3,-0.1,0.6,-0.1,0.9c0,0.3,0,0.7,0.1,1c0.1,0.2,0.2,0.5,0.4,0.8l-0.4,0c-0.2,-0.3,-0.3,-0.5,-0.4,-0.8c-0.1,-0.3,-0.2,-0.6,-0.2,-1Zm1.5,1.1l0,-2.8l0.5,0l0,2.4l1.2,0l0,0.4Zm3.1,0.1c-0.4,0,-0.6,-0.1,-0.8,-0.3C739.1,478.3,739,478,739,477.7c0,-0.4,0.1,-0.7,0.3,-0.9c0.1,-0.2,0.4,-0.3,0.7,-0.3c0.3,0,0.5,0.1,0.7,0.3c0.1,0.2,0.2,0.4,0.2,0.7l0,0.3l-1.4,0c0,0.2,0,0.3,0.1,0.4c0.1,0.2,0.3,0.2,0.5,0.2l0.3,0l0.4,-0.1l0,0.3l-0.3,0.1c-0.2,0.1,-0.3,0.1,-0.4,0.1ZM740,476.9c-0.2,0,-0.3,0,-0.4,0.1c-0.1,0.1,-0.1,0.2,-0.1,0.4l1,0c0,-0.2,-0.1,-0.3,-0.2,-0.4c-0.1,-0.1,-0.2,-0.1,-0.3,-0.1Zm1.1,-0.3l0.5,0l0.4,1.2c0.1,0.2,0.1,0.3,0.2,0.5l0.1,-0.3c0,-0.1,0.1,-0.6,0.4,-1.4l0.5,0l-0.9,2.4c-0.1,0.5,-0.4,0.7,-0.8,0.7l-0.3,0l0,-0.4l0.2,0c0.2,0,0.4,-0.1,0.5,-0.4l0.1,-0.2Zm5.9,2.1l-0.5,0l-1.4,-2.2l-0.1,0l0.1,0.1c0,0.2,0,0.4,0,0.6l0,1.5l-0.4,0l0,-2.8l0.5,0l1.4,2.2c0,0,0,-0.1,0,-0.3c0,-0.2,0,-0.3,0,-0.4l0,-1.5l0.4,0Zm1.8,-2.2c0,0.2,0,0.4,-0.2,0.5c-0.1,0.2,-0.2,0.2,-0.4,0.2c-0.2,0,-0.4,0,-0.5,-0.2c-0.1,-0.1,-0.2,-0.3,-0.2,-0.5c0,-0.2,0.1,-0.4,0.2,-0.5c0.1,-0.1,0.3,-0.2,0.5,-0.2c0.2,0,0.3,0.1,0.4,0.2c0.2,0.2,0.2,0.3,0.2,0.5Zm-1,0c0,0.2,0.1,0.3,0.1,0.4l0.3,0.1l0.2,-0.1c0.1,-0.1,0.1,-0.2,0.1,-0.4c0,-0.1,0,-0.2,-0.1,-0.3l-0.2,-0.1l-0.3,0.1c0,0.1,-0.1,0.2,-0.1,0.3Zm3.7,2.2l-0.5,0l0,-1.8c0,-0.2,0,-0.4,0.1,-0.5l-0.2,0.1c0,0,-0.1,0.1,-0.4,0.3l-0.2,-0.3l0.8,-0.6l0.4,0Zm2.9,-1.6c0,0.6,-0.2,1,-0.4,1.3c-0.2,0.2,-0.5,0.4,-1,0.4c-0.2,0,-0.3,0,-0.4,-0.1l0,-0.3l0.4,0c0.3,0,0.5,-0.1,0.7,-0.2c0.1,-0.2,0.2,-0.5,0.2,-0.8l-0.3,0.2c-0.1,0.1,-0.2,0.1,-0.4,0.1c-0.2,0,-0.4,-0.1,-0.6,-0.2c-0.1,-0.2,-0.2,-0.4,-0.2,-0.7c0,-0.3,0.1,-0.5,0.3,-0.7c0.1,-0.2,0.4,-0.3,0.7,-0.3c0.2,0,0.3,0.1,0.5,0.2c0.1,0.1,0.3,0.2,0.3,0.4c0.1,0.2,0.2,0.4,0.2,0.7Zm-1,-0.9c-0.2,0,-0.3,0.1,-0.4,0.2c-0.1,0.1,-0.1,0.2,-0.1,0.4c0,0.2,0,0.3,0.1,0.4c0.1,0.1,0.2,0.1,0.3,0.1c0.2,0,0.3,0,0.4,-0.1l0.2,-0.3l-0.1,-0.4l-0.2,-0.2l-0.2,-0.1Zm1.4,2.3l0.1,-0.2l0.2,-0.1l0.2,0.1l0.1,0.2l-0.1,0.2l-0.2,0.1l-0.2,-0.1l-0.1,-0.2Zm2.9,-1.4c0,0.6,-0.1,1,-0.3,1.3c-0.2,0.2,-0.6,0.4,-1,0.4c-0.2,0,-0.3,0,-0.4,-0.1l0,-0.3l0.4,0c0.3,0,0.5,-0.1,0.6,-0.2c0.2,-0.2,0.3,-0.5,0.3,-0.8l-0.3,0.2c-0.1,0.1,-0.2,0.1,-0.4,0.1c-0.2,0,-0.4,-0.1,-0.6,-0.2c-0.1,-0.2,-0.2,-0.4,-0.2,-0.7c0,-0.3,0.1,-0.5,0.3,-0.7c0.1,-0.2,0.3,-0.3,0.6,-0.3c0.2,0,0.4,0.1,0.6,0.2c0.1,0.1,0.2,0.2,0.3,0.4c0.1,0.2,0.1,0.4,0.1,0.7Zm-1,-0.9c-0.1,0,-0.2,0.1,-0.3,0.2c-0.1,0.1,-0.1,0.2,-0.1,0.4c0,0.2,0,0.3,0.1,0.4c0,0.1,0.2,0.1,0.3,0.1c0.2,0,0.3,0,0.4,-0.1l0.2,-0.3l-0.1,-0.4L757,476.3l-0.3,-0.1Zm3.4,1.9l-0.4,0l0,0.6l-0.4,0l0,-0.6l-1.3,0l0,-0.3l1.3,-1.9l0.4,0l0,1.8l0.4,0Zm-0.8,-0.4l0,-0.7c0,-0.2,0,-0.5,0,-0.6l-0.2,0.3l-0.7,1Zm2,-0.7c0.3,0,0.6,0,0.7,0.2c0.2,0.1,0.3,0.3,0.3,0.6c0,0.3,-0.1,0.5,-0.3,0.7c-0.2,0.2,-0.5,0.3,-0.8,0.3c-0.3,0,-0.6,-0.1,-0.8,-0.2l0,-0.4l0.4,0.1l0.4,0.1c0.2,0,0.3,-0.1,0.4,-0.2c0.1,0,0.2,-0.2,0.2,-0.4c0,-0.3,-0.2,-0.5,-0.7,-0.5l-0.2,0l-0.2,0.1l-0.2,-0.1l0.1,-1.4l1.5,0l0,0.4l-1.1,0l-0.1,0.7l0.2,0l0.2,0Zm2,1.3c-0.1,0.3,-0.2,0.6,-0.4,0.9l-0.3,0c0.1,-0.3,0.2,-0.6,0.2,-0.9l0.4,0Zm2.6,0.4l-0.4,0l0,-2.4l-0.9,0l0,-0.4l2.2,0l0,0.4l-0.9,0Zm2.2,0.1c-0.3,0,-0.6,-0.1,-0.8,-0.3C767.1,478.3,767,478,767,477.7c0,-0.4,0.1,-0.7,0.3,-0.9c0.2,-0.2,0.4,-0.3,0.7,-0.3c0.3,0,0.5,0.1,0.7,0.3c0.2,0.2,0.3,0.4,0.3,0.7l0,0.3l-1.5,0c0,0.2,0.1,0.3,0.2,0.4c0.1,0.2,0.2,0.2,0.4,0.2l0.4,0l0.3,-0.1l0,0.3l-0.3,0.1c-0.1,0.1,-0.2,0.1,-0.4,0.1ZM768,476.9c-0.1,0,-0.2,0,-0.3,0.1c-0.1,0.1,-0.2,0.2,-0.2,0.4l1,0c0,-0.2,0,-0.3,-0.1,-0.4c-0.1,-0.1,-0.2,-0.1,-0.4,-0.1Zm2,0.7l-0.8,-1l0.6,0l0.4,0.7l0.5,-0.7l0.6,0l-0.8,1l0.8,1.1l-0.5,0l-0.6,-0.8l-0.5,0.8l-0.5,0Zm2.5,0.8l0.3,-0.1l0,0.4l-0.2,0l-0.2,0.1c-0.5,0,-0.7,-0.3,-0.7,-0.7l0,-1.2l-0.3,0l0,-0.2l0.3,-0.1l0.2,-0.5l0.3,0l0,0.5l0.6,0l0,0.3l-0.6,0l0,1.2l0.1,0.2l0.2,0.1Zm2.7,-0.8c0,0.4,-0.1,0.7,-0.3,0.9c-0.2,0.2,-0.4,0.3,-0.8,0.3c-0.2,0,-0.3,-0.1,-0.5,-0.2c-0.2,-0.1,-0.3,-0.2,-0.4,-0.4c0,-0.1,-0.1,-0.3,-0.1,-0.6c0,-0.3,0.1,-0.6,0.3,-0.8c0.2,-0.2,0.4,-0.3,0.7,-0.3c0.4,0,0.6,0.1,0.8,0.3c0.2,0.2,0.3,0.5,0.3,0.8Zm-1.6,0c0,0.5,0.2,0.8,0.5,0.8c0.4,0,0.6,-0.3,0.6,-0.8c0,-0.4,-0.2,-0.7,-0.6,-0.7c-0.2,0,-0.3,0.1,-0.4,0.2c-0.1,0.1,-0.1,0.3,-0.1,0.5Z" class="g7_11" />
<path d="M688.2,482.1c0,0.5,-0.1,0.8,-0.4,1.1c-0.2,0.2,-0.5,0.4,-1,0.4c-0.4,0,-0.7,-0.2,-0.9,-0.4c-0.3,-0.3,-0.4,-0.6,-0.4,-1.1c0,-0.5,0.1,-0.8,0.4,-1.1c0.2,-0.2,0.5,-0.4,0.9,-0.4c0.5,0,0.8,0.2,1,0.4c0.3,0.3,0.4,0.6,0.4,1.1Zm-2.2,0c0,0.3,0.1,0.6,0.2,0.8c0.2,0.2,0.4,0.3,0.6,0.3c0.3,0,0.5,-0.1,0.7,-0.3c0.1,-0.2,0.2,-0.4,0.2,-0.8c0,-0.4,-0.1,-0.6,-0.2,-0.8c-0.2,-0.2,-0.4,-0.3,-0.7,-0.3c-0.2,0,-0.4,0.1,-0.6,0.3c-0.1,0.2,-0.2,0.4,-0.2,0.8Zm3.8,-0.8l0.3,0l-0.1,0.5l-0.2,0c-0.2,0,-0.3,0,-0.4,0.1c-0.1,0.2,-0.2,0.3,-0.2,0.5l0,1.1l-0.5,0l0,-2.1l0.4,0l0.1,0.3l0.3,-0.3l0.3,-0.1Zm1.4,2.3c-0.3,0,-0.5,-0.1,-0.6,-0.3c-0.2,-0.2,-0.3,-0.5,-0.3,-0.8c0,-0.4,0.1,-0.7,0.3,-0.9c0.1,-0.2,0.3,-0.3,0.6,-0.3c0.3,0,0.5,0.1,0.6,0.3l0.1,0c-0.1,-0.1,-0.1,-0.2,-0.1,-0.3l0,-0.8l0.5,0l0,3l-0.4,0l0,-0.3l-0.1,0c-0.1,0.3,-0.3,0.4,-0.6,0.4Zm0.1,-0.4c0.2,0,0.3,-0.1,0.4,-0.2c0.1,-0.1,0.2,-0.2,0.2,-0.5c0,-0.3,-0.1,-0.5,-0.2,-0.6c-0.1,-0.1,-0.2,-0.2,-0.4,-0.2c-0.2,0,-0.3,0.1,-0.4,0.2c0,0.1,-0.1,0.3,-0.1,0.6c0,0.2,0,0.4,0.1,0.5c0.1,0.1,0.2,0.2,0.4,0.2Zm2.6,0.4c-0.3,0,-0.6,-0.1,-0.8,-0.3c-0.2,-0.2,-0.3,-0.5,-0.3,-0.8c0,-0.4,0.1,-0.7,0.3,-0.9c0.2,-0.2,0.4,-0.3,0.7,-0.3c0.3,0,0.5,0.1,0.7,0.3c0.1,0.2,0.2,0.4,0.2,0.7l0,0.2l-1.4,0c0,0.3,0.1,0.4,0.2,0.5c0.1,0.1,0.2,0.2,0.4,0.2l0.4,0l0.3,-0.2l0,0.4l-0.3,0.1c-0.1,0.1,-0.3,0.1,-0.4,0.1Zm-0.1,-1.9c-0.1,0,-0.3,0,-0.3,0.1c-0.1,0.1,-0.2,0.2,-0.2,0.4l1,0c0,-0.2,-0.1,-0.3,-0.1,-0.4c-0.1,-0.1,-0.2,-0.1,-0.4,-0.1Zm3.4,1.8l-0.5,0l0,-1.3c0,-0.2,0,-0.3,-0.1,-0.4c-0.1,-0.1,-0.2,-0.1,-0.3,-0.1c-0.2,0,-0.4,0.1,-0.5,0.2c0,0.1,-0.1,0.3,-0.1,0.6l0,1l-0.4,0l0,-2.1l0.3,0l0.1,0.3l0.3,-0.3c0.1,0,0.2,-0.1,0.4,-0.1c0.5,0,0.8,0.3,0.8,0.8Zm1.9,0l0,-0.3l-0.1,0l-0.3,0.3c-0.1,0,-0.2,0.1,-0.4,0.1c-0.2,0,-0.4,-0.1,-0.5,-0.2c-0.1,-0.1,-0.2,-0.3,-0.2,-0.5c0,-0.2,0.1,-0.4,0.3,-0.5c0.2,-0.1,0.4,-0.2,0.7,-0.2l0.4,0l0,-0.1l-0.1,-0.3l-0.3,-0.1l-0.3,0l-0.3,0.1l-0.1,-0.3c0.1,0,0.2,-0.1,0.3,-0.1c0.2,-0.1,0.3,-0.1,0.4,-0.1c0.3,0,0.5,0.1,0.7,0.2c0.1,0.1,0.2,0.3,0.2,0.6l0,1.4Zm-0.6,-0.3c0.1,0,0.3,0,0.4,-0.1c0.1,-0.1,0.1,-0.3,0.1,-0.4l0,-0.2l-0.3,0c-0.2,0,-0.3,0,-0.4,0.1l-0.2,0.3l0.1,0.2l0.3,0.1Zm2.3,0.4c-0.2,0,-0.4,-0.1,-0.6,-0.3c-0.1,-0.2,-0.2,-0.5,-0.2,-0.8c0,-0.4,0.1,-0.7,0.2,-0.9c0.2,-0.2,0.4,-0.3,0.6,-0.3c0.3,0,0.5,0.1,0.7,0.3c0,-0.1,0,-0.2,0,-0.3l0,-0.8l0.4,0l0,3l-0.3,0l-0.1,-0.3c-0.2,0.3,-0.4,0.4,-0.7,0.4Zm0.2,-0.4c0.2,0,0.3,-0.1,0.4,-0.2c0.1,-0.1,0.1,-0.2,0.1,-0.5c0,-0.3,0,-0.5,-0.1,-0.6c-0.1,-0.1,-0.3,-0.2,-0.4,-0.2c-0.2,0,-0.3,0.1,-0.4,0.2c-0.1,0.1,-0.1,0.3,-0.1,0.6c0,0.2,0,0.4,0.1,0.5c0.1,0.1,0.2,0.2,0.4,0.2Zm3.5,-0.8c0,0.4,-0.1,0.7,-0.3,0.9c-0.1,0.2,-0.4,0.3,-0.7,0.3c-0.2,0,-0.4,-0.1,-0.5,-0.2c-0.2,-0.1,-0.3,-0.2,-0.4,-0.4c-0.1,-0.1,-0.1,-0.3,-0.1,-0.6c0,-0.3,0.1,-0.6,0.2,-0.8c0.2,-0.2,0.5,-0.3,0.8,-0.3c0.3,0,0.6,0.1,0.7,0.3c0.2,0.2,0.3,0.5,0.3,0.8Zm-1.6,0c0,0.5,0.2,0.8,0.6,0.8c0.4,0,0.5,-0.3,0.5,-0.8c0,-0.5,-0.1,-0.7,-0.5,-0.7c-0.2,0,-0.3,0.1,-0.4,0.2c-0.1,0.1,-0.2,0.3,-0.2,0.5Zm2.9,0c0,0.4,0,0.7,-0.1,1c-0.1,0.3,-0.3,0.5,-0.5,0.8l-0.4,0c0.2,-0.3,0.4,-0.6,0.5,-0.9c0,-0.2,0.1,-0.6,0.1,-0.9c0,-0.3,-0.1,-0.6,-0.1,-0.9c-0.1,-0.3,-0.3,-0.6,-0.5,-0.8l0.4,0c0.2,0.2,0.4,0.5,0.5,0.8c0.1,0.3,0.1,0.6,0.1,0.9Zm1.2,-1l0.5,0l0.5,1.2c0,0.2,0.1,0.3,0.1,0.5l0.1,-0.3c0,-0.1,0.2,-0.6,0.5,-1.4l0.5,0l-1,2.4c-0.1,0.5,-0.4,0.7,-0.8,0.7l-0.3,0l0,-0.4l0.2,0c0.3,0,0.4,-0.1,0.5,-0.4l0.1,-0.2Zm3.6,2.1l0,-2.8l0.4,0l0,2.4l1.3,0l0,0.4Zm3,0.1c-0.3,0,-0.6,-0.1,-0.8,-0.3c-0.1,-0.2,-0.2,-0.5,-0.2,-0.8c0,-0.4,0.1,-0.7,0.2,-0.9c0.2,-0.2,0.4,-0.3,0.8,-0.3c0.2,0,0.5,0.1,0.6,0.3c0.2,0.2,0.3,0.4,0.3,0.7l0,0.2l-1.5,0c0,0.3,0.1,0.4,0.2,0.5c0.1,0.1,0.3,0.2,0.5,0.2l0.3,0l0.4,-0.2l0,0.4l-0.4,0.1c-0.1,0.1,-0.2,0.1,-0.4,0.1Zm0,-1.9c-0.2,0,-0.3,0,-0.4,0.1c-0.1,0.1,-0.1,0.2,-0.2,0.4l1,0c0,-0.2,0,-0.3,-0.1,-0.4c-0.1,-0.1,-0.2,-0.1,-0.3,-0.1Zm1.1,-0.3l0.5,0l0.4,1.2c0.1,0.2,0.1,0.3,0.1,0.5l0.1,0l0,-0.3c0,-0.1,0.2,-0.6,0.5,-1.4l0.5,0l-0.9,2.4c-0.2,0.5,-0.5,0.7,-0.9,0.7l-0.2,0l0,-0.4l0.2,0c0.2,0,0.4,-0.1,0.5,-0.4l0,-0.2Zm5.9,2.1l-0.6,0l-1.4,-2.2l0,0.1c0,0.2,0,0.4,0,0.6l0,1.5l-0.4,0l0,-2.8l0.6,0l1.4,2.2c0,0,0,-0.1,0,-0.3c0,-0.2,0,-0.3,0,-0.4l0,-1.5l0.4,0Zm1.8,-2.2c0,0.2,-0.1,0.4,-0.2,0.5c-0.1,0.2,-0.3,0.2,-0.5,0.2c-0.2,0,-0.3,0,-0.4,-0.2c-0.1,-0.1,-0.2,-0.3,-0.2,-0.5c0,-0.2,0.1,-0.4,0.2,-0.5c0.1,-0.1,0.2,-0.2,0.4,-0.2c0.2,0,0.4,0.1,0.5,0.2c0.1,0.1,0.2,0.3,0.2,0.5Zm-1,0c0,0.2,0,0.3,0.1,0.4l0.2,0.1l0.3,-0.1c0,-0.1,0.1,-0.2,0.1,-0.4c0,-0.1,-0.1,-0.2,-0.1,-0.3l-0.3,-0.1l-0.2,0.1c-0.1,0.1,-0.1,0.2,-0.1,0.3Zm4.2,2.2l-1.9,0l0,-0.3l0.7,-0.8c0.3,-0.2,0.4,-0.3,0.5,-0.4l0.1,-0.3l0.1,-0.3L725,481.1L724.6,481l-0.3,0.1l-0.3,0.2L723.7,481c0.2,-0.1,0.3,-0.2,0.5,-0.3c0.1,0,0.3,-0.1,0.5,-0.1c0.2,0,0.4,0.1,0.6,0.2c0.2,0.2,0.2,0.4,0.2,0.6l0,0.4l-0.2,0.3c-0.1,0.1,-0.3,0.3,-0.5,0.5l-0.5,0.5l1.3,0Zm0.4,-1.2c0,-1.1,0.5,-1.7,1.4,-1.7c0.1,0,0.2,0,0.3,0.1l0,0.3l-0.3,0c-0.3,0,-0.5,0.1,-0.7,0.3c-0.2,0.1,-0.2,0.4,-0.3,0.7l0.1,0l0.2,-0.2c0.1,-0.1,0.3,-0.1,0.4,-0.1c0.3,0,0.5,0.1,0.6,0.2c0.2,0.2,0.2,0.4,0.2,0.7c0,0.3,0,0.5,-0.2,0.7c-0.2,0.2,-0.4,0.3,-0.7,0.3c-0.2,0,-0.4,-0.1,-0.5,-0.2c-0.2,-0.1,-0.3,-0.2,-0.4,-0.4C726,482.8,726,482.6,726,482.3Zm1,0.9c0.2,0,0.3,-0.1,0.4,-0.2c0,-0.1,0.1,-0.2,0.1,-0.4c0,-0.2,0,-0.3,-0.1,-0.4c-0.1,-0.1,-0.2,-0.1,-0.4,-0.1l-0.3,0l-0.2,0.2l0,0.2c0,0.2,0,0.4,0.1,0.5c0.1,0.1,0.2,0.2,0.4,0.2Zm1.4,0.1l0,-0.2l0.2,-0.1l0.3,0.1l0,0.2l0,0.2l-0.3,0.1l-0.2,-0.1l0,-0.2Zm1.9,-1.6c0.3,0,0.6,0.1,0.7,0.3c0.2,0.1,0.3,0.3,0.3,0.6c0,0.3,-0.1,0.5,-0.3,0.7c-0.2,0.2,-0.5,0.3,-0.8,0.3c-0.3,0,-0.6,-0.1,-0.8,-0.2l0,-0.4l0.4,0.1l0.4,0.1c0.2,0,0.3,-0.1,0.4,-0.2c0.2,0,0.2,-0.2,0.2,-0.4c0,-0.3,-0.2,-0.5,-0.6,-0.5l-0.3,0l-0.2,0.1l-0.2,-0.1l0.1,-1.4l1.5,0l0,0.4l-1.1,0l-0.1,0.7l0.2,0l0.2,-0.1Zm1.7,1.8l1.1,-2.4l-1.5,0l0,-0.4l2,0l0,0.3l-1.1,2.5Zm3.3,0l-0.5,0l0,-1.8c0,-0.2,0,-0.4,0,-0.5l-0.1,0.1c0,0,-0.2,0.1,-0.4,0.3l-0.2,-0.3l0.8,-0.6l0.4,0Zm2.8,0.1c-0.2,0,-0.4,-0.1,-0.6,-0.3c-0.1,-0.2,-0.2,-0.5,-0.2,-0.8c0,-0.4,0.1,-0.7,0.2,-0.9c0.2,-0.2,0.4,-0.3,0.6,-0.3c0.3,0,0.5,0.1,0.7,0.3c0,-0.1,0,-0.2,0,-0.3l0,-0.8l0.4,0l0,3l-0.3,0l-0.1,-0.3c-0.2,0.3,-0.4,0.4,-0.7,0.4Zm0.2,-0.4c0.1,0,0.3,-0.1,0.4,-0.2c0.1,-0.1,0.1,-0.2,0.1,-0.5c0,-0.3,0,-0.5,-0.1,-0.6c-0.1,-0.1,-0.3,-0.2,-0.4,-0.2c-0.2,0,-0.3,0.1,-0.4,0.2c-0.1,0.1,-0.1,0.3,-0.1,0.6c0,0.2,0,0.4,0.1,0.5c0.1,0.1,0.2,0.2,0.4,0.2Zm2.5,0.4c-0.3,0,-0.6,-0.1,-0.7,-0.3c-0.2,-0.2,-0.3,-0.5,-0.3,-0.8c0,-0.4,0.1,-0.7,0.2,-0.9c0.2,-0.2,0.5,-0.3,0.8,-0.3c0.2,0,0.5,0.1,0.6,0.3c0.2,0.2,0.3,0.4,0.3,0.7l0,0.2l-1.5,0c0,0.3,0.1,0.4,0.2,0.5c0.1,0.1,0.3,0.2,0.5,0.2l0.3,0l0.4,-0.2l0,0.4l-0.4,0.1c-0.1,0.1,-0.2,0.1,-0.4,0.1Zm0,-1.9c-0.2,0,-0.3,0,-0.4,0.1c-0.1,0.1,-0.1,0.2,-0.2,0.4l1,0c0,-0.2,0,-0.3,-0.1,-0.4c-0.1,-0.1,-0.2,-0.1,-0.3,-0.1Zm4.8,0.4c0,0.4,-0.1,0.8,-0.4,1.1c-0.2,0.2,-0.6,0.3,-1.1,0.3l-0.8,0l0,-2.8l0.9,0c0.4,0,0.8,0.1,1,0.3c0.3,0.3,0.4,0.6,0.4,1.1Zm-0.5,0c0,-0.7,-0.3,-1,-0.9,-1l-0.4,0l0,2l0.3,0c0.7,0,1,-0.3,1,-1Zm2,1.5c-0.3,0,-0.6,-0.1,-0.8,-0.3c-0.2,-0.2,-0.3,-0.5,-0.3,-0.8c0,-0.4,0.1,-0.7,0.3,-0.9c0.2,-0.2,0.4,-0.3,0.7,-0.3c0.3,0,0.5,0.1,0.7,0.3c0.2,0.2,0.3,0.4,0.3,0.7l0,0.2l-1.5,0c0,0.3,0.1,0.4,0.2,0.5c0.1,0.1,0.2,0.2,0.4,0.2l0.4,0l0.3,-0.2l0,0.4l-0.3,0.1c-0.1,0.1,-0.2,0.1,-0.4,0.1ZM747,481.7c-0.1,0,-0.2,0,-0.3,0.1c-0.1,0.1,-0.2,0.2,-0.2,0.4l1,0c0,-0.2,0,-0.3,-0.1,-0.4c-0.1,-0.1,-0.2,-0.1,-0.4,-0.1Zm3.3,1.8l-0.5,0l0,-1.3c0,-0.2,0,-0.3,-0.1,-0.4l-0.3,-0.1c-0.1,0,-0.3,0.1,-0.3,0.2c-0.1,0.1,-0.2,0.3,-0.2,0.6l0,1l-0.4,0l0,-2.1l0.3,0l0.1,0.3l0.3,-0.3l0.4,-0.1c0.3,0,0.5,0.1,0.6,0.4l0.3,-0.3c0.1,0,0.3,-0.1,0.4,-0.1c0.3,0,0.5,0.1,0.6,0.2c0.1,0.2,0.2,0.4,0.2,0.6l0,1.4l-0.5,0l0,-1.3c0,-0.2,0,-0.3,-0.1,-0.4l-0.3,-0.1c-0.2,0,-0.3,0.1,-0.4,0.2c-0.1,0.1,-0.1,0.3,-0.1,0.5Zm3.9,-1.1c0,0.4,-0.1,0.7,-0.3,0.9c-0.1,0.2,-0.4,0.3,-0.7,0.3c-0.2,0,-0.4,-0.1,-0.6,-0.2c-0.1,-0.1,-0.2,-0.2,-0.3,-0.4c-0.1,-0.1,-0.1,-0.3,-0.1,-0.6c0,-0.3,0.1,-0.6,0.2,-0.8c0.2,-0.2,0.5,-0.3,0.8,-0.3c0.3,0,0.6,0.1,0.7,0.3c0.2,0.2,0.3,0.5,0.3,0.8Zm-1.6,0c0,0.5,0.2,0.8,0.6,0.8c0.4,0,0.5,-0.3,0.5,-0.8c0,-0.5,-0.1,-0.7,-0.5,-0.7c-0.2,0,-0.3,0.1,-0.4,0.2c-0.1,0.1,-0.2,0.3,-0.2,0.5Zm3,1.2c-0.3,0,-0.6,-0.1,-0.7,-0.3c-0.2,-0.2,-0.3,-0.5,-0.3,-0.8c0,-0.4,0.1,-0.7,0.3,-0.9c0.2,-0.2,0.4,-0.3,0.7,-0.3c0.3,0,0.5,0.1,0.7,0.2l-0.2,0.3c-0.2,-0.1,-0.3,-0.1,-0.5,-0.1c-0.3,0,-0.5,0.3,-0.5,0.8c0,0.2,0,0.4,0.1,0.5c0.1,0.1,0.2,0.2,0.4,0.2c0.2,0,0.4,-0.1,0.6,-0.2l0,0.4l-0.3,0.1l-0.3,0.1Zm2.2,-2.3l0.2,0l0,0.5l-0.2,0c-0.2,0,-0.3,0,-0.5,0.1c-0.1,0.2,-0.1,0.3,-0.1,0.5l0,1.1l-0.5,0l0,-2.1l0.4,0l0,0.3l0.1,0l0.2,-0.3l0.4,-0.1Zm2,2.2l-0.1,-0.3l-0.3,0.3c-0.1,0,-0.3,0.1,-0.4,0.1c-0.3,0,-0.4,-0.1,-0.5,-0.2c-0.2,-0.1,-0.2,-0.3,-0.2,-0.5c0,-0.2,0.1,-0.4,0.2,-0.5c0.2,-0.1,0.4,-0.2,0.8,-0.2l0.4,0l0,-0.1l-0.1,-0.3l-0.3,-0.1l-0.4,0l-0.2,0.1l-0.2,-0.3c0.1,0,0.2,-0.1,0.4,-0.1c0.1,-0.1,0.3,-0.1,0.4,-0.1c0.3,0,0.5,0.1,0.6,0.2c0.1,0.1,0.2,0.3,0.2,0.6l0,1.4Zm-0.7,-0.3c0.2,0,0.3,0,0.4,-0.1c0.1,-0.1,0.2,-0.3,0.2,-0.4l0,-0.2l-0.3,0c-0.2,0,-0.4,0,-0.5,0.1l-0.1,0.3l0,0.2l0.3,0.1Zm2.5,0l0.3,-0.1l0,0.4l-0.2,0l-0.3,0.1c-0.4,0,-0.6,-0.3,-0.6,-0.7l0,-1.2l-0.3,0l0,-0.2l0.3,-0.2l0.2,-0.4l0.3,0l0,0.5l0.6,0l0,0.3l-0.6,0l0,1.2l0,0.2l0.3,0.1Zm1.2,0.3l-0.5,0l0,-2.1l0.5,0Zm-0.5,-2.7l0.1,-0.2l0.2,-0.1l0.1,0.1l0.1,0.2l-0.1,0.2l-0.1,0l-0.2,0l-0.1,-0.2Zm2.6,2.7l-1.7,0l0,-0.3l1.1,-1.5l-1,0l0,-0.3l1.5,0l0,0.3l-1,1.5l1.1,0Zm1.8,0l-0.1,-0.3l-0.3,0.3c-0.1,0,-0.3,0.1,-0.4,0.1c-0.2,0,-0.4,-0.1,-0.5,-0.2c-0.1,-0.1,-0.2,-0.3,-0.2,-0.5c0,-0.2,0.1,-0.4,0.2,-0.5c0.2,-0.1,0.5,-0.2,0.8,-0.2l0.4,0l0,-0.1l-0.1,-0.3l-0.3,-0.1l-0.3,0l-0.3,0.1l-0.2,-0.3c0.1,0,0.3,-0.1,0.4,-0.1c0.1,-0.1,0.3,-0.1,0.4,-0.1c0.3,0,0.5,0.1,0.6,0.2c0.2,0.1,0.2,0.3,0.2,0.6l0,1.4ZM766,483.2c0.2,0,0.3,0,0.4,-0.1c0.1,-0.1,0.2,-0.3,0.2,-0.4l0,-0.2l-0.3,0c-0.2,0,-0.4,0,-0.5,0.1l-0.1,0.3l0.1,0.2l0.2,0.1Zm2.5,0.4c-0.3,0,-0.5,-0.1,-0.7,-0.3c-0.2,-0.2,-0.3,-0.5,-0.3,-0.8c0,-0.4,0.1,-0.7,0.3,-0.9c0.2,-0.2,0.4,-0.3,0.8,-0.3c0.2,0,0.4,0.1,0.6,0.2l-0.1,0.3c-0.2,-0.1,-0.4,-0.1,-0.5,-0.1c-0.4,0,-0.6,0.3,-0.6,0.8c0,0.2,0.1,0.4,0.1,0.5c0.1,0.1,0.3,0.2,0.5,0.2c0.2,0,0.4,-0.1,0.5,-0.2l0,0.4l-0.2,0.1l-0.4,0.1Zm1.6,-0.1l-0.5,0l0,-2.1l0.5,0Zm-0.5,-2.7l0.1,-0.2l0.2,-0.1l0.2,0.1l0,0.2l0,0.2l-0.2,0l-0.2,0l-0.1,-0.2Zm3.1,1.6c0,0.4,-0.1,0.7,-0.3,0.9c-0.2,0.2,-0.4,0.3,-0.8,0.3c-0.2,0,-0.3,-0.1,-0.5,-0.2c-0.1,-0.1,-0.3,-0.2,-0.3,-0.4c-0.1,-0.1,-0.2,-0.3,-0.2,-0.6c0,-0.3,0.1,-0.6,0.3,-0.8c0.2,-0.2,0.4,-0.3,0.8,-0.3c0.3,0,0.5,0.1,0.7,0.3c0.2,0.2,0.3,0.5,0.3,0.8Zm-1.6,0c0,0.5,0.2,0.8,0.6,0.8c0.3,0,0.5,-0.3,0.5,-0.8c0,-0.5,-0.2,-0.7,-0.6,-0.7c-0.1,0,-0.3,0.1,-0.4,0.2c-0.1,0.1,-0.1,0.3,-0.1,0.5Zm0.3,-1.3l0.2,-0.3l0.2,-0.3l0.5,0l-0.3,0.3l-0.3,0.3Zm3.7,2.4l-0.5,0l0,-1.3c0,-0.2,0,-0.3,-0.1,-0.4c0,-0.1,-0.1,-0.1,-0.3,-0.1c-0.2,0,-0.3,0.1,-0.4,0.2c-0.1,0.1,-0.1,0.3,-0.1,0.6l0,1l-0.5,0l0,-2.1l0.4,0l0,0.3l0.3,-0.3c0.1,0,0.3,-0.1,0.4,-0.1c0.5,0,0.8,0.3,0.8,0.8Z" class="g7_11" />
<path d="M686.3,488.4c-0.2,0,-0.5,-0.1,-0.6,-0.3c-0.2,-0.2,-0.2,-0.5,-0.2,-0.9c0,-0.3,0,-0.6,0.2,-0.8c0.2,-0.2,0.4,-0.3,0.6,-0.3c0.3,0,0.5,0.1,0.7,0.3c0,-0.1,0,-0.2,0,-0.3l0,-0.8l0.4,0l0,3l-0.3,0L687,488c-0.2,0.3,-0.4,0.4,-0.7,0.4Zm0.1,-0.4c0.2,0,0.4,-0.1,0.5,-0.2c0,-0.1,0.1,-0.2,0.1,-0.5l0,-0.1c0,-0.2,-0.1,-0.4,-0.1,-0.5c-0.1,-0.1,-0.3,-0.2,-0.5,-0.2c-0.1,0,-0.2,0.1,-0.3,0.2c-0.1,0.1,-0.2,0.3,-0.2,0.6c0,0.2,0.1,0.4,0.2,0.5c0.1,0.1,0.2,0.2,0.3,0.2Zm2.6,0.4c-0.3,0,-0.6,-0.1,-0.8,-0.3c-0.1,-0.2,-0.2,-0.5,-0.2,-0.8c0,-0.4,0,-0.7,0.2,-0.9c0.2,-0.2,0.4,-0.3,0.7,-0.3c0.3,0,0.6,0.1,0.7,0.3c0.2,0.2,0.3,0.4,0.3,0.7l0,0.2l-1.5,0c0,0.3,0.1,0.4,0.2,0.5c0.1,0.1,0.3,0.2,0.4,0.2l0.4,0l0.4,-0.2l0,0.4l-0.4,0.1c-0.1,0,-0.2,0.1,-0.4,0.1Zm-0.1,-1.9c-0.1,0,-0.2,0,-0.3,0.1c-0.1,0.1,-0.1,0.2,-0.2,0.4l1,0c0,-0.2,0,-0.3,-0.1,-0.4c-0.1,-0.1,-0.2,-0.1,-0.4,-0.1Zm3,1.8l-0.5,0l0,-3l0.5,0Zm2,0L693.8,488l-0.3,0.3c-0.1,0,-0.3,0.1,-0.4,0.1c-0.3,0,-0.4,-0.1,-0.5,-0.2c-0.2,-0.1,-0.2,-0.3,-0.2,-0.5c0,-0.2,0.1,-0.4,0.2,-0.5c0.2,-0.1,0.5,-0.2,0.8,-0.2l0.4,0l0,-0.1l-0.1,-0.3l-0.3,-0.1l-0.4,0l-0.2,0.1l-0.2,-0.3c0.1,-0.1,0.3,-0.1,0.4,-0.1c0.1,-0.1,0.3,-0.1,0.4,-0.1c0.3,0,0.5,0.1,0.6,0.2c0.1,0.1,0.2,0.3,0.2,0.6l0,1.4ZM693.2,488c0.2,0,0.3,0,0.4,-0.1c0.1,-0.1,0.2,-0.3,0.2,-0.4l0,-0.2l-0.3,0c-0.2,0,-0.4,0,-0.5,0.1l-0.1,0.3l0,0.2l0.3,0.1Zm3.2,-1.2l0.3,0c0.3,0,0.4,0,0.5,-0.1c0.1,-0.1,0.2,-0.2,0.2,-0.4c0,-0.1,-0.1,-0.3,-0.2,-0.3c-0.1,-0.1,-0.3,-0.1,-0.5,-0.1l-0.3,0Zm0,0.4l0,1.1l-0.5,0l0,-2.8l0.9,0c0.3,0,0.6,0,0.8,0.2c0.1,0.1,0.2,0.3,0.2,0.6c0,0.4,-0.2,0.6,-0.5,0.8l0.8,1.2l-0.5,0l-0.7,-1.1Zm3,1.2c-0.3,0,-0.6,-0.1,-0.8,-0.3c-0.2,-0.2,-0.3,-0.5,-0.3,-0.8c0,-0.4,0.1,-0.7,0.3,-0.9c0.2,-0.2,0.4,-0.3,0.7,-0.3c0.3,0,0.5,0.1,0.7,0.3c0.2,0.2,0.2,0.4,0.2,0.7l0,0.2l-1.4,0c0,0.3,0.1,0.4,0.2,0.5c0.1,0.1,0.2,0.2,0.4,0.2l0.4,0l0.3,-0.2l0,0.4l-0.3,0.1c-0.1,0,-0.3,0.1,-0.4,0.1Zm-0.1,-1.9c-0.1,0,-0.3,0,-0.3,0.1c-0.1,0.1,-0.2,0.2,-0.2,0.4l1,0c0,-0.2,-0.1,-0.3,-0.1,-0.4c-0.1,-0.1,-0.2,-0.1,-0.4,-0.1Zm2.5,1.9c-0.2,0,-0.4,-0.1,-0.6,-0.3c0,0.1,0,0.3,0,0.3l0,0.9l-0.4,0l0,-3.1l0.3,0c0,0,0.1,0.1,0.1,0.3c0.2,-0.3,0.4,-0.4,0.7,-0.4c0.2,0,0.4,0.1,0.6,0.3c0.1,0.2,0.2,0.5,0.2,0.8c0,0.4,-0.1,0.7,-0.2,0.9c-0.2,0.2,-0.4,0.3,-0.7,0.3Zm-0.1,-1.9c-0.1,0,-0.3,0.1,-0.4,0.2c0,0.1,-0.1,0.2,-0.1,0.5c0,0.3,0.1,0.5,0.1,0.6c0.1,0.1,0.3,0.2,0.4,0.2c0.2,0,0.3,-0.1,0.4,-0.2c0.1,-0.1,0.1,-0.3,0.1,-0.6c0,-0.2,0,-0.4,-0.1,-0.5c-0.1,-0.1,-0.2,-0.2,-0.4,-0.2Zm2.6,-0.4l0.3,0l-0.1,0.5l-0.2,-0.1c-0.2,0,-0.3,0.1,-0.4,0.2c-0.1,0.1,-0.2,0.3,-0.2,0.5l0,1.1l-0.5,0l0,-2.1l0.4,0l0.1,0.3l0.3,-0.3l0.3,-0.1Zm1.6,2.3c-0.3,0,-0.6,-0.1,-0.8,-0.3c-0.2,-0.2,-0.3,-0.5,-0.3,-0.8c0,-0.4,0.1,-0.7,0.3,-0.9c0.2,-0.2,0.4,-0.3,0.7,-0.3c0.3,0,0.5,0.1,0.7,0.3c0.2,0.2,0.2,0.4,0.2,0.7l0,0.2l-1.4,0c0,0.3,0.1,0.4,0.2,0.5c0.1,0.1,0.2,0.2,0.4,0.2l0.4,0l0.3,-0.2l0,0.4l-0.3,0.1c-0.1,0,-0.2,0.1,-0.4,0.1Zm-0.1,-1.9c-0.1,0,-0.2,0,-0.3,0.1c-0.1,0.1,-0.2,0.2,-0.2,0.4l1,0c0,-0.2,-0.1,-0.3,-0.1,-0.4c-0.1,-0.1,-0.2,-0.1,-0.4,-0.1Zm2.9,1.2c0,0.2,-0.1,0.4,-0.2,0.5c-0.2,0.1,-0.4,0.2,-0.7,0.2c-0.3,0,-0.5,-0.1,-0.7,-0.2l0,-0.4c0.3,0.2,0.5,0.2,0.7,0.2c0.3,0,0.5,-0.1,0.5,-0.2l-0.1,-0.2l-0.1,-0.1l-0.3,-0.1c-0.3,-0.1,-0.4,-0.2,-0.5,-0.3c-0.1,-0.1,-0.2,-0.2,-0.2,-0.4c0,-0.2,0.1,-0.3,0.3,-0.4c0.1,-0.1,0.3,-0.2,0.6,-0.2c0.2,0,0.5,0.1,0.7,0.2l-0.2,0.3c-0.2,-0.1,-0.4,-0.1,-0.6,-0.1c-0.2,0,-0.3,0,-0.3,0.2l0.1,0.2c0,0,0.2,0.1,0.4,0.2c0.2,0,0.3,0.1,0.4,0.1l0.2,0.2l0,0.3Zm1.5,0.7c-0.4,0,-0.6,-0.1,-0.8,-0.3c-0.2,-0.2,-0.3,-0.5,-0.3,-0.8c0,-0.4,0.1,-0.7,0.2,-0.9c0.2,-0.2,0.5,-0.3,0.8,-0.3c0.3,0,0.5,0.1,0.6,0.3c0.2,0.2,0.3,0.4,0.3,0.7l0,0.2l-1.4,0c0,0.3,0,0.4,0.1,0.5c0.1,0.1,0.3,0.2,0.5,0.2l0.3,0l0.4,-0.2l0,0.4l-0.4,0.1c-0.1,0,-0.2,0.1,-0.3,0.1Zm-0.1,-1.9c-0.2,0,-0.3,0,-0.4,0.1c-0.1,0.1,-0.1,0.2,-0.1,0.4l0.9,0c0,-0.2,0,-0.3,-0.1,-0.4c-0.1,-0.1,-0.2,-0.1,-0.3,-0.1Zm3.3,1.8l-0.4,0l0,-1.3c0,-0.2,-0.1,-0.3,-0.1,-0.4c-0.1,-0.1,-0.2,-0.1,-0.4,-0.1c-0.2,0,-0.3,0.1,-0.4,0.2c-0.1,0.1,-0.1,0.3,-0.1,0.5l0,1.1l-0.5,0l0,-2.1l0.4,0l0,0.2l0.1,0l0.2,-0.2c0.2,-0.1,0.3,-0.1,0.4,-0.1c0.6,0,0.8,0.3,0.8,0.8Zm1.5,-0.3l0.3,-0.1l0,0.4l-0.2,0l-0.3,0.1c-0.4,0,-0.6,-0.3,-0.6,-0.7l0,-1.2l-0.3,0l0,-0.2l0.3,-0.2l0.2,-0.4l0.3,0l0,0.5l0.6,0l0,0.3l-0.6,0l0,1.2l0,0.2l0.3,0.1Zm2.1,0.3L716.9,488l-0.3,0.3c-0.2,0,-0.3,0.1,-0.5,0.1c-0.2,0,-0.3,-0.1,-0.5,-0.2c-0.1,-0.1,-0.1,-0.3,-0.1,-0.5c0,-0.2,0.1,-0.4,0.2,-0.5c0.2,-0.1,0.4,-0.2,0.8,-0.2l0.3,0l0,-0.1l-0.1,-0.3l-0.2,-0.1l-0.4,0l-0.3,0.1l-0.1,-0.3c0.1,-0.1,0.2,-0.1,0.4,-0.1c0.1,-0.1,0.2,-0.1,0.4,-0.1c0.2,0,0.5,0.1,0.6,0.2c0.1,0.1,0.2,0.3,0.2,0.6l0,1.4ZM716.3,488c0.2,0,0.3,0,0.4,-0.1c0.1,-0.1,0.1,-0.3,0.1,-0.4l0,-0.2l-0.2,0c-0.3,0,-0.4,0,-0.5,0.1l-0.2,0.3l0.1,0.2l0.3,0.1Zm2.5,0.4c-0.3,0,-0.6,-0.1,-0.7,-0.3c-0.2,-0.2,-0.3,-0.5,-0.3,-0.8c0,-0.4,0.1,-0.7,0.3,-0.9c0.2,-0.2,0.4,-0.3,0.7,-0.3c0.3,0,0.5,0.1,0.7,0.1l-0.2,0.4c-0.2,-0.1,-0.3,-0.1,-0.5,-0.1c-0.3,0,-0.5,0.3,-0.5,0.7c0,0.3,0,0.5,0.1,0.6c0.1,0.1,0.3,0.2,0.4,0.2c0.2,0,0.4,-0.1,0.6,-0.2l0,0.4l-0.2,0.1l-0.4,0.1Zm1.6,-0.1l-0.5,0l0,-2.1l0.5,0Zm-0.5,-2.7l0.1,-0.2l0.2,-0.1l0.1,0.1l0.1,0.2l-0.1,0.2l-0.1,0l-0.2,0l-0.1,-0.2Zm3,1.6c0,0.4,0,0.7,-0.2,0.9c-0.2,0.2,-0.5,0.3,-0.8,0.3c-0.2,0,-0.4,-0.1,-0.5,-0.2c-0.2,-0.1,-0.3,-0.2,-0.4,-0.4c-0.1,-0.1,-0.1,-0.3,-0.1,-0.6c0,-0.3,0.1,-0.6,0.3,-0.8c0.2,-0.2,0.4,-0.3,0.7,-0.3c0.3,0,0.6,0.1,0.8,0.3c0.2,0.2,0.2,0.5,0.2,0.8Zm-1.5,0c0,0.5,0.2,0.8,0.5,0.8c0.4,0,0.6,-0.3,0.6,-0.8c0,-0.5,-0.2,-0.7,-0.6,-0.7c-0.2,0,-0.3,0.1,-0.4,0.2c-0.1,0.1,-0.1,0.3,-0.1,0.5Zm0.2,-1.3l0,-0.1l0.3,-0.3l0.1,-0.2l0.6,0l-0.3,0.3l-0.4,0.3Zm3.8,2.4l-0.5,0l0,-1.3c0,-0.2,0,-0.3,-0.1,-0.4c-0.1,-0.1,-0.2,-0.1,-0.3,-0.1c-0.2,0,-0.3,0.1,-0.4,0.2c-0.1,0.1,-0.2,0.3,-0.2,0.5l0,1.1l-0.4,0l0,-2.1l0.3,0l0.1,0.2l0.3,-0.2c0.1,-0.1,0.3,-0.1,0.4,-0.1c0.5,0,0.8,0.3,0.8,0.8Zm3.6,-2c0,0.3,-0.1,0.6,-0.3,0.7c-0.2,0.2,-0.5,0.3,-0.8,0.3l-0.3,0l0,1l-0.5,0l0,-2.8l0.8,0c0.4,0,0.6,0,0.8,0.2c0.2,0.1,0.3,0.3,0.3,0.6Zm-1.4,0.6l0.2,0c0.2,0,0.4,-0.1,0.5,-0.2c0.1,0,0.2,-0.2,0.2,-0.4c0,-0.1,0,-0.2,-0.1,-0.3c-0.1,-0.1,-0.3,-0.1,-0.5,-0.1l-0.3,0Zm3.8,0.3c0,0.4,-0.1,0.7,-0.2,0.9c-0.2,0.2,-0.5,0.3,-0.8,0.3c-0.2,0,-0.4,-0.1,-0.5,-0.2c-0.2,-0.1,-0.3,-0.2,-0.4,-0.4c-0.1,-0.1,-0.1,-0.3,-0.1,-0.6c0,-0.3,0.1,-0.6,0.2,-0.8c0.2,-0.2,0.5,-0.3,0.8,-0.3c0.3,0,0.6,0.1,0.7,0.3c0.2,0.2,0.3,0.5,0.3,0.8Zm-1.5,0c0,0.5,0.1,0.8,0.5,0.8c0.4,0,0.6,-0.3,0.6,-0.8c0,-0.5,-0.2,-0.7,-0.6,-0.7c-0.2,0,-0.3,0.1,-0.4,0.2c-0.1,0.1,-0.1,0.3,-0.1,0.5Zm2.5,1.1l-0.4,0l0,-3l0.4,0Zm1.1,0l-0.4,0l0,-2.1l0.4,0ZM733,485.9l0,-0.1l0.3,-0.3l0.2,-0.2l0.5,0l-0.3,0.3l-0.4,0.3Zm2,2.1l0.3,-0.1l0,0.4l-0.2,0l-0.2,0.1c-0.5,0,-0.7,-0.3,-0.7,-0.7l0,-1.2l-0.3,0l0,-0.2l0.3,-0.2l0.2,-0.4l0.3,0l0,0.5l0.6,0l0,0.3l-0.6,0l0,1.2l0.1,0.2L735,488Zm1.2,0.3l-0.5,0l0,-2.1l0.5,0Zm-0.5,-2.7l0.1,-0.2l0.2,-0.1l0.2,0.1l0,0.2l0,0.2l-0.2,0l-0.2,0l-0.1,-0.2Zm2,2.8c-0.3,0,-0.5,-0.1,-0.7,-0.3c-0.2,-0.2,-0.3,-0.5,-0.3,-0.8c0,-0.4,0.1,-0.7,0.3,-0.9c0.2,-0.2,0.4,-0.3,0.8,-0.3c0.2,0,0.4,0.1,0.6,0.1l-0.2,0.4c-0.1,-0.1,-0.3,-0.1,-0.4,-0.1c-0.4,0,-0.6,0.3,-0.6,0.7c0,0.3,0.1,0.5,0.1,0.6c0.1,0.1,0.3,0.2,0.5,0.2c0.2,0,0.4,-0.1,0.5,-0.2l0,0.4l-0.2,0.1l-0.4,0.1Zm2.5,-0.1L740.1,488l-0.3,0.3c-0.1,0,-0.3,0.1,-0.4,0.1c-0.2,0,-0.4,-0.1,-0.5,-0.2c-0.2,-0.1,-0.2,-0.3,-0.2,-0.5c0,-0.2,0.1,-0.4,0.2,-0.5c0.2,-0.1,0.5,-0.2,0.8,-0.2l0.4,0l0,-0.1L740,486.6l-0.3,-0.1l-0.3,0l-0.3,0.1l-0.2,-0.3c0.1,-0.1,0.3,-0.1,0.4,-0.1c0.1,-0.1,0.3,-0.1,0.4,-0.1c0.3,0,0.5,0.1,0.6,0.2c0.2,0.1,0.2,0.3,0.2,0.6l0,1.4ZM739.5,488c0.2,0,0.3,0,0.4,-0.1c0.1,-0.1,0.2,-0.3,0.2,-0.4l0,-0.2l-0.3,0c-0.2,0,-0.4,0,-0.5,0.1l-0.1,0.3l0.1,0.2l0.2,0.1Zm2.1,-0.1c0,0.2,-0.1,0.6,-0.3,0.9l-0.3,0c0,-0.3,0.1,-0.6,0.2,-0.9l0.4,0Zm2.1,0.4l-0.4,0l0,-3l0.4,0Zm2,0L745.6,488l-0.3,0.3c-0.1,0,-0.2,0.1,-0.4,0.1c-0.2,0,-0.4,-0.1,-0.5,-0.2c-0.1,-0.1,-0.2,-0.3,-0.2,-0.5c0,-0.2,0.1,-0.4,0.3,-0.5c0.1,-0.1,0.4,-0.2,0.7,-0.2l0.4,0l0,-0.1l-0.1,-0.3l-0.3,-0.1l-0.3,0l-0.3,0.1l-0.2,-0.3c0.2,-0.1,0.3,-0.1,0.4,-0.1c0.2,-0.1,0.3,-0.1,0.4,-0.1c0.3,0,0.5,0.1,0.6,0.2c0.2,0.1,0.3,0.3,0.3,0.6l0,1.4ZM745,488c0.2,0,0.3,0,0.4,-0.1c0.1,-0.1,0.2,-0.3,0.2,-0.4l0,-0.2l-0.3,0c-0.2,0,-0.4,0,-0.4,0.1l-0.2,0.3l0.1,0.2L745,488Zm3.8,0.3l-0.5,0l0,-2.4l-0.8,0l0,-0.4l2.1,0l0,0.4l-0.8,0Zm2.3,-2.2l0.2,0l0,0.5l-0.2,-0.1c-0.2,0,-0.4,0.1,-0.5,0.2c-0.1,0.1,-0.1,0.3,-0.1,0.5l0,1.1l-0.5,0l0,-2.1l0.4,0l0,0.3l0.3,-0.3l0.4,-0.1Zm2,2.2L753,488l-0.4,0.3c-0.1,0,-0.2,0.1,-0.4,0.1c-0.2,0,-0.3,-0.1,-0.5,-0.2c-0.1,-0.1,-0.1,-0.3,-0.1,-0.5c0,-0.2,0.1,-0.4,0.2,-0.5c0.2,-0.1,0.4,-0.2,0.8,-0.2l0.3,0l0,-0.1l-0.1,-0.3l-0.3,-0.1l-0.3,0l-0.3,0.1l-0.1,-0.3c0.1,-0.1,0.2,-0.1,0.4,-0.1c0.1,-0.1,0.2,-0.1,0.4,-0.1c0.2,0,0.4,0.1,0.6,0.2c0.1,0.1,0.2,0.3,0.2,0.6l0,1.4ZM752.4,488c0.2,0,0.3,0,0.4,-0.1c0.1,-0.1,0.1,-0.3,0.1,-0.4l0,-0.2l-0.2,0c-0.3,0,-0.4,0,-0.5,0.1l-0.2,0.3l0.1,0.2l0.3,0.1Zm3.5,0.3l-0.4,0l0,-1.3c0,-0.2,-0.1,-0.3,-0.1,-0.4c-0.1,-0.1,-0.2,-0.1,-0.3,-0.1c-0.2,0,-0.4,0.1,-0.5,0.2c-0.1,0.1,-0.1,0.3,-0.1,0.5l0,1.1l-0.5,0l0,-2.1l0.4,0l0.1,0.2l0.3,-0.2c0.1,-0.1,0.2,-0.1,0.4,-0.1c0.5,0,0.7,0.3,0.7,0.8Zm2.1,-0.6c0,0.2,-0.1,0.4,-0.2,0.5c-0.2,0.1,-0.4,0.2,-0.7,0.2c-0.3,0,-0.5,-0.1,-0.7,-0.2l0,-0.4c0.3,0.2,0.5,0.2,0.8,0.2c0.2,0,0.4,-0.1,0.4,-0.2l-0.1,-0.2l-0.1,-0.1l-0.3,-0.1c-0.3,-0.1,-0.4,-0.2,-0.5,-0.3c-0.1,-0.1,-0.2,-0.2,-0.2,-0.4c0,-0.2,0.1,-0.3,0.3,-0.4c0.1,-0.1,0.3,-0.2,0.6,-0.2c0.2,0,0.5,0.1,0.7,0.2l-0.2,0.3c-0.2,-0.1,-0.4,-0.1,-0.5,-0.1c-0.3,0,-0.4,0,-0.4,0.2l0.1,0.2c0,0,0.2,0.1,0.4,0.2c0.2,0,0.3,0.1,0.4,0.1l0.2,0.2l0,0.3Zm1.6,0.7c-0.3,0,-0.5,-0.1,-0.6,-0.3c0,0.1,0,0.3,0,0.3l0,0.9l-0.5,0l0,-3.1l0.4,0c0,0,0,0.1,0.1,0.3c0.1,-0.3,0.3,-0.4,0.6,-0.4c0.3,0,0.5,0.1,0.7,0.3c0.1,0.2,0.2,0.5,0.2,0.8c0,0.4,-0.1,0.7,-0.3,0.9c-0.1,0.2,-0.3,0.3,-0.6,0.3Zm-0.1,-1.9c-0.2,0,-0.3,0.1,-0.4,0.2c-0.1,0.1,-0.1,0.2,-0.1,0.5c0,0.3,0,0.5,0.1,0.6c0.1,0.1,0.2,0.2,0.4,0.2c0.2,0,0.3,-0.1,0.4,-0.2c0.1,-0.1,0.1,-0.3,0.1,-0.6c0,-0.2,0,-0.4,-0.1,-0.5c-0.1,-0.1,-0.2,-0.2,-0.4,-0.2Zm2.9,1.8L762.3,488l-0.4,0.3c-0.1,0,-0.2,0.1,-0.4,0.1c-0.2,0,-0.3,-0.1,-0.5,-0.2c-0.1,-0.1,-0.1,-0.3,-0.1,-0.5c0,-0.2,0,-0.4,0.2,-0.5c0.2,-0.1,0.4,-0.2,0.8,-0.2l0.3,0l0,-0.1l-0.1,-0.3l-0.3,-0.1l-0.3,0l-0.3,0.1l-0.1,-0.3c0.1,-0.1,0.2,-0.1,0.4,-0.1c0.1,-0.1,0.2,-0.1,0.4,-0.1c0.2,0,0.4,0.1,0.6,0.2c0.1,0.1,0.2,0.3,0.2,0.6l0,1.4ZM761.7,488c0.1,0,0.3,0,0.4,-0.1c0.1,-0.1,0.1,-0.3,0.1,-0.4l0,-0.2l-0.2,0c-0.3,0,-0.4,0,-0.5,0.1l-0.2,0.3l0.1,0.2l0.3,0.1Zm2.7,-1.9l0.3,0l-0.1,0.5l-0.2,-0.1c-0.2,0,-0.3,0.1,-0.4,0.2c-0.2,0.1,-0.2,0.3,-0.2,0.5l0,1.1l-0.5,0l0,-2.1l0.4,0l0,0.3l0.1,0l0.2,-0.3l0.4,-0.1Zm1.6,2.3c-0.3,0,-0.6,-0.1,-0.8,-0.3c-0.2,-0.2,-0.3,-0.5,-0.3,-0.8c0,-0.4,0.1,-0.7,0.3,-0.9c0.2,-0.2,0.4,-0.3,0.7,-0.3c0.3,0,0.5,0.1,0.7,0.3c0.1,0.2,0.2,0.4,0.2,0.7l0,0.2l-1.4,0c0,0.3,0.1,0.4,0.2,0.5c0.1,0.1,0.2,0.2,0.4,0.2l0.4,0l0.3,-0.2l0,0.4l-0.3,0.1c-0.1,0,-0.3,0.1,-0.4,0.1Zm-0.1,-1.9c-0.1,0,-0.3,0,-0.3,0.1c-0.1,0.1,-0.2,0.2,-0.2,0.4l1,0c0,-0.2,-0.1,-0.3,-0.1,-0.4c-0.1,-0.1,-0.2,-0.1,-0.4,-0.1Zm3.4,1.8l-0.5,0l0,-1.3c0,-0.2,0,-0.3,-0.1,-0.4c-0.1,-0.1,-0.2,-0.1,-0.3,-0.1c-0.2,0,-0.4,0.1,-0.5,0.2c0,0.1,-0.1,0.3,-0.1,0.5l0,1.1l-0.4,0l0,-2.1l0.3,0l0.1,0.2l0.3,-0.2c0.1,-0.1,0.2,-0.1,0.4,-0.1c0.5,0,0.8,0.3,0.8,0.8Zm1.5,0.1c-0.4,0,-0.6,-0.1,-0.8,-0.3c-0.2,-0.2,-0.2,-0.5,-0.2,-0.8c0,-0.4,0,-0.7,0.2,-0.9c0.2,-0.2,0.5,-0.3,0.8,-0.3c0.2,0,0.4,0.1,0.6,0.1l-0.1,0.4c-0.2,-0.1,-0.4,-0.1,-0.5,-0.1c-0.4,0,-0.6,0.3,-0.6,0.7c0,0.3,0.1,0.5,0.2,0.6c0.1,0.1,0.2,0.2,0.4,0.2c0.2,0,0.4,-0.1,0.6,-0.2l0,0.4l-0.3,0.1l-0.3,0.1Zm1.5,-0.1l-0.4,0l0,-2.1l0.4,0Zm-0.5,-2.7l0.1,-0.2l0.2,-0.1l0.2,0.1l0.1,0.2l-0.1,0.2l-0.2,0l-0.2,0l-0.1,-0.2Zm2.5,2.7L774.2,488l-0.3,0.3c-0.1,0,-0.2,0.1,-0.4,0.1c-0.2,0,-0.4,-0.1,-0.5,-0.2c-0.1,-0.1,-0.2,-0.3,-0.2,-0.5c0,-0.2,0.1,-0.4,0.3,-0.5c0.1,-0.1,0.4,-0.2,0.7,-0.2l0.4,0l0,-0.1l-0.1,-0.3l-0.3,-0.1l-0.3,0l-0.3,0.1l-0.1,-0.3c0.1,-0.1,0.2,-0.1,0.3,-0.1c0.2,-0.1,0.3,-0.1,0.4,-0.1c0.3,0,0.5,0.1,0.7,0.2c0.1,0.1,0.2,0.3,0.2,0.6l0,1.4ZM773.6,488c0.2,0,0.3,0,0.5,-0.1c0.1,-0.1,0.1,-0.3,0.1,-0.4l0,-0.2l-0.3,0c-0.2,0,-0.4,0,-0.4,0.1l-0.2,0.3l0.1,0.2l0.2,0.1Z" class="g7_11" />
<path d="M685.3,491l0.5,0l0.4,1.2c0.1,0.2,0.1,0.3,0.1,0.5l0.1,0l0,-0.3c0,-0.1,0.2,-0.6,0.5,-1.4l0.5,0l-0.9,2.4c-0.2,0.4,-0.5,0.7,-0.9,0.7L685.4,494l0,-0.3l0.2,0c0.2,0,0.4,-0.1,0.5,-0.4l0,-0.2Zm3.9,2.1l-0.4,0l0,-3l0.4,0Zm2,0l-0.1,-0.3l-0.3,0.3c-0.1,0,-0.2,0.1,-0.4,0.1c-0.2,0,-0.4,-0.1,-0.5,-0.2c-0.1,-0.1,-0.2,-0.3,-0.2,-0.5c0,-0.2,0.1,-0.4,0.3,-0.5c0.2,-0.1,0.4,-0.2,0.7,-0.2l0.4,0l0,-0.1c0,-0.2,0,-0.3,-0.1,-0.3l-0.3,-0.1l-0.3,0l-0.3,0.1L690,491.1c0.1,-0.1,0.2,-0.1,0.3,-0.1c0.2,-0.1,0.3,-0.1,0.4,-0.1c0.3,0,0.5,0.1,0.7,0.2c0.1,0.1,0.2,0.3,0.2,0.6l0,1.4Zm-0.6,-0.3c0.1,0,0.3,0,0.4,-0.1c0.1,-0.1,0.1,-0.3,0.1,-0.4l0,-0.2l-0.3,0c-0.2,0,-0.3,0,-0.4,0.1l-0.2,0.3l0.1,0.2l0.3,0.1Zm4.3,0.3l-1.6,0l0,-2.8l1.6,0l0,0.4l-1.1,0l0,0.7l1,0l0,0.4l-1,0l0,0.9l1.1,0Zm1.4,-0.3c0.2,0,0.4,-0.1,0.4,-0.2c0.1,-0.1,0.2,-0.3,0.2,-0.5l0,-0.1c0,-0.2,-0.1,-0.4,-0.2,-0.5c0,-0.1,-0.2,-0.2,-0.4,-0.2c-0.1,0,-0.3,0.1,-0.4,0.2c0,0.1,-0.1,0.3,-0.1,0.5c0,0.5,0.2,0.8,0.5,0.8Zm-0.1,0.4c-0.3,0,-0.5,-0.1,-0.6,-0.3c-0.2,-0.2,-0.2,-0.5,-0.2,-0.9c0,-0.3,0,-0.6,0.2,-0.8c0.1,-0.2,0.3,-0.3,0.6,-0.3l0.4,0.1l0.3,0.2l0,-0.2l0.4,0l0,3.1l-0.4,0l0,-0.9l0,-0.2l0,-0.2l-0.1,0c-0.1,0.2,-0.3,0.4,-0.6,0.4Zm3.3,-0.1l-0.1,-0.3l-0.3,0.3c-0.1,0,-0.2,0.1,-0.4,0.1c-0.2,0,-0.4,-0.1,-0.6,-0.2c-0.1,-0.2,-0.2,-0.4,-0.2,-0.6l0,-1.4l0.5,0l0,1.3c0,0.2,0,0.3,0.1,0.4c0.1,0,0.2,0.1,0.3,0.1c0.2,0,0.4,-0.1,0.5,-0.2c0,-0.1,0.1,-0.3,0.1,-0.6l0,-1l0.4,0l0,2.1Zm1.5,0l-0.5,0l0,-2.1l0.5,0Zm-0.5,-2.7l0,-0.2l0.2,-0.1l0.2,0.1l0.1,0.2l-0.1,0.2l-0.2,0l-0.2,0l0,-0.2Zm1.8,2.8c-0.2,0,-0.4,-0.1,-0.6,-0.3c-0.1,-0.2,-0.2,-0.5,-0.2,-0.9c0,-0.3,0.1,-0.6,0.2,-0.8c0.2,-0.2,0.4,-0.3,0.7,-0.3c0.2,0,0.5,0.1,0.6,0.3c0,-0.1,0,-0.2,0,-0.3l0,-0.8l0.5,0l0,3l-0.4,0L703,492.8c-0.2,0.2,-0.4,0.4,-0.7,0.4Zm0.2,-0.4c0.2,0,0.3,-0.1,0.4,-0.2c0.1,-0.1,0.1,-0.3,0.1,-0.5l0,-0.1c0,-0.2,0,-0.4,-0.1,-0.5c-0.1,-0.2,-0.2,-0.2,-0.4,-0.2c-0.2,0,-0.3,0.1,-0.4,0.2c-0.1,0.1,-0.1,0.3,-0.1,0.5c0,0.3,0,0.5,0.1,0.6c0.1,0.1,0.2,0.2,0.4,0.2Zm3,0.3l-0.1,-0.3l-0.1,0l-0.3,0.3c-0.1,0,-0.2,0.1,-0.4,0.1c-0.2,0,-0.3,-0.1,-0.5,-0.2C704,492.9,704,492.7,704,492.5c0,-0.2,0,-0.4,0.2,-0.5c0.2,-0.1,0.4,-0.2,0.8,-0.2l0.3,0l0,-0.1c0,-0.2,0,-0.3,-0.1,-0.3l-0.3,-0.1l-0.3,0l-0.3,0.1l-0.1,-0.3c0.1,-0.1,0.2,-0.1,0.4,-0.1c0.1,-0.1,0.2,-0.1,0.4,-0.1c0.2,0,0.4,0.1,0.6,0.2c0.1,0.1,0.2,0.3,0.2,0.6l0,1.4Zm-0.7,-0.3c0.1,0,0.3,0,0.4,-0.1c0.1,-0.1,0.1,-0.3,0.1,-0.4l0,-0.2l-0.3,0c-0.2,0,-0.3,0,-0.4,0.1l-0.2,0.3l0.1,0.2l0.3,0.1Zm2.4,0.4c-0.3,0,-0.5,-0.1,-0.7,-0.3c-0.1,-0.2,-0.2,-0.5,-0.2,-0.9c0,-0.3,0.1,-0.6,0.2,-0.8c0.2,-0.2,0.4,-0.3,0.7,-0.3c0.2,0,0.5,0.1,0.6,0.3c0,-0.1,0,-0.2,0,-0.3l0,-0.8l0.5,0l0,3l-0.4,0l-0.1,-0.3c-0.1,0.2,-0.4,0.4,-0.6,0.4Zm0.1,-0.4c0.2,0,0.3,-0.1,0.4,-0.2c0.1,-0.1,0.1,-0.3,0.1,-0.5l0,-0.1c0,-0.2,0,-0.4,-0.1,-0.5c-0.1,-0.2,-0.2,-0.2,-0.4,-0.2c-0.2,0,-0.3,0.1,-0.4,0.2c-0.1,0.1,-0.1,0.3,-0.1,0.5c0,0.3,0,0.5,0.1,0.6c0.1,0.1,0.2,0.2,0.4,0.2Zm4.3,0.3l-1.6,0l0,-2.8l1.6,0l0,0.4l-1.1,0l0,0.7l1,0l0,0.4l-1,0l0,0.9l1.1,0Zm1,0l-0.4,0l0,-3l0.4,0Zm1.6,0.1c-0.3,0,-0.6,-0.1,-0.7,-0.3c-0.2,-0.2,-0.3,-0.5,-0.3,-0.8c0,-0.4,0.1,-0.7,0.2,-0.9c0.2,-0.2,0.4,-0.3,0.8,-0.3c0.2,0,0.5,0.1,0.6,0.3c0.2,0.1,0.3,0.4,0.3,0.7l0,0.2l-1.5,0c0,0.3,0.1,0.4,0.2,0.5c0.1,0.1,0.3,0.2,0.5,0.2l0.3,0l0.4,-0.2l0,0.4l-0.4,0.1c-0.1,0,-0.2,0.1,-0.4,0.1Zm0,-1.9c-0.2,0,-0.3,0,-0.4,0.1c-0.1,0.1,-0.1,0.2,-0.2,0.4l1,0c0,-0.2,0,-0.3,-0.1,-0.4c-0.1,-0.1,-0.2,-0.1,-0.3,-0.1Zm2.3,1.9c-0.4,0,-0.6,-0.1,-0.8,-0.3c-0.1,-0.2,-0.2,-0.5,-0.2,-0.9c0,-0.3,0.1,-0.6,0.2,-0.8c0.2,-0.2,0.5,-0.3,0.8,-0.3c0.2,0,0.4,0.1,0.6,0.1l-0.1,0.4c-0.2,-0.1,-0.4,-0.1,-0.5,-0.1c-0.4,0,-0.6,0.3,-0.6,0.7c0,0.3,0.1,0.5,0.2,0.6c0.1,0.1,0.2,0.2,0.4,0.2c0.2,0,0.4,-0.1,0.6,-0.2l0,0.4l-0.3,0.1l-0.3,0.1Zm1.9,-0.4l0.3,-0.1l0,0.4l-0.2,0l-0.2,0.1c-0.5,0,-0.7,-0.3,-0.7,-0.7l0,-1.2l-0.3,0l0,-0.2l0.3,-0.2l0.2,-0.4l0.3,0l0,0.5l0.6,0l0,0.3l-0.6,0l0,1.2l0.1,0.2l0.2,0.1Zm2.7,-0.8c0,0.4,-0.1,0.7,-0.3,0.9c-0.2,0.2,-0.4,0.3,-0.8,0.3c-0.2,0,-0.3,-0.1,-0.5,-0.2c-0.2,-0.1,-0.3,-0.2,-0.4,-0.4c0,-0.1,-0.1,-0.3,-0.1,-0.6c0,-0.3,0.1,-0.6,0.3,-0.8c0.2,-0.2,0.4,-0.3,0.7,-0.3c0.4,0,0.6,0.1,0.8,0.3c0.2,0.2,0.3,0.5,0.3,0.8Zm-1.6,0c0,0.5,0.2,0.8,0.5,0.8c0.4,0,0.6,-0.3,0.6,-0.8c0,-0.5,-0.2,-0.7,-0.6,-0.7c-0.2,0,-0.3,0.1,-0.4,0.2c-0.1,0.1,-0.1,0.3,-0.1,0.5Zm3.2,-1.1l0.2,0l0,0.5l-0.2,-0.1c-0.2,0,-0.4,0.1,-0.5,0.2c-0.1,0.1,-0.1,0.3,-0.1,0.5l0,1.1l-0.5,0l0,-2.1l0.3,0l0.1,0.3l0.3,-0.3l0.4,-0.1Zm2,2.2l-0.1,-0.3l-0.4,0.3c-0.1,0,-0.2,0.1,-0.4,0.1c-0.2,0,-0.3,-0.1,-0.5,-0.2c-0.1,-0.1,-0.1,-0.3,-0.1,-0.5c0,-0.2,0,-0.4,0.2,-0.5c0.2,-0.1,0.4,-0.2,0.8,-0.2l0.3,0l0,-0.1c0,-0.2,0,-0.3,-0.1,-0.3l-0.3,-0.1l-0.3,0l-0.3,0.1l-0.1,-0.3l0.4,-0.1c0.1,-0.1,0.2,-0.1,0.4,-0.1c0.2,0,0.4,0.1,0.6,0.2c0.1,0.1,0.2,0.3,0.2,0.6l0,1.4ZM724,492.8c0.1,0,0.3,0,0.4,-0.1c0.1,-0.1,0.1,-0.3,0.1,-0.4l0,-0.2l-0.2,0c-0.3,0,-0.4,0,-0.5,0.1l-0.2,0.3l0.1,0.2l0.3,0.1Zm2.1,0.3l-0.5,0l0,-3l0.5,0Zm1.5,-1.1c0,-0.3,0.1,-0.6,0.2,-0.9c0.1,-0.3,0.2,-0.6,0.4,-0.8l0.4,0c-0.2,0.2,-0.3,0.5,-0.4,0.8c-0.1,0.3,-0.2,0.6,-0.2,0.9c0,0.3,0.1,0.6,0.2,0.9c0.1,0.3,0.2,0.6,0.4,0.8l-0.4,0c-0.2,-0.2,-0.3,-0.4,-0.4,-0.7c-0.1,-0.3,-0.2,-0.6,-0.2,-1Zm3.1,1.1l-1.6,0l0,-2.8l1.6,0l0,0.4l-1.1,0l0,0.7l1,0l0,0.4l-1,0l0,0.9l1.1,0Zm1.1,-1.1L731,491l0.6,0l0.5,0.7l0.4,-0.7l0.6,0l-0.8,1l0.8,1.1l-0.5,0l-0.5,-0.8l-0.6,0.8l-0.5,0Zm2.5,0.8l0.3,-0.1l0,0.4l-0.2,0l-0.2,0.1c-0.5,0,-0.7,-0.3,-0.7,-0.7l0,-1.2l-0.3,0l0,-0.2l0.3,-0.2l0.2,-0.4l0.3,0l0,0.5l0.6,0l0,0.3l-0.6,0l0,1.2l0.1,0.2l0.2,0.1Zm1.8,-1.9l0.3,0l-0.1,0.5l-0.2,-0.1c-0.2,0,-0.3,0.1,-0.4,0.2c-0.1,0.1,-0.2,0.3,-0.2,0.5l0,1.1l-0.4,0l0,-2.1l0.3,0l0.1,0.3l0.3,-0.3l0.3,-0.1Zm2,2.2L738,492.8l-0.3,0.3c-0.1,0,-0.2,0.1,-0.4,0.1c-0.2,0,-0.4,-0.1,-0.5,-0.2c-0.1,-0.1,-0.2,-0.3,-0.2,-0.5c0,-0.2,0.1,-0.4,0.3,-0.5c0.1,-0.1,0.4,-0.2,0.7,-0.2l0.4,0l0,-0.1c0,-0.2,0,-0.3,-0.1,-0.3l-0.3,-0.1l-0.3,0l-0.3,0.1l-0.2,-0.3c0.2,-0.1,0.3,-0.1,0.4,-0.1c0.2,-0.1,0.3,-0.1,0.4,-0.1c0.3,0,0.5,0.1,0.6,0.2c0.2,0.1,0.3,0.3,0.3,0.6l0,1.4Zm-0.7,-0.3c0.2,0,0.3,0,0.4,-0.1c0.1,-0.1,0.2,-0.3,0.2,-0.4l0,-0.2l-0.3,0c-0.2,0,-0.4,0,-0.5,0.1l-0.1,0.3l0.1,0.2l0.2,0.1Zm2.6,0.4c-0.4,0,-0.6,-0.1,-0.8,-0.3C739,492.7,739,492.4,739,492c0,-0.3,0.1,-0.6,0.2,-0.8c0.2,-0.2,0.5,-0.3,0.8,-0.3c0.2,0,0.4,0.1,0.6,0.1l-0.1,0.4c-0.2,-0.1,-0.4,-0.1,-0.5,-0.1c-0.4,0,-0.6,0.3,-0.6,0.7c0,0.3,0.1,0.5,0.2,0.6c0.1,0.1,0.2,0.2,0.4,0.2c0.2,0,0.4,-0.1,0.6,-0.2l0,0.4l-0.3,0.1l-0.3,0.1Zm1.9,-0.4l0.3,-0.1l0,0.4l-0.2,0l-0.2,0.1c-0.5,0,-0.7,-0.3,-0.7,-0.7l0,-1.2l-0.3,0l0,-0.2l0.3,-0.2l0.2,-0.4l0.3,0l0,0.5l0.6,0l0,0.3l-0.6,0l0,1.2l0.1,0.2l0.2,0.1Zm2.7,-0.8c0,0.4,-0.1,0.7,-0.3,0.9c-0.2,0.2,-0.4,0.3,-0.8,0.3c-0.2,0,-0.4,-0.1,-0.5,-0.2c-0.2,-0.1,-0.3,-0.2,-0.4,-0.4c0,-0.1,-0.1,-0.3,-0.1,-0.6c0,-0.3,0.1,-0.6,0.3,-0.8c0.2,-0.2,0.4,-0.3,0.7,-0.3c0.4,0,0.6,0.1,0.8,0.3c0.2,0.2,0.3,0.5,0.3,0.8Zm-1.6,0c0,0.5,0.2,0.8,0.5,0.8c0.4,0,0.6,-0.3,0.6,-0.8c0,-0.5,-0.2,-0.7,-0.6,-0.7c-0.2,0,-0.3,0.1,-0.4,0.2c-0.1,0.1,-0.1,0.3,-0.1,0.5Zm2.9,0c0,0.4,-0.1,0.7,-0.2,1c-0.1,0.3,-0.2,0.5,-0.4,0.7l-0.4,0c0.2,-0.2,0.3,-0.5,0.4,-0.8c0.1,-0.3,0.1,-0.6,0.1,-0.9c0,-0.3,0,-0.6,-0.1,-0.9c-0.1,-0.3,-0.2,-0.6,-0.4,-0.8l0.4,0c0.2,0.2,0.3,0.5,0.4,0.8c0.1,0.3,0.2,0.6,0.2,0.9Z" class="g7_11" />
<path d="M697.9,554.1l-0.9,0l0,0.2l0.4,0l0,1l0.2,0l0,-1l0.3,0Zm0.2,0.5l0,-0.2l-0.2,0l0,0.9l0.2,0l0,-0.5l0.2,-0.1l0,-0.3l-0.2,0.2Zm-1.9,0.4L696,554.4l-0.2,0l0.2,0.8l0.1,0.1l-0.1,0.1l-0.1,0.1l-0.1,0l0,0.1l0.1,0.1c0.2,0,0.3,-0.1,0.4,-0.4l0.2,-0.9l-0.2,0Zm-1.9,0.2c-0.2,0,-0.2,-0.1,-0.2,-0.3c0,-0.2,0,-0.3,0.2,-0.3c0.1,0,0.1,0.1,0.1,0.3c0,0.2,0,0.3,-0.1,0.3Zm0,-0.8c-0.3,0,-0.4,0.2,-0.4,0.5c0,0.3,0.1,0.4,0.4,0.4c0.2,0,0.3,-0.1,0.3,-0.4c0,-0.3,-0.1,-0.5,-0.3,-0.5Zm-0.8,-0.1l0.2,0l0,-0.2l-0.2,0Zm1.5,0.3l0,-0.2l-0.2,0l0,0.9l0.2,0l0,-0.5l0.2,-0.1l0,-0.3l-0.2,0.2Zm3.9,0.5l-0.2,0.1l-0.1,-0.1c0,-0.1,0.1,-0.2,0.3,-0.2Zm0.2,-0.3c0,-0.3,-0.1,-0.4,-0.4,-0.4l-0.3,0.2l0.1,0.1l0.2,-0.1l0.2,0.1l0,0.1c-0.4,0,-0.6,0.1,-0.6,0.3c0,0.1,0.1,0.2,0.3,0.2l0.3,0l0.2,0l0,-0.1Zm0.6,-0.4l-0.3,0.1l0,-0.1l-0.2,0l0,0.9l0.3,0l0,-0.6l0.2,-0.1l0.1,0.2l0,0.5l0.2,0l0,-0.6c0,-0.2,-0.1,-0.3,-0.3,-0.3Zm-6.6,0.2l0,-0.2l-0.2,0l0,0.9l0.3,0l0,-0.5l0.2,-0.1l0,-0.3l-0.3,0.2Zm10.8,0.2l0.2,-0.2l0.1,0.2Zm0.5,0c0,-0.2,-0.1,-0.4,-0.3,-0.4c-0.3,0,-0.4,0.2,-0.4,0.5c0,0.3,0.1,0.4,0.4,0.4c0.1,0,0.3,0,0.3,-0.1l-0.1,-0.1l-0.2,0.1c-0.1,0,-0.2,-0.1,-0.2,-0.3l0.5,0Zm-1.6,-0.2l0,-0.2l-0.2,0l0,0.9l0.2,0l0,-0.5l0.2,-0.1l0,-0.3l-0.2,0.2Zm0.7,-0.4l-0.2,0l0,0.2l-0.2,0l0,0.2l0.2,0l0,0.5c0,0.2,0,0.2,0.2,0.2l0.2,0l0,-0.1l-0.1,0l-0.1,-0.1l0,-0.5l0.2,0l0,-0.2l-0.2,0Zm-1.4,1c-0.1,0,-0.2,-0.1,-0.2,-0.3c0,-0.2,0.1,-0.3,0.2,-0.3c0.1,0,0.2,0.1,0.2,0.3c0,0.2,-0.1,0.3,-0.2,0.3Zm0,-0.8c-0.2,0,-0.4,0.2,-0.4,0.5c0,0.3,0.2,0.4,0.4,0.4c0.2,0,0.4,-0.1,0.4,-0.4c0,-0.3,-0.2,-0.5,-0.4,-0.5Zm-1.8,0.3l0.1,-0.1l0.2,0.1l0.1,-0.1l-0.3,-0.2c-0.1,0,-0.3,0.1,-0.3,0.3c0,0.3,0.5,0.2,0.5,0.4l-0.2,0.1l-0.2,-0.1l-0.1,0.1c0.1,0.1,0.2,0.1,0.3,0.1c0.2,0,0.3,0,0.3,-0.2c0,-0.3,-0.4,-0.3,-0.4,-0.4Zm1,0.5l-0.2,-0.1l0,-0.4l0.2,-0.1c0.1,0,0.2,0.1,0.2,0.3c0,0.2,-0.1,0.3,-0.2,0.3Zm0,-0.8l-0.2,0.1l0,-0.1l-0.2,0l0,1.3l0.2,0l0,-0.5l0.2,0.1c0.2,0,0.4,-0.2,0.4,-0.4c0,-0.3,-0.2,-0.5,-0.4,-0.5Zm-7.8,0.9l0.2,0l0,-0.9l-0.2,0Zm-3.3,0l0.2,0l0,-1.2l-0.2,0Zm1.6,-1.1l-0.2,0l0,0.2l-0.1,0l0,0.2l0.1,0l0,0.5c0,0.2,0.1,0.2,0.2,0.2l0.2,0l0,-0.1l-0.1,0l-0.1,-0.1l0,-0.5l0.2,0l0,-0.2l-0.2,0Zm-0.7,0.2l-0.2,0.1l0,-0.1l-0.2,0l0,0.9l0.2,0l0,-0.6l0.2,-0.1l0.1,0.2l0,0.5l0.2,0l0,-0.6c0,-0.2,-0.1,-0.3,-0.3,-0.3Zm1.2,0.4l0.1,-0.2l0.2,0.2Zm0.1,-0.4c-0.2,0,-0.3,0.2,-0.3,0.5c0,0.3,0.1,0.4,0.3,0.4c0.2,0,0.3,0,0.4,-0.1l-0.1,-0.1l-0.2,0.1c-0.1,0,-0.2,-0.1,-0.2,-0.3l0.5,0l0,-0.1c0,-0.2,-0.1,-0.4,-0.4,-0.4Zm-1.1,-0.7l0.2,0l0,-0.7l-0.2,0ZM691,552.9l0,0.8l0.1,0l0,-1l-0.2,0l-0.2,0.7l-0.2,-0.7l-0.3,0l0,1l0.2,0l0,-0.8l0.2,0.8l0.1,0Zm1.6,-0.2l-0.2,0l0,0.2l0.2,0Zm5.3,0l-0.2,0l0,1l0.2,0Zm-2.8,0l-0.2,0l0,0.2l0.2,0Zm-2.1,0.9l-0.2,-0.1l-0.1,0.1l0.3,0.1c0.1,0,0.2,0,0.2,-0.2c0,-0.2,-0.3,-0.2,-0.3,-0.3l0.1,-0.1l0.1,0.1l0.1,-0.1L692.9,553l-0.2,0.2c0,0.3,0.4,0.2,0.4,0.3l-0.1,0.1Zm4.3,-0.5l0.2,0.2l-0.3,0l0.1,-0.2Zm0,0.6c0.1,0,0.2,0,0.3,-0.1l-0.1,-0.1l-0.2,0.1c-0.1,0,-0.1,-0.1,-0.1,-0.2l0.4,0l0,-0.1c0,-0.1,-0.1,-0.3,-0.3,-0.3c-0.2,0,-0.3,0.1,-0.3,0.4c0,0.2,0.1,0.3,0.3,0.3ZM695.1,553l-0.2,0l0,0.7l0.2,0Zm-2.5,0l-0.2,0l0,0.7l0.2,0Zm2.9,0.6c-0.1,0,-0.1,-0.1,-0.1,-0.2c0,-0.2,0,-0.3,0.1,-0.3c0.1,0,0.2,0.1,0.2,0.3c0,0.1,-0.1,0.2,-0.2,0.2Zm0,-0.6c-0.2,0,-0.3,0.1,-0.3,0.4c0,0.2,0.1,0.3,0.3,0.3c0.2,0,0.3,-0.1,0.3,-0.3c0,-0.3,-0.1,-0.4,-0.3,-0.4Zm-0.7,0.2l0,-0.2l-0.2,0.1l0,-0.1l-0.1,0l0,0.7l0.1,0l0,-0.4l0.2,-0.1Zm1.9,0.3l-0.1,0.1c-0.1,0,-0.2,-0.1,-0.2,-0.2c0,-0.2,0.1,-0.3,0.2,-0.3l0.1,0.1Zm0,-0.4L696.5,553c-0.1,0,-0.2,0.2,-0.2,0.3c0,0.3,0.1,0.4,0.2,0.4l0.2,-0.1l0.1,0.1l0.1,0l0,-1l-0.2,0Zm-2.7,0l0.2,0.2l-0.3,0l0.1,-0.2Zm0.3,0.5l-0.1,-0.1l-0.1,0.1c-0.1,0,-0.2,-0.1,-0.2,-0.2l0.4,0l0,-0.1c0,-0.1,-0.1,-0.3,-0.2,-0.3c-0.2,0,-0.4,0.1,-0.4,0.4c0,0.2,0.2,0.3,0.3,0.3c0.2,0,0.3,0,0.3,-0.1Zm-0.6,0.1l0,-0.1l-0.1,0l0,-0.5l0.1,0l0,-0.1l-0.1,0l0,-0.2l-0.2,0l0,0.2l-0.1,0l0,0.1l0.1,0l0,0.5l0.2,0.1l0.1,0Zm-1.6,0l0.1,0l0,-0.5c0,-0.1,0,-0.2,-0.2,-0.2l-0.2,0.1l0,-0.1l-0.1,0l0,0.7l0.1,0l0,-0.5l0.2,-0.1l0.1,0.2Zm-0.8,-0.8l0.2,0l0,-0.2l-0.2,0Z" class="g3_11" />
<path d="M690.5,551.4l0.1,0c0.3,0,0.4,-0.2,0.4,-0.5c0,-0.2,-0.1,-0.4,-0.4,-0.4l-0.1,0Zm-0.3,-1.1l0.5,0c0.3,0,0.6,0.1,0.6,0.6c0,0.5,-0.3,0.7,-0.6,0.7l-0.5,0Z" class="g3_11" />
<path d="M691.5,551.5l0,-1" class="g8_11" />
<path d="M691.9,551.6l0,-1l0.3,0l0,0.2c0,-0.1,0.1,-0.2,0.2,-0.2l0,0.3l-0.2,0.1l0,0.6Z" class="g3_11" />
<path d="M693.1,551l-0.2,-0.2l-0.2,0.2Zm-0.4,0.2c0,0.2,0.1,0.2,0.2,0.2l0.3,-0.1l0.1,0.1c-0.1,0.2,-0.2,0.2,-0.4,0.2c-0.2,0,-0.4,-0.2,-0.4,-0.5c0,-0.3,0.2,-0.5,0.4,-0.5c0.3,0,0.4,0.2,0.4,0.5l0,0.1Z" class="g3_11" />
<path d="M694.1,550.9l-0.2,-0.1c-0.2,0,-0.2,0.1,-0.2,0.3c0,0.2,0,0.3,0.2,0.3l0.2,-0.1l0.2,0.1c-0.1,0.2,-0.3,0.2,-0.4,0.2c-0.3,0,-0.5,-0.2,-0.5,-0.5c0,-0.3,0.2,-0.5,0.5,-0.5c0.2,0,0.3,0.1,0.4,0.3Z" class="g3_11" />
<path d="M695,550.9l-0.2,-0.1c-0.1,0,-0.2,0.1,-0.2,0.3c0,0.2,0.1,0.3,0.2,0.3l0.2,-0.1l0.2,0.1c-0.1,0.2,-0.2,0.2,-0.4,0.2c-0.3,0,-0.4,-0.2,-0.4,-0.5c0,-0.3,0.1,-0.5,0.4,-0.5c0.2,0,0.3,0.1,0.4,0.3Z" class="g3_11" />
<path d="M695.5,551.5l0,-1" class="g8_11" />
<path d="M696.6,550.2l-0.3,0.3l-0.2,0l0.2,-0.3Zm-0.3,0.6c-0.2,0,-0.2,0.1,-0.2,0.3c0,0.2,0,0.3,0.2,0.3c0.1,0,0.2,-0.1,0.2,-0.3c0,-0.2,-0.1,-0.3,-0.2,-0.3Zm0,-0.2c0.2,0,0.4,0.2,0.4,0.5c0,0.3,-0.2,0.5,-0.4,0.5c-0.3,0,-0.5,-0.2,-0.5,-0.5c0,-0.3,0.2,-0.5,0.5,-0.5Z" class="g3_11" />
<path d="M696.9,551.6l0,-1l0.2,0l0,0.1l0.3,-0.1c0.2,0,0.3,0.1,0.3,0.3l0,0.7l-0.3,0l0,-0.6l-0.1,-0.2l-0.2,0.1l0,0.7Z" class="g3_11" />
<path d="M698.5,551.5l0,-1" class="g8_11" />
<path d="M700.3,551.1c-0.2,0.1,-0.3,0.1,-0.3,0.2l0.1,0.2l0.2,-0.2Zm0,0.5l0,-0.1l-0.3,0.1c-0.2,0,-0.3,-0.1,-0.3,-0.2c0,-0.3,0.2,-0.4,0.6,-0.4l0,-0.1l-0.1,-0.1l-0.3,0.1l-0.1,-0.1c0.1,-0.1,0.2,-0.2,0.4,-0.2c0.2,0,0.3,0.1,0.3,0.4l0,0.5l0.1,0.1Z" class="g3_11" />
<path d="M701.3,550.9l-0.2,-0.1c-0.1,0,-0.2,0.1,-0.2,0.3c0,0.2,0.1,0.3,0.2,0.3l0.2,-0.1l0.2,0.1c-0.1,0.2,-0.2,0.2,-0.4,0.2c-0.2,0,-0.4,-0.2,-0.4,-0.5c0,-0.3,0.2,-0.5,0.4,-0.5c0.2,0,0.3,0.1,0.4,0.3Z" class="g3_11" />
<path d="M701.5,551.5l0,-1" class="g8_11" />
<path d="M702.6,550.8c-0.2,0,-0.2,0.1,-0.2,0.3c0,0.2,0,0.3,0.2,0.3c0.1,0,0.2,-0.1,0.2,-0.3c0,-0.2,-0.1,-0.3,-0.2,-0.3Zm0,-0.2c0.2,0,0.4,0.2,0.4,0.5c0,0.3,-0.2,0.5,-0.4,0.5c-0.3,0,-0.4,-0.2,-0.4,-0.5c0,-0.3,0.1,-0.5,0.4,-0.5Z" class="g3_11" />
<path d="M703.2,551.6l0,-1l0.2,0l0,0.1l0.3,-0.1c0.2,0,0.3,0.1,0.3,0.3l0,0.7l-0.3,0l0,-0.6l-0.1,-0.2l-0.2,0.1l0,0.7Z" class="g3_11" />
<path d="M704.7,551.1c-0.2,0.1,-0.3,0.1,-0.3,0.2l0.1,0.2l0.2,-0.2Zm0,0.5l0,-0.1l-0.3,0.1c-0.2,0,-0.3,-0.1,-0.3,-0.2c0,-0.3,0.2,-0.4,0.6,-0.4l0,-0.1l-0.2,-0.1l-0.2,0.1l-0.1,-0.1c0,-0.1,0.2,-0.2,0.3,-0.2c0.3,0,0.4,0.1,0.4,0.4l0,0.5l0,0.1Z" class="g3_11" />
<path d="M705.5,551.5l0,-1" class="g8_11" />
<path d="M706.5,551.5l0,-1" class="g8_11" />
<path d="M707.5,551.5l0,-1" class="g8_11" />
<path d="M708.4,551l-0.1,-0.2l-0.2,0.2Zm-0.3,0.2c0,0.2,0.1,0.2,0.2,0.2l0.2,-0.1l0.2,0.1c-0.1,0.2,-0.3,0.2,-0.5,0.2c-0.2,0,-0.4,-0.2,-0.4,-0.5c0,-0.3,0.2,-0.5,0.5,-0.5c0.2,0,0.4,0.2,0.4,0.5l0,0.1Z" class="g3_11" />
<path d="M709.4,550.9l-0.2,-0.1c-0.1,0,-0.2,0.1,-0.2,0.3c0,0.2,0.1,0.3,0.2,0.3l0.2,-0.1l0.2,0.1c-0.1,0.2,-0.2,0.2,-0.4,0.2c-0.3,0,-0.4,-0.2,-0.4,-0.5c0,-0.3,0.1,-0.5,0.4,-0.5c0.2,0,0.3,0.1,0.4,0.3Z" class="g3_11" />
<path d="M709.8,550.6l0,-0.3l0.3,0l0,0.3l0.1,0l0,0.2l-0.1,0l0,0.6l0.1,0l0,0.2l-0.1,0c-0.2,0,-0.3,-0.1,-0.3,-0.2l0,-0.6l-0.1,0l0,-0.2Z" class="g3_11" />
<path d="M710.8,550.8c-0.2,0,-0.2,0.1,-0.2,0.3c0,0.2,0,0.3,0.2,0.3c0.1,0,0.2,-0.1,0.2,-0.3c0,-0.2,-0.1,-0.3,-0.2,-0.3Zm0,-0.2c0.2,0,0.4,0.2,0.4,0.5c0,0.3,-0.2,0.5,-0.4,0.5c-0.3,0,-0.5,-0.2,-0.5,-0.5c0,-0.3,0.2,-0.5,0.5,-0.5Z" class="g3_11" />
<path d="M711.3,551.6l0,-1l0.2,0l0,0.2l0.1,0c0,-0.1,0.1,-0.2,0.2,-0.2l0,0.3l-0.2,0.1l0,0.6Z" class="g3_11" />
<path d="M712.4,551.1c-0.1,0.1,-0.3,0.1,-0.3,0.2l0.1,0.2l0.2,-0.2Zm0.1,0.5l0,-0.1l-0.3,0.1c-0.2,0,-0.3,-0.1,-0.3,-0.2c0,-0.3,0.2,-0.4,0.5,-0.4l0,-0.1l-0.1,-0.1l-0.2,0.1l-0.2,-0.1c0.1,-0.1,0.3,-0.2,0.4,-0.2c0.3,0,0.4,0.1,0.4,0.4l0,0.5l0,0.1Z" class="g3_11" />
<path d="M712.5,551.5l0,-1" class="g8_11" />
<path d="M690.5,552.5l23,0" class="g8_11" />
<path d="M687.7,550.5l0.1,0c0,0,0,-0.1,-0.2,-0.1l-0.1,0l0,0.1l0.1,0l0.1,0Z" class="g3_11" />
<path d="M687.5,550.6l0.1,0l0.1,0c0,0,0,-0.1,-0.2,-0.1l0,0.1Z" class="g3_11" />
<path d="M687.1,550.6l0.1,0l0.1,0l0.1,0l-0.1,-0.1c-0.2,0,-0.2,0.1,-0.2,0.1Z" class="g3_11" />
<path d="M687.2,550.5l0.2,0l-0.1,-0.1c-0.2,0,-0.2,0.1,-0.2,0.1l0.1,0Z" class="g3_11" />
<path d="M689,553.7l0,0.1l0,-0.1l-0.1,0l0,-0.2l0.1,0.2l0.1,-0.1l-0.1,0.1Zm-0.1,0.3l0,-0.1l0,0.1l-0.1,-0.1l0,-0.1l0.1,0.1l0.2,-0.1l-0.2,0.2Zm0,0.2l-0.1,0l0,-0.1l-0.1,0l0.1,-0.2l0,0.2L689,554l-0.1,0.2Zm-0.2,0.2l0,-0.1l0,0.1l-0.1,-0.1l0.1,-0.1l0,0.1l0.2,-0.1l-0.2,0.2Zm-0.1,0.1l-0.1,0l0.1,0l-0.1,0l0,-0.1l0.1,-0.1l0,0.2l0.2,-0.1l-0.2,0.1Zm-0.1,0.2l-0.1,0l0.1,0l-0.1,0l0,-0.1l0.1,-0.1l0,0.2l0.2,-0.1l-0.2,0.1Zm-0.2,0.2l-0.1,0l0.1,-0.1l-0.1,0.1l0,-0.1l0.1,-0.2l0,0.2l0.2,0l-0.2,0.1Zm-0.1,-0.2l0,0.2c-0.1,0.1,-0.3,0.2,-0.5,0.2l0.1,0L687.7,555c0.2,-0.1,0.4,-0.1,0.5,-0.3Zm-0.7,0.6l-0.1,0.1l0,-0.1l0,-0.1l0.1,0.1Zm-0.8,-0.4l-0.1,-0.2c0.2,0.1,0.3,0.2,0.5,0.3l0,0.1c-0.2,0,-0.4,-0.1,-0.4,-0.2Zm-0.1,0l-0.1,-0.1l-0.2,-0.1l0.2,0.1l0,-0.2l0.1,0.1l0,0.1l-0.1,0l0.1,0.1Zm-0.5,-0.3l0.2,0l0.1,-0.1l0,0.1l0,0.1l-0.1,-0.1l0.1,0.1l-0.1,0l-0.2,-0.1ZM686,554.4l0.2,0l0,-0.1l0.1,0.1l0,0.1l-0.1,-0.1l0.1,0.1l-0.1,0L686,554.4Zm-0.1,-0.2l0.2,0.1l0.1,-0.2l0,0.2l-0.1,0l0.1,0.1l-0.1,-0.1l-0.2,-0.1ZM685.8,554l0.2,0.1l0.1,-0.2l0,0.1l0,0.1l-0.1,0l0.1,0l-0.1,0L685.8,554Zm0.1,-0.1l0.1,-0.2l0,0.2l-0.1,0L686,554l-0.1,-0.1l-0.1,-0.1l0.1,0.1Zm-0.2,-0.4l0.2,0.1l0,-0.1l0,0.1l0,0.1l-0.1,0l0.1,0l-0.1,0l-0.1,-0.2Zm0,-0.1l0.1,0.1l0.1,-0.2l0,0.2l-0.1,0l0,0.1l0,-0.1l-0.1,-0.1Zm0.1,0l-0.1,-0.1l0.1,0.1Zm-0.1,-0.3l0.1,0.1l0.1,-0.1l0,0.1l-0.1,0.1l0,-0.1l0,0.1c-0.2,-0.1,0,0,-0.1,-0.2Zm0.1,0.1l-0.1,-0.1l0.1,0.1Zm-0.1,-0.4l0.1,0.2l0.1,-0.1l0,0.1l-0.1,0.1l0,-0.1l0,0.1L685.7,553l0,-0.2Zm0.2,0l-0.1,0.1l0.1,-0.1Zm-0.1,0l0,-0.1l0,0.1l-0.1,0l0,-0.2l0.1,0.1l0.1,-0.1l0,0.2l-0.1,0Zm-0.1,-0.4l0.1,0.2l0.1,-0.1l0,0.1l-0.1,0l-0.1,0l0,-0.2Zm0.1,-0.1l0,-0.2l0.1,0.2l0.1,-0.1l-0.1,0.1l0,0.1l-0.1,-0.1l0.1,0.1l-0.1,-0.1Zm0.1,-0.3l0,0.1l0.2,-0.1l-0.1,0.2l-0.1,0l0,-0.1l0,0.1l0,-0.1l0,-0.1Zm0.2,0l-0.1,0l0.1,0ZM686,551.9l0,-0.2l0,0.2l0.2,-0.1l-0.1,0.1l-0.1,0l0,0.1l0,-0.1Zm0.1,-0.4l0,0.2l0.2,-0.1l-0.1,0.2l-0.1,0l0,-0.1l0,0.1L686,551.7l0.1,-0.2Zm0.1,0.2l0,-0.1l0,0.1Zm0.1,-0.4l-0.1,0.2l0.2,0l-0.1,0.1l-0.1,0l0,-0.1l0,0.1l0,-0.1l0.1,-0.2Zm0,0l0.1,-0.2l0,0.2l0.1,0l-0.1,0.1l-0.1,0l0.1,-0.1l-0.1,0.1l0,-0.1ZM686.5,551.2l0.1,-0.2l0,0.2l0.1,0l-0.1,0.1l-0.1,-0.1ZM686.6,551.1l0.2,-0.2l-0.1,0.2l0.2,0l-0.2,0.1l-0.1,-0.1l0.1,0l-0.1,0Zm0.3,-0.3l0.1,-0.1l-0.2,0l0.2,-0.1l-0.1,0l-0.1,-0.1l0.1,0.1l0.1,0l-0.2,-0.2l0.2,0.1l-0.1,-0.2l0.1,0.1l0.1,0l-0.2,-0.2l0.2,0.2l0,-0.2l0,-0.1l0.1,0.2l0,-0.2l0.1,0.2l0,-0.1l0,-0.2l0,0.1l0.1,0.2l0,-0.3l0.1,0.3l0,-0.2l0.1,-0.1l-0.1,0.1l0.1,0.2l0.1,-0.2l-0.1,0.2l0.2,-0.1l0,-0.1l-0.1,0.1l0,0.2l0.2,-0.2l-0.1,0.2l0.1,0l0.1,-0.1l-0.2,0.2l0.2,-0.1l-0.2,0.2l0.2,0l0.1,0l-0.1,0l-0.1,0l0.2,0.1l-0.3,0.1l0,-0.1l-0.2,0l-0.3,0.1l0,-0.1l-0.2,0.1l0,-0.1l-0.2,0.1l-0.1,0l-0.1,0l0.2,0Zm1.2,0l-0.1,0l0.1,0Zm0,0.2l0.1,0.1l-0.1,0l0,-0.1l0,0.1l-0.1,0l0.1,-0.1l-0.1,0l0,-0.2l0.1,0.2Zm0.1,-0.1l-0.1,0l0.1,0Zm0,0.1l0.1,0.1l0,0.1l0,-0.1l0,0.1l-0.1,0l-0.1,0l0.2,0L688.2,551Zm0.2,0.3l0,-0.2l0.1,0.2l0,0.1l0,-0.1l0,0.1l-0.1,0l-0.1,-0.1l0.1,0Zm0.2,0l0,0.2l-0.1,0.1l-0.1,-0.1l0.2,0l0,-0.2Zm0.1,0.4l-0.1,-0.1l0.1,0l0,0.1Zm0,-0.2l0.1,0.2l0,0.1l-0.1,-0.1l0,0.1l-0.2,-0.2l0.2,0.1l0,-0.2Zm0.1,0.2l0.1,0.2l-0.1,0.1l0,-0.1l-0.1,0l-0.1,-0.1l0.2,0.1l0,-0.2Zm0.1,0.4l0.1,-0.2l0,0.2l-0.1,0.1l0,-0.1l0,0.1l-0.1,0l0,-0.2l0.1,0.1Zm0.1,0l0,0.2l0,0.1l0,-0.1l0,0.1l-0.1,-0.1l-0.1,-0.1l0.2,0.1l0,-0.2ZM688.9,553.7l0,0.2l-0.1,-0.2l0.1,0ZM688,553.5c-0.1,0,-0.3,-0.2,-0.5,-0.1l0,-0.4l1.4,0c0,0.1,0,0.4,-0.1,0.7c-0.3,0,-0.6,-0.2,-0.8,-0.2Zm-1.1,0.4l0,0.1l0,-0.1Zm0.3,0.2l0.1,0l0.1,0l-0.1,0.1l-0.1,-0.1ZM687,554l0,-0.1l0.1,0L687,554Zm0.1,0.1l0,-0.1l0.1,0l0.1,0l-0.1,0l0,0.1l-0.1,0Zm0.8,-1.7l-0.1,0l-0.2,0l0.1,0c0.2,-0.1,0.2,0,0.2,0Zm-0.6,0l-0.2,0l-0.1,0l0.1,-0.1l0.2,0.1Zm-0.1,-0.2l-0.2,0.1c0,0,0,-0.2,0.2,-0.4l0.3,-0.1l-0.1,-0.1l-0.2,0c0,-0.1,0.1,-0.2,0.2,-0.2l0.2,0.1l0.2,0.2l-0.2,0.1l0.1,0l0.1,0l0,0.1c-0.2,0.1,-0.3,0.1,-0.3,0.1l0.1,0l0.2,-0.1l0,0.1c-0.1,0.1,-0.2,0.1,-0.2,0.1l-0.2,0l0.2,0.1l0.3,-0.1l0,0.1c-0.1,0,-0.2,0.1,-0.4,0.1l-0.3,-0.2Zm1.5,-0.2l0.1,0l-0.1,0Zm-0.5,-0.7l0.1,0l-0.1,0Zm-0.8,-0.4l0.1,0.1l-0.2,0l0,-0.1l0.1,-0.1l-0.1,0.1l0,-0.1l0.2,-0.1l-0.1,0.2Zm0.1,0l0.2,0.1l-0.2,-0.1l0,-0.1l0,0.1l0,-0.1l0.2,0l-0.2,0.1Zm0.2,0l0.1,-0.1l0.1,0l-0.2,0.1Zm0.2,0.1l-0.1,0l0.1,-0.1L688,551l-0.1,0l-0.2,0l0.1,0l0.1,0Zm-0.5,0.1c0.8,0,1.4,0.8,1.5,1.8l-1.4,0l0,-0.4l0.3,0l0.2,-0.1l-0.1,-0.3l0,-0.1l-0.1,-0.4c-0.1,-0.1,-0.2,-0.2,-0.4,-0.2c-0.2,0,-0.3,0.2,-0.3,0.3l0.1,0.1l-0.1,0.1l-0.1,0.2l-0.1,0.3l0.3,0.1l0.1,0l0,0.4l-1.3,0c0,-1,0.6,-1.8,1.4,-1.8ZM687.2,551l-0.1,0L687,550.9l0.1,0l-0.1,0l0.1,0l0.1,-0.1l-0.1,0.1l0.1,0.1Zm-0.4,0l0.1,-0.1l0.1,-0.1l-0.1,0.2l0.1,0l-0.1,0.1L686.8,551l0.1,-0.1l-0.1,0.1Zm-0.8,2l1.3,0l0,0.4l-0.2,0c-0.3,0.1,-0.2,0.2,-1.1,0.2c0,-0.3,0,-0.6,0,-0.6Zm-0.1,-0.6l0.1,0l-0.1,0Zm0.1,1.2l0,0.1l-0.1,0.1l0.1,-0.2Zm0.1,0.6l-0.1,0l0.1,0ZM686.1,553.7l0.2,0c0.2,0,0.5,-0.1,0.6,-0.1l0.1,-0.1l0.3,0l-0.1,0.2l0.4,-0.1l0.3,0.3l-0.1,0l-0.2,-0.2l0,0.1l0.2,0.2l-0.1,0l-0.2,-0.2l0,0.1l0.1,0.1c0,0.1,-0.1,0.1,-0.2,-0.1l0,0.1l0.1,0l0,0.1l-0.1,0L687.3,554l-0.1,-0.1l-0.2,0l-0.2,0l-0.4,0.1l-0.1,0l-0.1,0l-0.1,-0.3Zm0.2,0.9l-0.1,-0.1l0.1,0l0,0.1ZM687.5,555.2l-0.1,0l-0.1,0c0,0,0,-0.2,0.1,-0.2c0.2,0,0.1,0.2,0.1,0.2Zm-0.3,0l0,-0.1l0.1,-0.1l-0.1,0.1l0,0.1Zm0.4,-0.1l0,-0.1l0.1,0.1l-0.1,0.1l0,-0.1Zm0.9,-0.5l0.1,0l-0.1,0Zm-0.9,0.3l-0.2,0l-0.1,0c-0.6,0,-0.9,-0.5,-1,-0.7l0.4,-0.2l0.1,0l0.1,0l0,0.1l0.1,0l0.2,0l0,0.1l0.1,0l0,0.3l0.1,0.1c0.1,0,0.1,0,0.1,0c0,-0.2,0,-0.4,0,-0.4l0.1,-0.1l0.1,0l0.1,0L688,554c0.1,0,0.4,0.2,0.5,0.2c0,0.1,-0.4,0.6,-0.9,0.7Zm1.1,-0.9l-0.1,0.1c0,0,-0.2,0,-0.6,-0.2l0.1,0l0,-0.2l-0.1,0l0,0.1l-0.3,-0.1l-0.1,-0.1l-0.3,0l0.1,-0.1l0.2,-0.1c0.1,0.1,0.2,0.1,0.4,0.2c0.2,0,0.4,0.1,0.6,0.1l0.1,0.1l0.1,0l-0.1,0.2Zm0.1,0.2l-0.1,0.1l0,-0.1l0.1,0Zm-0.1,0l0,-0.1l0,0.1Zm0.3,-1.6l0.1,-0.2l0,0.2l-0.1,0l0.1,0l-0.1,0l-0.1,-0.1l0.1,0.1Zm0.2,0l-0.1,0.2l-0.1,0l0.1,0l-0.1,0l-0.1,-0.2l0.1,0.1l0.2,-0.1Zm-0.3,0.2l0.1,0.1l-0.1,0l0,-0.1ZM689,553l0.2,-0.2l-0.1,0.2l-0.1,0.1l0.1,-0.1l-0.1,0.1l0,-0.1l-0.1,-0.1L689,553Zm0.2,0.1l-0.1,0.2l-0.1,0l0.1,-0.1l-0.1,0.1l-0.1,-0.2l0.1,0.1l0.2,-0.1Zm-0.2,0.3l0.1,-0.1l-0.1,0.1Zm0,0.2l-0.1,-0.1l0,-0.2l0.1,0.2l0.1,-0.1l0,0.1l-0.1,0.1l0.1,-0.1l-0.1,0.1Zm0.2,-0.1c0.1,-0.1,-0.1,0,0,-0.2l-0.1,0l0.2,-0.3l-0.3,0.2l0.1,-0.1l0.1,-0.3L689,553l0,-0.1l0.1,-0.1l0.1,-0.3l0,-0.2l-0.2,0.2l0.1,-0.1l0,-0.4l-0.1,0.1l0,-0.2l-0.1,0.2L688.8,552l0.1,-0.1l0,-0.3l-0.1,0.1l0,-0.3l-0.1,0.2l0,-0.1c0,-0.2,-0.1,-0.2,-0.1,-0.3l-0.1,0.1L688.4,551l0,0.2l0,-0.1l-0.2,-0.2l0.1,0l-0.1,0l-0.1,-0.1l-0.1,0l0.3,-0.1L688,550.6l0.1,0l0.1,0l0.1,-0.1l-0.2,0l-0.1,0l0.3,-0.2l-0.3,0.1l0.1,-0.1l0.1,-0.1l-0.2,0.1l-0.1,0l0.2,-0.2l-0.3,0.1l0.1,-0.1l0,-0.2l-0.1,0.2l-0.1,0.1l0.1,-0.3l-0.2,0.2l0,-0.1l0,-0.2l-0.1,0.2l0,0.1l-0.1,-0.3l0,0.3L687.3,550l0,-0.2l0,0.2l0,0.1l-0.2,-0.2l0.1,0.3l-0.1,-0.1l-0.2,-0.2l0.1,0.2l0.1,0.1l-0.3,-0.1l0.2,0.2l-0.2,0l-0.1,-0.1l0.2,0.1l0,0.1l-0.3,-0.1l0.3,0.2l-0.2,0l-0.1,0l0.1,0.1l0.1,0l-0.3,0.1l0.3,0l-0.1,0.1l-0.1,0.1l0.1,0l-0.1,0.1l0,-0.1l-0.1,0.2L686.4,551l-0.1,0.3l0,-0.1c-0.1,0.1,-0.2,0.1,-0.2,0.3l0.1,0.1l-0.1,-0.1l-0.1,0.2l-0.1,-0.1c0,0.2,-0.1,0.2,0,0.3l0.1,0.2l-0.2,-0.2l0,0.2l0,0.3l0.1,0.1l-0.1,0l-0.1,-0.2l0,0.2l-0.1,0l0.1,0.3l0.1,0.1l-0.2,-0.1l0.1,0.2l-0.1,0l0.1,0.3l-0.1,0l0.1,0.2l-0.1,0l0.2,0.2l-0.1,0l0.1,0.2l0,0.1l0.1,0.1l0,0.1l0.1,0.1l-0.1,0.1l0.2,0.1l0.1,0.2c0.1,0.1,0.1,0.2,0.4,0.2c0.1,0.1,0.4,0.3,0.6,0.3l0.1,0l-0.3,0.1l-0.1,0l0,0.1l0.1,0l0.3,-0.1l-0.2,0.1l-0.2,0.1l0.1,0l0.2,0l0.1,-0.2l0,0.1l-0.1,0.1l-0.2,0.1l0.1,0c0.2,0,0.3,-0.2,0.3,-0.2l0.1,0c0,0,0,0.2,0.2,0.2l0.1,0l-0.2,-0.1l-0.1,-0.1l0,-0.1l0.2,0.2l0.2,0l-0.2,-0.1l-0.2,-0.1l0.4,0.1l0.1,0l0,-0.1l-0.2,0l-0.2,-0.1c0.2,0,0.6,-0.2,0.7,-0.3c0.2,0,0.2,-0.1,0.3,-0.2l0.2,-0.1l-0.1,0l0.2,-0.2l-0.1,0l0.2,-0.2l-0.1,0l0.2,-0.2l-0.1,0l0.1,-0.2l0.1,-0.3Z" class="g3_11" />
<image x="423" y="914" width="111" height="78" xlink:href="img/15.png" />
<image x="117" y="1129" width="323" height="115" xlink:href="img/16.png" />
<path d="M817.7,1262.4l3,-2.8l-3,-2.6c-0.3,-0.3,-0.4,-0.8,-0.2,-1.2c0.2,-0.4,0.7,-0.5,1,-0.2l3.8,3.3c0.2,0.2,0.3,0.4,0.3,0.7c0,0.3,-0.1,0.5,-0.3,0.7l-3.7,3.4c-0.3,0.3,-0.8,0.2,-1,-0.2c-0.2,-0.3,-0.2,-0.9,0.1,-1.1Z" class="g9_11" />
<path d="M833.5,1269.5l13,0" class="g10_11" />
<image x="122" y="158" width="249" height="184" xlink:href="img/17.png" />
<image x="387" y="152" width="259" height="191" xlink:href="img/18.png" />
<image x="690" y="156" width="113" height="193" xlink:href="img/19.png" />
<image x="581" y="970" width="274" height="127" xlink:href="img/20.png" />
<path fill-rule="evenodd" d="M144,807l50,0l0,-11l-50,0l0,11Z" class="g2_11" />
<image x="148" y="797" width="39" height="10" xlink:href="img/21.png" />
<path fill-rule="evenodd" d="M402,852l38,0l0,-8l-38,0l0,8Z" class="g2_11" />
<image x="401" y="759.6" width="38" height="9" xlink:href="img/22.png" transform="scale(1 , 1.111)" />
<path fill-rule="evenodd" d="M142,987l45,0l0,-10l-45,0l0,10Z" class="g2_11" />
<image x="148" y="880.199" width="38" height="9" xlink:href="img/23.png" transform="scale(1 , 1.111)" />
</svg>