<?xml version="1.0" encoding="UTF-8" standalone="no"?>
<!DOCTYPE svg PUBLIC "-//W3C//DTD SVG 1.1//EN"
"http://www.w3.org/Graphics/SVG/1.1/DTD/svg11.dtd">
<svg version="1.1" xmlns="http://www.w3.org/2000/svg" xmlns:xlink="http://www.w3.org/1999/xlink">
<defs>
<style type="text/css"><![CDATA[
.g19_22{
fill: #121112;
}
.g15_22{
fill: #FADBC0;
}
.g13_22{
fill: #EDEEED;
}
.g12_22{
fill: #0E110F;
}
.g17_22{
fill: #E89771;
}
.g1_22{
fill: #EC0B8C;
}
.g5_22{
fill: #6FAEDF;
}
.g4_22{
fill: #E5E1E1;
}
.g14_22{
fill: #12723A;
}
.g8_22{
fill: #6A449A;
}
.g22_22{
fill: #0E1110;
}
.g3_22{
fill: #364E60;
}
.g2_22{
fill: #ABABAC;
}
.g10_22{
fill: #B9DEC1;
}
.g18_22{
fill: #FFFFFF;
}
.g20_22{
fill: #4D4A4B;
}
.g21_22{
fill: none;
stroke: #2AABE1;
stroke-width: 3;
stroke-linecap: butt;
stroke-linejoin: miter;
stroke-miterlimit: 22;
}
.g23_22{
fill: none;
stroke: #0E1110;
stroke-width: 1;
stroke-linecap: butt;
stroke-linejoin: miter;
}
.g7_22{
fill: none;
stroke: #6A449A;
stroke-width: 1;
stroke-linecap: butt;
stroke-linejoin: miter;
}
.g16_22{
fill: #1C2222;
}
.g9_22{
fill: none;
stroke: #131112;
stroke-width: 1;
stroke-linecap: butt;
stroke-linejoin: miter;
}
.g6_22{
fill: #131112;
}
.g11_22{
fill: none;
stroke: #0E110F;
stroke-width: 1;
stroke-linecap: butt;
stroke-linejoin: miter;
}
]]></style>
</defs>
<path d="M922,-15.7l0,49.4l-537.1,0l-39.5,78.5l-358.6,0l0,-127.9Z" class="g1_22" />
<path d="M493.7,281.1l5.6,-5.1l-5.7,-5c-0.6,-0.5,-0.7,-1.5,-0.3,-2.2c0.4,-0.7,1.2,-0.9,1.8,-0.4l7.1,6.3c0.3,0.3,0.5,0.7,0.5,1.2c0.1,0.5,-0.1,1,-0.5,1.3l-7,6.4c-0.5,0.5,-1.3,0.4,-1.7,-0.3c-0.5,-0.7,-0.3,-1.7,0.2,-2.2Z" class="g2_22" />
<path d="M493.7,358.9l5.6,-5.1l-5.7,-4.9c-0.6,-0.6,-0.7,-1.5,-0.3,-2.2c0.4,-0.7,1.2,-0.9,1.8,-0.4l7.1,6.2c0.3,0.3,0.5,0.8,0.5,1.3c0.1,0.5,-0.1,1,-0.5,1.3l-7,6.4c-0.5,0.5,-1.3,0.3,-1.7,-0.4c-0.5,-0.7,-0.3,-1.6,0.2,-2.2Z" class="g2_22" />
<path d="M84.2,788.9l5.6,-5.1l-5.7,-5c-0.6,-0.5,-0.7,-1.4,-0.3,-2.1c0.4,-0.7,1.2,-0.9,1.7,-0.4l7.2,6.2c0.3,0.3,0.5,0.8,0.5,1.3c0,0.5,-0.2,1,-0.5,1.3l-7,6.4c-0.6,0.5,-1.4,0.3,-1.8,-0.4c-0.4,-0.7,-0.3,-1.7,0.3,-2.2Z" class="g2_22" />
<path d="M419.6,788.9l5.5,-5.1l-5.6,-5c-0.6,-0.5,-0.8,-1.5,-0.4,-2.2c0.5,-0.7,1.3,-0.8,1.8,-0.3l7.2,6.2c0.3,0.3,0.5,0.8,0.5,1.3c0,0.5,-0.2,0.9,-0.5,1.2l-7,6.4c-0.6,0.5,-1.4,0.4,-1.8,-0.3c-0.4,-0.7,-0.3,-1.7,0.3,-2.2Z" class="g2_22" />
<path d="M182.1,995.3l5.5,-5.1l-5.7,-5c-0.5,-0.5,-0.7,-1.5,-0.3,-2.2c0.4,-0.7,1.2,-0.8,1.8,-0.3l7.1,6.2c0.4,0.3,0.6,0.8,0.6,1.3c0,0.5,-0.2,1,-0.5,1.2l-7,6.4c-0.6,0.6,-1.4,0.4,-1.8,-0.3c-0.4,-0.7,-0.3,-1.7,0.3,-2.2Z" class="g2_22" />
<path d="M530.8,990.1l5.6,-5.1l-5.7,-5c-0.6,-0.5,-0.7,-1.5,-0.3,-2.2c0.4,-0.7,1.2,-0.8,1.8,-0.3l7.1,6.2c0.3,0.3,0.5,0.8,0.5,1.3c0,0.5,-0.2,1,-0.5,1.3l-7,6.3c-0.5,0.6,-1.3,0.4,-1.8,-0.3c-0.4,-0.7,-0.3,-1.7,0.3,-2.2Z" class="g2_22" />
<path d="M388.3,1112l5.5,-5.1l-5.7,-5c-0.5,-0.5,-0.7,-1.4,-0.3,-2.1c0.4,-0.7,1.2,-0.9,1.8,-0.4l7.1,6.2c0.4,0.3,0.6,0.8,0.6,1.3c0,0.5,-0.2,1,-0.5,1.3l-7,6.4c-0.6,0.5,-1.4,0.3,-1.8,-0.4c-0.4,-0.7,-0.3,-1.7,0.3,-2.2Z" class="g2_22" />
<image x="536" y="242" width="248" height="80" xlink:href="img/1.png" />
<path d="M493.7,452.5l5.6,-5.1l-5.7,-5c-0.6,-0.5,-0.7,-1.4,-0.3,-2.2c0.4,-0.7,1.2,-0.8,1.8,-0.3l7.1,6.2c0.3,0.3,0.5,0.8,0.5,1.3c0.1,0.5,-0.1,1,-0.5,1.3l-7,6.3c-0.5,0.6,-1.3,0.4,-1.7,-0.3c-0.5,-0.7,-0.3,-1.7,0.2,-2.2Z" class="g2_22" />
<path d="M493.7,555.6l5.6,-5.1l-5.7,-5C493,545,492.9,544,493.3,543.3c0.4,-0.7,1.2,-0.9,1.8,-0.3l7.1,6.2c0.3,0.3,0.5,0.7,0.5,1.3c0.1,0.5,-0.1,0.9,-0.5,1.2l-7,6.4c-0.5,0.5,-1.3,0.4,-1.7,-0.3c-0.5,-0.7,-0.3,-1.7,0.2,-2.2Z" class="g2_22" />
<image x="536" y="331" width="248" height="79" xlink:href="img/2.png" />
<path d="M339,124l-351,0l0,68l316,0Z" class="g3_22" />
<image x="117" y="701" width="76" height="55" xlink:href="shade/1.png" />
<image x="117" y="701" width="35" height="55" xlink:href="shade/2.png" />
<image x="117" y="716" width="78" height="39" xlink:href="shade/3.png" />
<image x="159" y="701" width="35" height="55" xlink:href="shade/4.png" />
<path fill-rule="evenodd" d="M118.4,702.1l74.4,0l-33.9,22.2c-3.1,2,-3.6,2.7,-7,0.5Z" class="g4_22" />
<image x="118" y="701" width="34" height="54" xlink:href="img/3.png" />
<image x="118" y="701" width="32" height="54" xlink:href="img/4.png" />
<image x="118" y="717" width="75" height="38" xlink:href="img/5.png" />
<image x="118" y="718" width="75" height="37" xlink:href="img/6.png" />
<image x="159" y="701" width="34" height="54" xlink:href="img/7.png" />
<image x="160" y="701" width="33" height="54" xlink:href="img/8.png" />
<path fill-rule="evenodd" d="M118.4,702.1l74.4,0l-33.9,-22c-3.1,-2,-3.6,-2.7,-6.9,-0.5Z" class="g5_22" />
<path fill-rule="evenodd" d="M120.3,702.1l70.7,0L158.7,681.2c-2.9,-1.9,-3.3,-2.6,-6.5,-0.4Z" class="g4_22" />
<image x="231" y="339" width="3" height="1" xlink:href="img/9.png" transform="scale(0.666 , 2)" />
<image x="126.666" y="679" width="5" height="2" xlink:href="img/10.png" transform="scale(1.2 , 1)" />
<image x="151" y="680" width="8" height="2" xlink:href="img/11.png" />
<image x="150" y="453.333" width="10" height="2" xlink:href="img/12.png" transform="scale(1 , 1.5)" />
<image x="149" y="340.5" width="12" height="1" xlink:href="img/13.png" transform="scale(1 , 2)" />
<image x="147" y="682" width="16" height="1" xlink:href="img/14.png" />
<image x="137.888" y="341" width="17" height="1" xlink:href="img/15.png" transform="scale(1.058 , 2)" />
<image x="145" y="684" width="21" height="2" xlink:href="img/16.png" />
<image x="144" y="685" width="23" height="2" xlink:href="img/17.png" />
<image x="143" y="685" width="25" height="2" xlink:href="img/18.png" />
<image x="141" y="686" width="28" height="1" xlink:href="img/19.png" />
<image x="135.333" y="343" width="29" height="1" xlink:href="img/20.png" transform="scale(1.034 , 2)" />
<image x="139" y="343.5" width="32" height="1" xlink:href="img/21.png" transform="scale(1 , 2)" />
<image x="138" y="689" width="35" height="2" xlink:href="img/22.png" />
<image x="137" y="689" width="37" height="2" xlink:href="img/23.png" />
<image x="135" y="690" width="40" height="2" xlink:href="img/24.png" />
<image x="130.883" y="345" width="42" height="1" xlink:href="img/25.png" transform="scale(1.023 , 2)" />
<image x="130.044" y="345.5" width="44" height="1" xlink:href="img/26.png" transform="scale(1.022 , 2)" />
<image x="132" y="693" width="47" height="2" xlink:href="img/27.png" />
<image x="131" y="693" width="49" height="2" xlink:href="img/28.png" />
<image x="130" y="694" width="51" height="2" xlink:href="img/29.png" />
<image x="128" y="347" width="54" height="1" xlink:href="img/30.png" transform="scale(1 , 2)" />
<image x="124.771" y="347.5" width="55.999" height="1" xlink:href="img/31.png" transform="scale(1.017 , 2)" />
<image x="126" y="348" width="59" height="1" xlink:href="img/32.png" transform="scale(1 , 2)" />
<image x="125" y="464.666" width="61" height="2" xlink:href="img/33.png" transform="scale(1 , 1.5)" />
<image x="123" y="698" width="65" height="2" xlink:href="img/34.png" />
<image x="122" y="699" width="67" height="2" xlink:href="img/35.png" />
<image x="119.246" y="349.5" width="68" height="1" xlink:href="img/36.png" transform="scale(1.014 , 2)" />
<image x="120" y="350" width="71" height="1" xlink:href="img/37.png" transform="scale(1 , 2)" />
<image x="116.426" y="467.333" width="74" height="2" xlink:href="img/38.png" transform="scale(1.013 , 1.5)" />
<image x="119" y="702" width="73" height="2" xlink:href="img/39.png" />
<image x="120" y="703" width="71" height="2" xlink:href="img/40.png" />
<image x="122" y="351.5" width="67" height="1" xlink:href="img/41.png" transform="scale(1 , 2)" />
<image x="121.107" y="352" width="64" height="1" xlink:href="img/42.png" transform="scale(1.015 , 2)" />
<image x="124" y="705" width="62" height="1" xlink:href="img/43.png" />
<image x="126" y="706" width="59" height="2" xlink:href="img/44.png" />
<image x="127" y="707" width="56" height="2" xlink:href="img/45.png" />
<image x="129" y="708" width="53" height="2" xlink:href="img/46.png" />
<image x="127.45" y="354" width="50" height="1" xlink:href="img/47.png" transform="scale(1.02 , 2)" />
<image x="131" y="709" width="48" height="1" xlink:href="img/48.png" />
<image x="133" y="354.5" width="45" height="1" xlink:href="img/49.png" transform="scale(1 , 2)" />
<image x="134" y="711" width="43" height="2" xlink:href="img/50.png" />
<image x="135" y="712" width="40" height="2" xlink:href="img/51.png" />
<image x="133.297" y="474.666" width="36" height="2" xlink:href="img/52.png" transform="scale(1.027 , 1.5)" />
<image x="138" y="713" width="34" height="1" xlink:href="img/53.png" />
<image x="140" y="356.5" width="31" height="1" xlink:href="img/54.png" transform="scale(1 , 2)" />
<image x="141" y="715" width="28" height="2" xlink:href="img/55.png" />
<image x="142" y="716" width="26" height="2" xlink:href="img/56.png" />
<image x="144" y="477.333" width="23" height="2" xlink:href="img/57.png" transform="scale(1 , 1.5)" />
<image x="145" y="358.5" width="20" height="1" xlink:href="img/58.png" transform="scale(1 , 2)" />
<image x="137.888" y="358.5" width="17" height="1" xlink:href="img/59.png" transform="scale(1.058 , 2)" />
<image x="148" y="359" width="14" height="1" xlink:href="img/60.png" transform="scale(1 , 2)" />
<image x="149" y="720" width="12" height="2" xlink:href="img/61.png" />
<image x="149" y="480" width="12" height="2" xlink:href="img/62.png" transform="scale(1 , 1.5)" />
<image x="149" y="721" width="2" height="2" xlink:href="img/63.png" />
<image x="82" y="952" width="89" height="118" xlink:href="img/64.png" />
<path d="M90.9,976.7c-0.1,0.2,-0.1,0.5,-0.2,0.9c-0.1,0.3,-0.1,0.7,-0.1,1.1c0,0.4,-0.1,0.8,0,1.2c0,0.5,0,0.9,0.1,1.2c0,0.1,0,0.2,-0.1,0.2c0,0.1,-0.1,0.1,-0.1,0.2c-0.1,0,-0.2,0,-0.3,-0.1c-0.1,0,-0.1,-0.1,-0.2,-0.2c-0.1,-0.4,-0.1,-0.8,-0.1,-1.3c0,-0.4,0,-0.9,0,-1.3c0,-0.4,0.1,-0.8,0.1,-1.1c0.1,-0.4,0.1,-0.7,0.2,-0.9c0,-0.1,0.1,-0.2,0.2,-0.2c0,-0.1,0.1,-0.1,0.2,0c0.1,0,0.1,0,0.2,0.1c0.1,0,0.1,0.1,0.1,0.2Zm3.3,0.3c0,0.2,-0.1,0.4,-0.2,0.6c-0.1,0.1,-0.3,0.3,-0.6,0.4c-0.2,0.1,-0.3,0.2,-0.5,0.2c-0.1,0.1,-0.3,0.2,-0.5,0.3c-0.2,0.1,-0.4,0.2,-0.6,0.3c-0.1,0,-0.3,0.1,-0.5,0.2c-0.1,0,-0.2,0,-0.3,0c0,0,-0.1,-0.1,-0.1,-0.2c-0.1,-0.1,-0.1,-0.1,0,-0.2c0,-0.1,0,-0.2,0.1,-0.2c0.2,-0.1,0.4,-0.2,0.6,-0.3c0.2,0,0.4,-0.1,0.5,-0.2c0.2,-0.1,0.4,-0.2,0.5,-0.2c0.2,-0.1,0.3,-0.2,0.4,-0.2c0.3,-0.2,0.4,-0.3,0.4,-0.4c0,-0.1,-0.1,-0.2,-0.2,-0.3c-0.1,-0.1,-0.2,-0.1,-0.4,-0.2c-0.2,-0.1,-0.4,-0.1,-0.7,-0.2c-0.2,0,-0.5,0,-0.7,-0.1c-0.3,0,-0.5,-0.1,-0.8,-0.1c-0.2,-0.1,-0.5,-0.1,-0.7,-0.2c-0.2,0,-0.4,-0.1,-0.6,-0.1c-0.1,0,-0.3,-0.1,-0.3,-0.1c-0.1,-0.1,-0.2,-0.1,-0.2,-0.2c0,-0.1,0,-0.2,0,-0.2c0,-0.1,0.1,-0.2,0.1,-0.2c0.1,-0.1,0.2,-0.1,0.3,-0.1c0,0,0.1,0,0.2,0c0,0.1,0.1,0.1,0.1,0.1c0.3,0.1,0.5,0.2,0.8,0.2c0.3,0.1,0.6,0.2,0.9,0.2c0.3,0.1,0.6,0.1,0.9,0.2c0.3,0,0.6,0.1,0.8,0.2c0.5,0.1,0.8,0.2,1,0.4c0.2,0.2,0.3,0.4,0.3,0.6Z" class="g6_22" />
<path d="M98.2,977.2c0,-0.1,-0.1,-0.2,-0.3,-0.4c-0.2,-0.1,-0.5,-0.2,-0.8,-0.4c-0.4,-0.1,-0.7,-0.2,-1.1,-0.3c-0.1,0.1,-0.1,0.2,-0.1,0.3c-0.1,0.2,-0.1,0.4,-0.1,0.6c0,0.1,0,0.4,0,0.6c0,0.2,0,0.5,0,0.7c0.1,0,0.3,-0.1,0.5,-0.1c0.2,-0.1,0.4,-0.2,0.6,-0.2c0.2,-0.1,0.3,-0.2,0.5,-0.2c0.2,-0.1,0.3,-0.2,0.5,-0.2c0.2,-0.1,0.3,-0.3,0.3,-0.4Zm1.2,4c0,0,0,0.1,-0.1,0.2c-0.1,0,-0.2,0,-0.3,0c-0.2,-0.1,-0.4,-0.2,-0.7,-0.3C98,981,97.7,980.9,97.4,980.8c-0.3,-0.1,-0.6,-0.3,-0.8,-0.4C96.3,980.3,96,980.1,95.8,980c0,0.1,0,0.2,0,0.3c0,0.1,0,0.2,-0.1,0.3c0,0.1,0,0.2,0,0.3c0,0.1,0,0.2,0,0.3c0,0.1,0,0.2,-0.1,0.3c0,0,-0.1,0,-0.2,0c-0.1,0,-0.2,0,-0.2,-0.1c-0.1,0,-0.1,-0.1,-0.1,-0.2c0,-0.3,0,-0.5,0,-0.8c0,-0.3,0,-0.6,0,-0.9c-0.2,-0.1,-0.3,-0.2,-0.3,-0.4c0,-0.2,0.1,-0.4,0.3,-0.5l0,-0.7c0,-0.2,0,-0.5,0,-0.7c0,-0.2,0.1,-0.5,0.1,-0.7c0,-0.2,0.1,-0.4,0.1,-0.6c-0.1,0,-0.2,0,-0.3,0c-0.1,-0.1,-0.2,-0.1,-0.3,-0.1c0,0,-0.1,0,-0.2,0c0,0,-0.1,0,-0.1,0c-0.1,-0.1,-0.2,-0.1,-0.2,-0.1c-0.1,-0.1,-0.1,-0.1,-0.2,-0.1c0,-0.1,-0.1,-0.2,-0.1,-0.3c0,0,0,-0.1,0.1,-0.2C94.1,975,94.2,975,94.4,975c0,0,0.1,0,0.1,0c0.1,0.1,0.1,0.1,0.2,0.1c0.3,0.1,0.6,0.2,1,0.3c0.3,0,0.6,0.1,0.9,0.2c0.3,0.1,0.6,0.2,0.9,0.3c0.3,0.1,0.5,0.2,0.7,0.4c0.6,0.3,0.8,0.6,0.8,0.9c0,0.4,-0.3,0.7,-0.8,0.9c-0.2,0.1,-0.3,0.2,-0.5,0.2c-0.3,0.1,-0.5,0.2,-0.7,0.3c-0.2,0,-0.4,0.1,-0.6,0.2c-0.2,0.1,-0.4,0.1,-0.6,0.2c0,0.1,0,0.1,0,0.1c0,0,0,0.1,0,0.1c0.2,0.1,0.4,0.3,0.7,0.4c0.3,0.2,0.6,0.3,0.9,0.5c0.3,0.1,0.6,0.2,0.9,0.4c0.4,0.1,0.6,0.2,0.9,0.2c0.1,0.1,0.2,0.1,0.2,0.2c0.1,0.1,0.1,0.2,0,0.3Z" class="g6_22" />
<path d="M104.2,980.2c-0.1,0.2,-0.2,0.3,-0.4,0.4c-0.2,0.1,-0.4,0.2,-0.6,0.3c-0.1,0,-0.3,0.1,-0.5,0.1c-0.2,0.1,-0.4,0.1,-0.6,0.2c-0.3,0,-0.5,0,-0.7,0.1c-0.2,0,-0.4,0,-0.6,0c-0.2,0,-0.3,0,-0.4,-0.1c-0.2,0,-0.3,-0.1,-0.4,-0.3c0,-0.1,-0.1,-0.2,-0.1,-0.4c-0.1,-0.1,-0.1,-0.3,-0.1,-0.5c0,-0.1,0,-0.2,0,-0.3c0.1,-0.1,0.1,-0.2,0.1,-0.4c0,-0.1,0.1,-0.2,0.1,-0.3c0,-0.1,0,-0.2,0,-0.3c0,0,-0.1,0,-0.2,0c-0.1,0,-0.2,0,-0.2,0c-0.1,0,-0.2,0,-0.3,-0.1c-0.1,0,-0.1,-0.1,-0.1,-0.2c0,-0.1,0.1,-0.2,0.2,-0.3c0.1,0,0.1,-0.1,0.2,-0.1c0.1,0,0.2,0,0.2,0.1C99.9,978,100,978,100,978c0.1,0,0.2,0,0.2,0c0.1,-0.3,0.2,-0.5,0.3,-0.8c0.1,-0.2,0.1,-0.4,0.1,-0.6c0,-0.1,0,-0.1,0,-0.2c0,0,0,-0.1,0,-0.1c-0.1,0,-0.2,0,-0.3,0.1c-0.2,0,-0.3,0.1,-0.4,0.1c-0.1,0,-0.2,0,-0.3,0c-0.1,-0.1,-0.1,-0.1,-0.1,-0.2c0,-0.1,0,-0.1,0,-0.2c0,-0.1,0.1,-0.2,0.2,-0.2c0.4,-0.2,0.7,-0.3,1.1,-0.3c0.4,-0.1,0.7,-0.2,1.1,-0.2c0.4,0,0.7,0,1.1,0c0.3,-0.1,0.6,0,0.9,0c0.1,0,0.2,0,0.2,0.1c0.1,0,0.1,0.1,0.1,0.2c0,0.1,0,0.2,-0.1,0.2c0,0.1,-0.1,0.1,-0.2,0.1c-0.5,0,-0.9,0,-1.4,0c-0.4,0,-0.8,0.1,-1.2,0.2l0,0.1c0,0.1,0,0.1,0,0.2c0,0.2,0,0.4,-0.1,0.7c-0.1,0.2,-0.2,0.5,-0.2,0.7c0.2,0,0.4,-0.1,0.7,-0.1c0.2,0,0.4,-0.1,0.7,-0.1c0.2,-0.1,0.4,-0.1,0.6,-0.1c0.2,-0.1,0.4,-0.1,0.6,-0.2c0.1,0,0.1,0,0.2,0.1c0,0,0.1,0.1,0.1,0.2c0,0.1,0,0.2,0,0.2c-0.1,0.1,-0.1,0.2,-0.3,0.2c-0.1,0,-0.3,0.1,-0.5,0.1c-0.3,0.1,-0.5,0.1,-0.8,0.2c-0.3,0,-0.6,0,-0.8,0.1c-0.3,0,-0.5,0.1,-0.7,0.1c-0.1,0.3,-0.2,0.5,-0.2,0.7c-0.1,0.3,-0.1,0.5,-0.1,0.7c0,0.1,0,0.2,0,0.3c0,0.1,0.1,0.2,0.1,0.2c0.1,0.1,0.2,0.1,0.3,0.1c0.3,0,0.6,0,1,-0.1c0.4,-0.1,0.7,-0.1,1.1,-0.3c0.1,0,0.3,-0.1,0.4,-0.1c0.1,-0.1,0.2,-0.2,0.3,-0.3c0.1,-0.1,0.2,-0.1,0.2,-0.1c0.1,0,0.2,0,0.3,0.1c0,0,0.1,0.1,0.1,0.2c0,0.1,0,0.2,-0.1,0.2Z" class="g6_22" />
<path d="M108,973.9c0.1,0.1,0.1,0.3,-0.1,0.5c0,0.1,-0.2,0.3,-0.4,0.4c-0.2,0.2,-0.4,0.4,-0.7,0.6c-0.2,0.2,-0.5,0.4,-0.7,0.6c-0.2,0.2,-0.5,0.4,-0.6,0.6c-0.3,0.3,-0.4,0.5,-0.4,0.8c0,0.2,0.1,0.4,0.3,0.6c0.1,0.1,0.2,0.1,0.3,0.3c0.1,0.1,0.3,0.2,0.4,0.3c0.1,0.1,0.3,0.2,0.4,0.3c0.1,0.1,0.2,0.2,0.3,0.3c0.4,0.4,0.6,0.8,0.6,1.2c0,0.1,-0.1,0.3,-0.1,0.4c-0.1,0.2,-0.2,0.3,-0.3,0.4c-0.1,0.2,-0.2,0.3,-0.3,0.4c-0.1,0.1,-0.2,0.2,-0.4,0.3c-0.1,0.1,-0.2,0.2,-0.3,0.2c-0.1,0.1,-0.2,0.1,-0.3,0.2c-0.1,0,-0.2,0.1,-0.3,0c-0.1,0,-0.1,-0.1,-0.2,-0.1c0,-0.1,0,-0.2,0,-0.3c0,-0.1,0.1,-0.1,0.1,-0.2c0.1,0,0.2,-0.1,0.3,-0.1c0.1,-0.1,0.2,-0.2,0.3,-0.2c0.1,-0.1,0.2,-0.2,0.3,-0.3c0.1,-0.1,0.2,-0.2,0.3,-0.3c0.1,-0.1,0.2,-0.3,0.2,-0.4c0,-0.3,-0.2,-0.5,-0.4,-0.8c-0.1,0,-0.2,-0.1,-0.3,-0.2c-0.1,-0.1,-0.2,-0.3,-0.4,-0.4c-0.1,-0.1,-0.2,-0.2,-0.3,-0.3c-0.2,-0.1,-0.3,-0.2,-0.3,-0.2c-0.4,-0.4,-0.6,-0.7,-0.6,-1.1c0,-0.4,0.2,-0.7,0.6,-1.2c0.1,-0.2,0.3,-0.4,0.6,-0.6c0.2,-0.2,0.4,-0.4,0.6,-0.5c0.2,-0.2,0.4,-0.4,0.6,-0.5c0.2,-0.2,0.3,-0.3,0.4,-0.4c0,-0.1,0.1,-0.1,0.1,-0.2c0.1,-0.1,0.1,-0.1,0.2,-0.2c0.1,0,0.2,0,0.3,0c0,0,0.1,0.1,0.2,0.1Z" class="g6_22" />
<path d="M111.9,975.9c0,0.1,0,0.1,-0.1,0.2c0,0.1,-0.1,0.1,-0.2,0.1c-0.1,0,-0.3,0,-0.4,0l-0.4,0c-0.2,0,-0.3,0,-0.5,0c-0.1,0,-0.2,0,-0.3,0c0,0.3,0,0.6,0,0.9c0,0.4,-0.1,0.7,-0.1,1c0,0.4,0,0.7,0,1c-0.1,0.4,-0.1,0.7,-0.1,1c0.2,0,0.4,0,0.7,0l0.5,0c0.1,0,0.2,0,0.3,0.1c0,0,0,0.1,0,0.2c0,0.1,0,0.1,0,0.2c-0.1,0.1,-0.2,0.1,-0.3,0.1c-0.1,0,-0.3,0,-0.6,0c-0.2,0,-0.4,0,-0.7,0c0,0.1,-0.1,0.1,-0.1,0.2c-0.1,0,-0.1,0,-0.2,0c0,0,-0.1,0,-0.1,0c-0.1,-0.1,-0.1,-0.1,-0.1,-0.2c-0.2,0.1,-0.4,0.1,-0.6,0.1c-0.1,0,-0.3,0,-0.4,0c-0.2,0,-0.2,-0.1,-0.3,-0.1c-0.1,-0.1,-0.1,-0.2,-0.1,-0.3c0,0,0,-0.1,0.1,-0.2c0.1,-0.1,0.1,-0.1,0.3,-0.1l0.4,0c0.2,0,0.3,0,0.5,0c0.1,-0.3,0.1,-0.7,0.1,-1c0,-0.3,0,-0.7,0.1,-1c0,-0.3,0,-0.7,0,-1c0,-0.3,0,-0.6,0,-0.9c-0.1,0,-0.3,0,-0.4,0c-0.2,0,-0.3,0,-0.5,0c0,0.1,-0.1,0.1,-0.2,0.1c-0.1,0,-0.1,0,-0.2,0c-0.1,0,-0.2,-0.1,-0.2,-0.2c-0.1,0,-0.1,-0.1,-0.1,-0.2c0,0,0,-0.1,0,-0.2c0.1,0,0.2,-0.1,0.3,-0.1c0.1,0,0.2,0,0.3,0c0.1,-0.1,0.2,-0.1,0.3,-0.1l0.8,0l0.1,-0.1c0,0,0.1,0,0.1,0c0.1,0,0.1,0,0.2,0c0,0.1,0,0.1,0.1,0.2c0.2,0,0.5,0,0.8,0c0.3,0,0.6,0,0.9,0c0.1,0,0.2,0,0.2,0.1c0.1,0,0.1,0.1,0.1,0.2Z" class="g6_22" />
<path d="M117.3,978.1c0,0.1,0,0.3,-0.1,0.5c-0.2,0.3,-0.3,0.5,-0.5,0.7c-0.2,0.2,-0.4,0.4,-0.6,0.6c-0.2,0.2,-0.4,0.4,-0.6,0.5c-0.3,0.2,-0.6,0.4,-1,0.6c-0.3,0.2,-0.6,0.4,-1,0.6c-0.1,0,-0.2,0,-0.3,0c-0.1,0,-0.1,-0.1,-0.2,-0.2c0,0,0,-0.1,0,-0.2c0,-0.1,0.1,-0.2,0.2,-0.2c0.3,-0.2,0.7,-0.4,1,-0.6c0.3,-0.2,0.6,-0.4,0.9,-0.5c0.1,-0.1,0.3,-0.3,0.5,-0.4c0.1,-0.2,0.3,-0.4,0.5,-0.5c0.1,-0.2,0.2,-0.4,0.3,-0.5c0.1,-0.2,0.2,-0.3,0.2,-0.5c0,-0.1,-0.1,-0.3,-0.2,-0.5c-0.1,-0.1,-0.3,-0.3,-0.6,-0.5c-0.1,-0.1,-0.3,-0.2,-0.5,-0.3c-0.2,-0.1,-0.4,-0.3,-0.7,-0.4c-0.2,-0.1,-0.4,-0.2,-0.6,-0.4c-0.3,-0.1,-0.5,-0.2,-0.7,-0.3c0,0.4,0,0.9,-0.1,1.3c0,0.5,-0.1,1,-0.1,1.4c0,0.4,-0.1,0.7,-0.1,1c0,0.3,0,0.5,0,0.6c0,0.1,0,0.2,0,0.2c0.1,0.1,0.1,0.2,0.1,0.3c0.1,0,0.1,0.1,0,0.2c0,0,-0.1,0.1,-0.1,0.1c-0.1,0.1,-0.2,0.1,-0.3,0c-0.1,0,-0.2,0,-0.2,-0.1c0,-0.1,-0.1,-0.2,-0.1,-0.3c-0.1,-0.1,-0.1,-0.2,-0.1,-0.4c0,-0.1,0,-0.2,0,-0.4c0,-0.2,0,-0.4,0.1,-0.6c0,-0.3,0,-0.5,0,-0.8c0.1,-0.3,0.1,-0.6,0.1,-1c0.1,-0.3,0.1,-0.6,0.1,-0.9c0,-0.3,0.1,-0.6,0.1,-0.9c-0.1,-0.1,-0.1,-0.1,-0.2,-0.1c0,-0.1,-0.1,-0.1,-0.1,-0.1c-0.1,0,-0.2,0,-0.2,0C112.1,975,112.1,975,112,974.9c0,-0.1,0,-0.1,0,-0.2c0,-0.1,0,-0.1,0,-0.2c0.1,0,0.2,-0.1,0.3,-0.1c0,0,0.1,0,0.2,0c0.4,0.2,0.8,0.4,1.1,0.6c0.4,0.2,0.7,0.4,1,0.6c0.4,0.2,0.7,0.3,0.9,0.5c0.3,0.1,0.5,0.2,0.6,0.3c0.8,0.6,1.2,1.1,1.2,1.7Z" class="g6_22" />
<path d="M122.6,980.2c-0.1,0.2,-0.2,0.3,-0.4,0.4c-0.2,0.1,-0.4,0.2,-0.6,0.3c-0.1,0,-0.3,0.1,-0.5,0.1c-0.2,0.1,-0.4,0.1,-0.6,0.2c-0.3,0,-0.5,0,-0.7,0.1c-0.2,0,-0.4,0,-0.6,0c-0.2,0,-0.3,0,-0.4,-0.1c-0.2,0,-0.3,-0.1,-0.4,-0.3c0,-0.1,-0.1,-0.2,-0.1,-0.4c-0.1,-0.1,-0.1,-0.3,-0.1,-0.5c0,-0.1,0,-0.2,0,-0.3c0.1,-0.1,0.1,-0.2,0.1,-0.4c0,-0.1,0.1,-0.2,0.1,-0.3c0,-0.1,0,-0.2,0,-0.3c0,0,-0.1,0,-0.2,0c-0.1,0,-0.2,0,-0.2,0c-0.1,0,-0.2,0,-0.3,-0.1c0,0,-0.1,-0.1,-0.1,-0.2c0,-0.1,0.1,-0.2,0.2,-0.3c0.1,0,0.1,-0.1,0.2,-0.1c0.1,0,0.2,0,0.2,0.1c0.1,-0.1,0.2,-0.1,0.2,-0.1c0.1,0,0.2,0,0.2,0c0.1,-0.3,0.2,-0.5,0.3,-0.8c0.1,-0.2,0.1,-0.4,0.1,-0.6c0,-0.1,0,-0.1,0,-0.2c0,0,0,-0.1,0,-0.1c-0.1,0,-0.2,0,-0.3,0.1c-0.2,0,-0.3,0.1,-0.4,0.1c-0.1,0,-0.2,0,-0.3,0c0,-0.1,-0.1,-0.1,-0.1,-0.2c0,-0.1,0,-0.1,0,-0.2c0,-0.1,0.1,-0.2,0.2,-0.2c0.4,-0.2,0.7,-0.3,1.1,-0.3c0.4,-0.1,0.7,-0.2,1.1,-0.2c0.4,0,0.7,0,1.1,0c0.3,-0.1,0.6,0,0.9,0c0.1,0,0.2,0,0.2,0.1c0.1,0,0.1,0.1,0.1,0.2c0,0.1,0,0.2,-0.1,0.2c0,0.1,-0.1,0.1,-0.2,0.1c-0.5,0,-0.9,0,-1.4,0c-0.4,0,-0.8,0.1,-1.2,0.2l0,0.1c0,0.1,0,0.1,0,0.2c0,0.2,0,0.4,-0.1,0.7c-0.1,0.2,-0.1,0.5,-0.2,0.7c0.2,0,0.4,-0.1,0.7,-0.1c0.2,0,0.5,-0.1,0.7,-0.1c0.2,-0.1,0.4,-0.1,0.6,-0.1c0.2,-0.1,0.4,-0.1,0.6,-0.2c0.1,0,0.1,0,0.2,0.1c0.1,0,0.1,0.1,0.1,0.2c0,0.1,0,0.2,0,0.2c-0.1,0.1,-0.1,0.2,-0.2,0.2c-0.2,0,-0.4,0.1,-0.6,0.1c-0.3,0.1,-0.5,0.1,-0.8,0.2c-0.3,0,-0.6,0,-0.8,0.1c-0.3,0,-0.5,0.1,-0.7,0.1c-0.1,0.3,-0.2,0.5,-0.2,0.7c-0.1,0.3,-0.1,0.5,-0.1,0.7c0,0.1,0,0.2,0,0.3c0,0.1,0.1,0.2,0.1,0.2c0.1,0.1,0.2,0.1,0.3,0.1c0.3,0,0.6,0,1,-0.1c0.4,-0.1,0.7,-0.1,1.1,-0.3c0.1,0,0.3,-0.1,0.4,-0.1c0.1,-0.1,0.2,-0.2,0.3,-0.3c0.1,-0.1,0.2,-0.1,0.3,-0.1c0,0,0.1,0,0.2,0.1c0,0,0.1,0.1,0.1,0.2c0,0.1,0,0.2,-0.1,0.2Z" class="g6_22" />
<path d="M128,976.5c0.1,0.2,0.1,0.4,0.1,0.7c0,0.3,0,0.6,0,0.9c0,0.3,-0.1,0.6,-0.1,0.9c-0.1,0.3,-0.1,0.5,-0.2,0.7c-0.1,0.3,-0.3,0.5,-0.5,0.7c-0.1,0.2,-0.4,0.3,-0.6,0.3c-0.2,0,-0.3,-0.1,-0.5,-0.1c-0.2,-0.1,-0.3,-0.3,-0.5,-0.4c-0.3,-0.3,-0.5,-0.6,-0.8,-1c-0.2,-0.4,-0.5,-0.8,-0.7,-1.3c0,0.3,0,0.5,-0.1,0.7c0,0.3,0,0.5,0,0.7c0,0.3,0,0.5,-0.1,0.7c0,0.2,0,0.3,0.1,0.5c0,0,0,0.1,0,0.1c0,0.1,0,0.1,0.1,0.1c0.1,0.1,0.1,0.1,0.1,0.2c0.1,0,0.1,0.1,0,0.2c0,0,0,0.1,-0.1,0.1c0,0.1,-0.1,0.1,-0.2,0.1c-0.2,0,-0.3,-0.1,-0.4,-0.2c-0.1,-0.1,-0.2,-0.3,-0.2,-0.4c0,-0.3,0,-0.5,0,-0.9c0,-0.3,0,-0.6,0.1,-1c0,-0.3,0,-0.7,0.1,-1c0,-0.4,0,-0.7,0.1,-0.9c-0.1,-0.1,-0.1,-0.2,-0.1,-0.2c-0.1,-0.1,-0.1,-0.2,-0.1,-0.3c0,-0.1,0,-0.1,0,-0.2c0.1,-0.1,0.1,-0.1,0.2,-0.1c0,-0.1,0.1,-0.1,0.2,-0.1c0,0,0.1,0.1,0.1,0.1c0.1,0.1,0.1,0.1,0.1,0.2c0,0,0.1,0,0.1,0.1c0.1,0,0.1,0,0.2,0.1c0,0.1,0,0.2,0,0.3c0.1,0.2,0.2,0.4,0.3,0.7c0.1,0.3,0.3,0.5,0.4,0.8c0.2,0.2,0.4,0.5,0.5,0.7c0.2,0.3,0.4,0.5,0.6,0.7c0.1,0.1,0.2,0.2,0.3,0.2c0.1,0,0.1,0.1,0.2,0c0.1,0,0.2,0,0.3,-0.1c0.1,-0.1,0.1,-0.2,0.2,-0.3c0,-0.1,0,-0.3,0.1,-0.5c0,-0.2,0.1,-0.5,0.1,-0.7c0,-0.3,0.1,-0.5,0.1,-0.8c0,-0.2,0,-0.4,0,-0.6c-0.1,-0.1,-0.2,-0.2,-0.2,-0.3c0,-0.1,0.1,-0.2,0.1,-0.2c0.1,-0.1,0.1,-0.1,0.2,-0.2c0.1,0,0.2,0,0.3,0.1c0,0,0.1,0.1,0.1,0.2Z" class="g6_22" />
<path d="M134.6,976.2c0,0.1,0,0.1,0,0.2c-0.1,0.1,-0.1,0.1,-0.2,0.1c-0.1,0.1,-0.2,0.1,-0.3,0.1c-0.1,0,-0.1,-0.1,-0.2,-0.1c-0.2,0,-0.5,-0.1,-0.8,-0.1c-0.4,0,-0.8,0.1,-1.2,0.1c0,0.1,0,0.3,-0.1,0.6c0,0.2,0,0.4,0,0.7l0,0.8c0,0.2,0,0.5,0,0.7c0,0.2,0.1,0.4,0.1,0.6c0,0.2,0,0.3,0,0.4c0.1,0.1,0.2,0.2,0.2,0.3c0,0.1,-0.1,0.2,-0.2,0.3c-0.1,0,-0.1,0.1,-0.2,0c-0.1,0,-0.2,0,-0.3,-0.1c-0.1,-0.1,-0.2,-0.2,-0.2,-0.4c0,-0.2,0,-0.5,0,-0.8c0,-0.4,0,-0.7,0,-1.1c0,-0.3,0,-0.7,0,-1c0,-0.4,0,-0.7,0,-1c-0.2,0,-0.5,0,-0.7,0c-0.3,0,-0.5,0,-0.8,0c-0.2,0,-0.4,0,-0.6,0c-0.3,0,-0.4,0,-0.6,0c-0.1,0,-0.2,-0.1,-0.2,-0.1c-0.1,-0.1,-0.1,-0.2,-0.1,-0.3c0,-0.1,0,-0.1,0.1,-0.2c0,-0.1,0.1,-0.1,0.2,-0.1c0.3,0,0.5,0,0.9,0c0.3,0,0.6,0,1,0c0.3,0,0.7,0,1.1,0c0.4,0,0.7,0,1.1,0l1.6,0c0.2,0,0.3,0.1,0.4,0.1c0,0.1,0,0.2,0,0.3Z" class="g6_22" />
<path d="M139.7,980.2c-0.1,0.2,-0.3,0.3,-0.4,0.4c-0.2,0.1,-0.4,0.2,-0.6,0.3c-0.2,0,-0.3,0.1,-0.5,0.1c-0.2,0.1,-0.5,0.1,-0.7,0.2c-0.2,0,-0.4,0,-0.6,0.1c-0.3,0,-0.5,0,-0.6,0c-0.2,0,-0.3,0,-0.5,-0.1c-0.1,0,-0.2,-0.1,-0.3,-0.3c-0.1,-0.1,-0.1,-0.2,-0.2,-0.4c0,-0.1,0,-0.3,0,-0.5c0,-0.1,0,-0.2,0,-0.3c0,-0.1,0,-0.2,0.1,-0.4c0,-0.1,0,-0.2,0.1,-0.3c0,-0.1,0,-0.2,0,-0.3c0,0,-0.1,0,-0.2,0c-0.1,0,-0.2,0,-0.2,0c-0.2,0,-0.2,0,-0.3,-0.1c-0.1,0,-0.1,-0.1,-0.1,-0.2c0,-0.1,0,-0.2,0.2,-0.3c0,0,0.1,-0.1,0.2,-0.1c0.1,0,0.2,0,0.2,0.1c0.1,-0.1,0.1,-0.1,0.2,-0.1c0.1,0,0.2,0,0.2,0c0.1,-0.3,0.2,-0.5,0.3,-0.8c0,-0.2,0.1,-0.4,0.1,-0.6c0,-0.1,0,-0.1,0,-0.2c0,0,0,-0.1,0,-0.1c-0.1,0,-0.2,0,-0.4,0.1c-0.1,0,-0.2,0.1,-0.3,0.1c-0.1,0,-0.2,0,-0.3,0C135,976.4,135,976.4,135,976.3c-0.1,-0.1,-0.1,-0.1,0,-0.2c0,-0.1,0.1,-0.2,0.2,-0.2c0.3,-0.2,0.7,-0.3,1.1,-0.3c0.3,-0.1,0.7,-0.2,1.1,-0.2c0.4,0,0.7,0,1,0c0.4,-0.1,0.7,0,0.9,0c0.2,0,0.2,0,0.3,0.1c0.1,0,0.1,0.1,0.1,0.2c0,0.1,-0.1,0.2,-0.1,0.2c-0.1,0.1,-0.2,0.1,-0.3,0.1c-0.4,0,-0.8,0,-1.3,0c-0.4,0,-0.9,0.1,-1.3,0.2c0.1,0,0.1,0,0.1,0.1c0,0.1,0,0.1,0,0.2c0,0.2,-0.1,0.4,-0.1,0.7c-0.1,0.2,-0.2,0.5,-0.3,0.7c0.3,0,0.5,-0.1,0.7,-0.1c0.3,0,0.5,-0.1,0.8,-0.1c0.2,-0.1,0.4,-0.1,0.6,-0.1c0.2,-0.1,0.4,-0.1,0.5,-0.2c0.1,0,0.2,0,0.3,0.1c0,0,0.1,0.1,0.1,0.2c0,0.1,0,0.2,-0.1,0.2c0,0.1,-0.1,0.2,-0.2,0.2c-0.1,0,-0.3,0.1,-0.6,0.1c-0.2,0.1,-0.5,0.1,-0.7,0.2c-0.3,0,-0.6,0,-0.9,0.1c-0.2,0,-0.5,0.1,-0.7,0.1c0,0.3,-0.1,0.5,-0.2,0.7c0,0.3,0,0.5,0,0.7c-0.1,0.1,0,0.2,0,0.3c0,0.1,0,0.2,0.1,0.2c0.1,0.1,0.2,0.1,0.3,0.1c0.3,0,0.6,0,1,-0.1c0.3,-0.1,0.7,-0.1,1.1,-0.3c0.1,0,0.2,-0.1,0.4,-0.1c0.1,-0.1,0.2,-0.2,0.3,-0.3c0.1,-0.1,0.1,-0.1,0.2,-0.1c0.1,0,0.2,0,0.3,0.1c0,0,0,0.1,0.1,0.2c0,0.1,0,0.2,-0.1,0.2Z" class="g6_22" />
<path d="M141.3,978.3c0.1,0.1,0.1,0.2,0.1,0.2c0.1,0.1,0.1,0.2,0.1,0.2c0,0.1,0,0.2,-0.1,0.2c0,0.1,0,0.1,-0.1,0.2c-0.1,0.1,-0.2,0.1,-0.3,0.1c-0.1,0,-0.2,-0.1,-0.3,-0.2c-0.1,-0.1,-0.1,-0.2,-0.1,-0.3c0,-0.2,0,-0.3,0.1,-0.4c0.1,0,0.2,0,0.3,0c0.1,0,0.2,0,0.3,0Zm0,2.5c-0.1,0.1,-0.2,0.1,-0.4,0.1c-0.1,0,-0.2,-0.1,-0.3,-0.2c0,0,-0.1,-0.2,-0.1,-0.3c0,-0.1,0.1,-0.2,0.2,-0.3c0.1,-0.1,0.2,-0.1,0.3,-0.1c0.1,0,0.2,0,0.3,0.1c0,0,0.1,0.1,0.1,0.1c0,0.1,0,0.2,0,0.2c0,0.1,0,0.2,0,0.2c0,0.1,-0.1,0.2,-0.1,0.2Z" class="g6_22" />
<path d="M96.8,990.2c0.1,0.1,0.1,0.2,0.1,0.4c0,0.1,-0.1,0.2,-0.3,0.3c-0.3,0.2,-0.6,0.4,-1,0.5c-0.5,0.2,-0.9,0.3,-1.3,0.4c-0.5,0.1,-1,0.2,-1.4,0.2c-0.5,0.1,-0.9,0.1,-1.4,0.1c-0.3,0,-0.6,-0.1,-0.8,-0.1c-0.2,-0.1,-0.4,-0.2,-0.5,-0.3c-0.2,-0.2,-0.3,-0.5,-0.3,-0.8c0,-0.4,0.1,-0.8,0.2,-1.4c0.4,-1.3,0.7,-2.4,0.9,-3.5c0.2,-1.1,0.3,-2,0.4,-2.8c0,-0.1,0.1,-0.3,0.2,-0.3c0.1,-0.1,0.3,-0.1,0.4,-0.1c0.1,0,0.2,0,0.3,0.1c0.1,0.1,0.2,0.2,0.1,0.4c0,0.9,-0.2,2,-0.4,3.1c-0.2,1.1,-0.5,2.2,-0.8,3.4c-0.1,0.3,-0.2,0.5,-0.2,0.7c0,0.2,0,0.3,0.1,0.4c0.1,0,0.2,0.1,0.3,0.1c0.1,0.1,0.2,0.1,0.4,0.1c0.4,0,0.8,-0.1,1.2,-0.1c0.4,-0.1,0.8,-0.2,1.2,-0.2c0.4,-0.1,0.8,-0.2,1.1,-0.4c0.3,-0.1,0.6,-0.2,0.8,-0.3C96.3,990,96.4,990,96.5,990c0.1,0,0.2,0.1,0.3,0.2Z" class="g6_22" />
<path d="M104.7,990.4c0.1,0.1,0.1,0.2,0.1,0.3c0,0.2,-0.1,0.3,-0.3,0.4c-0.2,0.1,-0.4,0.2,-0.7,0.3c-0.3,0.1,-0.6,0.2,-1,0.3c-0.3,0,-0.6,0,-0.9,-0.1c-0.3,-0.1,-0.6,-0.3,-0.7,-0.5C101.1,991,101,990.8,101,990.7c0,-0.1,-0.1,-0.3,-0.1,-0.5c-0.2,0.2,-0.4,0.5,-0.6,0.7c-0.3,0.3,-0.6,0.5,-0.8,0.6c-0.4,0.3,-0.7,0.4,-1.1,0.5c-0.3,0.1,-0.6,0.1,-0.9,0c-0.3,-0.1,-0.5,-0.2,-0.7,-0.3c-0.2,-0.2,-0.3,-0.4,-0.4,-0.7c-0.1,-0.2,-0.2,-0.5,-0.2,-0.8c0,-0.3,0,-0.6,0,-0.9c0.1,-0.3,0.1,-0.6,0.2,-0.9c0,-0.2,0.1,-0.5,0.1,-0.6c0.1,-0.1,0.2,-0.3,0.3,-0.3c0.1,-0.1,0.2,-0.1,0.3,-0.1c0.2,0,0.3,0,0.4,0.1c0.1,0.1,0.1,0.3,0,0.5c0,0.2,-0.1,0.4,-0.1,0.6c-0.1,0.3,-0.1,0.5,-0.1,0.7c-0.1,0.3,-0.1,0.5,-0.1,0.7c0,0.2,0.1,0.4,0.1,0.6c0.1,0.2,0.2,0.3,0.5,0.4c0.1,0.1,0.3,0.1,0.5,0c0.2,0,0.4,-0.1,0.6,-0.3c0.6,-0.4,1,-0.8,1.3,-1.3c0.4,-0.4,0.6,-0.9,0.8,-1.3c0,-0.1,0.1,-0.2,0.2,-0.2c0.2,-0.1,0.3,-0.1,0.4,-0.1c0.1,0.1,0.2,0.1,0.3,0.2c0.1,0.1,0.1,0.2,0.1,0.4c-0.1,0.4,-0.2,0.7,-0.2,1c0,0.4,0,0.6,0.1,0.9c0.1,0.1,0.2,0.3,0.3,0.3c0.2,0.1,0.3,0.1,0.5,0.1c0.2,-0.1,0.5,-0.1,0.8,-0.2c0.2,-0.1,0.4,-0.2,0.6,-0.3c0.1,-0.1,0.3,-0.1,0.4,-0.1c0.1,0.1,0.2,0.2,0.2,0.3Z" class="g6_22" />
<path d="M106.4,984.5c0.2,0.1,0.2,0.2,0.3,0.3c0,0.1,0.1,0.2,0.1,0.3c0,0.1,-0.1,0.3,-0.1,0.4c-0.1,0.1,-0.2,0.2,-0.3,0.3c-0.1,0.1,-0.3,0.1,-0.5,0.1c-0.2,0,-0.4,-0.1,-0.5,-0.2c-0.2,-0.2,-0.3,-0.4,-0.3,-0.6c0,-0.2,0.2,-0.4,0.4,-0.6c0.1,-0.1,0.3,-0.2,0.5,-0.2c0.1,0,0.3,0.1,0.4,0.2Zm2.7,6c0,0.1,-0.1,0.2,-0.1,0.3c-0.1,0.2,-0.3,0.2,-0.4,0.2c-0.2,0.1,-0.3,0.1,-0.5,0.2c-0.3,0,-0.5,0.1,-0.7,0.2c-0.3,0.1,-0.5,0.2,-0.8,0.3c-0.3,0,-0.5,0.1,-0.7,0.2c-0.5,0.1,-1,0.1,-1.3,0c-0.3,-0.2,-0.5,-0.5,-0.7,-1c0,-0.2,-0.1,-0.4,-0.1,-0.6c0,-0.3,0,-0.5,0.1,-0.6c0,-0.3,0,-0.5,0.1,-0.7c0,-0.2,0.1,-0.4,0.1,-0.6c0,0,0,-0.1,0,-0.1c0,-0.1,0,-0.1,0,-0.2c0,-0.1,0.1,-0.2,0.1,-0.3c0.1,-0.1,0.2,-0.2,0.3,-0.3c0,-0.1,0.1,-0.1,0.3,-0.1c0.1,0,0.2,0,0.3,0c0.1,0.1,0.2,0.1,0.3,0.2c0,0.1,0,0.2,0,0.4c-0.1,0.2,-0.2,0.4,-0.3,0.7c-0.1,0.4,-0.2,0.7,-0.2,1c0,0.1,0,0.3,0,0.4c0,0.2,0,0.3,0,0.4c0.1,0.2,0.2,0.3,0.3,0.4c0.1,0,0.3,0,0.5,0c0.2,0,0.4,-0.1,0.6,-0.2c0.2,-0.1,0.5,-0.2,0.8,-0.3c0.2,-0.1,0.5,-0.2,0.7,-0.3c0.3,0,0.5,-0.1,0.7,-0.1c0.2,0,0.3,0.1,0.4,0.2c0.1,0.1,0.1,0.2,0.2,0.3Z" class="g6_22" />
<path d="M112.5,986.7c-0.1,0.1,-0.2,0.2,-0.3,0.2c0,0.1,-0.2,0.1,-0.3,0c-0.1,0,-0.2,-0.1,-0.4,-0.2c-0.1,0,-0.2,0.1,-0.4,0.1c-0.2,0.1,-0.4,0.1,-0.7,0.2c-0.2,0.1,-0.4,0.2,-0.6,0.3c-0.2,0.1,-0.4,0.2,-0.5,0.3c-0.3,0.2,-0.4,0.3,-0.4,0.4c0,0.2,0.1,0.3,0.3,0.4c0.3,0.1,0.5,0.3,0.8,0.4c0.3,0.1,0.6,0.3,0.9,0.5c0.2,0.2,0.3,0.4,0.4,0.6c0.1,0.3,0.1,0.5,0.1,0.7c0,0.3,0,0.5,-0.1,0.8c-0.1,0.2,-0.2,0.4,-0.3,0.6c-0.2,0.4,-0.5,0.7,-0.8,1.1c-0.4,0.3,-0.8,0.5,-1.2,0.8c-0.2,0.1,-0.4,0.2,-0.7,0.2c-0.2,0,-0.4,-0.1,-0.6,-0.2c-0.2,-0.1,-0.3,-0.2,-0.3,-0.3c-0.1,-0.2,-0.1,-0.3,0,-0.5c0,-0.1,0.1,-0.2,0.3,-0.2c0.1,-0.1,0.3,-0.1,0.4,0c0.1,0.1,0.2,0.1,0.3,0.1c0.1,0,0.2,0,0.2,-0.1c0.3,-0.1,0.6,-0.4,0.9,-0.6c0.3,-0.3,0.5,-0.5,0.6,-0.8c0.1,-0.1,0.2,-0.3,0.3,-0.4c0,-0.2,0,-0.3,0,-0.4c0,-0.3,0,-0.5,-0.2,-0.6c-0.2,-0.2,-0.4,-0.3,-0.7,-0.5c-0.3,-0.1,-0.6,-0.2,-0.9,-0.4c-0.3,-0.1,-0.6,-0.3,-0.7,-0.5c-0.2,-0.2,-0.2,-0.4,-0.2,-0.6c0,-0.2,0,-0.4,0.2,-0.6c0.2,-0.2,0.4,-0.5,0.7,-0.7c0.2,-0.1,0.4,-0.2,0.6,-0.3c0.3,-0.2,0.5,-0.3,0.8,-0.4c0.2,-0.1,0.5,-0.2,0.8,-0.2c0.3,-0.1,0.5,-0.1,0.8,-0.2c0.2,0,0.4,0.1,0.5,0.1c0.1,0.1,0.3,0.2,0.3,0.3c0.1,0.1,0.2,0.2,0.2,0.3c0,0.1,-0.1,0.2,-0.1,0.3Z" class="g6_22" />
<path d="M119.8,985.6c-0.1,0.3,-0.1,0.8,-0.2,1.3c-0.1,0.5,-0.2,1.1,-0.2,1.7c0,0.6,-0.1,1.3,0,1.9c0,0.7,0,1.3,0.2,1.8c0,0.2,0,0.3,-0.1,0.4c-0.1,0.1,-0.2,0.1,-0.3,0.2c-0.1,0,-0.3,0,-0.4,-0.1c-0.1,0,-0.2,-0.2,-0.2,-0.4c-0.2,-0.6,-0.2,-1.2,-0.3,-1.9c0,-0.7,0,-1.3,0.1,-2c0,-0.6,0.1,-1.2,0.2,-1.8c0.1,-0.5,0.1,-1,0.2,-1.3c0,-0.2,0.1,-0.3,0.3,-0.3c0.1,-0.1,0.2,-0.1,0.3,0c0.1,0,0.2,0,0.3,0.1c0.1,0.1,0.1,0.2,0.1,0.4Zm5.1,0.5c0,0.3,-0.1,0.5,-0.3,0.8c-0.2,0.3,-0.5,0.5,-0.9,0.7c-0.2,0.1,-0.5,0.2,-0.7,0.3c-0.3,0.2,-0.5,0.3,-0.8,0.4c-0.3,0.2,-0.6,0.3,-0.9,0.4c-0.3,0.2,-0.5,0.3,-0.8,0.4c-0.1,0.1,-0.3,0.1,-0.4,0c-0.1,-0.1,-0.2,-0.2,-0.3,-0.3c0,-0.1,0,-0.2,0,-0.3c0,-0.1,0.1,-0.2,0.3,-0.3c0.3,-0.1,0.5,-0.3,0.8,-0.4c0.3,-0.1,0.6,-0.3,0.9,-0.4c0.2,-0.1,0.5,-0.2,0.7,-0.4c0.2,-0.1,0.4,-0.2,0.6,-0.3c0.4,-0.1,0.6,-0.3,0.6,-0.6c0,-0.1,-0.1,-0.2,-0.2,-0.4c-0.2,-0.1,-0.4,-0.2,-0.8,-0.3c-0.3,0,-0.6,-0.1,-1,-0.2c-0.3,-0.1,-0.7,-0.1,-1.1,-0.2c-0.4,-0.1,-0.8,-0.2,-1.2,-0.2c-0.3,-0.1,-0.7,-0.2,-1,-0.2c-0.4,-0.1,-0.7,-0.2,-0.9,-0.2c-0.3,-0.1,-0.4,-0.2,-0.6,-0.2c-0.1,-0.1,-0.2,-0.2,-0.2,-0.3c-0.1,-0.1,-0.1,-0.2,0,-0.4c0,-0.1,0.1,-0.2,0.2,-0.2c0.1,-0.1,0.2,-0.2,0.4,-0.2c0.1,0,0.2,0.1,0.3,0.1c0.1,0.1,0.1,0.1,0.2,0.2c0.3,0.1,0.7,0.2,1.2,0.3c0.4,0.1,0.9,0.1,1.3,0.2c0.5,0.1,1,0.2,1.4,0.3c0.5,0.1,0.9,0.2,1.3,0.3c0.7,0.1,1.1,0.4,1.4,0.7c0.3,0.3,0.5,0.6,0.5,0.9Z" class="g6_22" />
<path d="M129.2,983.5c0,0.1,0.1,0.2,0,0.3c0,0.1,-0.1,0.1,-0.2,0.2c-0.1,0.1,-0.2,0.2,-0.4,0.3c-0.2,0.1,-0.4,0.2,-0.6,0.3c-0.2,0.1,-0.4,0.2,-0.6,0.3c-0.2,0.1,-0.3,0.2,-0.5,0.2c-0.1,0.1,-0.2,0.1,-0.3,0.1c-0.1,-0.1,-0.1,-0.1,-0.2,-0.2c0,-0.1,0,-0.2,0,-0.3c0,-0.1,0.1,-0.2,0.2,-0.3c0.1,0,0.3,-0.1,0.5,-0.2c0.2,-0.1,0.3,-0.2,0.5,-0.3c0.2,-0.1,0.4,-0.2,0.6,-0.3c0.2,-0.1,0.3,-0.2,0.5,-0.2c0.1,-0.1,0.2,-0.1,0.3,-0.1c0,0,0.1,0.1,0.2,0.2Zm-1.8,4.2c0.1,-0.3,0.1,-0.4,0,-0.5c-0.1,-0.1,-0.2,-0.1,-0.3,-0.1c-0.1,0,-0.2,0.1,-0.3,0.1c-0.1,0.1,-0.3,0.2,-0.4,0.4c-0.2,0.2,-0.4,0.4,-0.6,0.7c-0.1,0.2,-0.3,0.5,-0.4,0.8c0.2,0,0.4,-0.1,0.7,-0.2c0.2,-0.1,0.4,-0.2,0.6,-0.3c0.2,-0.1,0.3,-0.3,0.4,-0.4c0.2,-0.2,0.3,-0.3,0.3,-0.5Zm2.8,2.6c0.1,0.2,0.1,0.3,0,0.4c0,0.2,-0.1,0.3,-0.3,0.3c-0.2,0.1,-0.5,0.2,-0.8,0.3c-0.3,0.2,-0.7,0.3,-1,0.4c-0.4,0.1,-0.8,0.2,-1.3,0.3c-0.4,0,-0.8,0,-1.2,0c-0.2,-0.1,-0.4,-0.1,-0.6,-0.2c-0.1,-0.1,-0.3,-0.2,-0.4,-0.3c-0.4,-0.4,-0.5,-1,-0.4,-1.7c0,-0.3,0.1,-0.7,0.3,-1c0.1,-0.3,0.2,-0.5,0.4,-0.8c0.1,-0.2,0.2,-0.4,0.4,-0.6c0.1,-0.2,0.3,-0.4,0.4,-0.5c0.1,-0.1,0.3,-0.2,0.4,-0.3c0.1,-0.1,0.2,-0.2,0.3,-0.2c0.1,-0.1,0.2,-0.1,0.4,-0.2c0.1,0,0.2,-0.1,0.4,-0.1c0.1,0,0.2,0,0.4,0c0.1,0.1,0.2,0.1,0.4,0.2c0.1,0.1,0.2,0.2,0.3,0.3c0,0.1,0.1,0.2,0.1,0.4c0,0.1,0,0.3,0,0.5c0,0.1,0,0.3,0,0.4c-0.1,0.3,-0.3,0.6,-0.5,0.9c-0.2,0.2,-0.5,0.4,-0.8,0.6c-0.3,0.2,-0.6,0.4,-0.9,0.5c-0.4,0.2,-0.7,0.2,-1,0.3c0,0.2,0,0.4,0.1,0.5c0.1,0.1,0.3,0.2,0.5,0.3c0.3,0,0.6,0,1,0c0.3,-0.1,0.7,-0.2,1,-0.3c0.4,-0.1,0.7,-0.2,1,-0.3c0.4,-0.1,0.6,-0.2,0.8,-0.3c0.2,-0.1,0.3,0,0.4,0c0.1,0.1,0.1,0.2,0.2,0.2Z" class="g6_22" />
<path d="M135.2,988.7c-0.1,0.1,-0.1,0.1,-0.2,0.2c-0.2,0,-0.3,0,-0.4,-0.1c-0.1,0,-0.2,-0.1,-0.3,-0.1c0,0,-0.1,0,-0.2,0c-0.1,0,-0.3,0.1,-0.5,0.1c-0.2,0.1,-0.4,0.2,-0.6,0.3c-0.2,0.1,-0.4,0.2,-0.6,0.3c-0.3,0.1,-0.5,0.2,-0.6,0.3c-0.2,0.1,-0.3,0.2,-0.4,0.3c-0.1,0.1,-0.2,0.2,-0.3,0.3c0,0.1,-0.1,0.2,-0.1,0.4c0,0.1,-0.1,0.2,-0.1,0.3c0,0.2,-0.1,0.3,-0.1,0.4c-0.1,0.1,-0.3,0.1,-0.4,0.1c-0.1,0,-0.2,-0.1,-0.3,-0.1c-0.1,-0.1,-0.2,-0.3,-0.2,-0.4c0,-0.2,0,-0.4,0,-0.6l0,-0.7c0,-0.2,0,-0.5,0,-0.7c0,-0.2,0.1,-0.4,0.1,-0.5c-0.1,-0.1,-0.1,-0.1,-0.1,-0.1c0,-0.1,0,-0.1,0,-0.2C130,988.1,130,988,130,988c0.1,-0.1,0.1,-0.2,0.1,-0.3c0.1,-0.1,0.2,-0.2,0.3,-0.2c0.1,-0.1,0.2,-0.1,0.3,0c0.1,0,0.2,0,0.3,0.1c0.1,0.1,0.1,0.2,0.1,0.3c0,0.1,-0.1,0.2,-0.1,0.3c0,0.1,0,0.2,0,0.4c0,0.1,-0.1,0.2,-0.1,0.3c0,0.1,0,0.2,0,0.3c0.1,-0.1,0.2,-0.1,0.2,-0.2c0.1,0,0.1,-0.1,0.2,-0.1c0.2,-0.2,0.4,-0.3,0.7,-0.4c0.3,-0.2,0.5,-0.3,0.8,-0.4c0.3,-0.1,0.5,-0.2,0.8,-0.3c0.3,-0.1,0.5,-0.1,0.7,-0.1c0.2,0,0.3,0,0.5,0.1c0.1,0,0.2,0.1,0.3,0.1c0.1,0.1,0.2,0.2,0.2,0.4c0,0.1,0,0.2,-0.1,0.4Z" class="g6_22" />
<path d="M138.6,987.7c0.1,-0.3,0,-0.4,-0.1,-0.5c0,-0.1,-0.1,-0.1,-0.2,-0.1c-0.1,0,-0.2,0.1,-0.3,0.1c-0.1,0.1,-0.3,0.2,-0.4,0.4c-0.2,0.2,-0.4,0.4,-0.6,0.7c-0.1,0.2,-0.3,0.5,-0.4,0.8c0.2,0,0.4,-0.1,0.7,-0.2c0.2,-0.1,0.4,-0.2,0.6,-0.3c0.2,-0.1,0.3,-0.3,0.4,-0.4c0.2,-0.2,0.3,-0.3,0.3,-0.5Zm2.8,2.6c0.1,0.2,0.1,0.3,0,0.4c0,0.2,-0.1,0.3,-0.3,0.3c-0.2,0.1,-0.5,0.2,-0.8,0.3c-0.3,0.1,-0.7,0.3,-1.1,0.4c-0.3,0.1,-0.7,0.2,-1.2,0.2c-0.4,0.1,-0.8,0.1,-1.2,0c-0.5,0,-0.8,-0.2,-1,-0.4c-0.4,-0.4,-0.5,-1,-0.4,-1.7c0,-0.3,0.1,-0.7,0.2,-1c0.2,-0.3,0.3,-0.5,0.4,-0.8c0.2,-0.2,0.3,-0.4,0.5,-0.6c0.1,-0.2,0.3,-0.4,0.4,-0.5c0.1,-0.1,0.2,-0.2,0.4,-0.3c0.1,-0.1,0.2,-0.2,0.3,-0.2c0.1,-0.1,0.2,-0.1,0.4,-0.2c0.1,0,0.2,-0.1,0.4,-0.1c0.1,0,0.2,0,0.4,0c0.1,0.1,0.2,0.1,0.4,0.2c0.1,0.1,0.2,0.2,0.3,0.3c0,0.1,0.1,0.2,0.1,0.4c0,0.1,0,0.3,0,0.5c0,0.1,0,0.3,0,0.4c-0.1,0.3,-0.3,0.6,-0.5,0.9c-0.2,0.2,-0.5,0.4,-0.8,0.6c-0.3,0.2,-0.6,0.4,-0.9,0.5c-0.4,0.2,-0.7,0.2,-1,0.3c0,0.2,0,0.4,0.1,0.5c0.1,0.1,0.3,0.2,0.4,0.3c0.4,0,0.7,0,1,0c0.4,-0.1,0.8,-0.2,1.1,-0.3c0.4,-0.1,0.7,-0.2,1,-0.3c0.4,-0.1,0.6,-0.2,0.8,-0.3c0.2,-0.1,0.3,0,0.4,0c0.1,0.1,0.1,0.2,0.2,0.2Z" class="g6_22" />
<path d="M146.2,991c0,0.1,0,0.2,-0.1,0.4c0,0.1,-0.1,0.2,-0.3,0.2c-0.2,0.1,-0.5,0.2,-0.9,0.3c-0.4,0,-0.8,0.1,-1.2,0.1c-0.5,0.1,-0.9,0.1,-1.3,0.1c-0.5,0,-0.8,0,-1.1,-0.1c-0.3,0,-0.6,-0.2,-0.7,-0.5c0,-0.1,0,-0.2,0,-0.4c0.1,-0.1,0.2,-0.3,0.3,-0.4c0.1,-0.2,0.3,-0.4,0.5,-0.6c0.2,-0.2,0.4,-0.4,0.6,-0.6c0.1,-0.2,0.3,-0.3,0.5,-0.5c0.1,-0.1,0.3,-0.2,0.4,-0.3c0.2,-0.2,0.2,-0.3,0.2,-0.4c0,-0.1,-0.1,-0.2,-0.3,-0.2c-0.3,0,-0.6,0,-0.9,0c-0.3,0,-0.6,0,-0.7,-0.1c-0.2,0,-0.3,0,-0.4,-0.1c-0.1,-0.1,-0.2,-0.2,-0.2,-0.4c0,-0.1,0.1,-0.3,0.3,-0.4c0.1,-0.1,0.2,-0.1,0.3,-0.1c0.2,0,0.3,0,0.4,0.1c0.1,0,0.2,0,0.4,0c0.1,0,0.2,0,0.4,0.1c0.1,0,0.3,0,0.4,0c0.2,0,0.3,0,0.4,0c0.3,0,0.5,0,0.7,0.1c0.2,0.1,0.4,0.3,0.4,0.5c0.1,0.1,0.1,0.4,0,0.6c0,0.2,-0.2,0.5,-0.5,0.7c-0.1,0.1,-0.2,0.2,-0.3,0.4c-0.2,0.1,-0.3,0.2,-0.5,0.4c-0.1,0.1,-0.3,0.3,-0.5,0.4c-0.1,0.2,-0.2,0.3,-0.4,0.5c0,0.1,-0.1,0.1,0,0.2c0,0,0.1,0.1,0.2,0.1c0.1,0,0.4,0,0.7,0c0.2,0,0.5,-0.1,0.9,-0.1c0.3,0,0.6,-0.1,0.9,-0.1c0.3,-0.1,0.6,-0.1,0.8,-0.2c0.1,0,0.3,0,0.4,0c0.1,0.1,0.2,0.2,0.2,0.3Z" class="g6_22" />
<path d="M94.9,1008.6c0,0.1,0,0.2,-0.1,0.3c0,0.1,-0.1,0.1,-0.2,0.2c-0.2,0.3,-0.5,0.5,-0.7,0.9c-0.2,0.3,-0.5,0.6,-0.7,0.9c-0.3,0.4,-0.5,0.7,-0.8,1c-0.2,0.4,-0.5,0.7,-0.7,1c-0.1,0,-0.1,0.1,-0.2,0.1c0,0,-0.1,0,-0.2,0c-0.1,0,-0.1,0,-0.2,0c-0.1,0,-0.1,-0.1,-0.2,-0.2c-0.1,-0.2,-0.3,-0.5,-0.5,-0.8c-0.1,-0.4,-0.3,-0.7,-0.5,-1c-0.1,-0.4,-0.3,-0.7,-0.5,-1c-0.1,-0.4,-0.2,-0.7,-0.3,-0.9C89,1009,89,1008.9,89,1008.8c0.1,-0.1,0.2,-0.2,0.3,-0.2l0.1,0c0,0,0.1,0,0.1,0.1c0.1,0,0.2,0.1,0.2,0.1c0.3,0.7,0.5,1.2,0.8,1.7c0.2,0.6,0.5,1.1,0.8,1.5c0,0.1,0.1,0.1,0.2,0c0.1,-0.1,0.3,-0.3,0.5,-0.6c0.1,-0.2,0.3,-0.4,0.5,-0.7c0.2,-0.2,0.4,-0.4,0.5,-0.7c0.2,-0.2,0.4,-0.5,0.5,-0.7c0.2,-0.2,0.3,-0.4,0.5,-0.6c0.1,-0.1,0.2,-0.3,0.3,-0.4c0.1,-0.2,0.3,-0.2,0.5,-0.1c0,0.1,0.1,0.1,0.1,0.2c0,0.1,0,0.2,0,0.2Z" class="g6_22" />
<path d="M99.3,1008c0,0.1,0,0.1,-0.1,0.2c0,0,-0.1,0.1,-0.2,0.1c-0.1,0,-0.3,0,-0.4,0l-0.5,0c-0.1,0,-0.2,0,-0.4,0c-0.1,0,-0.2,0,-0.3,0c0,0.3,0,0.6,0,0.9c-0.1,0.3,-0.1,0.7,-0.1,1c0,0.3,0,0.7,-0.1,1c0,0.4,0,0.7,0,1c0.2,0,0.4,0,0.6,0l0.6,0c0.1,0,0.2,0,0.3,0c0,0.1,0,0.2,0,0.3c0,0,0,0.1,0,0.2c-0.1,0.1,-0.2,0.1,-0.3,0.1c-0.2,0,-0.3,0,-0.6,0c-0.2,0,-0.5,0,-0.7,0c0,0.1,-0.1,0.1,-0.1,0.1c-0.1,0.1,-0.1,0.1,-0.2,0.1c0,0,-0.1,0,-0.1,-0.1c-0.1,0,-0.1,0,-0.1,-0.1c-0.2,0,-0.4,0,-0.6,0c-0.1,0,-0.3,0,-0.5,0c-0.1,0,-0.2,0,-0.2,-0.1c-0.1,0,-0.1,-0.1,-0.1,-0.2c0,-0.1,0,-0.1,0.1,-0.2c0,-0.1,0.1,-0.1,0.2,-0.1l0.5,0c0.2,0,0.3,0,0.5,0c0,-0.3,0.1,-0.7,0.1,-1c0,-0.4,0,-0.7,0,-1c0.1,-0.4,0.1,-0.7,0.1,-1c0,-0.3,0,-0.6,0,-0.9c-0.2,0,-0.3,0,-0.4,0c-0.2,0,-0.3,0,-0.5,0c0,0,-0.1,0.1,-0.2,0.1c-0.1,0,-0.1,0,-0.2,0c-0.1,-0.1,-0.2,-0.1,-0.3,-0.2c0,0,0,-0.1,0,-0.2c0,-0.1,0,-0.1,0,-0.2c0.1,-0.1,0.2,-0.1,0.3,-0.1c0.1,-0.1,0.2,-0.1,0.3,-0.1c0.1,0,0.2,0,0.3,0l0.7,0c0.1,0,0.1,-0.1,0.1,-0.1c0.1,0,0.1,0,0.2,0c0.1,0,0.1,0,0.2,0c0,0,0,0.1,0,0.1c0.3,0,0.6,0.1,0.9,0.1c0.3,0,0.6,0,0.8,0c0.2,0,0.2,0,0.3,0.1c0.1,0,0.1,0.1,0.1,0.2Z" class="g6_22" />
<path d="M103.9,1012.7c0,0.1,0,0.2,0,0.3c-0.1,0.1,-0.2,0.1,-0.3,0.2c-0.6,0.1,-1.1,0.2,-1.6,0.2c-0.5,0,-0.9,0,-1.3,-0.1c-0.4,0,-0.7,-0.2,-0.9,-0.3c-0.2,-0.2,-0.4,-0.3,-0.5,-0.6c0,-0.1,-0.1,-0.3,-0.1,-0.4c0,-0.2,0,-0.4,0,-0.6c0,-0.2,0.1,-0.4,0.1,-0.5c0.1,-0.2,0.2,-0.4,0.2,-0.6c0.2,-0.3,0.3,-0.6,0.6,-0.9c0.2,-0.3,0.4,-0.6,0.7,-0.9c0.3,-0.3,0.6,-0.5,0.9,-0.8c0.3,-0.2,0.5,-0.4,0.8,-0.5c0.1,-0.1,0.2,-0.1,0.3,-0.1c0.1,0,0.2,0,0.2,0.1c0.1,0,0.1,0.1,0.1,0.2c0,0.1,0,0.2,-0.1,0.3c-0.1,0.1,-0.1,0.2,-0.2,0.2c0,0,-0.1,0,-0.2,0c-0.2,0.1,-0.5,0.3,-0.7,0.5c-0.2,0.2,-0.5,0.4,-0.7,0.6c-0.2,0.3,-0.4,0.5,-0.6,0.8c-0.2,0.2,-0.4,0.5,-0.5,0.8c0,0.1,0,0.3,-0.1,0.4c0,0.1,-0.1,0.3,-0.1,0.4c0,0.1,0,0.3,0,0.4c0,0.1,0,0.2,0.1,0.3c0,0.2,0.1,0.3,0.3,0.4c0.1,0.1,0.3,0.1,0.5,0.2c0.2,0,0.4,0,0.5,0c0.2,0,0.4,0,0.6,0c0.3,0,0.5,0,0.7,0c0.3,-0.1,0.6,-0.1,0.9,-0.2c0.2,-0.1,0.3,0,0.4,0.2Z" class="g6_22" />
<path d="M108.9,1012.3c-0.1,0.2,-0.3,0.3,-0.5,0.4c-0.1,0.1,-0.3,0.2,-0.5,0.2c-0.2,0.1,-0.3,0.1,-0.5,0.2c-0.3,0.1,-0.5,0.1,-0.7,0.1c-0.2,0.1,-0.4,0.1,-0.7,0.1c-0.2,0.1,-0.4,0.1,-0.6,0.1c-0.1,0,-0.3,0,-0.4,-0.1c-0.1,0,-0.2,-0.1,-0.3,-0.3c-0.1,-0.1,-0.1,-0.2,-0.2,-0.4c0,-0.1,0,-0.3,0,-0.5c0,-0.1,0,-0.2,0,-0.3c0,-0.1,0,-0.3,0.1,-0.4c0,-0.1,0,-0.2,0,-0.3c0.1,-0.2,0.1,-0.3,0.1,-0.3c-0.1,0,-0.1,0,-0.2,0c-0.1,0,-0.2,0,-0.3,0c-0.1,0,-0.2,0,-0.2,-0.1c-0.1,0,-0.1,-0.1,-0.1,-0.2c0,-0.1,0,-0.2,0.2,-0.3c0,-0.1,0.1,-0.1,0.2,-0.1c0.1,0,0.1,0,0.2,0c0.1,0,0.1,0,0.2,0c0.1,0,0.1,0,0.2,0c0.1,-0.3,0.2,-0.5,0.2,-0.8c0.1,-0.3,0.2,-0.5,0.2,-0.6c0,-0.1,0,-0.2,0,-0.2c0,-0.1,0,-0.1,0,-0.1c-0.1,0,-0.3,0,-0.4,0.1c-0.1,0,-0.2,0,-0.4,0.1c-0.1,0,-0.2,0,-0.2,0c-0.1,-0.1,-0.1,-0.1,-0.2,-0.2c0,-0.1,0,-0.2,0.1,-0.3c0,0,0.1,-0.1,0.2,-0.2c0.3,-0.1,0.7,-0.2,1.1,-0.3c0.3,0,0.7,-0.1,1.1,-0.1c0.3,-0.1,0.7,-0.1,1,-0.1c0.4,0,0.7,0,0.9,0c0.1,0,0.2,0.1,0.3,0.1c0.1,0.1,0.1,0.2,0.1,0.3c0,0.1,-0.1,0.1,-0.1,0.2c-0.1,0.1,-0.2,0.1,-0.3,0.1c-0.4,0,-0.8,0,-1.3,0c-0.4,0,-0.9,0.1,-1.3,0.1c0.1,0.1,0.1,0.1,0.1,0.2c0,0,0,0.1,0,0.2c0,0.2,-0.1,0.4,-0.2,0.6c0,0.3,-0.1,0.5,-0.2,0.8c0.3,-0.1,0.5,-0.1,0.7,-0.1c0.3,-0.1,0.5,-0.1,0.7,-0.1c0.3,-0.1,0.5,-0.1,0.7,-0.2c0.2,0,0.4,0,0.5,-0.1c0.1,0,0.2,0,0.2,0.1c0.1,0,0.1,0.1,0.2,0.2c0,0,0,0.1,-0.1,0.2c0,0.1,-0.1,0.1,-0.2,0.2c-0.1,0,-0.3,0,-0.6,0.1c-0.2,0,-0.5,0.1,-0.8,0.1c-0.2,0.1,-0.5,0.1,-0.8,0.2c-0.2,0,-0.5,0.1,-0.7,0.1c-0.1,0.2,-0.1,0.5,-0.2,0.7c0,0.2,-0.1,0.5,-0.1,0.7c0,0.1,0,0.2,0.1,0.3c0,0.1,0,0.2,0.1,0.2c0,0.1,0.1,0.1,0.3,0.1c0.2,0,0.6,0,0.9,-0.1c0.4,-0.1,0.8,-0.2,1.1,-0.3c0.2,0,0.3,-0.1,0.4,-0.2c0.2,0,0.3,-0.1,0.4,-0.2c0,-0.1,0.1,-0.1,0.2,-0.1c0.1,0,0.2,0,0.2,0c0.1,0.1,0.1,0.2,0.2,0.2c0,0.1,-0.1,0.2,-0.1,0.3Z" class="g6_22" />
<path d="M111.3,1008.8c-0.1,0.2,-0.1,0.5,-0.2,0.8c0,0.4,-0.1,0.8,-0.1,1.2c0,0.4,0,0.8,0,1.2c0,0.4,0.1,0.8,0.1,1.2c0.1,0.1,0,0.2,0,0.2c-0.1,0.1,-0.1,0.1,-0.2,0.1c-0.1,0.1,-0.2,0.1,-0.3,0c0,0,-0.1,-0.1,-0.1,-0.2c-0.1,-0.4,-0.2,-0.8,-0.2,-1.3c0,-0.4,0,-0.9,0.1,-1.3c0,-0.4,0,-0.8,0.1,-1.2c0,-0.3,0.1,-0.6,0.1,-0.8c0.1,-0.2,0.1,-0.2,0.2,-0.3c0.1,0,0.2,0,0.3,0c0,0,0.1,0.1,0.1,0.1c0.1,0.1,0.1,0.2,0.1,0.3Zm3.3,0.3c0.1,0.2,0,0.4,-0.2,0.5c-0.1,0.2,-0.3,0.4,-0.6,0.5c-0.1,0.1,-0.3,0.1,-0.4,0.2c-0.2,0.1,-0.4,0.2,-0.6,0.3c-0.1,0.1,-0.3,0.1,-0.5,0.2c-0.2,0.1,-0.4,0.2,-0.5,0.3c-0.1,0,-0.2,0,-0.3,0c-0.1,-0.1,-0.1,-0.1,-0.2,-0.2c0,-0.1,0,-0.2,0,-0.2c0,-0.1,0.1,-0.2,0.2,-0.2c0.2,-0.1,0.3,-0.2,0.5,-0.3c0.2,-0.1,0.4,-0.2,0.6,-0.2c0.1,-0.1,0.3,-0.2,0.5,-0.3c0.1,0,0.3,-0.1,0.4,-0.2c0.2,-0.1,0.4,-0.2,0.3,-0.4c0,-0.1,0,-0.1,-0.1,-0.2c-0.1,-0.1,-0.3,-0.2,-0.5,-0.2c-0.2,-0.1,-0.4,-0.1,-0.6,-0.2c-0.3,0,-0.5,-0.1,-0.8,-0.1c-0.2,-0.1,-0.5,-0.1,-0.7,-0.2c-0.3,0,-0.5,-0.1,-0.8,-0.1c-0.2,0,-0.4,-0.1,-0.5,-0.1c-0.2,-0.1,-0.3,-0.1,-0.4,-0.2c-0.1,0,-0.2,-0.1,-0.2,-0.1c0,-0.1,0,-0.2,0,-0.3c0,0,0.1,-0.1,0.2,-0.2c0,0,0.1,0,0.2,0c0.1,0,0.2,0,0.2,0c0.1,0,0.1,0.1,0.2,0.1c0.2,0.1,0.5,0.2,0.8,0.2c0.2,0.1,0.5,0.1,0.8,0.2c0.4,0,0.7,0.1,1,0.2c0.3,0,0.5,0.1,0.8,0.1c0.4,0.2,0.7,0.3,0.9,0.5c0.2,0.2,0.3,0.4,0.3,0.6Z" class="g6_22" />
<path d="M118.6,1009.3c0,-0.1,-0.1,-0.3,-0.3,-0.4c-0.2,-0.1,-0.4,-0.2,-0.8,-0.4c-0.3,-0.1,-0.7,-0.2,-1.1,-0.3c0,0.1,-0.1,0.2,-0.1,0.3c0,0.2,0,0.3,-0.1,0.5c0,0.2,0,0.4,0,0.7c0,0.2,0,0.5,0,0.7c0.2,0,0.3,-0.1,0.5,-0.2c0.2,0,0.4,-0.1,0.6,-0.2c0.2,0,0.4,-0.1,0.6,-0.2c0.1,0,0.3,-0.1,0.4,-0.2c0.2,-0.1,0.3,-0.2,0.3,-0.3Zm1.3,3.9c-0.1,0.1,-0.1,0.2,-0.2,0.2c0,0.1,-0.1,0.1,-0.2,0.1c-0.2,-0.1,-0.5,-0.2,-0.8,-0.3c-0.3,-0.1,-0.5,-0.2,-0.8,-0.3c-0.3,-0.2,-0.6,-0.3,-0.9,-0.4c-0.3,-0.2,-0.6,-0.3,-0.8,-0.5c0,0.1,0,0.2,0,0.4c0,0.1,0,0.2,0,0.3c0,0.1,0,0.2,0,0.3c0,0.1,0,0.2,0,0.3c0,0.1,-0.1,0.2,-0.1,0.2c-0.1,0.1,-0.2,0.1,-0.3,0.1c0,0,-0.1,0,-0.2,-0.1c-0.1,-0.1,-0.1,-0.1,-0.1,-0.3c0,-0.2,0,-0.5,0,-0.8c0,-0.3,0,-0.5,0,-0.8c-0.1,-0.1,-0.2,-0.3,-0.2,-0.5c0,-0.1,0.1,-0.3,0.3,-0.5l0,-0.6c0,-0.3,0,-0.5,0,-0.7c0,-0.3,0,-0.5,0,-0.7c0.1,-0.2,0.1,-0.4,0.2,-0.6c-0.1,0,-0.2,0,-0.4,-0.1c-0.1,0,-0.2,0,-0.3,0l-0.1,0c-0.1,0,-0.1,0,-0.2,-0.1c-0.1,0,-0.1,0,-0.2,-0.1c0,0,-0.1,0,-0.1,-0.1c-0.1,0,-0.1,-0.1,-0.1,-0.2c0,-0.1,0,-0.1,0,-0.2c0.1,-0.1,0.2,-0.1,0.4,-0.1c0.1,0,0.1,0,0.2,0c0,0,0.1,0.1,0.1,0.1c0.3,0.1,0.7,0.1,1,0.2c0.3,0.1,0.6,0.2,0.9,0.3c0.4,0.1,0.6,0.2,0.9,0.3c0.3,0.1,0.6,0.2,0.8,0.4c0.5,0.3,0.8,0.6,0.8,0.9c0,0.3,-0.3,0.6,-0.9,0.9c-0.1,0.1,-0.3,0.1,-0.5,0.2c-0.2,0.1,-0.4,0.2,-0.6,0.2c-0.3,0.1,-0.5,0.2,-0.7,0.3c-0.2,0,-0.4,0.1,-0.5,0.2c0,0,-0.1,0.1,-0.1,0.1c0,0,0,0.1,0,0.1c0.2,0.1,0.5,0.3,0.8,0.4c0.3,0.2,0.6,0.3,0.9,0.5c0.3,0.1,0.6,0.2,0.9,0.3c0.3,0.1,0.6,0.2,0.8,0.3c0.2,0,0.2,0.1,0.3,0.2c0,0.1,0,0.1,0,0.2Z" class="g6_22" />
<path d="M124.7,1012.3c-0.2,0.2,-0.3,0.3,-0.5,0.4c-0.1,0.1,-0.3,0.2,-0.5,0.2c-0.2,0.1,-0.4,0.1,-0.6,0.2c-0.2,0.1,-0.4,0.1,-0.6,0.1c-0.2,0.1,-0.4,0.1,-0.7,0.1c-0.2,0.1,-0.4,0.1,-0.6,0.1c-0.1,0,-0.3,0,-0.4,-0.1c-0.1,0,-0.2,-0.1,-0.3,-0.3c-0.1,-0.1,-0.1,-0.2,-0.2,-0.4c0,-0.1,0,-0.3,0,-0.5c0,-0.1,0,-0.2,0,-0.3c0,-0.1,0,-0.3,0,-0.4c0.1,-0.1,0.1,-0.2,0.1,-0.3c0,-0.2,0.1,-0.3,0.1,-0.3c-0.1,0,-0.2,0,-0.3,0c-0.1,0,-0.1,0,-0.2,0c-0.1,0,-0.2,0,-0.2,-0.1c-0.1,0,-0.1,-0.1,-0.2,-0.2c0,-0.1,0.1,-0.2,0.2,-0.3c0.1,-0.1,0.2,-0.1,0.3,-0.1c0,0,0.1,0,0.2,0c0,0,0.1,0,0.2,0c0.1,0,0.1,0,0.2,0c0.1,-0.3,0.2,-0.5,0.2,-0.8c0.1,-0.3,0.1,-0.5,0.2,-0.6c0,-0.1,0,-0.2,0,-0.2c0,-0.1,0,-0.1,-0.1,-0.1c-0.1,0,-0.2,0,-0.3,0.1c-0.1,0,-0.3,0,-0.4,0.1c-0.1,0,-0.2,0,-0.2,0c-0.1,-0.1,-0.2,-0.1,-0.2,-0.2c0,-0.1,0,-0.2,0,-0.3c0.1,0,0.2,-0.1,0.3,-0.2c0.3,-0.1,0.7,-0.2,1,-0.3c0.4,0,0.8,-0.1,1.2,-0.1c0.3,-0.1,0.7,-0.1,1,-0.1c0.3,0,0.6,0,0.9,0c0.1,0,0.2,0.1,0.3,0.1c0,0.1,0.1,0.2,0,0.3c0,0.1,0,0.1,0,0.2c-0.1,0.1,-0.2,0.1,-0.3,0.1c-0.4,0,-0.9,0,-1.3,0c-0.5,0,-0.9,0.1,-1.3,0.1c0,0.1,0.1,0.1,0.1,0.2c0,0,0,0.1,0,0.2c-0.1,0.2,-0.1,0.4,-0.2,0.6c0,0.3,-0.1,0.5,-0.2,0.8c0.2,-0.1,0.5,-0.1,0.7,-0.1c0.3,-0.1,0.5,-0.1,0.7,-0.1c0.2,-0.1,0.5,-0.1,0.7,-0.2c0.2,0,0.4,0,0.5,-0.1c0.1,0,0.2,0,0.2,0.1c0.1,0,0.1,0.1,0.1,0.2c0,0,0,0.1,0,0.2c0,0.1,-0.1,0.1,-0.2,0.2c-0.2,0,-0.4,0,-0.6,0.1c-0.2,0,-0.5,0.1,-0.8,0.1c-0.2,0.1,-0.5,0.1,-0.8,0.2c-0.3,0,-0.5,0.1,-0.7,0.1c-0.1,0.2,-0.1,0.5,-0.2,0.7c0,0.2,-0.1,0.5,-0.1,0.7c0,0.1,0,0.2,0,0.3c0.1,0.1,0.1,0.2,0.1,0.2c0.1,0.1,0.2,0.1,0.4,0.1c0.2,0,0.5,0,0.9,-0.1c0.4,-0.1,0.8,-0.2,1.1,-0.3c0.2,0,0.3,-0.1,0.4,-0.2c0.2,0,0.3,-0.1,0.4,-0.2c0,-0.1,0.1,-0.1,0.2,-0.1c0.1,0,0.2,0,0.2,0c0.1,0.1,0.1,0.2,0.1,0.2c0.1,0.1,0,0.2,0,0.3Z" class="g6_22" />
<path d="M128.4,1006c0.1,0.1,0.1,0.3,0,0.5c-0.1,0.1,-0.3,0.2,-0.5,0.4c-0.2,0.2,-0.4,0.4,-0.6,0.6c-0.3,0.2,-0.5,0.4,-0.8,0.6c-0.2,0.2,-0.4,0.4,-0.6,0.6c-0.2,0.3,-0.4,0.5,-0.4,0.7c0,0.2,0.1,0.4,0.4,0.7c0.1,0,0.1,0.1,0.3,0.2c0.1,0.1,0.2,0.2,0.3,0.4c0.2,0.1,0.3,0.2,0.4,0.3c0.1,0.1,0.2,0.2,0.3,0.3c0.4,0.4,0.6,0.8,0.6,1.1c0,0.2,0,0.3,-0.1,0.5c0,0.1,-0.1,0.3,-0.2,0.4c-0.1,0.1,-0.2,0.3,-0.4,0.4c-0.1,0.1,-0.2,0.2,-0.3,0.3c-0.1,0.1,-0.3,0.1,-0.4,0.2c-0.1,0.1,-0.2,0.1,-0.3,0.2c-0.1,0,-0.2,0,-0.2,0c-0.1,0,-0.2,-0.1,-0.2,-0.2c-0.1,0,-0.1,-0.1,-0.1,-0.2c0,-0.1,0.1,-0.2,0.2,-0.2c0.1,-0.1,0.2,-0.1,0.3,-0.2c0.1,0,0.2,-0.1,0.3,-0.2c0.1,0,0.2,-0.1,0.3,-0.2c0.1,-0.1,0.2,-0.2,0.2,-0.3c0.2,-0.1,0.2,-0.3,0.2,-0.5c0,-0.2,-0.1,-0.4,-0.4,-0.7c0,-0.1,-0.1,-0.1,-0.3,-0.3c-0.1,-0.1,-0.2,-0.2,-0.3,-0.3c-0.2,-0.1,-0.3,-0.2,-0.4,-0.3c-0.1,-0.1,-0.2,-0.2,-0.3,-0.3c-0.4,-0.3,-0.6,-0.7,-0.6,-1c0,-0.4,0.2,-0.8,0.6,-1.2c0.2,-0.2,0.4,-0.4,0.6,-0.6c0.2,-0.2,0.4,-0.4,0.6,-0.6c0.3,-0.1,0.4,-0.3,0.6,-0.4c0.2,-0.2,0.3,-0.3,0.4,-0.4c0.1,-0.1,0.1,-0.2,0.2,-0.2c0,-0.1,0.1,-0.2,0.2,-0.2c0.1,0,0.1,0,0.2,0c0.1,0,0.2,0,0.2,0.1Z" class="g6_22" />
<path d="M132.3,1008c0,0.1,0,0.1,0,0.2c-0.1,0,-0.2,0.1,-0.3,0.1c-0.1,0,-0.2,0,-0.4,0l-0.4,0c-0.1,0,-0.3,0,-0.4,0c-0.2,0,-0.3,0,-0.4,0c0,0.3,0,0.6,0,0.9c0,0.3,0,0.7,0,1c-0.1,0.3,-0.1,0.7,-0.1,1c0,0.4,0,0.7,-0.1,1c0.3,0,0.5,0,0.7,0l0.6,0c0.1,0,0.2,0,0.2,0c0.1,0.1,0.1,0.2,0.1,0.3c0,0,0,0.1,-0.1,0.2c-0.1,0.1,-0.1,0.1,-0.2,0.1c-0.2,0,-0.4,0,-0.6,0c-0.3,0,-0.5,0,-0.8,0c0,0.1,0,0.1,-0.1,0.1c0,0.1,-0.1,0.1,-0.1,0.1c-0.1,0,-0.1,0,-0.2,-0.1c0,0,-0.1,0,-0.1,-0.1c-0.2,0,-0.4,0,-0.5,0c-0.2,0,-0.3,0,-0.5,0c-0.1,0,-0.2,0,-0.3,-0.1c0,0,-0.1,-0.1,-0.1,-0.2c0,-0.1,0.1,-0.1,0.1,-0.2c0.1,-0.1,0.2,-0.1,0.3,-0.1l0.5,0c0.1,0,0.3,0,0.5,0c0,-0.3,0,-0.7,0,-1c0.1,-0.4,0.1,-0.7,0.1,-1c0,-0.4,0,-0.7,0,-1c0,-0.3,0,-0.6,0,-0.9c-0.1,0,-0.2,0,-0.4,0c-0.1,0,-0.3,0,-0.4,0c-0.1,0,-0.2,0.1,-0.2,0.1c-0.1,0,-0.2,0,-0.3,0c-0.1,-0.1,-0.1,-0.1,-0.2,-0.2c-0.1,0,-0.1,-0.1,-0.1,-0.2c0,-0.1,0,-0.1,0.1,-0.2c0,-0.1,0.1,-0.1,0.2,-0.1c0.1,-0.1,0.2,-0.1,0.3,-0.1c0.1,0,0.3,0,0.4,0l0.7,0c0,0,0.1,-0.1,0.1,-0.1c0.1,0,0.1,0,0.2,0c0,0,0.1,0,0.1,0c0.1,0,0.1,0.1,0.1,0.1c0.3,0,0.5,0.1,0.8,0.1c0.3,0,0.6,0,0.9,0c0.1,0,0.2,0,0.3,0.1c0,0,0,0.1,0,0.2Z" class="g6_22" />
<path d="M137.7,1010.1c0.1,0.2,0,0.4,-0.1,0.6c-0.1,0.2,-0.3,0.5,-0.5,0.7c-0.1,0.2,-0.3,0.4,-0.6,0.6c-0.2,0.2,-0.4,0.4,-0.6,0.5c-0.3,0.2,-0.6,0.4,-0.9,0.6c-0.4,0.1,-0.7,0.3,-1.1,0.5c-0.1,0.1,-0.2,0.1,-0.2,0.1c-0.1,-0.1,-0.2,-0.1,-0.2,-0.2c-0.1,-0.1,-0.1,-0.1,-0.1,-0.2c0.1,-0.1,0.1,-0.2,0.2,-0.3c0.4,-0.1,0.7,-0.3,1.1,-0.5c0.3,-0.2,0.6,-0.4,0.8,-0.6c0.2,-0.1,0.3,-0.2,0.5,-0.4c0.2,-0.1,0.4,-0.3,0.5,-0.5c0.2,-0.1,0.3,-0.3,0.4,-0.5c0.1,-0.1,0.1,-0.3,0.1,-0.4c0,-0.2,0,-0.3,-0.2,-0.5c-0.1,-0.2,-0.3,-0.3,-0.6,-0.5c-0.1,-0.1,-0.3,-0.2,-0.5,-0.3c-0.2,-0.2,-0.4,-0.3,-0.6,-0.4c-0.2,-0.1,-0.5,-0.3,-0.7,-0.4c-0.2,-0.1,-0.4,-0.2,-0.6,-0.3c-0.1,0.4,-0.1,0.9,-0.1,1.3c-0.1,0.5,-0.1,0.9,-0.2,1.3c0,0.4,0,0.8,-0.1,1.1c0,0.3,0,0.5,0,0.6c0,0.1,0,0.1,0.1,0.2c0,0.1,0,0.2,0.1,0.2c0,0.1,0,0.2,0,0.3c-0.1,0,-0.1,0.1,-0.2,0.1c-0.1,0,-0.1,0,-0.2,0c-0.1,0,-0.2,-0.1,-0.3,-0.2c0,0,0,-0.1,-0.1,-0.2c0,-0.1,-0.1,-0.3,-0.1,-0.4c0,-0.1,0,-0.2,0,-0.4c0.1,-0.2,0.1,-0.4,0.1,-0.6c0,-0.3,0,-0.6,0.1,-0.9c0,-0.3,0,-0.6,0.1,-0.9c0,-0.3,0,-0.6,0.1,-0.9c0,-0.4,0,-0.7,0,-1c0,0,-0.1,0,-0.1,-0.1c-0.1,0,-0.1,0,-0.2,0c-0.1,0,-0.1,0,-0.2,-0.1c0,0,-0.1,-0.1,-0.1,-0.1c-0.1,-0.1,-0.1,-0.2,-0.1,-0.2c0,-0.1,0,-0.2,0.1,-0.2c0,-0.1,0.1,-0.1,0.2,-0.1c0.1,0,0.2,0,0.3,0c0.3,0.2,0.7,0.4,1.1,0.6c0.3,0.2,0.7,0.4,1,0.5c0.3,0.2,0.6,0.4,0.9,0.5c0.2,0.2,0.4,0.3,0.6,0.4c0.8,0.5,1.1,1.1,1.1,1.6Z" class="g6_22" />
<path d="M143.1,1012.3c-0.2,0.2,-0.3,0.3,-0.5,0.4c-0.1,0.1,-0.3,0.2,-0.5,0.2c-0.2,0.1,-0.4,0.1,-0.6,0.2c-0.2,0.1,-0.4,0.1,-0.6,0.1c-0.2,0.1,-0.4,0.1,-0.7,0.1c-0.2,0.1,-0.4,0.1,-0.6,0.1c-0.1,0,-0.3,0,-0.4,-0.1c-0.1,0,-0.2,-0.1,-0.3,-0.3c-0.1,-0.1,-0.1,-0.2,-0.2,-0.4c0,-0.1,0,-0.3,0,-0.5c0,-0.1,0,-0.2,0,-0.3c0,-0.1,0,-0.3,0,-0.4c0.1,-0.1,0.1,-0.2,0.1,-0.3c0,-0.2,0.1,-0.3,0.1,-0.3c-0.1,0,-0.1,0,-0.2,0c-0.1,0,-0.2,0,-0.3,0c-0.1,0,-0.2,0,-0.2,-0.1c-0.1,0,-0.1,-0.1,-0.1,-0.2c0,-0.1,0,-0.2,0.1,-0.3c0.1,-0.1,0.2,-0.1,0.3,-0.1c0,0,0.1,0,0.2,0c0.1,0,0.1,0,0.2,0c0.1,0,0.1,0,0.2,0c0.1,-0.3,0.2,-0.5,0.2,-0.8c0.1,-0.3,0.1,-0.5,0.2,-0.6c0,-0.1,0,-0.2,0,-0.2c0,-0.1,0,-0.1,-0.1,-0.1c-0.1,0,-0.2,0,-0.3,0.1c-0.1,0,-0.3,0,-0.4,0.1c-0.1,0,-0.2,0,-0.2,0c-0.1,-0.1,-0.2,-0.1,-0.2,-0.2c0,-0.1,0,-0.2,0,-0.3c0.1,0,0.2,-0.1,0.3,-0.2c0.3,-0.1,0.7,-0.2,1,-0.3c0.4,0,0.8,-0.1,1.2,-0.1c0.3,-0.1,0.7,-0.1,1,-0.1c0.3,0,0.7,0,0.9,0c0.1,0,0.2,0.1,0.3,0.1c0,0.1,0.1,0.2,0.1,0.3c-0.1,0.1,-0.1,0.1,-0.1,0.2c-0.1,0.1,-0.2,0.1,-0.3,0.1c-0.4,0,-0.9,0,-1.3,0c-0.5,0,-0.9,0.1,-1.3,0.1c0,0.1,0.1,0.1,0.1,0.2c0,0,0,0.1,0,0.2c-0.1,0.2,-0.1,0.4,-0.2,0.6c0,0.3,-0.1,0.5,-0.2,0.8c0.2,-0.1,0.5,-0.1,0.7,-0.1c0.3,-0.1,0.5,-0.1,0.7,-0.1c0.3,-0.1,0.5,-0.1,0.7,-0.2c0.2,0,0.4,0,0.5,-0.1c0.1,0,0.2,0,0.2,0.1c0.1,0,0.1,0.1,0.1,0.2c0.1,0,0,0.1,0,0.2c0,0.1,-0.1,0.1,-0.2,0.2c-0.2,0,-0.3,0,-0.6,0.1c-0.2,0,-0.5,0.1,-0.8,0.1c-0.2,0.1,-0.5,0.1,-0.8,0.2c-0.3,0,-0.5,0.1,-0.7,0.1c-0.1,0.2,-0.1,0.5,-0.2,0.7c0,0.2,-0.1,0.5,-0.1,0.7c0,0.1,0,0.2,0,0.3c0.1,0.1,0.1,0.2,0.1,0.2c0.1,0.1,0.2,0.1,0.4,0.1c0.2,0,0.6,0,0.9,-0.1c0.4,-0.1,0.8,-0.2,1.1,-0.3c0.2,0,0.3,-0.1,0.4,-0.2c0.2,0,0.3,-0.1,0.4,-0.2c0,-0.1,0.1,-0.1,0.2,-0.1c0.1,0,0.2,0,0.2,0c0.1,0.1,0.1,0.2,0.1,0.2c0.1,0.1,0,0.2,0,0.3Z" class="g6_22" />
<path d="M148.5,1008.5c0,0.2,0.1,0.5,0.1,0.8c0,0.2,0,0.5,-0.1,0.8c0,0.4,0,0.6,-0.1,0.9c0,0.3,-0.1,0.6,-0.2,0.8c-0.1,0.3,-0.2,0.5,-0.4,0.7c-0.2,0.2,-0.4,0.3,-0.7,0.3c-0.1,0,-0.3,-0.1,-0.4,-0.2c-0.2,0,-0.4,-0.2,-0.6,-0.4c-0.2,-0.2,-0.5,-0.6,-0.7,-1c-0.3,-0.3,-0.5,-0.7,-0.8,-1.2c0,0.2,0,0.5,0,0.7c0,0.3,-0.1,0.5,-0.1,0.7c0,0.2,0,0.4,0,0.6c0,0.2,0,0.4,0,0.5c0,0.1,0,0.2,0,0.2c0,0,0.1,0.1,0.1,0.1c0.1,0,0.2,0.1,0.2,0.1c0,0.1,0,0.2,0,0.2c0,0.1,-0.1,0.2,-0.1,0.2c-0.1,0.1,-0.2,0.1,-0.3,0.1c-0.1,-0.1,-0.3,-0.1,-0.4,-0.2c-0.1,-0.2,-0.1,-0.3,-0.1,-0.5c-0.1,-0.2,-0.1,-0.5,-0.1,-0.8c0.1,-0.3,0.1,-0.7,0.1,-1c0,-0.4,0.1,-0.7,0.1,-1.1c0,-0.3,0.1,-0.6,0.1,-0.8c0,-0.1,-0.1,-0.2,-0.1,-0.3c0,0,-0.1,-0.1,-0.1,-0.2c0,-0.1,0,-0.2,0.1,-0.2c0,-0.1,0,-0.1,0.1,-0.2c0.1,0,0.1,0,0.2,0c0.1,0,0.1,0.1,0.2,0.1c0,0.1,0,0.1,0,0.1c0.1,0.1,0.1,0.1,0.1,0.2c0.1,0,0.2,0,0.2,0.1c0.1,0.1,0.1,0.2,0,0.3c0.1,0.2,0.2,0.4,0.4,0.7c0.1,0.2,0.2,0.5,0.4,0.8c0.1,0.2,0.3,0.5,0.5,0.7c0.2,0.3,0.3,0.5,0.5,0.7c0.1,0.1,0.2,0.1,0.3,0.2c0.1,0,0.2,0,0.2,0c0.2,0,0.3,0,0.3,-0.1c0.1,-0.2,0.2,-0.3,0.2,-0.4c0,-0.1,0.1,-0.2,0.1,-0.4c0.1,-0.3,0.1,-0.5,0.2,-0.7c0,-0.3,0,-0.5,0,-0.8c0,-0.3,0,-0.5,0,-0.6c-0.1,-0.1,-0.1,-0.2,-0.1,-0.3c0,-0.1,0,-0.2,0.1,-0.2c0,-0.1,0.1,-0.1,0.2,-0.2c0,0,0.1,0,0.2,0c0.1,0.1,0.1,0.1,0.2,0.2Z" class="g6_22" />
<path d="M155.1,1008.3c0,0,-0.1,0.1,-0.1,0.2c0,0,-0.1,0.1,-0.2,0.1c0,0,-0.1,0.1,-0.2,0c-0.1,0,-0.2,0,-0.3,-0.1c-0.1,0,-0.4,0,-0.8,0c-0.3,0,-0.7,0,-1.2,0c0,0.2,0,0.4,0,0.6c0,0.3,0,0.5,0,0.8l0,0.7c0,0.3,0,0.5,0,0.8c0,0.2,0,0.4,0,0.6c0,0.2,0,0.3,0.1,0.4c0.1,0.1,0.1,0.2,0.1,0.3c0,0.1,0,0.2,-0.1,0.3c-0.1,0,-0.2,0,-0.3,0c-0.1,0,-0.2,-0.1,-0.3,-0.1c-0.1,-0.1,-0.1,-0.2,-0.1,-0.4c-0.1,-0.2,-0.1,-0.5,-0.1,-0.9c0,-0.3,0,-0.6,0,-1c0,-0.3,0,-0.7,0,-1.1c0,-0.3,0,-0.6,0,-1c-0.2,0.1,-0.4,0.1,-0.7,0.1c-0.2,0,-0.5,0,-0.7,0c-0.3,0,-0.5,0,-0.7,0c-0.2,0,-0.4,0,-0.5,-0.1c-0.1,0,-0.2,0,-0.3,-0.1c-0.1,-0.1,-0.1,-0.1,-0.1,-0.2c0,-0.1,0.1,-0.2,0.1,-0.2c0.1,-0.1,0.1,-0.1,0.2,-0.1c0.3,0,0.6,0,0.9,0c0.3,0,0.7,0,1,0c0.4,0,0.8,0,1.1,0c0.4,0,0.8,0,1.1,0l1.7,0c0.1,0,0.2,0,0.3,0.1c0.1,0.1,0.1,0.2,0.1,0.3Z" class="g6_22" />
<path d="M160.1,1012.3c-0.1,0.2,-0.2,0.3,-0.4,0.4c-0.2,0.1,-0.4,0.2,-0.6,0.2c-0.1,0.1,-0.3,0.1,-0.5,0.2c-0.2,0.1,-0.4,0.1,-0.6,0.1c-0.3,0.1,-0.5,0.1,-0.7,0.1c-0.2,0.1,-0.4,0.1,-0.6,0.1c-0.2,0,-0.3,0,-0.4,-0.1c-0.1,0,-0.3,-0.1,-0.3,-0.3c-0.1,-0.1,-0.2,-0.2,-0.2,-0.4c-0.1,-0.1,-0.1,-0.3,-0.1,-0.5c0,-0.1,0,-0.2,0.1,-0.3c0,-0.1,0,-0.3,0,-0.4c0,-0.1,0.1,-0.2,0.1,-0.3c0,-0.2,0,-0.3,0.1,-0.3c-0.1,0,-0.2,0,-0.3,0c-0.1,0,-0.1,0,-0.2,0c-0.1,0,-0.2,0,-0.3,-0.1c0,0,-0.1,-0.1,-0.1,-0.2c0,-0.1,0.1,-0.2,0.2,-0.3c0.1,-0.1,0.1,-0.1,0.2,-0.1c0.1,0,0.2,0,0.3,0c0,0,0.1,0,0.2,0c0,0,0.1,0,0.2,0c0.1,-0.3,0.1,-0.5,0.2,-0.8c0.1,-0.3,0.1,-0.5,0.1,-0.6c0,-0.1,0,-0.2,0,-0.2c0,-0.1,0,-0.1,0,-0.1c-0.1,0,-0.2,0,-0.3,0.1c-0.2,0,-0.3,0,-0.4,0.1c-0.1,0,-0.2,0,-0.3,0c0,-0.1,-0.1,-0.1,-0.1,-0.2c0,-0.1,0,-0.2,0,-0.3c0.1,0,0.1,-0.1,0.2,-0.2c0.4,-0.1,0.7,-0.2,1.1,-0.3c0.4,0,0.8,-0.1,1.1,-0.1c0.4,-0.1,0.7,-0.1,1.1,-0.1c0.3,0,0.6,0,0.9,0c0.1,0,0.2,0.1,0.3,0.1c0,0.1,0,0.2,0,0.3c0,0.1,0,0.1,-0.1,0.2c0,0.1,-0.1,0.1,-0.2,0.1c-0.4,0,-0.9,0,-1.3,0c-0.5,0,-0.9,0.1,-1.3,0.1c0,0.1,0,0.1,0,0.2c0,0,0,0.1,0,0.2c0,0.2,0,0.4,-0.1,0.6c-0.1,0.3,-0.1,0.5,-0.2,0.8c0.2,-0.1,0.4,-0.1,0.7,-0.1c0.2,-0.1,0.5,-0.1,0.7,-0.1c0.2,-0.1,0.4,-0.1,0.6,-0.2c0.3,0,0.4,0,0.6,-0.1c0.1,0,0.1,0,0.2,0.1c0.1,0,0.1,0.1,0.1,0.2c0,0,0,0.1,0,0.2c-0.1,0.1,-0.1,0.1,-0.2,0.2c-0.2,0,-0.4,0,-0.6,0.1c-0.3,0,-0.5,0.1,-0.8,0.1c-0.3,0.1,-0.5,0.1,-0.8,0.2c-0.3,0,-0.5,0.1,-0.7,0.1c-0.1,0.2,-0.2,0.5,-0.2,0.7c-0.1,0.2,-0.1,0.5,-0.1,0.7c0,0.1,0,0.2,0,0.3c0,0.1,0.1,0.2,0.1,0.2c0.1,0.1,0.2,0.1,0.3,0.1c0.3,0,0.6,0,1,-0.1c0.4,-0.1,0.7,-0.2,1.1,-0.3c0.1,0,0.3,-0.1,0.4,-0.2c0.1,0,0.2,-0.1,0.3,-0.2c0.1,-0.1,0.2,-0.1,0.3,-0.1c0.1,0,0.1,0,0.2,0c0.1,0.1,0.1,0.2,0.1,0.2c0,0.1,0,0.2,-0.1,0.3Z" class="g6_22" />
<path d="M161.8,1010.4c0,0.1,0.1,0.1,0.1,0.2c0,0.1,0,0.1,0,0.2c0,0.1,0,0.1,0,0.2c0,0.1,-0.1,0.1,-0.2,0.2c-0.1,0,-0.2,0.1,-0.3,0.1c-0.1,-0.1,-0.2,-0.1,-0.3,-0.2c-0.1,-0.1,-0.1,-0.2,-0.1,-0.3c0,-0.2,0.1,-0.3,0.2,-0.4c0.1,0,0.2,-0.1,0.3,-0.1c0.1,0,0.2,0.1,0.3,0.1Zm-0.1,2.5c-0.1,0,-0.2,0.1,-0.3,0.1c-0.1,0,-0.2,-0.1,-0.3,-0.2c-0.1,-0.1,-0.1,-0.2,-0.1,-0.3c0,-0.2,0,-0.3,0.1,-0.4c0.1,0,0.2,-0.1,0.3,-0.1c0.1,0,0.2,0.1,0.3,0.1c0.1,0.1,0.1,0.1,0.1,0.2c0.1,0.1,0.1,0.1,0.1,0.2c0,0.1,0,0.2,-0.1,0.2c0,0.1,0,0.1,-0.1,0.2Z" class="g6_22" />
<path d="M95.7,1020.8c-0.4,-0.7,-0.7,-1.5,-0.9,-2.3c-0.3,-0.7,-0.6,-1.5,-0.8,-2.2c-0.2,0.4,-0.4,0.8,-0.7,1.3c-0.2,0.4,-0.4,0.9,-0.6,1.4c-0.3,0.5,-0.5,0.9,-0.7,1.4c-0.3,0.5,-0.5,1,-0.7,1.4c0.4,-0.1,0.7,-0.2,1.1,-0.3c0.3,0,0.7,-0.1,1.1,-0.2c0.3,-0.1,0.7,-0.2,1.1,-0.3c0.3,-0.1,0.7,-0.1,1.1,-0.2Zm2.4,2.5c0.1,0.1,0.1,0.2,0.1,0.4c0,0.1,0,0.2,-0.1,0.3c-0.2,0.1,-0.3,0.1,-0.5,0.1c-0.1,0,-0.3,-0.1,-0.4,-0.2c0,-0.1,-0.1,-0.3,-0.2,-0.4c-0.1,-0.1,-0.2,-0.3,-0.3,-0.5c-0.1,-0.1,-0.1,-0.3,-0.2,-0.4c-0.1,-0.2,-0.2,-0.3,-0.2,-0.5c-0.1,0,-0.1,-0.1,-0.2,-0.2c0,-0.1,0,-0.2,-0.1,-0.3c-0.9,0.3,-1.9,0.5,-2.7,0.7c-0.9,0.2,-1.7,0.4,-2.5,0.6c-0.1,0.1,-0.1,0.3,-0.2,0.4c-0.1,0.2,-0.2,0.4,-0.3,0.6c0,0.1,0,0.2,-0.1,0.3c0,0.1,-0.1,0.2,-0.3,0.3c-0.1,0.1,-0.2,0.1,-0.3,0.1c-0.1,0,-0.2,-0.1,-0.3,-0.1c-0.1,-0.1,-0.2,-0.2,-0.2,-0.4c0,-0.1,0.1,-0.2,0.1,-0.3c0.1,-0.1,0.1,-0.2,0.2,-0.3c0,-0.1,0.1,-0.2,0.2,-0.3c-0.2,0,-0.4,0,-0.5,-0.1c-0.2,-0.1,-0.2,-0.2,-0.3,-0.4c0,0,0.1,0,0.1,-0.1c0,-0.1,0,-0.1,0,-0.2c0.1,0,0.1,-0.1,0.2,-0.1c0,-0.1,0.1,-0.1,0.2,-0.1c0.2,0,0.3,0,0.4,-0.1c0.1,0,0.2,0,0.4,-0.1c0.1,-0.3,0.3,-0.7,0.5,-1.1c0.2,-0.4,0.5,-0.9,0.7,-1.3c0.2,-0.5,0.4,-1,0.6,-1.4c0.3,-0.5,0.5,-0.9,0.7,-1.3c0.1,-0.4,0.3,-0.8,0.5,-1.1c0.1,-0.3,0.3,-0.5,0.4,-0.7c0,-0.1,0,-0.2,0.1,-0.3c0.1,-0.1,0.2,-0.2,0.4,-0.2c0.1,0,0.2,0,0.3,0.1c0.1,0,0.1,0.1,0.2,0.2c0.2,0.5,0.4,1,0.6,1.5c0.2,0.5,0.4,1,0.5,1.5c0.2,0.5,0.4,1,0.6,1.5c0.2,0.4,0.3,0.8,0.5,1.1c0.1,0,0.2,0,0.3,0c0.1,-0.1,0.2,-0.1,0.3,-0.1c0.1,0,0.2,0,0.3,0.1c0.1,0,0.2,0.1,0.2,0.3c0,0.1,0,0.2,0,0.3c-0.1,0.1,-0.2,0.2,-0.3,0.2c-0.1,0,-0.1,0.1,-0.2,0.1c-0.1,0,-0.2,0,-0.2,0c0,0.1,0,0.2,0.1,0.2c0,0.1,0,0.2,0.1,0.3c0,0.1,0.1,0.2,0.1,0.3c0.1,0.1,0.2,0.3,0.3,0.4c0.1,0.1,0.1,0.3,0.2,0.4c0.1,0.1,0.1,0.2,0.2,0.3Z" class="g6_22" />
<path d="M108.3,1022.5c0,0.1,0,0.1,-0.1,0.2c0,0.1,-0.1,0.2,-0.2,0.3c-0.1,0,-0.2,0,-0.2,0c-0.1,0,-0.1,0,-0.2,0c-0.2,0.1,-0.4,0.1,-0.7,0.2c-0.2,0.1,-0.5,0.2,-0.8,0.4c-0.4,0.2,-0.9,0.2,-1.3,0.1c-0.5,-0.1,-0.8,-0.4,-1,-0.8c-0.2,-0.4,-0.3,-0.7,-0.3,-1c-0.1,-0.3,-0.1,-0.5,-0.1,-0.7c-0.1,-0.1,-0.1,-0.2,-0.3,-0.2c0,0,-0.1,0,-0.2,0c-0.1,0,-0.2,0.1,-0.4,0.2c0,0,-0.1,0.1,-0.2,0.2c-0.2,0.1,-0.3,0.2,-0.4,0.3c-0.1,0.1,-0.2,0.2,-0.3,0.3c-0.2,0.1,-0.3,0.2,-0.4,0.3c-0.1,0.1,-0.2,0.2,-0.3,0.3c-0.2,0.1,-0.3,0.3,-0.4,0.4c-0.1,0.1,-0.3,0.3,-0.3,0.4c-0.1,0.1,-0.2,0.2,-0.3,0.3c-0.1,0.2,-0.2,0.3,-0.3,0.3c-0.2,0.1,-0.3,0,-0.4,0c-0.1,-0.1,-0.2,-0.1,-0.3,-0.2c0,-0.1,0,-0.2,0,-0.3l0,-1.5c0,-0.2,0,-0.5,0,-0.7c0,-0.2,0,-0.3,0,-0.5c-0.2,0,-0.2,-0.1,-0.2,-0.2c0,-0.1,0,-0.2,0.1,-0.3c0,-0.2,0.1,-0.3,0.1,-0.3c0.1,-0.1,0.1,-0.1,0.2,-0.2c0.1,0,0.2,0,0.3,0c0.1,0,0.2,0.1,0.3,0.1c0.1,0.1,0.1,0.2,0.1,0.3c0.1,0.1,0.1,0.3,0.1,0.5c0,0.1,0,0.3,0,0.5l0,0.6c0,0.2,0,0.3,0,0.5c0.1,-0.2,0.2,-0.4,0.4,-0.5c0.2,-0.2,0.4,-0.3,0.5,-0.5c0.2,-0.1,0.4,-0.3,0.6,-0.5c0.2,-0.2,0.4,-0.3,0.6,-0.5c0.2,-0.1,0.4,-0.2,0.7,-0.3c0.2,-0.1,0.4,-0.2,0.6,-0.1c0.3,-0.1,0.5,0,0.7,0.2c0.2,0.1,0.3,0.4,0.4,0.7c0,0.3,0.1,0.6,0.1,0.9c0.1,0.3,0.1,0.5,0.2,0.7c0.1,0.2,0.3,0.3,0.5,0.3c0.2,0.1,0.4,0,0.6,-0.1c0.2,-0.1,0.6,-0.2,0.9,-0.3c0.3,-0.2,0.7,-0.3,0.9,-0.3c0.2,-0.1,0.4,-0.1,0.5,0c0.1,0.1,0.2,0.3,0.2,0.5Z" class="g6_22" />
<path d="M115.2,1022.4c0,0.1,0.1,0.2,0.1,0.4c-0.1,0.1,-0.2,0.2,-0.3,0.3c-0.3,0.2,-0.7,0.4,-1,0.5c-0.4,0.1,-0.8,0.2,-1.1,0.3c-0.4,0,-0.7,0,-0.9,-0.1c-0.2,-0.1,-0.4,-0.3,-0.6,-0.5c0,-0.1,-0.1,-0.2,-0.1,-0.3c-0.1,-0.2,-0.1,-0.4,-0.1,-0.5c0,-0.1,-0.1,-0.1,-0.1,-0.1c-0.1,0,-0.1,0,-0.2,0.1c-0.1,0,-0.2,0.1,-0.4,0.2c-0.1,0.1,-0.3,0.3,-0.4,0.4c-0.2,0.1,-0.3,0.3,-0.5,0.4c-0.2,0.1,-0.3,0.3,-0.5,0.4c-0.3,0.3,-0.6,0.4,-0.9,0.4c-0.3,0,-0.5,-0.1,-0.7,-0.2c-0.3,-0.2,-0.4,-0.5,-0.4,-1c0,-0.2,0.1,-0.4,0.1,-0.5c0.1,-0.2,0.1,-0.4,0.2,-0.6c0.2,-0.3,0.3,-0.5,0.5,-0.8c0.2,-0.3,0.4,-0.5,0.7,-0.7c0.2,-0.3,0.4,-0.5,0.6,-0.7c0.2,-0.1,0.4,-0.3,0.6,-0.4c0.2,-0.1,0.4,-0.2,0.6,-0.4c0.2,-0.1,0.4,-0.2,0.7,-0.2c0.2,-0.1,0.4,-0.1,0.7,-0.1c0.3,0.1,0.5,0.2,0.8,0.4c0.1,0.1,0.2,0.2,0.2,0.3c0,0.2,0,0.3,-0.1,0.4c-0.1,0.1,-0.2,0.2,-0.3,0.2c-0.2,0.1,-0.3,0,-0.5,-0.1c-0.2,-0.1,-0.4,-0.2,-0.7,-0.1c-0.2,0,-0.5,0.1,-0.8,0.4c-0.2,0.1,-0.4,0.2,-0.6,0.4c-0.2,0.2,-0.4,0.3,-0.6,0.5c-0.2,0.3,-0.3,0.5,-0.5,0.7c-0.2,0.2,-0.3,0.4,-0.4,0.6c-0.1,0.1,-0.1,0.3,-0.1,0.4c0,0.2,0,0.3,0.1,0.3c0.1,0.1,0.2,0.1,0.4,-0.1c0.1,-0.1,0.3,-0.3,0.5,-0.4c0.2,-0.2,0.4,-0.4,0.6,-0.5c0.3,-0.2,0.5,-0.4,0.7,-0.5c0.2,-0.2,0.4,-0.3,0.5,-0.4c0.2,-0.1,0.3,-0.2,0.4,-0.2c0.2,0,0.3,0,0.4,0c0.1,0,0.2,0.1,0.3,0.2c0,0.1,0.1,0.2,0.1,0.3c0,0.2,0,0.4,0,0.5c0,0.2,0,0.3,0.1,0.4c0,0.2,0.1,0.3,0.2,0.3c0.1,0.1,0.2,0.1,0.3,0.1c0.2,0,0.3,0,0.5,-0.1c0.1,0,0.3,-0.1,0.4,-0.1c0.2,-0.1,0.3,-0.1,0.5,-0.2c0.1,0,0.2,-0.1,0.3,-0.1c0.2,-0.1,0.3,-0.1,0.4,-0.1c0.1,0,0.2,0.1,0.3,0.2Z" class="g6_22" />
<path d="M127,1022.3c0,0.1,0.1,0.2,0.1,0.4c-0.1,0.1,-0.1,0.2,-0.3,0.3c-0.3,0.2,-0.7,0.4,-1.1,0.5c-0.4,0.2,-0.8,0.3,-1.3,0.4c-0.4,0.1,-0.9,0.2,-1.4,0.2c-0.4,0,-0.9,0.1,-1.3,0.1c-0.3,0,-0.6,-0.1,-0.8,-0.1c-0.2,-0.1,-0.4,-0.2,-0.5,-0.3c-0.2,-0.2,-0.3,-0.5,-0.3,-0.8c-0.1,-0.4,0,-0.9,0.2,-1.4c0.4,-1.3,0.7,-2.5,0.8,-3.5c0.2,-1.1,0.4,-2,0.5,-2.8c0,-0.2,0.1,-0.3,0.2,-0.4c0.1,0,0.2,-0.1,0.3,-0.1c0.2,0,0.3,0.1,0.4,0.2c0.1,0.1,0.1,0.2,0.1,0.4c-0.1,0.9,-0.2,1.9,-0.4,3c-0.3,1.1,-0.5,2.3,-0.9,3.4c-0.1,0.3,-0.1,0.6,-0.1,0.8c0,0.1,0,0.3,0.1,0.4c0,0,0.1,0.1,0.2,0.1c0.1,0,0.3,0,0.4,0c0.4,0,0.9,0,1.3,-0.1c0.4,0,0.8,-0.1,1.2,-0.2c0.4,-0.1,0.7,-0.2,1,-0.3c0.4,-0.1,0.6,-0.2,0.9,-0.4c0.1,0,0.3,-0.1,0.4,0c0.1,0,0.2,0.1,0.3,0.2Z" class="g6_22" />
<path d="M133.2,1016.8c0.1,0.1,0.1,0.2,0.1,0.3c-0.1,0.1,-0.1,0.2,-0.2,0.2c-0.1,0.1,-0.3,0.2,-0.5,0.3c-0.2,0.1,-0.4,0.2,-0.6,0.3c-0.2,0.1,-0.4,0.2,-0.5,0.3c-0.2,0.1,-0.4,0.2,-0.5,0.3c-0.2,0,-0.3,0,-0.3,0c-0.1,-0.1,-0.2,-0.1,-0.3,-0.2c0,-0.1,0,-0.2,0,-0.3c0,-0.1,0.1,-0.2,0.2,-0.2c0.2,-0.1,0.3,-0.2,0.5,-0.3c0.2,-0.1,0.4,-0.2,0.6,-0.3c0.2,-0.1,0.3,-0.2,0.5,-0.3c0.2,-0.1,0.4,-0.1,0.5,-0.2c0.1,-0.1,0.2,-0.1,0.3,-0.1c0.1,0.1,0.2,0.1,0.2,0.2Zm-0.8,5.5c0.2,-0.2,0.2,-0.5,0.1,-0.7c0,-0.2,-0.2,-0.4,-0.4,-0.5c-0.1,0,-0.3,0,-0.4,0c-0.2,0,-0.4,0,-0.6,0c-0.2,0,-0.4,-0.1,-0.6,-0.2c-0.1,-0.1,-0.2,-0.2,-0.1,-0.3c-0.1,0,-0.1,0,-0.2,0c0,0,-0.1,0,-0.1,0.1c-0.2,0.1,-0.4,0.3,-0.6,0.6c-0.2,0.2,-0.4,0.6,-0.4,0.9c-0.1,0.4,-0.1,0.8,0.1,1c0.1,0.2,0.3,0.3,0.7,0.3c0.2,0,0.5,0,0.7,-0.1c0.2,0,0.4,-0.1,0.5,-0.1c0.3,-0.1,0.5,-0.3,0.7,-0.5c0.2,-0.1,0.4,-0.3,0.6,-0.5Zm1.8,-1.7c0,0.1,0,0.2,-0.1,0.2c0,0.1,-0.1,0.1,-0.1,0.2c-0.2,0,-0.4,0.1,-0.6,0.1c0,0,0.1,0.1,0.1,0.3c0.1,0.1,0.1,0.2,0.1,0.4c0,0.1,0,0.3,-0.1,0.5c0,0.2,-0.2,0.4,-0.3,0.6c-0.5,0.6,-1.1,1,-1.6,1.2c-0.3,0.2,-0.6,0.2,-0.8,0.3c-0.3,0,-0.6,0,-0.9,0.1c-0.8,0,-1.4,-0.3,-1.7,-0.8c-0.2,-0.4,-0.3,-1,-0.1,-1.7c0,-0.3,0.1,-0.5,0.2,-0.8c0.1,-0.2,0.3,-0.5,0.4,-0.7c0.2,-0.2,0.4,-0.4,0.6,-0.5c0.2,-0.2,0.4,-0.3,0.6,-0.4c0.2,-0.1,0.4,-0.2,0.6,-0.2c0.2,0,0.4,0.1,0.6,0.3c0.1,0,0.2,0,0.3,-0.1c0.1,0,0.1,0.1,0.2,0.1c0.2,0,0.3,0,0.5,0.1c0.2,0.1,0.3,0.2,0.4,0.3l1.1,0c0.2,0,0.3,0,0.4,0.1c0.1,0.1,0.2,0.3,0.2,0.4Z" class="g6_22" />
<path d="M140,1021.1c0,0.3,-0.1,0.6,-0.3,0.8c-0.2,0.3,-0.4,0.5,-0.8,0.7c0,0,-0.1,0,-0.2,0.1c-0.1,0,-0.2,0.1,-0.3,0.1c-0.1,0.1,-0.2,0.1,-0.3,0.2c-0.1,0,-0.2,0.1,-0.2,0.1c-0.1,0,-0.2,0.1,-0.3,0.2c-0.2,0,-0.3,0.1,-0.5,0.1c-0.1,0.1,-0.2,0.2,-0.4,0.2c-0.1,0,-0.3,0.1,-0.4,0.1c-0.2,0,-0.3,-0.1,-0.4,-0.2c-0.1,-0.1,-0.2,-0.2,-0.2,-0.3c0,-0.2,0.1,-0.4,0.3,-0.6c0.1,0,0.2,-0.1,0.3,-0.1c0.1,0,0.2,0,0.3,0c0,0,0.1,0,0.2,0c0,0,0.1,-0.1,0.2,-0.1c0.1,0,0.2,-0.1,0.3,-0.1c0,-0.1,0.1,-0.1,0.2,-0.2c0.1,0,0.1,0,0.2,-0.1c0.1,0,0.2,-0.1,0.3,-0.1c0.1,0,0.2,-0.1,0.2,-0.1c0.1,0,0.2,0,0.2,-0.1c0.1,-0.1,0.3,-0.2,0.3,-0.3c0.1,-0.1,0.1,-0.1,0.1,-0.2c0,-0.2,0,-0.3,-0.1,-0.4c-0.1,-0.1,-0.3,-0.2,-0.4,-0.3c-0.1,0,-0.3,-0.1,-0.5,-0.2c-0.2,0,-0.4,-0.1,-0.6,-0.2c-0.2,-0.1,-0.5,-0.1,-0.7,-0.2c-0.3,-0.1,-0.5,-0.1,-0.7,-0.1c-0.1,0.5,-0.1,1.2,-0.2,1.8c-0.1,0.7,-0.1,1.3,-0.1,1.9c-0.1,0.7,-0.1,1.3,-0.1,1.9c0,0.6,0,1.2,0,1.7c0.1,0.1,0.2,0.2,0.2,0.4c0,0.1,0,0.2,0,0.3c-0.1,0.2,-0.1,0.3,-0.2,0.3c-0.1,0.1,-0.2,0.2,-0.3,0.2c-0.1,0.1,-0.2,0.1,-0.3,0.1c-0.1,-0.1,-0.2,-0.1,-0.3,-0.2c0,-0.1,-0.1,-0.2,-0.1,-0.3c0,-0.1,0,-0.2,0,-0.3c0,-0.1,0,-0.2,0,-0.3c-0.1,-0.7,-0.1,-1.3,0,-2c0,-0.7,0,-1.4,0.1,-2c0,-0.7,0.1,-1.3,0.1,-1.9c0.1,-0.6,0.1,-1.2,0.1,-1.7c0,-0.1,-0.1,-0.1,-0.1,-0.1l-0.2,0c-0.1,0,-0.1,0,-0.2,0c0,0,-0.1,0,-0.2,0c-0.1,0,-0.2,-0.1,-0.2,-0.2c-0.1,-0.1,-0.1,-0.2,-0.1,-0.2c0,-0.2,0,-0.3,0.1,-0.4c0.1,-0.1,0.3,-0.2,0.5,-0.2c0.9,0.1,1.8,0.2,2.5,0.4c0.8,0.2,1.5,0.4,2,0.7c0.4,0.2,0.7,0.4,0.9,0.7c0.2,0.2,0.3,0.5,0.3,0.7Z" class="g6_22" />
<path d="M143.4,1019.8c0.1,-0.3,0.1,-0.5,0,-0.6c-0.1,0,-0.2,0,-0.3,0c-0.1,0,-0.2,0,-0.3,0.1c-0.1,0.1,-0.2,0.2,-0.4,0.3c-0.2,0.2,-0.4,0.5,-0.5,0.7c-0.2,0.3,-0.4,0.6,-0.4,0.9c0.2,-0.1,0.4,-0.1,0.6,-0.2c0.2,-0.1,0.4,-0.2,0.6,-0.3c0.2,-0.2,0.3,-0.3,0.5,-0.4c0.1,-0.2,0.2,-0.3,0.2,-0.5Zm2.8,2.6c0.1,0.1,0.1,0.3,0,0.4c0,0.1,-0.1,0.2,-0.3,0.3c-0.2,0.1,-0.4,0.2,-0.8,0.3c-0.3,0.1,-0.6,0.2,-1,0.4c-0.4,0.1,-0.8,0.2,-1.3,0.2c-0.4,0.1,-0.8,0.1,-1.2,0c-0.4,-0.1,-0.8,-0.2,-1,-0.4c-0.4,-0.4,-0.5,-1,-0.4,-1.7c0.1,-0.4,0.1,-0.7,0.3,-1c0.1,-0.3,0.2,-0.5,0.4,-0.8c0.1,-0.2,0.3,-0.4,0.4,-0.6c0.1,-0.2,0.3,-0.4,0.4,-0.5c0.1,-0.1,0.3,-0.2,0.4,-0.3c0.1,-0.1,0.2,-0.2,0.3,-0.3c0.1,0,0.3,-0.1,0.4,-0.1c0.1,-0.1,0.2,-0.1,0.4,-0.1c0.1,0,0.3,0,0.4,0c0.1,0,0.3,0.1,0.4,0.1c0.1,0.1,0.2,0.2,0.3,0.4c0.1,0.1,0.1,0.2,0.1,0.4c0.1,0.1,0.1,0.3,0,0.4c0,0.2,0,0.4,0,0.5c-0.1,0.3,-0.3,0.6,-0.5,0.8c-0.2,0.3,-0.5,0.5,-0.7,0.7c-0.3,0.2,-0.7,0.4,-1,0.5c-0.3,0.1,-0.7,0.2,-1,0.3c0,0.2,0,0.4,0.1,0.5c0.1,0.1,0.3,0.2,0.5,0.2c0.3,0.1,0.6,0.1,1,0.1c0.3,-0.1,0.7,-0.2,1,-0.3c0.4,-0.1,0.7,-0.2,1.1,-0.3c0.3,-0.2,0.5,-0.3,0.7,-0.3c0.2,-0.1,0.3,-0.1,0.4,0c0.1,0,0.2,0.1,0.2,0.2Z" class="g6_22" />
<path d="M151,1023.1c0,0.1,0,0.2,0,0.3c-0.1,0.2,-0.2,0.2,-0.3,0.3c-0.3,0.1,-0.6,0.2,-1,0.2c-0.4,0.1,-0.8,0.2,-1.2,0.2c-0.5,0.1,-0.9,0.1,-1.3,0.1c-0.4,0,-0.8,0,-1.1,-0.1c-0.3,0,-0.5,-0.2,-0.6,-0.5c-0.1,-0.1,-0.1,-0.2,0,-0.4c0,-0.1,0.1,-0.3,0.2,-0.5c0.2,-0.2,0.3,-0.4,0.5,-0.6c0.2,-0.2,0.4,-0.4,0.6,-0.5c0.2,-0.2,0.3,-0.3,0.5,-0.5c0.2,-0.1,0.3,-0.3,0.4,-0.4c0.2,-0.1,0.3,-0.3,0.2,-0.4c0,-0.1,-0.1,-0.1,-0.3,-0.1c-0.3,0,-0.6,0,-0.9,0c-0.3,0,-0.5,-0.1,-0.7,-0.1c-0.2,0,-0.3,-0.1,-0.4,-0.2c-0.1,-0.1,-0.1,-0.2,-0.1,-0.3c0,-0.2,0,-0.3,0.2,-0.4c0.1,-0.1,0.2,-0.1,0.3,-0.1c0.2,0,0.3,0,0.4,0.1c0.1,0,0.2,0,0.4,0c0.1,0,0.3,0,0.4,0c0.2,0,0.3,0,0.4,0c0.2,0,0.3,0.1,0.4,0.1c0.3,0,0.6,0,0.8,0.1c0.2,0.1,0.3,0.3,0.4,0.4c0,0.2,0,0.4,0,0.7c-0.1,0.2,-0.3,0.4,-0.6,0.7c-0.1,0.1,-0.2,0.2,-0.3,0.3c-0.2,0.2,-0.3,0.3,-0.5,0.4c-0.1,0.2,-0.3,0.3,-0.4,0.5c-0.2,0.1,-0.3,0.3,-0.5,0.5c0,0,0,0.1,0,0.2c0,0,0.1,0,0.2,0.1c0.2,0,0.4,0,0.7,0c0.3,-0.1,0.6,-0.1,0.9,-0.1c0.3,0,0.6,-0.1,0.9,-0.1c0.3,-0.1,0.6,-0.2,0.8,-0.2c0.2,-0.1,0.3,-0.1,0.4,0c0.1,0.1,0.2,0.2,0.2,0.3Z" class="g6_22" />
<path d="M87.5,1044.5l75,0" class="g7_22" />
<path d="M87.5,1059.5l75,0" class="g7_22" />
<path d="M90.3,1051l0.6,0c0.5,0,0.8,-0.4,0.8,-1.4c0,-1,-0.2,-1.6,-0.9,-1.6l-0.5,0ZM89,1046.6l2.2,0c1.3,0,1.7,1.4,1.7,2.9c0,2.1,-0.7,3,-1.9,3l-0.7,0l0,4l-1.3,0Z" class="g8_22" />
<path d="M94.1,1052.7l1.2,0l-0.6,-4.4Zm-0.2,-6.1l1.6,0l1.6,9.9l-1.3,0l-0.3,-2.1l-1.6,0l-0.3,2.1l-1.3,0Z" class="g8_22" />
<path d="M98.4,1050.9l0.6,0c0.6,0,0.9,-0.4,0.9,-1.5c0,-0.9,-0.3,-1.4,-0.9,-1.4l-0.6,0Zm-1.2,-4.3l2.3,0c1,0,1.6,0.8,1.6,2.5c0,1.3,-0.3,2.2,-1,2.5c0.9,0.2,1,0.9,1,3c0,1.1,0.1,1.6,0.3,1.8l0,0.1l-1.4,0c-0.1,-0.3,-0.1,-0.7,-0.1,-1.1l-0.1,-1.9c0,-0.7,-0.2,-1.2,-0.7,-1.2l-0.7,0l0,4.2l-1.2,0Z" class="g8_22" />
<path d="M105,1046l0,2l-2,0l0,8l-1,0l0,-8l-1,0l0,-2Z" class="g8_22" />
<path d="M105.5,1056.5l0,-10" class="g7_22" />
<path d="M108.5,1055l0.5,0c0.9,0,1.1,-0.9,1.1,-3.6c0,-2.2,-0.1,-3.4,-1.1,-3.4l-0.5,0Zm-1.3,-8.4l2.1,0c1.7,0,2,1.9,2,4.8c0,3.5,-0.4,5.1,-2.1,5.1l-2,0Z" class="g8_22" />
<path d="M113.8,1055.2c0.7,0,0.8,-1,0.8,-3.7c0,-2.6,-0.1,-3.7,-0.8,-3.7c-0.8,0,-0.9,1.1,-0.9,3.7c0,2.7,0.1,3.7,0.9,3.7Zm0,-8.8c1.8,0,2.1,2.1,2.1,5.1c0,3,-0.3,5.2,-2.1,5.2c-1.9,0,-2.2,-2.2,-2.2,-5.2c0,-3,0.3,-5.1,2.2,-5.1Z" class="g8_22" />
<path d="M118.9,1046.6l0.9,7.3l0.9,-7.3l1.3,0l-1.4,9.9l-1.6,0l-1.5,-9.9Z" class="g8_22" />
<path d="M122.5,1056.5l0,-10" class="g7_22" />
<path d="M125.9,1055.2c0.8,0,0.9,-1,0.9,-3.7c0,-2.6,-0.1,-3.7,-0.9,-3.7c-0.7,0,-0.8,1.1,-0.8,3.7c0,2.7,0.1,3.7,0.8,3.7Zm0,-8.8c1.9,0,2.2,2.1,2.2,5.1c0,3,-0.3,5.2,-2.2,5.2c-1.8,0,-2.1,-2.2,-2.1,-5.2c0,-3,0.3,-5.1,2.1,-5.1Z" class="g8_22" />
<path d="M128,1056l0,-10l1,0l0,8l2,0l0,2Z" class="g8_22" />
<path d="M135,1046l0,2l-2,0l0,2l2,0l0,2l-2,0l0,2l2,0l0,2l-3,0l0,-10Z" class="g8_22" />
<path d="M139,1046l0,2l-1,0l0,8l-2,0l0,-8l-1,0l0,-2Z" class="g8_22" />
<path d="M140.6,1052.7l1.2,0l-0.6,-4.4Zm-0.2,-6.1l1.6,0l1.6,9.9l-1.3,0l-0.3,-2.1l-1.6,0l-0.3,2.1l-1.3,0Z" class="g8_22" />
<path d="M147,1056l13,0l0,-10l-13,0Zm13,0l-13,0l0,-10l13,0Z" class="g6_22" />
<path d="M149,1051l0,-4l1,0l0,3l1,0l0,1Z" class="g6_22" />
<path d="M151.5,1051.5l0,-4" class="g9_22" />
<path d="M153.2,1050l0,0.1c0,0.4,0.1,0.6,0.5,0.6c0.2,0,0.4,-0.1,0.4,-0.4c0,-0.4,-0.1,-0.5,-0.6,-0.6c-0.6,-0.3,-0.9,-0.5,-0.9,-1.1c0,-0.7,0.4,-1.1,1.1,-1.1c0.6,0,1.1,0.3,1.1,1l0,0.1l-0.7,0c0,-0.3,-0.1,-0.5,-0.4,-0.5c-0.3,0,-0.4,0.2,-0.4,0.4c0,0.2,0,0.3,0.3,0.5l0.6,0.2c0.5,0.2,0.7,0.5,0.7,0.9c0,0.8,-0.5,1.1,-1.3,1.1c-0.8,0,-1.1,-0.4,-1.1,-1l0,-0.2Z" class="g6_22" />
<path d="M157,1047l0,1l-1,0l0,3l-1,0l0,-3l-1,0l0,-1Z" class="g6_22" />
<path d="M157.7,1049.8l0.7,0l-0.3,-1.6l-0.1,0Zm-0.1,-2.2l0.9,0l0.9,3.6l-0.7,0l-0.2,-0.8l-0.9,0l-0.2,0.8l-0.7,0Z" class="g6_22" />
<path d="M150.1,1055.9l0,-2.5l-0.7,0l0,-0.5l0.1,0c0.5,0,0.8,-0.1,0.8,-0.5l0.6,0l0,3.5Z" class="g6_22" />
<path d="M152.7,1053.3l-0.7,1.3l0.7,0Zm-1.2,1.3l1.2,-2.2l0.7,0l0,2.2l0.3,0l0,0.6l-0.3,0l0,0.7l-0.7,0l0,-0.7l-1.2,0Z" class="g6_22" />
<path d="M155.7,1053l-1.3,0l-0.1,0.8c0.2,-0.2,0.4,-0.3,0.7,-0.3c0.7,0,0.8,0.6,0.8,1.2c0,0.7,-0.2,1.3,-1.1,1.3c-0.9,0,-1,-0.6,-1,-1l0,-0.1l0.7,0c0,0.2,0,0.6,0.3,0.6c0.3,0,0.4,-0.3,0.4,-0.7c0,-0.6,-0.1,-0.8,-0.4,-0.8c-0.2,0,-0.3,0.2,-0.3,0.4l-0.7,0l0.2,-2l1.8,0Z" class="g6_22" />
<path d="M156.6,1054.4c0,0.9,0,1.1,0.4,1.1c0.3,0,0.3,-0.3,0.3,-1.2l0,-0.4c0,-0.9,0,-1.1,-0.3,-1.1c-0.4,0,-0.4,0.3,-0.4,1.2Zm0.4,-2c0.8,0,1.1,0.4,1.1,1.7c0,1,-0.1,1.9,-1.1,1.9c-0.9,0,-1.2,-0.5,-1.2,-1.8c0,-0.9,0.1,-1.8,1.2,-1.8Z" class="g6_22" />
<image x="440" y="988" width="78" height="54" xlink:href="shade/5.png" />
<image x="440" y="988" width="34" height="55" xlink:href="shade/6.png" />
<image x="440" y="1004" width="78" height="39" xlink:href="shade/7.png" />
<image x="482" y="988" width="35" height="55" xlink:href="shade/8.png" />
<path fill-rule="evenodd" d="M441.7,989.4l74.4,0l-33.9,22.2c-3.1,2,-3.6,2.7,-7,0.4Z" class="g4_22" />
<image x="441" y="989" width="34" height="53" xlink:href="img/65.png" />
<image x="441" y="989" width="33" height="53" xlink:href="img/66.png" />
<image x="441" y="1005" width="76" height="37" xlink:href="img/67.png" />
<image x="441" y="1005" width="76" height="37" xlink:href="img/68.png" />
<image x="482" y="989" width="35" height="53" xlink:href="img/69.png" />
<image x="483" y="989" width="34" height="53" xlink:href="img/70.png" />
<path fill-rule="evenodd" d="M441.7,989.4l74.4,0L482.2,967.3c-3.1,-1.9,-3.6,-2.7,-6.9,-0.4Z" class="g5_22" />
<path fill-rule="evenodd" d="M443.6,989.4l70.7,0L482,968.4c-2.9,-1.8,-3.3,-2.5,-6.5,-0.4Z" class="g4_22" />
<image x="715.5" y="966" width="3" height="1" xlink:href="img/71.png" transform="scale(0.666 , 1)" />
<image x="395.833" y="966" width="5" height="2" xlink:href="img/72.png" transform="scale(1.2 , 1)" />
<image x="474" y="483" width="8" height="1" xlink:href="img/73.png" transform="scale(1 , 2)" />
<image x="430" y="483.5" width="10" height="1" xlink:href="img/74.png" transform="scale(1.1 , 2)" />
<image x="435.692" y="484" width="12" height="1" xlink:href="img/75.png" transform="scale(1.083 , 2)" />
<image x="471" y="646" width="15" height="2" xlink:href="img/76.png" transform="scale(1 , 1.5)" />
<image x="470" y="970" width="17" height="2" xlink:href="img/77.png" />
<image x="468" y="971" width="21" height="2" xlink:href="img/78.png" />
<image x="446.695" y="485.5" width="22" height="1" xlink:href="img/79.png" transform="scale(1.045 , 2)" />
<image x="466" y="486" width="25" height="1" xlink:href="img/80.png" transform="scale(1 , 2)" />
<image x="465" y="648.666" width="27" height="2" xlink:href="img/81.png" transform="scale(1 , 1.5)" />
<image x="464" y="974" width="29" height="2" xlink:href="img/82.png" />
<image x="463" y="975" width="32" height="2" xlink:href="img/83.png" />
<image x="447.828" y="487.5" width="34" height="1" xlink:href="img/84.png" transform="scale(1.029 , 2)" />
<image x="460" y="488" width="37" height="1" xlink:href="img/85.png" transform="scale(1 , 2)" />
<image x="459" y="977" width="39" height="1" xlink:href="img/86.png" />
<image x="457" y="978" width="43" height="2" xlink:href="img/87.png" />
<image x="456" y="979" width="45" height="2" xlink:href="img/88.png" />
<image x="455" y="980" width="47" height="2" xlink:href="img/89.png" />
<image x="444.92" y="490" width="49" height="1" xlink:href="img/90.png" transform="scale(1.02 , 2)" />
<image x="444.288" y="490.5" width="50.999" height="1" xlink:href="img/91.png" transform="scale(1.019 , 2)" />
<image x="452" y="982" width="54" height="2" xlink:href="img/92.png" />
<image x="450" y="983" width="57" height="2" xlink:href="img/93.png" />
<image x="449" y="984" width="59" height="2" xlink:href="img/94.png" />
<image x="448" y="492" width="61" height="1" xlink:href="img/95.png" transform="scale(1 , 2)" />
<image x="447" y="492.5" width="64" height="1" xlink:href="img/96.png" transform="scale(1 , 2)" />
<image x="446" y="492.5" width="66" height="1" xlink:href="img/97.png" transform="scale(1 , 2)" />
<image x="445" y="987" width="68" height="2" xlink:href="img/98.png" />
<image x="443" y="988" width="72" height="2" xlink:href="img/99.png" />
<image x="442" y="658.666" width="74" height="2" xlink:href="img/100.png" transform="scale(1 , 1.5)" />
<image x="443" y="494.5" width="72" height="1" xlink:href="img/101.png" transform="scale(1 , 2)" />
<image x="444" y="990" width="70" height="1" xlink:href="img/102.png" />
<image x="438.455" y="495" width="67" height="1" xlink:href="img/103.png" transform="scale(1.014 , 2)" />
<image x="446" y="992" width="65" height="2" xlink:href="img/104.png" />
<image x="448" y="993" width="62" height="2" xlink:href="img/105.png" />
<image x="449" y="993" width="59" height="2" xlink:href="img/106.png" />
<image x="450" y="994" width="57" height="1" xlink:href="img/107.png" />
<image x="452" y="497" width="53" height="1" xlink:href="img/108.png" transform="scale(1 , 2)" />
<image x="453" y="996" width="51" height="2" xlink:href="img/109.png" />
<image x="454" y="997" width="48" height="2" xlink:href="img/110.png" />
<image x="456" y="997" width="45" height="2" xlink:href="img/111.png" />
<image x="457" y="998" width="43" height="1" xlink:href="img/112.png" />
<image x="459" y="499" width="39" height="1" xlink:href="img/113.png" transform="scale(1 , 2)" />
<image x="460" y="499.5" width="37" height="1" xlink:href="img/114.png" transform="scale(1 , 2)" />
<image x="461" y="1001" width="35" height="2" xlink:href="img/115.png" />
<image x="463" y="1001" width="31" height="2" xlink:href="img/116.png" />
<image x="464" y="1002" width="29" height="2" xlink:href="img/117.png" />
<image x="447.115" y="501" width="25" height="1" xlink:href="img/118.png" transform="scale(1.04 , 2)" />
<image x="467" y="501.5" width="23" height="1" xlink:href="img/119.png" transform="scale(1 , 2)" />
<image x="444.599" y="502" width="19" height="1" xlink:href="img/120.png" transform="scale(1.052 , 2)" />
<image x="470" y="670" width="17" height="2" xlink:href="img/121.png" transform="scale(1 , 1.5)" />
<image x="471" y="1006" width="15" height="2" xlink:href="img/122.png" />
<image x="435.692" y="503" width="12" height="1" xlink:href="img/123.png" transform="scale(1.083 , 2)" />
<image x="435.692" y="503.5" width="12" height="1" xlink:href="img/124.png" transform="scale(1.083 , 2)" />
<image x="472" y="504" width="2" height="1" xlink:href="img/125.png" transform="scale(1 , 2)" />
<path d="M496.7,1000.5l0,-31.2l-37.8,0l0,30.3l13.3,7.8c0.8,0.5,0.9,1.5,0.4,2.3c1.5,-1.6,1.9,-2.3,3,-3.1c0.8,-0.7,1.6,-0.7,3.1,-0.7c0.7,-0.1,2.3,0.4,3,0.8c0.7,0.7,2.7,2.7,2.7,2.7c0,0,-1.2,-1.5,0.9,-2.5Z" class="g10_22" />
<path d="M461.5,974.5l33,0" class="g11_22" />
<path d="M461.5,982.5l33,0" class="g11_22" />
<path d="M487.5,978.5l0,-2" class="g11_22" />
<path d="M488.5,978.5l0,-2" class="g11_22" />
<path d="M489.4,977.8l0,0.1c0,0.2,0,0.3,0.3,0.3c0.1,0,0.2,-0.1,0.2,-0.2c0,-0.2,-0.1,-0.3,-0.4,-0.4C489.2,977.5,489,977.4,489,977c0,-0.4,0.3,-0.6,0.6,-0.6c0.4,0,0.6,0.2,0.6,0.6l-0.3,0c0,-0.2,-0.1,-0.3,-0.3,-0.3c-0.1,0,-0.2,0.2,-0.2,0.3c0,0.1,0,0.2,0.2,0.2l0.3,0.2c0.3,0.1,0.4,0.2,0.4,0.5c0,0.4,-0.3,0.6,-0.7,0.6c-0.4,0,-0.6,-0.2,-0.6,-0.6l0,-0.1Z" class="g12_22" />
<path d="M490.5,978.5l0,-2" class="g11_22" />
<path d="M492.1,977.7l0.3,0l-0.1,-0.9l-0.1,0ZM492,976.5l0.5,0l0.5,2l-0.4,0L492.5,978l-0.5,0l-0.1,0.5l-0.4,0Z" class="g12_22" />
<path d="M488.1,980.7l0,-1.4l-0.4,0l0,-0.3c0.3,0,0.4,-0.1,0.5,-0.3l0.3,0l0,2Z" class="g12_22" />
<path d="M489.4,979.7c0.2,0,0.3,-0.1,0.3,-0.3c0,-0.3,-0.1,-0.4,-0.3,-0.4c-0.2,0,-0.2,0.1,-0.2,0.4c0,0.2,0.1,0.3,0.2,0.3Zm-0.1,0.5c0,0.2,0,0.2,0.1,0.2c0.2,0,0.3,-0.2,0.3,-0.5c-0.1,0.1,-0.2,0.1,-0.4,0.1c-0.3,0,-0.5,-0.2,-0.5,-0.6c0,-0.4,0.2,-0.7,0.7,-0.7c0.5,0,0.6,0.4,0.6,0.9c0,0.6,0,1.1,-0.7,1.1c-0.3,0,-0.5,-0.1,-0.5,-0.5Z" class="g12_22" />
<path d="M490.5,979.8c0,0.5,0,0.6,0.2,0.6c0.1,0,0.2,-0.1,0.2,-0.6l0,-0.2c0,-0.5,-0.1,-0.6,-0.2,-0.6c-0.2,0,-0.2,0.1,-0.2,0.6Zm0.2,-1.1c0.4,0,0.6,0.3,0.6,1c0,0.5,0,1,-0.6,1c-0.5,0,-0.6,-0.3,-0.6,-0.9c0,-0.6,0,-1.1,0.6,-1.1Z" class="g12_22" />
<path d="M491.7,979.8c0,0.5,0,0.6,0.2,0.6c0.2,0,0.2,-0.1,0.2,-0.6l0,-0.2c0,-0.5,0,-0.6,-0.2,-0.6c-0.2,0,-0.2,0.1,-0.2,0.6Zm0.2,-1.1c0.5,0,0.6,0.3,0.6,1c0,0.5,0,1,-0.6,1c-0.5,0,-0.6,-0.3,-0.6,-0.9c0,-0.6,0,-1.1,0.6,-1.1Z" class="g12_22" />
<path d="M485,981l9,0l0,-6l-9,0Zm9,0l-9,0l0,-6l9,0Z" class="g12_22" />
<path d="M472.8,1009.1c0.1,0,0.2,0,0.2,-0.2c0,-0.1,0,-0.1,-0.1,-0.2l0,-0.1c0.1,0,0.2,0.1,0.2,0.3c0,0.2,-0.1,0.3,-0.3,0.3l0,-0.1Zm-0.1,0.4c-0.1,0.1,-0.1,0.1,-0.1,0.2c0,-0.1,0,-0.1,0.1,-0.1Z" class="g12_22" />
<path d="M473.4,1008.7l-0.1,0l0,0.1c0,0.1,0,0.1,-0.1,0.2l0,-0.4l0.3,0Z" class="g12_22" />
<path d="M484.2,1009.1c0,0.1,0.1,0.1,0.1,0.1l-0.1,0l-0.2,-0.1l0,-0.5l0.1,0c0,0.2,0,0.3,0.1,0.4Z" class="g12_22" />
<path d="M462,976.9l0.1,0c0.2,0,0.3,0.2,0.3,0.6c0,0.6,-0.2,0.7,-0.3,0.7l-0.1,0Zm-0.7,4.6l0.7,0l0,-2.2l0.3,0c0.5,0,0.8,-0.5,0.8,-1.8c0,-1.2,-0.3,-1.8,-0.8,-1.8l-1,0Zm3,0l0.8,0l-0.7,-5.8l-0.9,0l-0.6,5.8l0.8,0l0,-0.9l0.5,0Zm-0.2,-2.2l-0.3,0L464,977Zm1.8,-2.4l0.1,0c0.2,0,0.3,0.1,0.3,0.6c0,0.5,-0.1,0.7,-0.3,0.7l-0.1,0Zm-0.7,4.6l0.7,0l0,-2.3l0.2,0c0.1,0,0.2,0.1,0.2,0.6c0,0.3,0,0.6,0,0.8c0,0.3,0,0.7,0,0.9l0.8,0l0,-0.1c0,0,0,-0.1,-0.1,-0.2c0,-0.1,0,-0.3,0,-0.6l0,-0.5c0,-0.4,0,-0.7,-0.1,-1c0,-0.3,-0.2,-0.4,-0.3,-0.5c0.2,-0.1,0.4,-0.4,0.4,-1.4c0,-0.9,-0.2,-1.5,-0.7,-1.5l-1.1,0Zm1.9,-4.4l0.5,0l0,4.4l0.7,0l0,-4.4l0.5,0l0,-1.4l-1.7,0Zm1.8,4.4l0.8,0l0,-5.8l-0.8,0Zm1.7,-4.6l0.1,0c0.3,0,0.3,0.3,0.3,0.9l0,1.6c0,0.5,0,0.9,-0.2,0.9l-0.2,0Zm-0.7,4.6l1.1,0c0.7,0,0.8,-1.6,0.8,-2.9c0,-1.4,-0.1,-1.7,-0.2,-2.1c-0.1,-0.5,-0.3,-0.8,-0.6,-0.8l-1.1,0Zm3.2,-2.9c0,1.7,0,1.9,-0.2,1.9c-0.2,0,-0.2,-0.2,-0.2,-1.9c0,-1.7,0,-1.9,0.2,-1.9c0.2,0,0.2,0.2,0.2,1.9Zm-1.1,0c0,1.8,0,3,0.9,3c1,0,1,-1.2,1,-3c0,-1.8,0,-3,-1,-3c-0.9,0,-0.9,1.2,-0.9,3Zm3.8,1.6l-0.3,-4.5l-0.8,0l0.6,5.8l0.9,0l0.6,-5.8l-0.8,0Zm1.1,1.3l1.6,0l0,-1.3l-0.9,0l0,-1l0.8,0l0,-1.3l-0.8,0l0,-0.9l0.9,0l0,-1.3l-1.6,0Zm2.6,-4.6c0.2,0,0.3,0.1,0.3,0.6c0,0.5,-0.1,0.7,-0.2,0.7l-0.1,0Zm-0.8,4.6l0.8,0l0,-2.3l0.1,0c0.1,0,0.2,0.1,0.2,0.6c0,0.3,0,0.6,0,0.8c0,0.3,0,0.7,0.1,0.9l0.8,0l0,-0.1c-0.1,0,-0.1,-0.1,-0.1,-0.2c0,-0.1,-0.1,-0.3,-0.1,-0.6l0,-0.5c0,-0.4,0,-0.7,0,-1c-0.1,-0.3,-0.2,-0.4,-0.4,-0.5c0.3,-0.1,0.5,-0.4,0.5,-1.4c0,-0.9,-0.3,-1.5,-0.8,-1.5l-1.1,0Zm2.9,-4.6l0.1,0c0.2,0,0.3,0.3,0.3,0.9l0,1.6c0,0.5,-0.1,0.9,-0.3,0.9l-0.1,0Zm-0.8,4.6l1.1,0c0.8,0,0.8,-1.6,0.8,-2.9c0,-1.4,0,-1.7,-0.1,-2.1c-0.1,-0.5,-0.4,-0.8,-0.7,-0.8l-1.1,0Zm2.2,0l1.6,0l0,-1.3l-0.9,0l0,-1l0.8,0l0,-1.3l-0.8,0l0,-0.9l0.9,0l0,-1.3l-1.6,0Z" class="g12_22" />
<path d="M463.4,1002.3l0,-0.2l-0.2,0Zm-1.2,-0.7l0,-0.3l1.3,0l0,-1.2l-2.4,0l0,0.8Zm1.6,0.9l1.1,0.6l0,-3l-1.1,0Zm2.4,1.4l2.3,1.3c0.5,-0.4,0.5,-1.3,0.5,-2.5c0,-1.6,0,-2.7,-1.4,-2.7c-1.4,0,-1.4,1.1,-1.4,2.7c0,0.5,0,0.9,0,1.2Zm1.7,-1.2c0,1.6,0,1.8,-0.3,1.8c-0.2,0,-0.3,-0.2,-0.3,-1.8c0,-1.5,0.1,-1.7,0.3,-1.7c0.3,0,0.3,0.2,0.3,1.7Zm2.6,-1.5l0.1,0c0.3,0,0.4,0.1,0.4,0.5c0,0.5,-0.2,0.6,-0.4,0.6l-0.1,0Zm-1.1,4.1l1.1,0l0,-2l0.2,0c0.2,0,0.3,0.1,0.3,0.5c0,0.3,0,0.5,0,0.8c0,0.2,0,0.6,0.1,0.7l1.1,0c0,-0.1,0,-0.1,-0.1,-0.2c0,-0.1,0,-0.3,0,-0.6l0,-0.4c0,-0.3,0,-0.7,-0.1,-0.9c-0.1,-0.3,-0.3,-0.4,-0.5,-0.4l0,-0.1c0.3,0,0.6,-0.4,0.6,-1.2c0,-0.9,-0.3,-1.4,-1.1,-1.4l-1.6,0Zm3.1,0l2.5,0l0,-1.1l-1.4,0l0,-1l1.2,0l0,-1.1l-1.2,0l0,-0.8l1.3,0l0,-1.2l-2.4,0Zm4.3,-3.7l1,0c0,-0.9,-0.2,-1.6,-1.3,-1.6c-0.4,0,-0.7,0.2,-0.9,0.3c-0.2,0.3,-0.4,0.7,-0.4,1.4c0,0.8,0.2,1.1,0.8,1.5c0.2,0.1,0.4,0.2,0.6,0.3c0.1,0.1,0.2,0.2,0.2,0.5c0,0.2,-0.1,0.5,-0.3,0.5c-0.2,0,-0.3,-0.2,-0.3,-0.5l0,-0.2l-1,0l0,0.1c0,1.2,0.4,1.5,1.3,1.5c1,0,1.4,-0.4,1.4,-1.7c0,-1.8,-1.6,-1.3,-1.6,-2.3c0,-0.2,0.1,-0.4,0.2,-0.4c0.2,0,0.3,0.2,0.3,0.4Z" class="g12_22" />
<path d="M462.1,994.7l0.1,0c0.3,0,0.3,0.3,0.3,0.7l0,1.4c0,0.3,0,0.7,-0.2,0.7l-0.2,0Zm-1,3.7l1.4,0c1,0,1,-1.3,1,-2.3c0,-1.1,0,-1.3,-0.2,-1.7c-0.1,-0.4,-0.4,-0.6,-0.8,-0.6l-1.4,0Zm3.9,-1.2c0,0.2,0,0.4,-0.2,0.4c-0.1,0,-0.2,-0.1,-0.2,-0.3c0,-0.2,0.1,-0.4,0.2,-0.5c0.1,0,0.2,0,0.2,-0.1Zm0.9,-1.4c0,-0.5,-0.2,-1,-1,-1c-0.8,0,-1.1,0.4,-1.1,1.2l0.8,0c0,-0.2,0.1,-0.4,0.3,-0.4c0.1,0,0.1,0.1,0.1,0.3c0,0.2,0,0.3,-0.2,0.3l-0.4,0.2c-0.4,0.1,-0.7,0.3,-0.7,1c0,0.7,0.2,1.1,0.7,1.1c0.3,0,0.5,-0.2,0.6,-0.5l0.1,0c0,0.1,0,0.3,0,0.4l0.9,0c-0.1,-0.2,-0.1,-0.4,-0.1,-0.5Zm1.6,2.6l0.9,0l0,-2.7c0,-0.6,-0.3,-0.9,-0.6,-0.9c-0.3,0,-0.5,0.2,-0.7,0.5l0,-0.4l-0.9,0l0,3.5l0.9,0l0,-2.3c0,-0.2,0.1,-0.4,0.2,-0.4c0.1,0,0.2,0.1,0.2,0.4Zm1.2,0l1,0l0,-3.5l-1,0Zm0,-3.8l1,0l0,-0.8l-1,0Zm2.1,2.2l1.3,0c0,-1.1,0,-2,-1.1,-2c-1,0,-1.1,0.9,-1.1,1.8c0,1,0.1,1.9,1.1,1.9c0.3,0,0.6,-0.1,0.8,-0.3c0.2,-0.2,0.3,-0.6,0.3,-1l-0.9,0c0,0.3,0,0.5,-0.2,0.5c-0.2,0,-0.2,-0.2,-0.2,-0.4Zm0.4,-0.6l-0.4,0l0,-0.2c0,-0.3,0.1,-0.4,0.2,-0.4c0.2,0,0.2,0.1,0.2,0.4Zm1.1,2.2l0.9,0l0,-4.6l-0.9,0Zm3.9,0l1,0l-0.8,-4.6l-1.2,0l-0.8,4.6l1,0l0.1,-0.7l0.6,0ZM476,996.7l-0.4,0l0.2,-1.9Zm1.4,1.7l0.9,0l0,-1.4l-0.9,0Z" class="g12_22" />
<path d="M461.5,972.5l0,-1" class="g11_22" />
<path d="M461.5,972.5l0,-1" class="g11_22" />
<path d="M462.5,972.5l0,-1" class="g11_22" />
<path d="M462.9,972.2c0,0.2,-0.1,0.4,-0.2,0.4c-0.2,0,-0.3,-0.3,-0.3,-0.6c0,-0.3,0.1,-0.6,0.3,-0.6c0.1,0,0.2,0.2,0.2,0.4l-0.1,0c0,-0.1,0,-0.3,-0.1,-0.3c-0.1,0,-0.2,0.3,-0.2,0.5c0,0.3,0.1,0.5,0.2,0.5c0.1,0,0.1,-0.1,0.1,-0.3Z" class="g12_22" />
<path d="M463.4,972.2c0,0.2,-0.1,0.4,-0.2,0.4c-0.2,0,-0.2,-0.3,-0.2,-0.6c0,-0.3,0,-0.6,0.2,-0.6c0.1,0,0.2,0.2,0.2,0.4l-0.1,0c0,-0.1,0,-0.3,-0.1,-0.3c-0.1,0,-0.2,0.3,-0.2,0.5c0,0.3,0.1,0.5,0.2,0.5c0.1,0,0.1,-0.1,0.1,-0.3Z" class="g12_22" />
<path d="M463.5,972.5l0,-1" class="g11_22" />
<path d="M463.8,972c0,0.3,0,0.5,0.1,0.5c0.1,0,0.1,-0.2,0.1,-0.5c0,-0.2,0,-0.5,-0.1,-0.5c-0.1,0,-0.1,0.3,-0.1,0.5Zm0.3,0c0,0.3,0,0.6,-0.2,0.6c-0.2,0,-0.2,-0.3,-0.2,-0.6c0,-0.3,0,-0.6,0.2,-0.6c0.2,0,0.2,0.3,0.2,0.6Z" class="g12_22" />
<path d="M464.5,972.5l0,-1" class="g11_22" />
<path d="M464.5,972.5l0,-1" class="g11_22" />
<path d="M465.5,971.7c0,-0.1,0,-0.2,-0.1,-0.2c-0.1,0,-0.1,0.1,-0.1,0.2c0,0.4,0.3,0.2,0.3,0.6c0,0.3,-0.1,0.3,-0.2,0.3c-0.2,0,-0.2,-0.1,-0.2,-0.3l0.1,0c0,0.1,0,0.2,0.1,0.2c0.1,0,0.1,-0.1,0.1,-0.2c0,-0.3,-0.3,-0.1,-0.3,-0.6c0,-0.1,0,-0.3,0.2,-0.3c0.1,0,0.2,0.1,0.2,0.3Z" class="g12_22" />
<path d="M466,972l0.1,0c0.1,0,0.1,-0.1,0.1,-0.2c0,-0.2,0,-0.2,-0.1,-0.2l-0.1,0Zm-0.1,-0.6l0.2,0c0.1,0,0.2,0,0.2,0.4c0,0.2,-0.1,0.3,-0.2,0.3l-0.1,0l0,0.5l-0.1,0Z" class="g12_22" />
<path d="M466.5,972l0.1,0c0,0,0.1,0,0.1,-0.3c0,-0.1,0,-0.1,-0.1,-0.1l-0.1,0Zm-0.1,-0.6l0.2,0c0.1,0,0.2,0.2,0.2,0.3c0,0.2,0,0.3,-0.1,0.3c0.1,0.1,0.1,0.1,0.1,0.2l0,0.2c0,0.2,0,0.2,0,0.2l-0.1,0c0,0,0,-0.1,0,-0.1l0,-0.2c0,-0.2,-0.1,-0.2,-0.1,-0.2l-0.1,0l0,0.5l-0.1,0Z" class="g12_22" />
<path d="M466.5,972.5l0,-1" class="g11_22" />
<path d="M467.5,972.5l0,-1" class="g11_22" />
<path d="M467.5,972.5l0,-1" class="g11_22" />
<path d="M468.4,972l0.1,0c0,0,0.1,0,0.1,-0.3c0,-0.1,0,-0.1,-0.1,-0.1l-0.1,0Zm-0.1,-0.6l0.2,0c0.1,0,0.2,0.2,0.2,0.3c0,0.2,0,0.3,-0.1,0.3c0,0.1,0.1,0.1,0.1,0.2l0,0.2c0,0.2,0,0.2,0,0.2l-0.1,0c0,0,0,-0.1,0,-0.1l0,-0.2c0,-0.2,-0.1,-0.2,-0.1,-0.2l-0.1,0l0,0.5l-0.1,0Z" class="g12_22" />
<path d="M468.5,972.5l0,-1" class="g11_22" />
<path d="M468.5,972.5l0,-1" class="g11_22" />
<path d="M469.8,971.7c0,-0.1,0,-0.2,-0.1,-0.2c-0.1,0,-0.1,0.1,-0.1,0.2c0,0.4,0.3,0.2,0.3,0.6c0,0.3,-0.1,0.3,-0.2,0.3c-0.2,0,-0.2,-0.1,-0.2,-0.3c0,0.1,0,0.2,0.2,0.2c0,0,0.1,-0.1,0.1,-0.2c0,-0.3,-0.3,-0.1,-0.3,-0.6c0,-0.1,0,-0.3,0.2,-0.3c0.1,0,0.2,0.1,0.2,0.3Z" class="g12_22" />
<path d="M470,972.5l0.1,0l0,0.1c0,0.1,0,0.2,-0.1,0.3l0,-0.1c0,0,0,-0.1,0,-0.1l0,-0.1Z" class="g12_22" />
<path d="M470.5,972.5l0,-1" class="g11_22" />
<path d="M471,972.5l0.1,0c0.1,0,0.2,-0.1,0.2,-0.2c0,-0.2,-0.1,-0.2,-0.2,-0.2l-0.1,0Zm0,-0.5l0.1,0c0.1,0,0.1,-0.1,0.1,-0.2c0,-0.2,0,-0.2,-0.1,-0.2l-0.1,0Zm-0.1,-0.6l0.3,0c0,0,0.1,0.1,0.1,0.3c0,0.2,0,0.3,-0.1,0.3c0.1,0,0.1,0.1,0.1,0.3c0,0.2,0,0.3,-0.2,0.3l-0.2,0Z" class="g12_22" />
<path d="M471.5,972.5l0,-1" class="g11_22" />
<path d="M471.5,972.5l0,-1" class="g11_22" />
<path d="M472.2,972l0.1,0c0,0,0.1,0,0.1,-0.3c0,-0.1,0,-0.1,-0.1,-0.1l-0.1,0Zm-0.1,-0.6l0.2,0c0.1,0,0.2,0.2,0.2,0.3c0,0.2,0,0.3,-0.1,0.3c0.1,0.1,0.1,0.1,0.1,0.2l0,0.2c0,0.2,0,0.2,0,0.2l-0.1,0c0,0,0,-0.1,0,-0.1l0,-0.2c0,-0.2,-0.1,-0.2,-0.1,-0.2l-0.1,0l0,0.5l-0.1,0Z" class="g12_22" />
<path d="M472.5,972.5l0,-1" class="g11_22" />
<path d="M472.5,972.5l0,-1" class="g11_22" />
<path d="M473.8,971.7c0,-0.1,0,-0.2,-0.1,-0.2c0,0,-0.1,0.1,-0.1,0.2c0,0.4,0.3,0.2,0.3,0.6c0,0.3,-0.1,0.3,-0.2,0.3c-0.1,0,-0.2,-0.1,-0.2,-0.3l0.1,0c0,0.1,0,0.2,0.1,0.2c0.1,0,0.2,-0.1,0.2,-0.2c0,-0.3,-0.4,-0.1,-0.4,-0.6c0,-0.1,0.1,-0.3,0.2,-0.3c0.2,0,0.2,0.1,0.2,0.3Z" class="g12_22" />
<path d="M474.1,972.5l0,0.1c0,0.1,0,0.2,0,0.3l0,-0.1c0,0,0,-0.1,0,-0.1l0,-0.1Z" class="g12_22" />
<path d="M474.8,971.7c0,-0.1,0,-0.2,-0.1,-0.2c-0.1,0,-0.1,0.1,-0.1,0.2c0,0.4,0.3,0.2,0.3,0.6c0,0.3,-0.1,0.3,-0.2,0.3c-0.2,0,-0.2,-0.1,-0.2,-0.3l0.1,0c0,0.1,0,0.2,0.1,0.2c0.1,0,0.1,-0.1,0.1,-0.2c0,-0.3,-0.3,-0.1,-0.3,-0.6c0,-0.1,0,-0.3,0.2,-0.3c0.1,0,0.2,0.1,0.2,0.3Z" class="g12_22" />
<path d="M475.5,972.5l0,-1" class="g11_22" />
<path d="M475.5,972.5l0,-1" class="g11_22" />
<path d="M475.9,971.4l0.1,0l0,0.9c0,0.1,0,0.2,0.1,0.2c0.1,0,0.1,-0.1,0.1,-0.2l0,-0.9l0.1,0l0,0.9c0,0.2,-0.1,0.3,-0.2,0.3c-0.2,0,-0.2,-0.1,-0.2,-0.3Z" class="g12_22" />
<path d="M476.5,972.5l0,-1" class="g11_22" />
<path d="M476.5,972.5l0,-1" class="g11_22" />
<path d="M477.5,972.5l0,-1" class="g11_22" />
<path d="M477.5,972.5l0,-1" class="g11_22" />
<path d="M478.5,972.5l0,-1" class="g11_22" />
<path d="M478.5,972.5l0,-1" class="g11_22" />
<path d="M479.5,971.7c0,-0.1,0,-0.2,-0.1,-0.2c0,0,-0.1,0.1,-0.1,0.2c0,0.4,0.4,0.2,0.4,0.6c0,0.3,-0.2,0.3,-0.3,0.3c-0.1,0,-0.2,-0.1,-0.2,-0.3l0.1,0c0,0.1,0,0.2,0.1,0.2c0.1,0,0.2,-0.1,0.2,-0.2c0,-0.3,-0.4,-0.1,-0.4,-0.6c0,-0.1,0.1,-0.3,0.2,-0.3c0.2,0,0.2,0.1,0.2,0.3Z" class="g12_22" />
<path d="M479.5,972.5l0,-1" class="g11_22" />
<path d="M480.7,972c0,0.3,0.1,0.5,0.2,0.5c0.1,0,0.1,-0.2,0.1,-0.5c0,-0.2,0,-0.5,-0.1,-0.5c-0.1,0,-0.2,0.3,-0.2,0.5Zm0.4,0c0,0.3,0,0.6,-0.2,0.6c-0.2,0,-0.2,-0.3,-0.2,-0.6c0,-0.3,0,-0.6,0.2,-0.6c0.2,0,0.2,0.3,0.2,0.6Z" class="g12_22" />
<path d="M481.3,972.5l0.1,0c0.1,0,0.1,-0.1,0.1,-0.2c0,-0.2,0,-0.2,-0.1,-0.2l-0.1,0Zm0,-0.5l0.1,0c0,0,0.1,-0.1,0.1,-0.2c0,-0.2,0,-0.2,-0.1,-0.2l-0.1,0Zm-0.1,-0.6l0.2,0c0.1,0,0.2,0.1,0.2,0.3c0,0.2,0,0.3,-0.1,0.3c0.1,0,0.1,0.1,0.1,0.3c0,0.2,-0.1,0.3,-0.2,0.3l-0.2,0Z" class="g12_22" />
<path d="M481.5,972.5l0,-1" class="g11_22" />
<path d="M482.5,972.5l0,-1" class="g11_22" />
<path d="M482.7,971.8c0,-0.2,0,-0.3,-0.1,-0.3c-0.1,0,-0.2,0.3,-0.2,0.5c0,0.3,0.1,0.5,0.2,0.5c0.1,0,0.1,-0.2,0.1,-0.4l-0.1,0l0,-0.1l0.2,0l0,0.6l-0.1,0l0,-0.1c0,0.1,-0.1,0.1,-0.1,0.1c-0.2,0,-0.3,-0.2,-0.3,-0.6c0,-0.3,0.1,-0.6,0.3,-0.6c0.2,0,0.2,0.3,0.2,0.4Z" class="g12_22" />
<path d="M482.5,972.5l0,-1" class="g11_22" />
<path d="M483.5,972.5l0,-1" class="g11_22" />
<path d="M483.9,972c0,0.3,0,0.5,0.1,0.5c0.2,0,0.2,-0.2,0.2,-0.5c0,-0.2,0,-0.5,-0.2,-0.5c-0.1,0,-0.1,0.3,-0.1,0.5Zm0.4,0c0,0.3,-0.1,0.6,-0.3,0.6c-0.2,0,-0.2,-0.3,-0.2,-0.6c0,-0.3,0,-0.6,0.2,-0.6c0.2,0,0.3,0.3,0.3,0.6Z" class="g12_22" />
<path d="M484.5,972c0.1,0,0.2,0,0.2,-0.3c0,-0.1,-0.1,-0.1,-0.1,-0.1l-0.1,0Zm-0.1,-0.6l0.2,0c0.1,0,0.2,0.2,0.2,0.3c0,0.2,-0.1,0.3,-0.1,0.3c0,0.1,0.1,0.1,0.1,0.2l0,0.2c0,0.2,0,0.2,0,0.2l-0.1,0c0,0,0,-0.1,0,-0.1l0,-0.2c0,-0.2,-0.1,-0.2,-0.1,-0.2l-0.1,0l0,0.5l-0.1,0Z" class="g12_22" />
<path d="M484.5,972.5l0,-1" class="g11_22" />
<path d="M485.5,972.5l0,-1" class="g11_22" />
<path d="M485.9,971.7c0,-0.1,-0.1,-0.2,-0.2,-0.2c0,0,-0.1,0.1,-0.1,0.2c0,0.4,0.4,0.2,0.4,0.6c0,0.3,-0.2,0.3,-0.3,0.3c-0.1,0,-0.2,-0.1,-0.2,-0.3l0.1,0c0,0.1,0,0.2,0.2,0.2c0,0,0.1,-0.1,0.1,-0.2c0,-0.3,-0.4,-0.1,-0.4,-0.6c0,-0.1,0.1,-0.3,0.2,-0.3c0.2,0,0.2,0.1,0.2,0.3Z" class="g12_22" />
<path d="M486.5,971.6c-0.1,0,-0.1,0.1,-0.1,0.2c0,0.2,0,0.3,0.1,0.3c0.1,0,0.1,-0.1,0.1,-0.3c0,-0.1,-0.1,-0.2,-0.1,-0.2Zm-0.1,0.8c0,0.1,0,0.1,0.1,0.1c0.1,0,0.1,-0.3,0.1,-0.3l0,-0.1c0,0,-0.1,0.1,-0.2,0.1c-0.1,0,-0.1,-0.1,-0.1,-0.3c0,-0.3,0,-0.4,0.2,-0.4c0.2,0,0.2,0.3,0.2,0.5c0,0.3,0,0.6,-0.2,0.6c-0.2,0,-0.2,-0.2,-0.2,-0.2Z" class="g12_22" />
<path d="M487.1,972.5l0.1,0c0.1,0,0.1,-0.3,0.1,-0.5c0,-0.2,0,-0.4,-0.1,-0.4l-0.1,0ZM487,971.4l0.2,0c0.2,0,0.2,0.3,0.2,0.6c0,0.3,0,0.6,-0.2,0.6l-0.2,0Z" class="g12_22" />
<path d="M487.5,972.5l0,-1" class="g11_22" />
<path d="M488.5,972.5l0,-1" class="g11_22" />
<path d="M489,971.8c0,-0.2,0,-0.3,-0.1,-0.3c-0.1,0,-0.1,0.3,-0.1,0.5c0,0.3,0,0.5,0.1,0.5c0.1,0,0.2,-0.2,0.2,-0.4l-0.2,0l0,-0.1l0.2,0l0,0.6l0,-0.1c-0.1,0.1,-0.1,0.1,-0.2,0.1c-0.2,0,-0.2,-0.2,-0.2,-0.6c0,-0.3,0,-0.6,0.2,-0.6c0.2,0,0.2,0.3,0.2,0.4Z" class="g12_22" />
<path d="M489.3,972c0,0.3,0,0.5,0.2,0.5c0.1,0,0.1,-0.2,0.1,-0.5c0,-0.2,0,-0.5,-0.1,-0.5c-0.2,0,-0.2,0.3,-0.2,0.5Zm0.4,0c0,0.3,-0.1,0.6,-0.2,0.6c-0.2,0,-0.3,-0.3,-0.3,-0.6c0,-0.3,0.1,-0.6,0.3,-0.6c0.1,0,0.2,0.3,0.2,0.6Z" class="g12_22" />
<path d="M490.1,971.7c0,-0.1,-0.1,-0.2,-0.1,-0.2c-0.1,0,-0.1,0.1,-0.1,0.2c0,0.4,0.3,0.2,0.3,0.6c0,0.3,-0.1,0.3,-0.2,0.3c-0.2,0,-0.2,-0.1,-0.2,-0.3c0,0.1,0,0.2,0.2,0.2c0,0,0.1,-0.1,0.1,-0.2c0,-0.3,-0.3,-0.1,-0.3,-0.6c0,-0.1,0,-0.3,0.2,-0.3c0.1,0,0.2,0.1,0.2,0.3Z" class="g12_22" />
<path d="M490.5,972.5l0,-1" class="g11_22" />
<path d="M490.8,972c0,0.3,0,0.5,0.1,0.5c0.2,0,0.2,-0.2,0.2,-0.5c0,-0.2,0,-0.5,-0.2,-0.5c-0.1,0,-0.1,0.3,-0.1,0.5Zm0.4,0c0,0.3,-0.1,0.6,-0.3,0.6c-0.2,0,-0.2,-0.3,-0.2,-0.6c0,-0.3,0,-0.6,0.2,-0.6c0.2,0,0.3,0.3,0.3,0.6Z" class="g12_22" />
<path d="M491.6,972.5l0.1,0c0.1,0,0.2,-0.3,0.2,-0.5c0,-0.2,-0.1,-0.4,-0.2,-0.4l-0.1,0Zm-0.1,-1.1l0.2,0c0.2,0,0.2,0.3,0.2,0.6c0,0.3,0,0.6,-0.2,0.6l-0.2,0Z" class="g12_22" />
<path d="M492.5,972.5l0,-1" class="g11_22" />
<path d="M493.1,972.6l-0.4,0c0,-0.2,0.1,-0.3,0.2,-0.5c0.1,-0.1,0.1,-0.2,0.1,-0.3c0,-0.1,0,-0.2,-0.1,-0.2c-0.1,0,-0.1,0.2,-0.1,0.2l-0.1,0c0,-0.2,0.1,-0.3,0.2,-0.3c0.2,0,0.2,0.2,0.2,0.3c0,0.1,0,0.2,-0.1,0.4l-0.1,0.1c-0.1,0.1,-0.1,0.1,-0.1,0.2l0.3,0Z" class="g12_22" />
<path d="M493.4,972.5c0.1,0,0.1,-0.2,0.1,-0.4c0,-0.3,0,-0.5,-0.1,-0.5c-0.1,0,-0.1,0.2,-0.1,0.5c0,0.2,0,0.4,0.1,0.4Zm-0.2,-0.4c0,-0.3,0,-0.6,0.2,-0.6c0.2,0,0.2,0.3,0.2,0.6c0,0.2,0,0.5,-0.2,0.5c-0.2,0,-0.2,-0.3,-0.2,-0.5Z" class="g12_22" />
<path d="M493.7,971.6c0.1,0,0.1,0,0.2,-0.1l0,1.1l-0.1,0l0,-0.9l-0.1,0Z" class="g12_22" />
<path d="M494.2,971.5l0.3,0l0,0.1l-0.3,0l0,0.3c0.1,0,0.1,0,0.1,0c0.1,0,0.2,0.1,0.2,0.3c0,0.3,0,0.4,-0.2,0.4c-0.1,0,-0.2,-0.2,-0.2,-0.3l0.1,0c0,0.1,0,0.2,0.1,0.2c0.1,0,0.1,-0.1,0.1,-0.3c0,-0.1,0,-0.2,-0.1,-0.2c0,0,-0.1,0.1,-0.1,0.1l-0.1,0Z" class="g12_22" />
<path d="M484,1000.8l0.2,-1.9l0.6,-1.5c0,0,2.4,-0.8,4.3,0l0.5,1.7l-1,3.5l-2.6,0Z" class="g13_22" />
<path d="M480,1005.4l8,0l5.8,-3.2l0,-1.9c0,0,-0.3,-1.6,-2.5,-1.4c0,0,-1,-1.5,-2.2,-1.5l-1.1,4l-0.9,-1.6l-1,1.6l-1.3,-4c0,0,-1.6,0,-2.3,1.4c0,0,-2.3,-0.3,-2.5,1.6Z" class="g14_22" />
<path d="M487.1,999.8l-1,-0.9l1,-1l0.9,1Z" class="g14_22" />
<path d="M491.7,992.4c0,3,-2.1,5.5,-4.8,5.5c-2.7,0,-4.8,-2.5,-4.8,-5.5c0,-3.1,2.1,-5.6,4.8,-5.6c2.7,0,4.8,2.5,4.8,5.6Z" class="g15_22" />
<path d="M482.8,994.3c0.2,0.6,0,1.3,-0.4,1.4c-0.4,0.1,-0.8,-0.4,-1,-1.1c-0.2,-0.7,0,-1.3,0.4,-1.4c0.4,-0.1,0.8,0.4,1,1.1Z" class="g15_22" />
<path d="M490.9,994.3c-0.2,0.6,0,1.3,0.3,1.4c0.4,0.1,0.9,-0.4,1.1,-1.1c0.1,-0.7,0,-1.3,-0.4,-1.4c-0.4,-0.1,-0.8,0.4,-1,1.1Z" class="g15_22" />
<path d="M485.9,990.9c0,0.1,-0.1,0.2,-0.2,0.2l-1.2,0c-0.1,0,-0.2,-0.1,-0.2,-0.2c0,-0.1,0.1,-0.2,0.2,-0.2l1.2,0c0.1,0,0.2,0.1,0.2,0.2Z" class="g16_22" />
<path d="M489.3,990.9c0,0.1,-0.1,0.2,-0.2,0.2l-1.3,0c-0.1,0,-0.2,-0.1,-0.2,-0.2c0,-0.1,0.1,-0.2,0.2,-0.2l1.3,0c0.1,0,0.2,0.1,0.2,0.2Z" class="g16_22" />
<path d="M490.7,988.8c-0.4,0.3,-0.6,0.6,-0.6,0.9l0.8,4.5c0,0,0.5,-0.5,0.7,-1c0.1,-0.4,0.1,-0.5,0.1,-0.9c0,-1.3,-0.4,-2.5,-1,-3.5Z" class="g16_22" />
<path d="M482.1,993.2l0.6,1l0.7,-4.5c0.1,-0.3,-0.1,-0.5,-0.4,-0.8c-0.6,0.9,-0.9,2.1,-0.9,3.4c0,0.4,0,0.5,0,0.9Z" class="g16_22" />
<path d="M485.8,995.7c0,0,1.1,-0.3,2,0Z" class="g17_22" />
<path d="M487.7,993.8c0,-0.1,0,-0.1,-0.1,-0.1l-0.8,-1.9l-0.8,1.9c-0.1,0.1,-0.1,0.3,-0.1,0.4c0,0.5,0.4,0.9,0.9,0.9c0.5,0,0.9,-0.4,0.9,-0.9c0,-0.1,0,-0.2,0,-0.3Z" class="g17_22" />
<path d="M485.9,992.4c0,0.4,-0.3,0.8,-0.7,0.8c-0.4,0,-0.7,-0.4,-0.7,-0.8c0,-0.5,0.3,-0.9,0.7,-0.9c0.4,0,0.7,0.4,0.7,0.9Z" class="g18_22" />
<path d="M484.9,992.7c0,0.1,0.1,0.3,0.3,0.3c0.1,0,0.3,-0.2,0.3,-0.3c0,-0.2,-0.2,-0.3,-0.3,-0.3c-0.2,0,-0.3,0.1,-0.3,0.3Z" class="g19_22" />
<path d="M489.2,992.4c0,0.4,-0.4,0.8,-0.8,0.8c-0.4,0,-0.7,-0.4,-0.7,-0.8c0,-0.5,0.3,-0.9,0.7,-0.9c0.4,0,0.8,0.4,0.8,0.9Z" class="g18_22" />
<path d="M488.1,992.7c0,0.1,0.2,0.3,0.3,0.3c0.2,0,0.3,-0.2,0.3,-0.3c0,-0.2,-0.1,-0.3,-0.3,-0.3c-0.1,0,-0.3,0.1,-0.3,0.3Z" class="g19_22" />
<image x="468" y="996" width="21" height="14" xlink:href="img/126.png" />
<path d="M107.1,1262.4l3,-2.8l-3,-2.6c-0.3,-0.3,-0.4,-0.8,-0.2,-1.2c0.2,-0.4,0.7,-0.5,1,-0.2l3.8,3.3c0.2,0.2,0.3,0.4,0.3,0.7c0,0.3,-0.1,0.5,-0.3,0.7l-3.7,3.4c-0.3,0.3,-0.8,0.2,-1,-0.2c-0.2,-0.3,-0.2,-0.9,0.1,-1.1Z" class="g20_22" />
<path d="M83.5,1269.5l13,0" class="g21_22" />
<path d="M472.7,984.9l0.1,0l0,-0.5l0.2,0c0.2,0,0.3,-0.1,0.3,-0.2c0,-0.3,-0.2,-0.3,-0.3,-0.3l-0.3,0Zm0.1,-0.9l0.2,0c0.1,0,0.2,0,0.2,0.2c0,0.1,-0.1,0.1,-0.2,0.1l-0.2,0Zm0.6,0.9l0.1,0l0,-0.5l0.1,0c0.1,0,0.2,0,0.2,0.2l0,0.1c0,0.1,0,0.1,0,0.2l0.2,0c-0.1,-0.1,-0.1,-0.1,-0.1,-0.2l0,-0.2c0,0,0,-0.1,-0.1,-0.1c0.1,-0.1,0.1,-0.2,0.1,-0.3c0,-0.1,-0.1,-0.2,-0.2,-0.2l-0.3,0Zm0.1,-0.9l0.1,0c0.1,0,0.2,0,0.2,0.1c0,0.2,-0.1,0.2,-0.2,0.2l-0.1,0Zm0.5,0.9l0.6,0l0,-0.2l-0.4,0l0,-0.3l0.3,0l0,-0.1l-0.3,0l0,-0.3l0.4,0l0,-0.1l-0.6,0Zm1.1,-0.4c0,0.1,0,0.3,-0.1,0.3c-0.2,0,-0.2,-0.2,-0.2,-0.4c0,-0.3,0,-0.4,0.2,-0.4c0.1,0,0.1,0,0.1,0.2l0.1,0c0,-0.2,0,-0.3,-0.2,-0.3c-0.3,0,-0.4,0.2,-0.4,0.5c0,0.2,0.1,0.5,0.4,0.5c0.2,0,0.2,-0.2,0.3,-0.4Zm0.2,0.4l0.1,0l0,-0.3l0.4,0l0,0.3l0.2,0l-0.3,-1l-0.2,0Zm0.3,-0.9l0.1,0.5l-0.2,0Zm0.4,0.9l0.1,0l0,-0.8l0.3,0.8l0.2,0l0,-1l-0.1,0l0,0.8l-0.3,-0.8l-0.2,0Zm0.9,-0.9l0.1,0c0.2,0,0.2,0.2,0.2,0.4c0,0.1,0,0.4,-0.2,0.4l-0.1,0Zm-0.1,0.9l0.2,0c0.3,0,0.4,-0.3,0.4,-0.5c0,-0.3,-0.1,-0.5,-0.4,-0.5l-0.2,0Zm0.7,0l0.1,0l0,-1l-0.1,0Zm0.4,-0.9l0.1,0c0.2,0,0.2,0.2,0.2,0.4c0,0.1,0,0.4,-0.2,0.4l-0.1,0Zm-0.2,0.9l0.3,0c0.3,0,0.3,-0.3,0.3,-0.5c0,-0.3,0,-0.5,-0.3,-0.5l-0.3,0Z" class="g22_22" />
<path d="M478.5,984.5l0,-1" class="g23_22" />
<path d="M479.3,984l0.3,0l0,-0.1l-0.6,0l0,0.1l0.2,0l0,0.9l0.1,0Zm0.7,-0.1c-0.3,0,-0.3,0.2,-0.3,0.5c0,0.2,0,0.5,0.3,0.5c0.3,0,0.3,-0.3,0.3,-0.5c0,-0.3,0,-0.5,-0.3,-0.5Zm0,0.1c0.2,0,0.2,0.1,0.2,0.4c0,0.2,0,0.4,-0.2,0.4c-0.2,0,-0.2,-0.2,-0.2,-0.4c0,-0.3,0,-0.4,0.2,-0.4Zm0.7,0.9l0.1,0l0.1,-0.3l0.3,0l0.1,0.3l0.1,0l-0.3,-1l-0.1,0ZM481,984l0.2,0.5l-0.3,0Z" class="g22_22" />
<image x="206" y="669" width="108" height="97" xlink:href="img/127.png" />
<image x="535" y="418" width="251" height="84" xlink:href="img/128.png" />
<image x="530" y="507" width="265" height="99" xlink:href="img/129.png" />
<image x="466" y="663" width="274" height="97" xlink:href="img/130.png" />
<image x="82" y="1090" width="291" height="104" xlink:href="img/131.png" />
</svg>