<?xml version="1.0" encoding="UTF-8" standalone="no"?>
<!DOCTYPE svg PUBLIC "-//W3C//DTD SVG 1.1//EN"
"http://www.w3.org/Graphics/SVG/1.1/DTD/svg11.dtd">
<svg version="1.1" xmlns="http://www.w3.org/2000/svg" xmlns:xlink="http://www.w3.org/1999/xlink">
<defs>
<style type="text/css"><![CDATA[
.g3_29{
fill: #FFFFFF;
}
.g2_29{
fill: #4D4A4B;
}
.g6_29{
fill: none;
stroke: #2AABE1;
stroke-width: 3;
stroke-linecap: butt;
stroke-linejoin: miter;
stroke-miterlimit: 22;
}
.g1_29{
fill: #A84097;
}
.g5_29{
fill: #364E60;
}
.g4_29{
fill: #211D1D;
}
]]></style>
</defs>
<path d="M-13.2,-15.7l0,49.4l537,0l39.5,78.5l358.7,0l0,-127.9Z" class="g1_29" />
<path fill-rule="evenodd" d="M83,507l163,0l0,-22L83,485l0,22Z" class="g1_29" />
<path d="M84.9,960.2l0,-62.1l761.4,0l0,37.3l-26.7,24.8Z" class="g2_29" />
<path d="M101,1021l0,33l32,0Z" class="g3_29" />
<path d="M826.8,1050.7c0,9.2,-7.5,16.6,-16.6,16.6l-692.5,0c-9.2,0,-16.6,-7.4,-16.6,-16.6l0,-51.4c0,-9.1,7.4,-16.6,16.6,-16.6l692.5,0c9.1,0,16.6,7.5,16.6,16.6Z" class="g1_29" />
<path d="M140.3,1001.9c-12.1,0,-22,9.8,-22,22c0,7.1,3.3,13.3,8.4,17.4c3.8,2.5,-2.2,9.6,-2.2,9.6c0,0,10,0.2,15.8,-4.9c12.2,0,22.1,-9.9,22.1,-22.1c0,-12.2,-9.9,-22,-22.1,-22Z" class="g3_29" />
<path d="M133,1025.1c0,1.8,-1.5,3.2,-3.3,3.2c-1.8,0,-3.2,-1.4,-3.2,-3.2c0,-1.8,1.4,-3.3,3.2,-3.3c1.8,0,3.3,1.5,3.3,3.3Z" class="g4_29" />
<path d="M143.6,1025.1c0,1.8,-1.5,3.2,-3.3,3.2c-1.7,0,-3.2,-1.4,-3.2,-3.2c0,-1.8,1.5,-3.3,3.2,-3.3c1.8,0,3.3,1.5,3.3,3.3Z" class="g4_29" />
<path d="M154.2,1025.1c0,1.8,-1.4,3.2,-3.2,3.2c-1.8,0,-3.3,-1.4,-3.3,-3.2c0,-1.8,1.5,-3.3,3.3,-3.3c1.8,0,3.2,1.5,3.2,3.3Z" class="g4_29" />
<path d="M102,388l0,32l32,0Z" class="g3_29" />
<path d="M827.6,437.7c0,9.2,-7.4,16.6,-16.6,16.6l-692.4,0c-9.2,0,-16.6,-7.4,-16.6,-16.6l0,-81.6c0,-9.2,7.4,-16.6,16.6,-16.6l692.4,0c9.2,0,16.6,7.4,16.6,16.6Z" class="g1_29" />
<path d="M141.2,368.5c-12.2,0,-22,9.9,-22,22.1c0,7,3.2,13.3,8.4,17.3c3.8,2.5,-2.2,9.6,-2.2,9.6c0,0,10,0.2,15.8,-4.9c12.2,0,22.1,-9.9,22.1,-22c0,-12.2,-9.9,-22.1,-22.1,-22.1Z" class="g3_29" />
<path d="M133.8,391.7c0,1.8,-1.4,3.2,-3.2,3.2c-1.8,0,-3.2,-1.4,-3.2,-3.2c0,-1.8,1.4,-3.2,3.2,-3.2c1.8,0,3.2,1.4,3.2,3.2Z" class="g4_29" />
<path d="M144.4,391.7c0,1.8,-1.4,3.2,-3.2,3.2c-1.8,0,-3.2,-1.4,-3.2,-3.2c0,-1.8,1.4,-3.2,3.2,-3.2c1.8,0,3.2,1.4,3.2,3.2Z" class="g4_29" />
<path d="M155.1,391.7c0,1.8,-1.5,3.2,-3.3,3.2c-1.8,0,-3.2,-1.4,-3.2,-3.2c0,-1.8,1.4,-3.2,3.2,-3.2c1.8,0,3.3,1.4,3.3,3.2Z" class="g4_29" />
<path fill-rule="evenodd" d="M84,247l218,0l0,-22L84,225l0,22Z" class="g1_29" />
<path d="M339,124l-351,0l0,68l316,0Z" class="g5_29" />
<path d="M817.7,1262.4l3,-2.8l-3,-2.6c-0.3,-0.3,-0.4,-0.8,-0.2,-1.2c0.2,-0.4,0.7,-0.5,1,-0.2l3.8,3.3c0.2,0.2,0.3,0.4,0.3,0.7c0,0.3,-0.1,0.5,-0.3,0.7l-3.7,3.4c-0.3,0.3,-0.8,0.2,-1,-0.2c-0.2,-0.3,-0.2,-0.9,0.1,-1.1Z" class="g2_29" />
<path d="M833.5,1269.5l13,0" class="g6_29" />
</svg>