<?xml version="1.0" encoding="UTF-8" standalone="no"?>
<!DOCTYPE svg PUBLIC "-//W3C//DTD SVG 1.1//EN"
"http://www.w3.org/Graphics/SVG/1.1/DTD/svg11.dtd">
<svg version="1.1" xmlns="http://www.w3.org/2000/svg" xmlns:xlink="http://www.w3.org/1999/xlink">
<defs>
<style type="text/css"><![CDATA[
.g3_36{
fill: #4D4A4B;
}
.g2_36{
fill: #FFFFFF;
}
.g6_36{
fill: none;
stroke: #2AABE1;
stroke-width: 3;
stroke-linecap: butt;
stroke-linejoin: miter;
stroke-miterlimit: 22;
}
.g1_36{
fill: #A84097;
}
.g5_36{
fill: #364E60;
}
.g4_36{
fill: #211D1D;
}
]]></style>
</defs>
<path d="M922,-15.7l0,49.4l-537.1,0l-39.5,78.5l-358.6,0l0,-127.9Z" class="g1_36" />
<path fill-rule="evenodd" d="M83,507l163,0l0,-22L83,485l0,22Z" class="g1_36" />
<path d="M714.3,51.7l-336.8,0l-35.6,67.2l372.4,0Z" class="g2_36" />
<path d="M84.3,959.9l0,-62.1l761.4,0l0,37.3L819,959.9Z" class="g3_36" />
<path d="M83,1021l0,32l33,0Z" class="g2_36" />
<path d="M809.3,1050.4c0,9.2,-7.4,16.6,-16.6,16.6l-692.5,0c-9.2,0,-16.6,-7.4,-16.6,-16.6l0,-51.3c0,-9.2,7.4,-16.7,16.6,-16.7l692.5,0c9.2,0,16.6,7.5,16.6,16.7Z" class="g1_36" />
<path d="M122.9,1001.6c-12.2,0,-22.1,9.9,-22.1,22.1c0,7,3.3,13.3,8.4,17.3c3.8,2.5,-2.2,9.6,-2.2,9.6c0,0,10,0.3,15.9,-4.9c12.1,0,22,-9.9,22,-22c0,-12.2,-9.9,-22.1,-22,-22.1Z" class="g2_36" />
<path d="M115.5,1024.8c0,1.8,-1.5,3.2,-3.3,3.2c-1.7,0,-3.2,-1.4,-3.2,-3.2c0,-1.8,1.5,-3.2,3.2,-3.2c1.8,0,3.3,1.4,3.3,3.2Z" class="g4_36" />
<path d="M126.1,1024.8c0,1.8,-1.4,3.2,-3.2,3.2c-1.8,0,-3.3,-1.4,-3.3,-3.2c0,-1.8,1.5,-3.2,3.3,-3.2c1.8,0,3.2,1.4,3.2,3.2Z" class="g4_36" />
<path d="M136.7,1024.8c0,1.8,-1.4,3.2,-3.2,3.2c-1.8,0,-3.2,-1.4,-3.2,-3.2c0,-1.8,1.4,-3.2,3.2,-3.2c1.8,0,3.2,1.4,3.2,3.2Z" class="g4_36" />
<path d="M83,388l0,33l33,0Z" class="g2_36" />
<path d="M809.3,437.4c0,9.2,-7.4,16.7,-16.6,16.7l-692.5,0c-9.2,0,-16.6,-7.5,-16.6,-16.7l0,-81.6c0,-9.2,7.4,-16.6,16.6,-16.6l692.5,0c9.2,0,16.6,7.4,16.6,16.6Z" class="g1_36" />
<path d="M122.9,368.7c-12.2,0,-22.1,9.8,-22.1,22c0,7,3.3,13.3,8.4,17.3c3.8,2.6,-2.2,9.7,-2.2,9.7c0,0,10,0.2,15.9,-4.9c12.1,0,22,-9.9,22,-22.1c0,-12.2,-9.9,-22,-22,-22Z" class="g2_36" />
<path d="M115.5,391.9c0,1.7,-1.5,3.2,-3.3,3.2c-1.7,0,-3.2,-1.5,-3.2,-3.2c0,-1.8,1.5,-3.3,3.2,-3.3c1.8,0,3.3,1.5,3.3,3.3Z" class="g4_36" />
<path d="M126.1,391.9c0,1.7,-1.4,3.2,-3.2,3.2c-1.8,0,-3.3,-1.5,-3.3,-3.2c0,-1.8,1.5,-3.3,3.3,-3.3c1.8,0,3.2,1.5,3.2,3.3Z" class="g4_36" />
<path d="M136.7,391.9c0,1.7,-1.4,3.2,-3.2,3.2c-1.8,0,-3.2,-1.5,-3.2,-3.2c0,-1.8,1.4,-3.3,3.2,-3.3c1.8,0,3.2,1.5,3.2,3.3Z" class="g4_36" />
<path fill-rule="evenodd" d="M83,247l219,0l0,-22L83,225l0,22Z" class="g1_36" />
<path d="M339,124l-351,0l0,68l316,0Z" class="g5_36" />
<path d="M107.1,1262.4l3,-2.8l-3,-2.6c-0.3,-0.3,-0.4,-0.8,-0.2,-1.2c0.2,-0.4,0.7,-0.5,1,-0.2l3.8,3.3c0.2,0.2,0.3,0.4,0.3,0.7c0,0.3,-0.1,0.5,-0.3,0.7l-3.7,3.4c-0.3,0.3,-0.8,0.2,-1,-0.2c-0.2,-0.3,-0.2,-0.9,0.1,-1.1Z" class="g3_36" />
<path d="M83.5,1269.5l13,0" class="g6_36" />
<path d="M714.3,51.7l-336.8,0l-35.6,67.2l372.4,0Z" class="g2_36" />
<path d="M714.3,51.7l-336.8,0l-35.6,67.2l372.4,0Z" class="g2_36" />
</svg>