<?xml version="1.0" encoding="UTF-8" standalone="no"?>
<!DOCTYPE svg PUBLIC "-//W3C//DTD SVG 1.1//EN"
"http://www.w3.org/Graphics/SVG/1.1/DTD/svg11.dtd">
<svg version="1.1" xmlns="http://www.w3.org/2000/svg" xmlns:xlink="http://www.w3.org/1999/xlink">
<defs>
<style type="text/css"><![CDATA[
.g17_7{
fill: #141D1F;
}
.g20_7{
fill: #F9A41E;
}
.g25_7{
fill: #646263;
}
.g13_7{
fill: #3867B0;
}
.g11_7{
fill: #4A3277;
}
.g27_7{
fill: none;
stroke: #2AABE1;
stroke-width: 3;
stroke-linecap: butt;
stroke-linejoin: miter;
stroke-miterlimit: 22;
}
.g26_7{
fill: #4D4A4B;
}
.g12_7{
fill: #DFA88A;
}
.g21_7{
fill: none;
stroke: #F9A41E;
stroke-width: 1;
stroke-linecap: butt;
stroke-linejoin: miter;
stroke-miterlimit: 22;
}
.g9_7{
fill: #FFFFFF;
}
.g2_7{
fill: #3FB761;
}
.g16_7{
fill: #BEC9D6;
}
.g23_7{
fill: #28A448;
}
.g22_7{
fill: #1F988D;
}
.g7_7{
fill: #FDE8DD;
}
.g6_7{
fill: #F3CCAD;
}
.g10_7{
fill: #523D82;
}
.g1_7{
fill: #373433;
}
.g15_7{
fill: #122C41;
}
.g5_7{
fill: #17282E;
}
.g4_7{
fill: #786E69;
}
.g8_7{
fill: #FDD9C4;
}
.g19_7{
fill: #F68D21;
}
.g3_7{
fill: #B52224;
}
.g18_7{
fill: #B82B2D;
}
.g24_7{
fill: none;
stroke: #FFFFFF;
stroke-width: 1;
stroke-linecap: butt;
stroke-linejoin: miter;
}
.g14_7{
fill: #211D1D;
}
]]></style>
</defs>
<path d="M84.4,180l6,-5.5l-6.1,-5.3c-0.7,-0.6,-0.8,-1.6,-0.4,-2.4c0.5,-0.8,1.3,-0.9,1.9,-0.4l7.7,6.7c0.4,0.3,0.6,0.8,0.6,1.4c0,0.5,-0.2,1,-0.6,1.3L86,182.7c-0.6,0.6,-1.5,0.4,-1.9,-0.3c-0.5,-0.8,-0.3,-1.8,0.3,-2.4Z" class="g1_7" />
<path d="M84.6,526.3l6,-5.5l-6.1,-5.4c-0.7,-0.5,-0.8,-1.6,-0.4,-2.4c0.5,-0.7,1.3,-0.9,1.9,-0.3l7.7,6.7c0.4,0.3,0.6,0.8,0.6,1.3c0,0.6,-0.2,1.1,-0.6,1.4L86.2,529c-0.6,0.5,-1.4,0.4,-1.9,-0.4c-0.5,-0.7,-0.3,-1.8,0.3,-2.3Z" class="g1_7" />
<path d="M521,384l7,0l0,-114l-7,0l0,114Z" class="g2_7" />
<path d="M178.7,597.2c0,-23.4,-19,-42.4,-42.5,-42.4c-23.4,0,-42.4,19,-42.4,42.4c0,23.4,19,42.4,42.4,42.4c23.5,0,42.5,-19,42.5,-42.4Z" class="g3_7" />
<path d="M375.6,597.7c0,-23.4,-19,-42.4,-42.4,-42.4c-23.4,0,-42.4,19,-42.4,42.4c0,23.4,19,42.4,42.4,42.4c23.4,0,42.4,-19,42.4,-42.4Z" class="g4_7" />
<path d="M375.6,597.7c0,-23.4,-19,-42.4,-42.4,-42.4l0,84.8c23.4,0,42.4,-19,42.4,-42.4Z" class="g4_7" />
<path d="M351.4,599.1c0,10.1,-8.1,4.8,-18.2,4.8c-10,0,-18.2,5.3,-18.2,-4.8l0,-16.5c0,-10,8.2,-18.2,18.2,-18.2c10.1,0,18.2,8.2,18.2,18.2Z" class="g5_7" />
<path d="M351.9,582.8c0,-10.2,-8.3,-18.6,-18.6,-18.6c-10.3,0,-18.6,8.4,-18.6,18.6c0,10.3,8.3,18.6,18.6,18.6c10.3,0,18.6,-8.3,18.6,-18.6Z" class="g5_7" />
<path d="M339.5,622.6l-6.3,17.5l-6.1,-17.5l0,-13.7l12.4,0Z" class="g6_7" />
<path d="M333.7,571.2c-6,0,-15.5,3.4,-15.5,19.5c0,9.3,3.6,13.6,4.9,15.3c1.2,1.6,7.4,6.6,10.6,6.6c0,-16.3,0,-41.4,0,-41.4Z" class="g7_7" />
<path d="M315.2,594.5c-0.3,-2.5,0.9,-4.8,2.7,-5.1c1.8,-0.2,3.4,1.7,3.7,4.2c0.2,2.6,-1,4.9,-2.7,5.1c-1.8,0.3,-3.5,-1.6,-3.7,-4.2Z" class="g7_7" />
<path d="M333.2,571.2c6.1,0,15.6,3.4,15.6,19.5c0,9.3,-3.6,13.6,-4.9,15.3c-1.2,1.6,-7.5,6.6,-10.7,6.6c0,-16.3,0,-41.4,0,-41.4Z" class="g8_7" />
<path d="M351.9,594.5c0.2,-2.5,-1,-4.8,-2.8,-5.1c-1.7,-0.2,-3.4,1.7,-3.7,4.2c-0.2,2.6,1,4.9,2.8,5.1c1.7,0.3,3.4,-1.6,3.7,-4.2Z" class="g8_7" />
<path d="M333.2,640.1l0,-16.9c0,0,-4.6,-1.1,-5.6,-4.9c-0.5,-1.8,-0.5,-3.2,-0.5,-3.2c0,0,-10.2,3.4,-12.4,7c-1.1,3.1,-1.7,8.6,-2.1,12.7c6.1,3.4,13.2,5.3,20.6,5.3Z" class="g6_7" />
<path d="M333.2,640.1l0,-16.9c0,0,4.7,-1.1,5.7,-4.9c0.5,-1.8,0.4,-3.2,0.4,-3.2c0,0,10.2,3.4,12.4,7c1.1,3.1,1.8,8.6,2.1,12.7c-6.1,3.4,-13.1,5.3,-20.6,5.3Z" class="g6_7" />
<path d="M333.3,606.9c2.3,0,4.3,-1.4,4.3,-3.2l-8.6,0c0,1.8,1.9,3.2,4.3,3.2Z" class="g9_7" />
<path d="M332.4,566.6c-11,0,-14.4,9.6,-14.4,14.1c-4,5.5,0.4,10.5,3.5,12.2c0,-1,0,-1.4,0,-2.7c0,-3.6,3.4,-6.9,8.5,-6.4c4.6,0.5,7.5,-2.1,10,-6.5c3,-5.9,-0.8,-10.7,-7.6,-10.7Z" class="g5_7" />
<path d="M339.5,575.5c0,0,2.6,10.5,9.6,13.9c1.3,-9.4,2,-7.4,0,-12.3c-2,-5,-9.6,-8.7,-9.6,-8.7Z" class="g5_7" />
<path d="M333.2,640.1l0,-14.2l-6.1,-10.8c0,0,-10.2,3.4,-12.4,7c-1.1,3.1,-1.7,8.6,-2.1,12.7c6.1,3.4,13.2,5.3,20.6,5.3Z" class="g10_7" />
<path d="M333.2,640.1l0,-14.2l6.1,-10.8c0,0,10.2,3.4,12.4,7c1.1,3.1,1.8,8.6,2.1,12.7c-6.1,3.4,-13.1,5.3,-20.6,5.3Z" class="g11_7" />
<path d="M333.2,625.9l-6.1,-10.8l-5.7,1.8l4.8,10.8Z" class="g9_7" />
<path d="M333.2,625.9l6.1,-10.8l5.7,1.8l-4.8,10.8Z" class="g9_7" />
<path d="M130,621l12,0l0,-13l-12,0l0,13Z" class="g12_7" />
<path d="M135.8,569.1c6,0,15.6,3.4,15.6,19.5c0,9.2,-3,15.3,-4.4,17c-1.2,1.6,-8,4.8,-11.2,4.8c0,-16.2,0,-41.3,0,-41.3Z" class="g8_7" />
<path d="M154.4,592.4c0.3,-2.6,-1,-4.8,-2.7,-5.1c-1.8,-0.2,-3.5,1.7,-3.7,4.2c-0.3,2.6,0.9,4.9,2.7,5.1c1.8,0.3,3.4,-1.6,3.7,-4.2Z" class="g8_7" />
<path d="M136.2,569.1c-6,0,-15.5,3.4,-15.5,19.5c0,9.2,3,15.3,4.3,17c1.2,1.6,8,4.8,11.2,4.8c0,-16.2,0,-41.3,0,-41.3Z" class="g7_7" />
<path d="M117.7,592.4c-0.3,-2.6,0.9,-4.8,2.7,-5.1c1.8,-0.2,3.4,1.7,3.7,4.2c0.3,2.6,-1,4.9,-2.7,5.1c-1.8,0.3,-3.5,-1.6,-3.7,-4.2Z" class="g7_7" />
<path d="M136.2,603.5c2.9,0,5.1,-0.9,5.1,-2l-10.1,0c0,1.1,2.2,2,5,2Z" class="g9_7" />
<path d="M277.6,598.9c0,-23.4,-19,-42.4,-42.4,-42.4c-23.5,0,-42.5,19,-42.5,42.4c0,23.4,19,42.4,42.5,42.4c23.4,0,42.4,-19,42.4,-42.4Z" class="g13_7" />
<path d="M228,622l13,0l0,-13l-13,0l0,13Z" class="g12_7" />
<path d="M235,570.3c6,0,15.6,3.4,15.6,19.5c0,9.3,-3,15.4,-4.4,17c-1.2,1.6,-8,4.9,-11.2,4.9c0,-16.3,0,-41.4,0,-41.4Z" class="g8_7" />
<path d="M253.6,593.6c0.2,-2.5,-1,-4.8,-2.7,-5.1c-1.8,-0.2,-3.5,1.7,-3.7,4.3c-0.3,2.5,0.9,4.8,2.7,5c1.8,0.3,3.4,-1.6,3.7,-4.2Z" class="g8_7" />
<path d="M235.4,570.3c-6,0,-15.5,3.4,-15.5,19.5c0,9.3,3,15.4,4.3,17c1.2,1.6,8,4.9,11.2,4.9c0,-16.3,0,-41.4,0,-41.4Z" class="g7_7" />
<path d="M216.9,593.6c-0.3,-2.5,0.9,-4.8,2.7,-5.1c1.8,-0.2,3.4,1.7,3.7,4.3c0.3,2.5,-1,4.8,-2.7,5c-1.8,0.3,-3.5,-1.6,-3.7,-4.2Z" class="g7_7" />
<path d="M251.4,589.4c0,0,5.1,-23.3,-16.1,-23.3c-21.2,0,-15.9,22.6,-15.9,22.6c0,0,2.9,-1.6,2.9,5.8c1.2,0,0.6,0,0.6,0c0,0,1,-5,1.3,-9.5c7.5,0,14.1,-0.9,19.6,-5.5c3.2,0,3.6,3.9,3.6,6.9L246,587c0,0,1.4,2.6,1.5,7.5c0.9,0,0.9,0,0.9,0c0,0,-0.1,-8.2,3,-5.1Z" class="g14_7" />
<path d="M235.4,605.6c2.9,0,5.1,-0.9,5.1,-2.1l-10.1,0c0,1.2,2.2,2.1,5,2.1Z" class="g9_7" />
<path d="M144,616c0,0,11.8,1.7,13.5,3.6c1,0.9,2.4,6.7,3.7,11.9c-7,5.1,-15.6,8.1,-24.9,8.1l0,-23Z" class="g15_7" />
<path d="M128.6,616c0,0,-11.9,1.7,-13.6,3.6c-0.9,0.9,-2.4,6.7,-3.6,12c6.9,5,15.5,8,24.8,8l0.1,0l0,-23Z" class="g15_7" />
<path d="M144.1,615.7l-7.8,0.9l-7.9,-0.9l7.9,23.9Z" class="g16_7" />
<path d="M130.6,626l-6.2,-9.3c1.7,-0.6,3.5,-1,5.4,-1.4l6.5,24.3l-9.1,-12.9Z" class="g17_7" />
<path d="M141.9,626l6.3,-9.3c-1.7,-0.6,-3.6,-1,-5.5,-1.4l-6.4,24.3l9,-12.9Z" class="g17_7" />
<path d="M135.5,619l-1.6,16.1l2.4,4.5l2.3,-4.5L137.1,619Z" class="g18_7" />
<path d="M138.4,618.8l-2.1,2.1l-2.1,-2.1l2.1,-2.1Z" class="g18_7" />
<path d="M136.3,616.6L130,614.1l-1.6,1.6l3.1,6.9Z" class="g9_7" />
<path d="M136.3,616.6l6.3,-2.5l1.5,1.6l-3.1,6.9Z" class="g9_7" />
<path d="M241.4,617l2.1,0c3.9,1,8.2,1.7,11.1,5c1,1.2,2.5,7.5,3.6,12.6c-6.7,4.3,-14.6,6.8,-23.1,6.9l0,-19.7c3.5,0,6.3,-2.1,6.3,-4.8Z" class="g19_7" />
<path d="M228.9,617l-2.1,0c-3.9,1,-8.3,1.7,-11.1,5c-1.1,1.2,-2.6,7.6,-3.6,12.7c6.6,4.3,14.5,6.8,23,6.8l0,-19.7c-3.4,0,-6.2,-2.1,-6.2,-4.8Z" class="g20_7" />
<path d="M228.9,617l-2.1,0c-3.9,1,-8.3,1.7,-11.1,5c-1.1,1.2,-2.6,7.6,-3.6,12.7c6.6,4.3,14.5,6.8,23,6.8l0,-19.7c-3.4,0,-6.2,-2.1,-6.2,-4.8Z" class="g21_7" />
<path d="M235.1,623.4c4.6,0,8.4,-2.9,8.4,-6.4l-2.2,0c0,2.6,-2.7,4.8,-6.2,4.8c-3.4,0,-6.2,-2.2,-6.2,-4.8l-2.1,0c0,3.5,3.7,6.4,8.3,6.4Z" class="g22_7" />
<path d="M83,995l0,33l33,0Z" class="g9_7" />
<path d="M808.8,1005c0,9.2,-7.4,16.6,-16.6,16.6l-692.5,0c-9.1,0,-16.6,-7.4,-16.6,-16.6l0,-60.9c0,-9.2,7.5,-16.6,16.6,-16.6l692.5,0c9.2,0,16.6,7.4,16.6,16.6Z" class="g23_7" />
<path d="M124.8,943.4c-13.5,0,-24.4,10.9,-24.4,24.4c0,7.8,3.6,14.7,9.3,19.1c4.2,2.8,-2.5,10.7,-2.5,10.7c0,0,11.1,0.2,17.6,-5.4c13.4,0,24.3,-11,24.3,-24.4c0,-13.5,-10.9,-24.4,-24.3,-24.4Z" class="g9_7" />
<path d="M116.6,969c0,2,-1.6,3.6,-3.6,3.6c-2,0,-3.6,-1.6,-3.6,-3.6c0,-1.9,1.6,-3.5,3.6,-3.5c2,0,3.6,1.6,3.6,3.5Z" class="g14_7" />
<path d="M128.3,969c0,2,-1.6,3.6,-3.5,3.6c-2,0,-3.6,-1.6,-3.6,-3.6c0,-1.9,1.6,-3.5,3.6,-3.5c1.9,0,3.5,1.6,3.5,3.5Z" class="g14_7" />
<path d="M140.1,969c0,2,-1.6,3.6,-3.6,3.6c-2,0,-3.6,-1.6,-3.6,-3.6c0,-1.9,1.6,-3.5,3.6,-3.5c2,0,3.6,1.6,3.6,3.5Z" class="g14_7" />
<path d="M343.5,956.5l218,0" class="g24_7" />
<path fill-rule="evenodd" d="M83,1066l725,0l0,-4l-725,0l0,4Z" class="g25_7" />
<path d="M817.7,1262.4l3,-2.8l-3,-2.6c-0.3,-0.3,-0.4,-0.8,-0.2,-1.2c0.2,-0.4,0.7,-0.5,1,-0.2l3.8,3.3c0.2,0.2,0.3,0.4,0.3,0.7c0,0.3,-0.1,0.5,-0.3,0.7l-3.7,3.4c-0.3,0.3,-0.8,0.2,-1,-0.2c-0.2,-0.3,-0.2,-0.9,0.1,-1.1Z" class="g26_7" />
<path d="M833.5,1269.5l13,0" class="g27_7" />
<path d="M-13.2,-15.7l0,49.4l537,0l39.5,78.5l358.7,0l0,-127.9Z" class="g2_7" />
</svg>