<?xml version="1.0" encoding="UTF-8" standalone="no"?>
<!DOCTYPE svg PUBLIC "-//W3C//DTD SVG 1.1//EN"
"http://www.w3.org/Graphics/SVG/1.1/DTD/svg11.dtd">
<svg version="1.1" xmlns="http://www.w3.org/2000/svg" xmlns:xlink="http://www.w3.org/1999/xlink">
<defs>
<style type="text/css"><![CDATA[
.g11_24{
fill: none;
stroke: #2AABE1;
stroke-width: 3;
stroke-linecap: butt;
stroke-linejoin: miter;
stroke-miterlimit: 22;
}
.g8_24{
fill: none;
stroke: #4D4A4B;
stroke-width: 3;
stroke-linecap: butt;
stroke-linejoin: miter;
stroke-miterlimit: 22;
}
.g3_24{
fill: #FFFFFF;
}
.g10_24{
fill: #4D4A4B;
}
.g2_24{
fill: #373433;
}
.g1_24{
fill: #EC0B8C;
}
.g5_24{
fill: #F05972;
}
.g4_24{
fill: #0D696E;
}
.g7_24{
fill: none;
stroke: #211D1D;
stroke-width: 2;
stroke-linecap: butt;
stroke-linejoin: miter;
stroke-miterlimit: 22;
}
.g9_24{
fill: #364E60;
}
.g6_24{
fill: #FCE576;
}
]]></style>
</defs>
<path d="M922,-15.7l0,49.4l-537.1,0l-39.5,78.5l-358.6,0l0,-127.9Z" class="g1_24" />
<path d="M86.4,237.4l6,-5.5l-6.1,-5.3C85.7,226,85.6,225,86,224.2c0.4,-0.7,1.3,-0.9,1.9,-0.4l7.7,6.7c0.3,0.4,0.5,0.9,0.6,1.4c0,0.5,-0.2,1,-0.6,1.4l-7.5,6.8c-0.6,0.6,-1.5,0.4,-1.9,-0.3C85.7,239,85.8,238,86.4,237.4Z" class="g2_24" />
<path d="M182.7,312.9c-0.6,-27.2,-23,-48.8,-50.2,-48.3c-27.2,0.5,-48.8,23,-48.2,50.2c0.5,27.1,22.9,48.7,50.1,48.2c27.2,-0.5,48.8,-23,48.3,-50.1Z" class="g1_24" />
<path d="M178.8,313c-0.5,-25.1,-21.2,-45,-46.3,-44.6c-25.1,0.5,-45,21.2,-44.5,46.3c0.5,25.1,21.2,45.1,46.3,44.6c25.1,-0.5,45,-21.2,44.5,-46.3Z" class="g3_24" />
<path d="M161.5,315.3c-0.1,-0.1,-0.2,-0.3,-0.2,-0.6c0,-0.4,0.3,-0.8,0.8,-0.8c0.2,0,0.4,0.1,0.5,0.2c0.6,0.6,1.3,0.9,2.1,0.9c0.9,0,1.6,-0.5,1.6,-1.4c0,-0.9,-0.8,-1.4,-2.1,-1.4l-0.3,0c-0.4,0,-0.7,-0.4,-0.7,-0.8c0,-0.2,0,-0.4,0.3,-0.6l2.2,-2.3l-3.4,0c-0.4,0,-0.7,-0.4,-0.7,-0.8c0,-0.4,0.3,-0.7,0.7,-0.7l4.8,0c0.4,0,0.8,0.3,0.8,0.7c0,0.4,-0.2,0.7,-0.5,0.9l-2.2,2.3c1.4,0.2,2.8,0.9,2.8,2.6l0,0.1c0,1.7,-1.4,2.9,-3.3,2.9c-1.4,0,-2.4,-0.5,-3.2,-1.2Z" class="g4_24" />
<path d="M175.5,312c0,0.4,-0.4,0.7,-0.8,0.7l-2.5,0c-0.4,0,-0.8,-0.3,-0.8,-0.7l0,-0.3c0,-0.4,0.4,-0.7,0.8,-0.7l2.5,0c0.4,0,0.8,0.3,0.8,0.7Z" class="g4_24" />
<path d="M153.4,278c0.2,-0.3,0.1,-0.7,-0.2,-0.9c-0.3,-0.3,-0.7,-0.2,-0.9,0.1l-1.1,1.7c-0.2,0.3,-0.1,0.7,0.2,0.9c0.3,0.2,0.7,0.1,0.9,-0.2Z" class="g4_24" />
<path d="M166.7,289.7c0.4,-0.2,0.5,-0.6,0.3,-0.9c-0.2,-0.3,-0.6,-0.4,-0.9,-0.3l-1.7,1c-0.3,0.2,-0.5,0.6,-0.3,0.9c0.2,0.3,0.6,0.4,0.9,0.3Z" class="g4_24" />
<path d="M172.1,331.2c0.3,0.2,0.7,0.2,0.9,-0.2c0.2,-0.3,0.1,-0.7,-0.2,-0.9L171.1,329c-0.3,-0.2,-0.7,-0.1,-0.9,0.2c-0.2,0.3,-0.1,0.7,0.2,0.9Z" class="g4_24" />
<path d="M156.5,350.4c0.2,0.4,0.6,0.5,0.9,0.3c0.3,-0.2,0.5,-0.6,0.3,-0.9l-1,-1.7c-0.2,-0.4,-0.6,-0.5,-0.9,-0.3c-0.3,0.2,-0.4,0.6,-0.2,0.9Z" class="g4_24" />
<path d="M108.7,294.8c-0.2,-0.1,-0.2,-0.4,0,-0.6c0.1,-0.1,0.4,-0.1,0.6,0l21.6,20.5l4.1,1l-1.3,-1.2l-2.8,1.4Z" class="g5_24" />
<path d="M137.8,315.1c-0.1,-2.7,-2.3,-4.8,-4.9,-4.8c-2.7,0.1,-4.8,2.3,-4.7,4.9c0,2.7,2.2,4.8,4.9,4.8c2.6,-0.1,4.7,-2.3,4.7,-4.9Z" class="g6_24" />
<path d="M128.7,279.9l-0.9,0.3c-0.1,0.1,-0.2,0.1,-0.3,0.1c-0.4,0,-0.7,-0.3,-0.7,-0.7c0,-0.4,0.2,-0.6,0.5,-0.7l1.4,-0.5c0.4,-0.1,0.6,-0.1,0.8,-0.1l0.1,0c0.4,0,0.8,0.3,0.8,0.8l0,7.9c0,0.4,-0.4,0.8,-0.8,0.8c-0.5,0,-0.9,-0.4,-0.9,-0.8Z" class="g4_24" />
<path d="M132.7,286.1l2.8,-2.4c1.3,-1.1,1.8,-1.7,1.8,-2.5c0,-0.9,-0.7,-1.5,-1.5,-1.5c-0.8,0,-1.3,0.4,-1.9,1.1c-0.1,0.1,-0.3,0.2,-0.6,0.2c-0.4,0,-0.7,-0.3,-0.7,-0.7c0,-0.2,0.1,-0.4,0.2,-0.5c0.7,-1,1.6,-1.5,3.1,-1.5c1.8,0,3.1,1.1,3.1,2.7l0,0.1c0,1.4,-0.8,2.2,-2.5,3.6l-1.9,1.6l3.8,0c0.4,0,0.7,0.3,0.7,0.7c0,0.4,-0.3,0.7,-0.7,0.7l-5.3,0c-0.5,0,-0.9,-0.3,-0.9,-0.7c0,-0.4,0.2,-0.6,0.5,-0.9Z" class="g4_24" />
<path d="M130.5,350.4c-0.7,-0.7,-1.2,-1.7,-1.2,-3.5l0,-0.1c0,-2.8,1.4,-5,4,-5c1,0,1.8,0.2,2.4,0.6c0.2,0.2,0.4,0.4,0.4,0.7c0,0.5,-0.4,0.8,-0.8,0.8c-0.1,0,-0.3,-0.1,-0.4,-0.1c-0.5,-0.4,-1,-0.5,-1.6,-0.5c-1.4,0,-2.2,1.2,-2.2,2.9c0.4,-0.5,1.1,-0.9,2.2,-0.9c1.8,0,3.2,1,3.2,2.9c0,1.9,-1.5,3.2,-3.4,3.2c-1.2,0,-2,-0.4,-2.6,-1Zm4.4,-2.1c0,-1,-0.7,-1.7,-1.9,-1.7c-1.2,0,-1.9,0.8,-1.9,1.7c0,1,0.8,1.7,1.9,1.7c1.2,0,1.9,-0.7,1.9,-1.7Z" class="g4_24" />
<path d="M98,315.8c-0.3,-0.1,-0.4,-0.4,-0.4,-0.7c0,-0.4,0.3,-0.7,0.8,-0.7c0.1,0,0.3,0,0.4,0.1c0.6,0.4,1.1,0.6,1.7,0.6c1.4,0,2.2,-1.2,2.3,-2.9c-0.5,0.5,-1.2,1,-2.2,1c-2,0,-3.3,-1.2,-3.3,-3c0,-1.9,1.4,-3.3,3.5,-3.3c1.1,0,1.9,0.4,2.6,1c0.6,0.7,1.1,1.8,1.1,3.6c0,3,-1.5,5.1,-4,5.1c-1.1,0,-1.8,-0.3,-2.5,-0.8Zm4.7,-5.7c0,-1,-0.7,-1.7,-1.9,-1.7c-1.2,0,-1.9,0.7,-1.9,1.7c0,1,0.8,1.7,1.9,1.7c1.2,0,1.9,-0.8,1.9,-1.7Z" class="g4_24" />
<path d="M94.5,312c0,0.4,-0.3,0.7,-0.7,0.7l-2.6,0c-0.4,0,-0.7,-0.3,-0.7,-0.7l0,-0.3c0,-0.4,0.3,-0.7,0.7,-0.7l2.6,0c0.4,0,0.7,0.3,0.7,0.7Z" class="g4_24" />
<path d="M134.1,274.5c0,0.4,-0.3,0.7,-0.7,0.7l-0.3,0c-0.4,0,-0.7,-0.3,-0.7,-0.7l0,-2.5c0,-0.4,0.3,-0.9,0.7,-0.9l0.3,0c0.4,0,0.7,0.5,0.7,0.9Z" class="g4_24" />
<path d="M134.1,357.6c0,0.4,-0.3,0.7,-0.7,0.7l-0.2,0c-0.4,0,-0.8,-0.3,-0.8,-0.7l0,-2.5c0,-0.4,0.4,-0.8,0.8,-0.8l0.2,0c0.4,0,0.7,0.4,0.7,0.8Z" class="g4_24" />
<path d="M110.4,350.9c-0.2,0.3,-0.1,0.7,0.2,0.9c0.2,0.2,0.7,0.2,0.9,-0.1l1.2,-1.6c0.2,-0.3,0.2,-0.7,-0.1,-0.9c-0.3,-0.2,-0.7,-0.2,-1,0.1Z" class="g4_24" />
<path d="M94,331.8c-0.4,0.2,-0.5,0.6,-0.4,0.9c0.2,0.4,0.6,0.5,0.9,0.4l1.8,-0.9c0.3,-0.1,0.5,-0.5,0.3,-0.9C96.5,331,96.1,330.9,95.8,331Z" class="g4_24" />
<path d="M99.2,289.7c-0.3,-0.2,-0.7,-0.1,-0.9,0.2c-0.2,0.3,-0.2,0.7,0.1,0.9l1.7,1.1c0.3,0.2,0.7,0.1,0.9,-0.2c0.2,-0.3,0.1,-0.7,-0.2,-0.9Z" class="g4_24" />
<path d="M114.6,276.7c-0.2,-0.3,-0.6,-0.4,-0.9,-0.3c-0.3,0.2,-0.5,0.6,-0.3,1l1,1.7c0.2,0.3,0.6,0.4,0.9,0.2c0.3,-0.1,0.4,-0.5,0.2,-0.9Z" class="g4_24" />
<path d="M128.7,279.9l-0.9,0.3c-0.1,0.1,-0.2,0.1,-0.3,0.1c-0.4,0,-0.7,-0.3,-0.7,-0.7c0,-0.4,0.2,-0.6,0.5,-0.7l1.4,-0.5c0.4,-0.1,0.6,-0.1,0.8,-0.1l0.1,0c0.4,0,0.8,0.3,0.8,0.8l0,7.9c0,0.4,-0.4,0.8,-0.8,0.8c-0.5,0,-0.9,-0.4,-0.9,-0.8Z" class="g4_24" />
<path d="M132.7,286.1l2.8,-2.4c1.3,-1.1,1.8,-1.7,1.8,-2.5c0,-0.9,-0.7,-1.5,-1.5,-1.5c-0.8,0,-1.3,0.4,-1.9,1.1c-0.1,0.1,-0.3,0.2,-0.6,0.2c-0.4,0,-0.7,-0.3,-0.7,-0.7c0,-0.2,0.1,-0.4,0.2,-0.5c0.7,-1,1.6,-1.5,3.1,-1.5c1.8,0,3.1,1.1,3.1,2.7l0,0.1c0,1.4,-0.8,2.2,-2.5,3.6l-1.9,1.6l3.8,0c0.4,0,0.7,0.3,0.7,0.7c0,0.4,-0.3,0.7,-0.7,0.7l-5.3,0c-0.5,0,-0.9,-0.3,-0.9,-0.7c0,-0.4,0.2,-0.6,0.5,-0.9Z" class="g4_24" />
<path d="M130.5,350.4c-0.7,-0.7,-1.2,-1.7,-1.2,-3.5l0,-0.1c0,-2.8,1.4,-5,4,-5c1,0,1.8,0.2,2.4,0.6c0.2,0.2,0.4,0.4,0.4,0.7c0,0.5,-0.4,0.8,-0.8,0.8c-0.1,0,-0.3,-0.1,-0.4,-0.1c-0.5,-0.4,-1,-0.5,-1.6,-0.5c-1.4,0,-2.2,1.2,-2.2,2.9c0.4,-0.5,1.1,-0.9,2.2,-0.9c1.8,0,3.2,1,3.2,2.9c0,1.9,-1.5,3.2,-3.4,3.2c-1.2,0,-2,-0.4,-2.6,-1Zm4.4,-2.1c0,-1,-0.7,-1.7,-1.9,-1.7c-1.2,0,-1.9,0.8,-1.9,1.7c0,1,0.8,1.7,1.9,1.7c1.2,0,1.9,-0.7,1.9,-1.7Z" class="g4_24" />
<path d="M98,315.8c-0.3,-0.1,-0.4,-0.4,-0.4,-0.7c0,-0.4,0.3,-0.7,0.8,-0.7c0.1,0,0.3,0,0.4,0.1c0.6,0.4,1.1,0.6,1.7,0.6c1.4,0,2.2,-1.2,2.3,-2.9c-0.5,0.5,-1.2,1,-2.2,1c-2,0,-3.3,-1.2,-3.3,-3c0,-1.9,1.4,-3.3,3.5,-3.3c1.1,0,1.9,0.4,2.6,1c0.6,0.7,1.1,1.8,1.1,3.6c0,3,-1.5,5.1,-4,5.1c-1.1,0,-1.8,-0.3,-2.5,-0.8Zm4.7,-5.7c0,-1,-0.7,-1.7,-1.9,-1.7c-1.2,0,-1.9,0.7,-1.9,1.7c0,1,0.8,1.7,1.9,1.7c1.2,0,1.9,-0.8,1.9,-1.7Z" class="g4_24" />
<path d="M94.5,312c0,0.4,-0.3,0.7,-0.7,0.7l-2.6,0c-0.4,0,-0.7,-0.3,-0.7,-0.7l0,-0.3c0,-0.4,0.3,-0.7,0.7,-0.7l2.6,0c0.4,0,0.7,0.3,0.7,0.7Z" class="g4_24" />
<path d="M134.1,274.5c0,0.4,-0.3,0.7,-0.7,0.7l-0.3,0c-0.4,0,-0.7,-0.3,-0.7,-0.7l0,-2.5c0,-0.4,0.3,-0.9,0.7,-0.9l0.3,0c0.4,0,0.7,0.5,0.7,0.9Z" class="g4_24" />
<path d="M134.1,357.6c0,0.4,-0.3,0.7,-0.7,0.7l-0.2,0c-0.4,0,-0.8,-0.3,-0.8,-0.7l0,-2.5c0,-0.4,0.4,-0.8,0.8,-0.8l0.2,0c0.4,0,0.7,0.4,0.7,0.8Z" class="g4_24" />
<path d="M110.4,350.9c-0.2,0.3,-0.1,0.7,0.2,0.9c0.2,0.2,0.7,0.2,0.9,-0.1l1.2,-1.6c0.2,-0.3,0.2,-0.7,-0.1,-0.9c-0.3,-0.2,-0.7,-0.2,-1,0.1Z" class="g4_24" />
<path d="M94,331.8c-0.4,0.2,-0.5,0.6,-0.4,0.9c0.2,0.4,0.6,0.5,0.9,0.4l1.8,-0.9c0.3,-0.1,0.5,-0.5,0.3,-0.9C96.5,331,96.1,330.9,95.8,331Z" class="g4_24" />
<path d="M99.2,289.7c-0.3,-0.2,-0.7,-0.1,-0.9,0.2c-0.2,0.3,-0.2,0.7,0.1,0.9l1.7,1.1c0.3,0.2,0.7,0.1,0.9,-0.2c0.2,-0.3,0.1,-0.7,-0.2,-0.9Z" class="g4_24" />
<path d="M114.6,276.7c-0.2,-0.3,-0.6,-0.4,-0.9,-0.3c-0.3,0.2,-0.5,0.6,-0.3,1l1,1.7c0.2,0.3,0.6,0.4,0.9,0.2c0.3,-0.1,0.4,-0.5,0.2,-0.9Z" class="g4_24" />
<path d="M135.2,317.6l-0.1,-30.4c0,-1.2,-0.9,-2.1,-2.1,-2.1c-1.1,0,-2,0.9,-2,2.1l0.1,31.5l1.2,-1.2l2.9,1.3Z" class="g5_24" />
<path d="M131,317.3l0.1,17.5c0,1.1,0.9,2,2,2c1.1,0,2.1,-0.9,2.1,-2l-0.1,-17.5Z" class="g5_24" />
<path d="M137.8,315.1c-0.1,-2.7,-2.3,-4.8,-4.9,-4.8c-2.7,0.1,-4.8,2.3,-4.7,4.9c0,2.7,2.2,4.8,4.9,4.8c2.6,-0.1,4.7,-2.3,4.7,-4.9Z" class="g6_24" />
<path d="M86.4,593.8l6,-5.5L86.3,583c-0.6,-0.6,-0.7,-1.6,-0.3,-2.4c0.4,-0.7,1.3,-0.9,1.9,-0.4l7.7,6.7c0.3,0.3,0.5,0.8,0.6,1.4c0,0.5,-0.2,1,-0.6,1.4l-7.5,6.8c-0.6,0.6,-1.5,0.4,-1.9,-0.3c-0.5,-0.8,-0.4,-1.8,0.2,-2.4Z" class="g2_24" />
<image x="566" y="615" width="282" height="267" xlink:href="img/1.png" />
<image x="567" y="1006" width="281" height="227" xlink:href="img/2.png" />
<path d="M714.3,51.7l-336.8,0l-35.6,67.2l372.4,0Z" class="g3_24" />
<image x="633" y="251" width="223" height="319" xlink:href="img/3.png" />
<path d="M651.2,349.7l113.2,41.7" class="g7_24" />
<path d="M86.4,939.8l6,-5.5l-6.1,-5.4c-0.6,-0.5,-0.7,-1.6,-0.3,-2.3c0.4,-0.8,1.3,-1,1.9,-0.4l7.7,6.7c0.3,0.3,0.5,0.8,0.6,1.3c0,0.6,-0.2,1.1,-0.6,1.4l-7.5,6.9c-0.6,0.5,-1.5,0.4,-1.9,-0.4c-0.5,-0.7,-0.4,-1.8,0.2,-2.3Z" class="g2_24" />
<path d="M83.5,988.5l230,0l0,-23l-230,0l0,23Z" class="g8_24" />
<path d="M339,124l-351,0l0,68l316,0Z" class="g9_24" />
<path d="M107.1,1262.4l3,-2.8l-3,-2.6c-0.3,-0.3,-0.4,-0.8,-0.2,-1.2c0.2,-0.4,0.7,-0.5,1,-0.2l3.8,3.3c0.2,0.2,0.3,0.4,0.3,0.7c0,0.3,-0.1,0.5,-0.3,0.7l-3.7,3.4c-0.3,0.3,-0.8,0.2,-1,-0.2c-0.2,-0.3,-0.2,-0.9,0.1,-1.1Z" class="g10_24" />
<path d="M83.5,1269.5l13,0" class="g11_24" />
</svg>