<?xml version="1.0" encoding="UTF-8" standalone="no"?>
<!DOCTYPE svg PUBLIC "-//W3C//DTD SVG 1.1//EN"
"http://www.w3.org/Graphics/SVG/1.1/DTD/svg11.dtd">
<svg version="1.1" xmlns="http://www.w3.org/2000/svg" xmlns:xlink="http://www.w3.org/1999/xlink">
<defs>
<style type="text/css"><![CDATA[
.g3_3{
fill: #44479C;
}
.g2_3{
fill: #2AABE1;
}
.g1_3{
fill: #3FB761;
}
.g5_3{
fill: #A84097;
}
.g4_3{
fill: #EC0B8C;
}
.g7_3{
fill: #EE1F24;
}
.g8_3{
fill: #FCB61A;
}
.g6_3{
fill: #FFFFFF;
}
]]></style>
</defs>
<path d="M102.7,239l4.7,-4.3l-4.7,-4.1c-0.5,-0.4,-0.6,-1.3,-0.3,-1.8c0.3,-0.6,1,-0.8,1.5,-0.3l5.9,5.1c0.3,0.3,0.5,0.7,0.5,1.1c0,0.4,-0.2,0.8,-0.5,1.1l-5.8,5.3c-0.5,0.4,-1.1,0.3,-1.5,-0.3c-0.3,-0.6,-0.2,-1.4,0.2,-1.8Z" class="g1_3" />
<path d="M102.7,364.3l4.7,-4.2l-4.7,-4.2c-0.5,-0.4,-0.6,-1.2,-0.3,-1.8c0.3,-0.6,1,-0.7,1.5,-0.3l5.9,5.2c0.3,0.3,0.5,0.6,0.5,1.1c0,0.4,-0.2,0.8,-0.5,1l-5.8,5.3c-0.5,0.5,-1.1,0.3,-1.5,-0.2c-0.3,-0.6,-0.2,-1.4,0.2,-1.9Z" class="g2_3" />
<path d="M102.7,668.8l4.7,-4.2l-4.7,-4.2c-0.5,-0.4,-0.6,-1.2,-0.3,-1.8c0.3,-0.6,1,-0.7,1.5,-0.3l5.9,5.2c0.3,0.3,0.5,0.6,0.5,1.1c0,0.4,-0.2,0.8,-0.5,1l-5.8,5.3c-0.5,0.5,-1.1,0.3,-1.5,-0.2c-0.3,-0.6,-0.2,-1.4,0.2,-1.9Z" class="g3_3" />
<path d="M505.1,169.5l4.7,-4.3L505,161.1c-0.5,-0.5,-0.6,-1.3,-0.2,-1.9c0.3,-0.5,1,-0.7,1.4,-0.3l6,5.2c0.2,0.3,0.4,0.7,0.4,1.1c0,0.4,-0.1,0.8,-0.4,1l-5.8,5.3c-0.5,0.5,-1.2,0.4,-1.5,-0.2c-0.4,-0.6,-0.3,-1.4,0.2,-1.8Z" class="g4_3" />
<path d="M505.1,390.8l4.7,-4.2L505,382.4c-0.5,-0.4,-0.6,-1.2,-0.2,-1.8c0.3,-0.6,1,-0.7,1.4,-0.3l6,5.2c0.2,0.3,0.4,0.6,0.4,1.1c0,0.4,-0.1,0.8,-0.4,1l-5.8,5.3c-0.5,0.5,-1.2,0.4,-1.5,-0.2c-0.4,-0.6,-0.3,-1.4,0.2,-1.9Z" class="g5_3" />
<path d="M102.7,1046.1l4.7,-4.2l-4.7,-4.1c-0.5,-0.5,-0.6,-1.3,-0.3,-1.9c0.3,-0.6,1,-0.7,1.5,-0.3l5.9,5.2c0.3,0.3,0.5,0.6,0.5,1.1c0,0.4,-0.2,0.8,-0.5,1l-5.8,5.3c-0.5,0.5,-1.1,0.3,-1.5,-0.2c-0.3,-0.6,-0.2,-1.4,0.2,-1.9Z" class="g4_3" />
<path fill-rule="evenodd" d="M63,42l814,0l0,71L63,113Z" class="g2_3" />
<path d="M96.1,86.7l7.5,-6.8L95.9,73.2C95.2,72.5,95,71.2,95.5,70.3c0.6,-1,1.6,-1.2,2.4,-0.5l9.5,8.3c0.5,0.4,0.8,1,0.8,1.7c0,0.7,-0.3,1.3,-0.7,1.7l-9.4,8.6c-0.7,0.7,-1.8,0.5,-2.4,-0.5c-0.5,-0.9,-0.4,-2.2,0.4,-2.9Z" class="g6_3" />
<path d="M505.1,690l4.7,-4.2L505,681.6c-0.5,-0.4,-0.6,-1.2,-0.2,-1.8c0.3,-0.6,1,-0.7,1.4,-0.3l6,5.2c0.2,0.2,0.4,0.6,0.4,1c0,0.4,-0.1,0.8,-0.4,1.1l-5.8,5.3c-0.5,0.4,-1.2,0.3,-1.5,-0.3c-0.4,-0.6,-0.3,-1.4,0.2,-1.8Z" class="g5_3" />
<path d="M505.1,989.2l4.7,-4.2L505,980.8c-0.5,-0.4,-0.6,-1.2,-0.2,-1.8c0.3,-0.6,1,-0.7,1.4,-0.3l6,5.2c0.2,0.3,0.4,0.6,0.4,1.1c0,0.4,-0.1,0.8,-0.4,1l-5.8,5.3c-0.5,0.5,-1.2,0.3,-1.5,-0.2c-0.4,-0.6,-0.3,-1.4,0.2,-1.9Z" class="g7_3" />
<path d="M505.1,1100.6l4.7,-4.2l-4.8,-4.2c-0.5,-0.4,-0.6,-1.2,-0.2,-1.8c0.3,-0.6,1,-0.7,1.4,-0.3l6,5.2c0.2,0.2,0.4,0.6,0.4,1c0,0.5,-0.1,0.8,-0.4,1.1l-5.8,5.3c-0.5,0.4,-1.2,0.3,-1.5,-0.3c-0.4,-0.5,-0.3,-1.4,0.2,-1.8Z" class="g8_3" />
</svg>