<?xml version="1.0" encoding="UTF-8" standalone="no"?>
<!DOCTYPE svg PUBLIC "-//W3C//DTD SVG 1.1//EN"
"http://www.w3.org/Graphics/SVG/1.1/DTD/svg11.dtd">
<svg version="1.1" xmlns="http://www.w3.org/2000/svg" xmlns:xlink="http://www.w3.org/1999/xlink">
<defs>
<style type="text/css"><![CDATA[
.g13_46{
fill: #EE2225;
}
.g12_46{
fill: #FAB886;
}
.g1_46{
fill: #21AEE4;
}
.g4_46{
fill: #1AAFE4;
}
.g9_46{
fill: none;
stroke: #232526;
stroke-width: 1;
stroke-linecap: butt;
stroke-linejoin: miter;
}
.g14_46{
fill: #FED069;
}
.g10_46{
fill: #22AC4F;
}
.g3_46{
fill: #121112;
}
.g2_46{
fill: #FFFFFF;
}
.g11_46{
fill: #208BCA;
}
.g15_46{
fill: none;
stroke: #08537C;
stroke-width: 1;
stroke-linecap: butt;
stroke-linejoin: miter;
}
.g8_46{
fill: #232526;
}
.g5_46{
fill: none;
stroke: #121112;
stroke-width: 1;
stroke-linecap: butt;
stroke-linejoin: miter;
}
.g6_46{
fill: #08537C;
}
.g7_46{
fill: none;
stroke: #1CABE2;
stroke-width: 1;
stroke-linecap: butt;
stroke-linejoin: miter;
}
]]></style>
</defs>
<path fill-rule="evenodd" d="M0,1285l909,0L909,0L0,0L0,1285Z" class="g1_46" />
<path fill-rule="evenodd" d="M0,1238l919,0l0,-117L0,1121l0,117Z" class="g2_46" />
<path d="M607.1,1193.1l0,0.1c0,0.1,0,0.1,0,0.1c-0.1,0.3,-0.1,0.5,-0.1,0.7c-0.1,0.1,-0.2,0.3,-0.3,0.4c-0.1,0.2,-0.2,0.3,-0.4,0.4c-0.1,0,-0.3,0.1,-0.6,0.1c-0.3,0,-0.6,-0.1,-0.8,-0.2c-0.2,-0.1,-0.4,-0.2,-0.5,-0.4c-0.1,-0.2,-0.1,-0.4,-0.2,-0.7c0,-0.2,0,-0.5,0,-0.9l0,-0.7c0,-0.4,0,-0.7,0.1,-0.9c0,-0.2,0.1,-0.4,0.2,-0.6c0.1,-0.2,0.2,-0.3,0.4,-0.4c0.2,-0.1,0.5,-0.2,0.8,-0.2c0.8,0,1.3,0.4,1.3,1.2c0,0.2,0,0.3,0,0.4l-0.8,0c0,0,0,-0.1,0,-0.2c0,-0.1,-0.1,-0.2,-0.1,-0.2c0,-0.1,0,-0.2,0,-0.2c-0.1,-0.1,-0.1,-0.2,-0.1,-0.2c-0.1,-0.1,-0.2,-0.1,-0.3,-0.1c-0.1,0,-0.2,0.1,-0.3,0.1c-0.1,0.1,-0.2,0.2,-0.2,0.3c0,0.1,-0.1,0.2,-0.1,0.4c0,0.1,0,0.2,0,0.4l0,1.3c0,0.2,0,0.3,0,0.4c0,0.1,0.1,0.2,0.1,0.3c0,0.1,0.1,0.2,0.2,0.3c0.1,0,0.2,0.1,0.3,0.1c0.1,0,0.2,-0.1,0.3,-0.1c0,-0.1,0.1,-0.2,0.1,-0.3c0,-0.1,0.1,-0.2,0.1,-0.3c0,-0.1,0,-0.2,0,-0.3c0,0,0,-0.1,0,-0.1Z" class="g3_46" />
<path d="M608.7,1192.9l0.7,0l-0.2,-1.4c0,-0.1,-0.1,-0.3,-0.1,-0.5l0,-0.1c0,-0.1,0,-0.2,0,-0.4c-0.1,0.2,-0.1,0.3,-0.1,0.4l0,0.1c0,0.2,0,0.4,-0.1,0.5Zm0.4,-4.2l1,0l-0.9,0.9l-0.7,0Zm-1.7,6.1l1.1,-4.8l1.2,0l1.1,4.8l-1,0l-0.2,-1.2l-1.1,0l-0.2,1.2Z" class="g3_46" />
<path d="M612.1,1194.8l-0.9,0l0,-4.8l1.4,0l0.5,2.2c0,0.3,0.1,0.7,0.1,1.1c0.1,-0.3,0.1,-0.5,0.1,-0.6c0,-0.2,0.1,-0.3,0.1,-0.5l0.5,-2.2l1.4,0l0,4.8l-0.9,0l0,-1.5c0,-1.1,0,-2,0.1,-2.9l-0.1,0l-0.9,4.4l-0.5,0l-1,-4.4c0,0.9,0.1,1.8,0.1,2.9Z" class="g3_46" />
<path d="M617,1192.9l0.8,0l-0.3,-1.4c0,-0.1,0,-0.3,-0.1,-0.5l0,-0.1c0,-0.1,0,-0.2,0,-0.4c0,0.2,0,0.3,0,0.4l-0.1,0.1c0,0.2,0,0.4,0,0.5Zm-1.3,1.9l1.1,-4.8l1.2,0l1.1,4.8l-1,0l-0.2,-1.2l-1,0l-0.3,1.2Z" class="g3_46" />
<path d="M621,1162l0,4l6,0l0,16l-20,0l0,-16l7,0l0,-4l-10,0l0,24l27,0l0,-24Z" class="g3_46" />
<path d="M611.6,1178.4c0,0,1.4,-13.2,-1.5,-23.9l4.3,1.5c2.5,10.7,1.4,22.4,1.4,22.4Z" class="g4_46" />
<path d="M619.6,1178.4c0,0,1.1,-12.1,-0.9,-20.9l4.1,1.5c2,10.2,0.9,19.4,0.9,19.4Z" class="g4_46" />
<path d="M651.8,1177l0,3.8c0,1.5,-0.6,2.9,-1.7,4.1c-1.2,1.1,-3,1.7,-5.6,1.7c-1.9,0,-3.5,-0.5,-4.8,-1.6c-1.4,-1.1,-2,-2.5,-2,-4.4l0,-12.2c0,-0.1,0,-0.2,0,-0.4c0.1,-1.5,0.7,-2.9,1.7,-4.2c1,-1.2,2.8,-1.9,5.3,-1.9c2.1,0,3.9,0.6,5.2,1.6c1.3,1.1,1.9,2.7,1.9,4.8l0,3.3l-5.4,0l0,-3.1c0,-0.5,-0.2,-1,-0.5,-1.3c-0.4,-0.4,-0.8,-0.6,-1.2,-0.7l-0.1,0l-0.1,0c-0.4,0,-0.7,0.2,-1,0.5c-0.3,0.4,-0.5,0.9,-0.5,1.8l0,10.8c0,1,0.2,1.8,0.5,2.3c0.4,0.5,0.8,0.7,1.2,0.7l0.1,0c0.4,0,0.8,-0.3,1.1,-0.8c0.3,-0.5,0.5,-1.2,0.5,-2.2l0,-2.6Z" class="g3_46" />
<path d="M660.5,1162.6l4.5,14.2l0,-14.2l5.4,0l0,23.8l-6.1,0l-4.5,-14.3l0,14.3l-5.1,0l0,-23.8Z" class="g3_46" />
<path d="M685,1162l0,5l-6,0l0,5l6,0l0,4l-6,0l0,5l6,0l0,5l-12,0l0,-24Z" class="g3_46" />
<path d="M620.4,1192l0.7,0c0.1,0,0.3,0,0.4,-0.2c0.1,-0.1,0.1,-0.2,0.1,-0.5c0,-0.2,0,-0.4,-0.1,-0.5c-0.1,0,-0.3,-0.1,-0.5,-0.1l-0.6,0Zm0,0.7l0,2.1l-0.9,0l0,-4.8l1.7,0c0.2,0,0.4,0,0.5,0.1c0.2,0,0.3,0.1,0.4,0.2c0.2,0.1,0.3,0.2,0.3,0.3c0.1,0.2,0.1,0.4,0.1,0.6c0,0.1,0,0.2,0,0.4c0,0.1,-0.1,0.2,-0.1,0.3c-0.1,0.1,-0.2,0.2,-0.2,0.3c-0.1,0,-0.3,0.1,-0.4,0.1c0.2,0.1,0.4,0.1,0.5,0.3c0.1,0.1,0.2,0.3,0.2,0.6c0,0.2,0,0.3,0,0.5c0,0.1,0,0.3,0,0.4c0,0.2,0,0.3,0.1,0.4c0,0.1,0,0.1,0.1,0.2l0,0.1l-1,0c0,-0.1,-0.1,-0.3,-0.1,-0.5c0,-0.1,0,-0.3,0,-0.6l0,-0.2c0,-0.1,0,-0.2,0,-0.2c0,-0.1,0,-0.2,0,-0.2c-0.1,-0.1,-0.1,-0.2,-0.1,-0.2c-0.1,-0.1,-0.1,-0.1,-0.2,-0.1c-0.1,0,-0.2,-0.1,-0.3,-0.1c-0.1,0,-0.3,0,-0.5,0Z" class="g3_46" />
<path d="M624.3,1192.9l0.7,0l-0.2,-1.4c0,-0.1,-0.1,-0.3,-0.1,-0.5l0,-0.1c0,-0.1,0,-0.2,0,-0.4c-0.1,0.2,-0.1,0.3,-0.1,0.4l0,0.1c0,0.2,0,0.4,-0.1,0.5Zm-1.3,1.9l1.1,-4.8l1.2,0l1.1,4.8l-1,0l-0.2,-1.2l-1.1,0l-0.2,1.2Z" class="g3_46" />
<path d="M630.4,1190l0.9,0l0,4.8l-0.9,0l-0.7,-1.7c-0.1,-0.3,-0.2,-0.6,-0.3,-0.9c-0.1,-0.3,-0.2,-0.6,-0.3,-1c0,0.3,0,0.5,0,0.7c0,0.2,0,0.4,0.1,0.6c0,0.3,0,0.6,0,0.8c0,0.2,0,0.4,0,0.6l0,0.9l-0.9,0l0,-4.8l0.9,0l0.7,1.8c0.1,0.2,0.2,0.5,0.3,0.8c0.1,0.3,0.2,0.7,0.3,1l0.1,0c-0.1,-0.5,-0.1,-0.9,-0.1,-1.3c-0.1,-0.5,-0.1,-1,-0.1,-1.3Z" class="g3_46" />
<path d="M633.1,1192.9l0.7,0l-0.2,-1.4c0,-0.1,-0.1,-0.3,-0.1,-0.5l0,-0.1c0,-0.1,0,-0.2,0,-0.4c-0.1,0.2,-0.1,0.3,-0.1,0.4l0,0.1c0,0.2,0,0.4,-0.1,0.5Zm-1.3,1.9l1.1,-4.8l1.2,0l1,4.8l-0.9,0l-0.2,-1.2l-1.1,0l-0.2,1.2Z" class="g3_46" />
<path d="M638.4,1193.1l0,0.1c0,0.1,0,0.1,0,0.1c0,0.3,-0.1,0.5,-0.1,0.7c-0.1,0.1,-0.1,0.3,-0.2,0.4c-0.1,0.2,-0.3,0.3,-0.4,0.4c-0.2,0,-0.4,0.1,-0.6,0.1c-0.4,0,-0.7,-0.1,-0.9,-0.2c-0.2,-0.1,-0.4,-0.2,-0.5,-0.4c-0.1,-0.2,-0.1,-0.4,-0.2,-0.7c0,-0.2,0,-0.5,0,-0.9l0,-0.7c0,-0.4,0,-0.7,0.1,-0.9c0,-0.2,0.1,-0.4,0.2,-0.6c0.1,-0.2,0.2,-0.3,0.4,-0.4c0.2,-0.1,0.5,-0.2,0.9,-0.2c0.7,0,1.2,0.4,1.2,1.2c0.1,0.2,0.1,0.3,0.1,0.4l-0.9,0c0,0,0,-0.1,0,-0.2c0,-0.1,0,-0.2,-0.1,-0.2c0,-0.1,0,-0.2,0,-0.2c0,-0.1,-0.1,-0.2,-0.1,-0.2c-0.1,-0.1,-0.2,-0.1,-0.2,-0.1c-0.2,0,-0.3,0.1,-0.4,0.1c-0.1,0.1,-0.1,0.2,-0.2,0.3c0,0.1,-0.1,0.2,-0.1,0.4c0,0.1,0,0.2,0,0.4l0,1.3c0,0.2,0,0.3,0,0.4c0,0.1,0.1,0.2,0.1,0.3c0.1,0.1,0.1,0.2,0.2,0.3c0.1,0,0.2,0.1,0.4,0.1c0,0,0.1,-0.1,0.2,-0.1c0,-0.1,0.1,-0.2,0.1,-0.3c0.1,-0.1,0.1,-0.2,0.1,-0.3c0,-0.1,0,-0.2,0,-0.3c0,0,0,-0.1,0,-0.1Z" class="g3_46" />
<path d="M639.5,1194.5l0,-4" class="g5_46" />
<path d="M641.6,1193.1c0,0.2,0,0.3,0,0.4c0,0.1,0.1,0.2,0.1,0.3c0.1,0.1,0.1,0.2,0.2,0.3c0.1,0,0.2,0.1,0.4,0.1c0.1,0,0.2,-0.1,0.3,-0.1c0.1,-0.1,0.2,-0.2,0.2,-0.3c0,-0.1,0.1,-0.2,0.1,-0.3c0,-0.1,0,-0.3,0,-0.4l0,-1.3c0,-0.1,0,-0.3,0,-0.4c0,-0.1,-0.1,-0.2,-0.1,-0.4c0,-0.1,-0.1,-0.2,-0.2,-0.3c-0.1,0,-0.2,-0.1,-0.3,-0.1c-0.2,0,-0.3,0.1,-0.4,0.1c-0.1,0.1,-0.1,0.2,-0.2,0.3c0,0.1,-0.1,0.2,-0.1,0.4c0,0.1,0,0.2,0,0.4Zm-0.9,-1.1c0,-0.4,0,-0.7,0.1,-0.9c0,-0.2,0.1,-0.4,0.2,-0.6c0.1,-0.2,0.2,-0.3,0.4,-0.4c0.2,-0.1,0.5,-0.2,0.9,-0.2c0.3,0,0.6,0.1,0.8,0.2c0.2,0.1,0.3,0.2,0.4,0.4c0.1,0.2,0.2,0.4,0.2,0.6c0.1,0.2,0.1,0.5,0.1,0.9l0,0.7c0,0.4,0,0.7,0,0.9c-0.1,0.3,-0.1,0.5,-0.2,0.7c-0.1,0.2,-0.3,0.3,-0.5,0.4c-0.2,0.1,-0.5,0.2,-0.8,0.2c-0.4,0,-0.7,-0.1,-0.9,-0.2c-0.2,-0.1,-0.4,-0.2,-0.5,-0.4c-0.1,-0.2,-0.1,-0.4,-0.2,-0.7c0,-0.2,0,-0.5,0,-0.9Z" class="g3_46" />
<path d="M646.7,1190l0.9,0l0,4.8l-1,0l-0.7,-1.7c-0.1,-0.3,-0.2,-0.6,-0.3,-0.9c-0.1,-0.3,-0.2,-0.6,-0.3,-1c0,0.3,0,0.5,0.1,0.7c0,0.2,0,0.4,0,0.6c0,0.3,0,0.6,0,0.8c0,0.2,0,0.4,0,0.6l0,0.9l-0.8,0l0,-4.8l0.9,0l0.7,1.8c0.1,0.2,0.2,0.5,0.3,0.8c0.1,0.3,0.2,0.7,0.3,1c0,-0.5,-0.1,-0.9,-0.1,-1.3c0,-0.5,0,-1,0,-1.3Z" class="g3_46" />
<path d="M649.3,1192.9l0.8,0l-0.3,-1.4c0,-0.1,0,-0.3,0,-0.5l-0.1,-0.1c0,-0.1,0,-0.2,0,-0.4c0,0.2,0,0.3,0,0.4l0,0.1c-0.1,0.2,-0.1,0.4,-0.1,0.5Zm-1.3,1.9l1.1,-4.8l1.2,0l1.1,4.8l-1,0l-0.2,-1.2l-1,0l-0.3,1.2Z" class="g3_46" />
<path d="M651,1194l0,-4l1,0l0,4l2,0Z" class="g3_46" />
<path d="M656,1194l0,-4l2,0l-1,0l0,1l1,0l0,1l-1,0l0,2l1,0Z" class="g3_46" />
<path d="M659,1194l0,-4l1,0l0,4l2,0Z" class="g3_46" />
<path d="M662,1194l0,-4l3,0l-2,0l0,1l2,0l0,1l-2,0l0,2l2,0Z" class="g3_46" />
<path d="M668.6,1193.1l0,0.1c0,0.1,0,0.1,0,0.1c0,0.3,-0.1,0.5,-0.1,0.7c-0.1,0.1,-0.1,0.3,-0.2,0.4c-0.1,0.2,-0.3,0.3,-0.4,0.4c-0.2,0,-0.4,0.1,-0.7,0.1c-0.3,0,-0.6,-0.1,-0.8,-0.2c-0.2,-0.1,-0.4,-0.2,-0.5,-0.4c-0.1,-0.2,-0.1,-0.4,-0.2,-0.7c0,-0.2,0,-0.5,0,-0.9l0,-0.7c0,-0.4,0,-0.7,0.1,-0.9c0,-0.2,0.1,-0.4,0.2,-0.6c0.1,-0.2,0.2,-0.3,0.4,-0.4c0.2,-0.1,0.5,-0.2,0.8,-0.2c0.8,0,1.3,0.4,1.3,1.2c0.1,0.2,0.1,0.3,0.1,0.4l-0.9,0c0,0,0,-0.1,0,-0.2c0,-0.1,0,-0.2,-0.1,-0.2c0,-0.1,0,-0.2,0,-0.2c0,-0.1,-0.1,-0.2,-0.1,-0.2c-0.1,-0.1,-0.2,-0.1,-0.3,-0.1c-0.1,0,-0.2,0.1,-0.3,0.1c-0.1,0.1,-0.1,0.2,-0.2,0.3c0,0.1,-0.1,0.2,-0.1,0.4c0,0.1,0,0.2,0,0.4l0,1.3c0,0.2,0,0.3,0,0.4c0,0.1,0.1,0.2,0.1,0.3c0.1,0.1,0.1,0.2,0.2,0.3c0.1,0,0.2,0.1,0.3,0.1c0.2,0,0.2,-0.1,0.3,-0.1c0,-0.1,0.1,-0.2,0.1,-0.3c0.1,-0.1,0.1,-0.2,0.1,-0.3c0,-0.1,0,-0.2,0,-0.3c0,0,0,-0.1,0,-0.1Z" class="g3_46" />
<path d="M668,1190l3,0l-1,0l0,4l-1,0l0,-4l-1,0Z" class="g3_46" />
<path d="M673.2,1193.1c0,0.2,0,0.3,0,0.4c0,0.1,0.1,0.2,0.1,0.3c0.1,0.1,0.1,0.2,0.2,0.3c0.1,0,0.2,0.1,0.4,0.1c0.1,0,0.2,-0.1,0.3,-0.1c0.1,-0.1,0.2,-0.2,0.2,-0.3c0,-0.1,0.1,-0.2,0.1,-0.3c0,-0.1,0,-0.3,0,-0.4l0,-1.3c0,-0.1,0,-0.3,0,-0.4c0,-0.1,-0.1,-0.2,-0.1,-0.4c0,-0.1,-0.1,-0.2,-0.2,-0.3c-0.1,0,-0.2,-0.1,-0.3,-0.1c-0.2,0,-0.3,0.1,-0.4,0.1c-0.1,0.1,-0.1,0.2,-0.2,0.3c0,0.1,-0.1,0.2,-0.1,0.4c0,0.1,0,0.2,0,0.4Zm-0.9,-1.1c0,-0.4,0,-0.7,0.1,-0.9c0,-0.2,0.1,-0.4,0.2,-0.6c0.1,-0.2,0.2,-0.3,0.4,-0.4c0.2,-0.1,0.5,-0.2,0.9,-0.2c0.3,0,0.6,0.1,0.8,0.2c0.2,0.1,0.3,0.2,0.4,0.4c0.1,0.2,0.2,0.4,0.2,0.6c0.1,0.2,0.1,0.5,0.1,0.9l0,0.7c0,0.4,0,0.7,0,0.9c-0.1,0.3,-0.1,0.5,-0.2,0.7c-0.1,0.2,-0.3,0.3,-0.5,0.4c-0.2,0.1,-0.5,0.2,-0.8,0.2c-0.4,0,-0.7,-0.1,-0.9,-0.2c-0.2,-0.1,-0.3,-0.2,-0.5,-0.4c-0.1,-0.2,-0.1,-0.4,-0.2,-0.7c0,-0.2,0,-0.5,0,-0.9Z" class="g3_46" />
<path d="M677,1192l0.7,0c0.2,0,0.3,0,0.4,-0.2c0.1,-0.1,0.1,-0.2,0.1,-0.5c0,-0.2,0,-0.4,-0.1,-0.5c-0.1,0,-0.2,-0.1,-0.4,-0.1l-0.7,0Zm0,0.7l0,2.1l-0.9,0l0,-4.8l1.7,0c0.2,0,0.4,0,0.6,0.1c0.1,0,0.3,0.1,0.4,0.2c0.1,0.1,0.2,0.2,0.3,0.3c0,0.2,0.1,0.4,0.1,0.6c0,0.1,0,0.2,-0.1,0.4c0,0.1,0,0.2,-0.1,0.3c0,0.1,-0.1,0.2,-0.2,0.3c-0.1,0,-0.2,0.1,-0.4,0.1c0.3,0.1,0.5,0.1,0.6,0.3c0.1,0.1,0.1,0.3,0.1,0.6c0,0.2,0,0.3,0,0.5c0,0.1,0,0.3,0.1,0.4c0,0.2,0,0.3,0,0.4c0,0.1,0.1,0.1,0.1,0.2l0,0.1l-1,0c0,-0.1,0,-0.3,0,-0.5c0,-0.1,-0.1,-0.3,-0.1,-0.6l0,-0.2c0,-0.1,0,-0.2,0,-0.2c0,-0.1,0,-0.2,0,-0.2c0,-0.1,-0.1,-0.2,-0.1,-0.2c0,-0.1,-0.1,-0.1,-0.2,-0.1c-0.1,0,-0.2,-0.1,-0.3,-0.1c-0.1,0,-0.2,0,-0.4,0Z" class="g3_46" />
<path d="M680.9,1192.9l0.8,0l-0.3,-1.4c0,-0.1,0,-0.3,0,-0.5l-0.1,-0.1c0,-0.1,0,-0.2,0,-0.4c0,0.2,0,0.3,0,0.4l0,0.1c-0.1,0.2,-0.1,0.4,-0.1,0.5Zm-1.3,1.9l1.1,-4.8l1.2,0l1.1,4.8l-1,0l-0.2,-1.2l-1,0l-0.3,1.2Z" class="g3_46" />
<path d="M683,1194l0,-4l1,0l0,4l1,0Z" class="g3_46" />
<image x="131" y="1154" width="53" height="53" xlink:href="img/1.png" />
<image x="716" y="1149" width="62" height="63" xlink:href="img/2.png" />
<path d="M249,1169.4l1.2,0c2.1,0,2.5,-1.5,2.5,-3.2c0,-1.7,-0.4,-3.2,-2.5,-3.2l-1.2,0Zm-1.8,-7.9l3.1,0c2.5,0,4.2,1.4,4.2,4.7c0,3.3,-1.7,4.7,-4.2,4.7l-3.1,0Z" class="g6_46" />
<path d="M257,1170l-2,0l0,-6l2,0Zm-2,-9l2,0l0,1l-2,0Z" class="g6_46" />
<path d="M259.2,1170.9l0,-6.8l1.5,0l0,1.2c0.4,-0.8,1,-1.3,1.9,-1.3l0,1.7c0,0,-0.1,0,-0.2,0c-0.9,0,-1.6,0.9,-1.6,1.1l0,4.1Z" class="g6_46" />
<path d="M267.4,1166.7c-0.1,-1,-0.6,-1.5,-1.3,-1.5c-0.8,0,-1.3,0.5,-1.3,1.5Zm-2.6,1.1c0,1.4,0.6,1.9,1.4,1.9c0.7,0,1.1,-0.3,1.5,-0.8l1.1,0.7c-0.6,1,-1.5,1.4,-2.8,1.4c-1.7,0,-2.9,-1.3,-2.9,-3.5c0,-2.1,1.2,-3.5,3,-3.5c1.8,0,2.7,1.5,2.7,3.1l0,0.7Z" class="g6_46" />
<path d="M273.9,1166.3c-0.2,-0.5,-0.5,-1,-1.3,-1c-0.9,0,-1.3,0.7,-1.3,2.2c0,1.5,0.4,2.2,1.3,2.2c0.7,0,1.1,-0.5,1.5,-1.1l1.2,0.7c-0.7,1.2,-1.5,1.7,-2.7,1.7c-1.8,0,-2.9,-1.3,-2.9,-3.5c0,-2.1,1.1,-3.5,2.9,-3.5c1.3,0,2.3,0.7,2.7,1.8Z" class="g6_46" />
<path d="M280.4,1166.3c-0.2,-0.5,-0.5,-1,-1.3,-1c-0.9,0,-1.3,0.7,-1.3,2.2c0,1.5,0.4,2.2,1.3,2.2c0.8,0,1.2,-0.5,1.5,-1.1l1.2,0.7c-0.6,1.2,-1.5,1.7,-2.7,1.7c-1.8,0,-2.9,-1.3,-2.9,-3.5c0,-2.1,1.1,-3.5,2.9,-3.5c1.3,0,2.3,0.7,2.7,1.8Z" class="g6_46" />
<path d="M284,1170l-1,0l0,-6l1,0Zm-1,-9l1,0l0,1l-1,0Z" class="g6_46" />
<path d="M291.4,1161.4l-1.9,1.9l-1.4,0l1.2,-1.9Zm-2.2,3.9c-0.9,0,-1.3,0.7,-1.3,2.2c0,1.5,0.4,2.2,1.3,2.2c0.9,0,1.3,-0.7,1.3,-2.2c0,-1.5,-0.4,-2.2,-1.3,-2.2Zm0,-1.3c1.9,0,3,1.4,3,3.5c0,2.2,-1.1,3.5,-3,3.5c-1.8,0,-2.9,-1.3,-2.9,-3.5c0,-2.1,1.1,-3.5,2.9,-3.5Z" class="g6_46" />
<path d="M293.3,1170.9l0,-6.8l1.5,0l0,0.8c0.6,-0.5,1.3,-0.9,2.1,-0.9c1.3,0,2,0.9,2,2.3l0,4.6l-1.6,0l0,-4.4c0,-0.9,-0.3,-1.2,-0.9,-1.2c-0.7,0,-1.2,0.4,-1.5,0.7l0,4.9Z" class="g6_46" />
<path d="M304.7,1170.9l0,-9.4l1.9,0l3.7,6.4l0,-6.4l1.7,0l0,9.4l-1.7,0l-3.9,-6.7l0,6.7Z" class="g6_46" />
<path d="M317.2,1167.7c-1.1,0.2,-2.3,0.4,-2.3,1.3c0,0.5,0.3,0.8,0.8,0.8c0.5,0,1.1,-0.4,1.5,-0.7Zm0.1,3.2l-0.1,-0.6c-0.6,0.4,-1.2,0.7,-2.1,0.7c-1.2,0,-1.8,-0.9,-1.8,-1.8c0,-1.5,1.2,-2.3,3.9,-2.6l0,-0.6c0,-0.5,-0.4,-0.8,-1,-0.8c-0.8,0,-1.2,0.4,-1.5,0.8l-1,-0.8c0.4,-0.7,1.5,-1.2,2.5,-1.2c1.8,0,2.6,0.7,2.6,2.7l0,3.2c0,0.4,0,0.7,0.1,1Z" class="g6_46" />
<path d="M324.2,1166.3c-0.3,-0.5,-0.6,-1,-1.4,-1c-0.9,0,-1.3,0.7,-1.3,2.2c0,1.5,0.4,2.2,1.4,2.2c0.7,0,1.1,-0.5,1.4,-1.1l1.2,0.7c-0.6,1.2,-1.4,1.7,-2.7,1.7c-1.8,0,-2.9,-1.3,-2.9,-3.5c0,-2.1,1.1,-3.5,2.9,-3.5c1.3,0,2.3,0.7,2.7,1.8Z" class="g6_46" />
<path d="M328,1170l-1,0l0,-6l1,0Zm-1,-9l1,0l0,1l-1,0Z" class="g6_46" />
<path d="M332.9,1165.3c-0.9,0,-1.3,0.7,-1.3,2.2c0,1.5,0.4,2.2,1.3,2.2c0.9,0,1.4,-0.7,1.4,-2.2c0,-1.5,-0.5,-2.2,-1.4,-2.2Zm0,-1.3c1.9,0,3,1.4,3,3.5c0,2.2,-1.1,3.5,-3,3.5c-1.8,0,-2.9,-1.3,-2.9,-3.5c0,-2.1,1.1,-3.5,2.9,-3.5Z" class="g6_46" />
<path d="M337,1170.9l0,-6.8l1.5,0l0,0.8c0.6,-0.5,1.3,-0.9,2.1,-0.9c1.4,0,2,0.9,2,2.3l0,4.6l-1.6,0l0,-4.4c0,-0.9,-0.3,-1.2,-0.8,-1.2c-0.7,0,-1.3,0.4,-1.6,0.7l0,4.9Z" class="g6_46" />
<path d="M347.5,1167.7c-1,0.2,-2.2,0.4,-2.2,1.3c0,0.5,0.3,0.8,0.8,0.8c0.5,0,1.1,-0.4,1.4,-0.7Zm0.2,3.2l-0.1,-0.6c-0.6,0.4,-1.3,0.7,-2.1,0.7c-1.2,0,-1.8,-0.9,-1.8,-1.8c0,-1.5,1.2,-2.3,3.8,-2.6l0,-0.6c0,-0.5,-0.4,-0.8,-0.9,-0.8c-0.8,0,-1.2,0.4,-1.5,0.8l-1.1,-0.8c0.4,-0.7,1.6,-1.2,2.6,-1.2c1.8,0,2.6,0.7,2.6,2.7l0,3.2c0,0.4,0,0.7,0.1,1Z" class="g6_46" />
<path d="M350,1170l2,0l0,-9l-2,0l0,9Z" class="g6_46" />
<path d="M358,1170l0,-9l6,0l0,2l-4,0l0,2l3,0l0,1l-3,0l0,3l4,0l0,1Z" class="g6_46" />
<path d="M366,1170l2,0l0,-9l-2,0l0,9Z" class="g6_46" />
<path d="M373.6,1166.7c0,-1,-0.5,-1.5,-1.3,-1.5c-0.8,0,-1.3,0.5,-1.3,1.5Zm-2.6,1.1c0,1.4,0.7,1.9,1.4,1.9c0.8,0,1.1,-0.3,1.5,-0.8l1.2,0.7c-0.6,1,-1.5,1.4,-2.8,1.4c-1.8,0,-2.9,-1.3,-2.9,-3.5c0,-2.1,1.1,-3.5,2.9,-3.5c1.8,0,2.8,1.5,2.8,3.1l0,0.7Z" class="g6_46" />
<path d="M380.2,1166.3c-0.3,-0.5,-0.6,-1,-1.3,-1c-0.9,0,-1.4,0.7,-1.4,2.2c0,1.5,0.5,2.2,1.4,2.2c0.7,0,1.1,-0.5,1.4,-1.1l1.3,0.7c-0.7,1.2,-1.5,1.7,-2.7,1.7c-1.9,0,-3,-1.3,-3,-3.5c0,-2.1,1.1,-3.5,3,-3.5c1.2,0,2.2,0.7,2.6,1.8Z" class="g6_46" />
<path d="M383.2,1164.1l0,-2.2l1.6,0l0,2.2l1.3,0l0,1.3l-1.3,0l0,3.9c0,0.3,0.2,0.4,0.6,0.4c0.2,0,0.5,-0.1,0.7,-0.1l0,1.3c-0.4,0.1,-0.8,0.1,-1.2,0.1c-1.2,0,-1.7,-0.6,-1.7,-1.5l0,-4.1l-0.9,0l0,-1.3Z" class="g6_46" />
<path d="M389.7,1165.3c-0.9,0,-1.3,0.7,-1.3,2.2c0,1.5,0.4,2.2,1.3,2.2c0.9,0,1.3,-0.7,1.3,-2.2c0,-1.5,-0.4,-2.2,-1.3,-2.2Zm0,-1.3c1.8,0,2.9,1.4,2.9,3.5c0,2.2,-1.1,3.5,-2.9,3.5c-1.8,0,-3,-1.3,-3,-3.5c0,-2.1,1.2,-3.5,3,-3.5Z" class="g6_46" />
<path d="M393.7,1170.9l0,-6.8l1.5,0l0,1.2c0.4,-0.8,0.9,-1.3,1.9,-1.3l0,1.7c-0.1,0,-0.2,0,-0.3,0c-0.8,0,-1.5,0.9,-1.5,1.1l0,4.1Z" class="g6_46" />
<path d="M401.4,1167.7c-1.1,0.2,-2.3,0.4,-2.3,1.3c0,0.5,0.3,0.8,0.8,0.8c0.5,0,1.1,-0.4,1.5,-0.7Zm0.2,3.2l-0.2,-0.6c-0.6,0.4,-1.2,0.7,-2.1,0.7c-1.2,0,-1.8,-0.9,-1.8,-1.8c0,-1.5,1.3,-2.3,3.9,-2.6l0,-0.6c0,-0.5,-0.4,-0.8,-1,-0.8c-0.8,0,-1.2,0.4,-1.5,0.8l-1,-0.8c0.4,-0.7,1.5,-1.2,2.5,-1.2c1.8,0,2.6,0.7,2.6,2.7l0,3.2c0,0.4,0,0.7,0.1,1Z" class="g6_46" />
<path d="M404,1170l2,0l0,-9l-2,0l0,9Z" class="g6_46" />
<path d="M247.5,1175.5l162,0" class="g7_46" />
<path d="M219.8,1188.4l0,0.5l0.4,1l1.6,1.9l1.8,1.4l2.2,1.2l1.4,0.1l1.6,-0.1l1.5,-0.2l2.3,-1.2l1.3,-1.2l0.4,-0.3l0.8,-0.9l0.7,-1l0.1,-0.7l-2.7,-1.1l-1.4,-0.6l-0.3,0l-0.5,0.6l-0.6,0.2l-0.4,0.3l-0.9,0.3l-1,0.2l-0.9,0.2l-0.5,-0.1l-0.5,-0.3l-0.5,0l-0.6,-0.4l-0.4,-0.1l-0.2,-0.4l-0.6,-0.2l-0.1,-0.1Z" class="g2_46" />
<path d="M224.1,1164.9c-0.1,0.1,-0.1,0.1,-0.3,0.1c-0.1,0,-0.2,0,-0.3,0.1c-0.1,0,-0.3,0,-0.4,0.1c0,0.1,-0.1,0.2,-0.3,0.3c-0.1,0.1,-0.4,0.1,-0.7,0.1c0.3,0.1,0.4,0.2,0.6,0.2c0.2,0,0.4,-0.1,0.6,-0.1c0.2,-0.1,0.3,-0.1,0.5,-0.1c0.1,0,0.2,0,0.5,0.1c-0.3,0,-1.6,0.8,-1.6,0.8c0.2,0,-0.1,0.2,-0.2,0.3c0,-0.1,0,-0.2,-0.1,-0.3c0,0,0,-0.1,-0.1,-0.1c-0.2,0.3,-0.4,0.4,-0.6,0.6c-0.2,0.2,-0.4,0.4,-0.5,0.8c0,-0.1,0,-0.2,-0.1,-0.3c0,-0.1,0,-0.1,-0.1,-0.2c-0.2,0.4,-0.4,0.5,-0.5,0.7c-0.2,0.2,-0.3,0.4,-0.4,0.8c0,-0.1,-0.2,-0.4,-0.3,-0.4c-0.1,0.4,-0.3,0.7,-0.5,0.9c-0.2,0.3,-0.3,0.7,-0.2,1.2c0,0.2,0.1,0.6,0.1,0.7c-0.1,-0.3,-0.1,-0.5,-0.2,-0.7c-0.1,-0.2,-0.3,-0.3,-0.4,-0.3c-0.2,0.2,-0.3,0.4,-0.4,0.7c-0.1,0.2,-0.2,0.4,-0.2,0.7c-0.1,-0.1,-0.3,-0.2,-0.3,-0.2c-0.1,0.4,-0.3,0.7,-0.4,1c-0.1,0.3,-0.1,0.6,0.3,1.1c0.1,0.2,-0.4,-0.4,-0.6,-0.4c-0.1,0.3,-0.4,1.1,-0.4,1.4c0,0,-0.2,-0.1,-0.3,-0.1c0.1,0.4,0,0.8,-0.1,1.1c-0.1,0.6,0.4,1.1,0.2,0.8c-0.2,-0.2,-0.3,-0.3,-0.4,-0.3c0,0.5,-0.1,0.7,-0.1,0.9c-0.1,0.2,-0.1,0.5,0,0.9c0,-0.1,-0.4,-0.2,-0.5,-0.2c0.1,0.4,0.1,0.7,0.1,1c0.1,0.4,0.3,0.6,0.6,0.9c0.3,0.1,0.3,0.3,0,0.1c-0.2,-0.2,-0.5,-0.4,-0.7,-0.4c0.1,0.4,0.1,0.8,0.2,1.1c0,0.3,0.1,0.6,0.3,0.8c-0.1,-0.1,-0.6,-0.2,-0.8,-0.2c0.2,0.4,0.3,0.7,0.4,1c0.1,0.4,0.2,0.6,0.6,1c-0.1,-0.1,-0.6,-0.1,-0.7,-0.1c0.2,0.3,0.3,1.2,0.4,1.4c-0.1,0,-0.3,0.1,-0.3,0.1c0.2,0.3,0.6,1.4,0.9,1.6c-0.1,0,-0.3,0,-0.4,0.1c0.2,0.2,0.5,1.1,0.6,1.3c0,0,-0.2,0.1,-0.2,0.1c0.2,0.2,0.4,0.5,0.5,0.7c0.1,0.3,0.3,0.5,0.6,0.6c-0.1,0,-0.4,0.1,-0.4,0.1c0.2,0.3,0.7,1,0.9,1.2c-0.1,0,-0.4,0.1,-0.4,0.1c0.3,0.3,0.5,0.5,0.7,0.7c0.1,0.2,0.3,0.4,0.6,0.5c-0.1,0,-0.4,0.1,-0.4,0.1c0.4,0.3,0.5,0.5,0.5,0.7c0.1,0.1,0.1,0.2,0.5,0.4c0,0,-0.1,0.1,-0.1,0.1c0.3,0.2,0.6,0.6,0.9,0.9c0.4,0.2,0.8,0.5,1.7,0.5c0.4,0.4,1.2,0.9,2.1,1.3c0.8,0.4,1.7,0.7,2.5,0.8c-0.3,-0.1,-0.6,-0.3,-0.7,-0.6c-1.9,-0.5,-3.1,-1.4,-3.3,-1.7c0,-0.1,-0.2,-0.9,-0.2,-1.1l0,-0.1c0.5,0.5,1.1,1,1.7,1.3c0.6,0.3,1.2,0.5,1.9,0.7c0,0,0.1,-0.1,0.1,-0.1c0.2,-0.1,0.4,-0.3,0.9,-0.3c-1.8,-0.2,-3.3,-1,-4.4,-2c-1.3,-1.1,-2.2,-2.5,-2.8,-3.3c0,-0.1,0.6,-0.4,1.3,-0.6c0.7,-0.3,2.6,-0.8,2.6,-0.8c0,0.2,0.2,0.3,0.3,0.3c0.1,0.1,0.3,0.1,0.2,0c0.1,0.1,0.1,0.1,0.1,0.2c0,0.1,0.1,0.2,0.2,0.3c0.2,0.1,0.3,0.2,0.4,0.2c0.1,0,0.2,-0.1,0.2,-0.1c0,0.1,0.1,0.3,0.3,0.4c0.2,0,0.5,0.1,0.8,-0.1c-0.1,0.1,0,0.2,0.1,0.3c0.1,0,0.2,0,0.2,0.1c0.1,0,0.3,0,0.4,0c0.2,0.1,0.3,0,0.5,0l0,2.4c-0.1,0.4,0.3,0.5,0.4,0.6c0.7,0,0.6,-0.4,0.7,-0.6c0,-0.5,0,-2.5,0,-2.4c0.3,-0.1,0.4,-0.2,0.5,-0.2c0.1,-0.1,0.1,-0.1,0.2,-0.2c0.2,0.1,0.3,0.1,0.4,0c0.1,0,0.2,-0.1,0.3,-0.3c0.2,0,0.3,0,0.5,0c0.1,-0.1,0.2,-0.2,0.3,-0.3c0.1,0,0.3,0,0.5,-0.1c0.1,-0.2,0.3,-0.4,0.4,-0.7c0.3,0.1,3.6,1.7,4.1,1.9c-0.2,0.4,-1,1.6,-2.4,2.8c-1.1,1,-2.6,1.9,-4.4,2.2c0.4,0,0.8,0.1,1,0.4c0.6,-0.2,1.1,-0.4,1.7,-0.7c0.6,-0.3,1.1,-0.6,1.7,-1.1l-0.1,0.1c0,0.2,-0.1,0.8,-0.2,1c-0.1,0.4,-0.8,0.7,-1.4,1c-0.6,0.2,-1.2,0.5,-1.6,0.6c-0.2,0.5,-0.9,0.7,-1,0.7c0.5,-0.1,1.5,-0.4,2.5,-0.8c1,-0.5,1.9,-1,2.5,-1.4c0.5,0.1,0.9,-0.1,1.2,-0.4c0.4,-0.2,0.7,-0.6,1.1,-0.8c0,0,-0.2,-0.1,-0.2,-0.1c0.2,-0.1,0.4,-0.3,0.6,-0.5c0.2,-0.2,0.3,-0.4,0.6,-0.6c0,0,-0.3,-0.1,-0.4,-0.1c0.4,-0.1,0.5,-0.3,0.5,-0.4c0,-0.2,0.1,-0.4,0.5,-0.7c0,0,-0.1,0,-0.1,0c0,0,0,-0.1,-0.1,-0.1c0.3,-0.1,0.4,-0.3,0.5,-0.5c0.1,-0.3,0.2,-0.5,0.4,-0.7c0,0,-0.3,-0.1,-0.4,-0.1c0.4,-0.2,0.6,-0.4,0.8,-0.6c0.1,-0.2,0.2,-0.5,0.5,-0.8c0,0,-0.3,0,-0.4,0c0.3,-0.2,0.3,-0.4,0.4,-0.6c0.1,-0.3,0.1,-0.6,0.3,-0.9c-0.1,-0.1,-0.4,0,-0.5,0c0.4,-0.2,0.5,-0.4,0.7,-0.7c0.1,-0.3,0.2,-0.6,0.4,-0.9c-0.1,-0.1,-0.3,-0.1,-0.4,-0.1c0.3,-0.3,0.3,-0.4,0.2,-0.6c0,-0.2,-0.1,-0.4,0.1,-1c0,0,-0.4,0,-0.4,0c0.3,-0.2,0.4,-0.5,0.5,-0.8c0.1,-0.3,-0.1,-0.7,0.1,-1c-0.2,-0.1,-1,0.5,-0.8,0.4c0.4,-0.3,0.5,-0.6,0.6,-1c0.1,-0.3,-0.1,-0.7,0,-1.1c-0.2,-0.1,-0.4,0.1,-0.6,0.3c-0.3,0.3,-0.3,0.1,0,0c0.3,-0.3,0.5,-0.5,0.6,-0.9c0,-0.4,0,-0.8,0.2,-1.2c-0.1,0,-0.4,0.1,-0.5,0.1c0.1,-0.2,-0.1,-1.2,-0.1,-1.6c-0.2,0,-0.4,0.2,-0.6,0.5c-0.2,0.3,-0.3,0.1,-0.1,0c0.4,-0.5,0.4,-0.8,0.4,-1.2c-0.1,-0.3,-0.2,-0.7,-0.2,-1.1c0,0,-0.2,0,-0.2,0.1c0,-0.3,-0.4,-1,-0.4,-1.3c-0.2,0,-0.7,0.6,-0.6,0.4c0.2,-0.4,0.2,-0.7,0.2,-1c-0.1,-0.3,-0.2,-0.7,-0.3,-1.1c0,0,-0.3,0.2,-0.4,0.2c0,-0.2,0,-0.4,-0.1,-0.7c-0.2,-0.2,-0.2,-0.4,-0.3,-0.7c-0.2,0,-0.4,0.1,-0.5,0.3c-0.2,0.2,-0.2,0.3,-0.2,0.5c0,-0.1,0.1,-0.5,0.1,-0.6c0,-0.5,-0.1,-0.8,-0.2,-1.1c-0.2,-0.3,-0.4,-0.5,-0.6,-1c-0.1,0.1,-0.3,0.5,-0.3,0.7c-0.1,-0.4,-0.2,-0.6,-0.4,-0.9c-0.1,-0.2,-0.3,-0.4,-0.5,-0.7c-0.1,0.1,-0.2,0.3,-0.2,0.6c-0.1,0.2,-0.2,0.3,-0.1,0.6c0,-0.1,0,0,0,-0.1c0,-0.1,0,-0.2,0,-0.4c0,-0.5,-0.1,-0.8,-0.4,-1.1c-0.1,-0.1,-0.3,-0.2,-0.4,-0.3l0.1,0c0,0,-0.2,-0.1,-0.4,-0.3c0,0,-0.2,-0.1,-0.2,-0.1c-0.4,-0.3,-1,-0.6,-1.1,-0.6c-0.1,0,0.5,-0.1,0.5,-0.1c-0.1,0,-0.4,-0.6,-0.5,-0.6l2.3,-0.4c0,0,-2.3,-0.4,-2.3,-0.4c0,0,0.1,-0.1,0.2,-0.1c0.1,-0.1,0.2,-0.1,0.3,-0.1c0.1,0,0.2,0,0.3,0c0.2,-0.1,0.3,-0.1,0.4,-0.2c0,-0.1,0.1,-0.2,0.3,-0.3c0.1,-0.1,0.4,-0.1,0.7,-0.1c-0.3,-0.2,-0.5,-0.2,-0.6,-0.2c-0.2,0,-0.4,0.1,-0.6,0.2c-0.2,0.1,-0.3,0.1,-0.5,0.1c-0.1,-0.1,-0.3,-0.1,-0.6,-0.1c0,0,1.9,-1.1,1.9,-1.2l-2.3,0.5c0.2,-0.2,0.4,-0.3,0.6,-0.4c0.2,-0.1,0.4,-0.2,0.5,-0.5c0,-0.1,0.1,-0.2,0.2,-0.3c0.1,-0.1,0.2,-0.2,0.4,-0.3c-0.2,-0.1,-0.3,0,-0.6,0.1c-0.2,0,-0.4,0.2,-0.6,0.5c-0.1,0,-0.2,0.1,-0.4,0.1c-0.2,0.1,-0.4,0.1,-0.5,0.2l1.4,-1.9l-1.9,1.2c0,-0.2,0.1,-0.3,0.2,-0.4c0.1,-0.1,0.3,-0.3,0.3,-0.5c0,-0.1,0,-0.3,0,-0.4c0.1,-0.2,0.2,-0.5,0.4,-0.7c-0.2,0.1,-0.4,0.2,-0.6,0.4c-0.1,0.2,-0.2,0.4,-0.3,0.7c-0.1,0.1,-0.2,0.2,-0.3,0.3c-0.2,0.1,-0.3,0.2,-0.4,0.3c0,0.1,0.5,-2.2,0.5,-2.2l-1.4,2c0,0,0,-0.1,0.1,-0.2c0,-0.1,0,-0.2,0,-0.3c0.1,-0.2,0.1,-0.3,0.2,-0.4l0,-0.3c-0.1,-0.2,-0.2,-0.3,-0.2,-0.5c0,-0.2,0,-0.4,0.2,-0.7c-0.4,0.3,-0.5,0.5,-0.5,0.7c-0.1,0.3,0,0.6,-0.1,0.8c-0.1,0.1,-0.1,0.2,-0.2,0.3c0,0.2,-0.1,0.3,-0.1,0.4l-0.4,-2.3l-0.4,2.3c-0.2,-0.2,-0.2,-0.3,-0.2,-0.5c0,-0.1,0,-0.3,0,-0.5c-0.1,-0.2,-0.3,-0.3,-0.4,-0.4c-0.1,-0.1,-0.2,-0.3,-0.2,-0.8c-0.1,0.2,-0.2,0.3,-0.2,0.5c0,0.2,0.1,0.5,0.3,0.9c0,0.1,0,0.2,0,0.4l0,0.6l-1.3,-2l0.6,2.3c-0.2,0,-0.3,-0.2,-0.4,-0.4c-0.1,-0.2,-0.2,-0.4,-0.3,-0.5c-0.1,-0.1,-0.3,-0.1,-0.5,-0.2c-0.2,-0.1,-0.3,-0.3,-0.5,-0.7c0,0.3,0,0.5,0.1,0.7c0.1,0.1,0.3,0.3,0.5,0.5c0,0.1,0.1,0.3,0.2,0.5c0.1,0.2,0.2,0.4,0.2,0.5l-1.9,-1.4c0,0,1.3,1.9,1.4,1.9c-0.3,0.1,-0.4,-0.1,-0.6,-0.2c-0.2,-0.2,-0.4,-0.4,-0.8,-0.3c-0.3,0,-0.5,-0.2,-0.6,-0.3c-0.1,0,-0.2,-0.2,-0.2,-0.1c0.1,0.4,0.4,0.6,0.6,0.7c0.2,0.1,0.5,0.1,0.6,0.3c0,0.1,0.1,0.1,0.2,0.2c0.1,0.2,0.2,0.3,0.3,0.3l-2.3,-0.5l2,1.2c-0.1,0.1,-0.3,0,-0.6,0c-0.2,-0.1,-0.4,-0.1,-0.6,0c-0.4,0.1,-0.6,0.1,-0.8,0.1c-0.2,0,-0.3,-0.1,-0.3,-0.1c0.2,0.2,0.4,0.3,0.5,0.4c0.2,0,0.4,0,0.6,0c0.2,0,0.3,0,0.5,0.1c0.2,0.1,0.4,0.2,0.6,0.2l-2.4,0.5Z" class="g8_46" />
<path d="M227.4,1195.6c0,-0.1,0,-0.1,0,-0.2c0,0.1,0,0.1,0,0.2Z" class="g8_46" />
<path d="M228.7,1197c0,-0.1,0,-0.2,0,-0.2c0,0,-0.1,0.3,-0.1,0.3c0,0,0,-0.1,0.1,-0.1Z" class="g8_46" />
<path d="M228.3,1197.5c0.1,-0.1,0.1,-0.1,0.2,-0.1c-0.1,0,-0.2,0.1,-0.3,0.1c0,0,0.1,0,0.1,0Z" class="g8_46" />
<path d="M227.5,1197.5l0,-1" class="g9_46" />
<path d="M239.3,1180.8c0,-0.2,0.2,-0.5,0.4,-0.8c0.1,-0.2,0.3,-0.4,0.4,-0.4c-0.1,0.3,-0.1,0.5,-0.1,0.7c0,0.2,-0.1,0.4,-0.3,0.7c-0.2,0.1,-0.2,0.2,-0.3,0.2c0,0.1,-0.1,0.1,-0.1,0.2c0,-0.1,0,-0.2,0.1,-0.3c0,-0.1,0.1,-0.2,0.1,-0.3c0,0.1,-0.1,0.1,-0.2,0.2c0,0.1,-0.1,0.2,-0.1,0.3c-0.1,-0.1,-0.1,-0.1,-0.2,-0.1c-0.1,0,-0.2,-0.1,-0.3,-0.2c-0.1,-0.2,-0.1,-0.3,-0.1,-0.5c0,-0.1,0,-0.3,-0.1,-0.5c0.1,0.2,0.3,0.3,0.5,0.4c0.1,0.1,0.2,0.2,0.3,0.4ZM240,1178c-0.1,0.3,-0.1,0.4,-0.1,0.6c0,0.2,-0.1,0.4,-0.3,0.6c-0.2,0.1,-0.3,0.1,-0.3,0.2c0,0.1,-0.1,0.1,-0.1,0.2c0,-0.1,0,-0.2,0.1,-0.3c0,-0.1,0.1,-0.2,0.1,-0.3c-0.1,0.1,-0.1,0.2,-0.2,0.2c0,0.1,-0.1,0.1,-0.1,0.2c-0.1,0,-0.1,0,-0.2,0c-0.1,0,-0.2,-0.1,-0.3,-0.2c-0.1,-0.2,-0.1,-0.3,-0.2,-0.5c0,-0.2,0,-0.3,0,-0.5c0.1,0.1,0.3,0.3,0.4,0.4c0.2,0.1,0.3,0.3,0.4,0.4c0,-0.2,0.2,-0.5,0.3,-0.7c0.2,-0.3,0.4,-0.3,0.5,-0.3Zm-0.9,-0.4c0,-0.2,0.1,-0.5,0.2,-0.7c0.1,-0.2,0.3,-0.4,0.4,-0.5c0,0.3,0,0.5,0,0.7c0.1,0.2,0,0.4,-0.1,0.7c-0.2,0.1,-0.3,0.2,-0.3,0.2c0,0.1,0,0.1,-0.1,0.2c0,-0.1,0,-0.2,0.1,-0.3c0,-0.1,0,-0.2,0,-0.3c0,0.1,-0.1,0.2,-0.1,0.3c-0.1,0,0.2,-0.5,0.1,-0.4c0,0,-0.3,0.6,-0.4,0.5c-0.1,0,-0.2,0,-0.3,-0.1c-0.2,-0.2,-0.2,-0.3,-0.3,-0.4c0,-0.2,-0.1,-0.4,-0.1,-0.5c0.1,0.1,0.3,0.2,0.5,0.3c0.2,0.1,0.3,0.2,0.4,0.3Zm-1,8.5c0,-0.2,-0.2,-0.3,-0.3,-0.5c0,0,0.1,-0.1,0.1,-0.1c0,-0.1,0,-0.1,0,-0.2l0,0.1c0.1,0.3,0.3,0.5,0.3,0.7c0.1,0.1,0.1,0.3,0.1,0.5l0,0.1c0,-0.2,-0.1,-0.4,-0.2,-0.6Zm-12.4,-14.2c0.2,0.4,0.6,0.6,0.6,0.6c-1,1,-1.4,1.9,-1.4,2c0,-0.1,-0.7,0.7,-0.3,2.1c0.3,0.6,1.3,0.8,1.6,0.8c0.8,0,1.3,0,1.3,0l0,2.8l-9.6,0c0,0,0.2,-11.1,8.8,-12.8c0.8,-0.2,3.6,-0.5,6,1.4c0,0,0.1,0.1,0.1,0.1c5.1,3.5,5.3,11.3,5.3,11.3l-9.6,0l0,-2.8c0,0,1.1,0.1,1.9,0.1c0.7,-0.1,1.1,0,1.3,-0.6c0.2,-0.6,0.5,-1,0.2,-1.4c-0.1,-0.1,-0.4,-0.4,-0.8,-1.4c-0.4,-1,0.2,-3.8,-3.1,-4.1c-0.5,0.1,-0.7,0.1,-1,0.2c-1.1,0.4,-1.4,1.3,-1.3,1.7Zm-8.1,14.5c0,-0.2,0,-0.4,0.1,-0.5c0,-0.2,0.1,-0.3,0.3,-0.7c0,0.1,0,0.1,0,0.1c0,0.1,0,0.1,0,0.2c-0.1,0.1,-0.2,0.3,-0.3,0.4c0,0.2,-0.1,0.4,-0.1,0.5Zm0.3,-4.2c-0.1,-0.8,0,-1.5,0,-1.5c-0.1,0,9.6,-0.1,9.6,-0.1c0,0,0,3,0,3c-0.2,0,-0.6,0,-0.9,0c-0.3,0,-0.7,0,-1,0c-0.9,0.2,-1.2,0.5,-2,0.8c-0.8,0.2,-2.2,0.4,-5.3,0.5c-0.2,-0.9,-0.3,-1.9,-0.4,-2.7Zm19.3,-8.5c0,0.1,0.1,0.1,0.1,0.1c0,0.1,0.1,0.1,0.1,0.1c0,0,-0.1,0,-0.1,0c0,-0.1,-0.1,-0.1,-0.1,-0.1Zm-8.7,7l9.6,0c0,0.1,-0.1,1,-0.2,1.9c-0.1,0.9,-0.3,2,-0.5,2.8c-1,0,-1.9,-0.3,-2.8,-0.5c-0.9,-0.3,-1.7,-0.5,-2.5,-0.5c-0.5,-0.1,-1,-0.4,-1.6,-0.7c-0.6,-0.3,-1.3,-0.5,-2,-0.5Zm10.7,-6c0,0.4,0.1,0.6,0.1,0.8c0,0.2,0,0.4,-0.2,0.6c-0.2,0.1,-0.2,0.2,-0.3,0.3c0,0,0,0.1,0,0.1l0,-0.3c0,-0.1,0,-0.2,0,-0.3c0,0.1,-0.1,0.2,-0.1,0.2c0,0.1,-0.1,0.2,-0.1,0.3c0,0,-0.1,0,-0.2,0c0,-0.1,-0.1,-0.1,-0.3,-0.2c-0.2,-0.2,-0.2,-0.3,-0.3,-0.5c0,-0.1,0,-0.3,-0.1,-0.5c0.1,0.2,0.3,0.3,0.5,0.4c0.2,0.1,0.4,0.2,0.4,0.3c0,-0.2,0.1,-0.4,0.2,-0.7c0.2,-0.2,0.3,-0.4,0.4,-0.5Zm-0.9,0c-0.1,-0.2,0,-0.5,0.1,-0.7c0,-0.3,0.2,-0.5,0.2,-0.5c0.1,0.3,0.2,0.5,0.2,0.6c0.1,0.2,0.1,0.4,0,0.7c-0.2,0.1,-0.2,0.2,-0.2,0.3c0,0,0,0.1,0,0.2c-0.1,-0.1,-0.1,-0.2,-0.1,-0.3c0,-0.1,0,-0.2,0,-0.3c0,0,0,0.1,-0.1,0.2c0,0.1,0,0.2,0,0.2c-0.1,0,-0.1,0.1,-0.2,0c-0.1,0,-0.2,0,-0.4,-0.1c-0.2,-0.1,-0.3,-0.3,-0.4,-0.4c0,-0.1,-0.1,-0.3,-0.2,-0.5c0.2,0.2,0.4,0.2,0.6,0.3c0.2,0.1,0.4,0.2,0.5,0.3Zm-0.5,-2.9c0,0.3,0.1,0.5,0.2,0.7c0.1,0.2,0.1,0.4,-0.1,0.7c-0.1,0.1,-0.2,0.1,-0.2,0.2c0,0.1,0,0.1,0,0.2c0,-0.1,-0.1,-0.2,-0.1,-0.3c0,-0.1,0,-0.2,0.1,-0.3c-0.1,0.1,-0.1,0.1,-0.1,0.2c-0.1,0.1,-0.1,0.2,-0.1,0.3l-0.2,0c0,-0.1,-0.2,-0.1,-0.3,-0.2c-0.2,-0.1,-0.3,-0.3,-0.4,-0.4c-0.1,-0.2,-0.1,-0.3,-0.2,-0.5c0.2,0.1,0.4,0.2,0.6,0.3c0.2,0.1,0.4,0.2,0.4,0.3c0,-0.2,0,-0.5,0.1,-0.7c0.1,-0.3,0.2,-0.5,0.3,-0.5Zm-0.8,-0.6c0,-0.2,0.2,0.2,0.3,0.1c0.1,0.3,0,-0.3,0.1,-0.1c0,0.2,0.1,0.4,0,0.7c-0.1,0.1,-0.1,0.2,-0.1,0.3c-0.1,0,0,0.1,0,0.1c-0.1,0,-0.1,-0.1,-0.1,-0.2c-0.1,-0.1,-0.1,-0.2,-0.1,-0.3c0,0.1,0,0.1,0,0.2c-0.1,0.1,-0.1,0.2,0,0.3l-0.2,0c-0.1,0,-0.2,0,-0.4,-0.1c-0.2,-0.2,-0.4,-0.3,-0.5,-0.4c0,-0.1,-0.1,-0.3,-0.3,-0.5c0.2,0.1,0.5,0.2,0.7,0.3c0.2,0,0.4,0.1,0.5,0.2c-0.1,-0.2,0,-0.4,0.1,-0.6Zm-1.1,-0.9c-0.1,-0.2,-0.1,-0.5,-0.1,-0.8c0,-0.3,0,-0.5,0.1,-0.6c0.1,0.3,0.3,0.4,0.3,0.6c0.1,0.1,0.1,0.3,0.1,0.7c0,0.2,0,0.3,0,0.3c0,0.1,0,0.2,0,0.3c0,-0.1,-0.1,-0.2,-0.1,-0.4c-0.1,-0.1,-0.1,-0.2,-0.1,-0.3l0,0.3c0,0.1,0,0.2,0,0.3c0,0,0,0.1,-0.1,0.1c-0.1,0,-0.2,0,-0.3,0c-0.3,-0.1,-0.4,-0.2,-0.5,-0.3c-0.1,-0.1,-0.2,-0.3,-0.3,-0.4c0.2,0,0.4,0,0.5,0.1c0.2,0,0.4,0,0.5,0.1Zm-1.4,-1.1c0.2,-0.1,0.3,-0.1,0.4,0c-0.1,-0.2,-0.1,-0.4,-0.2,-0.7c0,-0.3,0,-0.5,0.1,-0.6c0.2,0.3,0.3,0.4,0.4,0.5c0.1,0.1,0.1,0.3,0.2,0.6c-0.1,0.2,-0.1,0.3,-0.1,0.4c0,0.1,0.1,0.1,0.1,0.2c-0.1,-0.1,-0.1,-0.2,-0.2,-0.3c0,-0.1,-0.1,-0.2,-0.1,-0.3l0,0.3c0.1,0.1,0.1,0.2,0.1,0.3c0,0,-0.1,0.1,-0.1,0.1c-0.1,0,-0.2,0.1,-0.4,0.1c-0.2,-0.1,-0.3,-0.2,-0.5,-0.3c-0.1,-0.1,-0.2,-0.2,-0.4,-0.3c0.3,0,0.5,0,0.7,0Zm-1.3,-1.2c0.2,0,0.4,0,0.5,0c-0.1,-0.1,-0.2,-0.4,-0.3,-0.7c-0.1,-0.3,-0.1,-0.5,0,-0.6c0.2,0.2,0.3,0.3,0.5,0.5c0.1,0.1,0.2,0.3,0.2,0.7c0,0.1,0,0.2,0,0.3c0,0.1,0.1,0.1,0.1,0.2c-0.1,-0.1,-0.1,-0.2,-0.2,-0.3c0,0,-0.1,-0.1,-0.1,-0.2c0,0.1,0,0.1,0,0.2c0,0.1,0.1,0.2,0.1,0.3c0,0,-0.1,0.1,-0.1,0.1c-0.1,0,-0.2,0.1,-0.4,0.1c-0.2,0,-0.4,-0.1,-0.5,-0.2c-0.1,-0.1,-0.2,-0.2,-0.4,-0.3c0.2,0,0.4,-0.1,0.6,-0.1Zm-1.3,-2c0.2,0.2,0.4,0.3,0.6,0.4c0.2,0.1,0.3,0.2,0.4,0.5l0,0.3c0,0,-0.1,-0.1,-0.1,-0.2c-0.1,0,-0.1,-0.1,-0.1,-0.1c0,0.1,0,0.2,0.1,0.3c0,0.1,0,0.2,0.1,0.3c0,0,-0.1,0,-0.1,0.1c0,0,-0.1,0.1,-0.3,0.1c-0.4,0.1,-0.6,0,-0.7,-0.1c-0.1,0,-0.2,-0.1,-0.4,-0.2c0.2,0,0.4,-0.1,0.6,-0.2c0.2,0,0.4,-0.1,0.5,-0.1c-0.2,-0.1,-0.3,-0.3,-0.5,-0.6c-0.1,-0.2,-0.1,-0.4,-0.1,-0.5Zm-0.4,1c-0.1,0,-0.3,0.1,-0.5,0.1c-0.3,0.1,-0.5,0,-0.7,-0.2c-0.2,-0.1,-0.4,-0.2,-0.3,-0.3c0,0,0,0.1,0.1,0.1c0.1,0,0.3,0.1,0.5,0.1c0.2,0,0.4,0,0.5,0c-0.1,0,-0.2,0,-0.3,-0.1c-0.1,0,-0.1,0,-0.2,-0.1c0.1,0,0.1,0,0.3,-0.1c0.1,0,0.2,-0.1,0.4,-0.1c0.2,0,0.3,0.1,0.3,0.2c0.1,0.2,0.1,0.2,0.3,0.3c-0.2,0,-0.3,0,-0.4,0.1Zm-1.3,-1.3c0.1,-0.1,0.3,-0.3,0.5,-0.3c0.2,0,0.5,0.1,0.6,0.1c0.1,0.1,0.3,0.2,0.5,0.1c0,0.1,-0.6,0.4,-1.1,0.6c-0.4,0.1,-0.9,0.1,-1,-0.1c0.1,0,0.2,0,0.3,0c0.1,0,0.2,-0.1,0.3,-0.1c-0.1,0,-0.2,0,-0.3,0c0,0,-0.1,0,-0.2,0c0.1,-0.1,0.3,-0.2,0.4,-0.3Zm-1.6,-0.1c0.2,-0.2,0.4,-0.3,0.6,-0.3c0.2,0,0.4,0,0.7,0c0,0.1,-0.2,0.3,-0.5,0.5c-0.2,0.1,-0.4,0.2,-0.6,0.2c0.1,0.1,0.2,0.1,0.3,0.3c0.2,0.1,0.3,0.4,0.5,0.5c-0.2,0,-0.3,0,-0.5,0c-0.1,0,-0.3,-0.1,-0.5,-0.2c-0.2,-0.2,-0.2,-0.3,-0.2,-0.4c0,-0.1,0,-0.2,-0.2,-0.2c0.1,-0.1,0.1,-0.1,0.2,-0.1c0,-0.1,0.1,-0.1,0.2,-0.3Zm-1.6,0.5c0,-0.1,0.1,-0.2,0.2,-0.3c0.2,-0.3,0.3,-0.4,0.5,-0.5c0.2,0,0.4,-0.1,0.7,-0.2c0,0.1,-0.2,0.3,-0.4,0.6c-0.2,0.2,-0.4,0.4,-0.6,0.4c0.1,0.1,0.3,0.2,0.4,0.3c0.2,0.1,0.4,0.3,0.5,0.4c-0.2,0,-0.3,0,-0.5,0c-0.1,0,-0.3,0,-0.5,-0.1c-0.1,-0.1,-0.2,-0.2,-0.2,-0.2c-0.1,-0.1,-0.1,-0.2,-0.1,-0.2c0.1,0,0.1,-0.1,0.2,-0.2c0.1,0,0.1,-0.1,0.2,-0.2c-0.1,0.1,-0.2,0.1,-0.3,0.2c-0.1,0,-0.2,0.1,-0.3,0.1c0.1,-0.1,0.1,-0.1,0.2,-0.1Zm-1.5,0.2c0,-0.1,0.1,-0.1,0.1,-0.3c0.2,-0.3,0.4,-0.4,0.6,-0.5c0.2,0,0.4,-0.1,0.7,-0.2c0,0.1,-0.2,0.3,-0.4,0.5c-0.2,0.2,-0.4,0.4,-0.6,0.5c0.2,0,0.3,0.1,0.4,0.2c0.2,0.1,0.4,0.3,0.5,0.3c-0.2,0,-0.3,0.1,-0.5,0.1c-0.1,0.1,-0.3,0.1,-0.5,0c-0.1,-0.1,-0.2,-0.2,-0.2,-0.2c-0.1,-0.1,-0.1,-0.1,-0.1,-0.2c0.1,0,0.1,-0.1,0.2,-0.2c0,0,0.1,-0.1,0.2,-0.2c-0.1,0.1,-0.2,0.1,-0.3,0.2c-0.1,0.1,-0.2,0.1,-0.3,0.1c0.1,0,0.1,0,0.2,-0.1Zm-1.5,0.5c0,0,0,-0.1,0.1,-0.3c0.1,-0.4,0.3,-0.5,0.5,-0.6c0.2,-0.1,0.5,-0.2,0.7,-0.3c0,0.1,-0.1,0.3,-0.2,0.6c-0.2,0.2,-0.5,0.5,-0.7,0.6c0.1,0,0.3,0,0.4,0.1c0.2,0.1,0.3,0.2,0.5,0.3c-0.2,0,-0.3,0.1,-0.5,0.2c-0.1,0,-0.3,0,-0.5,-0.1c-0.1,0,-0.2,-0.1,-0.3,-0.1c0,-0.1,0,-0.1,0,-0.2c0,0,0.1,-0.1,0.1,-0.2c0.1,0,0.2,-0.1,0.2,-0.2c-0.1,0.1,-0.2,0.2,-0.2,0.2c-0.1,0.1,-0.2,0.1,-0.3,0.2c0.1,-0.1,0.1,-0.1,0.2,-0.2Zm-1.5,0.9c0.1,-0.1,0.1,-0.2,0.1,-0.4c0,-0.3,0.2,-0.5,0.3,-0.6c0.2,-0.1,0.4,-0.2,0.6,-0.4c0,0.1,0,0.4,-0.1,0.6c-0.1,0.2,-0.3,0.5,-0.4,0.6c0.1,0,0.3,0.1,0.5,0.1c0.2,0.1,0.4,0.2,0.6,0.2c-0.2,0.1,-0.3,0.2,-0.5,0.2c-0.1,0.1,-0.3,0.1,-0.5,0.1c-0.2,-0.1,-0.3,-0.1,-0.3,-0.1c-0.1,-0.1,-0.1,-0.1,-0.2,-0.2c0.1,0,0.1,-0.1,0.2,-0.2c0,-0.1,0,-0.2,0,-0.2c0,0,-0.1,0.1,-0.1,0.2c-0.1,0.1,-0.2,0.2,-0.3,0.2c0.1,0,0.1,-0.1,0.1,-0.1Zm-1,0.4c0.1,-0.3,0.2,-0.5,0.3,-0.6c0.1,-0.2,0.3,-0.3,0.5,-0.5c0.1,0,0,0.3,0,0.6c-0.1,0.3,-0.2,0.5,-0.3,0.7c0.1,-0.1,0.3,-0.1,0.5,0c0.2,0,0.4,0,0.6,0.1c-0.2,0.1,-0.3,0.2,-0.4,0.3c-0.2,0,-0.3,0.1,-0.5,0.1c-0.2,0,-0.3,0,-0.4,0c0,-0.1,-0.1,-0.1,-0.1,-0.1c0,-0.1,0,-0.2,0.1,-0.3c0,-0.1,0,-0.2,0,-0.3c0,0.1,-0.1,0.2,-0.1,0.3c-0.1,0.1,-0.1,0.2,-0.2,0.3c0,-0.1,0.1,-0.2,0.1,-0.2c0,-0.1,0,-0.2,-0.1,-0.4Zm-1.1,1c0,-0.4,0.1,-0.5,0.2,-0.7c0,-0.1,0.2,-0.2,0.3,-0.5c0.1,0.1,0.1,0.3,0.1,0.6c0,0.3,-0.1,0.6,-0.2,0.7c0.1,0,0.3,0,0.5,0c0.2,0,0.4,0,0.6,0c-0.2,0.1,-0.3,0.3,-0.4,0.4c-0.1,0.1,-0.3,0.1,-0.5,0.2c-0.2,0,-0.3,0,-0.4,-0.1c0,0,0,-0.1,-0.1,-0.1l0.1,-0.2l0,-0.3c0,0.1,-0.1,0.2,-0.1,0.3c-0.1,0.1,-0.1,0.1,-0.1,0.2c0,-0.1,0,-0.1,0,-0.2c0,-0.1,0,-0.2,0,-0.3Zm-0.9,0.5c0.1,-0.2,0.2,-0.3,0.3,-0.6c0.1,0.1,0.2,0.3,0.2,0.6c0,0.3,-0.1,0.6,-0.2,0.8c0.1,-0.1,0.3,-0.1,0.5,-0.1c0.2,0,0.4,0,0.6,-0.1c-0.2,0.2,-0.3,0.3,-0.4,0.4c-0.1,0.1,-0.2,0.2,-0.4,0.3c-0.2,0,-0.3,0,-0.3,0c-0.1,0,-0.2,-0.1,-0.2,-0.1c0,-0.1,0,-0.2,0,-0.3l0,-0.3c0,0.2,0,0.3,0,0.4c-0.1,0.1,-0.1,0.2,-0.2,0.3c0.1,-0.1,0.1,-0.2,0.1,-0.2c0,-0.1,0,-0.2,-0.1,-0.4c0,-0.4,0.1,-0.5,0.1,-0.7Zm-1.1,1.7c0.1,-0.2,0.2,-0.3,0.3,-0.6c0.1,0,0.2,0.2,0.2,0.5c0.1,0.2,0,0.5,0,0.7c0.1,-0.1,0.3,-0.2,0.5,-0.2c0.2,-0.1,0.4,-0.2,0.6,-0.3c-0.1,0.2,-0.2,0.3,-0.3,0.5c-0.1,0.1,-0.2,0.2,-0.4,0.3c-0.2,0.1,-0.3,0.1,-0.4,0.1c-0.1,0,-0.1,0,-0.2,0l0,-0.2c0,-0.1,0,-0.2,-0.1,-0.2c0,0,0,0.1,0,0.2c0,0.1,-0.1,0.2,-0.1,0.3l0,-0.1c0,-0.1,0,-0.2,-0.2,-0.3c0,-0.3,0,-0.5,0.1,-0.7Zm-0.6,1.9c-0.1,-0.3,-0.1,-0.5,0,-0.7c0,-0.2,0.1,-0.3,0.1,-0.6c0.2,0,0.3,0.2,0.3,0.4c0.1,0.3,0.1,0.6,0.1,0.8c0.1,-0.1,0.3,-0.2,0.5,-0.3c0.2,-0.1,0.4,-0.2,0.6,-0.3c-0.1,0.1,-0.2,0.3,-0.3,0.4c0,0.2,-0.1,0.3,-0.3,0.5c-0.2,0.1,-0.3,0.1,-0.4,0.1c-0.1,0,-0.1,0,-0.1,0c-0.1,-0.1,-0.1,-0.1,-0.1,-0.2c0,-0.1,-0.1,-0.2,-0.1,-0.2c0,0,0,0.1,0,0.2c0,0.1,0,0.2,0,0.3c0,-0.1,0,-0.1,-0.1,-0.1c0,-0.1,0,-0.2,-0.2,-0.3Zm-0.7,1c0,-0.2,0.1,-0.4,0.1,-0.7c0.1,0,0.2,0.2,0.3,0.5c0.1,0.3,0.1,0.5,0.1,0.7c0.1,-0.1,0.3,-0.1,0.5,-0.2c0.2,-0.1,0.4,-0.2,0.6,-0.3c-0.2,0.2,-0.2,0.3,-0.3,0.4c-0.1,0.2,-0.1,0.3,-0.3,0.4c-0.2,0.1,-0.3,0.2,-0.4,0.2l-0.2,0c0,-0.1,0,-0.2,0,-0.3c-0.1,-0.1,-0.1,-0.1,-0.1,-0.2l0,0.3c0,0.1,0,0.2,-0.1,0.3c0,-0.1,0,-0.1,0,-0.2c0,-0.1,-0.1,-0.1,-0.2,-0.3c-0.1,-0.2,-0.1,-0.4,0,-0.6Zm-0.3,1.9c-0.2,-0.2,-0.2,-0.4,-0.2,-0.6c0,-0.2,0.1,-0.4,0.1,-0.7c0.1,0,0.2,0.2,0.4,0.4c0.1,0.3,0.2,0.6,0.2,0.7c0,-0.1,0.2,-0.2,0.4,-0.3c0.1,-0.1,0.3,-0.2,0.5,-0.4c-0.1,0.2,-0.1,0.4,-0.1,0.6c-0.1,0.1,-0.1,0.2,-0.3,0.4c-0.2,0.1,-0.3,0.2,-0.3,0.2c-0.1,0,-0.2,0.1,-0.2,0.1c0,-0.1,-0.1,-0.2,-0.1,-0.3c0,-0.1,-0.1,-0.2,-0.2,-0.3c0.1,0.1,0.1,0.2,0.1,0.3c0,0.1,0,0.2,0,0.3c0,0,0,-0.1,0,-0.2c-0.1,0,-0.1,-0.1,-0.3,-0.2Zm-0.7,0.9c0.1,-0.1,0.1,-0.3,0.1,-0.6c0.1,0,0.3,0.2,0.4,0.4c0.1,0.2,0.2,0.5,0.2,0.7c0.1,-0.1,0.2,-0.2,0.4,-0.3c0.2,-0.1,0.4,-0.2,0.5,-0.3c-0.1,0.2,-0.1,0.3,-0.1,0.5c-0.1,0.1,-0.1,0.3,-0.3,0.4c-0.1,0.1,-0.2,0.2,-0.3,0.2l-0.2,0c0,-0.1,0,-0.2,-0.1,-0.2c0,-0.1,-0.1,-0.2,-0.1,-0.3c0,0.1,0,0.2,0.1,0.3l0,0.3c-0.1,-0.1,-0.1,-0.1,-0.1,-0.1c0,-0.1,-0.1,-0.2,-0.3,-0.3c-0.1,-0.3,-0.2,-0.5,-0.2,-0.7Zm0.7,2.4c0,-0.1,-0.1,-0.2,-0.1,-0.2c-0.1,-0.1,-0.1,-0.2,-0.2,-0.2c0.1,0,0.1,0.1,0.1,0.2c0.1,0.1,0.1,0.2,0.1,0.3c0,0,0,-0.1,-0.1,-0.2c0,0,-0.1,-0.1,-0.3,-0.1c-0.2,-0.3,-0.3,-0.5,-0.3,-0.6c0,-0.2,0,-0.4,-0.1,-0.7c0.1,0.1,0.3,0.2,0.4,0.4c0.2,0.2,0.4,0.4,0.4,0.6c0.1,-0.1,0.2,-0.2,0.4,-0.3c0.1,-0.2,0.2,-0.3,0.4,-0.5c-0.1,0.2,0,0.4,-0.1,0.6c0,0.1,0,0.2,-0.2,0.4c0,0.1,-0.1,0.2,-0.2,0.2c-0.1,0,-0.1,0,-0.2,0.1Zm-0.9,0.3c0.1,0,0.3,0.2,0.4,0.4c0.2,0.2,0.4,0.4,0.4,0.6c0.1,-0.1,0.2,-0.2,0.3,-0.3c0.2,-0.1,0.3,-0.3,0.5,-0.4c-0.1,0.2,-0.1,0.3,-0.1,0.5c0,0.1,0,0.3,-0.2,0.5c0,0.1,-0.1,0.1,-0.2,0.2c-0.1,0,-0.1,0,-0.2,0c0,-0.1,0,-0.2,-0.1,-0.2c-0.1,-0.1,-0.1,-0.2,-0.2,-0.2c0.1,0,0.1,0.1,0.1,0.2c0.1,0.1,0.1,0.2,0.1,0.4c0,-0.1,0,-0.2,-0.1,-0.2c0,-0.1,-0.1,-0.2,-0.3,-0.3c-0.2,-0.2,-0.3,-0.4,-0.3,-0.6c0,-0.1,0,-0.3,-0.1,-0.6Zm0.8,2.2c0,-0.1,-0.1,-0.3,-0.2,-0.4c-0.1,-0.1,-0.2,-0.2,-0.3,-0.3c0.2,0.1,0.3,0.2,0.4,0.3c0,0.1,0.1,0.2,0.1,0.3Zm-0.7,0.3c0,-0.1,-0.1,-0.3,-0.2,-0.8c0.1,0,0.3,0.1,0.5,0.3c0.2,0.2,0.4,0.4,0.5,0.6c0,-0.1,0.1,-0.3,0.2,-0.4c0.1,-0.2,0.2,-0.3,0.3,-0.5c0,0.2,0.1,0.4,0.1,0.5c0,0.2,0,0.4,-0.1,0.6c-0.1,0.1,-0.2,0.2,-0.2,0.2c-0.1,0,-0.2,0,-0.2,0.1c0,-0.1,0,-0.2,-0.1,-0.2c0,-0.1,0,-0.2,-0.1,-0.2c0.1,0,0,0.1,0,0.2c0,0,0,0.1,0,0.2c-0.1,0,-0.1,-0.1,-0.1,-0.1c0,-0.1,-0.1,-0.1,-0.2,-0.1c-0.3,-0.2,-0.4,-0.3,-0.4,-0.4Zm0.5,1.2c0.1,0.2,0.3,0.4,0.4,0.5c0,-0.1,0.1,-0.3,0.2,-0.4c0.1,-0.2,0.3,-0.4,0.4,-0.6c0,0.2,0,0.4,0,0.5c0,0.2,0,0.3,-0.1,0.6c-0.1,0.1,-0.2,0.2,-0.2,0.3c-0.1,0,-0.1,0,-0.2,0.1c0,-0.1,0,-0.2,-0.1,-0.2c0,-0.1,0,-0.1,-0.1,-0.2c0.1,0.1,0.1,0.2,0.1,0.3c0,0.1,0,0.2,0,0.3c0,-0.1,-0.1,-0.1,-0.1,-0.2c-0.1,0,-0.1,-0.1,-0.3,-0.1c-0.3,-0.2,-0.3,-0.3,-0.4,-0.5c0,-0.2,0,-0.3,-0.1,-0.6c0.1,0,0.3,0.1,0.5,0.2Zm-0.2,1.7c-0.1,-0.1,-0.2,-0.3,-0.3,-0.6c0.1,0,0.3,0.1,0.6,0.2c0.2,0.1,0.4,0.3,0.5,0.5c0,-0.1,0.1,-0.3,0.2,-0.5c0.1,-0.2,0.2,-0.4,0.3,-0.6c0,0.2,0.1,0.4,0.1,0.5c0,0.2,0,0.3,-0.1,0.6c0,0.2,-0.1,0.3,-0.2,0.3c0,0.1,-0.1,0.1,-0.1,0.2c0,-0.1,-0.1,-0.2,-0.1,-0.2c0,-0.1,-0.1,-0.1,-0.1,-0.2c0,0.1,0,0.1,0.1,0.2l0,0.2c-0.1,0,-0.1,0,-0.1,0c-0.1,-0.1,-0.2,-0.1,-0.3,-0.1c-0.3,-0.1,-0.4,-0.3,-0.5,-0.5Zm0.6,1.7c-0.1,-0.1,-0.2,-0.3,-0.3,-0.6c0.1,0,0.3,0,0.6,0.2c0.2,0.1,0.4,0.3,0.5,0.5c0,-0.2,0.1,-0.3,0.2,-0.5c0.1,-0.2,0.2,-0.4,0.3,-0.6c0,0.2,0.1,0.3,0.1,0.5c0,0.1,0,0.3,0,0.5c-0.1,0.2,-0.1,0.2,-0.2,0.3c0,0.1,-0.1,0.1,-0.1,0.1c-0.1,-0.1,-0.1,-0.1,-0.1,-0.2c-0.1,0,-0.1,0,-0.2,-0.1c0.1,0.1,0.1,0.1,0.1,0.2c0,0.1,0.1,0.3,0.1,0.4c-0.1,-0.1,-0.1,-0.1,-0.2,-0.2c0,0,-0.1,0,-0.3,0c-0.3,-0.2,-0.4,-0.3,-0.5,-0.5Zm0.5,1.4c-0.1,-0.2,-0.2,-0.4,-0.4,-0.6c0.1,0,0.4,0,0.6,0.1c0.3,0.1,0.5,0.2,0.7,0.4c0,-0.1,0,-0.3,0,-0.5c0.1,-0.2,0.2,-0.4,0.2,-0.6c0.1,0.1,0.2,0.3,0.2,0.4c0.1,0.2,0.1,0.3,0.1,0.6c0,0.1,-0.1,0.2,-0.1,0.3c-0.1,0,-0.1,0.1,-0.1,0.1c-0.1,-0.1,-0.2,-0.1,-0.3,-0.2c-0.1,0,-0.2,0,-0.3,0c0.1,0,0.2,0.1,0.3,0.1c0.1,0.1,0.1,0.2,0.2,0.3c0,0,-0.1,0,-0.1,-0.1c-0.1,0,-0.2,0,-0.4,0c-0.3,-0.1,-0.5,-0.2,-0.6,-0.3Zm0.7,1.3c-0.1,-0.1,-0.2,-0.3,-0.4,-0.5c0.1,0,0.3,0,0.6,0.1c0.2,0.1,0.5,0.3,0.7,0.4c-0.1,-0.1,0,-0.2,0.1,-0.4c0,-0.2,0.1,-0.4,0.2,-0.7c0,0.3,0.1,0.4,0.2,0.5c0,0.2,0,0.3,0,0.5c0,0.2,-0.1,0.3,-0.1,0.4c-0.1,0,-0.1,0,-0.2,0.1c0,-0.1,-0.1,-0.1,-0.2,-0.1c-0.1,-0.1,-0.2,-0.1,-0.2,-0.1c0,0,0.1,0.1,0.2,0.2c0.1,0,0.1,0.1,0.2,0.2c-0.1,0,-0.1,-0.1,-0.2,-0.1c0,0,-0.1,-0.1,-0.3,-0.1c-0.3,-0.1,-0.5,-0.2,-0.6,-0.4Zm3.4,3c0,-0.2,0.1,-0.4,0,-0.6c0.2,0.2,0.3,0.3,0.4,0.4c0.1,0.1,0.2,0.3,0.2,0.5c0,0.1,0,0.3,0,0.4c0.1,0.1,0.1,0.2,0.1,0.4c0,-0.1,-0.1,-0.2,-0.2,-0.2c0,0,-0.1,-0.1,-0.2,-0.1c0.1,0,0.1,0.1,0.2,0.2c0.1,0.1,0.1,0.1,0.2,0.2c-0.1,0,-0.2,-0.1,-0.3,-0.1c0,-0.1,-0.2,-0.1,-0.3,-0.1c-0.4,0,-0.6,-0.1,-0.8,-0.3c-0.2,-0.2,-0.4,-0.4,-0.7,-0.5c0.1,-0.1,0.4,-0.1,0.7,0c0.3,0,0.6,0.1,0.8,0.3c-0.1,-0.1,-0.1,-0.3,-0.1,-0.5Zm-1,-1c0.1,-0.2,0.1,-0.4,0.1,-0.6c0.1,0.2,0.2,0.3,0.3,0.5c0.1,0.1,0.1,0.2,0.1,0.4c0,0.2,0,0.3,-0.1,0.4c0,0,-0.1,0,-0.1,0.1c-0.1,-0.1,-0.2,-0.1,-0.2,-0.1c-0.1,-0.1,-0.2,-0.1,-0.3,-0.1c0.1,0,0.2,0.1,0.3,0.2c0,0,0.1,0.1,0.2,0.2c-0.1,-0.1,-0.2,-0.1,-0.3,-0.2c-0.2,0,-0.4,-0.1,-0.6,-0.1c-0.4,-0.1,-0.4,-0.1,-0.5,-0.3c0,-0.1,0,-0.2,-0.3,-0.4c0.1,-0.1,0.4,0,0.6,0.1c0.3,0.1,0.6,0.2,0.8,0.4c-0.1,-0.2,0,-0.3,0,-0.5Zm-0.4,-1.5c0,0.1,0.1,0.2,0.1,0.4c0,0.2,0,0.3,-0.1,0.4c0,0,-0.1,0.1,-0.1,0.1c-0.1,0,-0.2,-0.1,-0.3,-0.1c0,0,-0.1,0,-0.2,0c0.1,0,0.2,0.1,0.2,0.1c0.1,0.1,0.2,0.1,0.3,0.2c-0.1,0,-0.1,0,-0.2,-0.1c-0.1,0,-0.2,0,-0.3,0c-0.4,0,-0.5,-0.1,-0.7,-0.3c-0.1,-0.1,-0.2,-0.3,-0.5,-0.5c0.1,0,0.4,0,0.6,0.1c0.3,0.1,0.6,0.2,0.7,0.3c0,-0.1,0,-0.3,0.1,-0.4c0,-0.2,0.1,-0.5,0.1,-0.7c0.1,0.2,0.2,0.3,0.3,0.5Zm4.5,-2.9c-0.1,0.1,-0.2,0.2,-0.3,0.3c-0.1,0,-0.1,-0.1,-0.2,-0.1c-0.1,-0.1,-0.1,-0.2,0,-0.2l0,-0.1l0.1,-0.1c0.1,0,0.2,-0.1,0.3,-0.1c0.1,0,0.1,0,0.2,0c0,0.1,-0.1,0.2,-0.1,0.3Zm0.5,0.8c0,0,-0.1,0.1,-0.1,0.1c-0.1,-0.1,-0.2,-0.1,-0.2,-0.1c0,-0.1,0,-0.2,0.1,-0.3c0.1,-0.1,0.2,-0.2,0.2,-0.3c0,0,0.1,-0.1,0.1,-0.1c0,0,0.1,0,0.1,0l0,-0.1l0.1,-0.1l0.3,0c0,0.1,0,0.1,0.1,0.2c0,0,-0.1,0.2,-0.3,0.4c-0.1,0.2,-0.3,0.3,-0.4,0.3Zm1.4,0.2c-0.2,0.1,-0.4,0.2,-0.5,0.2c-0.1,0.1,-0.1,0.1,-0.1,0.1c-0.1,0,-0.1,-0.1,-0.2,-0.1c0,-0.1,0,-0.1,0,-0.2c0,0,0.1,-0.1,0.1,-0.1c-0.1,0.1,0,0,0,0c0.1,-0.1,0.2,-0.2,0.3,-0.2l0,-0.1l0.1,0c0.1,-0.1,0.2,-0.2,0.3,-0.3c0.1,0,0.2,0,0.3,0.2c0.1,0.1,-0.1,0.3,-0.3,0.5Zm0.9,0.4c-0.1,0.1,-0.3,0.1,-0.4,0.2c-0.1,-0.1,-0.3,-0.1,-0.3,-0.2c0,0,0.1,-0.2,0.4,-0.4c0,0,0.1,-0.1,0.2,-0.1c0.1,-0.1,0.2,0,0.3,0.2c0,0.1,-0.1,0.2,-0.2,0.3Zm3.7,-1.4l-0.1,0.1c-0.1,0.1,-0.2,0.1,-0.2,0.1c-0.1,0,-0.1,-0.1,-0.3,-0.3c-0.3,-0.4,-0.6,-0.6,-0.9,-0.7c-0.2,-0.2,-0.4,-0.3,-0.5,-0.6c-0.1,0.1,-0.1,0.2,-0.1,0.2c0,0.1,0.1,0.2,0.1,0.3c0.2,0.3,0.4,0.5,0.6,0.6c0.2,0.2,0.4,0.4,0.6,0.7c0,0.1,-0.1,0.2,-0.2,0.2c-0.1,0,-0.2,0,-0.3,0c-0.4,-0.5,-0.7,-0.7,-1,-0.9c-0.2,-0.2,-0.3,-0.3,-0.2,-0.5c0,0,-0.1,0,-0.1,0.1c-0.1,0.1,-0.1,0.2,-0.1,0.2c0.1,0.3,0.3,0.5,0.5,0.7c0.2,0.2,0.4,0.4,0.5,0.7c0,0.2,-0.3,0.2,-0.5,0c-0.3,-0.2,-0.6,-0.5,-0.8,-1l0,-0.1c-0.1,0.2,-0.1,0.3,-0.1,0.4c0,0.1,0.1,0.3,0.4,0.7c0,0.1,0.1,0.2,0.1,0.3c0,0.1,-0.1,0.1,-0.3,0.1l-0.1,0c0,0,-0.1,0,0,0l0.1,0c-0.1,0,-0.1,-0.1,-0.1,-0.1c0.1,-0.4,-0.1,-0.6,-0.3,-0.7c-0.2,-0.1,-0.4,-0.1,-0.4,-0.1c0,-0.2,-0.1,-0.3,-0.2,-0.5c-0.2,0,-0.5,-0.1,-0.8,0c0.1,-0.1,-0.1,-0.3,-0.3,-0.4c-0.2,-0.1,-0.6,-0.1,-1,0c0,-0.1,-0.2,-0.2,-0.5,-0.2c-0.3,0,-0.6,0.1,-0.9,0.5c-0.6,0.1,-1.4,0.3,-2.2,0.6c-0.8,0.2,-1.6,0.3,-2.1,0c-0.1,0.1,-0.3,-0.4,-0.5,-0.9c-0.1,-0.5,-0.3,-1,-0.3,-1c0.7,-0.1,1.8,-0.2,2.9,-0.3c1.1,-0.1,2.1,-0.3,2.7,-0.5c0.4,-0.3,1,-0.5,1.6,-0.6c0.5,-0.2,1.1,-0.2,1.3,-0.1c-0.1,0.2,-0.2,0.4,-0.4,0.6c-0.1,0.2,-0.2,0.4,0,0.6c0.3,0.3,0.7,0.3,1.1,0.3c0.4,0,0.8,-0.2,1.1,-0.4c0.4,0.4,0.8,0.6,1.2,0.8c0.5,0.2,0.8,0.5,1.1,0.9Zm4,0.9c-0.7,-0.1,-1.7,-0.4,-2.8,-1.2c0.1,-0.1,0.1,-0.3,0.2,-0.5c0,-0.2,0,-0.4,-0.1,-0.6c0,-0.2,0,-0.2,0,-0.1c0,0,-0.1,0.1,-0.1,0.2c-0.1,0.2,-0.2,0.4,-0.3,0.5c-0.1,0.1,-0.2,0.2,-0.3,0.2c-0.3,-0.3,-0.5,-0.5,-0.7,-0.6c-0.3,-0.1,-0.5,-0.3,-0.9,-0.5c-0.3,-0.2,-0.5,-0.3,-0.6,-0.5c-0.1,-0.1,-0.2,-0.2,-0.4,-0.3c-0.3,0.2,-0.7,0.4,-1,0.5c-0.4,0.1,-0.7,0.2,-1,0c-0.2,-0.1,-0.1,-0.2,0.2,-0.3c0.1,-0.2,0.4,-0.3,0.6,-0.6c0.2,-0.2,0.3,-0.3,0.5,-0.4c0.2,-0.1,0.4,-0.1,0.6,0c0.5,0.1,0.8,0.2,1.2,0.4c0.4,0.2,0.9,0.4,1.6,0.7c0.8,0,1.5,0.2,2.2,0.4c0.7,0.2,1.5,0.4,2.3,0.6c0.2,0,0.3,0,0.5,0c0.1,0.1,0.3,0.1,0.4,0.1c-0.1,0.3,-0.2,0.6,-0.4,0.9c-0.1,0.3,-0.3,0.7,-0.5,1.1c0,0,-0.4,0.1,-1.2,0Zm-0.1,5.3c-0.1,0.1,-0.3,0.2,-0.7,0.3c-0.2,-0.1,-0.3,-0.1,-0.4,0c-0.1,0.1,-0.2,0.1,-0.3,0.2c0.1,-0.1,0.1,-0.2,0.2,-0.3c0.1,-0.1,0.2,-0.1,0.2,-0.2c0,0.1,-0.1,0.1,-0.2,0.1c-0.1,0.1,-0.1,0.1,-0.2,0.1l0,-0.2c0,-0.1,0,-0.3,0,-0.4c0.1,-0.2,0.2,-0.3,0.3,-0.4c0.1,-0.2,0.2,-0.3,0.3,-0.4c0,0.2,0,0.4,0,0.5c0,0.2,0,0.4,0,0.5c0.1,-0.1,0.5,-0.2,0.8,-0.3c0.3,0,0.5,0,0.6,0c-0.3,0.2,-0.4,0.4,-0.6,0.5Zm1.2,-1.1c-0.2,0.2,-0.4,0.3,-0.7,0.4c-0.2,0,-0.3,0,-0.4,0c0,0,-0.1,0,-0.2,0.1c0.1,-0.1,0.2,-0.1,0.3,-0.2c0.1,-0.1,0.1,-0.1,0.2,-0.2c0,0.1,-0.1,0.1,-0.2,0.1c-0.1,0,-0.2,0.1,-0.3,0.1c0,0,0,-0.1,-0.1,-0.1c0,-0.1,-0.1,-0.2,-0.1,-0.4c0,-0.2,0.1,-0.3,0.2,-0.4c0,-0.2,0.2,-0.3,0.2,-0.5c0.1,0.2,0.1,0.4,0.1,0.6c0.1,0.2,0.1,0.4,0.1,0.5c0.1,-0.2,0.4,-0.3,0.7,-0.4c0.3,-0.1,0.5,-0.1,0.6,-0.1c-0.2,0.2,-0.3,0.4,-0.4,0.5ZM237,1191c-0.2,0.1,-0.4,0.3,-0.7,0.3c-0.2,0,-0.3,0,-0.4,0c0,0,-0.1,0.1,-0.2,0.1c0.1,-0.2,0.1,-0.2,0,-0.3c-0.1,-0.1,-0.1,-0.1,-0.1,-0.4c-0.1,-0.3,0,-0.4,0.1,-0.5c0.1,-0.1,0.2,-0.2,0.3,-0.4c0,0.2,0.1,0.5,0.1,0.7c0,0.1,0,0.3,0,0.4c0.2,-0.2,0.4,-0.3,0.6,-0.4c0.3,-0.1,0.7,-0.1,0.7,0c-0.2,0.1,-0.3,0.3,-0.4,0.5Zm0.8,-1.3c-0.1,0.2,-0.3,0.3,-0.6,0.4c-0.2,0,-0.3,0.1,-0.3,0.1c-0.1,0,-0.1,0.1,-0.2,0.1c0.1,-0.1,0.1,-0.2,0.2,-0.3c0.1,0,0.2,-0.1,0.2,-0.1c0,0,-0.1,0,-0.2,0c-0.1,0.1,-0.2,0.1,-0.2,0.2c-0.1,-0.1,-0.1,-0.1,-0.2,-0.1c0,-0.1,-0.1,-0.2,-0.1,-0.4c-0.1,-0.2,0,-0.3,0,-0.5c0.1,-0.1,0.2,-0.3,0.2,-0.5c0.1,0.2,0.2,0.4,0.2,0.6c0.1,0.2,0.2,0.4,0.1,0.5c0.2,-0.2,0.4,-0.3,0.7,-0.4c0.2,-0.1,0.5,-0.2,0.6,-0.2c-0.2,0.2,-0.3,0.4,-0.4,0.6Zm0.7,-1.4c-0.1,0.2,-0.2,0.3,-0.6,0.4c-0.2,0,-0.3,0,-0.3,0c-0.1,0,-0.1,0.1,-0.2,0.1c0.1,-0.1,0.1,-0.2,0.2,-0.2c0.1,-0.1,0.2,-0.2,0.3,-0.2c-0.1,0,-0.2,0,-0.3,0.1c-0.1,0,-0.2,0.1,-0.2,0.1c0,0,-0.1,-0.1,-0.1,-0.1c-0.1,-0.1,-0.1,-0.2,-0.2,-0.4c0,-0.2,0,-0.4,0.1,-0.5c0.1,-0.1,0.1,-0.3,0.2,-0.5c0,0.2,0.1,0.4,0.2,0.7c0,0.2,0.1,0.3,0.1,0.4c0.1,-0.1,0.4,-0.3,0.6,-0.4c0.3,-0.1,0.5,-0.1,0.6,-0.1c-0.2,0.2,-0.3,0.4,-0.4,0.6Zm0.5,-1.4c0,0.2,-0.2,0.4,-0.4,0.5c-0.2,0,-0.3,0,-0.4,0.1c0,0,0,0.1,-0.1,0.1c0,-0.1,0.1,-0.2,0.2,-0.3c0,0,0.1,-0.1,0.2,-0.2c-0.1,0.1,-0.2,0.1,-0.3,0.1c0,0.1,-0.1,0.1,-0.2,0.2c0,0,-0.1,-0.1,-0.1,-0.1c-0.1,-0.1,-0.1,-0.2,-0.2,-0.3c-0.1,-0.3,-0.1,-0.4,0,-0.6c0,-0.1,0,-0.3,0.1,-0.5c0,0.2,0.2,0.4,0.3,0.6c0.1,0.2,0.1,0.4,0.1,0.5c0.1,-0.2,0.4,-0.4,0.6,-0.5c0.2,-0.2,0.4,-0.3,0.5,-0.2c-0.2,0.2,-0.2,0.5,-0.3,0.6Zm-0.4,-0.6c0,0,0.1,0,0.1,-0.1c0.1,0,0.2,0,0.2,0c0,0,-0.1,0,-0.1,0c-0.1,0.1,-0.1,0.1,-0.2,0.1Zm1,-1c-0.1,0.2,-0.2,0.4,-0.5,0.5c-0.2,0,-0.3,0.1,-0.3,0.1c-0.1,0,-0.1,0,-0.2,0.1c0.1,-0.1,0.1,-0.2,0.2,-0.3c0,0,0.1,-0.1,0.2,-0.2c-0.1,0.1,-0.2,0.1,-0.2,0.1c-0.1,0.1,-0.2,0.1,-0.2,0.2c0,0,-0.1,-0.1,-0.2,-0.1c0,-0.1,-0.1,-0.2,-0.1,-0.4c-0.1,-0.2,-0.1,-0.4,-0.1,-0.5c0,-0.1,0.1,-0.3,0.1,-0.5c0.1,0.2,0.2,0.4,0.3,0.6c0.1,0.2,0.2,0.4,0.2,0.5c0.1,-0.2,0.3,-0.4,0.5,-0.6c0.2,-0.1,0.4,-0.2,0.5,-0.1c-0.1,0.2,-0.2,0.4,-0.2,0.6Zm0.3,-2.1c-0.1,0.3,-0.1,0.5,-0.1,0.7c0,0.2,-0.1,0.4,-0.3,0.6c-0.2,0,-0.3,0.1,-0.3,0.1c-0.1,0,-0.1,0.1,-0.2,0.1c0.1,-0.1,0.1,-0.2,0.1,-0.2c0.1,-0.1,0.1,-0.2,0.2,-0.3c-0.1,0,-0.1,0.1,-0.2,0.2c-0.1,0,-0.1,0.1,-0.2,0.2c0,-0.1,-0.1,-0.1,-0.1,-0.2c-0.1,0,-0.2,-0.1,-0.2,-0.3c-0.2,-0.2,-0.2,-0.4,-0.2,-0.5c0,-0.2,0.1,-0.3,0,-0.6c0.2,0.2,0.3,0.4,0.4,0.6c0.1,0.2,0.2,0.3,0.3,0.5c0,-0.2,0.2,-0.5,0.4,-0.6c0.2,-0.2,0.3,-0.3,0.4,-0.3Zm-0.9,0.2c0,0.1,0,0.1,0,0.1c0,0,0,0.1,0.1,0.1l-0.1,0c0,-0.1,0,-0.1,0,-0.2Zm0.3,-0.1c0,-0.1,0,-0.1,0,-0.1c0.1,-0.1,0.1,-0.1,0.2,-0.2c0,0.1,-0.1,0.1,-0.1,0.2c-0.1,0,-0.1,0,-0.1,0.1Zm0.6,-1.3c0,0.2,-0.1,0.4,-0.4,0.7c-0.2,0,-0.2,0.1,-0.3,0.2c-0.1,0,-0.1,0.1,-0.1,0.1c0,-0.1,0.1,-0.2,0.1,-0.3c0.1,-0.1,0.1,-0.1,0.2,-0.2c-0.1,0,-0.2,0.1,-0.2,0.1c-0.1,0.1,-0.2,0.2,-0.2,0.3c-0.1,-0.1,-0.1,-0.1,-0.2,-0.1c-0.1,0,-0.1,-0.1,-0.2,-0.2c-0.1,-0.2,-0.1,-0.4,-0.1,-0.5c0,-0.2,0.1,-0.4,0.1,-0.6c0,0.2,0.2,0.4,0.3,0.5c0.1,0.2,0.2,0.3,0.3,0.4c0,-0.2,0.2,-0.5,0.4,-0.7c0.2,-0.2,0.4,-0.4,0.5,-0.4c-0.1,0.3,-0.1,0.5,-0.2,0.7Z" class="g2_46" />
<path d="M227.8,1197.5c0.1,0,0.1,0,0.2,0c-0.2,0,-0.3,-0.1,-0.3,-0.1c0,0,0,0.1,0.1,0.1Z" class="g8_46" />
<path d="M216.6,1177.9c0,0.1,0,0.1,0.1,0.2l0,-0.3c-0.1,-0.1,-0.1,-0.2,-0.1,-0.3c0,0.1,0.1,0.2,0.1,0.3c0.1,0,0.1,0.1,0.1,0.2l0.2,0c0.1,-0.1,0.2,-0.1,0.3,-0.2c0.2,-0.1,0.2,-0.3,0.3,-0.4c0,-0.2,0,-0.3,0.1,-0.5c-0.1,0.1,-0.3,0.2,-0.5,0.3c-0.2,0.1,-0.3,0.2,-0.4,0.3c0,-0.2,-0.1,-0.5,-0.2,-0.7c-0.1,-0.2,-0.3,-0.4,-0.4,-0.4c0,0.3,0,0.5,0,0.6c0,0.2,0,0.4,0.1,0.7c0.2,0.1,0.3,0.2,0.3,0.2Z" class="g10_46" />
<path d="M217.2,1179.1c0.2,-0.2,0.2,-0.3,0.2,-0.4c0.1,-0.2,0,-0.4,0.1,-0.6c-0.2,0.2,-0.3,0.3,-0.4,0.5c-0.2,0.1,-0.3,0.2,-0.4,0.3c0,-0.2,-0.2,-0.4,-0.4,-0.6c-0.1,-0.2,-0.3,-0.3,-0.4,-0.4c0.1,0.3,0.1,0.5,0.1,0.7c0,0.1,0.1,0.3,0.3,0.6c0.2,0,0.3,0.1,0.3,0.1c0.1,0.1,0.1,0.2,0.1,0.2c0,-0.1,0,-0.2,-0.1,-0.3c0,-0.1,0,-0.2,-0.1,-0.2c0.1,0,0.1,0.1,0.2,0.2c0,0,0.1,0.1,0.1,0.2c0.1,-0.1,0.1,-0.1,0.2,-0.1c0.1,0,0.2,-0.1,0.2,-0.2Z" class="g10_46" />
<path d="M217.3,1175.1c0,0.1,0,0.2,0.1,0.3c0,-0.1,0,-0.3,0,-0.4l0,-0.3c0,0.1,0,0.1,0.1,0.2c0,0.1,0,0.2,0,0.3l0.2,0c0.1,0,0.2,-0.1,0.4,-0.2c0.2,-0.1,0.2,-0.2,0.3,-0.4c0.1,-0.1,0.1,-0.2,0.3,-0.4c-0.2,0.1,-0.4,0.2,-0.6,0.3c-0.2,0.1,-0.4,0.1,-0.5,0.2c0,-0.2,0,-0.4,-0.1,-0.7c-0.1,-0.3,-0.2,-0.5,-0.3,-0.5c0,0.3,-0.1,0.5,-0.1,0.7c-0.1,0.2,-0.1,0.4,0,0.6c0.1,0.2,0.1,0.2,0.2,0.3Z" class="g10_46" />
<path d="M217.1,1176.5c0,-0.1,0,-0.2,0,-0.3c0,-0.1,0,-0.2,-0.1,-0.3c0.1,0.1,0.2,0.2,0.2,0.3c0,0.1,0.1,0.2,0.1,0.3c0,0,0.1,-0.1,0.2,-0.1c0,0,0.1,-0.1,0.3,-0.2c0.2,-0.2,0.3,-0.3,0.3,-0.4c0.1,-0.1,0,-0.4,0.1,-0.6c-0.2,0.2,-0.4,0.3,-0.5,0.4c-0.2,0.1,-0.4,0.2,-0.4,0.3c0,-0.1,-0.1,-0.4,-0.2,-0.7c-0.2,-0.2,-0.3,-0.4,-0.4,-0.4c0,0.3,-0.1,0.5,-0.1,0.7c0,0.2,0,0.4,0.2,0.7c0,0.1,0.1,0.1,0.1,0.2c0,0,0.2,0.1,0.2,0.1Z" class="g10_46" />
<path d="M226.9,1170.2c0.4,-0.1,0.6,-0.1,1.2,-0.1c3.4,0.6,2.4,2.9,2.9,3.9c0,0,0.2,0.6,0.3,0.7c0.2,0.3,0.6,1.5,0.4,1.9c-0.1,0.6,-0.5,0.8,-1.2,0.8c-0.8,0.1,-2,0,-2,0l0,2.8l9.6,0c0,0,-0.2,-7.8,-5.2,-11.2c0,0,-0.2,-0.2,-0.2,-0.2c-2.4,-1.9,-5.2,-1.7,-6,-1.5c-8.6,1.8,-8.8,12.9,-8.8,12.9l9.6,0l0,-2.8c0,0,-0.5,0,-1.3,0c-0.3,0,-1.2,-0.3,-1.5,-0.8c-0.3,-0.6,-0.6,-1.9,1.8,-4.1c0,0,-0.6,-0.2,-0.8,-0.6c-0.1,-0.4,0.2,-1.3,1.2,-1.7Z" class="g11_46" />
<path d="M230.1,1186c-0.4,-0.2,-0.8,-0.4,-1.2,-0.8c-0.3,0.2,-0.7,0.4,-1.1,0.4c-0.4,0,-0.8,0,-1.1,-0.3c-0.2,-0.2,-0.1,-0.4,0,-0.6c0.2,-0.2,0.3,-0.4,0.4,-0.6c-0.2,-0.1,-0.8,-0.1,-1.3,0.1c-0.6,0.1,-1.2,0.3,-1.6,0.6c-0.6,0.2,-1.6,0.4,-2.7,0.5c-1.1,0.1,-2.2,0.2,-2.9,0.3c0,0,0.2,0.5,0.3,1c0.2,0.5,0.4,1,0.5,0.9c0.5,0.3,1.3,0.2,2.1,0c0.8,-0.3,1.6,-0.5,2.2,-0.6c0.3,-0.4,0.6,-0.5,0.9,-0.5c0.3,0,0.5,0.1,0.5,0.2c0.4,-0.1,0.8,-0.1,1,0c0.2,0.1,0.4,0.3,0.3,0.4c0.3,-0.1,0.6,0,0.8,0c0.1,0.2,0.2,0.3,0.2,0.5c0,0,0.2,0,0.4,0.1c0.2,0.1,0.4,0.3,0.3,0.7c0,0,0,0.1,0.1,0.1c0.2,0,0.3,0,0.3,-0.1c0,-0.1,-0.1,-0.2,-0.1,-0.3c-0.3,-0.4,-0.4,-0.6,-0.4,-0.7c0,-0.1,0,-0.2,0.1,-0.4l0,0.1c0.2,0.5,0.5,0.8,0.8,1c0.2,0.2,0.5,0.2,0.5,0c-0.1,-0.3,-0.3,-0.5,-0.5,-0.7c-0.2,-0.2,-0.4,-0.4,-0.5,-0.7c0,0,0,-0.1,0.1,-0.2c0,-0.1,0.1,-0.1,0.1,-0.1c-0.1,0.2,0,0.3,0.2,0.5c0.3,0.2,0.6,0.4,1,0.9c0.1,0,0.2,0,0.3,0c0.1,0,0.2,-0.1,0.2,-0.2c-0.2,-0.3,-0.4,-0.5,-0.6,-0.7c-0.2,-0.1,-0.4,-0.3,-0.6,-0.6c0,-0.1,-0.1,-0.2,-0.1,-0.3c0,0,0,-0.1,0.1,-0.2c0.1,0.3,0.3,0.4,0.5,0.6c0.3,0.1,0.6,0.3,0.9,0.7c0.2,0.2,0.2,0.3,0.3,0.3c0,0,0.1,0,0.2,-0.1l0.1,-0.1l0.1,-0.2c-0.3,-0.4,-0.6,-0.7,-1.1,-0.9Z" class="g12_46" />
<path d="M228.1,1188.4c-0.1,0,0,0,0,0c0.1,0,0.1,0,0.1,0l-0.1,0Z" class="g12_46" />
<path d="M226.8,1187.6c-0.1,-0.2,-0.2,-0.2,-0.3,-0.2c-0.1,0.1,-0.2,0.2,-0.3,0.3l-0.1,0l0,0.1c-0.1,0,-0.2,0.1,-0.3,0.2c0,0,-0.1,0.1,0,0c0,0,-0.1,0.1,-0.1,0.1c0,0.1,0,0.1,0,0.2c0.1,0,0.1,0.1,0.2,0.1l0.1,-0.1c0.1,0,0.3,-0.1,0.5,-0.2c0.2,-0.2,0.4,-0.4,0.3,-0.5Z" class="g12_46" />
<path d="M225.8,1187.2c-0.1,-0.1,-0.1,-0.1,-0.1,-0.2l-0.3,0l-0.1,0.1l0,0.1c0,0,-0.1,0,-0.1,0c0,0,-0.1,0.1,-0.1,0.1c0,0.1,-0.1,0.2,-0.2,0.3c-0.1,0.1,-0.1,0.2,-0.1,0.3c0,0,0.1,0,0.2,0.1c0,0,0.1,-0.1,0.1,-0.1c0.1,0,0.3,-0.1,0.4,-0.3c0.2,-0.2,0.3,-0.4,0.3,-0.4Z" class="g12_46" />
<path d="M227.3,1188c-0.1,0,-0.2,0.1,-0.2,0.1c-0.3,0.2,-0.4,0.4,-0.4,0.4c0,0.1,0.2,0.1,0.3,0.2c0.1,-0.1,0.3,-0.1,0.4,-0.2c0.1,-0.1,0.2,-0.2,0.2,-0.3c-0.1,-0.2,-0.2,-0.3,-0.3,-0.2Z" class="g12_46" />
<path d="M224.5,1186.8c-0.1,0,-0.2,0.1,-0.3,0.1l-0.1,0.1l0,0.1c-0.1,0,-0.1,0.1,0,0.2c0.1,0,0.1,0.1,0.2,0.1c0.1,-0.1,0.2,-0.2,0.3,-0.3c0,-0.1,0.1,-0.2,0.1,-0.3c-0.1,0,-0.1,0,-0.2,0Z" class="g12_46" />
<path d="M236.3,1188c0.2,-0.4,0.4,-0.8,0.5,-1.1c0.2,-0.3,0.3,-0.6,0.4,-0.9c-0.1,0,-0.3,0,-0.4,-0.1c-0.2,0,-0.3,0,-0.5,0c-0.8,-0.2,-1.6,-0.4,-2.3,-0.6c-0.7,-0.2,-1.4,-0.4,-2.2,-0.4c-0.7,-0.3,-1.2,-0.5,-1.6,-0.7c-0.4,-0.2,-0.7,-0.3,-1.2,-0.4c-0.2,-0.1,-0.4,-0.1,-0.6,0c-0.2,0.1,-0.3,0.2,-0.5,0.4c-0.2,0.3,-0.5,0.4,-0.6,0.6c-0.3,0.1,-0.4,0.2,-0.2,0.3c0.3,0.2,0.6,0.1,1,0c0.3,-0.1,0.7,-0.3,1,-0.5c0.2,0.1,0.3,0.2,0.4,0.3c0.1,0.2,0.3,0.3,0.6,0.5c0.4,0.2,0.6,0.4,0.9,0.5c0.2,0.1,0.4,0.3,0.7,0.6c0.1,0,0.2,-0.1,0.3,-0.2c0.1,-0.1,0.2,-0.3,0.3,-0.5c0,-0.1,0.1,-0.2,0.1,-0.2c0,-0.1,0,-0.1,0,0.1c0.1,0.2,0.1,0.4,0.1,0.6c-0.1,0.2,-0.1,0.4,-0.2,0.5c1.1,0.8,2.1,1.1,2.8,1.2c0.8,0.1,1.2,0,1.2,0Z" class="g12_46" />
<path d="M216.6,1181.5c-0.1,-0.1,-0.2,-0.2,-0.4,-0.3c0.1,0.1,0.2,0.2,0.3,0.3c0.1,0.1,0.2,0.3,0.2,0.4l0,-0.1c0,-0.1,-0.1,-0.2,-0.1,-0.3Z" class="g8_46" />
<path d="M218,1185.5c0,-0.1,0,-0.1,0,-0.2l0,-0.1c-0.2,0.4,-0.3,0.5,-0.3,0.7c-0.1,0.1,-0.1,0.3,-0.1,0.5c0,-0.1,0.1,-0.3,0.1,-0.5c0.1,-0.1,0.2,-0.3,0.3,-0.4Z" class="g8_46" />
<path d="M219.7,1191.6c-0.2,-0.1,-0.5,-0.2,-0.6,-0.1c0.3,0.2,0.3,0.3,0.3,0.4c0.1,0.2,0.1,0.2,0.5,0.3c0.2,0,0.4,0.1,0.6,0.1c0.1,0.1,0.2,0.1,0.3,0.2c-0.1,-0.1,-0.2,-0.2,-0.2,-0.2c-0.1,-0.1,-0.2,-0.2,-0.3,-0.2c0.1,0,0.2,0.1,0.3,0.1c0,0,0.1,0,0.2,0.1c0,-0.1,0.1,-0.1,0.1,-0.1c0.1,-0.1,0.1,-0.2,0.1,-0.4c0,-0.2,0,-0.3,-0.1,-0.4c-0.1,-0.2,-0.2,-0.3,-0.3,-0.5c0,0.2,0,0.4,-0.1,0.6c0,0.2,-0.1,0.3,0,0.5c-0.2,-0.2,-0.5,-0.3,-0.8,-0.4Z" class="g10_46" />
<path d="M220.8,1192.7c-0.3,-0.1,-0.6,-0.1,-0.7,0c0.3,0.1,0.5,0.3,0.7,0.5c0.2,0.2,0.4,0.3,0.8,0.3c0.2,0,0.3,0,0.3,0.1c0.1,0,0.2,0.1,0.3,0.1c-0.1,-0.1,-0.1,-0.1,-0.2,-0.2c-0.1,-0.1,-0.1,-0.2,-0.2,-0.2c0.1,0,0.2,0.1,0.2,0.1c0.1,0,0.2,0.2,0.3,0.2c-0.1,-0.1,-0.1,-0.3,-0.2,-0.4c0,-0.1,0,-0.3,0,-0.4c0,-0.2,-0.1,-0.4,-0.2,-0.5c-0.1,-0.1,-0.2,-0.2,-0.4,-0.4c0.1,0.2,0,0.4,0,0.6c0,0.2,0,0.4,0.1,0.5c-0.2,-0.2,-0.5,-0.3,-0.8,-0.3Z" class="g10_46" />
<path d="M219,1190c0.1,0,0.1,0.1,0.2,0.1c-0.1,-0.1,-0.1,-0.2,-0.2,-0.2c-0.1,-0.1,-0.2,-0.2,-0.2,-0.2c0,0,0.1,0,0.2,0.1c0.1,0,0.2,0,0.2,0.1c0.1,-0.1,0.1,-0.1,0.2,-0.1c0,-0.1,0.1,-0.2,0.1,-0.4c0.1,-0.2,0,-0.3,0,-0.5c-0.1,-0.1,-0.2,-0.2,-0.2,-0.5c-0.1,0.3,-0.2,0.4,-0.3,0.6c0,0.2,-0.1,0.4,0,0.5c-0.2,-0.1,-0.5,-0.3,-0.7,-0.4c-0.3,-0.1,-0.5,-0.2,-0.6,-0.1c0.2,0.2,0.3,0.4,0.4,0.5c0.1,0.2,0.3,0.3,0.6,0.4c0.2,0,0.3,0.1,0.3,0.1Z" class="g10_46" />
<path d="M219.7,1190.2c-0.1,0.1,-0.1,0.3,-0.1,0.4c-0.1,-0.1,-0.4,-0.2,-0.7,-0.3c-0.2,-0.1,-0.5,-0.1,-0.5,-0.1c0.2,0.2,0.3,0.4,0.4,0.5c0.2,0.2,0.3,0.3,0.7,0.3c0.1,0,0.2,0,0.3,0c0.1,0.1,0.1,0.1,0.2,0.1c-0.1,-0.1,-0.2,-0.1,-0.3,-0.2c0,0,-0.1,-0.1,-0.2,-0.1c0.1,0,0.2,0,0.2,0c0.1,0,0.3,0.1,0.4,0.2c0,-0.1,0,-0.2,0,-0.2c0.1,-0.1,0.1,-0.2,0.1,-0.4c0,-0.2,-0.1,-0.3,-0.1,-0.4c-0.1,-0.2,-0.2,-0.3,-0.3,-0.5c-0.1,0.2,-0.1,0.5,-0.1,0.7Z" class="g10_46" />
<path d="M217.4,1187.3c0.2,0,0.3,0,0.3,0c0.1,0.1,0.1,0.1,0.2,0.2c0,-0.1,-0.1,-0.3,-0.1,-0.4c0,-0.1,0,-0.1,-0.1,-0.2c0.1,0.1,0.1,0.1,0.2,0.1c0,0.1,0.1,0.3,0.1,0.3c0.1,0,0.1,-0.1,0.1,-0.2c0.1,0,0.1,-0.1,0.2,-0.3c0,-0.2,0.1,-0.4,0,-0.5c0,-0.2,-0.1,-0.3,-0.1,-0.5c-0.1,0.2,-0.2,0.4,-0.3,0.6c-0.1,0.2,-0.2,0.3,-0.2,0.5c-0.1,-0.2,-0.3,-0.4,-0.5,-0.5c-0.3,-0.2,-0.5,-0.2,-0.6,-0.2c0.1,0.3,0.2,0.5,0.3,0.6c0.1,0.2,0.2,0.3,0.5,0.5Z" class="g10_46" />
<path d="M218.4,1188.5c0,0.1,0.1,0.1,0.1,0.1c-0.1,-0.1,-0.1,-0.2,-0.2,-0.3c-0.1,0,-0.2,-0.1,-0.3,-0.1c0.1,0,0.2,0,0.3,0c0.1,0.1,0.2,0.1,0.3,0.2c0,0,0,-0.1,0.1,-0.1c0,-0.1,0.1,-0.2,0.1,-0.3c0,-0.3,0,-0.4,-0.1,-0.6c0,-0.1,-0.1,-0.3,-0.2,-0.4c0,0.2,-0.1,0.4,-0.2,0.6c0,0.2,0,0.4,0,0.5c-0.2,-0.2,-0.4,-0.3,-0.7,-0.4c-0.2,-0.1,-0.5,-0.1,-0.6,-0.1c0.2,0.2,0.3,0.4,0.4,0.6c0.1,0.1,0.3,0.2,0.6,0.3c0.2,0,0.3,0,0.4,0Z" class="g10_46" />
<path d="M216.5,1184.3c0.2,0,0.2,0.1,0.3,0.1c0,0.1,0.1,0.1,0.1,0.2c0,-0.1,0,-0.2,0,-0.3c0,-0.1,0,-0.2,-0.1,-0.3c0.1,0.1,0.1,0.1,0.1,0.2c0.1,0,0.1,0.1,0.1,0.2c0.1,-0.1,0.1,-0.1,0.2,-0.1c0,-0.1,0.1,-0.2,0.2,-0.3c0.1,-0.3,0.1,-0.4,0.1,-0.6c0,-0.1,0,-0.3,0,-0.5c-0.1,0.2,-0.3,0.4,-0.4,0.6c-0.2,0.1,-0.2,0.3,-0.2,0.4c-0.1,-0.1,-0.3,-0.3,-0.4,-0.5c-0.2,-0.1,-0.4,-0.2,-0.5,-0.2c0.1,0.3,0.1,0.5,0.1,0.6c0.1,0.2,0.1,0.3,0.4,0.5Z" class="g10_46" />
<path d="M217,1185.7c0.1,0,0.1,0,0.2,0l0,-0.2c-0.1,-0.1,-0.1,-0.1,-0.1,-0.2c0,0.1,0.1,0.1,0.1,0.2c0,0,0.1,0.1,0.1,0.2c0,-0.1,0.1,-0.1,0.1,-0.2c0.1,0,0.2,-0.1,0.3,-0.3c0.1,-0.3,0,-0.4,0,-0.6c0,-0.1,-0.1,-0.3,-0.1,-0.5c-0.1,0.2,-0.2,0.4,-0.3,0.6c-0.1,0.2,-0.2,0.4,-0.2,0.5c-0.1,-0.2,-0.3,-0.4,-0.5,-0.5c-0.3,-0.1,-0.5,-0.2,-0.6,-0.2c0.2,0.3,0.2,0.5,0.3,0.6c0.1,0.2,0.2,0.4,0.5,0.5c0.1,0,0.2,0.1,0.2,0.1Z" class="g10_46" />
<path d="M216.6,1182.7c0,0,0,0.1,0.1,0.1c0,-0.1,0.1,-0.2,0,-0.2c0.1,0,0.2,0.1,0.2,0.2c0,-0.1,0.1,-0.1,0.2,-0.1c0,0,0.1,-0.1,0.2,-0.2c0.1,-0.2,0.1,-0.4,0.1,-0.6c0,-0.1,-0.1,-0.3,-0.1,-0.5c-0.1,0.2,-0.2,0.3,-0.3,0.5c-0.1,0.1,-0.2,0.3,-0.2,0.4c-0.1,-0.2,-0.3,-0.4,-0.5,-0.6c-0.2,-0.2,-0.5,-0.4,-0.6,-0.4c0.1,0.5,0.3,0.8,0.3,0.9c0,0.1,0.1,0.2,0.4,0.4c0.1,0,0.2,0,0.2,0.1Z" class="g10_46" />
<path d="M216.3,1180.9c0.2,0.1,0.3,0.2,0.3,0.3c0.1,0,0.1,0.1,0.1,0.2c0,-0.2,0,-0.3,-0.1,-0.4c0,-0.1,0,-0.2,-0.1,-0.2c0.1,0,0.1,0.1,0.2,0.2c0.1,0,0.1,0.1,0.1,0.2c0.1,0,0.1,0,0.2,0c0.1,-0.1,0.2,-0.1,0.2,-0.2c0.2,-0.2,0.2,-0.4,0.2,-0.5c0,-0.2,0,-0.3,0.1,-0.5c-0.2,0.1,-0.4,0.3,-0.5,0.4c-0.2,0.1,-0.2,0.2,-0.3,0.3c0,-0.2,-0.1,-0.4,-0.3,-0.6c-0.2,-0.2,-0.4,-0.4,-0.5,-0.5c0,0.4,0,0.6,0.1,0.8c0,0.1,0.1,0.3,0.3,0.5Z" class="g10_46" />
<path d="M237.3,1173.9c0,0,0.1,0,0.1,0c0,0,-0.1,0,-0.1,-0.1c0,0,-0.1,0,-0.1,-0.1l0,0.1c0,0,0.1,0,0.1,0.1Z" class="g8_46" />
<path d="M238.3,1186.6c0,-0.2,0,-0.4,-0.1,-0.5c0,-0.2,-0.2,-0.4,-0.3,-0.7l0,-0.1c0,0.1,0,0.1,0,0.2c0,0,-0.1,0.1,-0.1,0.1c0.1,0.2,0.3,0.3,0.3,0.5c0.1,0.2,0.2,0.4,0.2,0.6Z" class="g8_46" />
<path d="M238.7,1186.2c0,0.1,-0.1,0.1,-0.1,0.1c0.1,0,0.1,0,0.2,-0.1c0,0,0.1,0,0.1,0c0,0,-0.1,0,-0.2,0Z" class="g8_46" />
<path d="M239,1183.6l0.1,0c-0.1,0,-0.1,-0.1,-0.1,-0.1l0,-0.1c0,0.1,0,0.1,0,0.2Z" class="g8_46" />
<path d="M239.3,1183.2l0,0.1c0,-0.1,0,-0.1,0.1,-0.1c0,-0.1,0.1,-0.1,0.1,-0.2c-0.1,0.1,-0.1,0.1,-0.2,0.2Z" class="g8_46" />
<path d="M236.7,1190.5c-0.2,0.1,-0.4,0.2,-0.6,0.4c0,-0.1,0,-0.3,0,-0.4c0,-0.2,-0.1,-0.5,-0.1,-0.7c-0.1,0.2,-0.2,0.3,-0.3,0.4c-0.1,0.1,-0.2,0.3,-0.2,0.5c0,0.3,0.1,0.3,0.2,0.4c0.1,0.1,0.1,0.1,0,0.3c0.1,0,0.2,-0.1,0.2,-0.1c0.1,0,0.2,0,0.4,0c0.3,0,0.5,0,0.6,-0.2c0.2,-0.1,0.3,-0.5,0.5,-0.6c0,-0.1,-0.4,-0.1,-0.7,0Z" class="g10_46" />
<path d="M218.5,1172.3l0,0.1c0,-0.1,0.1,-0.2,0.1,-0.3c0,-0.1,0,-0.2,0,-0.2c0.1,0,0.1,0.1,0.1,0.2l0,0.2c0.1,0,0.1,0.1,0.2,0.1c0.1,0,0.2,0,0.4,-0.1c0.2,-0.1,0.3,-0.3,0.4,-0.4c0.1,-0.2,0.2,-0.4,0.4,-0.5c-0.2,0.1,-0.5,0.2,-0.7,0.3c-0.2,0,-0.4,0.1,-0.5,0.2c0,-0.2,0.1,-0.5,0,-0.7c0,-0.3,-0.1,-0.5,-0.2,-0.5c-0.1,0.3,-0.2,0.4,-0.3,0.6c-0.1,0.2,-0.1,0.4,-0.1,0.7c0.2,0.1,0.2,0.2,0.2,0.3Z" class="g10_46" />
<path d="M218.1,1173.6c0,-0.1,0,-0.2,0,-0.3c0,-0.1,0,-0.2,0,-0.2c0,0,0.1,0.1,0.1,0.2c0,0.1,0,0.1,0.1,0.2l0.1,0c0.1,0,0.2,0,0.4,-0.1c0.2,-0.2,0.3,-0.3,0.3,-0.5c0.1,-0.1,0.2,-0.3,0.3,-0.4c-0.2,0.1,-0.4,0.2,-0.6,0.3c-0.2,0.1,-0.4,0.2,-0.5,0.3c0,-0.2,0,-0.5,-0.1,-0.7c0,-0.3,-0.1,-0.5,-0.3,-0.5c0,0.3,-0.1,0.5,-0.1,0.6c-0.1,0.2,-0.1,0.4,0,0.7c0.2,0.1,0.2,0.2,0.2,0.3c0.1,0,0.1,0,0.1,0.1Z" class="g10_46" />
<path d="M220.4,1169.6c0,-0.1,0,-0.1,0.1,-0.2c0,-0.1,0.1,0,0.1,-0.1l0,0.1l-0.1,0.2c0.1,0,0.1,0.1,0.1,0.1c0.1,0.1,0.2,0.1,0.4,0.1c0.2,-0.1,0.4,-0.1,0.5,-0.2c0.1,-0.1,0.2,-0.3,0.4,-0.4c-0.2,0,-0.4,0,-0.6,0c-0.2,0,-0.4,0,-0.5,0c0.1,-0.1,0.2,-0.4,0.2,-0.7c0,-0.3,0,-0.5,-0.1,-0.6c-0.1,0.3,-0.3,0.4,-0.3,0.5c-0.1,0.2,-0.2,0.3,-0.2,0.7c0,0.1,0,0.2,0,0.3c0,0.1,0,0.1,0,0.2Z" class="g10_46" />
<path d="M219.5,1170.7c0,0,0,0.1,-0.1,0.2c0.1,-0.1,0.1,-0.2,0.2,-0.3c0,-0.1,0,-0.2,0,-0.4l0,0.3c0,0.1,0,0.2,0,0.3c0,0,0.1,0.1,0.2,0.1c0,0,0.1,0,0.3,0c0.2,-0.1,0.3,-0.1,0.4,-0.2c0.1,-0.1,0.2,-0.3,0.4,-0.5c-0.2,0.1,-0.4,0.1,-0.6,0.1c-0.2,0,-0.4,0,-0.5,0.1c0.1,-0.2,0.2,-0.5,0.2,-0.8c0,-0.3,-0.1,-0.5,-0.2,-0.6c-0.1,0.3,-0.3,0.5,-0.3,0.6c-0.1,0.2,-0.1,0.3,-0.1,0.7c0.1,0.2,0.1,0.3,0.1,0.4Z" class="g10_46" />
<path d="M222.7,1167.6c0,-0.1,0.1,-0.2,0.1,-0.2c0,0,0,0.1,0,0.2c-0.1,0.1,-0.1,0.2,-0.2,0.2c0.1,0.1,0.1,0.1,0.2,0.2c0,0,0.1,0,0.3,0.1c0.2,0,0.4,0,0.5,-0.1c0.2,0,0.3,-0.1,0.5,-0.2c-0.2,0,-0.4,-0.1,-0.6,-0.2c-0.2,0,-0.4,-0.1,-0.5,-0.1c0.3,-0.1,0.3,-0.4,0.4,-0.6c0.1,-0.2,0.1,-0.5,0.1,-0.6c-0.2,0.2,-0.4,0.3,-0.6,0.4c-0.1,0.1,-0.3,0.3,-0.3,0.6c0,0.2,0,0.3,-0.1,0.4c0,0,0,0.1,-0.1,0.1c0.1,0,0.2,-0.1,0.3,-0.2Z" class="g10_46" />
<path d="M221.5,1168.7c0.1,-0.1,0.1,-0.2,0.2,-0.3c0,-0.1,0.1,-0.2,0.1,-0.3c0,0.1,0,0.2,0,0.3c0,0.1,-0.1,0.2,-0.1,0.3c0.1,0,0.1,0,0.1,0.1c0.1,0,0.2,0,0.4,0c0.2,0,0.3,-0.1,0.5,-0.1c0.1,-0.1,0.2,-0.2,0.4,-0.3c-0.2,-0.1,-0.4,-0.1,-0.6,-0.1c-0.2,-0.1,-0.4,-0.1,-0.5,0c0.1,-0.2,0.2,-0.4,0.3,-0.7c0,-0.3,0.1,-0.6,0,-0.6c-0.2,0.2,-0.4,0.3,-0.5,0.5c-0.1,0.1,-0.2,0.3,-0.3,0.6c0.1,0.2,0.1,0.3,0.1,0.4c0,0,-0.1,0.1,-0.1,0.2Z" class="g10_46" />
<path d="M225.9,1166.1c-0.1,0.1,-0.2,0.2,-0.2,0.2c-0.1,0.1,-0.1,0.2,-0.2,0.2c0,0.1,0,0.1,0.1,0.2c0,0,0.1,0.1,0.2,0.2c0.3,0.1,0.3,0.1,0.5,0c0.2,0,0.3,-0.1,0.5,-0.1c-0.1,0,-0.3,-0.2,-0.5,-0.3c-0.1,-0.1,-0.2,-0.2,-0.4,-0.2c0.2,-0.1,0.4,-0.3,0.6,-0.5c0.2,-0.2,0.4,-0.4,0.4,-0.5c-0.3,0.1,-0.6,0.2,-0.7,0.2c-0.2,0.1,-0.4,0.2,-0.6,0.5c-0.1,0.2,-0.1,0.2,-0.1,0.3c-0.1,0.1,-0.1,0.1,-0.2,0.1c0.1,0,0.2,0,0.3,-0.1c0.1,-0.1,0.2,-0.1,0.3,-0.2Z" class="g10_46" />
<path d="M224.3,1166.6c0,0.1,-0.1,0.2,-0.2,0.2c0,0.1,-0.1,0.2,-0.1,0.2c0,0.1,0,0.1,0,0.2c0.1,0,0.2,0.1,0.3,0.1c0.2,0.1,0.4,0.1,0.6,0.1c0.1,-0.1,0.2,-0.2,0.4,-0.2c-0.2,-0.1,-0.3,-0.2,-0.5,-0.3c-0.1,-0.1,-0.3,-0.1,-0.4,-0.1c0.2,-0.1,0.6,-0.3,0.7,-0.7c0.2,-0.3,0.2,-0.4,0.2,-0.5c-0.2,0.1,-0.5,0.1,-0.7,0.2c-0.2,0.1,-0.5,0.3,-0.5,0.7c-0.1,0.2,-0.1,0.3,-0.1,0.3c-0.1,0.1,-0.1,0.1,-0.2,0.2c0.1,-0.1,0.2,-0.1,0.3,-0.2c0,0,0.1,-0.1,0.2,-0.2Z" class="g10_46" />
<path d="M228.4,1166.2c0,0.1,0,0.2,0.2,0.4c0.2,0.1,0.4,0.2,0.5,0.2c0.2,0,0.3,0,0.5,0c-0.2,-0.1,-0.3,-0.4,-0.5,-0.5c-0.1,-0.2,-0.2,-0.2,-0.3,-0.3c0.2,0,0.4,-0.1,0.6,-0.2c0.3,-0.2,0.5,-0.4,0.5,-0.5c-0.3,0,-0.5,0,-0.7,0c-0.2,0,-0.4,0.1,-0.6,0.3c-0.1,0.2,-0.2,0.2,-0.2,0.3c-0.1,0,-0.1,0,-0.2,0.1c0.2,0,0.2,0.1,0.2,0.2Z" class="g10_46" />
<path d="M227.1,1166.1c0.1,0,0.2,-0.1,0.3,-0.2c-0.1,0.1,-0.1,0.2,-0.2,0.2c-0.1,0.1,-0.1,0.2,-0.2,0.2c0,0,0,0.1,0.1,0.2c0,0,0.1,0.1,0.2,0.2c0.2,0.1,0.4,0.1,0.5,0.1c0.2,0,0.3,0,0.5,0c-0.1,-0.1,-0.3,-0.3,-0.5,-0.4c-0.1,-0.1,-0.3,-0.2,-0.4,-0.3c0.2,0,0.4,-0.2,0.6,-0.4c0.2,-0.2,0.4,-0.5,0.4,-0.6c-0.3,0.1,-0.5,0.1,-0.8,0.2c-0.1,0.1,-0.2,0.2,-0.4,0.5c-0.1,0.1,-0.2,0.2,-0.2,0.3c-0.1,0,-0.1,0,-0.2,0.1c0.1,0,0.2,-0.1,0.3,-0.1Z" class="g10_46" />
<path d="M238.2,1187.8c-0.2,0.1,-0.4,0.3,-0.5,0.4c0,-0.1,-0.1,-0.2,-0.1,-0.4c-0.1,-0.3,-0.2,-0.5,-0.2,-0.7c-0.1,0.2,-0.1,0.4,-0.2,0.5c-0.1,0.1,-0.1,0.3,-0.1,0.5c0.1,0.2,0.1,0.3,0.2,0.4c0,0,0.1,0.1,0.1,0.1c0,0,0.1,-0.1,0.2,-0.1c0.1,-0.1,0.2,-0.1,0.3,-0.1c-0.1,0,-0.2,0.1,-0.3,0.2c-0.1,0,-0.1,0.1,-0.2,0.2c0.1,0,0.1,-0.1,0.2,-0.1c0,0,0.1,0,0.3,0c0.4,-0.1,0.6,-0.2,0.7,-0.4c0.1,-0.2,0.1,-0.4,0.3,-0.6c-0.1,0,-0.4,0,-0.7,0.1Z" class="g10_46" />
<path d="M237.4,1189.2c-0.3,0.1,-0.3,0.3,-0.5,0.5c0.1,-0.1,0,-0.3,-0.1,-0.5c0,-0.2,-0.1,-0.4,-0.2,-0.6c0,0.2,-0.1,0.4,-0.2,0.5c0,0.2,-0.1,0.3,0,0.5c0,0.2,0.1,0.3,0.1,0.4c0.1,0,0.1,0,0.2,0.1c0,-0.1,0.1,-0.1,0.2,-0.2c0.1,0,0.2,0,0.2,0c0,0,-0.1,0.1,-0.2,0.1c-0.1,0.1,-0.1,0.2,-0.2,0.3c-0.2,0.1,-0.1,0.1,0.2,0c-0.3,0.1,0.5,-0.2,0.3,-0.2c0.3,-0.1,0.5,-0.2,0.6,-0.4c0.1,-0.2,0.2,-0.4,0.4,-0.6c-0.1,0,-0.6,0,-0.8,0.1Z" class="g10_46" />
<path d="M236,1191.8c-0.3,0.1,-0.7,0.2,-0.7,0.4c0,-0.1,0,-0.3,-0.1,-0.5c0,-0.2,0,-0.5,0,-0.7c-0.1,0.2,-0.3,0.4,-0.3,0.6c-0.1,0.1,-0.2,0.2,-0.2,0.4c0,0.2,0,0.3,0.1,0.4c0,0.1,0.1,0.1,0.1,0.1c0.1,0,0.5,-0.1,0.5,-0.2c-0.1,0.1,-0.1,0.1,-0.2,0.2c-0.1,0.1,-0.2,0.1,-0.3,0.2c0.1,-0.1,0.2,-0.1,0.2,-0.1c0.1,0,0.2,0,0.4,0c0.3,-0.1,0.6,-0.2,0.7,-0.4c0.1,-0.1,0.2,-0.3,0.4,-0.5c-0.1,0,-0.3,0,-0.6,0.1Z" class="g10_46" />
<path d="M235,1192.8c-0.3,0.1,-0.7,0.2,-0.8,0.3c0,-0.1,0,-0.3,0,-0.5c0,-0.1,0,-0.3,0,-0.5c-0.1,0.1,-0.2,0.2,-0.3,0.4c-0.1,0.1,-0.2,0.2,-0.3,0.4c0,0.1,0,0.3,0,0.4l0,0.2c0.1,0,0.1,0,0.2,-0.1c0.1,0,0.2,0,0.2,-0.1c0,0.1,-0.1,0.1,-0.2,0.2c-0.1,0.1,-0.1,0.2,-0.2,0.3c0.1,-0.1,0.1,-0.1,0.3,-0.1c0.1,-0.1,0.2,-0.2,0.4,-0.1c0.4,-0.1,0.6,-0.2,0.7,-0.3c0.2,-0.1,0.3,-0.3,0.6,-0.5c-0.1,0,-0.3,0,-0.6,0Z" class="g10_46" />
<path d="M238.8,1186.5c-0.2,0.1,-0.5,0.3,-0.6,0.5c0,-0.1,0.1,-0.2,0.1,-0.4c0,-0.3,-0.5,-0.5,-0.5,-0.7c0,0.2,-0.1,0.4,-0.1,0.5c-0.1,0.2,-0.1,0.3,0,0.6c0.1,0.1,0.1,0.2,0.2,0.3c0,0,0.1,0.1,0.1,0.1c0.1,-0.1,0.2,-0.1,0.2,-0.2c0.1,0,0.2,0,0.3,-0.1c-0.1,0.1,-0.2,0.2,-0.2,0.2c-0.1,0.1,-0.2,0.2,-0.2,0.3c0.1,0,0.1,-0.1,0.1,-0.1c0.1,-0.1,0.2,-0.1,0.4,-0.1c0.2,-0.1,0.4,-0.3,0.4,-0.5c0.1,-0.1,0.3,-0.4,0.4,-0.7c-0.1,0,-0.4,0.1,-0.6,0.3Z" class="g10_46" />
<path d="M239.5,1183.5c-0.2,0.1,-0.4,0.4,-0.4,0.6c-0.1,-0.2,-0.2,-0.3,-0.3,-0.5c-0.1,-0.2,-0.2,-0.4,-0.4,-0.6c0.1,0.3,0,0.4,0,0.6c0,0.1,0,0.3,0.2,0.5c0,0.2,0.1,0.4,0.2,0.4c0,0.1,0.1,0,0.1,0.1c0.1,-0.1,0.1,-0.2,0.2,-0.2c0.1,-0.1,0.1,-0.2,0.2,-0.2c-0.1,0.1,-0.1,0.2,-0.2,0.3c0,0,0,0.1,-0.1,0.2c0.1,0,0.1,-0.1,0.2,-0.1c0,0,0.1,-0.1,0.3,-0.1c0.2,-0.2,0.3,-0.4,0.3,-0.6c0,-0.2,0,-0.4,0.1,-0.7c-0.1,0,-0.2,0.1,-0.4,0.3Z" class="g10_46" />
<path d="M239.2,1184.9c-0.3,0.1,-0.3,0.3,-0.4,0.5c0,-0.1,0,-0.3,-0.2,-0.5c0,-0.2,-0.2,-0.4,-0.3,-0.6c0,0.2,-0.1,0.4,-0.1,0.5c0,0.1,0,0.3,0.1,0.5c0,0.2,0.1,0.3,0.1,0.4c0.1,0,0.2,0.1,0.2,0.1c0,-0.1,0.1,-0.1,0.2,-0.2c0,0,0.1,0,0.2,-0.1c-0.1,0.1,-0.2,0.2,-0.2,0.2c-0.1,0.1,-0.1,0.2,-0.2,0.3c0.1,-0.1,0.1,-0.1,0.2,-0.1c0,0,0.1,-0.1,0.3,-0.1c0.3,-0.1,0.4,-0.3,0.5,-0.5c0,-0.2,0.1,-0.5,0.3,-0.7c-0.1,0,-0.5,0.2,-0.7,0.3Z" class="g10_46" />
<path d="M238.5,1180c0.1,0.2,0.1,0.4,0.1,0.5c0,0.2,0,0.3,0,0.6c0.2,0.3,0.5,0.2,0.6,0.2c0,-0.1,0.1,-0.2,0.1,-0.3c0.1,-0.1,0.2,-0.1,0.2,-0.2c0,0.1,-0.1,0.3,-0.2,0.4c0,0.1,0,0.2,-0.1,0.3c0.1,-0.1,0.2,-0.2,0.2,-0.3c-0.1,0.2,0.3,-0.2,0.3,-0.2c0.2,-0.2,0.3,-0.5,0.3,-0.7c0.1,-0.2,0,-0.4,0.1,-0.7c-0.1,0,-0.4,0.2,-0.5,0.4c-0.2,0.3,-0.3,0.6,-0.3,0.8c-0.1,-0.2,-0.2,-0.3,-0.3,-0.4c-0.2,-0.1,-0.4,-0.2,-0.5,-0.4Z" class="g10_46" />
<path d="M239.5,1181.7c-0.2,0.3,-0.3,0.5,-0.3,0.7c-0.1,-0.1,-0.2,-0.2,-0.3,-0.4c-0.1,-0.1,-0.3,-0.3,-0.3,-0.5c0,0.2,-0.1,0.4,-0.1,0.6c0,0.1,0,0.3,0.1,0.5c0,0.1,0.1,0.2,0.2,0.2c0,0.1,0.1,0.1,0.2,0.1c0,-0.1,0.1,-0.2,0.2,-0.3c0,0,0.1,-0.1,0.2,-0.1c-0.1,0.1,-0.1,0.1,-0.2,0.2c0,0.1,-0.1,0.2,-0.1,0.3c0,0,0,-0.1,0.1,-0.1c0.1,-0.1,0.1,-0.2,0.3,-0.2c0.3,-0.3,0.4,-0.4,0.5,-0.7c0,-0.2,0,-0.4,0.1,-0.7c-0.1,0,-0.4,0.2,-0.6,0.4Z" class="g10_46" />
<path d="M238.2,1177c0,0.1,0.1,0.3,0.1,0.5c0.1,0.1,0.1,0.3,0.3,0.5c0.1,0.1,0.2,0.1,0.3,0.2c0.1,0,0.1,-0.1,0.1,-0.1c0,-0.1,0.1,-0.2,0.2,-0.2c0,-0.1,-0.1,0.1,-0.1,0c0,0.1,0.1,-0.1,0.1,0c-0.1,0.1,0,0.3,0,0.4c0.1,-0.1,0.1,-0.2,0.1,-0.3c0,0,0.1,-0.1,0.3,-0.2c0.1,-0.3,0.2,-0.5,0.1,-0.7c0,-0.2,0,-0.4,0,-0.7c-0.1,0.1,-0.3,0.3,-0.4,0.5c-0.1,0.2,-0.3,0.4,-0.3,0.6c0,-0.1,-0.1,-0.1,-0.3,-0.2c-0.2,-0.1,-0.4,-0.2,-0.5,-0.3Z" class="g10_46" />
<path d="M239.5,1178.3c-0.1,0.2,-0.3,0.5,-0.3,0.7c-0.1,-0.1,-0.2,-0.3,-0.4,-0.4c-0.1,-0.1,-0.3,-0.3,-0.4,-0.4c0,0.2,0,0.3,0,0.5c0.1,0.2,0.1,0.4,0.2,0.6c0.1,0.1,0.4,0.1,0.5,0.1c0,-0.1,0.1,-0.2,0.2,-0.3c0,0.1,-0.1,0.4,-0.1,0.5c0,0,0.2,-0.3,0.4,-0.4c0.2,-0.2,0.4,-0.5,0.4,-0.7c0,-0.2,0,-0.3,0.1,-0.6c-0.1,0,-0.4,0.1,-0.6,0.4Z" class="g10_46" />
<path d="M237.2,1174.1c0.1,0.2,0.2,0.4,0.2,0.5c0.1,0.1,0.2,0.3,0.4,0.4c0.2,0.1,0.3,0.1,0.4,0.1c0.1,0.1,0.1,0,0.2,0c0,0,0,-0.1,0,-0.2c0.1,-0.1,0.1,-0.2,0.1,-0.2c0,0.1,0,0.2,0,0.3c0,0.1,0,0.3,0.1,0.4c0,-0.1,0,-0.3,0,-0.3c0,-0.1,0,-0.2,0.2,-0.3c0.1,-0.3,0.1,-0.5,0.1,-0.7c-0.1,-0.2,-0.2,-0.3,-0.3,-0.6c0,0,-0.2,0.2,-0.2,0.5c-0.1,0.2,-0.2,0.5,-0.1,0.7c-0.1,-0.1,-0.3,-0.2,-0.5,-0.3c-0.2,-0.1,-0.4,-0.1,-0.6,-0.3Z" class="g10_46" />
<path d="M238.6,1175.9c0,-0.1,-0.2,-0.2,-0.4,-0.3c-0.2,-0.1,-0.4,-0.2,-0.5,-0.4c0.1,0.2,0.1,0.4,0.1,0.5c0.1,0.2,0.1,0.3,0.3,0.5c0.2,0.1,0.3,0.1,0.3,0.2c0.1,0,0.2,0,0.2,0c0,-0.1,0.1,-0.2,0.1,-0.3c0,0,0.1,-0.1,0.1,-0.2c0,0.1,0,0.2,0,0.3l0,0.3c0,0,0,-0.1,0,-0.1c0.1,-0.1,0.1,-0.2,0.3,-0.3c0.2,-0.2,0.3,-0.4,0.3,-0.6c0,-0.2,-0.2,-0.4,-0.2,-0.8c-0.1,0.1,-0.3,0.2,-0.4,0.5c-0.3,0.5,-0.2,0.3,-0.2,0.7Z" class="g10_46" />
<path d="M235.7,1171.3c0.2,0.2,0.2,0.4,0.3,0.5c0.1,0.1,0.3,0.3,0.5,0.4c0.2,0.1,0.3,0.1,0.4,0.1c0,0,0.1,0.1,0.2,0.1c0,-0.1,0,-0.3,0,-0.3c0,-0.1,0,-0.2,0,-0.3c0,0.1,0,0.2,0,0.3c0.1,0.1,0.1,0.2,0.2,0.3l0,-0.2c0,0,0,-0.2,0.1,-0.3c0.1,-0.4,0.1,-0.5,0,-0.7c-0.1,-0.2,-0.2,-0.4,-0.3,-0.7c-0.1,0,-0.3,0.3,-0.3,0.6c0,0.2,0,0.5,0.1,0.7c-0.1,-0.1,-0.3,-0.2,-0.6,-0.3c-0.1,0,-0.7,-0.2,-0.6,-0.2Z" class="g10_46" />
<path d="M237.4,1173c0,-0.1,-0.2,-0.2,-0.4,-0.3c-0.2,-0.1,-0.4,-0.2,-0.6,-0.3c0.1,0.2,0.1,0.3,0.2,0.5c0.1,0.1,0.2,0.3,0.4,0.4c0.1,0.1,0.3,0.1,0.3,0.2l0.2,0c0,-0.1,0,-0.2,0.1,-0.3c0,-0.1,0,-0.1,0.1,-0.2c-0.1,0.1,-0.1,0.2,-0.1,0.3c0,0.1,0.1,0.2,0.1,0.3c0,-0.1,0,-0.1,0,-0.2c0,-0.1,0.1,-0.1,0.2,-0.2c0.2,-0.3,0.2,-0.6,0.1,-0.7c0,-0.2,-0.1,-0.5,-0.1,-0.8c-0.1,0,-0.3,0.3,-0.4,0.6c-0.1,0.2,-0.1,0.5,-0.1,0.7Z" class="g10_46" />
<path d="M234.2,1169.5c0.2,0.1,0.3,0.2,0.5,0.3c0.2,0,0.3,0,0.4,-0.1c0.1,0,0.1,0,0.1,0c0,-0.1,0,-0.3,-0.1,-0.4l0,-0.3c0,0.1,0.1,0.2,0.1,0.3c0.1,0.1,0.1,0.2,0.2,0.3c0,-0.1,-0.1,-0.1,-0.1,-0.2c0,-0.1,0,-0.2,0.1,-0.4c-0.1,-0.3,-0.1,-0.5,-0.2,-0.6c-0.1,-0.1,-0.2,-0.2,-0.4,-0.5c-0.1,0.1,-0.1,0.3,-0.1,0.6c0.1,0.3,0.1,0.5,0.2,0.7c-0.1,-0.1,-0.2,-0.1,-0.4,0c-0.2,0,-0.4,0,-0.7,0c0.2,0.1,0.3,0.2,0.4,0.3Z" class="g10_46" />
<path d="M235.2,1170.5c0.1,0.1,0.2,0.2,0.5,0.3c0.1,0,0.2,0.1,0.3,0c0.1,0,0.1,-0.1,0.1,-0.1c0,-0.1,0,-0.2,0,-0.3l0,-0.3c0,0.1,0,0.2,0.1,0.3c0,0.2,0.1,0.3,0.1,0.4c0,-0.1,0,-0.2,0,-0.3c0,0,0,-0.1,0,-0.3c0,-0.4,0,-0.6,-0.1,-0.7c0,-0.2,-0.2,-0.3,-0.3,-0.6c-0.1,0.1,-0.1,0.3,-0.1,0.6c0,0.3,0,0.6,0.1,0.8c-0.1,-0.1,-0.3,-0.1,-0.5,-0.1c-0.1,-0.1,-0.3,-0.1,-0.5,-0.1c0.1,0.1,0.2,0.3,0.3,0.4Z" class="g10_46" />
<path d="M232.5,1167.1c-0.1,0,-0.3,0.1,-0.5,0.1c-0.2,0.1,-0.4,0.2,-0.6,0.2c0.2,0.1,0.3,0.2,0.4,0.2c0.1,0.1,0.3,0.2,0.7,0.1c0.2,0,0.3,0,0.3,-0.1c0,0,0.1,-0.1,0.1,-0.1c0,-0.1,-0.1,-0.2,-0.1,-0.3c-0.1,-0.1,-0.1,-0.2,-0.1,-0.3c0,0,0,0.1,0.1,0.1c0,0.1,0.1,0.2,0.1,0.2l0,-0.1c0,-0.1,0.1,-0.1,0.1,-0.2c-0.1,-0.3,-0.3,-0.5,-0.4,-0.6c-0.2,-0.1,-0.5,-0.1,-0.7,-0.3c0,0.1,0,0.4,0.1,0.6c0.1,0.2,0.3,0.4,0.5,0.5Z" class="g10_46" />
<path d="M233,1168.4c0.1,0.1,0.3,0.2,0.5,0.2c0.2,0,0.3,-0.1,0.4,-0.1c0,0,0.1,-0.1,0.1,-0.1c0,-0.1,-0.1,-0.2,-0.1,-0.3c0,-0.1,0,-0.1,0,-0.2c0,0.1,0.1,0.2,0.1,0.2c0.1,0.1,0.1,0.2,0.2,0.3c0,-0.1,-0.1,-0.1,-0.1,-0.2c0,-0.1,0,-0.2,0,-0.3c0,-0.4,-0.1,-0.6,-0.2,-0.7c-0.2,-0.2,-0.3,-0.3,-0.5,-0.5c-0.1,0.1,-0.1,0.3,0,0.6c0.1,0.3,0.2,0.6,0.3,0.7c-0.1,0,-0.4,0,-0.6,0c-0.1,0,-0.3,0.1,-0.5,0.1c0.2,0.1,0.3,0.2,0.4,0.3Z" class="g10_46" />
<path d="M230,1166c0.1,0,0.2,0,0.3,0c-0.1,0,-0.2,0,-0.3,0.1c-0.1,0,-0.2,0,-0.3,0c0.1,0.2,0.6,0.2,1,0.1c0.4,-0.1,1.1,-0.5,1.1,-0.6c-0.2,0.1,-0.4,0,-0.5,-0.1c-0.1,-0.1,-0.4,-0.1,-0.6,-0.1c-0.2,0,-0.4,0.2,-0.5,0.3c-0.1,0.1,-0.3,0.2,-0.4,0.3c0.1,0,0.2,0,0.2,0Z" class="g10_46" />
<path d="M231.6,1166.6c0,-0.1,-0.1,-0.2,-0.3,-0.2c-0.2,0,-0.3,0.1,-0.4,0.1c-0.2,0.1,-0.2,0.1,-0.3,0.1c0.1,0.1,0.1,0.1,0.2,0.1c0.1,0.1,0.2,0.1,0.3,0.1c-0.1,0,-0.3,0,-0.5,0c-0.2,0,-0.3,-0.1,-0.4,-0.2c0,0,-0.1,0.1,-0.1,0.1c-0.1,0,-0.1,-0.1,-0.1,-0.1c-0.1,0.1,0.1,0.2,0.3,0.3c0.2,0.2,0.4,0.3,0.7,0.2c0.2,0,0.4,-0.1,0.5,-0.1c0.1,-0.1,0.2,-0.1,0.4,-0.1c-0.2,-0.1,-0.2,-0.1,-0.3,-0.3Z" class="g10_46" />
<path d="M228.2,1188.4l-0.1,0c-0.1,0,0,0,0,0c0.1,0,0.1,0,0.1,0Z" class="g8_46" />
<path d="M217.3,1179.7c0,0,-0.1,0.1,-0.2,0.1c0,0.1,-0.1,0.2,-0.2,0.2c0.1,-0.1,0.1,-0.2,0.2,-0.2c0.1,-0.1,0.1,-0.2,0.3,-0.3l0,0.1c0,0,-0.1,0,-0.1,0.1Z" class="g8_46" />
<path d="M218.6,1173.9c0,0,-0.1,0,-0.2,0.1c-0.1,0,-0.1,0,-0.2,0.1c0.1,-0.1,0.1,-0.1,0.2,-0.2c0.1,0,0.2,-0.1,0.3,-0.2c0,0,0,0.1,0,0.1c0,0,-0.1,0,-0.1,0.1Z" class="g8_46" />
<path d="M226.4,1175.4c-0.3,0,-0.5,0.1,-0.7,0.2c-0.2,0.1,-0.4,0.2,-0.6,0.2c0,0,0,-0.3,0.1,-0.7c0.2,-0.4,0.5,-1,1.1,-1.6c0.1,-0.3,0.5,-0.6,0.9,-0.8c0.3,-0.2,0.7,-0.4,1,-0.5l0,-0.1c-0.3,0,-0.7,0.1,-1.1,0.1c-0.4,0,-0.8,-0.1,-0.9,-0.4c0,-0.2,0.1,-0.5,0.4,-0.7c0.3,-0.3,0.7,-0.4,1.2,-0.5c0.3,0,0.6,0.1,0.8,0.2c0.3,0,0.5,0.2,0.8,0.3c0.3,0.2,0.4,0.4,0.6,0.7c0.1,0.3,0.2,0.5,0.3,0.9c-0.4,0.1,-0.6,0.2,-0.7,0.3c-0.2,0.1,-0.2,0.2,-0.3,0.2c0.1,0,0.2,0,0.2,0l0.3,0c0.1,0.1,0.2,0.1,0.3,0c0.1,0,0.1,0,0.2,0l0,0.4c0,0,0.1,0,0.1,0l0,0.1c-0.5,0.2,-0.8,0.3,-1.1,0.4c-0.2,0.2,-0.4,0.2,-0.7,0.3c0,0,-0.1,0,-0.1,0c-0.1,0,-0.2,0,-0.2,0l0,0.1c0.1,0,0.2,0,0.3,0c0.1,0,0.3,0.1,0.4,0.1c0.2,0,0.5,-0.1,0.7,-0.2c0.3,0,0.5,-0.1,0.8,-0.2c-0.1,0.1,-0.1,0.2,0,0.3c0,0.1,0.1,0.2,0.3,0.2l0,0.1c-0.6,0.3,-1.1,0.5,-1.3,0.5c-0.3,0.1,-0.5,0.1,-0.5,0l-0.5,-0.1l-0.4,-0.1c0.1,0.1,0.3,0.2,0.5,0.3c0.2,0.2,0.4,0.3,0.7,0.3c0.2,0.1,0.5,0,0.8,-0.1c0.3,-0.1,0.6,-0.3,0.8,-0.3l0.1,0.3l0.1,0.2c-0.4,0,-0.7,0.3,-1.2,0.5c-0.4,0.2,-0.9,0.4,-1.4,0.2c-0.3,-0.2,-0.7,-0.5,-1,-0.7c-0.3,-0.2,-0.7,-0.4,-1.1,-0.4Z" class="g13_46" />
<path d="M227.4,1176.9l-0.9,0c-0.3,0,-0.5,0,-0.5,0c-0.2,0,-0.4,-0.1,-0.6,-0.3c-0.3,-0.1,-0.4,-0.2,-0.3,-0.3l0.2,0c0.1,0,0.3,-0.1,0.7,-0.2c0.3,-0.2,0.7,0,1,0.2c0.2,0.2,0.4,0.5,0.4,0.6Z" class="g13_46" />
<path d="M232.3,1165.7c0,0,0.1,0,0.1,0c0,0,-0.1,0,-0.1,0Z" class="g2_46" />
<path d="M230.2,1176.8c0.5,-0.3,0.8,-0.4,0.9,-0.5c0.1,0,0.1,0.1,0.1,0.1c0,0.1,-0.1,0.2,-0.1,0.3c-0.1,0.1,-0.2,0.2,-0.3,0.2l-0.6,0c-0.2,0.1,-0.5,0.1,-0.7,0.1c0.2,0,0.3,-0.1,0.4,-0.1c0.1,0,0.2,-0.1,0.3,-0.1Z" class="g13_46" />
<path d="M228.2,1166c0.1,0,0.1,0,0.3,-0.1c0.1,0,0.2,-0.1,0.3,-0.1c-0.1,0.1,-0.2,0.2,-0.3,0.2c-0.1,0.1,-0.2,0.1,-0.3,0.1Z" class="g8_46" />
<path d="M231.6,1165.5l0.1,0c0.1,0,0.2,0,0.4,0.1c0,0,-0.1,0,0,0c0.1,0,0.5,0.1,0.6,0c0.1,0,0.3,0,0.4,0c0.2,-0.1,0.5,0,0.7,0.1c-0.1,-0.2,-0.3,-0.3,-0.5,-0.4c-0.1,-0.1,-0.3,-0.1,-0.5,-0.1c-0.3,0,-0.5,-0.2,-0.7,-0.4Z" class="g8_46" />
<path d="M224.1,1165.2c0.6,-0.1,0.8,-0.5,0.8,-0.5l-1.5,-0.3l1.5,-0.3c0,0,-1.6,-0.7,-1.6,-0.7c0,0,1.5,0.1,1.7,0.1c0,0,-1.1,-0.8,-1.4,-0.9c0,0,1.3,0.3,1.6,0.4c0,0,-1.1,-1.2,-1.1,-1.2c0.2,0,1.4,0.7,1.5,0.7c-0.2,-0.3,-1,-1.4,-1,-1.4l1.4,1c0,-0.2,-0.5,-1.5,-0.6,-1.6c0.2,0.3,0.9,1.1,1.1,1.2l-0.3,-1.6l0.9,1.4c0.1,-0.1,0.1,-1.4,0,-1.7c0,0.2,0.5,1.4,0.6,1.6l0.3,-1.6c0,0,0.3,1.5,0.3,1.6c0.1,-0.2,0.6,-1.6,0.6,-1.6c0,0.3,-0.1,1.7,0,1.7l1,-1.5l-0.4,1.8c0,-0.1,1.2,-1.3,1.2,-1.3c-0.1,0.2,-0.7,1.3,-0.8,1.6l1.5,-1l-1,1.4l0.1,0c0.1,0,1.4,-0.6,1.5,-0.7c-0.2,0.2,-1,0.8,-1.3,1.2l1.7,-0.3c0,0,-1.4,0.8,-1.4,0.8c0,0.1,1.7,0,1.8,0c-0.2,0.1,-1.5,0.5,-1.5,0.6l1.6,0.3c0,0,-1.4,0.3,-1.4,0.3c0,0.1,0.6,0.6,0.7,0.6c0,0,-0.7,0,-0.8,-0.1c-0.1,-0.1,-0.6,-0.2,-1,-0.1c0,0,0,-0.3,-0.1,-0.2c-0.3,0.1,-1.3,0,-1.5,0.1c0,0.1,0,-0.2,0,-0.4c-0.4,0.2,-0.7,0.2,-0.9,0.2c-0.3,0.1,-0.5,0.1,-0.6,0.3c-0.1,0,0,-0.4,-0.1,-0.3c-0.4,0.1,-0.7,0.2,-1,0.2c-0.3,0.1,-0.5,0.2,-0.6,0.3c0,0,-0.1,-0.3,-0.1,-0.3c-0.1,0.2,-0.3,0.2,-0.5,0.3c-0.4,0.1,-1,0,-0.9,-0.1Z" class="g14_46" />
<path d="M230.2,1164l-0.3,0c0,-0.2,-0.2,-0.2,-0.3,-0.2l0,0.1c0,0,0,0.1,0,0.2c-0.1,0,-0.1,0.1,-0.2,0.1l-0.3,0c0,0,-0.1,-0.1,-0.1,-0.1c-0.1,-0.1,-0.1,-0.2,-0.1,-0.2l0,-0.1l0,-0.1l-0.2,0.3c0,0,-0.3,0,-0.3,0l0.3,-0.5c0.7,-0.1,1,0,1.2,0.2c0.3,0.1,0.3,0.3,0.3,0.3Z" class="g8_46" />
<path d="M230.4,1163.5l-0.2,-0.1c-0.1,-0.1,-0.3,-0.2,-0.5,-0.2c-0.2,0,-0.3,0,-0.3,0l-1,0l0.2,-0.4l0.3,0c0.7,0,1,0.1,1.2,0.3c0.2,0.2,0.3,0.4,0.3,0.4Z" class="g8_46" />
<path d="M227.5,1163.9c0,0,-0.2,0.1,-0.3,0l-0.1,-0.1c-0.1,0,-0.1,0,-0.1,0c0,0.1,0,0.2,0,0.2c-0.1,0.1,-0.1,0.1,-0.2,0.1c0,0.1,-0.3,0,-0.3,0c0,0,-0.1,0,-0.1,-0.1c-0.1,0,-0.1,-0.2,-0.1,-0.2c0,0,0,-0.1,0,-0.1c0,0,-0.1,0.1,-0.1,0.1c-0.1,0,-0.1,0.1,-0.2,0.2l-0.3,0c0,0,0.1,-0.2,0.3,-0.4c0.2,-0.1,0.6,-0.2,1.2,-0.2Z" class="g8_46" />
<path d="M225.5,1163.4c0,0,0.1,-0.1,0.3,-0.3c0.2,-0.2,0.6,-0.3,1.3,-0.3l0.3,0l0.1,0.4l-0.5,0c0,0,-0.6,-0.1,-0.8,0c-0.2,0,-0.4,0.1,-0.5,0.2Z" class="g8_46" />
<path d="M227.1,1196.2l-0.2,-0.1c0,0,-0.1,0,-0.2,0c-0.3,0.1,-1.1,0.3,-1.6,0.4c-0.6,0.1,-1.1,0.1,-1.1,0.1c0,0.1,0.1,0.3,0.3,0.4c0.1,0.1,0.3,0.1,0.3,0.2l0.1,0c0.5,-0.1,2.1,-0.6,2.5,-0.7Z" class="g8_46" />
<path d="M228.7,1196.5c0.4,0.1,2,0.5,2.5,0.6c0,0,0.1,0,0.1,0.1c0,-0.1,0.2,-0.1,0.3,-0.2c0.2,-0.1,0.3,-0.3,0.2,-0.4c0,0,-0.4,-0.1,-1,-0.1c0,0,0,-0.1,-0.1,-0.1c-0.4,0,-1.2,-0.2,-1.6,-0.3c-0.1,0,-0.1,0,-0.1,0l-0.2,0.1Z" class="g8_46" />
<path d="M226.9,1195.7c-0.1,0,-0.9,-0.5,-0.6,-0.9c0.1,0,0.1,0,0.1,0c0.3,-0.3,0.7,-0.1,0.7,-0.1c-0.6,0.3,-0.3,1,-0.2,1Zm1.4,0.8c0,0,-0.1,0.1,-0.1,0.3c0,0.2,-0.1,0.3,-0.3,0.3c-0.1,0,-0.2,-0.1,-0.2,-0.3c-0.1,-0.2,-0.1,-0.3,-0.1,-0.3c0,0,0,-0.1,0,-0.2c0,-0.1,0.1,-0.2,0.3,-0.2c0.3,0,0.3,0.1,0.4,0.2c0,0.1,0,0.2,0,0.2Zm0.2,-1c-0.1,0.1,-0.1,0.2,-0.1,0.3c-0.1,0,-0.1,0,-0.1,0c0.1,0,0,0,0,0c0,0,0,-0.1,0,-0.1c-0.1,0,-0.2,0,-0.4,0c-0.3,0,-0.4,0,-0.4,0.1c-0.1,0,0,0,-0.1,0c0,-0.1,0,-0.1,-0.1,-0.2c0,-0.1,0,-0.1,0,-0.2c0,0,0,-0.1,0,-0.1c0,-0.1,0.1,-0.3,0.2,-0.4c0.1,0,0.3,-0.1,0.4,-0.1c0.1,0,0.2,0.1,0.4,0.1c0.1,0.1,0.2,0.2,0.2,0.2c0,0.1,0,0.3,0,0.4Zm0.8,-0.1c-0.1,0.1,-0.4,0.2,-0.4,0.3c0,0,-0.1,0,-0.1,0l0.1,0c0,-0.1,0.3,-0.3,0.2,-0.6c0,-0.1,0,-0.2,-0.1,-0.2c0,-0.1,-0.1,-0.1,-0.2,-0.2c0,0,-0.1,0,0,-0.1c0.1,0,0.5,0,0.7,0.1c0.2,0.3,0,0.5,-0.2,0.7Zm-0.5,1.2c0,-0.1,-0.1,-0.5,0.2,-0.5l0.1,0c0.1,0,0.7,-0.2,0.9,-0.7c0,0,0.1,-0.1,0.1,-0.1c0,-0.2,0,-0.2,0,-0.3c0,-0.1,0,-0.1,0,-0.2c-0.1,-0.1,-0.1,-0.2,-0.2,-0.3c-0.2,-0.2,-0.5,-0.3,-0.9,-0.4c-0.5,0,-0.9,0.1,-1,0.1l-0.1,0c-0.1,0,-0.5,0,-0.9,0c-0.7,-0.1,-1.1,0.3,-1.1,0.3c-0.3,0.4,0,0.9,0,1c0.1,0.2,0.4,0.5,0.8,0.6c0,0,0.2,0,0.2,0c0,0,0.2,0.1,0.2,0.5c-0.2,0.4,-0.6,0.6,-1.1,0.8c-0.4,0.1,-1,0.2,-1.5,0.4c0.1,0,0.2,0.1,0.3,0.2c0.1,0.1,0.2,0.3,0.2,0.2c1,-0.2,1.6,-0.6,1.9,-0.9c0.4,-0.3,0.4,-0.5,0.4,-0.5l0.1,0.3c0,0,-0.1,0.3,-0.4,0.6c-0.3,0.4,-0.8,0.7,-1.7,0.8l0.3,0.1l0.3,0.2c0.4,0,0.7,-0.1,1,-0.4c0.3,-0.2,0.5,-0.5,0.7,-1l0.1,0c0,0,0.1,0.1,0.3,0.1c0.1,0,0.1,0,0.2,0c0.1,0,0.2,-0.1,0.3,-0.1c0.1,0.4,0.4,0.8,0.7,1c0.2,0.2,0.5,0.4,0.9,0.4c0.1,0,0.3,-0.1,0.4,-0.2c0.1,0,0.1,-0.1,0.1,-0.1c-0.6,0,-1.1,-0.4,-1.4,-0.7c-0.4,-0.4,-0.6,-0.7,-0.6,-0.7c0,0,0.1,-0.3,0.1,-0.3c0,0.2,0.4,0.5,0.8,0.8c0.4,0.4,0.9,0.6,1.4,0.7c0,0,0,-0.1,0.1,-0.2c0.1,-0.1,0.2,-0.3,0.2,-0.3c-0.4,0.1,-1,-0.2,-1.5,-0.6c-0.5,-0.2,-0.8,-0.6,-0.9,-0.6Z" class="g11_46" />
<path d="M247.2,1178.6l2.1,0l1.2,4.3l1.1,-4.3l2.2,0l0,6.9l-1.3,0l0,-6.1l-1.7,6.1l-0.7,0l-1.6,-6.1l0,6.1l-1.3,0Z" class="g6_46" />
<path d="M254.5,1185.5l0,-7" class="g15_46" />
<path d="M258.4,1181.3c0.2,-0.3,0.5,-0.5,0.8,-0.6c0.2,-0.1,0.5,-0.2,0.8,-0.2c0.4,0,0.7,0.1,0.8,0.3c0.3,0.2,0.4,0.5,0.4,1l0,3.7l-1.3,0l0,-3.4c0,-0.2,0,-0.4,-0.1,-0.5c-0.1,0,-0.2,-0.1,-0.3,-0.1c-0.2,0,-0.3,0.1,-0.5,0.1c-0.2,0.1,-0.4,0.3,-0.6,0.5l0,3.4l-1.3,0l0,-4.9l1.3,0Z" class="g6_46" />
<path d="M262.5,1185.5l0,-7" class="g15_46" />
<path d="M264.8,1184.1c0.2,0.2,0.4,0.4,0.6,0.4c0.2,0.1,0.4,0.1,0.6,0.1c0.3,0,0.5,0,0.6,-0.1c0.2,-0.1,0.2,-0.2,0.2,-0.4c0,-0.1,0,-0.2,-0.1,-0.3c-0.2,-0.1,-0.4,-0.2,-0.8,-0.2c-0.6,-0.1,-1.1,-0.3,-1.4,-0.6c-0.2,-0.3,-0.4,-0.6,-0.4,-1c0,-0.4,0.2,-0.7,0.6,-1c0.3,-0.3,0.8,-0.5,1.3,-0.5c0.3,0,0.6,0.1,0.9,0.2c0.3,0,0.6,0.2,0.9,0.5l-0.7,0.6c-0.3,-0.2,-0.6,-0.3,-0.7,-0.4c-0.1,0,-0.2,0,-0.4,0c-0.2,0,-0.4,0,-0.5,0.1c-0.1,0.1,-0.2,0.3,-0.2,0.4c0,0.1,0.1,0.3,0.2,0.4c0.1,0.1,0.3,0.2,0.8,0.3c0.6,0.1,1,0.2,1.2,0.4c0.4,0.3,0.5,0.6,0.5,1c0,0.4,-0.1,0.8,-0.5,1.1c-0.3,0.3,-0.8,0.4,-1.5,0.4c-0.4,0,-0.7,0,-1.1,-0.2c-0.3,-0.1,-0.6,-0.3,-0.9,-0.6Z" class="g6_46" />
<path d="M268.9,1179l1.2,0l0,1.6l0.9,0l0,0.9l-0.9,0l0,2.6c0,0.1,0.1,0.2,0.2,0.3c0.1,0.1,0.3,0.1,0.7,0.1l0,1c-0.3,0,-0.4,0,-0.4,0c-0.4,0,-0.7,0,-0.9,-0.1c-0.3,-0.1,-0.5,-0.3,-0.6,-0.5c-0.1,-0.3,-0.2,-0.5,-0.2,-0.8l0,-2.6l-0.7,0l0,-0.9l0.7,0Z" class="g6_46" />
<path d="M274.5,1182.5c0,-0.4,-0.1,-0.7,-0.3,-0.9c-0.2,-0.1,-0.4,-0.2,-0.7,-0.2c-0.3,0,-0.5,0,-0.7,0.2c-0.2,0.2,-0.3,0.5,-0.3,0.9Zm1,1.8c-0.1,0.2,-0.2,0.4,-0.3,0.5c-0.2,0.2,-0.3,0.3,-0.5,0.4c-0.2,0.1,-0.4,0.2,-0.6,0.3c-0.2,0,-0.4,0,-0.6,0c-0.4,0,-0.8,-0.1,-1.1,-0.3c-0.4,-0.2,-0.7,-0.5,-0.9,-0.9c-0.2,-0.4,-0.3,-0.8,-0.3,-1.3c0,-0.8,0.2,-1.4,0.6,-1.8c0.5,-0.5,1,-0.7,1.7,-0.7c0.6,0,1.1,0.2,1.5,0.6c0.4,0.4,0.6,1,0.6,1.7c0,0.1,0,0.3,0,0.4l-3.1,0c0,0.5,0.1,0.8,0.3,1c0.2,0.2,0.4,0.3,0.7,0.3c0.3,0,0.4,0,0.6,-0.1c0.1,-0.1,0.3,-0.3,0.4,-0.5Z" class="g6_46" />
<path d="M277.4,1181.8c0.3,-0.5,0.6,-0.8,0.8,-1c0.3,-0.2,0.5,-0.3,0.8,-0.3l0,1.3l-0.1,0c-0.3,0,-0.6,0.1,-0.8,0.2c-0.3,0.2,-0.5,0.5,-0.7,0.8l0,2.7l-1.2,0l0,-4.9l1.2,0Z" class="g6_46" />
<path d="M279.5,1185.5l0,-7" class="g15_46" />
<path d="M283.8,1181.3c-0.2,0,-0.5,0.1,-0.6,0.3c-0.2,0.3,-0.3,0.8,-0.3,1.4c0,0.6,0,1,0.2,1.3c0.2,0.2,0.5,0.3,0.7,0.3c0.2,0,0.4,0,0.5,-0.1c0.2,-0.2,0.3,-0.3,0.4,-0.6c0.1,-0.3,0.1,-0.6,0.1,-1c0,-0.3,0,-0.6,-0.1,-0.8c-0.1,-0.3,-0.2,-0.5,-0.4,-0.6c-0.1,-0.1,-0.3,-0.2,-0.5,-0.2Zm-0.1,-0.8c0.7,0,1.3,0.2,1.7,0.7c0.4,0.4,0.6,1,0.6,1.8c0,0.8,-0.2,1.4,-0.6,1.9c-0.4,0.4,-0.9,0.6,-1.6,0.6c-0.6,0,-1.1,-0.2,-1.5,-0.6c-0.5,-0.4,-0.7,-1.1,-0.7,-1.9c0,-0.8,0.2,-1.4,0.6,-1.8c0.4,-0.5,0.9,-0.7,1.5,-0.7Z" class="g6_46" />
<path d="M291.8,1184.1l0,-2.1c-0.1,-0.1,-0.3,-0.3,-0.4,-0.3c-0.1,-0.1,-0.3,-0.2,-0.4,-0.2c-0.3,0,-0.5,0.2,-0.7,0.4c-0.2,0.2,-0.3,0.6,-0.3,1.2c0,0.5,0.1,0.8,0.3,1.1c0.2,0.2,0.4,0.3,0.7,0.3c0.1,0,0.3,0,0.4,-0.1c0.2,-0.1,0.3,-0.2,0.4,-0.3Zm0,-5.6l1.3,0l0,7l-1.3,0l0,-0.6c-0.2,0.2,-0.4,0.4,-0.6,0.5c-0.2,0.1,-0.5,0.1,-0.7,0.1c-0.5,0,-0.9,-0.2,-1.2,-0.6c-0.4,-0.4,-0.6,-1.1,-0.6,-1.9c0,-0.4,0,-0.7,0.1,-1.1c0.1,-0.3,0.3,-0.6,0.4,-0.8c0.2,-0.1,0.4,-0.3,0.6,-0.4c0.2,-0.1,0.4,-0.2,0.7,-0.2c0.3,0,0.5,0.1,0.7,0.2c0.2,0.1,0.4,0.2,0.6,0.5Z" class="g6_46" />
<path d="M297,1182.5c0,-0.4,-0.1,-0.7,-0.3,-0.9c-0.2,-0.1,-0.4,-0.2,-0.7,-0.2c-0.3,0,-0.5,0,-0.7,0.2c-0.2,0.2,-0.3,0.5,-0.3,0.9Zm1,1.8c-0.1,0.2,-0.2,0.4,-0.3,0.5c-0.1,0.2,-0.3,0.3,-0.5,0.4c-0.2,0.1,-0.4,0.2,-0.5,0.3c-0.2,0,-0.4,0,-0.7,0c-0.4,0,-0.8,-0.1,-1.1,-0.3c-0.4,-0.2,-0.7,-0.5,-0.9,-0.9c-0.2,-0.4,-0.3,-0.8,-0.3,-1.3c0,-0.8,0.2,-1.4,0.7,-1.8c0.4,-0.5,0.9,-0.7,1.6,-0.7c0.6,0,1.2,0.2,1.5,0.6c0.4,0.4,0.6,1,0.6,1.7c0,0.1,0,0.3,0,0.4l-3.1,0c0,0.5,0.1,0.8,0.3,1c0.2,0.2,0.5,0.3,0.8,0.3c0.2,0,0.4,0,0.5,-0.1c0.2,-0.1,0.3,-0.3,0.4,-0.5Z" class="g6_46" />
<path d="M249,1189.8l1.6,0l0,5.5c0,0.9,-0.3,1.6,-0.9,2.1c-0.4,0.3,-1,0.5,-1.5,0.5c-0.8,0,-1.6,-0.4,-2.3,-1.3l1,-0.9c0.3,0.4,0.5,0.6,0.7,0.7c0.1,0.1,0.3,0.2,0.5,0.2c0.2,0,0.5,-0.1,0.6,-0.3c0.2,-0.3,0.3,-0.6,0.3,-1Z" class="g6_46" />
<path d="M251.7,1192.1l1.4,0l0,3.9c0,0.2,0.1,0.3,0.2,0.5c0.1,0.1,0.3,0.1,0.4,0.1c0.2,0,0.4,0,0.6,-0.1c0.2,-0.1,0.4,-0.3,0.6,-0.6l0,-3.8l1.5,0l0,5.7l-1.5,0l0,-0.9c-0.3,0.3,-0.6,0.6,-1,0.7c-0.3,0.2,-0.6,0.3,-0.8,0.3c-0.3,0,-0.5,-0.1,-0.7,-0.2c-0.2,-0.1,-0.4,-0.3,-0.5,-0.5c-0.2,-0.3,-0.2,-0.6,-0.2,-0.9Z" class="g6_46" />
<path d="M258,1196.2c0.2,0.2,0.5,0.4,0.7,0.5c0.2,0.1,0.5,0.1,0.7,0.1c0.3,0,0.6,0,0.7,-0.2c0.2,-0.1,0.3,-0.2,0.3,-0.4c0,-0.1,-0.1,-0.2,-0.2,-0.4c-0.2,-0.1,-0.5,-0.2,-0.9,-0.2c-0.8,-0.2,-1.3,-0.4,-1.6,-0.7c-0.3,-0.3,-0.5,-0.7,-0.5,-1.2c0,-0.4,0.2,-0.8,0.6,-1.2c0.4,-0.4,1,-0.5,1.6,-0.5c0.4,0,0.7,0,1.1,0.1c0.3,0.1,0.7,0.4,1,0.7l-0.8,0.7c-0.4,-0.3,-0.7,-0.4,-0.8,-0.5c-0.2,0,-0.3,0,-0.5,0c-0.2,0,-0.4,0,-0.6,0.2c-0.2,0.1,-0.2,0.2,-0.2,0.4c0,0.2,0,0.3,0.2,0.4c0.1,0.1,0.4,0.3,0.9,0.4c0.7,0.1,1.2,0.3,1.5,0.5c0.4,0.3,0.6,0.7,0.6,1.1c0,0.5,-0.2,1,-0.6,1.3c-0.4,0.4,-1,0.6,-1.8,0.6c-0.5,0,-0.9,-0.1,-1.3,-0.3c-0.3,-0.1,-0.7,-0.4,-1,-0.8Z" class="g6_46" />
<path d="M262.8,1190.2l1.5,0l0,1.9l1,0l0,1l-1,0l0,3.1c0,0.1,0,0.2,0.1,0.3c0.2,0.1,0.4,0.2,0.9,0.2l0,1.2c-0.4,0,-0.5,0,-0.6,0c-0.4,0,-0.8,-0.1,-1,-0.2c-0.3,-0.1,-0.5,-0.3,-0.7,-0.6c-0.1,-0.3,-0.2,-0.6,-0.2,-0.9l0,-3.1l-0.9,0l0,-1l0.9,0Z" class="g6_46" />
<path d="M265.5,1197.5l0,-8" class="g15_46" />
<path d="M273.1,1196.2c-0.1,0.4,-0.3,0.7,-0.4,0.8c-0.2,0.3,-0.5,0.5,-0.8,0.6c-0.2,0.2,-0.6,0.3,-1,0.3c-0.9,0,-1.5,-0.4,-2,-1c-0.4,-0.6,-0.6,-1.2,-0.6,-2c0,-0.8,0.3,-1.6,0.8,-2.1c0.5,-0.6,1.1,-0.8,1.9,-0.8c0.3,0,0.6,0,0.9,0.2c0.3,0.1,0.5,0.3,0.7,0.5c0.1,0.2,0.3,0.4,0.4,0.7l-1.2,0.4c-0.1,-0.3,-0.3,-0.4,-0.4,-0.5c-0.1,-0.1,-0.3,-0.2,-0.5,-0.2c-0.3,0,-0.5,0.1,-0.7,0.4c-0.2,0.3,-0.3,0.7,-0.3,1.2c0,0.5,0,0.9,0.2,1.2c0,0.3,0.1,0.4,0.3,0.6c0.2,0.1,0.4,0.2,0.6,0.2c0.2,0,0.4,-0.1,0.6,-0.3c0.1,-0.1,0.3,-0.4,0.4,-0.7Z" class="g6_46" />
<path d="M273.5,1197.5l0,-8" class="g15_46" />
<path d="M279.6,1196.3l0,-1.5c-0.8,0.2,-1.4,0.4,-1.7,0.7c-0.3,0.2,-0.4,0.4,-0.4,0.7c0,0.2,0.1,0.4,0.2,0.5c0.2,0.1,0.3,0.2,0.6,0.2c0.1,0,0.3,-0.1,0.6,-0.2c0.2,-0.1,0.4,-0.2,0.7,-0.4Zm-3.2,-3.3c0.3,-0.3,0.6,-0.6,1,-0.8c0.4,-0.1,0.8,-0.2,1.3,-0.2c0.4,0,0.8,0.1,1.2,0.2c0.2,0.1,0.5,0.4,0.7,0.6c0.2,0.3,0.2,0.7,0.2,1.1l0,2.7c0,0.2,0.1,0.4,0.1,0.6c0.1,0.2,0.1,0.4,0.1,0.6l-1.2,0c-0.1,-0.2,-0.1,-0.4,-0.2,-0.6c-0.2,0.2,-0.5,0.4,-0.8,0.5c-0.2,0.1,-0.5,0.2,-0.8,0.2c-0.5,0,-1,-0.2,-1.3,-0.5c-0.3,-0.3,-0.5,-0.7,-0.5,-1.1c0,-0.3,0.1,-0.6,0.2,-0.9c0.2,-0.2,0.4,-0.5,0.7,-0.7c0.3,-0.2,0.7,-0.3,1.1,-0.4c0.4,-0.1,0.8,-0.2,1.4,-0.3c0,-0.2,0,-0.4,-0.1,-0.5c0,-0.2,-0.1,-0.3,-0.3,-0.4c-0.1,-0.1,-0.3,-0.1,-0.6,-0.1c-0.5,0,-1,0.2,-1.4,0.7Z" class="g6_46" />
<path d="M284.1,1192.1l1.4,0l1.1,3.6l1.1,-3.6l1.4,0l-1.6,5.3c-0.2,0.7,-0.4,1.2,-0.6,1.5c-0.2,0.3,-0.4,0.6,-0.7,0.8c-0.1,0.1,-0.3,0.2,-0.6,0.3c-0.2,0,-0.5,0.1,-0.9,0.1l-0.5,0l0,-1l0.3,0c0.4,0,0.7,-0.1,0.9,-0.3c0.3,-0.2,0.4,-0.5,0.5,-0.8Z" class="g6_46" />
<path d="M294,1191.1l0,5.3l1.1,0c0.3,0,0.7,-0.1,1,-0.3c0.3,-0.3,0.5,-0.5,0.7,-0.9c0.2,-0.4,0.3,-1,0.3,-1.5c0,-0.8,-0.2,-1.4,-0.6,-1.9c-0.5,-0.5,-1.1,-0.7,-1.8,-0.7Zm-1.6,-1.3l2.9,0c0.7,0,1.3,0.1,1.8,0.5c0.6,0.3,1,0.8,1.3,1.4c0.3,0.6,0.4,1.3,0.4,2c0,0.7,-0.1,1.4,-0.4,1.9c-0.2,0.6,-0.5,1.1,-0.9,1.4c-0.3,0.2,-0.6,0.4,-1.1,0.6c-0.4,0.1,-0.9,0.2,-1.4,0.2l-2.6,0Z" class="g6_46" />
<path d="M303.1,1194.3c0,-0.4,-0.1,-0.8,-0.4,-1c-0.2,-0.2,-0.5,-0.3,-0.8,-0.3c-0.3,0,-0.6,0.1,-0.8,0.3c-0.2,0.2,-0.3,0.6,-0.3,1Zm1.2,2.1c-0.2,0.2,-0.3,0.4,-0.4,0.6c-0.2,0.2,-0.4,0.3,-0.6,0.5c-0.2,0.1,-0.4,0.2,-0.6,0.3c-0.3,0,-0.5,0.1,-0.7,0.1c-0.5,0,-1,-0.2,-1.4,-0.4c-0.5,-0.2,-0.8,-0.6,-1,-1.1c-0.2,-0.4,-0.4,-1,-0.4,-1.5c0,-0.9,0.3,-1.6,0.8,-2.2c0.5,-0.5,1.1,-0.7,1.9,-0.7c0.8,0,1.4,0.2,1.8,0.7c0.5,0.5,0.7,1.1,0.7,2c0,0.1,0,0.3,0,0.5l-3.6,0c0,0.5,0.1,0.9,0.3,1.1c0.2,0.3,0.5,0.4,0.9,0.4c0.2,0,0.4,-0.1,0.6,-0.2c0.2,-0.1,0.4,-0.3,0.5,-0.6Z" class="g6_46" />
<path d="M306.6,1193.4c0.3,-0.5,0.6,-0.9,0.9,-1.1c0.3,-0.2,0.6,-0.3,0.9,-0.3l0,1.4l-0.1,0c-0.4,0,-0.7,0.1,-1,0.4c-0.3,0.2,-0.6,0.5,-0.7,0.9l0,3.1l-1.5,0l0,-5.7l1.5,0Z" class="g6_46" />
<path d="M312.3,1194.3c0,-0.4,-0.1,-0.8,-0.3,-1c-0.2,-0.2,-0.5,-0.3,-0.8,-0.3c-0.4,0,-0.6,0.1,-0.8,0.3c-0.2,0.2,-0.4,0.6,-0.4,1Zm1.2,2.1c-0.1,0.2,-0.2,0.4,-0.3,0.6c-0.2,0.2,-0.4,0.3,-0.6,0.5c-0.2,0.1,-0.5,0.2,-0.7,0.3c-0.2,0,-0.4,0.1,-0.7,0.1c-0.5,0,-0.9,-0.2,-1.4,-0.4c-0.4,-0.2,-0.7,-0.6,-1,-1.1c-0.2,-0.4,-0.3,-1,-0.3,-1.5c0,-0.9,0.2,-1.6,0.7,-2.2c0.5,-0.5,1.2,-0.7,1.9,-0.7c0.8,0,1.4,0.2,1.9,0.7c0.4,0.5,0.7,1.1,0.7,2c0,0.1,-0.1,0.3,-0.1,0.5l-3.6,0c0,0.5,0.2,0.9,0.4,1.1c0.2,0.3,0.5,0.4,0.8,0.4c0.3,0,0.5,-0.1,0.7,-0.2c0.2,-0.1,0.3,-0.3,0.4,-0.6Z" class="g6_46" />
<path d="M318.8,1196.2c-0.2,0.4,-0.3,0.7,-0.4,0.8c-0.2,0.3,-0.5,0.5,-0.8,0.6c-0.3,0.2,-0.6,0.3,-1,0.3c-0.9,0,-1.6,-0.4,-2,-1c-0.4,-0.6,-0.6,-1.2,-0.6,-2c0,-0.8,0.2,-1.6,0.7,-2.1c0.6,-0.6,1.2,-0.8,1.9,-0.8c0.4,0,0.7,0,1,0.2c0.2,0.1,0.5,0.3,0.7,0.5c0.1,0.2,0.2,0.4,0.4,0.7l-1.2,0.4c-0.2,-0.3,-0.3,-0.4,-0.4,-0.5c-0.2,-0.1,-0.3,-0.2,-0.5,-0.2c-0.3,0,-0.5,0.1,-0.7,0.4c-0.2,0.3,-0.3,0.7,-0.3,1.2c0,0.5,0,0.9,0.1,1.2c0.1,0.3,0.2,0.4,0.4,0.6c0.1,0.1,0.3,0.2,0.5,0.2c0.2,0,0.4,-0.1,0.6,-0.3c0.2,-0.1,0.3,-0.4,0.4,-0.7Z" class="g6_46" />
<path d="M319,1189.6l1.4,0l0,3.2c0.4,-0.3,0.7,-0.5,1,-0.6c0.4,-0.2,0.7,-0.2,1,-0.2c0.4,0,0.7,0.1,0.9,0.3c0.3,0.3,0.4,0.7,0.4,1.1l0,4.4l-1.4,0l0,-4c0,-0.2,-0.1,-0.4,-0.2,-0.5c-0.1,-0.1,-0.2,-0.2,-0.3,-0.2c-0.2,0,-0.4,0.1,-0.6,0.2c-0.3,0.1,-0.5,0.3,-0.8,0.6l0,3.9l-1.4,0Z" class="g6_46" />
<path d="M326.9,1192.9c-0.3,0,-0.6,0.1,-0.8,0.4c-0.2,0.3,-0.4,0.9,-0.4,1.6c0,0.7,0.1,1.2,0.4,1.5c0.2,0.3,0.5,0.4,0.8,0.4c0.2,0,0.4,-0.1,0.6,-0.2c0.2,-0.1,0.3,-0.3,0.4,-0.6c0.1,-0.4,0.1,-0.8,0.1,-1.2c0,-0.4,0,-0.7,-0.1,-1c-0.1,-0.3,-0.2,-0.5,-0.4,-0.7c-0.2,-0.1,-0.4,-0.2,-0.6,-0.2Zm-0.2,-0.9c0.9,0,1.5,0.2,2,0.7c0.5,0.5,0.8,1.3,0.8,2.2c0,0.9,-0.3,1.7,-0.8,2.2c-0.5,0.5,-1.1,0.8,-1.8,0.8c-0.7,0,-1.3,-0.3,-1.8,-0.8c-0.6,-0.5,-0.8,-1.2,-0.8,-2.2c0,-0.9,0.2,-1.7,0.7,-2.2c0.4,-0.5,1,-0.7,1.7,-0.7Z" class="g6_46" />
<path d="M330.6,1196.2c0.3,0.2,0.5,0.4,0.8,0.5c0.2,0.1,0.4,0.1,0.7,0.1c0.3,0,0.5,0,0.7,-0.2c0.1,-0.1,0.2,-0.2,0.2,-0.4c0,-0.1,-0.1,-0.2,-0.2,-0.4c-0.1,-0.1,-0.4,-0.2,-0.9,-0.2c-0.7,-0.2,-1.3,-0.4,-1.6,-0.7c-0.3,-0.3,-0.4,-0.7,-0.4,-1.2c0,-0.4,0.2,-0.8,0.6,-1.2c0.4,-0.4,0.9,-0.5,1.6,-0.5c0.3,0,0.7,0,1,0.1c0.4,0.1,0.7,0.4,1.1,0.7l-0.8,0.7c-0.4,-0.3,-0.7,-0.4,-0.9,-0.5c-0.1,0,-0.3,0,-0.4,0c-0.3,0,-0.5,0,-0.7,0.2c-0.1,0.1,-0.2,0.2,-0.2,0.4c0,0.2,0.1,0.3,0.2,0.4c0.1,0.1,0.5,0.3,1,0.4c0.7,0.1,1.2,0.3,1.4,0.5c0.4,0.3,0.6,0.7,0.6,1.1c0,0.5,-0.2,1,-0.6,1.3c-0.4,0.4,-1,0.6,-1.7,0.6c-0.5,0,-0.9,-0.1,-1.3,-0.3c-0.4,-0.1,-0.7,-0.4,-1.1,-0.8Z" class="g6_46" />
<path d="M337,1189l2,0l0,3l3,0l0,-3l2,0l0,8l-2,0l0,-3l-3,0l0,3l-2,0Z" class="g6_46" />
<path d="M345.2,1192.1l1.5,0l0,3.9c0,0.2,0,0.3,0.1,0.5c0.1,0.1,0.3,0.1,0.5,0.1c0.1,0,0.3,0,0.5,-0.1c0.2,-0.1,0.4,-0.3,0.7,-0.6l0,-3.8l1.4,0l0,5.7l-1.4,0l0,-0.9c-0.4,0.3,-0.7,0.6,-1,0.7c-0.4,0.2,-0.7,0.3,-0.9,0.3c-0.3,0,-0.5,-0.1,-0.7,-0.2c-0.2,-0.1,-0.4,-0.3,-0.5,-0.5c-0.1,-0.3,-0.2,-0.6,-0.2,-0.9Z" class="g6_46" />
<path d="M352.5,1193.2c0.4,-0.5,0.8,-0.8,1.1,-1c0.3,-0.1,0.6,-0.2,0.9,-0.2c0.4,0,0.7,0.1,0.9,0.2c0.2,0.2,0.4,0.6,0.4,1c0.6,-0.5,0.9,-0.9,1.2,-1c0.3,-0.2,0.6,-0.2,0.9,-0.2c0.3,0,0.5,0,0.7,0.1c0.2,0.1,0.3,0.3,0.4,0.5c0.2,0.3,0.3,0.7,0.3,1.3l0,3.9l-1.5,0l0,-3.7c0,-0.3,0,-0.6,-0.1,-0.7c-0.2,-0.2,-0.3,-0.2,-0.5,-0.2c-0.2,0,-0.4,0,-0.6,0.1c-0.1,0.2,-0.4,0.4,-0.7,0.8l0,3.7l-1.4,0l0,-3.6c0,-0.4,-0.1,-0.7,-0.2,-0.8c-0.2,-0.2,-0.3,-0.3,-0.5,-0.3c-0.2,0,-0.4,0.1,-0.6,0.3c-0.2,0.1,-0.5,0.4,-0.7,0.7l0,3.7l-1.4,0l0,-5.7l1.4,0Z" class="g6_46" />
<path d="M363.3,1196.3l0,-1.5c-0.8,0.2,-1.4,0.4,-1.7,0.7c-0.2,0.2,-0.4,0.4,-0.4,0.7c0,0.2,0.1,0.4,0.2,0.5c0.2,0.1,0.4,0.2,0.6,0.2c0.1,0,0.3,-0.1,0.6,-0.2c0.2,-0.1,0.4,-0.2,0.7,-0.4Zm-3.2,-3.3c0.3,-0.3,0.6,-0.6,1,-0.8c0.4,-0.1,0.8,-0.2,1.3,-0.2c0.4,0,0.8,0.1,1.2,0.2c0.3,0.1,0.5,0.4,0.7,0.6c0.2,0.3,0.3,0.7,0.3,1.1l0,2.7c0,0.2,0,0.4,0,0.6c0.1,0.2,0.1,0.4,0.2,0.6l-1.3,0c-0.1,-0.2,-0.1,-0.4,-0.1,-0.6c-0.3,0.2,-0.6,0.4,-0.8,0.5c-0.3,0.1,-0.6,0.2,-0.9,0.2c-0.5,0,-0.9,-0.2,-1.3,-0.5c-0.3,-0.3,-0.5,-0.7,-0.5,-1.1c0,-0.3,0.1,-0.6,0.2,-0.9c0.2,-0.2,0.4,-0.5,0.7,-0.7c0.3,-0.2,0.7,-0.3,1.1,-0.4c0.4,-0.1,0.8,-0.2,1.4,-0.3c0,-0.2,0,-0.4,-0.1,-0.5c0,-0.2,-0.1,-0.3,-0.3,-0.4c-0.1,-0.1,-0.3,-0.1,-0.6,-0.1c-0.5,0,-1,0.2,-1.4,0.7Z" class="g6_46" />
<path d="M367.1,1192.8c0.3,-0.2,0.6,-0.5,0.9,-0.6c0.3,-0.2,0.7,-0.2,1.1,-0.2c0.4,0,0.7,0.1,0.9,0.3c0.3,0.3,0.4,0.6,0.4,1.1l0,4.4l-1.5,0l0,-4c0,-0.2,0,-0.4,-0.1,-0.5c-0.1,-0.1,-0.2,-0.2,-0.4,-0.2c-0.2,0,-0.3,0.1,-0.5,0.2c-0.2,0.1,-0.5,0.3,-0.8,0.6l0,3.9l-1.5,0l0,-5.7l1.5,0Z" class="g6_46" />
<path d="M373.6,1192.9c-0.4,0,-0.6,0.1,-0.8,0.4c-0.2,0.3,-0.4,0.9,-0.4,1.6c0,0.7,0.1,1.2,0.4,1.5c0.2,0.3,0.5,0.4,0.8,0.4c0.2,0,0.4,-0.1,0.6,-0.2c0.1,-0.1,0.3,-0.3,0.4,-0.6c0.1,-0.4,0.1,-0.8,0.1,-1.2c0,-0.4,0,-0.7,-0.1,-1c-0.1,-0.3,-0.2,-0.5,-0.4,-0.7c-0.2,-0.1,-0.4,-0.2,-0.6,-0.2Zm-0.2,-0.9c0.9,0,1.5,0.2,2,0.7c0.5,0.5,0.8,1.3,0.8,2.2c0,0.9,-0.3,1.7,-0.8,2.2c-0.5,0.5,-1.1,0.8,-1.8,0.8c-0.7,0,-1.3,-0.3,-1.8,-0.8c-0.6,-0.5,-0.8,-1.2,-0.8,-2.2c0,-0.9,0.2,-1.7,0.7,-2.2c0.4,-0.5,1,-0.7,1.7,-0.7Z" class="g6_46" />
<path d="M377.3,1196.2c0.3,0.2,0.5,0.4,0.8,0.5c0.2,0.1,0.4,0.1,0.7,0.1c0.3,0,0.5,0,0.7,-0.2c0.1,-0.1,0.2,-0.2,0.2,-0.4c0,-0.1,-0.1,-0.2,-0.2,-0.4c-0.1,-0.1,-0.4,-0.2,-0.9,-0.2c-0.7,-0.2,-1.3,-0.4,-1.6,-0.7c-0.3,-0.3,-0.4,-0.7,-0.4,-1.2c0,-0.4,0.2,-0.8,0.6,-1.2c0.4,-0.4,0.9,-0.5,1.5,-0.5c0.4,0,0.8,0,1.1,0.1c0.3,0.1,0.7,0.4,1.1,0.7l-0.8,0.7c-0.4,-0.3,-0.7,-0.4,-0.9,-0.5c-0.1,0,-0.3,0,-0.4,0c-0.3,0,-0.5,0,-0.7,0.2c-0.1,0.1,-0.2,0.2,-0.2,0.4c0,0.2,0.1,0.3,0.2,0.4c0.1,0.1,0.5,0.3,1,0.4c0.7,0.1,1.2,0.3,1.4,0.5c0.4,0.3,0.6,0.7,0.6,1.1c0,0.5,-0.2,1,-0.6,1.3c-0.4,0.4,-1,0.6,-1.7,0.6c-0.5,0,-0.9,-0.1,-1.3,-0.3c-0.4,-0.1,-0.7,-0.4,-1.1,-0.8Z" class="g6_46" />
</svg>