<?xml version="1.0" encoding="UTF-8" standalone="no"?>
<!DOCTYPE svg PUBLIC "-//W3C//DTD SVG 1.1//EN"
"http://www.w3.org/Graphics/SVG/1.1/DTD/svg11.dtd">
<svg version="1.1" xmlns="http://www.w3.org/2000/svg" xmlns:xlink="http://www.w3.org/1999/xlink">
<defs>
<style type="text/css"><![CDATA[
.g6_33{
fill: none;
stroke: #2F368F;
stroke-width: 3;
stroke-linecap: butt;
stroke-linejoin: miter;
stroke-miterlimit: 22;
}
.g10_33{
fill: none;
stroke: #2AABE1;
stroke-width: 3;
stroke-linecap: butt;
stroke-linejoin: miter;
stroke-miterlimit: 22;
}
.g16_33{
fill: #4D4A4B;
}
.g4_33{
fill: none;
stroke: #1D1A54;
stroke-width: 3;
stroke-linecap: butt;
stroke-linejoin: miter;
stroke-miterlimit: 22;
}
.g12_33{
fill: none;
stroke: #1FA74D;
stroke-width: 3;
stroke-linecap: butt;
stroke-linejoin: miter;
stroke-miterlimit: 22;
}
.g15_33{
fill: #364E60;
}
.g1_33{
fill: #A84097;
}
.g5_33{
fill: #2F368F;
}
.g14_33{
fill: none;
stroke: #A84097;
stroke-width: 1;
stroke-linecap: butt;
stroke-linejoin: miter;
stroke-miterlimit: 22;
}
.g11_33{
fill: #1FA74D;
}
.g3_33{
fill: #1D1A54;
}
.g13_33{
fill: #FFFFFF;
}
.g2_33{
fill: #373433;
}
.g9_33{
fill: #2AABE1;
}
.g8_33{
fill: none;
stroke: #0A71B9;
stroke-width: 3;
stroke-linecap: butt;
stroke-linejoin: miter;
stroke-miterlimit: 22;
}
.g7_33{
fill: #0A71B9;
}
]]></style>
</defs>
<path d="M-13.2,-15.7l0,49.4l537,0l39.5,78.5l358.7,0l0,-127.9Z" class="g1_33" />
<path d="M84.4,236.3l6,-5.5l-6.1,-5.3c-0.7,-0.6,-0.8,-1.6,-0.4,-2.4c0.5,-0.7,1.3,-0.9,2,-0.4l7.6,6.7c0.4,0.3,0.6,0.8,0.6,1.4c0,0.5,-0.2,1,-0.6,1.4L86,239c-0.6,0.6,-1.4,0.4,-1.9,-0.3c-0.4,-0.8,-0.3,-1.8,0.3,-2.4Z" class="g2_33" />
<path fill-rule="evenodd" d="M571,311l15,0l0,-23l-15,0l0,23Z" class="g3_33" />
<path d="M571.5,311.5l15,0l0,-23l-15,0l0,23Z" class="g4_33" />
<path fill-rule="evenodd" d="M571,377l15,0l0,-23l-15,0l0,23Z" class="g5_33" />
<path d="M571.5,377.5l15,0l0,-23l-15,0l0,23Z" class="g6_33" />
<path fill-rule="evenodd" d="M571,465l15,0l0,-23l-15,0l0,23Z" class="g7_33" />
<path d="M571.5,465.5l15,0l0,-23l-15,0l0,23Z" class="g8_33" />
<path fill-rule="evenodd" d="M571,553l15,0l0,-23l-15,0l0,23Z" class="g9_33" />
<path d="M571.5,553.5l15,0l0,-23l-15,0l0,23Z" class="g10_33" />
<path fill-rule="evenodd" d="M571,687l15,0l0,-23l-15,0l0,23Z" class="g9_33" />
<path d="M571.5,687.5l15,0l0,-23l-15,0l0,23Z" class="g10_33" />
<path fill-rule="evenodd" d="M571,773l15,0l0,-23l-15,0l0,23Z" class="g11_33" />
<path d="M571.5,773.5l15,0l0,-23l-15,0l0,23Z" class="g12_33" />
<path d="M562,874l0,33l33,0Z" class="g13_33" />
<path d="M562,898l7,0l0,-70l-7,0l0,70Z" class="g1_33" />
<image x="84" y="286" width="438" height="722" xlink:href="img/1.png" />
<path fill-rule="evenodd" d="M140,666l15,0l0,-23l-15,0l0,23Z" class="g5_33" />
<path d="M140.5,666.5l15,0l0,-23l-15,0l0,23Z" class="g6_33" />
<path fill-rule="evenodd" d="M296,810l15,0l0,-23l-15,0l0,23Z" class="g7_33" />
<path d="M296.5,810.5l15,0l0,-23l-15,0l0,23Z" class="g8_33" />
<path fill-rule="evenodd" d="M410,810l15,0l0,-23l-15,0l0,23Z" class="g9_33" />
<path d="M410.5,810.5l15,0l0,-23l-15,0l0,23Z" class="g10_33" />
<path fill-rule="evenodd" d="M327,784l15,0l0,-23l-15,0l0,23Z" class="g9_33" />
<path d="M327.5,784.5l15,0l0,-23l-15,0l0,23Z" class="g10_33" />
<path fill-rule="evenodd" d="M145,856l15,0l0,-23l-15,0l0,23Z" class="g11_33" />
<path d="M145.5,856.5l15,0l0,-23l-15,0l0,23Z" class="g12_33" />
<path fill-rule="evenodd" d="M258,666l15,0l0,-23l-15,0l0,23Z" class="g5_33" />
<path d="M258.5,666.5l15,0l0,-23l-15,0l0,23Z" class="g6_33" />
<path fill-rule="evenodd" d="M373,666l15,0l0,-23l-15,0l0,23Z" class="g5_33" />
<path d="M373.5,666.5l15,0l0,-23l-15,0l0,23Z" class="g6_33" />
<path fill-rule="evenodd" d="M453,667l15,0l0,-23l-15,0l0,23Z" class="g5_33" />
<path d="M453.5,667.5l15,0l0,-23l-15,0l0,23Z" class="g6_33" />
<path fill-rule="evenodd" d="M377,512l15,0l0,-24l-15,0l0,24Z" class="g3_33" />
<path d="M377.5,512.5l15,0l0,-24l-15,0l0,24Z" class="g4_33" />
<path fill-rule="evenodd" d="M261,838l15,0l0,-23l-15,0l0,23Z" class="g11_33" />
<path d="M261.5,838.5l15,0l0,-23l-15,0l0,23Z" class="g12_33" />
<path d="M106.5,997.5l196,0l0,-15l-196,0l0,15Z" class="g14_33" />
<path d="M339,124l-351,0l0,68l316,0Z" class="g15_33" />
<path d="M817.7,1262.4l3,-2.8l-3,-2.6c-0.3,-0.3,-0.4,-0.8,-0.2,-1.2c0.2,-0.4,0.7,-0.5,1,-0.2l3.8,3.3c0.2,0.2,0.3,0.4,0.3,0.7c0,0.3,-0.1,0.5,-0.3,0.7l-3.7,3.4c-0.3,0.3,-0.8,0.2,-1,-0.2c-0.2,-0.3,-0.2,-0.9,0.1,-1.1Z" class="g16_33" />
<path d="M833.5,1269.5l13,0" class="g10_33" />
</svg>