<?xml version="1.0" encoding="UTF-8" standalone="no"?>
<!DOCTYPE svg PUBLIC "-//W3C//DTD SVG 1.1//EN"
"http://www.w3.org/Graphics/SVG/1.1/DTD/svg11.dtd">
<svg version="1.1" xmlns="http://www.w3.org/2000/svg" xmlns:xlink="http://www.w3.org/1999/xlink">
<defs>
<style type="text/css"><![CDATA[
.g3_30{
fill: #373433;
}
.g2_30{
fill: #FFFFFF;
}
.g6_30{
fill: none;
stroke: #2AABE1;
stroke-width: 3;
stroke-linecap: butt;
stroke-linejoin: miter;
stroke-miterlimit: 22;
}
.g1_30{
fill: #A84097;
}
.g5_30{
fill: #4D4A4B;
}
.g4_30{
fill: #364E60;
}
]]></style>
</defs>
<path d="M922,-15.7l0,49.4l-537.1,0l-39.5,78.5l-358.6,0l0,-127.9Z" class="g1_30" />
<path d="M714.3,51.7l-336.8,0l-35.6,67.2l372.4,0Z" class="g2_30" />
<path d="M84.4,236.9l6,-5.5l-6.1,-5.3c-0.6,-0.6,-0.8,-1.6,-0.3,-2.4c0.4,-0.7,1.2,-0.9,1.9,-0.4l7.6,6.7c0.4,0.4,0.6,0.9,0.6,1.4c0,0.6,-0.2,1.1,-0.5,1.4L86,239.6c-0.6,0.6,-1.4,0.4,-1.9,-0.3c-0.4,-0.8,-0.3,-1.8,0.3,-2.4Z" class="g3_30" />
<path d="M83,1154l7,0l0,-82l-7,0l0,82Z" class="g1_30" />
<path d="M339,124l-351,0l0,68l316,0Z" class="g4_30" />
<path d="M107.1,1262.4l3,-2.8l-3,-2.6c-0.3,-0.3,-0.4,-0.8,-0.2,-1.2c0.2,-0.4,0.7,-0.5,1,-0.2l3.8,3.3c0.2,0.2,0.3,0.4,0.3,0.7c0,0.3,-0.1,0.5,-0.3,0.7l-3.7,3.4c-0.3,0.3,-0.8,0.2,-1,-0.2c-0.2,-0.3,-0.2,-0.9,0.1,-1.1Z" class="g5_30" />
<path d="M83.5,1269.5l13,0" class="g6_30" />
</svg>