<?xml version="1.0" encoding="UTF-8" standalone="no"?>
<!DOCTYPE svg PUBLIC "-//W3C//DTD SVG 1.1//EN"
"http://www.w3.org/Graphics/SVG/1.1/DTD/svg11.dtd">
<svg version="1.1" xmlns="http://www.w3.org/2000/svg" xmlns:xlink="http://www.w3.org/1999/xlink">
<defs>
<style type="text/css"><![CDATA[
.g4_6{
fill: #211D1D;
}
.g8_6{
fill: #4D4A4B;
}
.g6_6{
fill: #3FB761;
}
.g1_6{
fill: none;
stroke: #FFFFFF;
stroke-width: 2;
stroke-linecap: butt;
stroke-linejoin: miter;
}
.g9_6{
fill: none;
stroke: #2AABE1;
stroke-width: 3;
stroke-linecap: butt;
stroke-linejoin: miter;
stroke-miterlimit: 22;
}
.g2_6{
fill: #FFFFFF;
}
.g7_6{
fill: #364E60;
}
.g3_6{
fill: #28A448;
}
.g5_6{
fill: #1FA9E1;
}
]]></style>
</defs>
<path d="M-9,0L-32,0M918,0l23,0M-9,1285l-23,0m950,0l23,0M0,-9L0,-32M0,1294l0,23M909,-9l0,-23m0,1326l0,23" class="g1_6" />
<path d="M107,753l0,33l32,0Z" class="g2_6" />
<path d="M818.8,813.1c0,9.2,-7.4,16.7,-16.6,16.7l-678.6,0c-9.1,0,-16.6,-7.5,-16.6,-16.7l0,-81.6c0,-9.2,7.5,-16.6,16.6,-16.6l678.6,0c9.2,0,16.6,7.4,16.6,16.6Z" class="g3_6" />
<path d="M146.3,734c-12.2,0,-22.1,9.9,-22.1,22.1c0,7,3.3,13.3,8.4,17.3c3.8,2.5,-2.2,9.7,-2.2,9.7c0,0,10,0.2,15.9,-5c12.2,0,22,-9.8,22,-22c0,-12.2,-9.8,-22.1,-22,-22.1Z" class="g2_6" />
<path d="M138.9,757.2c0,1.8,-1.5,3.3,-3.2,3.3c-1.8,0,-3.3,-1.5,-3.3,-3.3c0,-1.8,1.5,-3.2,3.3,-3.2c1.7,0,3.2,1.4,3.2,3.2Z" class="g4_6" />
<path d="M149.5,757.2c0,1.8,-1.4,3.3,-3.2,3.3c-1.8,0,-3.3,-1.5,-3.3,-3.3c0,-1.8,1.5,-3.2,3.3,-3.2c1.8,0,3.2,1.4,3.2,3.2Z" class="g4_6" />
<path d="M160.1,757.2c0,1.8,-1.4,3.3,-3.2,3.3c-1.8,0,-3.2,-1.5,-3.2,-3.3c0,-1.8,1.4,-3.2,3.2,-3.2c1.8,0,3.2,1.4,3.2,3.2Z" class="g4_6" />
<path fill-rule="evenodd" d="M506.3,602.6l51.5,0c3.7,0,6.6,3,6.6,6.6l0,39.7c0,3.7,-2.9,6.6,-6.6,6.6l-51.5,0c-3.6,0,-6.6,-2.9,-6.6,-6.6l0,-39.7c0,-3.6,3,-6.6,6.6,-6.6Z" class="g5_6" />
<path fill-rule="evenodd" d="M586.1,602.6l51.5,0c3.6,0,6.6,3,6.6,6.6l0,39.7c0,3.7,-3,6.6,-6.6,6.6l-51.5,0c-3.6,0,-6.6,-2.9,-6.6,-6.6l0,-39.7c0,-3.6,3,-6.6,6.6,-6.6Z" class="g5_6" />
<path fill-rule="evenodd" d="M665.8,603.4l51.4,0c3.7,0,6.7,3,6.7,6.6l0,39.7c0,3.6,-3,6.6,-6.7,6.6l-51.4,0c-3.7,0,-6.7,-3,-6.7,-6.6l0,-39.7c0,-3.6,3,-6.6,6.7,-6.6Z" class="g5_6" />
<path fill-rule="evenodd" d="M745.8,603.4l51.5,0c3.6,0,6.6,3,6.6,6.6l0,39.7c0,3.6,-3,6.6,-6.6,6.6l-51.5,0c-3.7,0,-6.6,-3,-6.6,-6.6l0,-39.7c0,-3.6,2.9,-6.6,6.6,-6.6Z" class="g5_6" />
<image x="82" y="566" width="64" height="65" xlink:href="img/1.png" />
<image x="89" y="618" width="58" height="59" xlink:href="img/2.png" />
<image x="115" y="542" width="76" height="72" xlink:href="img/3.png" />
<image x="114" y="587" width="84" height="78" xlink:href="img/4.png" />
<path d="M922,-15.7l0,49.4l-537.1,0l-39.5,78.5l-358.6,0l0,-127.9Z" class="g6_6" />
<path d="M339,124l-352,0l0,68l318,0Z" class="g7_6" />
<path d="M102.4,1205.6l0,-177.8l724.8,0l0,156.5l-30.3,21.3Z" class="g8_6" />
<image x="559" y="220" width="287" height="207" xlink:href="img/5.png" />
<path d="M339,852l-351,0l0,67l316,0Z" class="g7_6" />
<path d="M107.1,1262.4l3,-2.8l-3,-2.6c-0.3,-0.3,-0.4,-0.8,-0.2,-1.2c0.2,-0.4,0.7,-0.5,1,-0.2l3.8,3.3c0.2,0.2,0.3,0.4,0.3,0.7c0,0.3,-0.1,0.5,-0.3,0.7l-3.7,3.4c-0.3,0.3,-0.8,0.2,-1,-0.2c-0.2,-0.3,-0.2,-0.9,0.1,-1.1Z" class="g8_6" />
<path d="M83.5,1269.5l13,0" class="g9_6" />
</svg>