<?xml version="1.0" encoding="UTF-8" standalone="no"?>
<!DOCTYPE svg PUBLIC "-//W3C//DTD SVG 1.1//EN"
"http://www.w3.org/Graphics/SVG/1.1/DTD/svg11.dtd">
<svg version="1.1" xmlns="http://www.w3.org/2000/svg" xmlns:xlink="http://www.w3.org/1999/xlink">
<defs>
<style type="text/css"><![CDATA[
.g8_1{
fill: none;
stroke: #1CABE2;
stroke-width: 1;
stroke-linecap: butt;
stroke-linejoin: miter;
}
.g14_1{
fill: #FED069;
}
.g4_1{
fill: none;
stroke: #070605;
stroke-width: 1;
stroke-linecap: butt;
stroke-linejoin: miter;
}
.g12_1{
fill: #FAB886;
}
.g11_1{
fill: #208BCA;
}
.g1_1{
fill: #FFFFFF;
}
.g5_1{
fill: #2AABE1;
}
.g13_1{
fill: #EE2225;
}
.g9_1{
fill: #232526;
}
.g3_1{
fill: #1AADE3;
}
.g2_1{
fill: #070605;
}
.g10_1{
fill: #22AC4F;
}
.g7_1{
fill: #08537C;
}
.g15_1{
fill: none;
stroke: #08537C;
stroke-width: 1;
stroke-linecap: butt;
stroke-linejoin: miter;
}
.g6_1{
fill: #646263;
}
]]></style>
</defs>
<image x="-1" y="0" width="911" height="449" xlink:href="img/1.png" />
<path d="M97.3,1058.7l-7.5,-8.2l-7.3,8.4c-0.8,0.8,-2.2,1,-3.2,0.4c-1.1,-0.6,-1.3,-1.8,-0.6,-2.6l9.2,-10.4c0.4,-0.5,1.1,-0.8,1.8,-0.8c0.8,0,1.5,0.2,1.9,0.7l9.4,10.3c0.7,0.8,0.5,2,-0.5,2.6c-1,0.6,-2.5,0.4,-3.2,-0.4Z" class="g1_1" />
<path d="M682.4,1193.6l0,0.1c0,0.1,0,0.1,0,0.2c0,0.2,0,0.4,-0.1,0.6c0,0.2,-0.1,0.3,-0.2,0.5c-0.1,0.1,-0.2,0.2,-0.4,0.3c-0.2,0.1,-0.4,0.1,-0.6,0.1c-0.4,0,-0.6,-0.1,-0.9,-0.2c-0.2,-0.1,-0.3,-0.2,-0.4,-0.4c-0.1,-0.2,-0.2,-0.4,-0.2,-0.7c0,-0.2,-0.1,-0.5,-0.1,-0.9l0,-0.7c0,-0.3,0.1,-0.6,0.1,-0.9c0,-0.2,0.1,-0.4,0.2,-0.6c0.1,-0.2,0.3,-0.3,0.5,-0.4c0.2,-0.1,0.4,-0.2,0.8,-0.2c0.8,0,1.2,0.4,1.3,1.3c0,0.1,0,0.2,0,0.3l-0.9,0c0,0,0,-0.1,0,-0.1c0,-0.2,0,-0.2,0,-0.3c0,-0.1,-0.1,-0.2,-0.1,-0.2c0,-0.1,0,-0.2,-0.1,-0.2c-0.1,0,-0.1,-0.1,-0.2,-0.1c-0.2,0,-0.3,0.1,-0.4,0.1c0,0.1,-0.1,0.2,-0.2,0.3c0,0.1,0,0.2,0,0.4c0,0.1,-0.1,0.3,-0.1,0.4l0,1.3c0,0.2,0.1,0.3,0.1,0.4c0,0.1,0,0.2,0,0.3c0.1,0.1,0.2,0.2,0.2,0.3c0.1,0,0.2,0.1,0.4,0.1c0.1,0,0.2,-0.1,0.2,-0.1c0.1,-0.1,0.1,-0.2,0.2,-0.2c0,-0.1,0,-0.2,0,-0.3c0,-0.1,0,-0.2,0,-0.4c0,0,0,-0.1,0,-0.1Z" class="g2_1" />
<path d="M684,1193.4l0.8,0l-0.3,-1.4c0,-0.1,0,-0.3,0,-0.5l0,-0.1c-0.1,-0.1,-0.1,-0.2,-0.1,-0.3c0,0.1,0,0.2,0,0.3l0,0.1c-0.1,0.2,-0.1,0.4,-0.1,0.5Zm0.5,-4.2l1,0l-1,0.9l-0.6,0Zm-1.8,6.1l1.1,-4.8l1.2,0l1.1,4.8l-0.9,0l-0.3,-1.2l-1,0l-0.2,1.2Z" class="g2_1" />
<path d="M687.4,1195.3l-0.9,0l0,-4.8l1.4,0l0.5,2.2c0.1,0.4,0.1,0.7,0.2,1.1c0,-0.2,0,-0.5,0.1,-0.6c0,-0.2,0,-0.3,0,-0.5l0.5,-2.2l1.4,0l0,4.8l-0.9,0l0,-1.5c0,-1.1,0,-2,0.1,-2.8l-1,4.3l-0.5,0l-0.9,-4.3l-0.1,0c0.1,0.8,0.1,1.7,0.1,2.8Z" class="g2_1" />
<path d="M692.4,1193.4l0.7,0l-0.2,-1.4c-0.1,-0.1,-0.1,-0.3,-0.1,-0.5l0,-0.1c0,-0.1,0,-0.2,-0.1,-0.3c0,0.1,0,0.2,0,0.3l0,0.1c0,0.2,-0.1,0.4,-0.1,0.5Zm-1.4,1.9l1.2,-4.8l1.2,0l1,4.8l-0.9,0l-0.3,-1.2l-1,0l-0.2,1.2Z" class="g2_1" />
<path d="M696,1163l0,4l7,0l0,15l-20,0l0,-15l6,0l0,-4l-10,0l0,23l27,0l0,-23Z" class="g2_1" />
<path d="M687,1178.9c0,0,1.3,-13.2,-1.5,-23.9l4.2,1.5c2.5,10.7,1.4,22.4,1.4,22.4Z" class="g3_1" />
<path d="M694.9,1178.9c0,0,1.2,-12,-0.9,-20.9l4.2,1.5c1.9,10.3,0.9,19.4,0.9,19.4Z" class="g3_1" />
<path d="M727.1,1177.5l0,3.8c0,1.6,-0.5,2.9,-1.7,4.1c-1.1,1.1,-3,1.7,-5.5,1.7c-1.9,0,-3.6,-0.5,-4.9,-1.6c-1.3,-1.1,-2,-2.5,-2,-4.4l0,-12.2c0,-0.1,0,-0.2,0,-0.4c0.1,-1.5,0.7,-2.9,1.8,-4.2c1,-1.2,2.8,-1.9,5.3,-1.9c2.1,0,3.8,0.6,5.1,1.7c1.3,1,1.9,2.6,1.9,4.7l0,3.3l-5.4,0l0,-3.1c0,-0.5,-0.2,-1,-0.5,-1.3c-0.3,-0.4,-0.7,-0.6,-1.1,-0.7c0,0,-0.1,0,-0.1,0l-0.1,0c-0.4,0,-0.8,0.2,-1.1,0.5c-0.3,0.4,-0.4,1,-0.4,1.8l0,10.8c0,1.1,0.1,1.8,0.5,2.3c0.3,0.5,0.7,0.7,1.1,0.7l0.2,0c0.4,0,0.7,-0.3,1,-0.8c0.4,-0.5,0.5,-1.2,0.5,-2.1l0,-2.7Z" class="g2_1" />
<path d="M735.8,1163.1l4.5,14.2l0,-14.2l5.5,0l0,23.8l-6.2,0l-4.5,-14.3l0,14.3l-5.1,0l0,-23.8Z" class="g2_1" />
<path d="M761,1163l0,4l-7,0l0,5l6,0l0,5l-6,0l0,5l7,0l0,4l-13,0l0,-23Z" class="g2_1" />
<path d="M695.7,1192.5l0.7,0c0.2,0,0.3,0,0.4,-0.1c0.1,-0.1,0.1,-0.3,0.1,-0.5c0,-0.3,0,-0.5,-0.1,-0.5c-0.1,-0.1,-0.2,-0.2,-0.4,-0.2l-0.7,0Zm0,0.7l0,2.1l-0.8,0l0,-4.8l1.6,0c0.2,0,0.4,0.1,0.6,0.1c0.1,0,0.3,0.1,0.4,0.2c0.1,0.1,0.2,0.2,0.3,0.3c0,0.2,0.1,0.4,0.1,0.6c0,0.1,0,0.3,-0.1,0.4c0,0.1,0,0.2,-0.1,0.3c0,0.1,-0.1,0.2,-0.2,0.3c-0.1,0.1,-0.2,0.1,-0.4,0.1c0.3,0.1,0.5,0.2,0.6,0.3c0.1,0.2,0.1,0.3,0.1,0.6c0,0.2,0,0.4,0,0.5c0,0.2,0,0.3,0.1,0.4c0,0.2,0,0.3,0,0.4c0,0.1,0.1,0.2,0.1,0.2l0,0.1l-1,0c0,-0.1,0,-0.3,0,-0.4c0,-0.2,0,-0.4,-0.1,-0.6l0,-0.3c0,-0.1,0,-0.2,0,-0.2c0,-0.1,0,-0.2,0,-0.2c0,-0.1,0,-0.1,-0.1,-0.2c0,0,-0.1,-0.1,-0.2,-0.1c0,0,-0.1,0,-0.3,-0.1c-0.1,0,-0.2,0,-0.4,0Z" class="g2_1" />
<path d="M699.6,1193.4l0.8,0l-0.3,-1.4c0,-0.1,0,-0.3,0,-0.5l-0.1,-0.1c0,-0.1,0,-0.2,0,-0.3c0,0.1,0,0.2,0,0.3l0,0.1c-0.1,0.2,-0.1,0.4,-0.1,0.5Zm-1.3,1.9l1.1,-4.8l1.2,0l1.1,4.8l-1,0l-0.2,-1.2l-1,0l-0.3,1.2Z" class="g2_1" />
<path d="M705.8,1190.5l0.9,0l0,4.8l-1,0l-0.7,-1.7c-0.1,-0.3,-0.2,-0.6,-0.3,-0.9c-0.1,-0.3,-0.2,-0.6,-0.3,-1c0,0.3,0,0.5,0.1,0.7c0,0.2,0,0.4,0,0.7c0,0.2,0,0.5,0,0.7c0,0.2,0,0.4,0,0.6l0,0.9l-0.8,0l0,-4.8l0.9,0l0.7,1.8c0.1,0.2,0.2,0.5,0.3,0.8c0.1,0.3,0.2,0.7,0.3,1c0,-0.5,-0.1,-0.9,-0.1,-1.3c0,-0.5,0,-1,0,-1.3Z" class="g2_1" />
<path d="M708.4,1193.4l0.8,0l-0.3,-1.4c0,-0.1,0,-0.3,0,-0.5l-0.1,-0.1c0,-0.1,0,-0.2,0,-0.3c0,0.1,0,0.2,0,0.3l0,0.1c-0.1,0.2,-0.1,0.4,-0.1,0.5Zm-1.3,1.9l1.1,-4.8l1.2,0l1.1,4.8l-1,0l-0.2,-1.2l-1,0l-0.3,1.2Z" class="g2_1" />
<path d="M713.7,1193.6l0,0.1c0,0.1,0,0.1,0,0.2c0,0.2,0,0.4,-0.1,0.6c0,0.2,-0.1,0.3,-0.2,0.5c-0.1,0.1,-0.2,0.2,-0.4,0.3c-0.2,0.1,-0.4,0.1,-0.6,0.1c-0.4,0,-0.6,-0.1,-0.8,-0.2c-0.3,-0.1,-0.4,-0.2,-0.5,-0.4c-0.1,-0.2,-0.2,-0.4,-0.2,-0.7c0,-0.2,-0.1,-0.5,-0.1,-0.9l0,-0.7c0.1,-0.3,0.1,-0.6,0.1,-0.9c0.1,-0.2,0.1,-0.4,0.2,-0.6c0.1,-0.2,0.3,-0.3,0.5,-0.4c0.2,-0.1,0.5,-0.2,0.8,-0.2c0.8,0,1.2,0.4,1.3,1.3c0,0.1,0,0.2,0,0.3l-0.9,0c0,0,0,-0.1,0,-0.1c0,-0.2,0,-0.2,0,-0.3c0,-0.1,0,-0.2,-0.1,-0.2c0,-0.1,0,-0.2,-0.1,-0.2c0,0,-0.1,-0.1,-0.2,-0.1c-0.1,0,-0.3,0.1,-0.3,0.1c-0.1,0.1,-0.2,0.2,-0.2,0.3c-0.1,0.1,-0.1,0.2,-0.1,0.4c0,0.1,0,0.3,0,0.4l0,1.3c0,0.2,0,0.3,0,0.4c0,0.1,0,0.2,0.1,0.3c0,0.1,0.1,0.2,0.2,0.3c0,0,0.2,0.1,0.3,0.1c0.1,0,0.2,-0.1,0.2,-0.1c0.1,-0.1,0.1,-0.2,0.2,-0.2c0,-0.1,0,-0.2,0,-0.3c0,-0.1,0,-0.2,0,-0.4c0,0,0,-0.1,0,-0.1Z" class="g2_1" />
<path d="M714.5,1195.5l0,-5" class="g4_1" />
<path d="M717,1193.6c0,0.2,0,0.3,0,0.4c0,0.1,0,0.2,0.1,0.3c0,0.1,0.1,0.2,0.2,0.3c0,0,0.2,0.1,0.3,0.1c0.1,0,0.3,-0.1,0.4,-0.1c0,-0.1,0.1,-0.2,0.1,-0.3c0.1,-0.1,0.1,-0.2,0.1,-0.3c0,-0.1,0,-0.3,0,-0.4l0,-1.2c0,-0.2,0,-0.4,0,-0.5c0,-0.1,0,-0.2,-0.1,-0.3c0,-0.2,-0.1,-0.3,-0.1,-0.3c-0.1,-0.1,-0.3,-0.2,-0.4,-0.2c-0.1,0,-0.3,0.1,-0.3,0.1c-0.1,0.1,-0.2,0.2,-0.2,0.3c-0.1,0.1,-0.1,0.2,-0.1,0.4c0,0.1,0,0.3,0,0.4Zm-0.9,-1.1c0,-0.3,0,-0.6,0,-0.9c0.1,-0.2,0.1,-0.4,0.2,-0.6c0.1,-0.2,0.3,-0.3,0.5,-0.4c0.2,-0.1,0.5,-0.2,0.8,-0.2c0.3,0,0.6,0.1,0.8,0.2c0.2,0.1,0.4,0.2,0.5,0.4c0.1,0.2,0.1,0.4,0.2,0.6c0,0.3,0,0.6,0,0.9l0,0.7c0,0.4,0,0.7,0,0.9c0,0.3,-0.1,0.5,-0.2,0.7c-0.1,0.2,-0.3,0.3,-0.5,0.4c-0.2,0.1,-0.5,0.2,-0.8,0.2c-0.4,0,-0.6,-0.1,-0.8,-0.2c-0.3,-0.1,-0.4,-0.2,-0.5,-0.4c-0.1,-0.2,-0.2,-0.4,-0.2,-0.7c0,-0.2,0,-0.5,0,-0.9Z" class="g2_1" />
<path d="M722,1190.5l0.9,0l0,4.8l-0.9,0l-0.7,-1.7c-0.1,-0.3,-0.2,-0.6,-0.3,-0.9c-0.1,-0.3,-0.2,-0.6,-0.3,-1c0,0.3,0,0.5,0,0.7c0,0.2,0,0.4,0,0.7c0.1,0.2,0.1,0.5,0.1,0.7c0,0.2,0,0.4,0,0.6l0,0.9l-0.9,0l0,-4.8l0.9,0l0.7,1.8c0.1,0.2,0.2,0.5,0.3,0.8c0.1,0.3,0.2,0.7,0.3,1l0.1,0c-0.1,-0.5,-0.1,-0.9,-0.1,-1.3c-0.1,-0.5,-0.1,-1,-0.1,-1.3Z" class="g2_1" />
<path d="M724.7,1193.4l0.7,0l-0.2,-1.4c0,-0.1,-0.1,-0.3,-0.1,-0.5l0,-0.1c0,-0.1,0,-0.2,0,-0.3l-0.1,0c0,0.1,0,0.2,0,0.3l0,0.1c0,0.2,0,0.4,-0.1,0.5Zm-1.4,1.9l1.2,-4.8l1.2,0l1,4.8l-0.9,0l-0.2,-1.2l-1.1,0l-0.2,1.2Z" class="g2_1" />
<path d="M727,1195l0,-5l1,0l0,4l1,0l0,1Z" class="g2_1" />
<path d="M731,1195l0,-5l3,0l0,1l-2,0l0,1l2,0l0,1l-2,0l0,1l2,0l0,1Z" class="g2_1" />
<path d="M734,1195l0,-5l1,0l0,4l2,0l0,1Z" class="g2_1" />
<path d="M737,1195l0,-5l3,0l0,1l-2,0l0,1l2,0l0,1l-2,0l0,1l2,0l0,1Z" class="g2_1" />
<path d="M743.9,1193.6l0,0.1c0,0.1,0,0.1,0,0.2c0,0.2,0,0.4,-0.1,0.6c0,0.2,-0.1,0.3,-0.2,0.5c-0.1,0.1,-0.2,0.2,-0.4,0.3c-0.2,0.1,-0.4,0.1,-0.6,0.1c-0.4,0,-0.6,-0.1,-0.8,-0.2c-0.3,-0.1,-0.4,-0.2,-0.5,-0.4c-0.1,-0.2,-0.2,-0.4,-0.2,-0.7c0,-0.2,-0.1,-0.5,-0.1,-0.9l0,-0.7c0.1,-0.3,0.1,-0.6,0.1,-0.9c0.1,-0.2,0.1,-0.4,0.2,-0.6c0.1,-0.2,0.3,-0.3,0.5,-0.4c0.2,-0.1,0.5,-0.2,0.8,-0.2c0.8,0,1.2,0.4,1.3,1.3c0,0.1,0,0.2,0,0.3l-0.9,0c0,0,0,-0.1,0,-0.1c0,-0.2,0,-0.2,0,-0.3c0,-0.1,0,-0.2,-0.1,-0.2c0,-0.1,0,-0.2,-0.1,-0.2c0,0,-0.1,-0.1,-0.2,-0.1c-0.1,0,-0.3,0.1,-0.3,0.1c-0.1,0.1,-0.2,0.2,-0.2,0.3c-0.1,0.1,-0.1,0.2,-0.1,0.4c0,0.1,0,0.3,0,0.4l0,1.3c0,0.2,0,0.3,0,0.4c0,0.1,0,0.2,0.1,0.3c0,0.1,0.1,0.2,0.2,0.3c0,0,0.2,0.1,0.3,0.1c0.1,0,0.2,-0.1,0.2,-0.1c0.1,-0.1,0.1,-0.2,0.2,-0.2c0,-0.1,0,-0.2,0,-0.3c0,-0.1,0,-0.2,0,-0.4c0,0,0,-0.1,0,-0.1Z" class="g2_1" />
<path d="M744,1190l3,0l0,1l-1,0l0,4l-1,0l0,-4l-1,0Z" class="g2_1" />
<path d="M748.6,1193.6c0,0.2,0,0.3,0,0.4c0,0.1,0,0.2,0.1,0.3c0,0.1,0.1,0.2,0.2,0.3c0,0,0.2,0.1,0.3,0.1c0.1,0,0.3,-0.1,0.4,-0.1c0.1,-0.1,0.1,-0.2,0.1,-0.3c0.1,-0.1,0.1,-0.2,0.1,-0.3c0,-0.1,0,-0.3,0,-0.4l0,-1.2c0,-0.2,0,-0.4,0,-0.5c0,-0.1,0,-0.2,-0.1,-0.3c0,-0.2,-0.1,-0.3,-0.1,-0.3c-0.1,-0.1,-0.3,-0.2,-0.4,-0.2c-0.1,0,-0.3,0.1,-0.3,0.1c-0.1,0.1,-0.2,0.2,-0.2,0.3c-0.1,0.1,-0.1,0.2,-0.1,0.4c0,0.1,0,0.3,0,0.4Zm-0.9,-1.1c0,-0.3,0,-0.6,0,-0.9c0.1,-0.2,0.1,-0.4,0.2,-0.6c0.1,-0.2,0.3,-0.3,0.5,-0.4c0.2,-0.1,0.5,-0.2,0.8,-0.2c0.3,0,0.6,0.1,0.8,0.2c0.2,0.1,0.4,0.2,0.5,0.4c0.1,0.2,0.1,0.4,0.2,0.6c0,0.3,0,0.6,0.1,0.9l0,0.7c0,0.4,-0.1,0.7,-0.1,0.9c0,0.3,-0.1,0.5,-0.2,0.7c-0.1,0.2,-0.2,0.3,-0.5,0.4c-0.2,0.1,-0.4,0.2,-0.8,0.2c-0.3,0,-0.6,-0.1,-0.8,-0.2c-0.2,-0.1,-0.4,-0.2,-0.5,-0.4c-0.1,-0.2,-0.2,-0.4,-0.2,-0.7c0,-0.2,0,-0.5,0,-0.9Z" class="g2_1" />
<path d="M752.4,1192.5l0.7,0c0.1,0,0.3,0,0.3,-0.1c0.1,-0.1,0.2,-0.3,0.2,-0.5c0,-0.3,-0.1,-0.5,-0.1,-0.5c-0.1,-0.1,-0.3,-0.2,-0.5,-0.2l-0.6,0Zm0,0.7l0,2.1l-0.9,0l0,-4.8l1.7,0c0.2,0,0.4,0.1,0.5,0.1c0.2,0,0.3,0.1,0.4,0.2c0.2,0.1,0.2,0.2,0.3,0.3c0.1,0.2,0.1,0.4,0.1,0.6c0,0.1,0,0.3,0,0.4c0,0.1,-0.1,0.2,-0.1,0.3c-0.1,0.1,-0.2,0.2,-0.3,0.3c-0.1,0.1,-0.2,0.1,-0.3,0.1c0.2,0.1,0.4,0.2,0.5,0.3c0.1,0.2,0.2,0.3,0.2,0.6c0,0.2,0,0.4,0,0.5c0,0.2,0,0.3,0,0.4c0,0.2,0,0.3,0.1,0.4c0,0.1,0,0.2,0.1,0.2l0,0.1l-1,0c-0.1,-0.1,-0.1,-0.3,-0.1,-0.4c0,-0.2,0,-0.4,0,-0.6l0,-0.3c0,-0.1,0,-0.2,0,-0.2c0,-0.1,0,-0.2,-0.1,-0.2c0,-0.1,0,-0.1,0,-0.2c-0.1,0,-0.1,-0.1,-0.2,-0.1c-0.1,0,-0.2,0,-0.3,-0.1c-0.1,0,-0.3,0,-0.5,0Z" class="g2_1" />
<path d="M756.3,1193.4l0.7,0l-0.2,-1.4c0,-0.1,-0.1,-0.3,-0.1,-0.5l0,-0.1c0,-0.1,0,-0.2,0,-0.3l-0.1,0c0,0.1,0,0.2,0,0.3l0,0.1c0,0.2,0,0.4,-0.1,0.5Zm-1.4,1.9l1.2,-4.8l1.2,0l1,4.8l-0.9,0l-0.2,-1.2l-1.1,0l-0.2,1.2Z" class="g2_1" />
<path d="M758,1195l0,-5l1,0l0,4l2,0l0,1Z" class="g2_1" />
<path fill-rule="evenodd" d="M657,1144l173,0l0,-169l-173,0l0,169Z" class="g1_1" />
<path d="M909.2,1286.5l0,-13l-760.5,0l0,-825.3L14.5,378.3L14.5,0L-1.1,0l0,1274.8l1,0l0,11.7Z" class="g5_1" />
<path d="M305,758.4l7.2,-6.6l-7.3,-6.4c-0.7,-0.6,-0.9,-1.9,-0.4,-2.8c0.5,-0.9,1.6,-1.1,2.3,-0.5l9.2,8.1c0.4,0.3,0.7,0.9,0.7,1.6c0,0.6,-0.3,1.2,-0.7,1.6l-9,8.2c-0.7,0.7,-1.7,0.5,-2.3,-0.4c-0.5,-0.9,-0.4,-2.1,0.3,-2.8Z" class="g6_1" />
<image x="206" y="1155" width="53" height="53" xlink:href="img/2.png" />
<image x="791" y="1150" width="63" height="63" xlink:href="img/3.png" />
<path d="M326.7,1169.8l1.2,0c2,0,2.5,-1.5,2.5,-3.2c0,-1.6,-0.5,-3.2,-2.5,-3.2l-1.2,0Zm-1.8,-7.9l3.1,0c2.5,0,4.2,1.4,4.2,4.7c0,3.3,-1.7,4.7,-4.2,4.7l-3.1,0Z" class="g7_1" />
<path d="M335,1171l-2,0l0,-7l2,0Zm-2,-10l2,0l0,2l-2,0Z" class="g7_1" />
<path d="M336.9,1171.3l0,-6.7l1.5,0l0,1.1c0.4,-0.8,0.9,-1.2,1.9,-1.3l0,1.7c-0.1,0,-0.2,0,-0.3,0c-0.8,0,-1.5,0.9,-1.5,1.1l0,4.1Z" class="g7_1" />
<path d="M345,1167.1c0,-0.9,-0.5,-1.5,-1.3,-1.5c-0.8,0,-1.2,0.6,-1.3,1.5Zm-2.6,1.1c0.1,1.4,0.7,2,1.4,2c0.8,0,1.1,-0.4,1.5,-0.9l1.2,0.8c-0.6,0.9,-1.5,1.4,-2.8,1.4c-1.8,0,-2.9,-1.4,-2.9,-3.6c0,-2.1,1.1,-3.5,3,-3.5c1.7,0,2.7,1.5,2.7,3.1l0,0.7Z" class="g7_1" />
<path d="M351.6,1166.8c-0.3,-0.6,-0.6,-1.1,-1.3,-1.1c-0.9,0,-1.4,0.7,-1.4,2.2c0,1.6,0.5,2.3,1.4,2.3c0.7,0,1.1,-0.5,1.4,-1.1l1.3,0.7c-0.7,1.2,-1.5,1.7,-2.7,1.7c-1.9,0,-3,-1.4,-3,-3.6c0,-2.1,1.1,-3.5,3,-3.5c1.2,0,2.2,0.7,2.6,1.8Z" class="g7_1" />
<path d="M358.1,1166.8c-0.3,-0.6,-0.6,-1.1,-1.3,-1.1c-0.9,0,-1.4,0.7,-1.4,2.2c0,1.6,0.5,2.3,1.4,2.3c0.7,0,1.1,-0.5,1.4,-1.1l1.3,0.7c-0.7,1.2,-1.5,1.7,-2.7,1.7c-1.9,0,-3,-1.4,-3,-3.6c0,-2.1,1.1,-3.5,3,-3.5c1.2,0,2.3,0.7,2.6,1.8Z" class="g7_1" />
<path d="M362,1171l-1,0l0,-7l1,0Zm-1,-10l1,0l0,2l-1,0Z" class="g7_1" />
<path d="M369,1161.8l-1.9,1.9l-1.3,0l1.2,-1.9Zm-2.1,3.9c-0.9,0,-1.3,0.7,-1.3,2.2c0,1.6,0.4,2.3,1.3,2.3c0.9,0,1.3,-0.7,1.3,-2.3c0,-1.5,-0.4,-2.2,-1.3,-2.2Zm0,-1.3c1.8,0,2.9,1.4,2.9,3.5c0,2.2,-1.1,3.6,-2.9,3.6c-1.8,0,-3,-1.4,-3,-3.6c0,-2.1,1.2,-3.5,3,-3.5Z" class="g7_1" />
<path d="M371,1171.3l0,-6.7l1.5,0l0,0.7c0.6,-0.4,1.2,-0.9,2,-0.9c1.4,0,2,0.9,2,2.3l0,4.6l-1.6,0l0,-4.4c0,-0.9,-0.3,-1.2,-0.8,-1.2c-0.7,0,-1.2,0.4,-1.5,0.7l0,4.9Z" class="g7_1" />
<path d="M382.4,1171.3l0,-9.4l1.9,0l3.7,6.4l0,-6.4l1.7,0l0,9.4l-1.7,0l-3.9,-6.7l0,6.7Z" class="g7_1" />
<path d="M394.8,1168.1c-1,0.2,-2.2,0.4,-2.2,1.4c0,0.5,0.3,0.8,0.8,0.8c0.5,0,1.1,-0.5,1.4,-0.8Zm0.2,3.2l-0.1,-0.6c-0.6,0.5,-1.3,0.8,-2.1,0.8c-1.2,0,-1.8,-0.9,-1.8,-1.8c0,-1.6,1.2,-2.4,3.8,-2.7l0,-0.6c0,-0.5,-0.4,-0.8,-0.9,-0.8c-0.8,0,-1.2,0.4,-1.5,0.9l-1.1,-0.8c0.5,-0.8,1.6,-1.3,2.6,-1.3c1.8,0.1,2.6,0.7,2.6,2.8l0,3.2c0,0.3,0,0.6,0.1,0.9Z" class="g7_1" />
<path d="M401.8,1166.8c-0.2,-0.6,-0.5,-1.1,-1.3,-1.1c-0.9,0,-1.3,0.7,-1.3,2.2c0,1.6,0.4,2.3,1.3,2.3c0.7,0,1.2,-0.5,1.5,-1.1l1.2,0.7c-0.7,1.2,-1.5,1.7,-2.7,1.7c-1.8,0,-2.9,-1.4,-2.9,-3.6c0,-2.1,1.1,-3.5,2.9,-3.5c1.3,0,2.3,0.7,2.7,1.8Z" class="g7_1" />
<path d="M406,1171l-2,0l0,-7l2,0Zm-2,-10l2,0l0,2l-2,0Z" class="g7_1" />
<path d="M410.6,1165.7c-0.9,0,-1.3,0.7,-1.3,2.2c0,1.6,0.4,2.3,1.3,2.3c0.9,0,1.3,-0.7,1.3,-2.3c0,-1.5,-0.4,-2.2,-1.3,-2.2Zm0,-1.3c1.8,0,3,1.4,3,3.5c0,2.2,-1.2,3.6,-3,3.6c-1.8,0,-2.9,-1.4,-2.9,-3.6c0,-2.1,1.1,-3.5,2.9,-3.5Z" class="g7_1" />
<path d="M414.7,1171.3l0,-6.7l1.5,0l0,0.7c0.6,-0.4,1.3,-0.9,2.1,-0.9c1.3,0,2,0.9,2,2.3l0,4.6l-1.6,0l0,-4.4c0,-0.9,-0.3,-1.2,-0.9,-1.2c-0.7,0,-1.2,0.4,-1.5,0.7l0,4.9Z" class="g7_1" />
<path d="M425.2,1168.1c-1.1,0.2,-2.2,0.4,-2.2,1.4c0,0.5,0.3,0.8,0.7,0.8c0.5,0,1.2,-0.5,1.5,-0.8Zm0.2,3.2l-0.1,-0.6c-0.7,0.5,-1.3,0.8,-2.1,0.8c-1.3,0,-1.9,-0.9,-1.9,-1.8c0,-1.6,1.3,-2.4,3.9,-2.7l0,-0.6c0,-0.5,-0.4,-0.8,-1,-0.8c-0.7,0,-1.1,0.4,-1.5,0.9l-1,-0.8c0.4,-0.8,1.5,-1.3,2.5,-1.3c1.8,0.1,2.6,0.7,2.6,2.8l0,3.2c0,0.3,0.1,0.6,0.2,0.9Z" class="g7_1" />
<path d="M428,1171l2,0l0,-10l-2,0l0,10Z" class="g7_1" />
<path d="M436,1171l0,-10l6,0l0,2l-4,0l0,2l3,0l0,2l-3,0l0,2l4,0l0,2Z" class="g7_1" />
<path d="M444,1171l1,0l0,-10l-1,0l0,10Z" class="g7_1" />
<path d="M451.3,1167.1c0,-0.9,-0.5,-1.5,-1.3,-1.5c-0.8,0,-1.3,0.6,-1.3,1.5Zm-2.6,1.1c0,1.4,0.6,2,1.4,2c0.7,0,1.1,-0.4,1.5,-0.9l1.2,0.8c-0.7,0.9,-1.6,1.4,-2.9,1.4c-1.7,0,-2.8,-1.4,-2.8,-3.6c0,-2.1,1.1,-3.5,2.9,-3.5c1.8,0,2.8,1.5,2.8,3.1l0,0.7Z" class="g7_1" />
<path d="M457.8,1166.8c-0.2,-0.6,-0.5,-1.1,-1.3,-1.1c-0.9,0,-1.3,0.7,-1.3,2.2c0,1.6,0.4,2.3,1.4,2.3c0.7,0,1.1,-0.5,1.4,-1.1l1.2,0.7c-0.6,1.2,-1.4,1.7,-2.7,1.7c-1.8,0,-2.9,-1.4,-2.9,-3.6c0,-2.1,1.1,-3.5,2.9,-3.5c1.3,0,2.3,0.7,2.7,1.8Z" class="g7_1" />
<path d="M460.9,1164.6l0,-2.3l1.6,0l0,2.3l1.3,0l0,1.3l-1.3,0l0,3.8c0,0.4,0.2,0.5,0.6,0.5c0.2,0,0.5,-0.1,0.7,-0.2l0,1.4c-0.4,0,-0.8,0.1,-1.3,0.1c-1.2,0,-1.6,-0.6,-1.6,-1.6l0,-4l-1,0l0,-1.3Z" class="g7_1" />
<path d="M467.4,1165.7c-0.9,0,-1.4,0.7,-1.4,2.2c0,1.6,0.5,2.3,1.4,2.3c0.9,0,1.3,-0.7,1.3,-2.3c0,-1.5,-0.4,-2.2,-1.3,-2.2Zm0,-1.3c1.8,0,2.9,1.4,2.9,3.5c0,2.2,-1.1,3.6,-2.9,3.6c-1.9,0,-3,-1.4,-3,-3.6c0,-2.1,1.1,-3.5,3,-3.5Z" class="g7_1" />
<path d="M471.3,1171.3l0,-6.7l1.5,0l0,1.1c0.4,-0.8,1,-1.2,1.9,-1.3l0,1.7c0,0,-0.1,0,-0.2,0c-0.8,0,-1.6,0.9,-1.6,1.1l0,4.1Z" class="g7_1" />
<path d="M479.1,1168.1c-1.1,0.2,-2.3,0.4,-2.3,1.4c0,0.5,0.3,0.8,0.8,0.8c0.5,0,1.1,-0.5,1.5,-0.8Zm0.1,3.2l-0.1,-0.6c-0.6,0.5,-1.2,0.8,-2.1,0.8c-1.2,0,-1.8,-0.9,-1.8,-1.8c0,-1.6,1.2,-2.4,3.9,-2.7l0,-0.6c0,-0.5,-0.5,-0.8,-1,-0.8c-0.8,0,-1.2,0.4,-1.5,0.9l-1.1,-0.8c0.5,-0.8,1.6,-1.3,2.6,-1.3c1.8,0.1,2.6,0.7,2.6,2.8l0,3.2c0,0.3,0,0.6,0.1,0.9Z" class="g7_1" />
<path d="M482,1171l2,0l0,-10l-2,0l0,10Z" class="g7_1" />
<path d="M324.5,1175.5l163,0" class="g8_1" />
<path d="M297.5,1188.8l-0.1,0.5l0.5,1.1l1.5,1.9l1.9,1.3l2.2,1.2l1.3,0.1l1.6,-0.1l1.6,-0.1l2.2,-1.3l1.4,-1.2l0.4,-0.3l0.8,-0.9l0.6,-1l0.2,-0.7l-2.8,-1l-1.3,-0.6l-0.4,0l-0.4,0.5l-0.6,0.2l-0.4,0.3l-1,0.4l-1,0.1l-0.9,0.2l-0.4,-0.1l-0.5,-0.3l-0.6,0l-0.6,-0.4l-0.4,-0.1l-0.1,-0.4l-0.6,-0.1l-0.1,-0.2Z" class="g1_1" />
<path d="M301.7,1165.3c0,0.1,-0.1,0.2,-0.2,0.2c-0.1,0,-0.2,0,-0.4,0c-0.1,0,-0.2,0.1,-0.3,0.2c-0.1,0,-0.2,0.1,-0.3,0.2c-0.2,0.1,-0.4,0.1,-0.7,0.1c0.2,0.1,0.4,0.2,0.6,0.2c0.2,0,0.3,-0.1,0.6,-0.1c0.1,-0.1,0.3,-0.1,0.4,-0.1c0.2,0,0.3,0,0.5,0.1l0.1,0l-0.1,0c-0.2,0,-1.5,0.8,-1.5,0.8c0.2,0,-0.2,0.2,-0.2,0.3c-0.1,-0.1,-0.1,-0.2,-0.1,-0.2c0,-0.1,-0.1,-0.2,-0.1,-0.2c-0.2,0.3,-0.5,0.4,-0.6,0.6c-0.2,0.2,-0.4,0.4,-0.5,0.8c0,-0.1,-0.1,-0.2,-0.1,-0.3c0,0,-0.1,-0.1,-0.1,-0.1c-0.2,0.3,-0.4,0.5,-0.6,0.7c-0.1,0.2,-0.3,0.4,-0.3,0.7c-0.1,-0.1,-0.2,-0.3,-0.3,-0.4c-0.2,0.5,-0.4,0.7,-0.6,1c-0.1,0.3,-0.2,0.6,-0.1,1.1c0,0.2,0,0.6,0,0.7c0,-0.2,-0.1,-0.5,-0.2,-0.6c-0.1,-0.2,-0.2,-0.4,-0.4,-0.4c-0.1,0.3,-0.2,0.5,-0.3,0.7c-0.1,0.2,-0.2,0.4,-0.2,0.7c-0.1,-0.1,-0.3,-0.2,-0.4,-0.2c0,0.5,-0.2,0.8,-0.3,1.1c-0.1,0.2,-0.1,0.6,0.2,1c0.2,0.2,-0.4,-0.4,-0.6,-0.4c0,0.3,-0.3,1.2,-0.3,1.4c-0.1,0,-0.3,-0.1,-0.3,-0.1c0,0.4,0,0.8,-0.1,1.2c-0.1,0.5,0.4,1,0.2,0.8c-0.2,-0.3,-0.3,-0.3,-0.5,-0.3c0.1,0.5,0,0.7,-0.1,0.8c0,0.2,0,0.6,0.1,0.9c-0.1,-0.1,-0.5,-0.1,-0.5,-0.1c0.1,0.4,0.1,0.6,0.1,1c0.1,0.3,0.2,0.6,0.6,0.8c0.3,0.2,0.3,0.4,0,0.1c-0.2,-0.2,-0.5,-0.4,-0.8,-0.3c0.2,0.3,0.2,0.7,0.2,1c0.1,0.3,0.1,0.6,0.4,0.8c-0.2,-0.1,-0.7,-0.2,-0.8,-0.2c0.2,0.5,0.3,0.8,0.4,1.1c0,0.3,0.2,0.6,0.6,0.9c-0.1,-0.1,-0.6,-0.1,-0.7,-0.1c0.1,0.3,0.3,1.2,0.4,1.4c-0.1,0,-0.3,0.1,-0.4,0.1c0.3,0.4,0.7,1.4,1,1.6c-0.1,0,-0.3,0.1,-0.4,0.1c0.2,0.3,0.4,1.1,0.6,1.3c-0.1,0,-0.2,0.1,-0.3,0.1c0.3,0.3,0.4,0.5,0.6,0.8c0.1,0.2,0.3,0.4,0.5,0.6c-0.1,0,-0.3,0,-0.3,0.1c0.2,0.2,0.7,0.9,0.9,1.1c-0.1,0,-0.4,0.1,-0.4,0.2c0.3,0.2,0.5,0.4,0.6,0.6c0.2,0.2,0.4,0.4,0.7,0.5c-0.1,0,-0.4,0.1,-0.4,0.1c0.4,0.3,0.4,0.5,0.5,0.7c0,0.2,0.1,0.3,0.5,0.4c-0.1,0,-0.2,0.1,-0.2,0.1c0.4,0.2,0.6,0.6,1,0.9c0.3,0.3,0.8,0.5,1.7,0.5c0.4,0.5,1.2,1,2,1.4c0.9,0.4,1.8,0.7,2.6,0.8c-0.4,-0.1,-0.6,-0.4,-0.8,-0.6c-1.9,-0.5,-3,-1.5,-3.2,-1.8c-0.1,-0.1,-0.2,-0.9,-0.3,-1.1c0.6,0.5,1.2,0.9,1.8,1.2c0.6,0.3,1.2,0.6,1.8,0.7c0.1,0,0.2,-0.1,0.2,-0.1c0.1,-0.1,0.4,-0.3,0.8,-0.3c-1.7,-0.2,-3.2,-1,-4.3,-2c-1.4,-1.1,-2.3,-2.4,-2.8,-3.3c-0.1,-0.1,0.6,-0.3,1.3,-0.6c0.7,-0.2,2.6,-0.8,2.6,-0.8c0,0.2,0.1,0.3,0.3,0.4c0.1,0,0.2,0,0.2,-0.1c0.1,0.1,0.1,0.2,0.1,0.3c0,0.1,0,0.1,0.2,0.3c0.2,0.1,0.3,0.1,0.4,0.1c0.1,0,0.2,0,0.2,-0.1c-0.1,0.1,0.1,0.3,0.3,0.4c0.2,0.1,0.5,0.1,0.7,0c0,0.1,0.1,0.2,0.2,0.2c0,0.1,0.2,0.1,0.2,0.1c0.1,0,0.2,0.1,0.4,0.1c0.1,0,0.3,0,0.4,-0.1l0,2.4c0,0.4,0.3,0.6,0.4,0.6c0.8,0.1,0.7,-0.4,0.7,-0.6c0,-0.5,0.1,-2.4,0.1,-2.4c0.3,-0.1,0.4,-0.1,0.5,-0.2c0,0,0.1,-0.1,0.2,-0.1c0.1,0,0.3,0,0.4,0c0.1,-0.1,0.1,-0.2,0.3,-0.3c0.1,0,0.3,0,0.4,-0.1c0.2,-0.1,0.3,-0.2,0.3,-0.3c0.2,0.1,0.3,0,0.5,-0.1c0.2,-0.1,0.4,-0.3,0.5,-0.6c0.3,0.1,3.6,1.6,4.1,1.8c-0.3,0.4,-1.1,1.7,-2.4,2.8c-1.1,1,-2.6,1.9,-4.4,2.2c0.4,0.1,0.8,0.1,0.9,0.4c0.6,-0.1,1.2,-0.4,1.8,-0.7c0.5,-0.2,1.1,-0.6,1.6,-1.1l0,0.1c0,0.2,-0.1,0.9,-0.2,1c-0.2,0.4,-0.8,0.7,-1.4,1c-0.6,0.3,-1.2,0.5,-1.7,0.6c-0.2,0.5,-0.8,0.7,-0.9,0.7c0.5,0,1.5,-0.3,2.5,-0.8c0.9,-0.4,1.9,-0.9,2.4,-1.4c0.6,0.1,1,-0.1,1.3,-0.3c0.4,-0.3,0.7,-0.6,1.1,-0.9c0,0,-0.2,-0.1,-0.2,-0.1c0.2,-0.1,0.3,-0.3,0.5,-0.5c0.2,-0.2,0.4,-0.4,0.7,-0.6c-0.1,0,-0.3,-0.1,-0.4,-0.1c0.4,-0.1,0.4,-0.2,0.5,-0.4c0,-0.2,0.1,-0.4,0.4,-0.6c0,-0.1,0,-0.1,0,-0.1c0,0,-0.1,0,-0.1,0c0.3,-0.2,0.4,-0.4,0.5,-0.6c0.1,-0.2,0.2,-0.5,0.4,-0.7c0,0,-0.3,-0.1,-0.4,-0.1c0.4,-0.1,0.6,-0.3,0.7,-0.6c0.2,-0.2,0.3,-0.5,0.6,-0.8c-0.1,0,-0.3,0,-0.4,0c0.2,-0.2,0.3,-0.4,0.4,-0.6c0.1,-0.3,0.1,-0.6,0.3,-0.9c-0.1,0,-0.4,0,-0.5,0c0.4,-0.1,0.5,-0.4,0.6,-0.7c0.1,-0.3,0.2,-0.6,0.4,-0.9c0,0,-0.2,-0.1,-0.3,-0.1c0.3,-0.3,0.3,-0.4,0.2,-0.6c-0.1,-0.1,-0.1,-0.4,0.1,-1c-0.1,0,-0.4,0,-0.5,0.1c0.3,-0.3,0.4,-0.6,0.5,-0.9c0.1,-0.3,0,-0.6,0.2,-1c-0.2,0,-1,0.5,-0.9,0.4c0.5,-0.3,0.6,-0.6,0.7,-0.9c0,-0.4,-0.1,-0.8,0,-1.2c-0.2,0,-0.4,0.1,-0.7,0.4c-0.3,0.2,-0.2,0,0,-0.1c0.4,-0.2,0.6,-0.5,0.6,-0.9c0.1,-0.3,0.1,-0.7,0.2,-1.1c0,0,-0.3,0,-0.4,0.1c0.1,-0.3,-0.2,-1.3,-0.1,-1.6c-0.2,0,-0.5,0.2,-0.7,0.4c-0.2,0.3,-0.2,0.1,0,0c0.4,-0.5,0.4,-0.8,0.3,-1.2c0,-0.3,-0.1,-0.6,-0.1,-1.1c0,0,-0.2,0.1,-0.2,0.1c-0.1,-0.2,-0.4,-1,-0.5,-1.3c-0.2,0.1,-0.7,0.6,-0.5,0.5c0.2,-0.5,0.2,-0.8,0.1,-1.1c0,-0.3,-0.2,-0.6,-0.2,-1.1c-0.1,0,-0.3,0.2,-0.4,0.2c0,-0.2,-0.1,-0.4,-0.1,-0.6c-0.2,-0.3,-0.3,-0.5,-0.4,-0.8c-0.1,0,-0.3,0.2,-0.5,0.3c-0.1,0.2,-0.2,0.3,-0.1,0.5c0,0,0,-0.5,0.1,-0.6c0,-0.5,-0.1,-0.8,-0.3,-1.1c-0.1,-0.2,-0.3,-0.5,-0.5,-0.9c-0.1,0,-0.3,0.5,-0.4,0.6c0,-0.4,-0.2,-0.6,-0.3,-0.8c-0.1,-0.2,-0.3,-0.5,-0.5,-0.8c-0.1,0.1,-0.2,0.3,-0.3,0.6c0,0.3,-0.1,0.3,-0.1,0.6c0,-0.1,0.1,0.1,0,0c0,-0.2,0,-0.3,0.1,-0.5c0,-0.5,-0.2,-0.8,-0.4,-1c-0.1,-0.2,-0.3,-0.3,-0.5,-0.4l0.2,0c0,0,-0.2,-0.1,-0.4,-0.2c-0.1,-0.1,-0.2,-0.2,-0.2,-0.1c-0.5,-0.3,-1,-0.7,-1.1,-0.7c-0.1,0,0.5,-0.1,0.5,-0.1c-0.1,0,-0.5,-0.5,-0.5,-0.6l2.3,-0.4c-0.1,0,-2.3,-0.4,-2.3,-0.4c0,0,0.1,0,0.1,-0.1c0.1,0,0.2,-0.1,0.4,-0.1c0.1,0,0.2,0,0.3,0c0.1,0,0.2,-0.1,0.3,-0.2c0.1,-0.1,0.2,-0.2,0.3,-0.3c0.2,0,0.4,-0.1,0.7,-0.1c-0.2,-0.1,-0.4,-0.2,-0.6,-0.2c-0.2,0,-0.3,0.1,-0.5,0.2c-0.2,0.1,-0.3,0.1,-0.5,0.1c-0.2,0,-0.4,-0.1,-0.6,0c0,0,1.9,-1.2,1.9,-1.2l-2.3,0.5c0.2,-0.3,0.4,-0.4,0.6,-0.5c0.1,-0.1,0.3,-0.2,0.4,-0.5c0.1,-0.1,0.1,-0.2,0.3,-0.3c0.1,-0.1,0.2,-0.2,0.4,-0.3c-0.2,0,-0.4,0,-0.6,0.1c-0.2,0.1,-0.4,0.3,-0.6,0.5c-0.1,0,-0.3,0.1,-0.5,0.2c-0.1,0,-0.3,0.1,-0.4,0.1l1.3,-1.9l-1.9,1.3c0.1,-0.2,0.2,-0.4,0.3,-0.5c0.1,-0.1,0.2,-0.2,0.3,-0.5c0,-0.1,0,-0.3,0,-0.4c0.1,-0.2,0.2,-0.4,0.4,-0.6c-0.3,0,-0.5,0.2,-0.6,0.3c-0.1,0.2,-0.2,0.4,-0.3,0.7c-0.1,0.1,-0.2,0.2,-0.4,0.3c-0.1,0.1,-0.3,0.2,-0.4,0.4c0,0,0.6,-2.3,0.6,-2.3l-1.4,2c0,0,0,-0.1,0,-0.2c0.1,0,0.1,-0.2,0.1,-0.3c0.1,-0.2,0.1,-0.3,0.1,-0.4l0,-0.3c0,-0.1,-0.1,-0.3,-0.1,-0.5c0,-0.2,0,-0.4,0.1,-0.6c-0.3,0.2,-0.4,0.4,-0.5,0.7c0,0.2,0,0.5,-0.1,0.7c0,0.1,0,0.2,-0.1,0.4c0,0.1,-0.1,0.3,-0.1,0.4l-0.4,-2.4l-0.5,2.4c-0.1,-0.2,-0.1,-0.4,-0.1,-0.6c0,-0.1,0,-0.3,-0.1,-0.4c-0.1,-0.2,-0.2,-0.3,-0.3,-0.5c-0.1,-0.1,-0.2,-0.3,-0.2,-0.7c-0.1,0.1,-0.2,0.3,-0.2,0.4c0,0.2,0,0.5,0.2,1c0.1,0,0.1,0.1,0,0.3l0,0.6l-1.2,-2l0.5,2.3c-0.1,0,-0.2,-0.2,-0.3,-0.4c-0.1,-0.1,-0.2,-0.3,-0.3,-0.4c-0.2,-0.2,-0.3,-0.2,-0.5,-0.3c-0.2,-0.1,-0.4,-0.3,-0.5,-0.6c0,0.2,0,0.4,0.1,0.6c0.1,0.2,0.2,0.4,0.5,0.6c0,0.1,0.1,0.3,0.2,0.5c0.1,0.1,0.1,0.3,0.2,0.4l-2,-1.4c0,0,1.4,2,1.4,2c-0.2,0,-0.3,-0.2,-0.5,-0.3c-0.2,-0.2,-0.4,-0.3,-0.8,-0.3c-0.3,0,-0.5,-0.1,-0.7,-0.2c-0.1,-0.1,-0.1,-0.2,-0.1,-0.2c0.1,0.5,0.3,0.6,0.6,0.7c0.2,0.1,0.4,0.2,0.5,0.4c0.1,0,0.2,0.1,0.3,0.2c0.1,0.1,0.2,0.2,0.2,0.3l-2.2,-0.5l2,1.2c-0.2,0,-0.4,0,-0.6,-0.1c-0.2,0,-0.5,-0.1,-0.7,0c-0.3,0.1,-0.6,0.1,-0.8,0.1c-0.1,0,-0.2,-0.1,-0.3,-0.1c0.2,0.3,0.4,0.4,0.6,0.4c0.2,0,0.4,0,0.6,0c0.1,0,0.3,0.1,0.5,0.1c0.2,0.1,0.4,0.2,0.5,0.3l-2.3,0.4Z" class="g9_1" />
<path d="M305.1,1196c0,0,-0.1,-0.1,-0.1,-0.1c0,0,0.1,0.1,0.1,0.1Z" class="g9_1" />
<path d="M306.3,1197.4c0,-0.1,0.1,-0.1,0.1,-0.1c0,0,-0.1,0.2,-0.1,0.2c0,0,0,-0.1,0,-0.1Z" class="g9_1" />
<path d="M306,1197.9c0,0,0.1,-0.1,0.1,-0.1c0,0.1,-0.1,0.1,-0.2,0.1l0.1,0Z" class="g9_1" />
<path d="M316.9,1181.2c0.1,-0.2,0.2,-0.5,0.4,-0.7c0.2,-0.3,0.3,-0.5,0.5,-0.5c-0.1,0.3,-0.1,0.6,-0.1,0.7c0,0.2,-0.1,0.4,-0.3,0.7c-0.2,0.1,-0.3,0.2,-0.3,0.3c-0.1,0,-0.1,0.1,-0.1,0.1c0,-0.1,0,-0.2,0.1,-0.3c0,-0.1,0,-0.2,0.1,-0.3c-0.1,0.1,-0.1,0.2,-0.2,0.2c-0.1,0.1,-0.1,0.2,-0.2,0.3c0,0,-0.1,0,-0.1,0c-0.1,-0.1,-0.2,-0.1,-0.3,-0.3c-0.1,-0.1,-0.1,-0.3,-0.2,-0.4c0,-0.2,0,-0.3,0,-0.6c0.1,0.2,0.3,0.3,0.4,0.4c0.2,0.2,0.3,0.3,0.3,0.4Zm0.8,-2.8c-0.1,0.3,-0.1,0.4,-0.1,0.6c0,0.2,-0.1,0.4,-0.3,0.6c-0.2,0.1,-0.3,0.2,-0.3,0.2c-0.1,0.1,-0.1,0.2,-0.1,0.2c0,-0.1,0,-0.2,0,-0.3c0.1,-0.1,0.1,-0.2,0.2,-0.2c-0.1,0,-0.2,0.1,-0.2,0.1c-0.1,0.1,-0.1,0.2,-0.2,0.3c0,-0.1,-0.1,-0.1,-0.1,-0.1c-0.1,0,-0.2,-0.1,-0.3,-0.2c-0.1,-0.2,-0.2,-0.3,-0.2,-0.5c0,-0.1,0,-0.3,0,-0.5c0.1,0.2,0.3,0.3,0.4,0.4c0.2,0.2,0.3,0.3,0.3,0.4c0.1,-0.2,0.2,-0.5,0.4,-0.7c0.2,-0.2,0.4,-0.3,0.5,-0.3Zm-1,-0.3c0.1,-0.2,0.2,-0.5,0.3,-0.8c0.1,-0.2,0.3,-0.4,0.4,-0.4c-0.1,0.3,0,0.4,0,0.6c0,0.2,0,0.4,-0.2,0.7c-0.1,0.1,-0.2,0.2,-0.2,0.3c-0.1,0,-0.1,0.1,-0.1,0.1c0,-0.1,0,-0.2,0,-0.2c0,-0.1,0.1,-0.2,0.1,-0.3c-0.1,0,-0.1,0.1,-0.2,0.2c0,0.1,0.2,-0.5,0.2,-0.4c-0.1,0,-0.4,0.6,-0.4,0.6c-0.1,0,-0.2,-0.1,-0.3,-0.2c-0.2,-0.1,-0.3,-0.3,-0.3,-0.4c-0.1,-0.2,-0.1,-0.3,-0.2,-0.5c0.2,0.1,0.4,0.2,0.6,0.3c0.1,0.1,0.3,0.3,0.3,0.4Zm-0.9,8.5c-0.1,-0.2,-0.2,-0.4,-0.3,-0.5c0,-0.1,0,-0.1,0,-0.2c0.1,0,0.1,-0.1,0.1,-0.1c0.1,0.4,0.2,0.5,0.3,0.7c0.1,0.2,0.1,0.3,0.1,0.6l-0.1,0c0.1,-0.2,0,-0.4,-0.1,-0.5Zm-12.4,-14.2c0.2,0.4,0.6,0.5,0.6,0.5c-1,1,-1.4,1.9,-1.5,2c0.1,-0.1,-0.7,0.8,-0.2,2.1c0.2,0.7,1.3,0.8,1.6,0.8c0.8,0,1.3,0,1.3,0l0,2.8l-9.6,0c0,0,0.2,-11,8.8,-12.8c0.7,-0.2,3.6,-0.4,5.9,1.4c0.1,0.1,0.1,0.1,0.1,0.2l0.1,0c5.1,3.4,5.3,11.2,5.3,11.2l-9.6,0l0,-2.8c0,0,1,0.2,1.8,0.1c0.8,0,1.2,0,1.4,-0.6c0.2,-0.5,0.4,-0.9,0.1,-1.4c0,-0.1,-0.4,-0.4,-0.7,-1.3c-0.4,-1.1,0.2,-3.8,-3.1,-4.2c-0.5,0.1,-0.7,0.1,-1,0.2c-1.2,0.5,-1.5,1.3,-1.3,1.8Zm-8.1,14.5l0,-0.1c-0.1,-0.2,0,-0.3,0,-0.5c0.1,-0.1,0.2,-0.3,0.3,-0.7c0,0.1,0,0.1,0.1,0.2c0,0,0,0.1,0,0.1c-0.1,0.2,-0.2,0.3,-0.3,0.5c-0.1,0.2,-0.1,0.3,-0.1,0.5Zm0.3,-4.3c-0.1,-0.8,-0.1,-1.5,-0.1,-1.5c0,0,9.6,0,9.6,0c0,0,0.1,3,0.1,3c-0.2,0,-0.6,-0.1,-1,-0.1c-0.3,0,-0.6,0,-0.9,0.1c-0.9,0.1,-1.2,0.4,-2,0.7c-0.9,0.3,-2.2,0.5,-5.3,0.5c-0.2,-0.9,-0.4,-1.9,-0.4,-2.7Zm19.2,-8.4c0.1,0,0.1,0,0.2,0.1c0,0,0.1,0,0.1,0c0,0,-0.1,0,-0.1,0c-0.1,0,-0.1,0,-0.1,0c0,-0.1,-0.1,-0.1,-0.1,-0.1Zm-8.6,6.9l9.5,0c0,0.2,0,1,-0.1,1.9c-0.1,0.9,-0.3,2,-0.6,2.8c-0.9,0,-1.9,-0.2,-2.7,-0.5c-0.9,-0.2,-1.7,-0.5,-2.5,-0.5c-0.5,-0.1,-1.1,-0.4,-1.7,-0.7c-0.6,-0.2,-1.2,-0.5,-1.9,-0.4Zm10.7,-5.9c0,0.3,0,0.5,0,0.7c0.1,0.2,0,0.4,-0.2,0.6c-0.1,0.1,-0.2,0.2,-0.2,0.3c0,0,0,0.1,-0.1,0.2l0,-0.3c0,-0.1,0.1,-0.2,0.1,-0.3c0,0,-0.1,0.1,-0.1,0.2c0,0.1,-0.1,0.1,-0.1,0.2c-0.1,0,-0.1,0,-0.2,0c-0.1,0,-0.2,-0.1,-0.3,-0.2c-0.2,-0.2,-0.3,-0.3,-0.3,-0.4c-0.1,-0.2,-0.1,-0.3,-0.2,-0.5c0.2,0.1,0.4,0.2,0.6,0.3c0.2,0.2,0.3,0.2,0.4,0.4c0,-0.2,0.1,-0.5,0.2,-0.8c0.1,-0.2,0.3,-0.4,0.4,-0.4Zm-1,-0.1c0,-0.2,0.1,-0.5,0.1,-0.7c0.1,-0.3,0.2,-0.4,0.3,-0.5c0.1,0.3,0.1,0.5,0.2,0.7c0.1,0.2,0.1,0.4,-0.1,0.6c-0.1,0.2,-0.1,0.2,-0.1,0.3c-0.1,0.1,-0.1,0.1,-0.1,0.2c0,-0.1,0,-0.2,0,-0.3c0,-0.1,0,-0.2,0,-0.3c0,0.1,-0.1,0.2,-0.1,0.2c0,0.1,-0.1,0.2,-0.1,0.3c0,0,-0.1,0,-0.2,0c0,0,-0.1,-0.1,-0.3,-0.2c-0.2,-0.1,-0.3,-0.2,-0.4,-0.4c0,-0.1,-0.1,-0.2,-0.2,-0.4c0.2,0.1,0.4,0.2,0.6,0.3c0.2,0.1,0.4,0.1,0.4,0.2Zm-0.4,-2.9c0,0.3,0.1,0.5,0.2,0.7c0,0.2,0,0.4,-0.1,0.7c-0.1,0.1,-0.2,0.2,-0.2,0.2c0,0.1,0,0.2,0,0.2c-0.1,-0.1,-0.1,-0.2,-0.1,-0.3c0,-0.1,0,-0.2,0,-0.3c0,0.1,0,0.2,-0.1,0.3c0,0,0,0.1,0,0.2l-0.2,0c-0.1,0,-0.2,-0.1,-0.3,-0.2c-0.3,-0.1,-0.4,-0.2,-0.4,-0.4c-0.1,-0.1,-0.1,-0.3,-0.3,-0.5c0.2,0.1,0.5,0.2,0.7,0.3c0.2,0.1,0.3,0.2,0.4,0.3c0,-0.2,0,-0.5,0.1,-0.7c0.1,-0.2,0.2,-0.4,0.3,-0.5Zm-0.9,-0.6c0.1,-0.2,0.3,0.2,0.4,0.2c0.1,0.3,-0.1,-0.3,0,-0.1c0.1,0.1,0.2,0.3,0.1,0.6c-0.1,0.2,-0.2,0.2,-0.2,0.3c0,0.1,0,0.1,0,0.2c0,-0.1,-0.1,-0.2,-0.1,-0.3c0,-0.1,0,-0.2,0,-0.3c0,0.1,-0.1,0.2,-0.1,0.2c0,0.1,0,0.2,0,0.3l-0.2,0c-0.1,0,-0.2,0,-0.4,-0.1c-0.2,-0.1,-0.3,-0.2,-0.4,-0.4c-0.1,-0.1,-0.2,-0.3,-0.3,-0.4c0.2,0.1,0.4,0.1,0.6,0.2c0.2,0.1,0.4,0.2,0.5,0.3c0,-0.3,0.1,-0.4,0.1,-0.7Zm-1,-0.9c-0.1,-0.2,-0.1,-0.5,-0.1,-0.8c0,-0.2,0,-0.5,0.1,-0.5c0.1,0.2,0.2,0.4,0.3,0.5c0.1,0.2,0.1,0.4,0.1,0.7c0,0.2,0,0.3,0,0.4c0,0.1,0,0.1,0,0.2c-0.1,-0.1,-0.1,-0.2,-0.1,-0.3c-0.1,-0.1,-0.1,-0.2,-0.1,-0.3l0,0.3c0,0.1,0,0.2,0,0.2c0,0.1,-0.1,0.1,-0.1,0.1c-0.1,0,-0.2,0.1,-0.4,0c-0.2,0,-0.3,-0.1,-0.4,-0.3c-0.1,-0.1,-0.2,-0.2,-0.4,-0.4c0.2,0.1,0.5,0.1,0.6,0.1c0.2,0,0.4,0,0.5,0.1Zm-1.5,-1.1c0.2,0,0.4,0,0.5,0c-0.1,-0.1,-0.2,-0.4,-0.2,-0.7c0,-0.2,0,-0.5,0.1,-0.6c0.1,0.3,0.3,0.4,0.4,0.5c0.1,0.2,0.1,0.3,0.1,0.7c0,0.2,0,0.3,0,0.4c0,0,0,0.1,0,0.2c0,-0.1,0,-0.2,-0.1,-0.3c0,-0.1,-0.1,-0.2,-0.1,-0.3l0,0.3c0,0.1,0,0.2,0.1,0.2c-0.1,0.1,-0.1,0.1,-0.2,0.1c0,0.1,-0.1,0.1,-0.3,0.1c-0.2,0,-0.4,-0.1,-0.5,-0.2c-0.1,-0.1,-0.2,-0.2,-0.4,-0.4c0.2,0,0.4,0,0.6,0Zm-1.2,-1.2c0.2,0,0.4,0,0.5,0.1c-0.2,-0.2,-0.3,-0.5,-0.3,-0.8c-0.1,-0.2,-0.1,-0.5,0,-0.6c0.1,0.3,0.3,0.4,0.5,0.5c0.1,0.2,0.2,0.4,0.2,0.7c0,0.2,0,0.3,0,0.4c0,0,0,0.1,0,0.1c0,0,-0.1,-0.1,-0.1,-0.2c-0.1,-0.1,-0.1,-0.2,-0.1,-0.3c0,0.1,0,0.2,0,0.3c0,0.1,0,0.2,0.1,0.2c-0.1,0.1,-0.1,0.1,-0.2,0.1c0,0.1,-0.1,0.1,-0.3,0.1c-0.3,0,-0.4,-0.1,-0.5,-0.2c-0.1,-0.1,-0.2,-0.2,-0.4,-0.3c0.2,0,0.4,0,0.6,-0.1Zm-1.3,-2c0.2,0.2,0.4,0.3,0.6,0.4c0.2,0.1,0.3,0.2,0.4,0.5l0,0.4c0,-0.1,-0.1,-0.2,-0.1,-0.2c-0.1,-0.1,-0.1,-0.2,-0.1,-0.2c0,0.2,0,0.3,0,0.4c0.1,0.1,0.1,0.1,0.1,0.2c0,0,0,0.1,0,0.1c-0.1,0.1,-0.2,0.1,-0.4,0.2c-0.3,0,-0.5,-0.1,-0.6,-0.1c-0.1,-0.1,-0.2,-0.2,-0.5,-0.3c0.3,0,0.5,-0.1,0.6,-0.1c0.2,-0.1,0.4,-0.1,0.6,-0.1c-0.2,-0.2,-0.4,-0.4,-0.5,-0.6c-0.1,-0.3,-0.1,-0.5,-0.1,-0.6Zm-0.4,1c-0.2,0,-0.3,0.1,-0.6,0.2c-0.2,0,-0.5,-0.1,-0.7,-0.2c-0.2,-0.1,-0.3,-0.3,-0.2,-0.3l0.1,0c0.1,0,0.3,0.1,0.5,0.1c0.2,0,0.3,0,0.5,0c-0.1,0,-0.2,0,-0.3,-0.1c-0.1,0,-0.2,0,-0.3,0c0.1,-0.1,0.2,-0.1,0.3,-0.1c0.2,-0.1,0.3,-0.1,0.5,-0.2c0.2,0,0.3,0.1,0.3,0.3c0.1,0.1,0.1,0.2,0.2,0.2c-0.1,0,-0.2,0,-0.3,0.1Zm-1.3,-1.3c0.1,-0.1,0.2,-0.3,0.5,-0.2c0.2,0,0.5,0,0.6,0.1c0.1,0,0.3,0.1,0.5,0c0,0.1,-0.7,0.5,-1.1,0.6c-0.4,0.1,-0.9,0.1,-1,-0.1c0.1,0,0.2,0,0.3,0c0,0,0.1,0,0.2,-0.1c0,0,-0.1,0,-0.2,0c-0.1,0,-0.2,0,-0.2,0c0.1,-0.1,0.2,-0.2,0.4,-0.3Zm-1.7,-0.1c0.3,-0.2,0.5,-0.2,0.7,-0.2c0.2,-0.1,0.4,0,0.7,-0.1c-0.1,0.1,-0.3,0.3,-0.5,0.5c-0.2,0.1,-0.5,0.2,-0.6,0.3c0.1,0,0.2,0.1,0.3,0.2c0.1,0.2,0.3,0.4,0.5,0.6c-0.2,-0.1,-0.4,-0.1,-0.5,-0.1c-0.2,0,-0.3,-0.1,-0.5,-0.2c-0.2,-0.2,-0.2,-0.3,-0.2,-0.4c0,-0.1,-0.1,-0.1,-0.2,-0.2c0,0,0.1,0,0.1,-0.1c0.1,0,0.2,-0.1,0.2,-0.3Zm-1.5,0.5c0,0,0.1,-0.1,0.1,-0.3c0.2,-0.3,0.4,-0.4,0.6,-0.4c0.2,-0.1,0.4,-0.1,0.6,-0.3c0.1,0.1,-0.1,0.4,-0.3,0.6c-0.2,0.2,-0.4,0.4,-0.6,0.5c0.1,0,0.2,0.1,0.4,0.2c0.2,0.2,0.3,0.3,0.5,0.4c-0.2,0,-0.4,0,-0.5,0c-0.2,0,-0.3,0,-0.5,-0.1c-0.2,-0.1,-0.2,-0.1,-0.3,-0.2c0,-0.1,0,-0.1,0,-0.2c0,0,0.1,-0.1,0.2,-0.1c0,-0.1,0.1,-0.2,0.1,-0.3c0,0.1,-0.1,0.2,-0.2,0.2c-0.1,0.1,-0.2,0.1,-0.3,0.1c0.1,0,0.1,0,0.2,-0.1Zm-1.6,0.2c0.1,0,0.1,-0.1,0.2,-0.3c0.2,-0.3,0.4,-0.4,0.6,-0.4c0.1,-0.1,0.3,-0.1,0.6,-0.3c0,0.1,-0.1,0.3,-0.3,0.5c-0.2,0.2,-0.4,0.5,-0.6,0.6c0.1,0,0.3,0.1,0.4,0.2c0.2,0.1,0.3,0.2,0.5,0.3c-0.2,0,-0.4,0,-0.5,0.1c-0.1,0,-0.3,0,-0.5,-0.1c-0.2,-0.1,-0.2,-0.2,-0.3,-0.2c0,0,0,-0.1,-0.1,-0.1c0.1,-0.1,0.2,-0.2,0.3,-0.2c0,-0.1,0.1,-0.2,0.1,-0.3c-0.1,0.1,-0.1,0.2,-0.2,0.2c-0.1,0.1,-0.2,0.1,-0.3,0.2c0,-0.1,0.1,-0.1,0.1,-0.2Zm-1.5,0.5c0.1,0,0.1,-0.1,0.1,-0.3c0.1,-0.4,0.3,-0.5,0.6,-0.6c0.2,-0.1,0.4,-0.1,0.6,-0.3c0.1,0.1,0,0.3,-0.2,0.6c-0.2,0.3,-0.4,0.5,-0.7,0.6c0.2,0,0.3,0.1,0.5,0.2c0.2,0.1,0.3,0.2,0.5,0.2c-0.2,0.1,-0.3,0.1,-0.5,0.2c-0.1,0,-0.3,0.1,-0.5,0c-0.2,-0.1,-0.2,-0.1,-0.3,-0.2c0,-0.1,0,-0.1,0,-0.1c0,-0.1,0.1,-0.2,0.1,-0.3c0.1,0,0.1,-0.1,0.2,-0.2c-0.1,0.1,-0.2,0.2,-0.3,0.2c0,0.1,-0.1,0.1,-0.2,0.2c0,-0.1,0.1,-0.1,0.1,-0.2Zm-1.4,0.9c0,-0.1,0,-0.2,0,-0.4c0.1,-0.3,0.2,-0.4,0.4,-0.6c0.1,0,0.3,-0.1,0.6,-0.3c0,0.1,0,0.3,-0.2,0.5c-0.1,0.3,-0.2,0.5,-0.4,0.7c0.2,0,0.3,0,0.5,0.1c0.2,0,0.5,0.1,0.6,0.1c-0.1,0.1,-0.3,0.2,-0.4,0.2c-0.2,0.1,-0.3,0.1,-0.5,0.1c-0.2,0,-0.3,-0.1,-0.3,-0.1c-0.1,-0.1,-0.1,-0.1,-0.2,-0.1c0.1,-0.1,0.1,-0.2,0.1,-0.3c0.1,0,0.1,-0.1,0.1,-0.2c0,0.1,-0.1,0.2,-0.2,0.2c0,0.1,-0.1,0.2,-0.2,0.3c0,-0.1,0.1,-0.1,0.1,-0.2Zm-1,0.4c0,-0.3,0.2,-0.4,0.3,-0.6c0.1,-0.1,0.3,-0.3,0.5,-0.5c0,0.1,0,0.3,-0.1,0.6c0,0.3,-0.1,0.6,-0.3,0.7c0.2,0,0.3,0,0.5,0c0.2,0,0.5,0.1,0.6,0.1c-0.1,0.1,-0.2,0.2,-0.4,0.3c-0.1,0.1,-0.2,0.2,-0.5,0.2c-0.1,0,-0.2,-0.1,-0.3,-0.1c-0.1,0,-0.1,-0.1,-0.1,-0.1c0,-0.1,0,-0.2,0,-0.3c0,-0.1,0,-0.1,0.1,-0.2c-0.1,0.1,-0.1,0.2,-0.1,0.2c-0.1,0.1,-0.2,0.2,-0.2,0.3c0,-0.1,0,-0.1,0,-0.2c0.1,-0.1,0.1,-0.2,0,-0.4Zm-1.2,1c0.1,-0.3,0.1,-0.5,0.2,-0.6c0.1,-0.2,0.2,-0.3,0.4,-0.6c0.1,0.1,0.1,0.4,0.1,0.6c-0.1,0.3,-0.1,0.6,-0.3,0.8c0.2,-0.1,0.3,-0.1,0.5,-0.1c0.2,0,0.4,0.1,0.6,0.1c-0.1,0.1,-0.2,0.2,-0.4,0.3c-0.1,0.1,-0.2,0.2,-0.4,0.2c-0.2,0,-0.3,0,-0.4,-0.1c0,0,-0.1,0,-0.1,0l0,-0.3l0.1,-0.2c-0.1,0.1,-0.1,0.2,-0.2,0.2c0,0.1,0,0.2,-0.1,0.2c0.1,0,0.1,-0.1,0.1,-0.2c0,0,0,-0.1,-0.1,-0.3Zm-0.8,0.5c0.1,-0.1,0.2,-0.3,0.3,-0.6c0.1,0.1,0.1,0.4,0.1,0.7c0,0.2,0,0.5,-0.1,0.7c0.1,-0.1,0.3,-0.1,0.5,-0.1c0.1,0,0.3,0,0.5,0c-0.1,0.1,-0.2,0.2,-0.3,0.4c-0.1,0.1,-0.2,0.2,-0.5,0.2c-0.1,0.1,-0.2,0.1,-0.3,0c0,0,-0.1,0,-0.1,0c0,-0.1,0,-0.2,0,-0.3l0,-0.3c0,0.1,0,0.2,-0.1,0.3c0,0.1,0,0.2,-0.1,0.3c0,-0.1,0,-0.1,0.1,-0.2c0,-0.1,-0.1,-0.2,-0.1,-0.4c0,-0.3,0,-0.5,0.1,-0.7Zm-1.1,1.7c0.1,-0.1,0.2,-0.3,0.3,-0.6c0.1,0,0.2,0.3,0.2,0.5c0,0.2,0,0.5,-0.1,0.7c0.1,-0.1,0.3,-0.1,0.5,-0.2c0.2,-0.1,0.5,-0.1,0.7,-0.2c-0.2,0.1,-0.3,0.3,-0.4,0.4c0,0.1,-0.1,0.3,-0.4,0.4c-0.2,0.1,-0.3,0.1,-0.3,0.1c-0.1,0,-0.2,0,-0.2,0l0,-0.3c-0.1,-0.1,-0.1,-0.1,-0.1,-0.2c0,0.1,0,0.2,0,0.3c-0.1,0.1,-0.1,0.2,-0.1,0.2l0,-0.1c0,-0.1,-0.1,-0.2,-0.2,-0.3c0,-0.3,0,-0.5,0.1,-0.7Zm-0.6,1.9c-0.1,-0.3,-0.1,-0.4,-0.1,-0.6c0.1,-0.2,0.2,-0.4,0.2,-0.7c0.1,0,0.2,0.2,0.3,0.5c0.1,0.2,0.1,0.5,0.1,0.7c0.1,-0.1,0.2,-0.2,0.4,-0.3c0.2,-0.1,0.4,-0.2,0.7,-0.3c-0.2,0.2,-0.2,0.3,-0.3,0.5c-0.1,0.1,-0.2,0.2,-0.4,0.4c-0.1,0.1,-0.2,0.1,-0.3,0.1c-0.1,0.1,-0.1,0,-0.2,0.1c0,-0.1,0,-0.2,0,-0.3c-0.1,-0.1,-0.1,-0.1,-0.1,-0.2c0,0.1,0,0.2,0,0.3c0,0.1,0,0.2,-0.1,0.2l0,-0.1c0,-0.1,-0.1,-0.1,-0.2,-0.3Zm-0.8,1c0.1,-0.2,0.2,-0.4,0.2,-0.6c0.1,0,0.2,0.2,0.3,0.4c0.1,0.3,0.1,0.6,0.1,0.7c0.1,-0.1,0.2,-0.1,0.4,-0.2c0.2,-0.1,0.4,-0.2,0.6,-0.3c-0.1,0.2,-0.2,0.3,-0.2,0.4c-0.1,0.2,-0.2,0.3,-0.4,0.5c-0.1,0.1,-0.2,0.1,-0.3,0.1l-0.2,0c0,-0.1,0,-0.2,-0.1,-0.2c0,-0.1,0,-0.2,-0.1,-0.3l0,0.3c0,0.1,0,0.2,0,0.3c0,-0.1,0,-0.1,0,-0.2c0,0,-0.1,-0.1,-0.2,-0.2c-0.2,-0.3,-0.1,-0.5,-0.1,-0.7Zm-0.2,1.9c-0.2,-0.2,-0.2,-0.4,-0.2,-0.6c0,-0.2,0.1,-0.4,0.1,-0.7c0.1,0,0.2,0.2,0.3,0.5c0.2,0.2,0.3,0.5,0.3,0.7c0,-0.2,0.1,-0.2,0.3,-0.3c0.2,-0.2,0.4,-0.3,0.6,-0.4c-0.1,0.2,-0.1,0.3,-0.2,0.5c0,0.1,-0.1,0.2,-0.3,0.4c-0.1,0.1,-0.2,0.2,-0.3,0.2c0,0.1,-0.1,0.1,-0.1,0.1c0,-0.1,-0.1,-0.2,-0.1,-0.3c-0.1,-0.1,-0.1,-0.2,-0.2,-0.2c0.1,0.1,0.1,0.2,0.1,0.2c0,0.1,0,0.2,0,0.4c-0.1,-0.1,0,-0.2,-0.1,-0.2c0,-0.1,-0.1,-0.2,-0.2,-0.3Zm-0.7,1c0.1,-0.2,0.1,-0.4,0.1,-0.7c0.1,0,0.2,0.2,0.4,0.5c0.1,0.2,0.2,0.5,0.2,0.7c0,-0.1,0.2,-0.2,0.4,-0.3c0.1,-0.2,0.3,-0.3,0.5,-0.4c-0.1,0.2,-0.1,0.4,-0.2,0.5c0,0.2,-0.1,0.3,-0.2,0.4c-0.1,0.2,-0.2,0.2,-0.3,0.2l-0.2,0c0,0,-0.1,-0.1,-0.1,-0.2c-0.1,-0.1,-0.1,-0.2,-0.2,-0.2c0.1,0.1,0.1,0.2,0.1,0.3l0,0.2c0,0,0,-0.1,0,-0.1c-0.1,-0.1,-0.1,-0.1,-0.3,-0.3c-0.1,-0.2,-0.2,-0.4,-0.2,-0.6Zm0.7,2.3c0,-0.1,-0.1,-0.2,-0.1,-0.2c-0.1,-0.1,-0.2,-0.1,-0.2,-0.2c0,0.1,0.1,0.2,0.1,0.2c0,0.1,0.1,0.2,0.1,0.3c-0.1,0,-0.1,-0.1,-0.1,-0.1c-0.1,-0.1,-0.1,-0.2,-0.3,-0.2c-0.2,-0.3,-0.3,-0.4,-0.3,-0.6c-0.1,-0.2,-0.1,-0.4,-0.1,-0.6c0.1,0,0.3,0.1,0.4,0.3c0.2,0.2,0.4,0.5,0.4,0.7c0,-0.1,0.2,-0.3,0.3,-0.4c0.2,-0.1,0.3,-0.3,0.5,-0.4c-0.1,0.2,-0.1,0.3,-0.1,0.5c0,0.1,0,0.3,-0.2,0.5c-0.1,0.1,-0.2,0.1,-0.2,0.1c-0.1,0.1,-0.2,0.1,-0.2,0.1Zm-0.9,0.3c0.1,0,0.3,0.2,0.4,0.4c0.2,0.2,0.4,0.5,0.4,0.7c0,-0.1,0.2,-0.3,0.3,-0.4c0.2,-0.1,0.3,-0.2,0.4,-0.4c0,0.2,0,0.4,0,0.5c0,0.2,0,0.3,-0.2,0.5c-0.1,0.1,-0.2,0.2,-0.2,0.2c-0.1,0,-0.2,0,-0.2,0c0,0,-0.1,-0.1,-0.1,-0.2c-0.1,-0.1,-0.2,-0.1,-0.2,-0.2c0,0.1,0.1,0.2,0.1,0.3c0,0.1,0.1,0.2,0.1,0.3c-0.1,-0.1,-0.1,-0.1,-0.1,-0.2c-0.1,-0.1,-0.1,-0.1,-0.3,-0.2c-0.2,-0.3,-0.3,-0.5,-0.3,-0.6c-0.1,-0.2,-0.1,-0.4,-0.1,-0.7Zm0.8,2.2c0,-0.1,-0.1,-0.2,-0.2,-0.3c-0.1,-0.1,-0.2,-0.2,-0.3,-0.3c0.1,0.1,0.3,0.2,0.3,0.2c0.1,0.1,0.2,0.2,0.2,0.3l0,0.1Zm-0.7,0.4c-0.1,-0.2,-0.1,-0.4,-0.2,-0.9c0.1,0,0.3,0.1,0.5,0.3c0.2,0.2,0.3,0.4,0.4,0.6c0,-0.1,0.1,-0.2,0.3,-0.4c0.1,-0.1,0.2,-0.3,0.3,-0.4c0,0.2,0,0.3,0,0.5c0.1,0.1,0.1,0.3,0,0.5c-0.1,0.1,-0.2,0.2,-0.3,0.2c0,0,-0.1,0,-0.1,0.1c0,-0.1,-0.1,-0.2,-0.1,-0.2c0,-0.1,-0.1,-0.1,-0.1,-0.2c0,0.1,0,0.2,0,0.2c0,0.1,-0.1,0.2,-0.1,0.2l0,-0.1c0,0,-0.1,-0.1,-0.2,-0.1c-0.3,-0.2,-0.4,-0.2,-0.4,-0.3Zm0.4,1.2c0.2,0.1,0.4,0.3,0.4,0.5c0.1,-0.2,0.2,-0.3,0.3,-0.5c0.1,-0.2,0.2,-0.4,0.4,-0.6c-0.1,0.3,0,0.4,0,0.6c0,0.1,-0.1,0.3,-0.2,0.5c0,0.2,-0.1,0.3,-0.2,0.3c0,0.1,-0.1,0.1,-0.1,0.1c0,-0.1,-0.1,-0.1,-0.1,-0.2c0,-0.1,-0.1,-0.1,-0.1,-0.2c0,0.1,0,0.2,0,0.3c0.1,0.1,0,0.2,0.1,0.3c-0.1,0,-0.1,-0.1,-0.1,-0.1c-0.1,-0.1,-0.2,-0.1,-0.3,-0.2c-0.3,-0.1,-0.3,-0.3,-0.4,-0.5c0,-0.1,0,-0.3,-0.1,-0.6c0.1,0,0.3,0.1,0.4,0.3Zm-0.1,1.7c-0.1,-0.2,-0.2,-0.4,-0.3,-0.6c0.1,-0.1,0.3,0,0.5,0.2c0.3,0.1,0.5,0.2,0.6,0.4c0,-0.1,0.1,-0.3,0.2,-0.4c0.1,-0.2,0.2,-0.5,0.3,-0.7c0,0.3,0,0.4,0.1,0.6c0,0.1,0,0.2,-0.1,0.5c-0.1,0.2,-0.1,0.3,-0.2,0.4c-0.1,0,-0.1,0,-0.1,0.1c0,-0.1,-0.1,-0.1,-0.1,-0.2c0,-0.1,-0.1,-0.1,-0.2,-0.1c0.1,0,0.1,0.1,0.1,0.1l0,0.3c0,-0.1,0,-0.1,-0.1,-0.1c0,0,-0.1,0,-0.2,-0.1c-0.3,-0.1,-0.4,-0.2,-0.5,-0.4Zm0.6,1.7c-0.1,-0.2,-0.2,-0.4,-0.4,-0.7c0.1,0,0.4,0.1,0.6,0.2c0.2,0.1,0.5,0.3,0.6,0.5c0,-0.1,0.1,-0.3,0.1,-0.5c0.1,-0.2,0.3,-0.4,0.4,-0.6c0,0.2,0,0.4,0.1,0.5c0,0.2,0,0.3,-0.1,0.6c0,0.1,-0.1,0.2,-0.1,0.2c-0.1,0.1,-0.1,0.1,-0.2,0.1c0,0,0,-0.1,-0.1,-0.1c0,-0.1,-0.1,-0.1,-0.1,-0.2c0,0.1,0.1,0.2,0.1,0.3c0,0.1,0,0.2,0,0.3c0,-0.1,-0.1,-0.1,-0.1,-0.1c-0.1,-0.1,-0.2,-0.1,-0.3,-0.1c-0.3,-0.1,-0.4,-0.3,-0.5,-0.4Zm0.5,1.3c-0.1,-0.1,-0.2,-0.3,-0.4,-0.5c0.1,-0.1,0.3,-0.1,0.6,0c0.2,0.1,0.5,0.3,0.7,0.4c-0.1,-0.1,0,-0.3,0,-0.5c0.1,-0.2,0.2,-0.4,0.2,-0.6c0.1,0.2,0.1,0.3,0.2,0.5c0.1,0.1,0.1,0.2,0.1,0.5c-0.1,0.2,-0.1,0.2,-0.2,0.3c0,0.1,-0.1,0.1,-0.1,0.1c-0.1,0,-0.1,-0.1,-0.2,-0.1c-0.1,-0.1,-0.2,-0.1,-0.3,-0.1c0.1,0,0.2,0.1,0.3,0.2c0.1,0,0.1,0.1,0.2,0.2l0,0.1c-0.1,-0.1,-0.1,-0.1,-0.1,-0.1c-0.1,-0.1,-0.2,-0.1,-0.4,-0.1c-0.3,-0.1,-0.5,-0.2,-0.6,-0.3Zm0.7,1.4c-0.2,-0.2,-0.2,-0.3,-0.4,-0.6c0.1,0,0.3,0,0.6,0.2c0.2,0.1,0.5,0.2,0.6,0.4c0,-0.2,0.1,-0.3,0.1,-0.5c0.1,-0.2,0.2,-0.4,0.3,-0.6c0,0.2,0.1,0.3,0.1,0.5c0.1,0.1,0.1,0.3,0.1,0.5c-0.1,0.1,-0.1,0.2,-0.2,0.3c0,0.1,-0.1,0.1,-0.1,0.1c-0.1,0,-0.1,-0.1,-0.2,-0.1c-0.1,0,-0.2,-0.1,-0.3,-0.1c0.1,0.1,0.2,0.1,0.3,0.2c0,0.1,0.1,0.1,0.2,0.2c-0.1,0,-0.1,-0.1,-0.2,-0.1c-0.1,0,-0.2,0,-0.3,0c-0.3,-0.1,-0.5,-0.3,-0.6,-0.4Zm3.4,3c0,-0.2,0,-0.4,0,-0.6c0.1,0.1,0.2,0.2,0.3,0.4c0.1,0.1,0.2,0.2,0.3,0.4c0,0.2,0,0.3,0,0.4c0,0.2,0,0.3,0.1,0.4c-0.1,-0.1,-0.1,-0.1,-0.2,-0.2c-0.1,0,-0.2,0,-0.2,-0.1c0,0.1,0.1,0.1,0.2,0.2c0,0.1,0.1,0.2,0.1,0.2c0,0,-0.1,-0.1,-0.2,-0.1c-0.1,-0.1,-0.2,-0.1,-0.3,0c-0.4,-0.1,-0.6,-0.2,-0.8,-0.4c-0.2,-0.1,-0.4,-0.3,-0.7,-0.5c0.1,0,0.4,0,0.6,0c0.3,0.1,0.7,0.2,0.8,0.3c0,-0.1,0,-0.3,0,-0.4Zm-1,-1.1c0,-0.1,0.1,-0.4,0.1,-0.6c0.1,0.2,0.2,0.4,0.3,0.5c0,0.1,0.1,0.2,0.1,0.5c0,0.1,-0.1,0.2,-0.1,0.3c-0.1,0,-0.1,0.1,-0.1,0.1c-0.1,0,-0.2,-0.1,-0.3,-0.1c0,0,-0.1,0,-0.2,-0.1c0.1,0.1,0.2,0.1,0.2,0.2c0.1,0.1,0.2,0.1,0.3,0.2c-0.1,0,-0.2,-0.1,-0.4,-0.1c-0.1,-0.1,-0.3,-0.2,-0.5,-0.1c-0.4,-0.1,-0.4,-0.2,-0.5,-0.3c0,-0.2,0,-0.3,-0.3,-0.5c0.1,0,0.4,0,0.6,0.1c0.3,0.1,0.6,0.2,0.7,0.4c0,-0.1,0,-0.3,0.1,-0.5Zm-0.5,-1.5c0.1,0.1,0.2,0.3,0.2,0.5c0,0.1,-0.1,0.2,-0.1,0.3c-0.1,0.1,-0.1,0.1,-0.1,0.2c-0.1,-0.1,-0.2,-0.1,-0.3,-0.1c-0.1,-0.1,-0.2,-0.1,-0.2,-0.1c0,0,0.1,0.1,0.2,0.2c0.1,0,0.2,0.1,0.3,0.1c-0.1,0,-0.2,0,-0.2,0c-0.1,0,-0.2,-0.1,-0.4,0c-0.3,-0.1,-0.5,-0.2,-0.6,-0.3c-0.2,-0.2,-0.3,-0.4,-0.5,-0.5c0.1,-0.1,0.3,0,0.6,0c0.3,0.1,0.6,0.2,0.7,0.3c0,-0.1,0,-0.2,0,-0.4c0.1,-0.2,0.1,-0.4,0.1,-0.6c0.1,0.2,0.2,0.3,0.3,0.4Zm4.5,-2.9c-0.1,0.2,-0.2,0.3,-0.2,0.3c-0.1,0,-0.2,0,-0.2,-0.1c-0.1,0,-0.1,-0.1,-0.1,-0.1l0.1,-0.1l0.1,-0.2c0.1,0,0.2,-0.1,0.3,-0.1c0,0,0.1,0,0.1,0.1c0.1,0,0,0.2,-0.1,0.2Zm0.6,0.9c-0.1,0,-0.1,0,-0.2,0c0,0,-0.1,0,-0.1,-0.1c-0.1,-0.1,0,-0.2,0.1,-0.3c0,-0.1,0.1,-0.2,0.1,-0.3c0.1,0,0.2,0,0.2,-0.1l0.1,-0.1l0.1,0l0.3,0l0,0.1c0.1,0.1,-0.1,0.3,-0.2,0.4c-0.2,0.2,-0.3,0.4,-0.4,0.4Zm1.4,0.1c-0.2,0.1,-0.5,0.3,-0.5,0.3c-0.1,0,-0.1,0,-0.2,0l-0.1,-0.1c0,-0.1,0,-0.1,0,-0.1c0,-0.1,0,-0.1,0.1,-0.1c-0.1,0,-0.1,0,0,-0.1c0.1,-0.1,0.2,-0.1,0.2,-0.2l0.1,0l0,-0.1c0.1,-0.1,0.2,-0.2,0.4,-0.3c0.1,0,0.2,0,0.3,0.2c0.1,0.2,-0.1,0.3,-0.3,0.5Zm0.9,0.4c-0.1,0.1,-0.3,0.2,-0.5,0.2c-0.1,0,-0.2,0,-0.2,-0.1c-0.1,-0.1,0,-0.2,0.4,-0.5c0,0,0.1,-0.1,0.2,-0.1c0.1,0,0.2,0,0.2,0.2c0.1,0.1,0,0.2,-0.1,0.3Zm3.7,-1.4l-0.1,0.2c-0.1,0,-0.2,0.1,-0.2,0c-0.1,0,-0.2,-0.1,-0.3,-0.2c-0.3,-0.5,-0.7,-0.7,-0.9,-0.8c-0.3,-0.1,-0.5,-0.3,-0.5,-0.5c-0.1,0,-0.1,0.1,-0.1,0.2c0,0.1,0,0.2,0,0.2c0.3,0.3,0.5,0.5,0.7,0.7c0.2,0.2,0.4,0.3,0.6,0.7c-0.1,0.1,-0.2,0.1,-0.2,0.2c-0.1,0,-0.2,0,-0.3,-0.1c-0.4,-0.4,-0.8,-0.6,-1,-0.8c-0.2,-0.2,-0.3,-0.4,-0.2,-0.6c-0.1,0,-0.1,0.1,-0.2,0.1c0,0.1,0,0.2,0,0.3c0.1,0.3,0.2,0.5,0.4,0.7c0.3,0.2,0.5,0.3,0.6,0.6c-0.1,0.2,-0.3,0.2,-0.6,0.1c-0.2,-0.2,-0.5,-0.6,-0.7,-1.1c-0.1,0.1,-0.2,0.2,-0.1,0.3c0,0.2,0.1,0.4,0.3,0.7c0.1,0.1,0.2,0.2,0.2,0.3c-0.1,0.1,-0.1,0.2,-0.4,0.1c0.1,0.1,0,0,0,0c-0.1,0,-0.1,0,0,0c0,-0.5,-0.1,-0.7,-0.3,-0.8c-0.2,-0.1,-0.4,0,-0.5,0c0.1,-0.2,0,-0.4,-0.2,-0.5c-0.2,-0.1,-0.4,-0.1,-0.7,0c0,-0.2,-0.1,-0.3,-0.3,-0.4c-0.2,-0.1,-0.6,-0.2,-1,0c-0.1,-0.2,-0.2,-0.3,-0.5,-0.3c-0.3,0,-0.6,0.1,-1,0.6c-0.6,0,-1.4,0.3,-2.1,0.5c-0.8,0.2,-1.6,0.4,-2.2,0.1c0,0,-0.2,-0.5,-0.4,-1c-0.2,-0.5,-0.4,-1,-0.4,-1c0.7,-0.1,1.9,-0.1,2.9,-0.3c1.1,-0.1,2.2,-0.3,2.7,-0.5c0.5,-0.3,1.1,-0.5,1.7,-0.6c0.5,-0.1,1,-0.2,1.2,0c0,0.1,-0.2,0.3,-0.3,0.6c-0.1,0.1,-0.2,0.4,0,0.5c0.3,0.3,0.7,0.4,1.1,0.3c0.4,0,0.8,-0.2,1.1,-0.4c0.4,0.4,0.8,0.6,1.2,0.8c0.4,0.2,0.8,0.5,1,1Zm4,0.9c-0.8,-0.1,-1.8,-0.4,-2.9,-1.1c0.1,-0.1,0.2,-0.3,0.2,-0.6c0.1,-0.2,0.1,-0.4,0,-0.6c0,-0.1,0,-0.1,-0.1,-0.1c0,0,0,0.2,0,0.2c-0.1,0.3,-0.2,0.4,-0.3,0.5c-0.1,0.1,-0.2,0.2,-0.3,0.3c-0.4,-0.4,-0.6,-0.5,-0.8,-0.7c-0.2,-0.1,-0.4,-0.2,-0.8,-0.5c-0.4,-0.2,-0.5,-0.3,-0.6,-0.4c-0.2,-0.1,-0.3,-0.2,-0.4,-0.3c-0.3,0.1,-0.7,0.3,-1.1,0.4c-0.3,0.1,-0.7,0.2,-0.9,0c-0.2,-0.1,-0.1,-0.2,0.1,-0.3c0.2,-0.1,0.5,-0.3,0.7,-0.6c0.1,-0.2,0.3,-0.3,0.5,-0.4c0.1,0,0.3,0,0.6,0c0.4,0.1,0.8,0.2,1.2,0.4c0.4,0.2,0.8,0.4,1.5,0.7c0.8,0.1,1.5,0.2,2.3,0.4c0.7,0.2,1.4,0.4,2.3,0.6c0.1,0,0.3,0.1,0.4,0.1c0.2,0,0.4,0,0.5,0c-0.1,0.4,-0.3,0.7,-0.4,1c-0.1,0.3,-0.3,0.6,-0.5,1.1c0,0,-0.5,0,-1.2,-0.1Zm-0.1,5.3c-0.2,0.2,-0.4,0.3,-0.7,0.3c-0.2,-0.1,-0.3,0,-0.4,0c-0.1,0.1,-0.2,0.2,-0.3,0.2c0,-0.1,0.1,-0.1,0.2,-0.2c0.1,-0.1,0.1,-0.2,0.2,-0.2c-0.1,0,-0.2,0,-0.2,0.1c-0.1,0,-0.2,0,-0.2,0.1l0,-0.3c0,-0.1,0,-0.2,0,-0.4c0,-0.2,0.1,-0.3,0.2,-0.4c0.2,-0.1,0.3,-0.2,0.4,-0.4c0,0.2,0,0.4,0,0.6c0,0.2,0,0.3,-0.1,0.4c0.2,-0.1,0.5,-0.2,0.9,-0.2c0.3,-0.1,0.5,-0.1,0.6,0c-0.3,0.1,-0.4,0.3,-0.6,0.4Zm1.1,-1c-0.1,0.1,-0.3,0.3,-0.7,0.3c-0.1,0,-0.2,0,-0.3,0.1c-0.1,0,-0.1,0,-0.2,0c0.1,0,0.2,-0.1,0.3,-0.2c0.1,0,0.1,-0.1,0.2,-0.1c-0.1,0,-0.1,0,-0.2,0c-0.1,0.1,-0.2,0.1,-0.3,0.1c0,0,-0.1,0,-0.1,-0.1c-0.1,-0.1,-0.1,-0.1,-0.1,-0.3c0,-0.3,0,-0.4,0.1,-0.5c0.1,-0.1,0.2,-0.3,0.3,-0.5c0,0.3,0.1,0.4,0.1,0.6c0.1,0.2,0.1,0.4,0.1,0.5c0.1,-0.1,0.4,-0.3,0.7,-0.4c0.3,-0.1,0.5,-0.1,0.6,-0.1c-0.3,0.2,-0.3,0.4,-0.5,0.6Zm0.8,-1.3c-0.1,0.2,-0.3,0.3,-0.6,0.3c-0.2,0,-0.3,0,-0.4,0c-0.1,0.1,-0.1,0.1,-0.2,0.1c0.1,-0.1,0,-0.2,0,-0.3c-0.1,0,-0.2,-0.1,-0.2,-0.4c0,-0.2,0.1,-0.3,0.2,-0.5c0,-0.1,0.2,-0.2,0.2,-0.4c0.1,0.3,0.2,0.5,0.2,0.7c0,0.2,0,0.3,0,0.4c0.1,-0.1,0.3,-0.2,0.6,-0.3c0.3,-0.1,0.6,-0.2,0.7,-0.1c-0.2,0.2,-0.3,0.4,-0.5,0.5Zm0.8,-1.3c-0.1,0.2,-0.2,0.4,-0.5,0.5c-0.2,0,-0.3,0,-0.4,0c0,0,-0.1,0.1,-0.1,0.1c0,-0.1,0.1,-0.1,0.2,-0.2c0,-0.1,0.1,-0.2,0.2,-0.2c-0.1,0,-0.2,0,-0.3,0.1c0,0,-0.1,0.1,-0.2,0.1c0,0,-0.1,-0.1,-0.1,-0.1c-0.1,-0.1,-0.1,-0.2,-0.2,-0.4c0,-0.2,0,-0.3,0.1,-0.5c0,-0.1,0.1,-0.2,0.2,-0.5c0,0.3,0.1,0.5,0.2,0.7c0.1,0.1,0.1,0.3,0.1,0.4c0.1,-0.1,0.4,-0.3,0.6,-0.4c0.3,-0.1,0.5,-0.2,0.6,-0.1c-0.2,0.2,-0.3,0.4,-0.4,0.5Zm0.8,-1.4c-0.1,0.2,-0.3,0.3,-0.6,0.4c-0.2,0,-0.3,0,-0.4,0c0,0.1,0,0.1,-0.1,0.1c0.1,0,0.1,-0.1,0.2,-0.2c0,-0.1,0.1,-0.1,0.2,-0.2c-0.1,0.1,-0.2,0.1,-0.2,0.1c-0.1,0,-0.2,0.1,-0.2,0.1c-0.1,0,-0.1,0,-0.2,-0.1c0,-0.1,-0.1,-0.2,-0.1,-0.3c0,-0.3,0,-0.4,0.1,-0.6c0,-0.1,0.1,-0.2,0.2,-0.5c0,0.3,0.1,0.5,0.1,0.7c0.1,0.2,0.1,0.4,0.1,0.5c0.2,-0.2,0.4,-0.3,0.7,-0.4c0.2,-0.1,0.4,-0.2,0.5,-0.1c-0.1,0.2,-0.2,0.4,-0.3,0.5Zm0.5,-1.3c-0.1,0.1,-0.2,0.3,-0.5,0.4c-0.1,0,-0.2,0.1,-0.3,0.1c-0.1,0.1,-0.1,0.1,-0.1,0.1c0,-0.1,0.1,-0.1,0.1,-0.2c0.1,-0.1,0.2,-0.2,0.2,-0.2c-0.1,0,-0.1,0,-0.2,0.1c-0.1,0,-0.1,0.1,-0.2,0.1c0,0,-0.1,0,-0.2,-0.1c0,0,-0.1,-0.1,-0.1,-0.3c-0.1,-0.2,-0.1,-0.4,-0.1,-0.6c0.1,-0.1,0.1,-0.3,0.1,-0.5c0.1,0.2,0.2,0.4,0.3,0.6c0.1,0.2,0.2,0.4,0.2,0.6c0.1,-0.2,0.3,-0.4,0.5,-0.6c0.3,-0.1,0.5,-0.2,0.6,-0.2c-0.2,0.3,-0.2,0.5,-0.3,0.7Zm-0.4,-0.6c0,-0.1,0.1,-0.1,0.1,-0.1c0.1,-0.1,0.1,-0.1,0.2,-0.1c-0.1,0,-0.1,0,-0.2,0.1l-0.1,0.1Zm0.9,-1.1c0,0.2,-0.1,0.4,-0.4,0.5c-0.2,0.1,-0.3,0.1,-0.4,0.1c0,0,0,0.1,-0.1,0.1c0.1,-0.1,0.1,-0.1,0.1,-0.2c0.1,-0.1,0.2,-0.2,0.2,-0.2c0,0,-0.1,0,-0.2,0.1c0,0,-0.1,0.1,-0.1,0.1c-0.1,0,-0.1,0,-0.2,-0.1c0,0,-0.1,-0.1,-0.2,-0.3c-0.1,-0.3,-0.1,-0.4,0,-0.6c0,-0.1,0.1,-0.3,0.1,-0.5c0.1,0.2,0.2,0.4,0.3,0.6c0.1,0.2,0.1,0.4,0.1,0.5c0.1,-0.2,0.3,-0.4,0.6,-0.5c0.2,-0.1,0.4,-0.2,0.5,-0.2c-0.2,0.2,-0.2,0.4,-0.3,0.6Zm0.4,-2.1c-0.1,0.3,-0.1,0.5,-0.1,0.7c-0.1,0.2,-0.1,0.4,-0.4,0.6c-0.2,0,-0.2,0.1,-0.3,0.1c0,0.1,0,0.1,-0.1,0.2c0,-0.1,0.1,-0.2,0.1,-0.3c0.1,-0.1,0.1,-0.2,0.2,-0.3c-0.1,0.1,-0.2,0.1,-0.2,0.2c-0.1,0,-0.1,0.1,-0.2,0.2c0,-0.1,-0.1,-0.1,-0.2,-0.1c0,-0.1,-0.1,-0.2,-0.2,-0.3c-0.1,-0.3,-0.1,-0.4,-0.1,-0.6c0,-0.1,0,-0.3,0,-0.6c0.1,0.3,0.3,0.5,0.4,0.7c0.1,0.1,0.2,0.3,0.2,0.4c0.1,-0.2,0.3,-0.4,0.5,-0.6c0.1,-0.2,0.3,-0.3,0.4,-0.3Zm-1,0.3c0.1,0,0.1,0,0.1,0c0,0.1,0,0.1,0,0.1l0,0.1c0,0,0,-0.1,0,-0.1c0,0,0,-0.1,-0.1,-0.1Zm0.3,-0.2c0,0,0.1,-0.1,0.1,-0.1c0,-0.1,0.1,-0.1,0.2,-0.1c-0.1,0,-0.1,0,-0.2,0.1c0,0,0,0.1,-0.1,0.1Zm0.7,-1.2c-0.1,0.2,-0.1,0.4,-0.4,0.6c-0.2,0.1,-0.3,0.1,-0.3,0.2c-0.1,0.1,-0.1,0.1,-0.2,0.2c0.1,-0.1,0.1,-0.2,0.2,-0.3c0,-0.1,0.1,-0.2,0.2,-0.3c-0.1,0.1,-0.2,0.1,-0.3,0.2c0,0,-0.1,0.1,-0.2,0.2c0,0,-0.1,0,-0.1,-0.1c-0.1,0,-0.1,-0.1,-0.2,-0.2c-0.1,-0.2,-0.1,-0.3,-0.1,-0.5c0,-0.2,0,-0.3,0,-0.5c0.1,0.1,0.3,0.3,0.4,0.4c0.1,0.2,0.2,0.3,0.2,0.5c0.1,-0.3,0.3,-0.5,0.5,-0.8c0.2,-0.2,0.4,-0.3,0.5,-0.3c-0.1,0.2,-0.1,0.5,-0.2,0.7Z" class="g1_1" />
<path d="M305.5,1197.9c0,0,0.1,0,0.1,0c-0.1,0,-0.2,0,-0.3,-0.1c0.1,0.1,0.1,0.1,0.2,0.1Z" class="g9_1" />
<path d="M294.3,1178.4c0,0.1,0,0.1,0,0.1l0,-0.2c0,-0.1,0,-0.2,-0.1,-0.3c0.1,0,0.1,0.1,0.2,0.2c0,0.1,0.1,0.2,0.1,0.2l0.2,0c0.1,0,0.2,0,0.3,-0.2c0.1,-0.1,0.2,-0.2,0.2,-0.4c0.1,-0.1,0.1,-0.3,0.2,-0.5c-0.2,0.1,-0.4,0.2,-0.5,0.4c-0.2,0.1,-0.4,0.2,-0.4,0.3c0,-0.2,-0.1,-0.5,-0.2,-0.7c-0.2,-0.3,-0.3,-0.5,-0.4,-0.5c0,0.3,0,0.5,-0.1,0.7c0,0.2,0.1,0.4,0.2,0.6c0.2,0.2,0.2,0.2,0.3,0.3Z" class="g10_1" />
<path d="M294.9,1179.6c0.2,-0.2,0.2,-0.4,0.2,-0.5c0,-0.2,0,-0.3,0.1,-0.5c-0.2,0.1,-0.3,0.3,-0.5,0.4c-0.1,0.1,-0.3,0.3,-0.3,0.4c0,-0.2,-0.2,-0.5,-0.4,-0.7c-0.1,-0.2,-0.3,-0.3,-0.4,-0.3c0,0.2,0,0.4,0.1,0.6c0,0.2,0.1,0.3,0.3,0.6c0.2,0,0.2,0.1,0.3,0.2c0,0,0,0.1,0.1,0.1c0,-0.1,-0.1,-0.2,-0.1,-0.3c0,0,-0.1,-0.1,-0.1,-0.2c0,0.1,0.1,0.1,0.2,0.2c0,0,0.1,0.1,0.1,0.2c0,0,0.1,0,0.2,-0.1c0,0,0.1,0,0.2,-0.1Z" class="g10_1" />
<path d="M295,1175.5c0,0.1,0,0.3,0,0.3c0.1,-0.1,0,-0.3,0,-0.4l0,-0.3c0.1,0.1,0.1,0.2,0.1,0.3c0.1,0,0.1,0.1,0.1,0.2l0.2,0c0.1,0,0.2,0,0.3,-0.1c0.2,-0.2,0.3,-0.3,0.4,-0.4c0,-0.2,0.1,-0.3,0.2,-0.5c-0.2,0.1,-0.4,0.2,-0.6,0.3c-0.2,0.1,-0.3,0.2,-0.4,0.2c0,-0.1,0,-0.4,-0.1,-0.7c-0.1,-0.2,-0.2,-0.4,-0.3,-0.4c0,0.2,-0.1,0.4,-0.2,0.6c0,0.2,-0.1,0.4,0.1,0.7c0.1,0.1,0.1,0.2,0.2,0.2Z" class="g10_1" />
<path d="M294.8,1177c0,-0.2,0,-0.3,0,-0.4c0,0,0,-0.1,-0.1,-0.2c0.1,0,0.1,0.1,0.2,0.2c0,0.1,0.1,0.2,0.1,0.3c0,0,0.1,0,0.1,-0.1c0.1,0,0.2,-0.1,0.3,-0.2c0.2,-0.2,0.3,-0.2,0.4,-0.4c0,-0.1,0,-0.3,0.1,-0.5c-0.2,0.1,-0.4,0.2,-0.6,0.4c-0.2,0.1,-0.3,0.1,-0.3,0.3c0,-0.2,-0.1,-0.5,-0.3,-0.7c-0.1,-0.3,-0.2,-0.5,-0.3,-0.5c0,0.3,-0.1,0.5,-0.1,0.7c0,0.2,-0.1,0.4,0.1,0.7c0.1,0.1,0.2,0.2,0.2,0.2c0,0.1,0.1,0.1,0.2,0.2Z" class="g10_1" />
<path d="M304.6,1170.7c0.3,-0.2,0.6,-0.2,1.2,-0.2c3.4,0.7,2.3,3,2.9,3.9c0,0,0.2,0.6,0.3,0.7c0.2,0.4,0.5,1.6,0.4,2c-0.2,0.5,-0.5,0.7,-1.2,0.8c-0.8,0,-2,-0.1,-2,-0.1l0,2.8l9.6,0c0,0,-0.2,-7.8,-5.2,-11.2c0,0,-0.2,-0.1,-0.3,-0.2c-2.3,-1.8,-5.2,-1.6,-5.9,-1.5c-8.6,1.8,-8.8,12.9,-8.8,12.9l9.6,0l0,-2.8c0,0,-0.5,0,-1.3,0c-0.3,0,-1.2,-0.3,-1.5,-0.8c-0.4,-0.6,-0.6,-1.8,1.7,-4.1c0,0,-0.5,-0.1,-0.7,-0.5c-0.2,-0.5,0.2,-1.3,1.2,-1.7Z" class="g11_1" />
<path d="M307.8,1186.4c-0.4,-0.2,-0.8,-0.4,-1.2,-0.8c-0.3,0.2,-0.7,0.4,-1.1,0.4c-0.4,0.1,-0.8,0,-1.1,-0.3c-0.2,-0.1,-0.1,-0.4,0,-0.5c0.1,-0.3,0.3,-0.5,0.3,-0.6c-0.2,-0.2,-0.7,-0.1,-1.2,0c-0.6,0.1,-1.2,0.3,-1.7,0.6c-0.5,0.2,-1.6,0.4,-2.7,0.5c-1,0.2,-2.2,0.2,-2.9,0.3c0,0,0.2,0.5,0.4,1c0.2,0.5,0.4,1,0.4,1c0.6,0.3,1.4,0.1,2.2,-0.1c0.7,-0.2,1.5,-0.5,2.1,-0.5c0.4,-0.5,0.7,-0.6,1,-0.6c0.3,0,0.4,0.1,0.5,0.3c0.4,-0.2,0.8,-0.1,1,0c0.2,0.1,0.3,0.2,0.3,0.4c0.3,-0.1,0.5,-0.1,0.7,0c0.2,0.1,0.3,0.3,0.2,0.5c0.1,0,0.3,-0.1,0.5,0c0.2,0.1,0.3,0.3,0.3,0.8c0.3,0.1,0.3,0,0.4,-0.1c0,-0.1,-0.1,-0.2,-0.2,-0.3c-0.2,-0.3,-0.3,-0.5,-0.3,-0.7c-0.1,-0.1,0,-0.2,0.1,-0.3c0.2,0.5,0.5,0.9,0.7,1.1c0.3,0.1,0.5,0.1,0.6,-0.1c-0.1,-0.3,-0.3,-0.4,-0.6,-0.6c-0.2,-0.2,-0.3,-0.4,-0.4,-0.7c0,-0.1,0,-0.2,0,-0.3c0.1,0,0.1,-0.1,0.2,-0.1c-0.1,0.2,0,0.4,0.2,0.6c0.2,0.2,0.6,0.4,1,0.8c0.1,0.1,0.2,0.1,0.3,0.1c0,-0.1,0.1,-0.1,0.2,-0.2c-0.2,-0.4,-0.4,-0.5,-0.6,-0.7c-0.2,-0.2,-0.4,-0.4,-0.7,-0.7c0,0,0,-0.1,0,-0.2c0,-0.1,0,-0.2,0.1,-0.2c0,0.2,0.2,0.4,0.5,0.5c0.2,0.1,0.6,0.3,0.9,0.8c0.1,0.1,0.2,0.2,0.3,0.2c0,0.1,0.1,0,0.2,0l0.1,-0.2l0,-0.1c-0.2,-0.5,-0.6,-0.8,-1,-1Z" class="g12_1" />
<path d="M305.8,1188.8c-0.1,0,-0.1,0,0,0c0,0,0.1,0.1,0,0Z" class="g12_1" />
<path d="M304.5,1188c-0.1,-0.2,-0.2,-0.2,-0.3,-0.2c-0.2,0.1,-0.3,0.2,-0.4,0.3l0,0.1l-0.1,0c0,0.1,-0.1,0.1,-0.2,0.2c-0.1,0.1,-0.1,0.1,0,0.1c-0.1,0,-0.1,0,-0.1,0.1l0,0.1c0.1,0.1,0.1,0.1,0.1,0.1c0.1,0,0.1,0,0.2,0c0,0,0.3,-0.2,0.5,-0.3c0.2,-0.2,0.4,-0.3,0.3,-0.5Z" class="g12_1" />
<path d="M303.4,1187.6c0,-0.1,0,-0.1,0,-0.1l-0.3,0l-0.1,0l-0.1,0.1c0,0.1,-0.1,0.1,-0.2,0.1c0,0.1,-0.1,0.2,-0.1,0.3c-0.1,0.1,-0.2,0.2,-0.1,0.3c0,0.1,0.1,0.1,0.1,0.1c0.1,0,0.1,0,0.2,0c0.1,0,0.2,-0.2,0.4,-0.4c0.1,-0.1,0.3,-0.3,0.2,-0.4Z" class="g12_1" />
<path d="M305,1188.4c-0.1,0,-0.2,0.1,-0.2,0.1c-0.4,0.3,-0.5,0.4,-0.4,0.5c0,0.1,0.1,0.1,0.2,0.1c0.2,0,0.4,-0.1,0.5,-0.2c0.1,-0.1,0.2,-0.2,0.1,-0.3c0,-0.2,-0.1,-0.2,-0.2,-0.2Z" class="g12_1" />
<path d="M302.2,1187.2c-0.1,0,-0.2,0.1,-0.3,0.1l-0.1,0.2l-0.1,0.1c0,0,0,0.1,0.1,0.1c0,0.1,0.1,0.1,0.2,0.1c0,0,0.1,-0.1,0.2,-0.3c0.1,0,0.2,-0.2,0.1,-0.2c0,-0.1,-0.1,-0.1,-0.1,-0.1Z" class="g12_1" />
<path d="M314,1188.5c0.2,-0.5,0.4,-0.8,0.5,-1.1c0.1,-0.3,0.3,-0.6,0.4,-0.9c-0.1,-0.1,-0.3,-0.1,-0.5,-0.1c-0.1,0,-0.3,-0.1,-0.4,-0.1c-0.9,-0.2,-1.6,-0.4,-2.3,-0.6c-0.8,-0.2,-1.5,-0.3,-2.3,-0.4c-0.7,-0.3,-1.1,-0.5,-1.5,-0.7c-0.4,-0.2,-0.8,-0.3,-1.2,-0.4c-0.3,0,-0.5,0,-0.6,0c-0.2,0.1,-0.4,0.2,-0.5,0.4c-0.2,0.3,-0.5,0.5,-0.7,0.6c-0.2,0.1,-0.3,0.2,-0.1,0.3c0.2,0.2,0.6,0.1,0.9,0c0.4,-0.1,0.8,-0.3,1.1,-0.4c0.1,0.1,0.2,0.2,0.4,0.3c0.1,0.1,0.2,0.2,0.6,0.4c0.4,0.3,0.6,0.4,0.8,0.5c0.2,0.2,0.4,0.3,0.8,0.7c0.1,-0.1,0.2,-0.2,0.3,-0.3c0.1,-0.1,0.2,-0.2,0.3,-0.5c0,0,0,-0.2,0,-0.2c0.1,0,0.1,0,0.1,0.1c0.1,0.2,0.1,0.4,0,0.6c0,0.3,-0.1,0.5,-0.2,0.6c1.1,0.7,2.1,1,2.9,1.1c0.7,0.1,1.2,0.1,1.2,0.1Z" class="g12_1" />
<path d="M294.2,1181.9c0,0,-0.2,-0.1,-0.3,-0.2c0.1,0.1,0.2,0.2,0.3,0.3c0.1,0.1,0.2,0.2,0.2,0.3l0,-0.1c0,-0.1,-0.1,-0.2,-0.2,-0.3Z" class="g9_1" />
<path d="M295.7,1185.9c0,0,0,-0.1,0,-0.1c-0.1,-0.1,-0.1,-0.1,-0.1,-0.2c-0.1,0.4,-0.2,0.6,-0.3,0.7c0,0.2,-0.1,0.3,0,0.5l0,0.1c0,-0.2,0,-0.3,0.1,-0.5c0.1,-0.2,0.2,-0.3,0.3,-0.5Z" class="g9_1" />
<path d="M297.4,1192c-0.2,-0.1,-0.5,-0.1,-0.6,-0.1c0.3,0.2,0.3,0.3,0.3,0.5c0.1,0.1,0.1,0.2,0.5,0.3c0.2,-0.1,0.4,0,0.5,0.1c0.2,0,0.3,0.1,0.4,0.1c-0.1,-0.1,-0.2,-0.1,-0.3,-0.2c0,-0.1,-0.1,-0.1,-0.2,-0.2c0.1,0.1,0.1,0.1,0.2,0.1c0.1,0.1,0.2,0.1,0.3,0.1c0,0,0,-0.1,0.1,-0.1c0,-0.1,0.1,-0.2,0.1,-0.3c0,-0.3,-0.1,-0.4,-0.1,-0.5c-0.1,-0.1,-0.2,-0.3,-0.3,-0.5c0,0.2,-0.1,0.5,-0.1,0.6c-0.1,0.2,-0.1,0.4,-0.1,0.5c-0.1,-0.2,-0.4,-0.3,-0.7,-0.4Z" class="g10_1" />
<path d="M298.4,1193.1c-0.2,0,-0.5,0,-0.6,0c0.3,0.2,0.5,0.4,0.7,0.5c0.2,0.2,0.4,0.3,0.8,0.4c0.1,-0.1,0.2,-0.1,0.3,0c0.1,0,0.2,0.1,0.2,0.1c0,0,-0.1,-0.1,-0.1,-0.2c-0.1,-0.1,-0.2,-0.1,-0.2,-0.2c0,0.1,0.1,0.1,0.2,0.1c0.1,0.1,0.2,0.2,0.2,0.3c0,-0.1,-0.1,-0.3,-0.1,-0.5c0,-0.1,0,-0.2,0,-0.4c-0.1,-0.2,-0.2,-0.3,-0.3,-0.4c-0.1,-0.2,-0.2,-0.3,-0.3,-0.4c0,0.2,0,0.4,0,0.6c0,0.1,0,0.3,0,0.4c-0.1,-0.1,-0.5,-0.2,-0.8,-0.3Z" class="g10_1" />
<path d="M296.7,1190.4c0.1,0,0.1,0.1,0.2,0.1c-0.1,-0.1,-0.2,-0.1,-0.2,-0.2c-0.1,-0.1,-0.2,-0.1,-0.3,-0.2c0.1,0,0.2,0.1,0.3,0.1c0.1,0,0.1,0.1,0.2,0.1c0,0,0.1,0,0.1,-0.1c0.1,-0.1,0.2,-0.1,0.2,-0.3c0,-0.2,0,-0.4,-0.1,-0.5c0,-0.2,-0.1,-0.3,-0.1,-0.5c-0.1,0.2,-0.2,0.4,-0.3,0.6c-0.1,0.2,-0.1,0.3,-0.1,0.5c-0.1,-0.2,-0.4,-0.3,-0.6,-0.4c-0.3,-0.2,-0.6,-0.2,-0.7,-0.2c0.2,0.2,0.3,0.4,0.5,0.6c0.1,0.1,0.3,0.3,0.6,0.4c0.1,0,0.2,0,0.3,0Z" class="g10_1" />
<path d="M297.3,1190.6c0,0.2,0,0.3,0,0.4c-0.1,-0.1,-0.4,-0.2,-0.7,-0.3c-0.3,0,-0.5,-0.1,-0.6,0c0.2,0.2,0.3,0.3,0.5,0.5c0.1,0.1,0.3,0.2,0.6,0.3c0.2,-0.1,0.3,0,0.4,0c0,0,0.1,0,0.2,0c-0.1,0,-0.2,-0.1,-0.3,-0.1c-0.1,-0.1,-0.2,-0.2,-0.2,-0.2c0,0,0.1,0,0.2,0.1c0.1,0,0.2,0.1,0.3,0.1c0,-0.1,0,-0.1,0.1,-0.2c0,-0.1,0.1,-0.2,0.1,-0.3c0,-0.2,-0.1,-0.4,-0.2,-0.5c-0.1,-0.1,-0.2,-0.2,-0.3,-0.4c-0.1,0.1,0,0.4,-0.1,0.6Z" class="g10_1" />
<path d="M295.1,1187.7c0.1,0,0.2,0,0.3,0.1c0,0,0.1,0,0.1,0.1c0,-0.1,0,-0.2,0,-0.3c0,-0.1,-0.1,-0.2,-0.1,-0.3c0,0.1,0.1,0.1,0.1,0.2c0.1,0,0.1,0.2,0.2,0.3c0,-0.1,0,-0.2,0.1,-0.2c0,-0.1,0.1,-0.2,0.1,-0.3c0.1,-0.3,0.1,-0.5,0.1,-0.6c0,-0.2,-0.1,-0.3,-0.1,-0.5c-0.1,0.2,-0.3,0.4,-0.4,0.6c0,0.2,-0.1,0.4,-0.1,0.5c-0.1,-0.2,-0.4,-0.4,-0.6,-0.5c-0.2,-0.1,-0.5,-0.2,-0.6,-0.2c0.2,0.3,0.3,0.5,0.4,0.7c0.1,0.1,0.2,0.3,0.5,0.4Z" class="g10_1" />
<path d="M296.1,1189l0.1,0.1l0,-0.1c-0.1,-0.1,-0.1,-0.2,-0.2,-0.2c-0.1,-0.1,-0.2,-0.2,-0.3,-0.2c0.1,0,0.2,0,0.3,0.1c0.1,0,0.1,0.1,0.2,0.1c0,0,0.1,0,0.1,-0.1c0.1,-0.1,0.1,-0.1,0.2,-0.3c0,-0.3,0,-0.4,-0.1,-0.5c-0.1,-0.2,-0.1,-0.3,-0.2,-0.5c0,0.2,-0.1,0.4,-0.2,0.6c0,0.2,-0.1,0.4,0,0.5c-0.2,-0.1,-0.5,-0.3,-0.7,-0.4c-0.3,-0.1,-0.5,-0.1,-0.6,0c0.2,0.2,0.3,0.4,0.4,0.5c0.1,0.1,0.3,0.2,0.6,0.3c0.2,0,0.3,0,0.4,0.1Z" class="g10_1" />
<path d="M294.2,1184.7c0.1,0.1,0.2,0.1,0.3,0.2c0,0,0,0.1,0.1,0.1c-0.1,-0.1,0,-0.2,-0.1,-0.3c0,-0.1,0,-0.2,0,-0.3c0,0.1,0.1,0.1,0.1,0.2c0,0.1,0.1,0.1,0.1,0.2c0,0,0.1,0,0.1,-0.1c0.1,0,0.2,-0.1,0.2,-0.3c0.1,-0.2,0.2,-0.4,0.2,-0.5c0,-0.2,-0.1,-0.3,0,-0.6c-0.2,0.2,-0.3,0.4,-0.5,0.6c-0.1,0.2,-0.1,0.3,-0.2,0.5c0,-0.2,-0.2,-0.4,-0.4,-0.5c-0.1,-0.2,-0.3,-0.3,-0.4,-0.3c0.1,0.3,0.1,0.5,0.1,0.7c0,0.1,0.1,0.3,0.4,0.4Z" class="g10_1" />
<path d="M294.7,1186.1c0,0,0.1,0,0.1,0.1l0,-0.3c0,0,0,-0.1,-0.1,-0.1c0.1,0,0.2,0,0.2,0.1c0,0.1,0.1,0.1,0.1,0.2c0,-0.1,0,-0.1,0.1,-0.1c0.1,-0.1,0.2,-0.2,0.3,-0.4c0,-0.2,0,-0.4,0,-0.5c-0.1,-0.2,-0.1,-0.3,-0.1,-0.6c-0.1,0.2,-0.2,0.5,-0.3,0.7c-0.1,0.1,-0.2,0.3,-0.2,0.4c-0.1,-0.2,-0.3,-0.3,-0.6,-0.4c-0.2,-0.2,-0.4,-0.3,-0.5,-0.2c0.1,0.2,0.2,0.4,0.3,0.6c0.1,0.2,0.2,0.3,0.5,0.4c0.1,0.1,0.1,0.1,0.2,0.1Z" class="g10_1" />
<path d="M294.3,1183.1c0,0.1,0,0.1,0,0.1c0,0,0.1,-0.2,0.1,-0.2c0,0,0.2,0.1,0.2,0.2c0,-0.1,0.1,-0.1,0.1,-0.1c0.1,0,0.2,-0.1,0.3,-0.2c0.1,-0.2,0.1,-0.4,0,-0.5c0,-0.2,0,-0.3,0,-0.5c-0.1,0.1,-0.2,0.3,-0.3,0.4c-0.2,0.2,-0.3,0.3,-0.3,0.4c-0.1,-0.2,-0.2,-0.4,-0.4,-0.6c-0.2,-0.2,-0.5,-0.4,-0.6,-0.4c0.1,0.6,0.2,0.8,0.3,1c0,0.1,0.1,0.1,0.3,0.3c0.2,0.1,0.3,0.1,0.3,0.1Z" class="g10_1" />
<path d="M294,1181.4c0.2,0.1,0.2,0.1,0.3,0.2c0,0.1,0,0.1,0.1,0.2c0,-0.1,-0.1,-0.2,-0.1,-0.3c0,-0.1,-0.1,-0.2,-0.1,-0.3c0,0.1,0.1,0.1,0.2,0.2c0,0.1,0.1,0.2,0.1,0.2c0,0,0.1,0,0.2,0c0,0,0.1,-0.1,0.2,-0.2c0.2,-0.2,0.2,-0.3,0.2,-0.5c0,-0.1,0,-0.3,0,-0.5c-0.1,0.2,-0.3,0.3,-0.5,0.4c-0.1,0.1,-0.2,0.3,-0.2,0.4c0,-0.2,-0.2,-0.5,-0.3,-0.7c-0.2,-0.2,-0.5,-0.4,-0.6,-0.4c0.1,0.3,0.1,0.5,0.1,0.7c0.1,0.2,0.2,0.3,0.4,0.6Z" class="g10_1" />
<path d="M315,1174.3c0,0,0.1,0,0.1,0c0,0,-0.1,0,-0.1,0c-0.1,-0.1,-0.1,-0.1,-0.2,-0.1c0,0,0.1,0,0.1,0.1l0.1,0Z" class="g9_1" />
<path d="M315.9,1187.1l0.1,0c0,-0.3,0,-0.4,-0.1,-0.6c-0.1,-0.2,-0.2,-0.3,-0.3,-0.7c0,0,0,0.1,-0.1,0.1c0,0.1,0,0.1,0,0.2c0.1,0.1,0.2,0.3,0.3,0.5c0.1,0.1,0.2,0.3,0.1,0.5Z" class="g9_1" />
<path d="M316.4,1186.7c0,0,-0.1,0,-0.1,0.1c0,-0.1,0.1,-0.1,0.1,-0.1c0.1,-0.1,0.1,-0.1,0.2,-0.1c-0.1,0,-0.1,0,-0.2,0.1Z" class="g9_1" />
<path d="M316.7,1184l0,-0.1l-0.1,0c0.1,0,0.1,0.1,0.1,0.1c0,0,0,0.1,0,0.1Z" class="g9_1" />
<path d="M317,1183.6c0,0,-0.1,0.1,-0.1,0.1c0.1,0,0.1,-0.1,0.1,-0.1c0.1,-0.1,0.1,-0.1,0.2,-0.1c-0.1,0,-0.2,0,-0.2,0.1Z" class="g9_1" />
<path d="M314.4,1191c-0.3,0.1,-0.5,0.2,-0.6,0.3c0,-0.1,0,-0.2,0,-0.4c0,-0.2,-0.1,-0.4,-0.2,-0.7c0,0.2,-0.2,0.3,-0.2,0.4c-0.1,0.2,-0.2,0.3,-0.2,0.6c0,0.2,0.1,0.3,0.2,0.3c0,0.1,0.1,0.2,0,0.3c0.1,0,0.1,0,0.2,-0.1c0.1,0,0.2,0,0.4,0c0.3,0,0.5,0,0.6,-0.2c0.2,-0.1,0.3,-0.4,0.5,-0.6c-0.1,0,-0.4,0,-0.7,0.1Z" class="g10_1" />
<path d="M296.2,1172.7l0,0.1c0,0,0,-0.1,0.1,-0.2c0,-0.1,0,-0.2,0,-0.3c0,0.1,0,0.1,0.1,0.2l0,0.3c0,0,0.1,0,0.2,0c0,0,0.2,0,0.3,-0.1c0.3,-0.1,0.4,-0.3,0.4,-0.4c0.1,-0.1,0.3,-0.3,0.4,-0.5c-0.2,0.1,-0.5,0.2,-0.7,0.3c-0.2,0.1,-0.4,0.1,-0.5,0.2c0.1,-0.2,0.1,-0.5,0.1,-0.7c0,-0.2,-0.1,-0.5,-0.2,-0.5c-0.1,0.3,-0.2,0.5,-0.3,0.6c-0.1,0.2,-0.1,0.4,-0.1,0.7c0.1,0.1,0.2,0.2,0.2,0.3Z" class="g10_1" />
<path d="M295.7,1174c0.1,0,0.1,-0.1,0.1,-0.2c0,-0.1,0,-0.2,0,-0.3c0,0.1,0,0.1,0.1,0.2c0,0.1,0,0.2,0,0.3c0.1,-0.1,0.1,0,0.2,-0.1c0.1,0,0.2,0,0.3,-0.1c0.2,-0.2,0.3,-0.3,0.4,-0.4c0.1,-0.2,0.1,-0.3,0.3,-0.5c-0.3,0.1,-0.5,0.2,-0.7,0.3c-0.2,0.1,-0.3,0.2,-0.4,0.3c0,-0.2,0,-0.5,-0.1,-0.7c-0.1,-0.3,-0.2,-0.5,-0.3,-0.5c0,0.3,-0.1,0.5,-0.2,0.7c0,0.2,0,0.3,0.1,0.6c0.1,0.2,0.2,0.2,0.2,0.3c0,0.1,0,0.1,0,0.1Z" class="g10_1" />
<path d="M298,1170c0.1,0,0.1,-0.1,0.1,-0.2c0.1,0,0.1,0,0.2,-0.1l-0.1,0.1l0,0.3c0,0,0.1,0,0.1,0c0.1,0.1,0.2,0.1,0.4,0.1c0.2,0,0.3,-0.1,0.4,-0.2c0.2,-0.1,0.3,-0.2,0.4,-0.3c-0.2,0,-0.4,-0.1,-0.6,-0.1c-0.2,0,-0.3,0,-0.5,0.1c0.2,-0.2,0.2,-0.5,0.3,-0.8c0,-0.2,0,-0.5,-0.1,-0.6c-0.2,0.3,-0.3,0.4,-0.4,0.6c-0.1,0.1,-0.1,0.3,-0.2,0.6c0.1,0.2,0.1,0.3,0.1,0.3c0,0.1,0,0.2,-0.1,0.2Z" class="g10_1" />
<path d="M297.2,1171.1c-0.1,0.1,-0.1,0.1,-0.1,0.2c0.1,-0.1,0.1,-0.2,0.1,-0.3c0.1,-0.1,0.1,-0.2,0.1,-0.3l0,0.3c0,0.1,0,0.2,0,0.3c0,0,0.1,0,0.1,0c0.1,0.1,0.2,0.1,0.3,0c0.3,0,0.4,-0.1,0.5,-0.2c0.1,-0.1,0.2,-0.3,0.3,-0.4c-0.2,0,-0.4,0,-0.5,0c-0.2,0,-0.4,0,-0.5,0.1c0.1,-0.2,0.1,-0.5,0.1,-0.8c0,-0.3,0,-0.5,-0.1,-0.6c-0.1,0.3,-0.3,0.5,-0.3,0.7c-0.1,0.1,-0.1,0.3,-0.1,0.6c0,0.2,0.1,0.3,0.1,0.4Z" class="g10_1" />
<path d="M300.3,1168c0.1,0,0.2,-0.1,0.2,-0.2c0,0.1,0,0.2,-0.1,0.2c0,0.1,0,0.2,-0.1,0.3c0.1,0,0.1,0,0.2,0.1c0,0,0.1,0.1,0.3,0.1c0.2,0,0.3,0,0.5,-0.1c0.1,0,0.3,-0.1,0.4,-0.2c-0.1,0,-0.4,-0.1,-0.6,-0.1c-0.2,-0.1,-0.3,-0.1,-0.5,-0.1c0.3,-0.2,0.3,-0.4,0.4,-0.7c0.2,-0.2,0.2,-0.4,0.2,-0.5c-0.3,0.2,-0.5,0.3,-0.6,0.3c-0.2,0.2,-0.3,0.3,-0.4,0.6c0,0.2,0,0.3,0,0.4c0,0.1,-0.1,0.1,-0.1,0.2c0.1,-0.1,0.2,-0.2,0.2,-0.3Z" class="g10_1" />
<path d="M299.2,1169.1c0,-0.1,0.1,-0.2,0.2,-0.3c0,0,0,-0.1,0.1,-0.2c-0.1,0.1,-0.1,0.1,-0.1,0.2c0,0.1,0,0.2,0,0.3c0,0,0,0.1,0.1,0.1c0.1,0,0.2,0.1,0.3,0.1c0.3,0,0.4,-0.1,0.5,-0.2c0.2,-0.1,0.3,-0.2,0.4,-0.3c-0.1,0,-0.4,-0.1,-0.6,-0.1c-0.2,0,-0.3,0,-0.5,0c0.2,-0.1,0.3,-0.4,0.3,-0.7c0.1,-0.3,0.1,-0.5,0.1,-0.6c-0.2,0.2,-0.4,0.4,-0.5,0.5c-0.1,0.2,-0.3,0.3,-0.3,0.6c0.1,0.2,0.1,0.3,0,0.4c0,0.1,0,0.1,0,0.2Z" class="g10_1" />
<path d="M303.5,1166.5c0,0.1,-0.1,0.2,-0.1,0.3c-0.1,0,-0.2,0.1,-0.3,0.2c0.1,0,0.1,0.1,0.1,0.1c0.1,0,0.1,0.1,0.3,0.2c0.2,0.1,0.2,0.1,0.5,0.1c0.1,-0.1,0.3,-0.1,0.5,-0.1c-0.2,-0.1,-0.3,-0.2,-0.5,-0.3c-0.1,-0.1,-0.3,-0.2,-0.4,-0.2c0.2,-0.1,0.4,-0.3,0.6,-0.5c0.2,-0.3,0.3,-0.5,0.3,-0.6c-0.3,0.2,-0.5,0.2,-0.7,0.3c-0.1,0,-0.3,0.1,-0.5,0.4c-0.1,0.2,-0.1,0.3,-0.2,0.3c0,0.1,-0.1,0.1,-0.1,0.2c0.1,-0.1,0.2,-0.1,0.3,-0.2c0.1,0,0.1,-0.1,0.2,-0.2Z" class="g10_1" />
<path d="M302,1167c-0.1,0.1,-0.1,0.2,-0.2,0.2c0,0.1,-0.1,0.2,-0.1,0.3l0,0.1c0.1,0.1,0.1,0.1,0.3,0.2c0.2,0.1,0.4,0.1,0.5,0c0.2,0,0.3,-0.1,0.5,-0.2c-0.2,0,-0.3,-0.1,-0.5,-0.2c-0.2,-0.1,-0.3,-0.2,-0.5,-0.2c0.3,-0.1,0.6,-0.3,0.8,-0.7c0.2,-0.2,0.2,-0.4,0.2,-0.5c-0.3,0.2,-0.5,0.2,-0.7,0.3c-0.2,0.1,-0.5,0.2,-0.6,0.6c0,0.2,0,0.3,-0.1,0.3c0,0.1,-0.1,0.1,-0.1,0.2c0.1,-0.1,0.2,-0.1,0.2,-0.2c0.1,0,0.2,-0.1,0.3,-0.2Z" class="g10_1" />
<path d="M306.1,1166.6c0,0.1,0,0.2,0.2,0.4c0.2,0.1,0.3,0.2,0.5,0.2c0.1,0,0.3,0,0.5,0.1c-0.2,-0.2,-0.4,-0.4,-0.5,-0.6c-0.1,-0.1,-0.2,-0.2,-0.3,-0.2c0.1,-0.1,0.4,-0.2,0.6,-0.3c0.3,-0.2,0.4,-0.4,0.5,-0.5c-0.3,0.1,-0.5,0,-0.7,0.1c-0.2,0,-0.4,0,-0.7,0.2c-0.1,0.2,-0.1,0.3,-0.2,0.3c0,0.1,-0.1,0.1,-0.1,0.1c0.1,0.1,0.2,0.1,0.2,0.2Z" class="g10_1" />
<path d="M304.8,1166.5c0.1,0,0.2,-0.1,0.2,-0.2c0,0.1,-0.1,0.2,-0.1,0.3c-0.1,0,-0.2,0.1,-0.2,0.1c0,0.1,0,0.1,0,0.2c0.1,0.1,0.1,0.1,0.3,0.2c0.2,0.1,0.3,0.1,0.5,0.1c0.1,0,0.3,0,0.5,0c-0.2,-0.1,-0.3,-0.2,-0.5,-0.4c-0.2,-0.1,-0.3,-0.2,-0.4,-0.2c0.2,-0.1,0.4,-0.2,0.6,-0.5c0.2,-0.2,0.4,-0.5,0.3,-0.6c-0.2,0.2,-0.4,0.2,-0.7,0.3c-0.2,0,-0.3,0.1,-0.5,0.4c0,0.2,-0.1,0.3,-0.1,0.3c-0.1,0.1,-0.1,0.1,-0.2,0.1c0.1,0,0.2,0,0.3,-0.1Z" class="g10_1" />
<path d="M315.9,1188.3c-0.3,0.1,-0.4,0.2,-0.6,0.4c0,-0.1,0,-0.3,0,-0.5c-0.1,-0.2,-0.2,-0.4,-0.2,-0.7c-0.1,0.3,-0.2,0.4,-0.2,0.5c-0.1,0.2,-0.1,0.3,-0.1,0.6c0,0.1,0.1,0.2,0.1,0.3c0.1,0.1,0.1,0.1,0.2,0.1c0,0,0.1,-0.1,0.2,-0.1c0,0,0.1,0,0.2,-0.1c-0.1,0.1,-0.2,0.1,-0.2,0.2c-0.1,0.1,-0.1,0.2,-0.2,0.2c0.1,0,0.1,0,0.2,-0.1c0,0,0.1,0,0.3,0c0.3,-0.1,0.5,-0.2,0.6,-0.4c0.2,-0.1,0.2,-0.3,0.3,-0.5c-0.1,-0.1,-0.4,-0.1,-0.6,0.1Z" class="g10_1" />
<path d="M315.1,1189.7c-0.3,0,-0.4,0.3,-0.5,0.4c0,-0.1,0,-0.3,-0.1,-0.4c-0.1,-0.2,-0.2,-0.4,-0.2,-0.7c-0.1,0.3,-0.2,0.4,-0.2,0.5c-0.1,0.2,-0.1,0.3,-0.1,0.5c0.1,0.2,0.1,0.3,0.2,0.4c0,0,0.1,0.1,0.1,0.1c0.1,0,0.2,-0.1,0.2,-0.1c0.1,-0.1,0.2,-0.1,0.3,-0.1c-0.1,0,-0.2,0.1,-0.2,0.2c-0.1,0.1,-0.2,0.1,-0.2,0.2c-0.2,0.1,-0.1,0.1,0.1,0c-0.2,0.1,0.5,-0.1,0.4,-0.1c0.3,-0.1,0.4,-0.3,0.5,-0.5c0.1,-0.1,0.2,-0.3,0.4,-0.5c-0.1,-0.1,-0.5,-0.1,-0.7,0.1Z" class="g10_1" />
<path d="M313.7,1192.2c-0.3,0.1,-0.7,0.2,-0.8,0.4c0.1,-0.1,0,-0.3,0,-0.5c0,-0.2,0,-0.5,-0.1,-0.7c0,0.2,-0.2,0.5,-0.3,0.6c-0.1,0.1,-0.1,0.2,-0.1,0.5c0,0.2,0,0.3,0,0.3c0.1,0.1,0.2,0.1,0.2,0.1c0.1,0,0.4,-0.1,0.5,-0.1c-0.1,0,-0.2,0.1,-0.2,0.1c-0.1,0.1,-0.2,0.2,-0.3,0.2c0.1,0,0.1,0,0.2,0c0.1,-0.1,0.1,-0.1,0.3,-0.1c0.4,0,0.7,-0.2,0.8,-0.3c0.1,-0.2,0.1,-0.4,0.4,-0.6c-0.1,0,-0.3,0,-0.6,0.1Z" class="g10_1" />
<path d="M312.7,1193.3c-0.4,0,-0.7,0.1,-0.9,0.2c0.1,-0.1,0.1,-0.2,0.1,-0.4c0,-0.2,0,-0.4,0,-0.6c-0.1,0.2,-0.2,0.3,-0.4,0.4c-0.1,0.1,-0.2,0.2,-0.2,0.4c0,0.2,0,0.3,0,0.4l0,0.3c0,-0.1,0.1,-0.1,0.2,-0.1c0,-0.1,0.1,-0.1,0.2,-0.1c-0.1,0,-0.1,0.1,-0.2,0.2c-0.1,0.1,-0.2,0.1,-0.2,0.2c0.1,0,0.1,0,0.2,-0.1c0.1,0,0.3,-0.2,0.5,-0.1c0.3,0,0.5,-0.1,0.7,-0.3c0.2,-0.1,0.3,-0.3,0.6,-0.4c-0.1,-0.1,-0.3,-0.1,-0.6,0Z" class="g10_1" />
<path d="M316.4,1186.9c-0.2,0.2,-0.4,0.4,-0.5,0.6c0,-0.2,0.1,-0.2,0.1,-0.4c-0.1,-0.4,-0.5,-0.6,-0.6,-0.8c0,0.2,0,0.4,-0.1,0.5c0,0.2,0,0.4,0.1,0.6c0,0.2,0.1,0.3,0.1,0.3c0.1,0.1,0.2,0.1,0.2,0.1c0.1,0,0.1,-0.1,0.2,-0.1c0.1,-0.1,0.1,-0.1,0.2,-0.1c0,0,-0.1,0.1,-0.2,0.2c0,0.1,-0.1,0.1,-0.1,0.2l0.1,-0.1c0.1,0,0.2,-0.1,0.3,-0.1c0.3,-0.1,0.4,-0.3,0.5,-0.4c0.1,-0.2,0.2,-0.5,0.4,-0.7c-0.1,-0.1,-0.4,0.1,-0.7,0.2Z" class="g10_1" />
<path d="M317.2,1183.9c-0.2,0.2,-0.4,0.4,-0.5,0.6c0,-0.1,-0.1,-0.3,-0.2,-0.4c-0.1,-0.2,-0.3,-0.4,-0.4,-0.7c0,0.3,-0.1,0.5,-0.1,0.6c0,0.2,0.1,0.3,0.2,0.6c0.1,0.1,0.2,0.3,0.2,0.4c0.1,0,0.2,-0.1,0.2,0c0.1,-0.1,0.1,-0.2,0.2,-0.2c0,-0.1,0.1,-0.1,0.2,-0.2c-0.1,0.1,-0.1,0.2,-0.2,0.3c0,0.1,-0.1,0.2,-0.1,0.3c0.1,-0.1,0.1,-0.1,0.1,-0.2c0.1,0,0.1,-0.1,0.3,-0.1c0.3,-0.2,0.4,-0.4,0.4,-0.6c0,-0.2,0,-0.4,0.1,-0.7c-0.1,0,-0.3,0.1,-0.4,0.3Z" class="g10_1" />
<path d="M316.8,1185.3c-0.2,0.2,-0.3,0.3,-0.4,0.5c0,-0.1,0,-0.3,-0.1,-0.5c-0.1,-0.1,-0.2,-0.4,-0.3,-0.6c0,0.2,-0.1,0.4,-0.1,0.5c-0.1,0.2,-0.1,0.3,0,0.6c0.1,0.2,0.2,0.3,0.2,0.3c0.1,0.1,0.1,0.1,0.2,0.1c0,0,0.1,-0.1,0.1,-0.1c0.1,-0.1,0.2,-0.1,0.2,-0.1c0,0,-0.1,0.1,-0.2,0.2c0,0.1,0,0.1,-0.1,0.2c0.1,0,0.1,-0.1,0.1,-0.1c0.1,0,0.2,0,0.4,-0.1c0.3,-0.1,0.4,-0.3,0.4,-0.5c0.1,-0.2,0.2,-0.4,0.3,-0.7c-0.1,0,-0.5,0.2,-0.7,0.3Z" class="g10_1" />
<path d="M316.2,1180.4c0,0.3,0,0.4,0,0.6c0.1,0.1,0,0.3,0.1,0.5c0.2,0.3,0.5,0.2,0.6,0.2c0,-0.1,0,-0.2,0.1,-0.3c0.1,0,0.1,-0.1,0.2,-0.2c-0.1,0.1,-0.2,0.3,-0.2,0.4c0,0.1,-0.1,0.2,-0.1,0.3c0.1,0,0.2,-0.2,0.2,-0.2c-0.1,0.1,0.3,-0.2,0.3,-0.2c0.2,-0.3,0.3,-0.6,0.3,-0.8c0,-0.2,0,-0.4,0.1,-0.7c-0.1,0,-0.4,0.2,-0.5,0.5c-0.2,0.2,-0.3,0.5,-0.4,0.7c0,-0.1,-0.1,-0.2,-0.3,-0.4c-0.1,-0.1,-0.3,-0.2,-0.4,-0.4Z" class="g10_1" />
<path d="M317.2,1182.2c-0.2,0.2,-0.3,0.4,-0.4,0.7c0,-0.2,-0.1,-0.3,-0.2,-0.5c-0.1,-0.1,-0.3,-0.3,-0.4,-0.4c0,0.2,0,0.3,0,0.5c0,0.2,-0.1,0.3,0.1,0.5c0,0.2,0.1,0.2,0.1,0.3c0.1,0,0.2,0,0.3,0.1c0,-0.1,0.1,-0.3,0.1,-0.3c0.1,-0.1,0.2,-0.1,0.3,-0.2c-0.1,0.1,-0.2,0.2,-0.2,0.3c-0.1,0.1,-0.1,0.2,-0.2,0.3c0.1,-0.1,0.1,-0.1,0.2,-0.2c0,-0.1,0.1,-0.1,0.3,-0.2c0.3,-0.2,0.4,-0.4,0.4,-0.6c0.1,-0.2,0.1,-0.5,0.2,-0.7c-0.1,0,-0.4,0.2,-0.6,0.4Z" class="g10_1" />
<path d="M315.8,1177.4c0.1,0.2,0.1,0.3,0.2,0.5c0,0.1,0.1,0.4,0.3,0.5c0.1,0.1,0.2,0.2,0.3,0.2c0,0,0,-0.1,0.1,-0.1c0,-0.1,0.1,-0.1,0.1,-0.2c0.1,-0.1,0,0.1,0,0.1c0,0,0.1,-0.2,0.1,-0.1c-0.1,0.2,0,0.3,0,0.4c0,0,0,-0.2,0.1,-0.2c0,-0.1,0.1,-0.2,0.2,-0.3c0.2,-0.3,0.3,-0.5,0.2,-0.7c0,-0.2,-0.1,-0.3,0,-0.6c-0.1,0,-0.3,0.2,-0.4,0.4c-0.1,0.3,-0.3,0.5,-0.3,0.7c-0.1,-0.1,-0.2,-0.2,-0.3,-0.3c-0.2,-0.1,-0.4,-0.2,-0.6,-0.3Z" class="g10_1" />
<path d="M317.2,1178.7c-0.2,0.2,-0.3,0.5,-0.4,0.7c0,-0.1,-0.1,-0.2,-0.3,-0.4c-0.1,-0.1,-0.3,-0.2,-0.4,-0.4c0,0.2,0,0.4,0,0.5c0,0.2,0.1,0.4,0.2,0.6c0.1,0.1,0.4,0.1,0.4,0.2c0.1,-0.1,0.2,-0.3,0.3,-0.4c-0.1,0.1,-0.1,0.5,-0.1,0.6c0,-0.1,0.2,-0.4,0.4,-0.5c0.2,-0.2,0.3,-0.4,0.4,-0.6c0,-0.2,0,-0.4,0,-0.7c-0.1,0.1,-0.3,0.2,-0.5,0.4Z" class="g10_1" />
<path d="M314.9,1174.6c0.1,0.2,0.2,0.3,0.2,0.5c0.1,0.1,0.2,0.2,0.4,0.3c0.2,0.1,0.3,0.2,0.3,0.2c0.1,0,0.2,0,0.2,0c0,-0.1,0.1,-0.2,0.1,-0.3c0,0,0.1,-0.1,0.1,-0.2c0,0.1,0,0.2,0,0.3c0,0.1,0,0.3,0,0.4c0,-0.1,0,-0.2,0.1,-0.3c0,-0.1,0,-0.1,0.1,-0.3c0.2,-0.2,0.2,-0.5,0.1,-0.7c0,-0.2,-0.1,-0.3,-0.2,-0.6c-0.1,0,-0.2,0.2,-0.3,0.5c0,0.2,-0.1,0.5,-0.1,0.7c0,-0.1,-0.2,-0.1,-0.4,-0.2c-0.2,-0.1,-0.4,-0.2,-0.6,-0.3Z" class="g10_1" />
<path d="M316.3,1176.4c-0.1,-0.2,-0.2,-0.2,-0.4,-0.4c-0.2,-0.1,-0.4,-0.2,-0.6,-0.3c0.1,0.2,0.1,0.3,0.2,0.5c0,0.1,0.1,0.2,0.3,0.4c0.1,0.1,0.2,0.2,0.3,0.2c0.1,0,0.1,0,0.2,0c0,-0.1,0.1,-0.1,0.1,-0.2c0,-0.1,0.1,-0.2,0.1,-0.2c0,0.1,-0.1,0.2,-0.1,0.3l0,0.3c0.1,-0.1,0.1,-0.2,0.1,-0.2c0,-0.1,0.1,-0.2,0.2,-0.3c0.2,-0.2,0.4,-0.4,0.3,-0.6c0,-0.2,-0.1,-0.4,-0.1,-0.7c-0.1,0,-0.3,0.2,-0.4,0.4c-0.3,0.6,-0.2,0.3,-0.2,0.8Z" class="g10_1" />
<path d="M313.4,1171.8c0.1,0.1,0.2,0.3,0.3,0.4c0.1,0.2,0.2,0.3,0.4,0.4c0.2,0.1,0.3,0.1,0.4,0.1c0.1,0,0.2,0.1,0.3,0.1c0,-0.1,-0.1,-0.2,-0.1,-0.3c0.1,-0.1,0,-0.2,0.1,-0.2c0,0.1,0,0.1,0,0.2c0,0.1,0.1,0.3,0.1,0.3l0,-0.1c0,-0.1,0.1,-0.3,0.2,-0.4c0.1,-0.3,0.1,-0.5,0,-0.7c-0.1,-0.2,-0.2,-0.4,-0.3,-0.7c-0.1,0.1,-0.3,0.4,-0.3,0.6c-0.1,0.3,0,0.5,0,0.7c-0.1,-0.1,-0.3,-0.2,-0.5,-0.2c-0.2,-0.1,-0.7,-0.3,-0.6,-0.2Z" class="g10_1" />
<path d="M315.1,1173.4c-0.1,-0.1,-0.2,-0.2,-0.4,-0.3c-0.2,-0.1,-0.5,-0.2,-0.6,-0.3c0.1,0.2,0.1,0.4,0.2,0.5c0,0.2,0.1,0.3,0.4,0.4c0.1,0.1,0.2,0.2,0.3,0.2l0.2,0c0,-0.1,0,-0.2,0.1,-0.2c0,-0.1,0,-0.2,0,-0.3c0,0.1,0,0.2,0,0.3c0,0.1,0,0.2,0.1,0.3c0,-0.1,0,-0.1,0,-0.2c0,0,0.1,-0.1,0.2,-0.2c0.1,-0.3,0.2,-0.5,0.1,-0.7c-0.1,-0.2,-0.1,-0.5,-0.2,-0.8c-0.1,0.1,-0.2,0.3,-0.3,0.6c-0.1,0.2,-0.1,0.5,-0.1,0.7Z" class="g10_1" />
<path d="M311.9,1170c0.1,0.1,0.3,0.2,0.5,0.2c0.2,0,0.3,0,0.4,0c0,-0.1,0.1,-0.1,0.1,-0.1c0,-0.1,-0.1,-0.2,-0.1,-0.3l0,-0.3c0,0.1,0.1,0.2,0.1,0.3c0.1,0.1,0.1,0.2,0.1,0.3c0,-0.1,0,-0.2,0,-0.2c0,-0.1,0,-0.2,0,-0.4c0,-0.4,0,-0.5,-0.1,-0.7c-0.1,-0.1,-0.3,-0.2,-0.4,-0.5c-0.1,0.1,-0.1,0.4,-0.1,0.6c0,0.3,0,0.6,0.2,0.7c-0.1,0,-0.3,0,-0.5,0c-0.2,0,-0.4,0,-0.6,0c0.2,0.2,0.3,0.3,0.4,0.4Z" class="g10_1" />
<path d="M312.9,1170.9c0.1,0.2,0.2,0.3,0.4,0.3c0.2,0.1,0.3,0.1,0.4,0.1c0,-0.1,0.1,-0.1,0.1,-0.2c0,0,0,-0.1,0,-0.2l0,-0.3c0,0.1,0,0.2,0.1,0.3c0,0.1,0,0.2,0.1,0.3c0,-0.1,0,-0.1,0,-0.2c0,-0.1,0,-0.2,0,-0.4c0,-0.3,0,-0.5,-0.1,-0.7c-0.1,-0.1,-0.2,-0.3,-0.3,-0.5c-0.1,0,-0.1,0.3,-0.1,0.5c0,0.3,0,0.6,0.1,0.8c-0.1,-0.1,-0.3,-0.1,-0.5,-0.1c-0.2,0,-0.4,0,-0.6,-0.1c0.2,0.2,0.3,0.3,0.4,0.4Z" class="g10_1" />
<path d="M310.2,1167.6c-0.2,0,-0.4,0,-0.5,0.1c-0.2,0,-0.4,0.1,-0.7,0.1c0.3,0.1,0.4,0.2,0.5,0.3c0.1,0,0.3,0.1,0.6,0.1c0.2,-0.1,0.3,-0.1,0.4,-0.1c0,-0.1,0.1,-0.1,0.1,-0.2c-0.1,0,-0.1,-0.1,-0.2,-0.2c0,-0.1,0,-0.2,0,-0.4c0,0,0,0.1,0.1,0.2c0,0,0.1,0.1,0.1,0.2l0,-0.2l0.1,-0.1c-0.1,-0.3,-0.3,-0.5,-0.5,-0.6c-0.2,-0.1,-0.4,-0.2,-0.6,-0.4c0,0.1,0,0.4,0.1,0.6c0.1,0.2,0.3,0.4,0.5,0.6Z" class="g10_1" />
<path d="M310.7,1168.8c0.1,0.1,0.2,0.2,0.5,0.2c0.2,0,0.3,0,0.3,-0.1c0.1,0,0.1,0,0.2,-0.1c-0.1,0,-0.1,-0.1,-0.1,-0.2c0,-0.1,0,-0.2,0,-0.3c0,0.1,0,0.2,0.1,0.3c0,0.1,0.1,0.2,0.1,0.2c0,0,0,-0.1,0,-0.1c0,-0.1,0,-0.2,0,-0.4c0,-0.3,-0.1,-0.5,-0.2,-0.7c-0.2,-0.1,-0.3,-0.3,-0.5,-0.5c-0.1,0.1,-0.1,0.4,0,0.6c0,0.3,0.1,0.6,0.3,0.8c-0.1,-0.1,-0.4,-0.1,-0.6,-0.1c-0.2,0,-0.3,0.1,-0.5,0.1c0.2,0.1,0.3,0.2,0.4,0.3Z" class="g10_1" />
<path d="M307.7,1166.4c0.1,0,0.2,0,0.2,0c-0.1,0.1,-0.1,0.1,-0.2,0.1c-0.1,0,-0.2,0,-0.3,0c0.1,0.2,0.6,0.2,1,0.1c0.4,-0.1,1.1,-0.5,1.1,-0.6c-0.2,0.1,-0.4,0,-0.5,-0.1c-0.1,0,-0.4,0,-0.6,0c-0.3,-0.1,-0.4,0.1,-0.5,0.2c-0.2,0.1,-0.3,0.2,-0.4,0.3c0,0,0.1,0,0.2,0Z" class="g10_1" />
<path d="M309.3,1167.1c0,-0.2,-0.1,-0.3,-0.3,-0.3c-0.2,0.1,-0.3,0.1,-0.5,0.2c-0.1,0,-0.2,0,-0.3,0.1c0.1,0,0.2,0,0.3,0c0.1,0.1,0.2,0.1,0.3,0.1c-0.2,0,-0.3,0,-0.5,0c-0.2,0,-0.3,-0.1,-0.4,-0.1c-0.1,0,-0.2,0,-0.2,0c-0.1,0,0,0.2,0.2,0.3c0.2,0.1,0.5,0.2,0.7,0.2c0.3,-0.1,0.4,-0.1,0.6,-0.2c0.1,0,0.2,-0.1,0.3,-0.1c-0.1,0,-0.1,-0.1,-0.2,-0.2Z" class="g10_1" />
<path d="M307,1173.6l-0.1,0l0.1,0Z" class="g9_1" />
<path d="M305.8,1188.8c-0.1,0,-0.1,0,0,0c0,0,0.1,0.1,0,0Z" class="g9_1" />
<path d="M295,1180.1c0,0.1,-0.1,0.1,-0.2,0.2c-0.1,0,-0.1,0.1,-0.2,0.2c0.1,-0.1,0.1,-0.2,0.2,-0.3c0.1,-0.1,0.1,-0.2,0.2,-0.3l0,0.1c0,0,0,0.1,0,0.1Z" class="g9_1" />
<path d="M296.3,1174.3c-0.1,0,-0.2,0.1,-0.2,0.1c-0.1,0,-0.2,0,-0.2,0.1c0,-0.1,0.1,-0.1,0.2,-0.2c0,0,0.1,-0.1,0.3,-0.1c0,0,-0.1,0,-0.1,0c0,0.1,0,0.1,0,0.1Z" class="g9_1" />
<path d="M304,1175.9c-0.2,0,-0.4,0,-0.6,0.1c-0.2,0.1,-0.4,0.2,-0.7,0.2c0,0,0.1,-0.3,0.2,-0.7c0.2,-0.4,0.5,-1,1,-1.6c0.2,-0.3,0.6,-0.5,1,-0.8c0.3,-0.2,0.7,-0.4,1,-0.5l-0.1,-0.1c-0.2,0,-0.6,0.1,-1,0.1c-0.4,0,-0.8,-0.1,-1,-0.3c0,-0.3,0.2,-0.6,0.5,-0.8c0.3,-0.2,0.7,-0.4,1.2,-0.4c0.3,-0.1,0.6,0,0.8,0.1c0.3,0.1,0.5,0.2,0.7,0.3c0.3,0.2,0.5,0.5,0.7,0.7c0.1,0.3,0.2,0.6,0.2,0.9c-0.3,0.1,-0.5,0.3,-0.7,0.4c-0.1,0.1,-0.2,0.1,-0.2,0.1c0.1,0,0.1,0,0.2,0.1l0.2,0c0.2,0,0.3,0,0.4,0c0,0,0.1,0,0.2,-0.1l0,0.4c0,0,0.1,0.1,0.1,0.1c-0.6,0.2,-0.9,0.4,-1.1,0.5c-0.3,0.1,-0.4,0.2,-0.7,0.2c0,0,-0.1,0,-0.2,0c-0.1,0.1,-0.1,0.1,-0.1,0.1c0,0,0.2,0,0.3,0c0.1,0.1,0.3,0.1,0.4,0.1c0.2,0,0.4,-0.1,0.7,-0.1c0.2,-0.1,0.5,-0.2,0.7,-0.3c0,0.1,0,0.3,0.1,0.4c0,0,0.1,0.1,0.3,0.2c-0.7,0.3,-1.1,0.5,-1.3,0.6c-0.3,0,-0.5,0,-0.5,0l-0.5,-0.1l-0.4,-0.1c0.1,0,0.3,0.2,0.5,0.3c0.2,0.1,0.4,0.2,0.6,0.3c0.3,0,0.5,-0.1,0.9,-0.2c0.3,-0.1,0.6,-0.2,0.8,-0.3l0.1,0.3l0.1,0.2c-0.4,0,-0.8,0.3,-1.2,0.5c-0.4,0.3,-0.9,0.4,-1.5,0.2c-0.3,-0.2,-0.6,-0.5,-0.9,-0.7c-0.4,-0.2,-0.7,-0.3,-1.2,-0.3Z" class="g13_1" />
<path d="M305.1,1177.3l-1,0c-0.2,0,-0.5,0,-0.5,0c-0.1,0,-0.4,-0.1,-0.6,-0.2c-0.2,-0.2,-0.3,-0.3,-0.3,-0.3c0,-0.1,0.1,0,0.2,-0.1c0.2,0,0.4,-0.1,0.7,-0.2c0.4,-0.2,0.8,0,1,0.2c0.3,0.3,0.5,0.6,0.5,0.6Z" class="g13_1" />
<path d="M310,1166.1l0.1,0l-0.1,0Z" class="g1_1" />
<path d="M307.8,1177.2c0.6,-0.3,0.9,-0.4,1,-0.4c0.1,-0.1,0.1,0,0.1,0c0,0.1,-0.1,0.2,-0.2,0.4c-0.1,0.1,-0.2,0.1,-0.2,0.1l-0.6,0c-0.2,0.1,-0.5,0.1,-0.7,0.1c0.2,0,0.2,-0.1,0.3,-0.1c0.1,0,0.2,0,0.3,-0.1Z" class="g13_1" />
<path d="M305.8,1166.4c0.2,0,0.2,0,0.4,-0.1c0,0,0.1,0,0.2,-0.1c0,0.1,-0.1,0.2,-0.2,0.2c-0.1,0.1,-0.2,0.2,-0.3,0.2Z" class="g9_1" />
<path d="M309.3,1165.9l0.1,0c0.1,0,0.2,0,0.3,0.1c0.1,0,0,0,0.1,0c0.1,0,0.4,0.1,0.6,0c0.1,0,0.3,0,0.4,0c0.2,0,0.4,0,0.7,0.1c-0.2,-0.2,-0.3,-0.3,-0.5,-0.4c-0.2,0,-0.3,-0.1,-0.5,-0.1c-0.3,0,-0.5,-0.2,-0.8,-0.3Z" class="g9_1" />
<path d="M301.8,1165.7c0.6,-0.2,0.7,-0.6,0.7,-0.6l-1.4,-0.2l1.5,-0.4c0,0,-1.6,-0.7,-1.7,-0.7c0.1,0,1.5,0.1,1.8,0.1c0,0,-1.1,-0.7,-1.4,-0.9c0,0,1.3,0.3,1.6,0.4c0,0,-1.1,-1.1,-1.1,-1.2c0.2,0.1,1.3,0.7,1.4,0.7c-0.2,-0.3,-0.9,-1.3,-0.9,-1.3l1.4,0.9c0,-0.2,-0.6,-1.4,-0.6,-1.6c0.2,0.3,0.8,1.1,1.1,1.3l-0.3,-1.7l0.9,1.4c0,-0.1,0,-1.4,0,-1.7c0,0.2,0.5,1.5,0.6,1.6l0.3,-1.6c0,0,0.3,1.6,0.3,1.6c0.1,-0.1,0.6,-1.5,0.6,-1.5c0,0.3,-0.1,1.6,-0.1,1.6l1,-1.4l-0.3,1.7c0,0,1.2,-1.2,1.2,-1.2c-0.1,0.1,-0.7,1.2,-0.8,1.5l1.5,-0.9l-1,1.3c0,0,0,0.1,0.1,0c0.1,0,1.4,-0.6,1.5,-0.7c-0.2,0.3,-1,0.8,-1.3,1.3l1.6,-0.4c0,0,-1.3,0.8,-1.3,0.9c0,0,1.6,0,1.8,-0.1c-0.2,0.1,-1.5,0.5,-1.6,0.6l1.6,0.4c0,0,-1.4,0.2,-1.4,0.2c0.1,0.1,0.7,0.6,0.8,0.6c0,0,-0.7,0,-0.8,-0.1c-0.2,-0.1,-0.6,-0.2,-1,0c0,0,0,-0.3,-0.1,-0.3c-0.3,0.1,-1.3,0.1,-1.5,0.2c-0.1,0,0,-0.3,-0.1,-0.4c-0.3,0.1,-0.6,0.1,-0.9,0.2c-0.2,0,-0.4,0.1,-0.6,0.3c0,-0.1,0,-0.4,-0.1,-0.4c-0.3,0.1,-0.7,0.2,-0.9,0.3c-0.3,0,-0.5,0.1,-0.6,0.3c-0.1,-0.1,-0.1,-0.4,-0.1,-0.4c-0.2,0.2,-0.3,0.2,-0.6,0.3c-0.3,0.1,-0.9,0,-0.8,0Z" class="g14_1" />
<path d="M307.9,1164.4l-0.3,0c-0.1,-0.1,-0.3,-0.2,-0.3,-0.2c0,0,0,0.1,0,0.1c0,0.1,0,0.1,-0.1,0.2c0,0,-0.1,0.1,-0.1,0.1l-0.3,0c-0.1,0,-0.1,-0.1,-0.2,-0.1c0,-0.1,0,-0.1,0,-0.2l0,-0.1l-0.2,0.2c-0.1,0,-0.3,0,-0.3,0l0.3,-0.5c0.7,-0.1,1,0,1.2,0.2c0.2,0.2,0.3,0.3,0.3,0.3Z" class="g9_1" />
<path d="M308,1163.9l-0.1,0c-0.1,-0.2,-0.4,-0.2,-0.5,-0.3c-0.2,0,-0.4,0,-0.4,0l-0.9,0.1l0.1,-0.5l0.4,0c0.7,0,1,0.2,1.2,0.3c0.2,0.2,0.2,0.4,0.2,0.4Z" class="g9_1" />
<path d="M305.2,1164.4c0,0,-0.3,0,-0.3,0l-0.2,-0.2l0,0.1c0,0,0,0.1,-0.1,0.2c0,0,-0.1,0.1,-0.1,0.1c-0.1,0,-0.3,0,-0.3,0c-0.1,0,-0.1,-0.1,-0.2,-0.1c0,-0.1,0,-0.3,0,-0.3c0,0,-0.1,0,-0.1,0c-0.1,0.1,-0.2,0.1,-0.2,0.2l-0.3,0c0,0,0.1,-0.2,0.3,-0.3c0.2,-0.2,0.5,-0.3,1.2,-0.2Z" class="g9_1" />
<path d="M303.2,1163.9c0,0,0,-0.2,0.3,-0.4c0.2,-0.1,0.5,-0.3,1.3,-0.3l0.3,0l0,0.5l-0.4,-0.1c0,0,-0.7,0,-0.8,0c-0.2,0,-0.4,0.1,-0.5,0.2Z" class="g9_1" />
<path d="M304.7,1196.7l-0.1,-0.2c0,0,-0.1,0,-0.2,0.1c-0.3,0,-1.2,0.2,-1.6,0.3l-0.1,0c-0.6,0.1,-1,0.1,-1,0.1c0,0.2,0.1,0.3,0.2,0.4c0.2,0.1,0.3,0.2,0.4,0.2c0.6,-0.1,2.2,-0.5,2.6,-0.6Z" class="g9_1" />
<path d="M306.3,1197c0.5,0.1,2,0.5,2.6,0.6l0.1,0c0,0,0.1,-0.1,0.3,-0.2c0.1,-0.1,0.3,-0.2,0.2,-0.4c0,0,-0.4,0,-1,-0.1l-0.1,0c-0.4,-0.1,-1.2,-0.3,-1.6,-0.3c-0.1,-0.1,-0.1,-0.1,-0.1,-0.1l-0.2,0.1Z" class="g9_1" />
<path d="M304.5,1196.1l0.1,0.1c-0.1,-0.1,-0.9,-0.5,-0.6,-1l0.1,0c0.3,-0.3,0.6,-0.1,0.6,-0.1c-0.5,0.3,-0.3,1,-0.2,1Zm1.4,0.8c0,0,0,0.2,0,0.3c-0.1,0.2,-0.2,0.4,-0.3,0.4c-0.1,0,-0.2,-0.2,-0.3,-0.4c0,-0.1,0,-0.3,0,-0.3c0,0,0,-0.1,0,-0.2c0,-0.1,0.1,-0.1,0.3,-0.2c0.2,0,0.3,0.1,0.3,0.2c0.1,0.1,0,0.2,0,0.2Zm0.3,-1c-0.1,0.2,-0.2,0.3,-0.2,0.3c0,0,0,0.1,0,0.1l0,-0.1l-0.1,-0.1c0,0,-0.1,0,-0.3,0c-0.3,0,-0.4,0.1,-0.5,0.1c0,0.1,0,0.1,0,0c0,0,-0.1,-0.1,-0.1,-0.2c0,0,0,-0.1,0,-0.1c-0.1,-0.1,-0.1,-0.1,-0.1,-0.2c0,-0.1,0.1,-0.3,0.2,-0.3c0.2,-0.1,0.4,-0.1,0.5,-0.1c0.1,0,0.2,0,0.3,0.1c0.2,0,0.3,0.1,0.3,0.2c0,0.1,0,0.2,0,0.3Zm0.8,-0.1c-0.2,0.2,-0.4,0.3,-0.5,0.3c0.1,0,0.3,-0.3,0.3,-0.6c0,0,0,-0.1,-0.1,-0.2c0,-0.1,-0.1,-0.1,-0.2,-0.2c0,0,-0.1,0,0,-0.1c0,0,0.4,0,0.6,0.2c0.3,0.2,0.1,0.5,-0.1,0.6Zm-0.5,1.2l-0.1,0c0.1,0,0,-0.4,0.3,-0.4l0.1,0c0.1,-0.1,0.7,-0.2,0.9,-0.7c0,-0.1,0,-0.1,0,-0.2c0.1,-0.1,0.1,-0.2,0.1,-0.3c0,0,-0.1,-0.1,-0.1,-0.2c0,-0.1,0,-0.2,-0.1,-0.2c-0.2,-0.3,-0.6,-0.4,-1,-0.4c-0.4,0,-0.8,0,-0.9,0.1l-0.1,0c-0.1,-0.1,-0.5,-0.1,-1,-0.1c-0.6,0,-1,0.4,-1,0.4c-0.3,0.3,-0.1,0.9,0,0.9c0.1,0.2,0.4,0.5,0.7,0.6c0.1,0,0.2,0,0.3,0.1c0,0,0.2,0,0.2,0.4c-0.2,0.5,-0.6,0.7,-1.1,0.8c-0.5,0.2,-1,0.2,-1.5,0.4c0,0,0.2,0.1,0.2,0.3c0.1,0.1,0.2,0.2,0.2,0.1c1.1,-0.2,1.7,-0.6,2,-0.9c0.4,-0.2,0.4,-0.4,0.4,-0.4l0.1,0.3c0,0,-0.1,0.2,-0.4,0.6c-0.3,0.3,-0.8,0.6,-1.7,0.7l0.3,0.2l0.3,0.1c0.4,0,0.7,-0.1,1,-0.3c0.3,-0.3,0.5,-0.6,0.7,-1.1c0.1,0.1,0.2,0.1,0.3,0.2l0.1,0c0,0,0.1,0,0.2,-0.1c0.1,0,0.2,0,0.2,-0.1c0.2,0.5,0.4,0.8,0.7,1c0.3,0.3,0.6,0.4,1,0.4c0.1,0,0.2,-0.1,0.3,-0.1c0.1,-0.1,0.2,-0.1,0.2,-0.1c-0.6,-0.1,-1.1,-0.4,-1.5,-0.8c-0.3,-0.3,-0.5,-0.7,-0.5,-0.7c0,0,0.1,-0.2,0.1,-0.2c0,0.1,0.3,0.4,0.8,0.8c0.4,0.3,0.9,0.5,1.3,0.6c0,0,0.1,-0.1,0.2,-0.2c0,-0.1,0.1,-0.2,0.1,-0.3c-0.3,0.1,-1,-0.2,-1.4,-0.5c-0.5,-0.3,-0.9,-0.6,-0.9,-0.7Z" class="g11_1" />
<path d="M324.9,1179.1l2.1,0l1.1,4.2l1.2,-4.2l2.1,0l0,6.8l-1.3,0l0,-6.1l-1.6,6.1l-0.7,0l-1.6,-6.1l0,6.1l-1.3,0Z" class="g7_1" />
<path d="M332.5,1185.5l0,-7" class="g15_1" />
<path d="M336,1181.7c0.3,-0.2,0.5,-0.4,0.8,-0.6c0.3,-0.1,0.6,-0.2,0.9,-0.2c0.4,0,0.6,0.1,0.8,0.3c0.2,0.3,0.3,0.6,0.3,1l0,3.7l-1.2,0l0,-3.4c0,-0.2,0,-0.3,-0.1,-0.4c-0.1,-0.1,-0.2,-0.2,-0.3,-0.2c-0.2,0,-0.4,0.1,-0.5,0.2c-0.2,0.1,-0.4,0.2,-0.7,0.5l0,3.3l-1.2,0l0,-4.9l1.2,0Z" class="g7_1" />
<path d="M339.5,1185.5l0,-7" class="g15_1" />
<path d="M342.4,1184.6c0.3,0.2,0.5,0.3,0.7,0.4c0.2,0,0.4,0.1,0.6,0.1c0.3,0,0.5,-0.1,0.6,-0.2c0.1,-0.1,0.2,-0.2,0.2,-0.3c0,-0.1,-0.1,-0.2,-0.2,-0.3c-0.1,-0.2,-0.3,-0.2,-0.7,-0.3c-0.7,-0.1,-1.1,-0.3,-1.4,-0.6c-0.3,-0.2,-0.4,-0.6,-0.4,-0.9c0,-0.4,0.2,-0.8,0.5,-1.1c0.4,-0.3,0.8,-0.5,1.4,-0.5c0.3,0,0.6,0.1,0.9,0.2c0.3,0.1,0.6,0.3,0.9,0.5l-0.7,0.6c-0.3,-0.2,-0.6,-0.3,-0.7,-0.3c-0.1,-0.1,-0.3,-0.1,-0.4,-0.1c-0.2,0,-0.4,0,-0.5,0.2c-0.2,0.1,-0.2,0.2,-0.2,0.4c0,0.1,0,0.2,0.1,0.3c0.1,0.1,0.4,0.2,0.8,0.3c0.6,0.1,1.1,0.3,1.3,0.4c0.3,0.3,0.5,0.6,0.5,1c0,0.4,-0.2,0.8,-0.5,1.1c-0.4,0.3,-0.9,0.5,-1.5,0.5c-0.4,0,-0.8,-0.1,-1.1,-0.2c-0.3,-0.2,-0.6,-0.4,-0.9,-0.7Z" class="g7_1" />
<path d="M346.6,1179.5l1.2,0l0,1.5l0.9,0l0,0.9l-0.9,0l0,2.6c0,0.2,0.1,0.3,0.2,0.3c0.1,0.1,0.3,0.2,0.7,0.2l0,1c-0.3,0,-0.5,0,-0.5,0c-0.4,0,-0.7,-0.1,-0.9,-0.2c-0.2,-0.1,-0.4,-0.2,-0.5,-0.5c-0.2,-0.2,-0.2,-0.5,-0.2,-0.8l0,-2.6l-0.8,0l0,-0.9l0.8,0Z" class="g7_1" />
<path d="M352.2,1182.9c-0.1,-0.3,-0.2,-0.6,-0.3,-0.8c-0.2,-0.2,-0.5,-0.3,-0.7,-0.3c-0.3,0,-0.5,0.1,-0.7,0.3c-0.2,0.2,-0.3,0.5,-0.3,0.8Zm1,1.8c-0.1,0.2,-0.2,0.4,-0.3,0.5c-0.2,0.2,-0.4,0.3,-0.5,0.4c-0.2,0.2,-0.4,0.2,-0.6,0.3c-0.2,0,-0.4,0.1,-0.6,0.1c-0.4,0,-0.8,-0.1,-1.2,-0.3c-0.3,-0.2,-0.6,-0.6,-0.8,-1c-0.2,-0.4,-0.3,-0.8,-0.3,-1.3c0,-0.7,0.2,-1.3,0.6,-1.8c0.4,-0.4,1,-0.7,1.6,-0.7c0.7,0,1.2,0.2,1.6,0.7c0.4,0.4,0.6,0.9,0.6,1.7c0,0,0,0.2,0,0.4l-3.1,0c0,0.4,0.1,0.7,0.3,1c0.2,0.2,0.4,0.3,0.7,0.3c0.2,0,0.4,-0.1,0.6,-0.2c0.1,-0.1,0.3,-0.3,0.4,-0.5Z" class="g7_1" />
<path d="M355.1,1182.2c0.3,-0.5,0.6,-0.8,0.8,-1c0.2,-0.1,0.5,-0.2,0.8,-0.3l0,1.3l-0.1,0c-0.3,0,-0.6,0.1,-0.9,0.3c-0.2,0.2,-0.4,0.4,-0.6,0.8l0,2.6l-1.2,0l0,-4.9l1.2,0Z" class="g7_1" />
<path d="M357.5,1185.5l0,-7" class="g15_1" />
<path d="M361.5,1181.8c-0.3,0,-0.5,0.1,-0.7,0.3c-0.2,0.3,-0.3,0.7,-0.3,1.4c0,0.5,0.1,1,0.3,1.2c0.2,0.3,0.4,0.4,0.7,0.4c0.2,0,0.3,-0.1,0.5,-0.2c0.2,-0.1,0.3,-0.3,0.3,-0.5c0.1,-0.3,0.2,-0.7,0.2,-1.1c0,-0.3,-0.1,-0.5,-0.1,-0.8c-0.1,-0.3,-0.2,-0.4,-0.4,-0.6c-0.1,-0.1,-0.3,-0.1,-0.5,-0.1Zm-0.1,-0.9c0.7,0,1.3,0.3,1.7,0.7c0.4,0.4,0.6,1,0.6,1.8c0,0.8,-0.2,1.5,-0.6,1.9c-0.4,0.5,-1,0.7,-1.6,0.7c-0.6,0,-1.1,-0.2,-1.5,-0.7c-0.5,-0.4,-0.7,-1,-0.7,-1.9c0,-0.8,0.2,-1.4,0.6,-1.8c0.4,-0.4,0.9,-0.7,1.5,-0.7Z" class="g7_1" />
<path d="M369.5,1184.5l0,-2c-0.1,-0.2,-0.3,-0.3,-0.4,-0.4c-0.2,-0.1,-0.3,-0.1,-0.5,-0.1c-0.2,0,-0.5,0.1,-0.6,0.3c-0.2,0.3,-0.3,0.6,-0.3,1.2c0,0.5,0.1,0.9,0.3,1.1c0.2,0.2,0.4,0.4,0.6,0.4c0.2,0,0.3,-0.1,0.5,-0.2c0.1,0,0.3,-0.1,0.4,-0.3Zm0,-5.5l1.2,0l0,6.9l-1.2,0l0,-0.6c-0.2,0.2,-0.4,0.4,-0.6,0.5c-0.3,0.1,-0.5,0.2,-0.7,0.2c-0.5,0,-0.9,-0.2,-1.3,-0.6c-0.4,-0.5,-0.6,-1.1,-0.6,-1.9c0,-0.4,0.1,-0.8,0.2,-1.1c0.1,-0.4,0.2,-0.6,0.4,-0.8c0.2,-0.2,0.4,-0.4,0.6,-0.5c0.2,-0.1,0.4,-0.2,0.7,-0.2c0.2,0,0.5,0.1,0.7,0.2c0.2,0.1,0.4,0.3,0.6,0.5Z" class="g7_1" />
<path d="M374.7,1182.9c0,-0.3,-0.1,-0.6,-0.3,-0.8c-0.2,-0.2,-0.5,-0.3,-0.7,-0.3c-0.3,0,-0.5,0.1,-0.7,0.3c-0.2,0.2,-0.3,0.5,-0.3,0.8Zm1,1.8c-0.1,0.2,-0.2,0.4,-0.3,0.5c-0.2,0.2,-0.3,0.3,-0.5,0.4c-0.2,0.2,-0.4,0.2,-0.6,0.3c-0.2,0,-0.4,0.1,-0.6,0.1c-0.4,0,-0.8,-0.1,-1.2,-0.3c-0.3,-0.2,-0.6,-0.6,-0.8,-1c-0.2,-0.4,-0.3,-0.8,-0.3,-1.3c0,-0.7,0.2,-1.3,0.6,-1.8c0.5,-0.4,1,-0.7,1.7,-0.7c0.6,0,1.1,0.2,1.5,0.7c0.4,0.4,0.6,0.9,0.6,1.7c0,0,0,0.2,0,0.4l-3.1,0c0,0.4,0.1,0.7,0.3,1c0.2,0.2,0.4,0.3,0.7,0.3c0.2,0,0.4,-0.1,0.6,-0.2c0.1,-0.1,0.3,-0.3,0.4,-0.5Z" class="g7_1" />
<path d="M326.7,1190.2l1.6,0l0,5.6c0,0.8,-0.3,1.5,-0.9,2c-0.5,0.4,-1,0.6,-1.6,0.6c-0.8,0,-1.5,-0.5,-2.2,-1.3l1,-0.9c0.2,0.3,0.5,0.5,0.6,0.6c0.2,0.1,0.4,0.2,0.6,0.2c0.2,0,0.4,-0.1,0.6,-0.3c0.2,-0.2,0.3,-0.5,0.3,-0.9Z" class="g7_1" />
<path d="M329.3,1192.5l1.5,0l0,3.9c0,0.2,0.1,0.4,0.2,0.5c0.1,0.1,0.2,0.2,0.4,0.2c0.2,0,0.4,-0.1,0.5,-0.2c0.2,-0.1,0.4,-0.3,0.7,-0.6l0,-3.8l1.5,0l0,5.7l-1.5,0l0,-0.9c-0.3,0.4,-0.7,0.6,-1,0.8c-0.3,0.1,-0.6,0.2,-0.9,0.2c-0.2,0,-0.4,-0.1,-0.6,-0.2c-0.3,-0.1,-0.4,-0.3,-0.6,-0.5c-0.1,-0.2,-0.2,-0.5,-0.2,-0.9Z" class="g7_1" />
<path d="M335.6,1196.7c0.3,0.2,0.6,0.3,0.8,0.4c0.2,0.1,0.5,0.1,0.7,0.1c0.3,0,0.5,0,0.7,-0.1c0.2,-0.1,0.2,-0.3,0.2,-0.4c0,-0.2,0,-0.3,-0.2,-0.4c-0.1,-0.1,-0.4,-0.2,-0.9,-0.3c-0.7,-0.1,-1.2,-0.4,-1.6,-0.7c-0.3,-0.3,-0.4,-0.7,-0.4,-1.1c0,-0.5,0.2,-0.9,0.6,-1.3c0.4,-0.3,0.9,-0.5,1.6,-0.5c0.3,0,0.7,0.1,1,0.2c0.4,0.1,0.7,0.3,1.1,0.6l-0.8,0.7c-0.4,-0.2,-0.7,-0.4,-0.9,-0.4c-0.1,-0.1,-0.3,-0.1,-0.4,-0.1c-0.3,0,-0.5,0.1,-0.6,0.2c-0.2,0.1,-0.3,0.3,-0.3,0.5c0,0.1,0.1,0.2,0.2,0.4c0.2,0.1,0.5,0.2,1,0.3c0.7,0.1,1.2,0.3,1.5,0.5c0.3,0.3,0.5,0.7,0.5,1.2c0,0.5,-0.2,0.9,-0.6,1.3c-0.4,0.3,-1,0.5,-1.7,0.5c-0.5,0,-0.9,-0.1,-1.3,-0.2c-0.3,-0.2,-0.7,-0.5,-1.1,-0.8Z" class="g7_1" />
<path d="M340.5,1190.7l1.4,0l0,1.8l1,0l0,1l-1,0l0,3.1c0,0.1,0.1,0.3,0.2,0.4c0.1,0.1,0.4,0.1,0.8,0.1l0,1.2c-0.3,0,-0.5,0,-0.5,0c-0.4,0,-0.8,-0.1,-1.1,-0.2c-0.2,-0.1,-0.4,-0.3,-0.6,-0.6c-0.1,-0.2,-0.2,-0.6,-0.2,-0.9l0,-3.1l-0.9,0l0,-1l0.9,0Z" class="g7_1" />
<path d="M343.5,1198.5l0,-8" class="g15_1" />
<path d="M350.8,1196.7c-0.2,0.3,-0.3,0.6,-0.4,0.8c-0.2,0.2,-0.5,0.4,-0.8,0.6c-0.3,0.1,-0.6,0.2,-1,0.2c-0.9,0,-1.6,-0.3,-2,-1c-0.4,-0.5,-0.6,-1.2,-0.6,-1.9c0,-0.9,0.2,-1.6,0.7,-2.2c0.6,-0.5,1.2,-0.8,1.9,-0.8c0.4,0,0.7,0.1,1,0.2c0.2,0.1,0.5,0.3,0.7,0.5c0.1,0.2,0.2,0.4,0.4,0.8l-1.2,0.3c-0.2,-0.2,-0.3,-0.4,-0.4,-0.5c-0.2,-0.1,-0.3,-0.1,-0.5,-0.1c-0.3,0,-0.5,0.1,-0.7,0.3c-0.2,0.3,-0.3,0.7,-0.3,1.3c0,0.4,0,0.8,0.1,1.1c0.1,0.3,0.2,0.5,0.4,0.6c0.1,0.1,0.3,0.2,0.5,0.2c0.2,0,0.4,-0.1,0.6,-0.2c0.2,-0.2,0.3,-0.4,0.4,-0.8Z" class="g7_1" />
<path d="M351.5,1198.5l0,-8" class="g15_1" />
<path d="M357.3,1196.7l0,-1.4c-0.9,0.1,-1.4,0.3,-1.7,0.6c-0.3,0.2,-0.4,0.5,-0.4,0.7c0,0.2,0.1,0.4,0.2,0.5c0.1,0.2,0.3,0.2,0.5,0.2c0.2,0,0.4,0,0.6,-0.1c0.3,-0.1,0.5,-0.3,0.8,-0.5Zm-3.3,-3.3c0.3,-0.3,0.7,-0.6,1.1,-0.7c0.4,-0.2,0.8,-0.3,1.2,-0.3c0.5,0,0.9,0.1,1.3,0.3c0.2,0.1,0.4,0.3,0.6,0.6c0.2,0.3,0.3,0.6,0.3,1.1l0,2.6c0,0.2,0,0.4,0.1,0.6c0,0.3,0.1,0.5,0.1,0.6l-1.2,0c-0.1,-0.2,-0.2,-0.4,-0.2,-0.6c-0.2,0.2,-0.5,0.4,-0.8,0.5c-0.3,0.1,-0.5,0.2,-0.8,0.2c-0.6,0,-1,-0.1,-1.3,-0.5c-0.4,-0.3,-0.5,-0.6,-0.5,-1.1c0,-0.3,0.1,-0.6,0.2,-0.8c0.2,-0.3,0.4,-0.5,0.7,-0.7c0.3,-0.2,0.7,-0.4,1.1,-0.5c0.3,-0.1,0.8,-0.2,1.4,-0.2c0,-0.3,-0.1,-0.5,-0.1,-0.6c-0.1,-0.1,-0.2,-0.3,-0.3,-0.4c-0.2,-0.1,-0.4,-0.1,-0.6,-0.1c-0.6,0,-1,0.2,-1.4,0.8Z" class="g7_1" />
<path d="M361.8,1192.5l1.4,0l1.1,3.7l1.1,-3.7l1.3,0l-1.6,5.4c-0.2,0.6,-0.4,1.1,-0.5,1.4c-0.2,0.3,-0.5,0.6,-0.7,0.8c-0.2,0.1,-0.4,0.2,-0.6,0.3c-0.3,0.1,-0.6,0.1,-0.9,0.1l-0.6,0l0,-1l0.3,0c0.4,0,0.7,-0.1,1,-0.3c0.2,-0.2,0.4,-0.5,0.5,-0.8Z" class="g7_1" />
<path d="M371.6,1191.5l0,5.3l1.1,0c0.4,0,0.8,-0.1,1.1,-0.3c0.3,-0.2,0.5,-0.5,0.7,-0.8c0.2,-0.5,0.3,-1,0.3,-1.6c0,-0.8,-0.2,-1.4,-0.7,-1.9c-0.4,-0.4,-1,-0.7,-1.7,-0.7Zm-1.6,-1.3l3,0c0.6,0,1.3,0.2,1.8,0.5c0.5,0.3,1,0.8,1.2,1.4c0.3,0.6,0.5,1.3,0.5,2c0,0.7,-0.1,1.4,-0.4,2c-0.2,0.5,-0.6,1,-0.9,1.3c-0.3,0.3,-0.7,0.4,-1.1,0.6c-0.5,0.1,-0.9,0.2,-1.4,0.2l-2.7,0Z" class="g7_1" />
<path d="M380.8,1194.7c-0.1,-0.4,-0.2,-0.7,-0.4,-1c-0.2,-0.2,-0.5,-0.3,-0.8,-0.3c-0.3,0,-0.6,0.1,-0.8,0.3c-0.2,0.3,-0.3,0.6,-0.4,1Zm1.1,2.1c-0.1,0.3,-0.2,0.5,-0.3,0.6c-0.2,0.2,-0.4,0.4,-0.6,0.5c-0.2,0.1,-0.4,0.2,-0.7,0.3c-0.2,0.1,-0.4,0.1,-0.7,0.1c-0.5,0,-0.9,-0.1,-1.4,-0.4c-0.4,-0.2,-0.7,-0.6,-0.9,-1c-0.3,-0.5,-0.4,-1,-0.4,-1.6c0,-0.9,0.3,-1.6,0.8,-2.1c0.5,-0.5,1.1,-0.8,1.9,-0.8c0.7,0,1.3,0.2,1.8,0.7c0.4,0.5,0.7,1.2,0.7,2c0,0.1,0,0.3,-0.1,0.5l-3.6,0c0,0.5,0.2,0.9,0.4,1.2c0.2,0.2,0.5,0.3,0.8,0.3c0.3,0,0.5,0,0.7,-0.2c0.2,-0.1,0.3,-0.3,0.5,-0.6Z" class="g7_1" />
<path d="M384.2,1193.9c0.4,-0.6,0.7,-1,0.9,-1.2c0.3,-0.2,0.6,-0.3,1,-0.3l0,1.5l-0.2,0c-0.3,0,-0.6,0.1,-1,0.3c-0.3,0.2,-0.5,0.5,-0.7,0.9l0,3.1l-1.4,0l0,-5.7l1.4,0Z" class="g7_1" />
<path d="M390,1194.7c0,-0.4,-0.1,-0.7,-0.4,-1c-0.2,-0.2,-0.4,-0.3,-0.8,-0.3c-0.3,0,-0.5,0.1,-0.8,0.3c-0.2,0.3,-0.3,0.6,-0.3,1Zm1.2,2.1c-0.1,0.3,-0.3,0.5,-0.4,0.6c-0.1,0.2,-0.3,0.4,-0.6,0.5c-0.2,0.1,-0.4,0.2,-0.6,0.3c-0.2,0.1,-0.5,0.1,-0.7,0.1c-0.5,0,-1,-0.1,-1.4,-0.4c-0.4,-0.2,-0.8,-0.6,-1,-1c-0.2,-0.5,-0.3,-1,-0.3,-1.6c0,-0.9,0.2,-1.6,0.7,-2.1c0.5,-0.5,1.1,-0.8,1.9,-0.8c0.8,0,1.4,0.2,1.8,0.7c0.5,0.5,0.7,1.2,0.7,2c0,0.1,0,0.3,0,0.5l-3.6,0c0,0.5,0.1,0.9,0.3,1.2c0.3,0.2,0.5,0.3,0.9,0.3c0.2,0,0.5,0,0.6,-0.2c0.2,-0.1,0.4,-0.3,0.5,-0.6Z" class="g7_1" />
<path d="M396.4,1196.7c-0.1,0.3,-0.2,0.6,-0.4,0.8c-0.2,0.2,-0.4,0.4,-0.7,0.6c-0.3,0.1,-0.7,0.2,-1.1,0.2c-0.8,0,-1.5,-0.3,-2,-1c-0.4,-0.5,-0.6,-1.2,-0.6,-1.9c0,-0.9,0.3,-1.6,0.8,-2.2c0.5,-0.5,1.2,-0.8,1.9,-0.8c0.4,0,0.7,0.1,0.9,0.2c0.3,0.1,0.5,0.3,0.7,0.5c0.2,0.2,0.3,0.4,0.5,0.8l-1.3,0.3c-0.1,-0.2,-0.2,-0.4,-0.4,-0.5c-0.1,-0.1,-0.3,-0.1,-0.5,-0.1c-0.2,0,-0.5,0.1,-0.7,0.3c-0.2,0.3,-0.3,0.7,-0.3,1.3c0,0.4,0.1,0.8,0.2,1.1c0.1,0.3,0.2,0.5,0.3,0.6c0.2,0.1,0.4,0.2,0.6,0.2c0.2,0,0.4,-0.1,0.6,-0.2c0.2,-0.2,0.3,-0.4,0.4,-0.8Z" class="g7_1" />
<path d="M396.7,1190.1l1.4,0l0,3.2c0.3,-0.3,0.7,-0.5,1,-0.7c0.3,-0.1,0.7,-0.2,1,-0.2c0.4,0,0.7,0.1,0.9,0.3c0.3,0.3,0.4,0.7,0.4,1.2l0,4.3l-1.5,0l0,-4c0,-0.2,0,-0.4,-0.1,-0.5c-0.1,-0.1,-0.2,-0.1,-0.4,-0.1c-0.1,0,-0.3,0,-0.6,0.1c-0.2,0.2,-0.4,0.3,-0.7,0.6l0,3.9l-1.4,0Z" class="g7_1" />
<path d="M404.6,1193.4c-0.4,0,-0.6,0.1,-0.8,0.3c-0.3,0.4,-0.4,0.9,-0.4,1.7c0,0.6,0.1,1.1,0.3,1.4c0.3,0.3,0.5,0.4,0.8,0.4c0.3,0,0.5,0,0.6,-0.2c0.2,-0.1,0.4,-0.3,0.4,-0.6c0.2,-0.3,0.2,-0.7,0.2,-1.2c0,-0.4,0,-0.7,-0.1,-1c-0.1,-0.3,-0.3,-0.5,-0.5,-0.6c-0.1,-0.2,-0.3,-0.2,-0.5,-0.2Zm-0.2,-1c0.9,0,1.5,0.3,2,0.8c0.5,0.5,0.7,1.2,0.7,2.1c0,1,-0.2,1.7,-0.7,2.2c-0.5,0.5,-1.1,0.8,-1.8,0.8c-0.7,0,-1.4,-0.2,-1.9,-0.7c-0.5,-0.5,-0.7,-1.3,-0.7,-2.3c0,-0.9,0.2,-1.6,0.6,-2.1c0.5,-0.5,1.1,-0.8,1.8,-0.8Z" class="g7_1" />
<path d="M408.3,1196.7c0.3,0.2,0.5,0.3,0.7,0.4c0.3,0.1,0.5,0.1,0.7,0.1c0.4,0,0.6,0,0.8,-0.1c0.1,-0.1,0.2,-0.3,0.2,-0.4c0,-0.2,-0.1,-0.3,-0.2,-0.4c-0.2,-0.1,-0.5,-0.2,-0.9,-0.3c-0.8,-0.1,-1.3,-0.4,-1.6,-0.7c-0.3,-0.3,-0.5,-0.7,-0.5,-1.1c0,-0.5,0.2,-0.9,0.6,-1.3c0.4,-0.3,1,-0.5,1.6,-0.5c0.4,0,0.8,0.1,1.1,0.2c0.3,0.1,0.7,0.3,1.1,0.6l-0.9,0.7c-0.4,-0.2,-0.6,-0.4,-0.8,-0.4c-0.2,-0.1,-0.3,-0.1,-0.5,-0.1c-0.2,0,-0.4,0.1,-0.6,0.2c-0.1,0.1,-0.2,0.3,-0.2,0.5c0,0.1,0,0.2,0.2,0.4c0.1,0.1,0.4,0.2,0.9,0.3c0.7,0.1,1.2,0.3,1.5,0.5c0.4,0.3,0.6,0.7,0.6,1.2c0,0.5,-0.2,0.9,-0.6,1.3c-0.4,0.3,-1,0.5,-1.8,0.5c-0.5,0,-0.9,-0.1,-1.2,-0.2c-0.4,-0.2,-0.8,-0.5,-1.1,-0.8Z" class="g7_1" />
<path d="M415,1190l2,0l0,3l3,0l0,-3l1,0l0,8l-1,0l0,-4l-3,0l0,4l-2,0Z" class="g7_1" />
<path d="M422.9,1192.5l1.4,0l0,3.9c0,0.2,0.1,0.4,0.2,0.5c0.1,0.1,0.3,0.2,0.4,0.2c0.2,0,0.4,-0.1,0.6,-0.2c0.2,-0.1,0.4,-0.3,0.6,-0.6l0,-3.8l1.5,0l0,5.7l-1.5,0l0,-0.9c-0.3,0.4,-0.6,0.6,-1,0.8c-0.3,0.1,-0.6,0.2,-0.9,0.2c-0.2,0,-0.4,-0.1,-0.6,-0.2c-0.2,-0.1,-0.4,-0.3,-0.5,-0.5c-0.2,-0.2,-0.2,-0.5,-0.2,-0.9Z" class="g7_1" />
<path d="M430.2,1193.6c0.4,-0.5,0.8,-0.8,1.1,-0.9c0.2,-0.2,0.6,-0.3,0.9,-0.3c0.4,0,0.7,0.1,0.9,0.3c0.2,0.2,0.3,0.5,0.4,1c0.5,-0.6,0.9,-0.9,1.2,-1.1c0.2,-0.1,0.5,-0.2,0.9,-0.2c0.3,0,0.5,0.1,0.7,0.2c0.2,0.1,0.3,0.2,0.4,0.5c0.2,0.3,0.2,0.7,0.2,1.2l0,3.9l-1.4,0l0,-3.6c0,-0.4,0,-0.6,-0.2,-0.8c-0.1,-0.1,-0.3,-0.2,-0.5,-0.2c-0.1,0,-0.3,0.1,-0.5,0.2c-0.2,0.1,-0.4,0.3,-0.7,0.7l0,3.7l-1.5,0l0,-3.6c0,-0.4,0,-0.6,-0.2,-0.8c-0.1,-0.2,-0.2,-0.2,-0.4,-0.2c-0.2,0,-0.4,0,-0.7,0.2c-0.2,0.2,-0.4,0.4,-0.6,0.7l0,3.7l-1.5,0l0,-5.7l1.5,0Z" class="g7_1" />
<path d="M441,1196.7l0,-1.4c-0.9,0.1,-1.4,0.3,-1.7,0.6c-0.3,0.2,-0.4,0.5,-0.4,0.7c0,0.2,0.1,0.4,0.2,0.5c0.1,0.2,0.3,0.2,0.5,0.2c0.2,0,0.4,0,0.6,-0.1c0.3,-0.1,0.5,-0.3,0.8,-0.5Zm-3.3,-3.3c0.3,-0.3,0.7,-0.6,1.1,-0.7c0.4,-0.2,0.8,-0.3,1.2,-0.3c0.5,0,0.9,0.1,1.3,0.3c0.2,0.1,0.4,0.3,0.6,0.6c0.2,0.3,0.3,0.6,0.3,1.1l0,2.6c0,0.2,0,0.4,0.1,0.6c0,0.3,0.1,0.5,0.1,0.6l-1.2,0c-0.1,-0.2,-0.1,-0.4,-0.2,-0.6c-0.2,0.2,-0.5,0.4,-0.8,0.5c-0.3,0.1,-0.5,0.2,-0.8,0.2c-0.6,0,-1,-0.1,-1.3,-0.5c-0.3,-0.3,-0.5,-0.6,-0.5,-1.1c0,-0.3,0.1,-0.6,0.2,-0.8c0.2,-0.3,0.4,-0.5,0.7,-0.7c0.3,-0.2,0.7,-0.4,1.1,-0.5c0.3,-0.1,0.8,-0.2,1.4,-0.2c0,-0.3,0,-0.5,-0.1,-0.6c0,-0.1,-0.2,-0.3,-0.3,-0.4c-0.2,-0.1,-0.4,-0.1,-0.6,-0.1c-0.5,0,-1,0.2,-1.4,0.8Z" class="g7_1" />
<path d="M444.8,1193.3c0.3,-0.3,0.6,-0.5,0.9,-0.7c0.3,-0.1,0.7,-0.2,1,-0.2c0.5,0,0.8,0.1,1,0.3c0.2,0.3,0.3,0.7,0.3,1.2l0,4.3l-1.4,0l0,-4c0,-0.2,0,-0.4,-0.1,-0.5c-0.1,-0.1,-0.2,-0.1,-0.4,-0.1c-0.2,0,-0.4,0,-0.6,0.1c-0.2,0.1,-0.4,0.3,-0.7,0.6l0,3.9l-1.5,0l0,-5.7l1.5,0Z" class="g7_1" />
<path d="M451.2,1193.4c-0.3,0,-0.5,0.1,-0.7,0.3c-0.3,0.4,-0.4,0.9,-0.4,1.7c0,0.6,0.1,1.1,0.3,1.4c0.3,0.3,0.5,0.4,0.8,0.4c0.3,0,0.5,0,0.6,-0.2c0.2,-0.1,0.3,-0.3,0.4,-0.6c0.1,-0.3,0.2,-0.7,0.2,-1.2c0,-0.4,0,-0.7,-0.1,-1c-0.1,-0.3,-0.3,-0.5,-0.5,-0.6c-0.1,-0.2,-0.3,-0.2,-0.6,-0.2Zm-0.1,-1c0.8,0,1.5,0.3,2,0.8c0.5,0.5,0.7,1.2,0.7,2.1c0,1,-0.2,1.7,-0.7,2.2c-0.5,0.5,-1.1,0.8,-1.8,0.8c-0.7,0,-1.4,-0.2,-1.9,-0.7c-0.5,-0.5,-0.8,-1.3,-0.8,-2.3c0,-0.9,0.3,-1.6,0.7,-2.1c0.5,-0.5,1.1,-0.8,1.8,-0.8Z" class="g7_1" />
<path d="M455,1196.7c0.2,0.2,0.5,0.3,0.7,0.4c0.3,0.1,0.5,0.1,0.7,0.1c0.4,0,0.6,0,0.7,-0.1c0.2,-0.1,0.3,-0.3,0.3,-0.4c0,-0.2,-0.1,-0.3,-0.2,-0.4c-0.2,-0.1,-0.5,-0.2,-0.9,-0.3c-0.8,-0.1,-1.3,-0.4,-1.6,-0.7c-0.3,-0.3,-0.5,-0.7,-0.5,-1.1c0,-0.5,0.2,-0.9,0.6,-1.3c0.4,-0.3,1,-0.5,1.6,-0.5c0.4,0,0.7,0.1,1.1,0.2c0.3,0.1,0.7,0.3,1.1,0.6l-0.9,0.7c-0.4,-0.2,-0.7,-0.4,-0.8,-0.4c-0.2,-0.1,-0.3,-0.1,-0.5,-0.1c-0.2,0,-0.4,0.1,-0.6,0.2c-0.1,0.1,-0.2,0.3,-0.2,0.5c0,0.1,0,0.2,0.2,0.4c0.1,0.1,0.4,0.2,0.9,0.3c0.7,0.1,1.2,0.3,1.5,0.5c0.4,0.3,0.6,0.7,0.6,1.2c0,0.5,-0.2,0.9,-0.6,1.3c-0.4,0.3,-1,0.5,-1.8,0.5c-0.5,0,-0.9,-0.1,-1.2,-0.2c-0.4,-0.2,-0.8,-0.5,-1.1,-0.8Z" class="g7_1" />
</svg>