<?xml version="1.0" encoding="UTF-8" standalone="no"?>
<!DOCTYPE svg PUBLIC "-//W3C//DTD SVG 1.1//EN"
"http://www.w3.org/Graphics/SVG/1.1/DTD/svg11.dtd">
<svg version="1.1" xmlns="http://www.w3.org/2000/svg" xmlns:xlink="http://www.w3.org/1999/xlink">
<defs>
<style type="text/css"><![CDATA[
.g8_20{
fill: none;
stroke: #211D1D;
stroke-width: 2;
stroke-linecap: butt;
stroke-linejoin: miter;
stroke-miterlimit: 22;
}
.g3_20{
fill: #FFFFFF;
}
.g10_20{
fill: #4D4A4B;
}
.g2_20{
fill: #373433;
}
.g1_20{
fill: #EC0B8C;
}
.g5_20{
fill: #F05972;
}
.g4_20{
fill: #0D696E;
}
.g7_20{
fill: none;
stroke: #4D4A4B;
stroke-width: 3;
stroke-linecap: butt;
stroke-linejoin: miter;
stroke-miterlimit: 22;
}
.g11_20{
fill: none;
stroke: #2AABE1;
stroke-width: 3;
stroke-linecap: butt;
stroke-linejoin: miter;
stroke-miterlimit: 22;
}
.g9_20{
fill: #364E60;
}
.g6_20{
fill: #FCE576;
}
]]></style>
</defs>
<path d="M922,-15.7l0,49.4l-537.1,0l-39.5,78.5l-358.6,0l0,-127.9Z" class="g1_20" />
<path d="M84.5,237.1l6,-5.5l-6.1,-5.4c-0.6,-0.5,-0.7,-1.6,-0.3,-2.3c0.4,-0.8,1.3,-1,1.9,-0.4l7.7,6.7c0.3,0.3,0.5,0.8,0.5,1.3c0.1,0.6,-0.1,1.1,-0.5,1.4l-7.5,6.9c-0.6,0.5,-1.5,0.4,-1.9,-0.4c-0.5,-0.7,-0.4,-1.8,0.2,-2.3Z" class="g2_20" />
<path d="M84.4,593.9l6,-5.5L84.3,583c-0.7,-0.5,-0.8,-1.6,-0.4,-2.3c0.5,-0.8,1.3,-0.9,1.9,-0.4l7.7,6.7c0.4,0.3,0.6,0.8,0.6,1.4c0,0.5,-0.2,1,-0.6,1.3L86,596.6c-0.6,0.6,-1.5,0.4,-1.9,-0.4c-0.5,-0.7,-0.3,-1.8,0.3,-2.3Z" class="g2_20" />
<path d="M84.3,925l6,-5.5l-6.1,-5.3c-0.7,-0.6,-0.8,-1.6,-0.4,-2.4c0.5,-0.7,1.3,-0.9,1.9,-0.4l7.7,6.7c0.4,0.3,0.6,0.8,0.6,1.4c0,0.5,-0.2,1,-0.6,1.4l-7.5,6.8c-0.6,0.6,-1.5,0.4,-1.9,-0.3c-0.5,-0.8,-0.3,-1.8,0.3,-2.4Z" class="g2_20" />
<path d="M182.8,312.5c-0.5,-27.2,-23,-48.8,-50.2,-48.3c-27.1,0.6,-48.7,23,-48.2,50.2c0.5,27.2,23,48.8,50.1,48.2c27.2,-0.5,48.8,-22.9,48.3,-50.1Z" class="g1_20" />
<path d="M179,312.6c-0.5,-25.1,-21.3,-45,-46.3,-44.5c-25.1,0.5,-45.1,21.2,-44.6,46.3c0.5,25.1,21.2,45,46.3,44.5c25.1,-0.5,45,-21.2,44.6,-46.3Z" class="g3_20" />
<path d="M161.7,314.9c-0.2,-0.1,-0.3,-0.3,-0.3,-0.5c0,-0.5,0.4,-0.8,0.8,-0.8c0.2,0,0.4,0.1,0.5,0.2c0.6,0.6,1.3,0.9,2.2,0.9c0.9,0,1.6,-0.6,1.6,-1.4l0,-0.1c0,-0.9,-0.9,-1.4,-2.2,-1.4l-0.3,0c-0.4,0,-0.7,-0.3,-0.7,-0.7c0,-0.2,0.1,-0.4,0.3,-0.7l2.2,-2.3l-3.4,0c-0.4,0,-0.7,-0.3,-0.7,-0.7c0,-0.4,0.3,-0.7,0.7,-0.7l4.8,0c0.5,0,0.8,0.3,0.8,0.7c0,0.4,-0.2,0.6,-0.5,0.9l-2.2,2.3c1.5,0.1,2.8,0.9,2.8,2.6c0,1.7,-1.3,3,-3.3,3c-1.3,0,-2.4,-0.5,-3.1,-1.3Z" class="g4_20" />
<path d="M175.6,311.6c0,0.4,-0.3,0.7,-0.7,0.7l-2.6,0c-0.4,0,-0.7,-0.3,-0.7,-0.7l0,-0.2c0,-0.4,0.3,-0.7,0.7,-0.7l2.6,0c0.4,0,0.7,0.3,0.7,0.7Z" class="g4_20" />
<path d="M153.5,277.6c0.2,-0.3,0.1,-0.7,-0.2,-0.9c-0.3,-0.2,-0.7,-0.1,-0.9,0.2l-1.1,1.6c-0.2,0.3,-0.1,0.8,0.2,1c0.3,0.2,0.7,0.1,0.9,-0.2Z" class="g4_20" />
<path d="M166.9,289.3c0.3,-0.1,0.4,-0.5,0.2,-0.9c-0.1,-0.3,-0.5,-0.4,-0.9,-0.2l-1.7,1c-0.3,0.1,-0.4,0.5,-0.3,0.9c0.2,0.3,0.6,0.4,0.9,0.2Z" class="g4_20" />
<path d="M172.2,330.9c0.3,0.2,0.7,0.1,0.9,-0.2c0.2,-0.3,0.1,-0.7,-0.2,-0.9l-1.6,-1.1c-0.3,-0.2,-0.7,-0.1,-0.9,0.2c-0.2,0.3,-0.2,0.7,0.1,0.9Z" class="g4_20" />
<path d="M156.7,350.1c0.1,0.3,0.5,0.4,0.9,0.2c0.3,-0.1,0.4,-0.5,0.2,-0.9l-1,-1.7c-0.1,-0.3,-0.5,-0.4,-0.9,-0.2c-0.3,0.1,-0.4,0.5,-0.2,0.9Z" class="g4_20" />
<path d="M108.8,294.5c-0.1,-0.2,-0.2,-0.5,0,-0.6c0.2,-0.2,0.4,-0.2,0.6,0L131,314.4l4.1,0.9l-1.3,-1.1l-2.8,1.3Z" class="g5_20" />
<path d="M137.9,314.7c0,-2.7,-2.2,-4.8,-4.9,-4.7c-2.6,0,-4.8,2.2,-4.7,4.9c0,2.6,2.2,4.8,4.9,4.7c2.7,0,4.8,-2.2,4.7,-4.9Z" class="g6_20" />
<path d="M128.9,279.6l-1,0.3c-0.1,0,-0.2,0,-0.3,0c-0.4,0,-0.7,-0.3,-0.7,-0.7c0,-0.3,0.2,-0.6,0.6,-0.7l1.4,-0.4c0.3,-0.1,0.5,-0.2,0.8,-0.2c0.5,0,0.8,0.4,0.8,0.8l0,7.9c0,0.5,-0.4,0.8,-0.8,0.8c-0.5,0,-0.8,-0.3,-0.8,-0.8Z" class="g4_20" />
<path d="M132.8,285.8l2.8,-2.5c1.3,-1,1.8,-1.6,1.8,-2.5c0,-0.9,-0.7,-1.4,-1.5,-1.4c-0.8,0,-1.3,0.3,-1.9,1c-0.1,0.1,-0.3,0.3,-0.5,0.3c-0.4,0,-0.8,-0.4,-0.8,-0.8c0,-0.2,0.1,-0.3,0.2,-0.5c0.8,-0.9,1.6,-1.5,3.1,-1.5c1.8,0,3.1,1.1,3.1,2.8c0,1.5,-0.8,2.3,-2.4,3.6l-2,1.6l3.8,0c0.4,0,0.7,0.3,0.7,0.7c0,0.4,-0.3,0.8,-0.7,0.8l-5.3,0c-0.5,0,-0.8,-0.3,-0.8,-0.8c0,-0.3,0.1,-0.6,0.4,-0.8Z" class="g4_20" />
<path d="M130.6,350.1c-0.7,-0.7,-1.1,-1.7,-1.1,-3.6c0,-2.9,1.3,-5.1,4,-5.1c0.9,0,1.7,0.3,2.3,0.7c0.3,0.1,0.4,0.3,0.4,0.7c0,0.4,-0.3,0.7,-0.8,0.7c-0.1,0,-0.3,0,-0.4,-0.1c-0.5,-0.3,-1,-0.5,-1.6,-0.5c-1.4,0,-2.1,1.2,-2.2,3c0.5,-0.5,1.1,-1,2.2,-1c1.8,0,3.3,1.1,3.3,3c0,1.8,-1.5,3.1,-3.5,3.1c-1.1,0,-2,-0.3,-2.6,-0.9Zm4.4,-2.2c0,-0.9,-0.7,-1.6,-1.9,-1.6c-1.1,0,-1.9,0.7,-1.9,1.6l0,0.1c0,0.9,0.8,1.6,2,1.6c1.1,0,1.8,-0.7,1.8,-1.7Z" class="g4_20" />
<path d="M98.1,315.5c-0.2,-0.2,-0.4,-0.4,-0.4,-0.7c0,-0.4,0.4,-0.8,0.8,-0.8c0.2,0,0.3,0.1,0.4,0.2c0.6,0.4,1.1,0.5,1.7,0.5c1.4,0,2.2,-1.2,2.3,-2.9c-0.5,0.6,-1.2,1,-2.2,1c-2,0,-3.3,-1.2,-3.3,-3c0,-1.8,1.4,-3.2,3.5,-3.2c1.2,0,1.9,0.3,2.6,1c0.7,0.7,1.1,1.7,1.1,3.5l0,0.1c0,3,-1.5,5,-4,5c-1,0,-1.8,-0.3,-2.5,-0.7Zm4.7,-5.8c0,-1,-0.7,-1.7,-1.9,-1.7c-1.2,0,-1.9,0.8,-1.9,1.7l0,0.1c0,0.9,0.8,1.6,2,1.6c1.1,0,1.8,-0.7,1.8,-1.7Z" class="g4_20" />
<path d="M94.6,311.6c0,0.4,-0.3,0.7,-0.7,0.7l-2.6,0c-0.4,0,-0.7,-0.3,-0.7,-0.7l0,-0.2c0,-0.4,0.3,-0.7,0.7,-0.7l2.6,0c0.4,0,0.7,0.3,0.7,0.7Z" class="g4_20" />
<path d="M134.3,274.2c0,0.4,-0.3,0.6,-0.7,0.6l-0.4,0c-0.4,0,-0.6,-0.2,-0.6,-0.6l0,-2.6c0,-0.4,0.2,-0.8,0.6,-0.8l0.4,0c0.4,0,0.7,0.4,0.7,0.8Z" class="g4_20" />
<path d="M134.3,357.3c0,0.4,-0.4,0.7,-0.8,0.7l-0.2,0c-0.4,0,-0.7,-0.3,-0.7,-0.7l0,-2.6c0,-0.4,0.3,-0.7,0.7,-0.7l0.2,0c0.4,0,0.8,0.3,0.8,0.7Z" class="g4_20" />
<path d="M110.6,350.5c-0.3,0.3,-0.2,0.7,0.1,0.9c0.3,0.3,0.7,0.2,0.9,-0.1l1.2,-1.5c0.2,-0.3,0.2,-0.8,-0.1,-1c-0.3,-0.2,-0.7,-0.1,-0.9,0.1Z" class="g4_20" />
<path d="M94.1,331.5c-0.3,0.1,-0.5,0.5,-0.3,0.9c0.1,0.3,0.5,0.5,0.8,0.3l1.8,-0.8c0.4,-0.2,0.5,-0.6,0.4,-0.9c-0.2,-0.4,-0.6,-0.5,-0.9,-0.3Z" class="g4_20" />
<path d="M99.3,289.3c-0.3,-0.2,-0.7,-0.1,-0.9,0.2c-0.2,0.3,-0.1,0.7,0.2,0.9l1.6,1.1c0.3,0.2,0.8,0.1,1,-0.2c0.2,-0.3,0.1,-0.7,-0.2,-0.9Z" class="g4_20" />
<path d="M114.7,276.4c-0.2,-0.4,-0.6,-0.5,-0.9,-0.3c-0.3,0.2,-0.4,0.6,-0.3,0.9l1,1.7c0.2,0.3,0.6,0.5,0.9,0.3c0.3,-0.2,0.4,-0.6,0.3,-0.9Z" class="g4_20" />
<path d="M128.9,279.6l-1,0.3c-0.1,0,-0.2,0,-0.3,0c-0.4,0,-0.7,-0.3,-0.7,-0.7c0,-0.3,0.2,-0.6,0.6,-0.7l1.4,-0.4c0.3,-0.1,0.5,-0.2,0.8,-0.2c0.5,0,0.8,0.4,0.8,0.8l0,7.9c0,0.5,-0.4,0.8,-0.8,0.8c-0.5,0,-0.8,-0.3,-0.8,-0.8Z" class="g4_20" />
<path d="M132.8,285.8l2.8,-2.5c1.3,-1,1.8,-1.6,1.8,-2.5c0,-0.9,-0.7,-1.4,-1.5,-1.4c-0.8,0,-1.3,0.3,-1.9,1c-0.1,0.1,-0.3,0.3,-0.5,0.3c-0.4,0,-0.8,-0.4,-0.8,-0.8c0,-0.2,0.1,-0.3,0.2,-0.5c0.8,-0.9,1.6,-1.5,3.1,-1.5c1.8,0,3.1,1.1,3.1,2.8c0,1.5,-0.8,2.3,-2.4,3.6l-2,1.6l3.8,0c0.4,0,0.7,0.3,0.7,0.7c0,0.4,-0.3,0.8,-0.7,0.8l-5.3,0c-0.5,0,-0.8,-0.3,-0.8,-0.8c0,-0.3,0.1,-0.6,0.4,-0.8Z" class="g4_20" />
<path d="M130.6,350.1c-0.7,-0.7,-1.1,-1.7,-1.1,-3.6c0,-2.9,1.3,-5.1,4,-5.1c0.9,0,1.7,0.3,2.3,0.7c0.3,0.1,0.4,0.3,0.4,0.7c0,0.4,-0.3,0.7,-0.8,0.7c-0.1,0,-0.3,0,-0.4,-0.1c-0.5,-0.3,-1,-0.5,-1.6,-0.5c-1.4,0,-2.1,1.2,-2.2,3c0.5,-0.5,1.1,-1,2.2,-1c1.8,0,3.3,1.1,3.3,3c0,1.8,-1.5,3.1,-3.5,3.1c-1.1,0,-2,-0.3,-2.6,-0.9Zm4.4,-2.2c0,-0.9,-0.7,-1.6,-1.9,-1.6c-1.1,0,-1.9,0.7,-1.9,1.6l0,0.1c0,0.9,0.8,1.6,2,1.6c1.1,0,1.8,-0.7,1.8,-1.7Z" class="g4_20" />
<path d="M98.1,315.5c-0.2,-0.2,-0.4,-0.4,-0.4,-0.7c0,-0.4,0.4,-0.8,0.8,-0.8c0.2,0,0.3,0.1,0.4,0.2c0.6,0.4,1.1,0.5,1.7,0.5c1.4,0,2.2,-1.2,2.3,-2.9c-0.5,0.6,-1.2,1,-2.2,1c-2,0,-3.3,-1.2,-3.3,-3c0,-1.8,1.4,-3.2,3.5,-3.2c1.2,0,1.9,0.3,2.6,1c0.7,0.7,1.1,1.7,1.1,3.5l0,0.1c0,3,-1.5,5,-4,5c-1,0,-1.8,-0.3,-2.5,-0.7Zm4.7,-5.8c0,-1,-0.7,-1.7,-1.9,-1.7c-1.2,0,-1.9,0.8,-1.9,1.7l0,0.1c0,0.9,0.8,1.6,2,1.6c1.1,0,1.8,-0.7,1.8,-1.7Z" class="g4_20" />
<path d="M94.6,311.6c0,0.4,-0.3,0.7,-0.7,0.7l-2.6,0c-0.4,0,-0.7,-0.3,-0.7,-0.7l0,-0.2c0,-0.4,0.3,-0.7,0.7,-0.7l2.6,0c0.4,0,0.7,0.3,0.7,0.7Z" class="g4_20" />
<path d="M134.3,274.2c0,0.4,-0.3,0.6,-0.7,0.6l-0.4,0c-0.4,0,-0.6,-0.2,-0.6,-0.6l0,-2.6c0,-0.4,0.2,-0.8,0.6,-0.8l0.4,0c0.4,0,0.7,0.4,0.7,0.8Z" class="g4_20" />
<path d="M134.3,357.3c0,0.4,-0.4,0.7,-0.8,0.7l-0.2,0c-0.4,0,-0.7,-0.3,-0.7,-0.7l0,-2.6c0,-0.4,0.3,-0.7,0.7,-0.7l0.2,0c0.4,0,0.8,0.3,0.8,0.7Z" class="g4_20" />
<path d="M110.6,350.5c-0.3,0.3,-0.2,0.7,0.1,0.9c0.3,0.3,0.7,0.2,0.9,-0.1l1.2,-1.5c0.2,-0.3,0.2,-0.8,-0.1,-1c-0.3,-0.2,-0.7,-0.1,-0.9,0.1Z" class="g4_20" />
<path d="M94.1,331.5c-0.3,0.1,-0.5,0.5,-0.3,0.9c0.1,0.3,0.5,0.5,0.8,0.3l1.8,-0.8c0.4,-0.2,0.5,-0.6,0.4,-0.9c-0.2,-0.4,-0.6,-0.5,-0.9,-0.3Z" class="g4_20" />
<path d="M99.3,289.3c-0.3,-0.2,-0.7,-0.1,-0.9,0.2c-0.2,0.3,-0.1,0.7,0.2,0.9l1.6,1.1c0.3,0.2,0.8,0.1,1,-0.2c0.2,-0.3,0.1,-0.7,-0.2,-0.9Z" class="g4_20" />
<path d="M114.7,276.4c-0.2,-0.4,-0.6,-0.5,-0.9,-0.3c-0.3,0.2,-0.4,0.6,-0.3,0.9l1,1.7c0.2,0.3,0.6,0.5,0.9,0.3c0.3,-0.2,0.4,-0.6,0.3,-0.9Z" class="g4_20" />
<path d="M135.3,317.3l-0.1,-30.5c0,-1.1,-0.9,-2,-2,-2c-1.2,0,-2.1,0.9,-2.1,2l0.1,31.5l1.2,-1.2l2.9,1.4Z" class="g5_20" />
<path d="M131.2,316.9l0,17.5c0,1.2,0.9,2.1,2,2.1c1.2,0,2.1,-0.9,2.1,-2.1l0,-17.4Z" class="g5_20" />
<path d="M137.9,314.7c0,-2.7,-2.2,-4.8,-4.9,-4.7c-2.6,0,-4.8,2.2,-4.7,4.9c0,2.6,2.2,4.8,4.9,4.7c2.7,0,4.8,-2.2,4.7,-4.9Z" class="g6_20" />
<path d="M83.5,979.5l230,0l0,-23l-230,0l0,23Z" class="g7_20" />
<image x="580" y="615" width="267" height="243" xlink:href="img/1.png" />
<image x="581" y="1002" width="266" height="215" xlink:href="img/2.png" />
<image x="595" y="251" width="223" height="319" xlink:href="img/3.png" />
<path d="M613.5,349.4l113.2,41.7" class="g8_20" />
<path d="M339,124l-351,0l0,68l316,0Z" class="g9_20" />
<path d="M107.1,1262.4l3,-2.8l-3,-2.6c-0.3,-0.3,-0.4,-0.8,-0.2,-1.2c0.2,-0.4,0.7,-0.5,1,-0.2l3.8,3.3c0.2,0.2,0.3,0.4,0.3,0.7c0,0.3,-0.1,0.5,-0.3,0.7l-3.7,3.4c-0.3,0.3,-0.8,0.2,-1,-0.2c-0.2,-0.3,-0.2,-0.9,0.1,-1.1Z" class="g10_20" />
<path d="M83.5,1269.5l13,0" class="g11_20" />
</svg>