<?xml version="1.0" encoding="UTF-8" standalone="no"?>
<!DOCTYPE svg PUBLIC "-//W3C//DTD SVG 1.1//EN"
"http://www.w3.org/Graphics/SVG/1.1/DTD/svg11.dtd">
<svg version="1.1" xmlns="http://www.w3.org/2000/svg" xmlns:xlink="http://www.w3.org/1999/xlink">
<defs>
<style type="text/css"><![CDATA[
.g3_35{
fill: #4D4A4B;
}
.g1_35{
fill: #A84097;
}
.g5_35{
fill: #373433;
}
.g4_35{
fill: #364E60;
}
.g2_35{
fill: none;
stroke: #FFFFFF;
stroke-width: 2;
stroke-linecap: butt;
stroke-linejoin: miter;
}
.g6_35{
fill: none;
stroke: #2AABE1;
stroke-width: 3;
stroke-linecap: butt;
stroke-linejoin: miter;
stroke-miterlimit: 22;
}
]]></style>
</defs>
<path d="M-13.2,-15.7l0,49.4l537,0l39.5,78.5l358.7,0l0,-127.9Z" class="g1_35" />
<path fill-rule="evenodd" d="M82,508l173,0l0,-21L82,487l0,21Z" class="g1_35" />
<path d="M-9,0L-32,0M918,0l23,0M-9,1285l-23,0m950,0l23,0M0,-9L0,-32M0,1294l0,23M909,-9l0,-23m0,1326l0,23" class="g2_35" />
<path d="M83.7,834.4l0,-81.6l762.2,0l0,56.7l-26.6,24.9Z" class="g3_35" />
<path fill-rule="evenodd" d="M82,875l216,0l0,-21L82,854l0,21Z" class="g1_35" />
<path d="M339,124l-351,0l0,68l316,0Z" class="g4_35" />
<path d="M84.2,243.5l6,-5.5l-6.1,-5.4c-0.6,-0.5,-0.7,-1.6,-0.3,-2.3c0.4,-0.8,1.3,-1,1.9,-0.4l7.7,6.7c0.3,0.3,0.5,0.8,0.5,1.3c0.1,0.6,-0.2,1.1,-0.5,1.4l-7.5,6.9c-0.6,0.5,-1.5,0.4,-1.9,-0.4c-0.5,-0.7,-0.4,-1.8,0.2,-2.3Z" class="g5_35" />
<path d="M817.7,1262.4l3,-2.8l-3,-2.6c-0.3,-0.3,-0.4,-0.8,-0.2,-1.2c0.2,-0.4,0.7,-0.5,1,-0.2l3.8,3.3c0.2,0.2,0.3,0.4,0.3,0.7c0,0.3,-0.1,0.5,-0.3,0.7l-3.7,3.4c-0.3,0.3,-0.8,0.2,-1,-0.2c-0.2,-0.3,-0.2,-0.9,0.1,-1.1Z" class="g3_35" />
<path d="M833.5,1269.5l13,0" class="g6_35" />
</svg>