<?xml version="1.0" encoding="UTF-8" standalone="no"?>
<!DOCTYPE svg PUBLIC "-//W3C//DTD SVG 1.1//EN"
"http://www.w3.org/Graphics/SVG/1.1/DTD/svg11.dtd">
<svg version="1.1" xmlns="http://www.w3.org/2000/svg" xmlns:xlink="http://www.w3.org/1999/xlink">
<defs>
<style type="text/css"><![CDATA[
.g20_26{
fill: #364E60;
}
.g16_26{
fill: #FADBC0;
}
.g14_26{
fill: #EDEEED;
}
.g12_26{
fill: #0E110F;
}
.g18_26{
fill: #E89771;
}
.g1_26{
fill: #EC0B8C;
}
.g5_26{
fill: #FFFFFF;
}
.g24_26{
fill: none;
stroke: #0E1110;
stroke-width: 1;
stroke-linecap: butt;
stroke-linejoin: miter;
}
.g4_26{
fill: #6FAEDF;
}
.g15_26{
fill: #12723A;
}
.g8_26{
fill: #6A449A;
}
.g23_26{
fill: #0E1110;
}
.g3_26{
fill: #E5E1E1;
}
.g2_26{
fill: #ABABAC;
}
.g10_26{
fill: #B9DEC1;
}
.g19_26{
fill: #121112;
}
.g21_26{
fill: #4D4A4B;
}
.g22_26{
fill: none;
stroke: #2AABE1;
stroke-width: 3;
stroke-linecap: butt;
stroke-linejoin: miter;
stroke-miterlimit: 22;
}
.g7_26{
fill: none;
stroke: #6A449A;
stroke-width: 1;
stroke-linecap: butt;
stroke-linejoin: miter;
}
.g17_26{
fill: #1C2222;
}
.g13_26{
fill: none;
stroke: #ADAEB3;
stroke-width: 1;
stroke-linecap: butt;
stroke-linejoin: miter;
}
.g9_26{
fill: none;
stroke: #131112;
stroke-width: 1;
stroke-linecap: butt;
stroke-linejoin: miter;
}
.g6_26{
fill: #131112;
}
.g11_26{
fill: none;
stroke: #0E110F;
stroke-width: 1;
stroke-linecap: butt;
stroke-linejoin: miter;
}
]]></style>
</defs>
<path d="M922,-15.7l0,49.4l-537.1,0l-39.5,78.5l-358.6,0l0,-127.9Z" class="g1_26" />
<path d="M84.5,807.8l5.6,-5.1l-5.7,-5c-0.6,-0.5,-0.7,-1.5,-0.3,-2.2c0.4,-0.7,1.2,-0.9,1.8,-0.4l7.1,6.3c0.3,0.3,0.5,0.7,0.5,1.2c0,0.5,-0.2,1,-0.5,1.3l-7,6.4c-0.5,0.5,-1.3,0.4,-1.8,-0.3c-0.4,-0.7,-0.3,-1.7,0.3,-2.2Z" class="g2_26" />
<image x="330" y="766" width="2" height="2" xlink:href="img/1.png" />
<image x="222" y="766" width="2" height="2" xlink:href="img/2.png" transform="scale(1.5 , 1)" />
<path d="M476.2,808.2l5.6,-5.1l-5.7,-5c-0.5,-0.5,-0.7,-1.5,-0.3,-2.2c0.4,-0.7,1.2,-0.9,1.8,-0.4l7.1,6.3c0.4,0.3,0.6,0.7,0.6,1.2c0,0.6,-0.2,1,-0.5,1.3l-7,6.4c-0.6,0.5,-1.4,0.4,-1.8,-0.3c-0.4,-0.7,-0.3,-1.7,0.2,-2.2Z" class="g2_26" />
<path d="M181.7,1002.5l5.6,-5.1l-5.7,-5c-0.5,-0.5,-0.7,-1.5,-0.3,-2.2c0.4,-0.7,1.2,-0.9,1.8,-0.4l7.1,6.3c0.4,0.3,0.6,0.7,0.6,1.2c0,0.5,-0.2,1,-0.5,1.3l-7,6.4c-0.6,0.5,-1.4,0.4,-1.8,-0.3c-0.4,-0.7,-0.3,-1.7,0.2,-2.2Z" class="g2_26" />
<path d="M530.5,997.3l5.6,-5.1l-5.7,-5c-0.6,-0.5,-0.7,-1.5,-0.3,-2.2c0.4,-0.7,1.2,-0.9,1.8,-0.4l7.1,6.3c0.3,0.3,0.5,0.7,0.5,1.2c0,0.5,-0.2,1,-0.5,1.3l-7,6.4c-0.5,0.5,-1.3,0.4,-1.8,-0.3c-0.4,-0.7,-0.3,-1.7,0.3,-2.2Z" class="g2_26" />
<path d="M387.9,1112.3l5.6,-5.1l-5.7,-5c-0.5,-0.5,-0.7,-1.5,-0.3,-2.2c0.4,-0.7,1.2,-0.9,1.8,-0.4l7.1,6.3c0.4,0.3,0.6,0.7,0.6,1.2c0,0.5,-0.2,1,-0.5,1.3l-7,6.4c-0.6,0.5,-1.4,0.4,-1.8,-0.3c-0.4,-0.7,-0.3,-1.7,0.2,-2.2Z" class="g2_26" />
<image x="185.333" y="755" width="2" height="2" xlink:href="img/3.png" transform="scale(1.5 , 1)" />
<image x="188" y="755" width="2" height="2" xlink:href="img/4.png" transform="scale(1.5 , 1)" />
<image x="119" y="720" width="77" height="56" xlink:href="shade/1.png" />
<image x="119" y="720" width="34" height="56" xlink:href="shade/2.png" />
<image x="119" y="735" width="78" height="40" xlink:href="shade/3.png" />
<image x="162" y="720" width="35" height="56" xlink:href="shade/4.png" />
<path fill-rule="evenodd" d="M120.7,721.2l74.4,0l-33.9,22.2c-3.1,2,-3.6,2.7,-7,0.4Z" class="g3_26" />
<image x="120" y="720" width="34" height="54" xlink:href="img/5.png" />
<image x="120" y="720" width="33" height="54" xlink:href="img/6.png" />
<image x="120" y="736" width="76" height="38" xlink:href="img/7.png" />
<image x="120" y="737" width="76" height="37" xlink:href="img/8.png" />
<image x="161" y="720" width="35" height="54" xlink:href="img/9.png" />
<image x="162" y="720" width="34" height="54" xlink:href="img/10.png" />
<path fill-rule="evenodd" d="M120.7,721.2l74.4,0L161.2,699.1c-3.1,-1.9,-3.6,-2.7,-6.9,-0.4Z" class="g4_26" />
<path fill-rule="evenodd" d="M122.5,721.2l70.8,0L161,700.2c-2.9,-1.8,-3.4,-2.5,-6.5,-0.4Z" class="g3_26" />
<image x="208" y="348.5" width="4" height="1" xlink:href="img/11.png" transform="scale(0.75 , 2)" />
<image x="155" y="348.5" width="5" height="1" xlink:href="img/12.png" transform="scale(1 , 2)" />
<image x="153" y="699" width="8" height="2" xlink:href="img/13.png" />
<image x="138.181" y="700" width="10" height="2" xlink:href="img/14.png" transform="scale(1.1 , 1)" />
<image x="139.384" y="350" width="12" height="1" xlink:href="img/15.png" transform="scale(1.083 , 2)" />
<image x="150" y="701" width="15" height="1" xlink:href="img/16.png" />
<image x="139.777" y="350.5" width="17" height="1" xlink:href="img/17.png" transform="scale(1.058 , 2)" />
<image x="147" y="703" width="21" height="2" xlink:href="img/18.png" />
<image x="146" y="704" width="23" height="2" xlink:href="img/19.png" />
<image x="145" y="704" width="25" height="2" xlink:href="img/20.png" />
<image x="144" y="705" width="27" height="1" xlink:href="img/21.png" />
<image x="143" y="352.5" width="29" height="1" xlink:href="img/22.png" transform="scale(1 , 2)" />
<image x="136.727" y="353" width="32" height="1" xlink:href="img/23.png" transform="scale(1.031 , 2)" />
<image x="140" y="708" width="35" height="2" xlink:href="img/24.png" />
<image x="139" y="472" width="37" height="2" xlink:href="img/25.png" transform="scale(1 , 1.5)" />
<image x="138" y="709" width="40" height="2" xlink:href="img/26.png" />
<image x="137" y="354.5" width="42" height="1" xlink:href="img/27.png" transform="scale(1 , 2)" />
<image x="132" y="355" width="44" height="1" xlink:href="img/28.png" transform="scale(1.022 , 2)" />
<image x="134" y="712" width="47" height="2" xlink:href="img/29.png" />
<image x="133" y="474.666" width="49" height="2" xlink:href="img/30.png" transform="scale(1 , 1.5)" />
<image x="132" y="713" width="51" height="2" xlink:href="img/31.png" />
<image x="131" y="356.5" width="54" height="1" xlink:href="img/32.png" transform="scale(1 , 2)" />
<image x="130" y="357" width="56" height="1" xlink:href="img/33.png" transform="scale(1 , 2)" />
<image x="125.866" y="357.5" width="59" height="1" xlink:href="img/34.png" transform="scale(1.016 , 2)" />
<image x="124.951" y="477.333" width="61" height="2" xlink:href="img/35.png" transform="scale(1.016 , 1.5)" />
<image x="126" y="717" width="64" height="2" xlink:href="img/36.png" />
<image x="124" y="718" width="67" height="2" xlink:href="img/37.png" />
<image x="121.217" y="359" width="68" height="1" xlink:href="img/38.png" transform="scale(1.014 , 2)" />
<image x="122" y="359.5" width="71" height="1" xlink:href="img/39.png" transform="scale(1 , 2)" />
<image x="120" y="720" width="75" height="1" xlink:href="img/40.png" />
<image x="122" y="721" width="72" height="2" xlink:href="img/41.png" />
<image x="123" y="722" width="70" height="2" xlink:href="img/42.png" />
<image x="124" y="723" width="68" height="2" xlink:href="img/43.png" />
<image x="126" y="361.5" width="64" height="1" xlink:href="img/44.png" transform="scale(1 , 2)" />
<image x="127" y="724" width="62" height="1" xlink:href="img/45.png" />
<image x="128" y="725" width="59" height="2" xlink:href="img/46.png" />
<image x="130" y="726" width="56" height="2" xlink:href="img/47.png" />
<image x="131" y="727" width="54" height="2" xlink:href="img/48.png" />
<image x="133" y="363.5" width="50" height="1" xlink:href="img/49.png" transform="scale(1 , 2)" />
<image x="134" y="364" width="48" height="1" xlink:href="img/50.png" transform="scale(1 , 2)" />
<image x="135" y="364" width="45" height="1" xlink:href="img/51.png" transform="scale(1 , 2)" />
<image x="136" y="730" width="43" height="2" xlink:href="img/52.png" />
<image x="138" y="731" width="39" height="2" xlink:href="img/53.png" />
<image x="135.243" y="487.333" width="36" height="2" xlink:href="img/54.png" transform="scale(1.027 , 1.5)" />
<image x="141" y="366" width="34" height="1" xlink:href="img/55.png" transform="scale(1 , 2)" />
<image x="142" y="366" width="31" height="1" xlink:href="img/56.png" transform="scale(1 , 2)" />
<image x="143" y="734" width="28" height="2" xlink:href="img/57.png" />
<image x="145" y="735" width="25" height="2" xlink:href="img/58.png" />
<image x="139.652" y="490" width="22" height="2" xlink:href="img/59.png" transform="scale(1.045 , 1.5)" />
<image x="147" y="368" width="20" height="1" xlink:href="img/60.png" transform="scale(1 , 2)" />
<image x="149" y="737" width="17" height="1" xlink:href="img/61.png" />
<image x="150" y="368.5" width="14" height="1" xlink:href="img/62.png" transform="scale(1 , 2)" />
<image x="151" y="739" width="13" height="2" xlink:href="img/63.png" />
<image x="151" y="740" width="13" height="2" xlink:href="img/64.png" />
<image x="151" y="740" width="2" height="2" xlink:href="img/65.png" />
<path d="M238.6,729l15.2,-7.8c0,0,15.9,-8.3,22.6,-6.8c2.3,2.1,6.7,9.6,9.2,14.7l-16.7,9.7c-2.1,0.9,-0.9,2.5,-0.9,2.5c0,0,-2,-2.1,-2.7,-2.8c-0.7,-0.4,-2.3,-0.8,-3,-0.8c-1.5,0.1,-2.3,0.1,-3.1,0.7c-1.1,0.9,-1.6,1.6,-3.1,3.1c0.6,-0.8,0.5,-1.7,-0.4,-2.3Z" class="g5_26" />
<path d="M494.5,281.1l5.6,-5.1l-5.7,-5c-0.5,-0.5,-0.7,-1.5,-0.3,-2.2c0.4,-0.7,1.2,-0.9,1.8,-0.4l7.1,6.3c0.4,0.3,0.6,0.7,0.6,1.2c0,0.5,-0.2,1,-0.5,1.3l-7,6.4c-0.6,0.5,-1.4,0.4,-1.8,-0.3c-0.4,-0.7,-0.3,-1.7,0.2,-2.2Z" class="g2_26" />
<image x="537" y="243" width="247" height="79" xlink:href="img/66.png" />
<path d="M494.5,364.6l5.6,-5.1l-5.7,-5c-0.5,-0.5,-0.7,-1.5,-0.3,-2.2c0.4,-0.7,1.2,-0.9,1.8,-0.4l7.1,6.3c0.4,0.3,0.6,0.7,0.6,1.2c0,0.5,-0.2,1,-0.5,1.3l-7,6.4c-0.6,0.5,-1.4,0.4,-1.8,-0.3c-0.4,-0.7,-0.3,-1.7,0.2,-2.2Z" class="g2_26" />
<image x="537" y="335" width="247" height="78" xlink:href="img/67.png" />
<path d="M494.5,465.6l5.6,-5.1l-5.7,-5c-0.5,-0.5,-0.7,-1.5,-0.3,-2.2c0.4,-0.7,1.2,-0.9,1.8,-0.4l7.1,6.3c0.4,0.3,0.6,0.7,0.6,1.3c0,0.5,-0.2,0.9,-0.5,1.2l-7,6.4c-0.6,0.5,-1.4,0.4,-1.8,-0.3c-0.4,-0.7,-0.3,-1.7,0.2,-2.2Z" class="g2_26" />
<path d="M494.5,568.8l5.6,-5.1l-5.7,-4.9c-0.5,-0.5,-0.7,-1.5,-0.3,-2.2c0.4,-0.7,1.2,-0.9,1.8,-0.4l7.1,6.2c0.4,0.3,0.6,0.8,0.6,1.3c0,0.5,-0.2,1,-0.5,1.3l-7,6.4c-0.6,0.5,-1.4,0.3,-1.8,-0.4c-0.4,-0.7,-0.3,-1.6,0.2,-2.2Z" class="g2_26" />
<image x="82" y="959" width="88" height="118" xlink:href="img/68.png" />
<path d="M90.5,983.6c0,0.2,-0.1,0.5,-0.1,0.9c-0.1,0.3,-0.1,0.7,-0.1,1.1c-0.1,0.4,-0.1,0.8,-0.1,1.3c0.1,0.4,0.1,0.8,0.2,1.2c0,0,0,0.1,-0.1,0.2c0,0,-0.1,0.1,-0.2,0.1c0,0,-0.1,0,-0.2,0c-0.1,-0.1,-0.2,-0.1,-0.2,-0.3c-0.1,-0.4,-0.1,-0.8,-0.1,-1.2c0,-0.5,0,-0.9,0,-1.3c0,-0.5,0.1,-0.9,0.1,-1.2c0.1,-0.4,0.1,-0.7,0.2,-0.9c0,-0.1,0.1,-0.2,0.1,-0.2c0.1,0,0.2,0,0.3,0c0.1,0,0.1,0,0.2,0.1c0,0.1,0.1,0.1,0,0.2Zm3.4,0.4c0,0.1,-0.1,0.3,-0.2,0.5c-0.1,0.2,-0.4,0.3,-0.6,0.5c-0.2,0,-0.3,0.1,-0.5,0.2c-0.1,0,-0.3,0.1,-0.5,0.2c-0.2,0.1,-0.4,0.2,-0.6,0.3c-0.2,0.1,-0.3,0.2,-0.5,0.2c-0.1,0.1,-0.2,0.1,-0.3,0c0,0,-0.1,-0.1,-0.1,-0.1c-0.1,-0.1,-0.1,-0.2,-0.1,-0.3c0.1,-0.1,0.1,-0.1,0.2,-0.2c0.2,-0.1,0.4,-0.1,0.6,-0.2c0.2,-0.1,0.3,-0.2,0.5,-0.3c0.2,-0.1,0.4,-0.1,0.5,-0.2c0.2,-0.1,0.3,-0.2,0.4,-0.2c0.3,-0.1,0.4,-0.3,0.4,-0.4c0,-0.1,-0.1,-0.2,-0.2,-0.3c-0.1,0,-0.2,-0.1,-0.4,-0.2c-0.2,0,-0.4,-0.1,-0.7,-0.1c-0.2,-0.1,-0.5,-0.1,-0.7,-0.2c-0.3,0,-0.5,-0.1,-0.8,-0.1C90,983,89.8,983,89.6,983c-0.2,-0.1,-0.4,-0.1,-0.6,-0.2c-0.1,0,-0.3,-0.1,-0.3,-0.1c-0.1,-0.1,-0.2,-0.1,-0.2,-0.2c0,-0.1,0,-0.1,0,-0.2c0,-0.1,0,-0.2,0.1,-0.2C88.7,982,88.8,982,88.9,982c0,0,0.1,0,0.2,0.1c0,0,0.1,0,0.1,0.1c0.3,0,0.5,0.1,0.8,0.2c0.3,0,0.6,0.1,0.9,0.1c0.3,0.1,0.6,0.1,0.9,0.2c0.3,0.1,0.6,0.1,0.8,0.2c0.5,0.1,0.8,0.3,1,0.5c0.2,0.1,0.3,0.3,0.3,0.6Z" class="g6_26" />
<path d="M97.9,984.1c0,-0.1,-0.1,-0.2,-0.3,-0.3c-0.2,-0.2,-0.5,-0.3,-0.8,-0.4c-0.4,-0.1,-0.7,-0.3,-1.1,-0.4c-0.1,0.1,-0.1,0.2,-0.1,0.4c-0.1,0.1,-0.1,0.3,-0.1,0.5c0,0.2,0,0.4,0,0.6c0,0.3,0,0.5,-0.1,0.8c0.2,-0.1,0.4,-0.2,0.6,-0.2c0.2,-0.1,0.4,-0.1,0.6,-0.2c0.1,-0.1,0.3,-0.1,0.5,-0.2c0.2,-0.1,0.3,-0.1,0.4,-0.2c0.3,-0.1,0.4,-0.2,0.4,-0.4Zm1.2,4c0,0.1,-0.1,0.1,-0.1,0.2c-0.1,0,-0.2,0,-0.3,0c-0.2,0,-0.4,-0.1,-0.7,-0.2c-0.3,-0.1,-0.6,-0.2,-0.9,-0.4c-0.3,-0.1,-0.6,-0.2,-0.9,-0.4C96,987.2,95.7,987,95.5,986.9c0,0.1,0,0.2,0,0.3c-0.1,0.1,-0.1,0.2,-0.1,0.4c0,0.1,0,0.2,0,0.3c0,0.1,0,0.2,0,0.2c0,0.1,0,0.2,-0.1,0.3c-0.1,0,-0.1,0.1,-0.2,0.1c-0.1,-0.1,-0.2,-0.1,-0.2,-0.1c-0.1,-0.1,-0.2,-0.2,-0.1,-0.3c0,-0.2,0,-0.5,0,-0.8c0,-0.3,0,-0.6,0,-0.8c-0.2,-0.2,-0.3,-0.3,-0.3,-0.5c0,-0.2,0.1,-0.4,0.3,-0.5l0,-0.7c0,-0.2,0,-0.4,0,-0.7c0,-0.2,0.1,-0.4,0.1,-0.6c0,-0.3,0.1,-0.5,0.1,-0.6c-0.1,-0.1,-0.2,-0.1,-0.3,-0.1c-0.1,0,-0.2,0,-0.3,-0.1c0,0.1,-0.1,0.1,-0.2,0c0,0,-0.1,0,-0.2,0c0,0,-0.1,-0.1,-0.1,-0.1c-0.1,0,-0.1,-0.1,-0.2,-0.1c0,-0.1,-0.1,-0.2,-0.1,-0.2c0,-0.1,0,-0.2,0.1,-0.2c0.1,-0.1,0.2,-0.2,0.4,-0.2c0,0,0.1,0,0.1,0.1c0.1,0,0.1,0,0.2,0.1c0.3,0,0.6,0.1,1,0.2c0.3,0.1,0.6,0.1,0.9,0.2c0.3,0.1,0.6,0.2,0.9,0.3c0.2,0.2,0.5,0.3,0.7,0.4c0.6,0.3,0.8,0.6,0.8,1c0,0.3,-0.3,0.6,-0.8,0.8c-0.2,0.1,-0.3,0.2,-0.6,0.3c-0.2,0,-0.4,0.1,-0.6,0.2c-0.2,0.1,-0.4,0.1,-0.6,0.2c-0.2,0.1,-0.4,0.2,-0.6,0.2c0,0.1,0,0.1,0,0.1c0,0.1,0,0.1,0,0.1c0.2,0.2,0.4,0.3,0.7,0.5c0.3,0.1,0.6,0.3,0.9,0.4c0.3,0.1,0.6,0.3,0.9,0.4c0.3,0.1,0.6,0.2,0.9,0.3c0.1,0,0.2,0,0.2,0.1c0.1,0.1,0.1,0.2,0,0.3Z" class="g6_26" />
<path d="M103.9,987.2c-0.1,0.1,-0.3,0.2,-0.4,0.3c-0.2,0.1,-0.4,0.2,-0.6,0.3c-0.1,0,-0.3,0.1,-0.5,0.1c-0.2,0.1,-0.4,0.2,-0.7,0.2c-0.2,0,-0.4,0.1,-0.6,0.1c-0.2,0,-0.4,0,-0.6,0c-0.2,0,-0.3,0,-0.5,0c-0.1,-0.1,-0.2,-0.2,-0.3,-0.3c0,-0.1,-0.1,-0.3,-0.1,-0.4c-0.1,-0.2,-0.1,-0.4,-0.1,-0.6c0,-0.1,0,-0.2,0,-0.3c0,-0.1,0.1,-0.2,0.1,-0.3c0,-0.2,0,-0.3,0.1,-0.4c0,-0.1,0,-0.2,0,-0.3c0,0,-0.1,0,-0.2,0c-0.1,0.1,-0.2,0.1,-0.2,0c-0.1,0.1,-0.2,0,-0.3,0c-0.1,-0.1,-0.1,-0.2,-0.1,-0.2c0,-0.2,0.1,-0.3,0.2,-0.4c0,0,0.1,0,0.2,-0.1c0.1,0,0.2,0,0.2,0.1c0.1,0,0.2,0,0.2,0c0.1,0,0.2,-0.1,0.2,-0.1c0.1,-0.2,0.2,-0.5,0.3,-0.7c0,-0.3,0.1,-0.5,0.1,-0.7c0,0,0,-0.1,0,-0.2c0,0,0,-0.1,0,-0.1c-0.1,0,-0.2,0.1,-0.4,0.1c-0.1,0,-0.2,0.1,-0.3,0.1c-0.1,0.1,-0.2,0.1,-0.3,0c-0.1,0,-0.1,-0.1,-0.1,-0.2c-0.1,0,0,-0.1,0,-0.2c0,-0.1,0.1,-0.2,0.2,-0.2c0.4,-0.1,0.7,-0.2,1.1,-0.3c0.4,-0.1,0.7,-0.1,1.1,-0.2c0.4,0,0.7,0,1.1,0c0.3,0,0.6,0,0.9,0c0.1,0,0.2,0,0.2,0.1c0.1,0.1,0.1,0.1,0.1,0.2c0,0.1,0,0.2,-0.1,0.2c-0.1,0.1,-0.1,0.1,-0.2,0.1c-0.5,0,-0.9,0,-1.4,0c-0.4,0.1,-0.8,0.1,-1.2,0.2c0,0,0,0.1,0,0.1c0,0.1,0,0.2,0,0.2c0,0.2,-0.1,0.4,-0.1,0.7c-0.1,0.2,-0.2,0.5,-0.2,0.7c0.2,0,0.4,0,0.7,-0.1c0.2,0,0.4,-0.1,0.7,-0.1c0.2,0,0.4,-0.1,0.6,-0.1c0.2,-0.1,0.4,-0.1,0.5,-0.1c0.1,0,0.2,0,0.3,0c0,0.1,0.1,0.1,0.1,0.2c0,0.1,0,0.2,0,0.3c-0.1,0,-0.2,0.1,-0.3,0.1c-0.1,0.1,-0.3,0.1,-0.5,0.1c-0.3,0.1,-0.6,0.1,-0.8,0.2c-0.3,0,-0.6,0.1,-0.8,0.1c-0.3,0.1,-0.5,0.1,-0.7,0.1c-0.1,0.3,-0.2,0.5,-0.2,0.8c-0.1,0.2,-0.1,0.4,-0.1,0.6c0,0.1,0,0.2,0,0.3c0,0.1,0,0.2,0.1,0.3c0.1,0,0.2,0.1,0.3,0.1c0.3,-0.1,0.6,-0.1,1,-0.2c0.4,0,0.7,-0.1,1.1,-0.2c0.1,-0.1,0.3,-0.1,0.4,-0.2c0.1,-0.1,0.2,-0.2,0.3,-0.3c0.1,-0.1,0.2,-0.1,0.2,-0.1c0.1,0,0.2,0,0.3,0.1c0,0,0.1,0.1,0.1,0.2c0,0.1,0,0.2,-0.1,0.3Z" class="g6_26" />
<path d="M107.7,980.8c0.1,0.2,0.1,0.3,-0.1,0.5c-0.1,0.1,-0.2,0.3,-0.4,0.5c-0.2,0.1,-0.4,0.3,-0.7,0.5c-0.2,0.2,-0.5,0.4,-0.7,0.7c-0.2,0.2,-0.5,0.4,-0.6,0.6c-0.3,0.2,-0.4,0.5,-0.4,0.7c0,0.2,0.1,0.4,0.3,0.6c0.1,0.1,0.2,0.2,0.3,0.3c0.1,0.1,0.3,0.2,0.4,0.3c0.1,0.1,0.2,0.2,0.4,0.3c0.1,0.1,0.2,0.2,0.3,0.3c0.4,0.4,0.6,0.8,0.6,1.2c0,0.1,-0.1,0.3,-0.1,0.5c-0.1,0.1,-0.2,0.2,-0.3,0.4c-0.1,0.1,-0.2,0.2,-0.3,0.3c-0.1,0.1,-0.3,0.2,-0.4,0.3c-0.1,0.1,-0.2,0.2,-0.3,0.3c-0.1,0,-0.2,0.1,-0.3,0.1c-0.1,0.1,-0.2,0.1,-0.3,0.1c-0.1,-0.1,-0.1,-0.1,-0.2,-0.2c0,-0.1,-0.1,-0.2,0,-0.3c0,0,0,-0.1,0.1,-0.2c0.1,0,0.2,-0.1,0.3,-0.1c0.1,-0.1,0.2,-0.1,0.3,-0.2c0.1,-0.1,0.2,-0.2,0.3,-0.2c0.1,-0.1,0.2,-0.2,0.3,-0.3c0.1,-0.2,0.2,-0.4,0.2,-0.5c0,-0.2,-0.2,-0.5,-0.4,-0.7c-0.1,-0.1,-0.2,-0.2,-0.3,-0.3c-0.1,-0.1,-0.3,-0.2,-0.4,-0.3c-0.1,-0.1,-0.2,-0.2,-0.4,-0.3c-0.1,-0.1,-0.2,-0.2,-0.2,-0.3c-0.4,-0.3,-0.6,-0.7,-0.6,-1.1c0,-0.3,0.2,-0.7,0.6,-1.1c0.1,-0.2,0.3,-0.4,0.6,-0.6c0.2,-0.2,0.4,-0.4,0.6,-0.6c0.2,-0.2,0.4,-0.3,0.6,-0.5c0.1,-0.1,0.3,-0.2,0.4,-0.3c0,-0.1,0.1,-0.2,0.1,-0.3c0.1,-0.1,0.1,-0.1,0.2,-0.1c0.1,-0.1,0.2,-0.1,0.3,-0.1c0,0.1,0.1,0.1,0.2,0.1Z" class="g6_26" />
<path d="M111.6,982.8c0,0.1,0,0.2,-0.1,0.2c0,0.1,-0.1,0.1,-0.2,0.1c-0.1,0.1,-0.3,0.1,-0.4,0.1l-0.5,0c-0.1,0,-0.2,0,-0.4,0c-0.1,0,-0.2,-0.1,-0.3,-0.1c0,0.3,0,0.6,0,1c-0.1,0.3,-0.1,0.6,-0.1,1c0,0.3,0,0.6,0,1c-0.1,0.3,-0.1,0.6,-0.1,0.9c0.2,0,0.4,0,0.6,0l0.6,0c0.1,0,0.2,0,0.3,0.1c0,0.1,0,0.1,0,0.2c0,0.1,0,0.2,0,0.2c-0.1,0.1,-0.2,0.2,-0.3,0.2c-0.2,0,-0.3,0,-0.6,0c-0.2,0,-0.4,0,-0.7,0c0,0,-0.1,0.1,-0.1,0.1c-0.1,0,-0.1,0,-0.2,0c0,0,-0.1,0,-0.1,0c-0.1,0,-0.1,-0.1,-0.1,-0.1c-0.2,0,-0.4,0,-0.6,0c-0.1,0,-0.3,0,-0.5,0c-0.1,0,-0.2,0,-0.2,-0.1c-0.1,-0.1,-0.1,-0.2,-0.1,-0.2c0,-0.1,0,-0.2,0.1,-0.3c0,0,0.1,-0.1,0.2,-0.1l0.5,0c0.2,0,0.3,0,0.5,0c0,-0.3,0.1,-0.6,0.1,-1c0,-0.3,0,-0.6,0,-1c0.1,-0.3,0.1,-0.6,0.1,-1c0,-0.3,0,-0.6,0,-0.9c-0.1,0,-0.3,0,-0.4,0c-0.2,0,-0.3,0,-0.5,0c0,0.1,-0.1,0.1,-0.2,0.1c-0.1,0,-0.1,0,-0.2,0c-0.1,0,-0.2,-0.1,-0.2,-0.1c-0.1,-0.1,-0.1,-0.2,-0.1,-0.2c0,-0.1,0,-0.2,0,-0.3c0.1,0,0.2,-0.1,0.3,-0.1c0.1,0,0.2,0,0.3,0c0.1,0,0.2,0,0.3,0l0.7,0c0.1,-0.1,0.1,-0.1,0.2,-0.1c0,-0.1,0.1,-0.1,0.1,-0.1c0.1,0,0.1,0,0.2,0.1l0.1,0.1c0.2,0,0.5,0,0.8,0c0.3,0,0.6,0,0.9,0c0.1,0,0.1,0,0.2,0.1c0.1,0.1,0.1,0.1,0.1,0.2Z" class="g6_26" />
<path d="M117,985c0,0.2,0,0.4,-0.1,0.6c-0.2,0.2,-0.3,0.4,-0.5,0.6c-0.2,0.2,-0.4,0.4,-0.6,0.6c-0.2,0.2,-0.4,0.4,-0.6,0.5c-0.3,0.2,-0.6,0.4,-1,0.6c-0.3,0.2,-0.7,0.4,-1,0.6c-0.1,0,-0.2,0,-0.3,0c-0.1,0,-0.1,-0.1,-0.2,-0.1c0,-0.1,0,-0.2,0,-0.3c0,-0.1,0.1,-0.1,0.2,-0.2c0.3,-0.2,0.7,-0.4,1,-0.6c0.3,-0.1,0.6,-0.3,0.9,-0.5c0.1,-0.1,0.3,-0.3,0.5,-0.4c0.1,-0.2,0.3,-0.3,0.5,-0.5c0.1,-0.2,0.2,-0.3,0.3,-0.5c0.1,-0.2,0.2,-0.3,0.2,-0.4c0,-0.2,-0.1,-0.4,-0.2,-0.6c-0.2,-0.1,-0.4,-0.3,-0.6,-0.5c-0.2,-0.1,-0.3,-0.2,-0.5,-0.3c-0.2,-0.1,-0.4,-0.2,-0.7,-0.4c-0.2,-0.1,-0.4,-0.2,-0.6,-0.3c-0.3,-0.2,-0.5,-0.3,-0.7,-0.4c0,0.5,-0.1,0.9,-0.1,1.4c0,0.4,-0.1,0.9,-0.1,1.3c-0.1,0.4,-0.1,0.7,-0.1,1c0,0.3,0,0.5,0,0.6c0,0.1,0,0.2,0,0.3c0.1,0.1,0.1,0.1,0.1,0.2c0.1,0.1,0.1,0.2,0,0.2c0,0.1,-0.1,0.1,-0.1,0.2c-0.1,0,-0.2,0,-0.3,0c-0.1,0,-0.2,-0.1,-0.2,-0.2c-0.1,-0.1,-0.1,-0.2,-0.1,-0.3C112,987.1,112,987,112,986.8c0,0,0,-0.2,0,-0.4c0,-0.1,0,-0.4,0,-0.6c0.1,-0.2,0.1,-0.5,0.1,-0.8c0.1,-0.3,0.1,-0.6,0.1,-0.9c0,-0.3,0.1,-0.7,0.1,-1c0,-0.3,0.1,-0.6,0.1,-0.9c-0.1,0,-0.1,-0.1,-0.2,-0.1c0,0,-0.1,-0.1,-0.1,-0.1c-0.1,0,-0.2,0,-0.2,0c-0.1,-0.1,-0.1,-0.1,-0.2,-0.2c0,0,-0.1,-0.1,0,-0.2c0,0,0,-0.1,0,-0.2c0.1,0,0.2,-0.1,0.2,-0.1c0.1,0,0.2,0,0.3,0.1c0.4,0.2,0.7,0.3,1.1,0.5c0.4,0.2,0.7,0.4,1,0.6c0.4,0.2,0.7,0.3,0.9,0.5c0.3,0.2,0.5,0.3,0.6,0.4c0.8,0.5,1.2,1,1.2,1.6Z" class="g6_26" />
<path d="M122.3,987.2c-0.1,0.1,-0.3,0.2,-0.4,0.3c-0.2,0.1,-0.4,0.2,-0.6,0.3c-0.1,0,-0.3,0.1,-0.5,0.1c-0.2,0.1,-0.4,0.2,-0.7,0.2c-0.2,0,-0.4,0.1,-0.6,0.1c-0.2,0,-0.4,0,-0.6,0c-0.2,0,-0.3,0,-0.4,0c-0.2,-0.1,-0.3,-0.2,-0.4,-0.3c0,-0.1,-0.1,-0.3,-0.1,-0.4c-0.1,-0.2,-0.1,-0.4,-0.1,-0.6c0,-0.1,0,-0.2,0,-0.3c0,-0.1,0.1,-0.2,0.1,-0.3c0,-0.2,0,-0.3,0.1,-0.4c0,-0.1,0,-0.2,0,-0.3c0,0,-0.1,0,-0.2,0c-0.1,0.1,-0.2,0.1,-0.2,0c-0.1,0.1,-0.2,0,-0.3,0c-0.1,-0.1,-0.1,-0.2,-0.1,-0.2c0,-0.2,0.1,-0.3,0.2,-0.4c0,0,0.1,0,0.2,-0.1c0.1,0,0.2,0,0.2,0.1c0.1,0,0.2,0,0.2,0c0.1,0,0.2,-0.1,0.2,-0.1c0.1,-0.2,0.2,-0.5,0.3,-0.7c0.1,-0.3,0.1,-0.5,0.1,-0.7c0,0,0,-0.1,0,-0.2c0,0,0,-0.1,0,-0.1c-0.1,0,-0.2,0.1,-0.3,0.1c-0.2,0,-0.3,0.1,-0.4,0.1c-0.1,0.1,-0.2,0.1,-0.3,0c-0.1,0,-0.1,-0.1,-0.1,-0.2c0,0,0,-0.1,0,-0.2c0,-0.1,0.1,-0.2,0.2,-0.2c0.4,-0.1,0.7,-0.2,1.1,-0.3c0.4,-0.1,0.7,-0.1,1.1,-0.2c0.4,0,0.7,0,1.1,0c0.3,0,0.6,0,0.9,0c0.1,0,0.2,0,0.2,0.1c0.1,0.1,0.1,0.1,0.1,0.2c0,0.1,0,0.2,-0.1,0.2c-0.1,0.1,-0.1,0.1,-0.2,0.1c-0.5,0,-0.9,0,-1.4,0c-0.4,0.1,-0.8,0.1,-1.2,0.2c0,0,0,0.1,0,0.1c0,0.1,0,0.2,0,0.2c0,0.2,0,0.4,-0.1,0.7c-0.1,0.2,-0.2,0.5,-0.2,0.7c0.2,0,0.4,0,0.7,-0.1c0.2,0,0.4,-0.1,0.7,-0.1c0.2,0,0.4,-0.1,0.6,-0.1c0.2,-0.1,0.4,-0.1,0.6,-0.1c0,0,0.1,0,0.2,0c0,0.1,0.1,0.1,0.1,0.2c0,0.1,0,0.2,0,0.3c-0.1,0,-0.2,0.1,-0.3,0.1c-0.1,0.1,-0.3,0.1,-0.5,0.1c-0.3,0.1,-0.5,0.1,-0.8,0.2c-0.3,0,-0.6,0.1,-0.8,0.1c-0.3,0.1,-0.5,0.1,-0.7,0.1c-0.1,0.3,-0.2,0.5,-0.2,0.8c-0.1,0.2,-0.1,0.4,-0.1,0.6c0,0.1,0,0.2,0,0.3c0,0.1,0,0.2,0.1,0.3c0.1,0,0.2,0.1,0.3,0.1c0.3,-0.1,0.6,-0.1,1,-0.2c0.4,0,0.7,-0.1,1.1,-0.2c0.1,-0.1,0.3,-0.1,0.4,-0.2c0.1,-0.1,0.2,-0.2,0.3,-0.3c0.1,-0.1,0.2,-0.1,0.2,-0.1c0.1,0,0.2,0,0.3,0.1c0,0,0.1,0.1,0.1,0.2c0,0.1,0,0.2,-0.1,0.3Z" class="g6_26" />
<path d="M127.7,983.4c0.1,0.2,0.1,0.4,0.1,0.7c0,0.3,0,0.6,0,0.9c0,0.3,-0.1,0.6,-0.1,0.9c-0.1,0.3,-0.2,0.5,-0.2,0.7c-0.1,0.3,-0.3,0.6,-0.5,0.7c-0.2,0.2,-0.4,0.3,-0.6,0.3c-0.2,0,-0.3,0,-0.5,-0.1c-0.2,-0.1,-0.3,-0.2,-0.5,-0.4c-0.3,-0.3,-0.5,-0.6,-0.8,-1c-0.2,-0.4,-0.5,-0.8,-0.7,-1.2c0,0.2,0,0.4,-0.1,0.7c0,0.2,0,0.4,0,0.7c0,0.2,-0.1,0.4,-0.1,0.6c0,0.2,0,0.4,0,0.5c0.1,0.1,0.1,0.1,0.1,0.2l0.1,0.1c0.1,0,0.1,0,0.1,0.1c0.1,0.1,0.1,0.1,0,0.2c0,0.1,0,0.1,-0.1,0.2c-0.1,0,-0.1,0,-0.2,0c-0.2,0,-0.3,-0.1,-0.4,-0.2c-0.1,-0.1,-0.2,-0.3,-0.2,-0.4c0,-0.2,0,-0.5,0,-0.8c0,-0.4,0,-0.7,0,-1.1c0.1,-0.3,0.1,-0.7,0.1,-1c0.1,-0.3,0.1,-0.6,0.2,-0.9c-0.1,-0.1,-0.1,-0.1,-0.1,-0.2c-0.1,-0.1,-0.1,-0.2,-0.1,-0.2c0,-0.1,0,-0.2,0,-0.3c0,0,0.1,-0.1,0.2,-0.1c0,0,0.1,0,0.1,0c0.1,0,0.2,0,0.2,0.1c0,0,0.1,0,0.1,0.1c0,0,0,0.1,0.1,0.1c0.1,0,0.1,0.1,0.2,0.2c0,0,0,0.1,0,0.2c0.1,0.2,0.2,0.5,0.3,0.7c0.1,0.3,0.3,0.5,0.4,0.8c0.2,0.3,0.4,0.5,0.5,0.8c0.2,0.2,0.4,0.4,0.6,0.6c0.1,0.1,0.2,0.2,0.3,0.2c0,0.1,0.1,0.1,0.2,0.1c0.1,0,0.2,-0.1,0.3,-0.2c0,-0.1,0.1,-0.2,0.1,-0.3c0.1,-0.1,0.1,-0.3,0.2,-0.5c0,-0.2,0.1,-0.4,0.1,-0.7c0,-0.2,0.1,-0.5,0.1,-0.7c0,-0.3,0,-0.5,0,-0.7c-0.1,-0.1,-0.2,-0.1,-0.2,-0.3c0,-0.1,0.1,-0.1,0.1,-0.2c0.1,0,0.1,-0.1,0.2,-0.1c0.1,-0.1,0.2,-0.1,0.3,0c0,0,0.1,0.1,0.1,0.2Z" class="g6_26" />
<path d="M134.3,983.1c0,0.1,0,0.2,-0.1,0.2c0,0.1,-0.1,0.1,-0.1,0.2c-0.1,0,-0.2,0,-0.3,0c-0.1,0,-0.1,-0.1,-0.2,-0.1c-0.2,0,-0.5,0,-0.8,0c-0.4,0,-0.8,0,-1.2,0c0,0.2,-0.1,0.4,-0.1,0.6c0,0.2,0,0.5,0,0.7l0,0.8c0,0.3,0,0.5,0,0.7c0,0.3,0,0.5,0.1,0.6c0,0.2,0,0.3,0,0.4c0.1,0.1,0.2,0.2,0.2,0.4c0,0.1,-0.1,0.2,-0.2,0.2c-0.1,0.1,-0.2,0.1,-0.2,0.1c-0.1,-0.1,-0.2,-0.1,-0.3,-0.2c-0.1,-0.1,-0.2,-0.2,-0.2,-0.3c0,-0.3,0,-0.6,0,-0.9c-0.1,-0.3,-0.1,-0.7,-0.1,-1c0,-0.4,0.1,-0.7,0.1,-1.1c0,-0.4,0,-0.7,0,-1c-0.2,0,-0.5,0,-0.7,0c-0.3,0,-0.5,0,-0.8,0c-0.2,0,-0.4,0,-0.6,0c-0.3,0,-0.4,0,-0.6,0c-0.1,0,-0.2,0,-0.2,-0.1c-0.1,-0.1,-0.1,-0.2,-0.1,-0.3c0,0,0,-0.1,0.1,-0.2c0,0,0.1,-0.1,0.2,0c0.2,0,0.5,0,0.9,0c0.3,0,0.6,0,1,0c0.3,0,0.7,0,1.1,0c0.3,0,0.7,0,1,0l1.7,0c0.2,0,0.3,0,0.4,0.1c0,0,0,0.1,0,0.2Z" class="g6_26" />
<path d="M139.4,987.2c-0.1,0.1,-0.3,0.2,-0.5,0.3c-0.1,0.1,-0.3,0.2,-0.5,0.3c-0.2,0,-0.3,0.1,-0.5,0.1c-0.2,0.1,-0.5,0.2,-0.7,0.2c-0.2,0,-0.4,0.1,-0.6,0.1c-0.3,0,-0.5,0,-0.7,0c-0.1,0,-0.3,0,-0.4,0c-0.1,-0.1,-0.2,-0.2,-0.3,-0.3c-0.1,-0.1,-0.1,-0.3,-0.2,-0.4c0,-0.2,0,-0.4,0,-0.6c0,-0.1,0,-0.2,0,-0.3c0,-0.1,0,-0.2,0.1,-0.3c0,-0.2,0,-0.3,0,-0.4c0.1,-0.1,0.1,-0.2,0.1,-0.3c0,0,-0.1,0,-0.2,0c-0.1,0.1,-0.2,0.1,-0.2,0c-0.2,0.1,-0.3,0,-0.3,0c-0.1,-0.1,-0.1,-0.2,-0.1,-0.2c0,-0.2,0,-0.3,0.2,-0.4c0,0,0.1,0,0.2,-0.1c0.1,0,0.1,0,0.2,0.1c0.1,0,0.1,0,0.2,0c0.1,0,0.1,-0.1,0.2,-0.1c0.1,-0.2,0.2,-0.5,0.3,-0.7c0,-0.3,0.1,-0.5,0.1,-0.7c0,0,0,-0.1,0,-0.2c0,0,0,-0.1,0,-0.1c-0.1,0,-0.2,0.1,-0.4,0.1c-0.1,0,-0.2,0.1,-0.3,0.1c-0.2,0.1,-0.2,0.1,-0.3,0c-0.1,0,-0.1,-0.1,-0.2,-0.2c0,0,0,-0.1,0.1,-0.2c0,-0.1,0.1,-0.2,0.2,-0.2c0.3,-0.1,0.7,-0.2,1.1,-0.3c0.3,-0.1,0.7,-0.1,1.1,-0.2c0.3,0,0.7,0,1,0c0.4,0,0.7,0,0.9,0c0.2,0,0.2,0,0.3,0.1c0.1,0.1,0.1,0.1,0.1,0.2c0,0.1,-0.1,0.2,-0.1,0.2c-0.1,0.1,-0.2,0.1,-0.3,0.1c-0.4,0,-0.8,0,-1.3,0c-0.4,0.1,-0.9,0.1,-1.3,0.2c0.1,0,0.1,0.1,0.1,0.1c0,0.1,0,0.2,0,0.2c0,0.2,-0.1,0.4,-0.1,0.7c-0.1,0.2,-0.2,0.5,-0.3,0.7c0.3,0,0.5,0,0.7,-0.1c0.3,0,0.5,-0.1,0.7,-0.1c0.3,0,0.5,-0.1,0.7,-0.1c0.2,-0.1,0.4,-0.1,0.5,-0.1c0.1,0,0.2,0,0.3,0c0,0.1,0,0.1,0.1,0.2c0,0.1,0,0.2,-0.1,0.3c0,0,-0.1,0.1,-0.2,0.1c-0.1,0.1,-0.3,0.1,-0.6,0.1c-0.2,0.1,-0.5,0.1,-0.8,0.2c-0.2,0,-0.5,0.1,-0.8,0.1c-0.2,0.1,-0.5,0.1,-0.7,0.1c0,0.3,-0.1,0.5,-0.2,0.8c0,0.2,0,0.4,-0.1,0.6c0,0.1,0,0.2,0.1,0.3c0,0.1,0,0.2,0.1,0.3c0.1,0,0.2,0.1,0.3,0.1c0.3,-0.1,0.6,-0.1,0.9,-0.2c0.4,0,0.8,-0.1,1.1,-0.2c0.2,-0.1,0.3,-0.1,0.5,-0.2c0.1,-0.1,0.2,-0.2,0.3,-0.3c0.1,-0.1,0.1,-0.1,0.2,-0.1c0.1,0,0.2,0,0.2,0.1c0.1,0,0.1,0.1,0.2,0.2c0,0.1,-0.1,0.2,-0.1,0.3Z" class="g6_26" />
<path d="M141,985.3c0.1,0,0.1,0.1,0.1,0.1c0.1,0.1,0.1,0.2,0.1,0.3c0,0,0,0.1,-0.1,0.2c0,0,0,0.1,-0.1,0.1c-0.1,0.1,-0.2,0.1,-0.3,0.1c-0.1,0,-0.2,0,-0.3,-0.1c-0.1,-0.1,-0.1,-0.2,-0.1,-0.4c0,-0.1,0,-0.2,0.1,-0.3c0.1,-0.1,0.2,-0.1,0.3,-0.1c0.1,0,0.2,0,0.3,0.1Zm0,2.4c-0.1,0.1,-0.3,0.1,-0.4,0.1c-0.1,0,-0.2,0,-0.3,-0.1c-0.1,-0.1,-0.1,-0.2,-0.1,-0.4c0,-0.1,0.1,-0.2,0.2,-0.3c0.1,-0.1,0.2,-0.1,0.3,-0.1c0.1,0,0.2,0,0.3,0.1c0,0,0.1,0.1,0.1,0.2c0,0,0,0.1,0,0.2c0,0,0,0.1,0,0.2c0,0,-0.1,0.1,-0.1,0.1Z" class="g6_26" />
<path d="M96.5,997.1c0.1,0.1,0.1,0.3,0.1,0.4c0,0.2,-0.1,0.3,-0.3,0.4c-0.3,0.2,-0.6,0.3,-1,0.5c-0.5,0.1,-0.9,0.2,-1.3,0.3c-0.5,0.1,-1,0.2,-1.4,0.2c-0.5,0.1,-1,0.1,-1.4,0.1c-0.3,0,-0.6,0,-0.8,-0.1c-0.2,0,-0.4,-0.1,-0.5,-0.3c-0.2,-0.2,-0.3,-0.4,-0.3,-0.8c0,-0.3,0.1,-0.8,0.2,-1.4c0.4,-1.2,0.7,-2.4,0.9,-3.5c0.2,-1,0.3,-2,0.4,-2.7c0,-0.2,0.1,-0.3,0.2,-0.4c0.1,-0.1,0.2,-0.1,0.4,-0.1c0.1,0,0.2,0,0.3,0.1c0.1,0.1,0.1,0.3,0.1,0.4c-0.1,1,-0.2,2,-0.4,3.1c-0.2,1.1,-0.5,2.2,-0.8,3.4c-0.1,0.3,-0.2,0.5,-0.2,0.7c0,0.2,0,0.3,0.1,0.4c0.1,0.1,0.2,0.1,0.3,0.2c0.1,0,0.2,0,0.4,0c0.4,0,0.8,0,1.2,-0.1c0.4,-0.1,0.8,-0.1,1.2,-0.2c0.4,-0.1,0.7,-0.2,1.1,-0.3c0.3,-0.1,0.6,-0.3,0.8,-0.4c0.2,-0.1,0.3,-0.1,0.4,-0.1c0.1,0.1,0.2,0.1,0.3,0.2Z" class="g6_26" />
<path d="M104.4,997.3c0.1,0.1,0.1,0.2,0.1,0.4c0,0.1,-0.1,0.2,-0.3,0.3c-0.2,0.1,-0.4,0.2,-0.7,0.3c-0.3,0.1,-0.7,0.2,-1,0.3c-0.3,0,-0.6,0,-0.9,-0.1c-0.3,-0.1,-0.6,-0.2,-0.7,-0.5c-0.1,-0.1,-0.2,-0.2,-0.2,-0.4c0,-0.1,-0.1,-0.3,-0.1,-0.5c-0.2,0.2,-0.4,0.5,-0.7,0.7c-0.2,0.3,-0.5,0.5,-0.7,0.6c-0.4,0.3,-0.7,0.5,-1.1,0.5c-0.3,0.1,-0.6,0.1,-1,0c-0.2,0,-0.4,-0.1,-0.6,-0.3c-0.2,-0.2,-0.3,-0.4,-0.4,-0.7c-0.1,-0.2,-0.2,-0.5,-0.2,-0.8c0,-0.3,0,-0.6,0,-0.9c0.1,-0.3,0.1,-0.6,0.2,-0.9c0,-0.2,0.1,-0.4,0.1,-0.6c0.1,-0.1,0.2,-0.2,0.3,-0.3c0.1,0,0.2,-0.1,0.3,-0.1c0.1,0,0.3,0.1,0.4,0.2c0.1,0.1,0.1,0.2,0,0.4c0,0.2,-0.1,0.4,-0.1,0.7C97,995.8,97,996,97,996.3c-0.1,0.2,-0.1,0.4,-0.1,0.7c0,0.2,0.1,0.4,0.1,0.5c0.1,0.2,0.2,0.4,0.4,0.4c0.2,0.1,0.4,0.1,0.6,0c0.2,0,0.4,-0.1,0.6,-0.3c0.6,-0.3,1,-0.8,1.3,-1.2c0.4,-0.5,0.6,-0.9,0.8,-1.4c0,-0.1,0.1,-0.2,0.2,-0.2c0.1,-0.1,0.3,-0.1,0.4,-0.1c0.1,0.1,0.2,0.1,0.3,0.2c0.1,0.1,0.1,0.3,0.1,0.4c-0.1,0.4,-0.2,0.7,-0.2,1.1c0,0.3,0,0.6,0.1,0.8c0.1,0.2,0.2,0.3,0.3,0.3c0.2,0.1,0.3,0.1,0.5,0.1c0.2,0,0.5,-0.1,0.7,-0.2c0.3,-0.1,0.5,-0.2,0.7,-0.3c0.1,-0.1,0.3,-0.1,0.4,-0.1c0.1,0.1,0.2,0.2,0.2,0.3Z" class="g6_26" />
<path d="M106.1,991.4c0.1,0.1,0.2,0.2,0.3,0.3c0,0.1,0.1,0.2,0.1,0.4c0,0.1,-0.1,0.2,-0.1,0.3c-0.1,0.1,-0.2,0.2,-0.3,0.3c-0.1,0.1,-0.3,0.2,-0.5,0.2c-0.2,0,-0.4,-0.1,-0.5,-0.3c-0.2,-0.1,-0.3,-0.3,-0.3,-0.6c0,-0.2,0.2,-0.4,0.4,-0.6c0.1,-0.1,0.3,-0.1,0.5,-0.1c0.1,0,0.3,0,0.4,0.1Zm2.6,6.1c0.1,0.1,0,0.2,-0.1,0.3c0,0.1,-0.2,0.1,-0.3,0.2c-0.2,0,-0.3,0,-0.6,0.1c-0.2,0.1,-0.4,0.1,-0.7,0.2c-0.2,0.1,-0.5,0.2,-0.7,0.3c-0.3,0.1,-0.5,0.1,-0.7,0.2c-0.5,0.1,-1,0.1,-1.3,0c-0.3,-0.2,-0.6,-0.5,-0.7,-1c0,-0.2,-0.1,-0.4,-0.1,-0.6c0,-0.2,0,-0.4,0.1,-0.6c0,-0.2,0,-0.5,0.1,-0.7c0,-0.2,0.1,-0.4,0.1,-0.6c0,0,-0.1,-0.1,-0.1,-0.1c0,-0.1,0,-0.1,0.1,-0.2c0,0,0.1,-0.2,0.1,-0.3c0.1,-0.1,0.2,-0.2,0.2,-0.3c0.1,0,0.2,-0.1,0.3,-0.1c0.2,0,0.3,0,0.4,0.1c0.1,0,0.2,0.1,0.3,0.2c0,0.1,0,0.2,0,0.3c-0.1,0.2,-0.2,0.4,-0.3,0.8c-0.1,0.3,-0.2,0.6,-0.2,0.9c0,0.2,0,0.3,0,0.5c0,0.1,0,0.2,0,0.3c0.1,0.2,0.2,0.3,0.3,0.4c0.1,0.1,0.3,0.1,0.5,0c0.1,0,0.3,-0.1,0.6,-0.2c0.2,0,0.5,-0.1,0.7,-0.2c0.3,-0.2,0.6,-0.2,0.8,-0.3c0.3,-0.1,0.5,-0.1,0.7,-0.1c0.2,-0.1,0.3,0,0.4,0.1c0.1,0.1,0.1,0.2,0.1,0.4Z" class="g6_26" />
<path d="M112.2,993.7c-0.1,0.1,-0.2,0.1,-0.3,0.2c-0.1,0,-0.2,0,-0.3,0c-0.1,-0.1,-0.2,-0.1,-0.4,-0.2c-0.1,0,-0.3,0,-0.4,0c-0.2,0.1,-0.5,0.2,-0.7,0.2c-0.2,0.1,-0.4,0.2,-0.6,0.3c-0.2,0.1,-0.4,0.2,-0.6,0.3c-0.2,0.2,-0.3,0.3,-0.3,0.5c0,0.1,0.1,0.2,0.3,0.3c0.3,0.2,0.5,0.3,0.8,0.4c0.3,0.1,0.5,0.3,0.8,0.5c0.3,0.2,0.4,0.4,0.5,0.6c0.1,0.3,0.1,0.5,0.1,0.8c0,0.2,0,0.5,-0.1,0.7c-0.1,0.3,-0.2,0.5,-0.3,0.7c-0.3,0.3,-0.5,0.7,-0.9,1c-0.3,0.3,-0.7,0.6,-1.1,0.8c-0.2,0.1,-0.5,0.2,-0.7,0.2c-0.2,0,-0.4,0,-0.6,-0.1c-0.2,-0.1,-0.3,-0.3,-0.4,-0.4c0,-0.2,0,-0.3,0.1,-0.4c0,-0.2,0.1,-0.3,0.3,-0.3c0.1,-0.1,0.3,0,0.4,0.1c0.1,0,0.2,0.1,0.3,0c0.1,0,0.1,0,0.2,0c0.3,-0.2,0.6,-0.4,0.9,-0.7c0.3,-0.3,0.5,-0.5,0.6,-0.8c0.1,-0.1,0.2,-0.3,0.3,-0.4c0,-0.2,0,-0.3,0,-0.4c0,-0.2,0,-0.4,-0.2,-0.6c-0.2,-0.1,-0.4,-0.3,-0.7,-0.4c-0.3,-0.2,-0.6,-0.3,-0.9,-0.5c-0.3,-0.1,-0.6,-0.2,-0.7,-0.4c-0.2,-0.2,-0.3,-0.4,-0.3,-0.6c0,-0.2,0.1,-0.5,0.3,-0.7c0.1,-0.2,0.4,-0.4,0.7,-0.6c0.2,-0.2,0.4,-0.3,0.6,-0.4c0.3,-0.1,0.5,-0.2,0.8,-0.3c0.2,-0.1,0.5,-0.2,0.8,-0.3c0.3,-0.1,0.5,-0.1,0.8,-0.1c0.2,0,0.3,0,0.5,0.1c0.1,0,0.2,0.1,0.3,0.2c0.1,0.1,0.2,0.2,0.2,0.3c0,0.2,-0.1,0.3,-0.1,0.4Z" class="g6_26" />
<path d="M119.5,992.5c-0.1,0.3,-0.2,0.8,-0.2,1.3c-0.1,0.6,-0.2,1.1,-0.2,1.7c-0.1,0.7,-0.1,1.3,0,1.9c0,0.7,0,1.3,0.2,1.9c0,0.1,0,0.2,-0.1,0.3c-0.1,0.1,-0.2,0.2,-0.3,0.2c-0.1,0,-0.3,0,-0.4,-0.1c-0.1,0,-0.2,-0.1,-0.3,-0.3c-0.1,-0.6,-0.2,-1.3,-0.2,-2c0,-0.6,0,-1.3,0.1,-1.9c0,-0.7,0.1,-1.3,0.2,-1.8c0.1,-0.6,0.1,-1,0.2,-1.4c0,-0.2,0.1,-0.3,0.2,-0.3c0.2,-0.1,0.3,-0.1,0.4,0c0.1,0,0.2,0.1,0.3,0.2c0.1,0.1,0.1,0.2,0.1,0.3Zm5.1,0.5c0,0.3,-0.1,0.6,-0.3,0.8c-0.2,0.3,-0.5,0.5,-1,0.7c-0.1,0.1,-0.4,0.2,-0.6,0.4c-0.3,0.1,-0.5,0.2,-0.8,0.3c-0.3,0.2,-0.6,0.3,-0.9,0.5c-0.3,0.1,-0.5,0.2,-0.8,0.3c-0.1,0.1,-0.3,0.1,-0.4,0c-0.1,0,-0.2,-0.1,-0.3,-0.2c0,-0.2,0,-0.3,0,-0.4c0,-0.1,0.1,-0.2,0.3,-0.3c0.3,-0.1,0.5,-0.2,0.8,-0.4c0.3,-0.1,0.6,-0.2,0.8,-0.4c0.3,-0.1,0.6,-0.2,0.8,-0.3c0.2,-0.1,0.4,-0.2,0.6,-0.3c0.4,-0.2,0.6,-0.4,0.6,-0.6c0,-0.2,-0.1,-0.3,-0.2,-0.4c-0.2,-0.1,-0.4,-0.3,-0.8,-0.3c-0.3,-0.1,-0.6,-0.2,-1,-0.3c-0.3,0,-0.7,-0.1,-1.1,-0.2c-0.4,-0.1,-0.8,-0.1,-1.2,-0.2c-0.4,-0.1,-0.7,-0.1,-1,-0.2c-0.4,-0.1,-0.7,-0.1,-0.9,-0.2c-0.3,-0.1,-0.5,-0.1,-0.6,-0.2c-0.1,-0.1,-0.2,-0.2,-0.3,-0.3c0,-0.1,0,-0.2,0,-0.3c0.1,-0.1,0.2,-0.2,0.3,-0.3c0.1,-0.1,0.2,-0.1,0.4,-0.1c0.1,0,0.2,0,0.3,0c0,0.1,0.1,0.1,0.2,0.2c0.3,0.1,0.7,0.2,1.2,0.3c0.4,0.1,0.9,0.2,1.3,0.3c0.5,0,1,0.1,1.4,0.2c0.5,0.1,0.9,0.2,1.3,0.3c0.6,0.2,1.1,0.4,1.4,0.7c0.3,0.3,0.5,0.6,0.5,0.9Z" class="g6_26" />
<path d="M128.9,990.4c0,0.1,0,0.2,0,0.3c0,0.1,-0.1,0.2,-0.2,0.2c-0.1,0.1,-0.3,0.2,-0.4,0.3c-0.2,0.1,-0.4,0.2,-0.6,0.3c-0.2,0.1,-0.4,0.2,-0.6,0.3c-0.2,0.1,-0.3,0.2,-0.5,0.3c-0.1,0,-0.2,0,-0.3,0c-0.1,-0.1,-0.2,-0.1,-0.2,-0.2c0,-0.1,-0.1,-0.2,0,-0.3c0,-0.1,0.1,-0.2,0.2,-0.2c0.1,-0.1,0.3,-0.2,0.5,-0.3c0.2,-0.1,0.3,-0.2,0.5,-0.3c0.2,-0.1,0.4,-0.2,0.6,-0.3c0.2,-0.1,0.3,-0.1,0.5,-0.2c0.1,-0.1,0.2,-0.1,0.2,-0.1c0.1,0.1,0.2,0.1,0.3,0.2Zm-1.8,4.2c0.1,-0.2,0,-0.4,-0.1,-0.5c0,-0.1,-0.1,-0.1,-0.2,-0.1c-0.1,0.1,-0.2,0.1,-0.3,0.1c-0.1,0.1,-0.3,0.2,-0.4,0.4c-0.2,0.2,-0.4,0.4,-0.6,0.7c-0.1,0.3,-0.3,0.5,-0.4,0.8c0.2,0,0.4,-0.1,0.7,-0.2c0.2,-0.1,0.4,-0.2,0.6,-0.3c0.1,-0.1,0.3,-0.2,0.4,-0.4c0.2,-0.1,0.3,-0.3,0.3,-0.5Zm2.8,2.7c0,0.1,0.1,0.2,0,0.4c0,0.1,-0.1,0.2,-0.3,0.3c-0.2,0,-0.5,0.1,-0.8,0.3c-0.3,0.1,-0.7,0.2,-1.1,0.3c-0.3,0.2,-0.8,0.2,-1.2,0.3c-0.4,0.1,-0.8,0.1,-1.2,0c-0.2,-0.1,-0.4,-0.1,-0.6,-0.2c-0.2,-0.1,-0.3,-0.2,-0.4,-0.3c-0.4,-0.4,-0.6,-0.9,-0.4,-1.7c0,-0.3,0.1,-0.6,0.2,-0.9c0.2,-0.3,0.3,-0.6,0.4,-0.8c0.2,-0.3,0.3,-0.5,0.5,-0.7c0.1,-0.2,0.3,-0.3,0.4,-0.5c0.1,-0.1,0.2,-0.2,0.4,-0.3c0.1,-0.1,0.2,-0.2,0.3,-0.2c0.1,-0.1,0.2,-0.1,0.4,-0.2c0.1,0,0.2,0,0.4,0c0.1,-0.1,0.2,-0.1,0.4,0c0.1,0,0.2,0,0.4,0.1c0.1,0.1,0.2,0.2,0.3,0.3c0,0.1,0.1,0.3,0.1,0.4c0,0.2,0,0.3,0,0.5c0,0.2,0,0.3,0,0.5c-0.1,0.3,-0.3,0.5,-0.5,0.8c-0.2,0.3,-0.5,0.5,-0.8,0.7c-0.3,0.2,-0.6,0.3,-0.9,0.5c-0.4,0.1,-0.7,0.2,-1,0.2c0,0.2,0,0.4,0.1,0.5c0.1,0.2,0.2,0.2,0.4,0.3c0.3,0.1,0.7,0.1,1,0c0.4,-0.1,0.8,-0.1,1.1,-0.2c0.4,-0.2,0.7,-0.3,1,-0.4c0.4,-0.1,0.6,-0.2,0.8,-0.3c0.2,0,0.3,0,0.4,0c0.1,0.1,0.1,0.2,0.2,0.3Z" class="g6_26" />
<path d="M134.9,995.6c-0.1,0.1,-0.2,0.1,-0.3,0.2c-0.1,0,-0.2,0,-0.3,-0.1c-0.1,0,-0.2,0,-0.3,-0.1c-0.1,0,-0.1,0,-0.2,0.1c-0.1,0,-0.3,0,-0.5,0.1c-0.2,0,-0.4,0.1,-0.6,0.2c-0.2,0.1,-0.4,0.2,-0.7,0.3c-0.2,0.1,-0.4,0.2,-0.6,0.4c-0.1,0.1,-0.2,0.2,-0.3,0.3c-0.2,0.1,-0.2,0.1,-0.3,0.2c0,0.2,-0.1,0.3,-0.1,0.4c0,0.1,-0.1,0.2,-0.1,0.3c0,0.2,-0.1,0.3,-0.2,0.4c-0.1,0.1,-0.2,0.1,-0.3,0.1c-0.1,0,-0.2,0,-0.3,-0.1c-0.1,-0.1,-0.2,-0.2,-0.2,-0.4c0,-0.2,0,-0.4,0,-0.6l0,-0.7c0,-0.2,0,-0.4,0,-0.6c0,-0.3,0.1,-0.4,0.1,-0.6c-0.1,0,-0.1,-0.1,-0.1,-0.1c-0.1,-0.1,0,-0.1,0,-0.2c0,-0.1,0.1,-0.1,0.1,-0.2c0.1,-0.1,0.1,-0.2,0.1,-0.3c0.1,-0.1,0.2,-0.2,0.3,-0.2c0.1,0,0.2,0,0.3,0c0.1,0,0.2,0.1,0.3,0.2c0.1,0,0.1,0.1,0.1,0.3c-0.1,0.1,-0.1,0.1,-0.1,0.3c0,0.1,0,0.2,0,0.3c-0.1,0.1,-0.1,0.2,-0.1,0.3c0,0.1,0,0.2,0,0.3c0.1,0,0.1,-0.1,0.2,-0.2c0.1,0,0.1,0,0.2,-0.1c0.2,-0.1,0.4,-0.3,0.7,-0.4c0.2,-0.1,0.5,-0.3,0.8,-0.4c0.3,-0.1,0.5,-0.2,0.8,-0.3c0.2,0,0.5,-0.1,0.7,-0.1c0.2,0,0.3,0,0.5,0.1c0.1,0,0.2,0.1,0.3,0.2c0.1,0.1,0.2,0.2,0.2,0.3c0,0.2,0,0.3,-0.1,0.4Z" class="g6_26" />
<path d="M138.3,994.6c0.1,-0.2,0,-0.4,-0.1,-0.5c0,-0.1,-0.1,-0.1,-0.2,-0.1c-0.1,0.1,-0.2,0.1,-0.3,0.1c-0.1,0.1,-0.3,0.2,-0.4,0.4c-0.2,0.2,-0.4,0.4,-0.6,0.7c-0.1,0.3,-0.3,0.5,-0.4,0.8c0.2,0,0.4,-0.1,0.7,-0.2c0.2,-0.1,0.4,-0.2,0.6,-0.3c0.1,-0.1,0.3,-0.2,0.4,-0.4c0.2,-0.1,0.2,-0.3,0.3,-0.5Zm2.8,2.7c0,0.1,0.1,0.2,0,0.4c0,0.1,-0.1,0.2,-0.3,0.2c-0.2,0.1,-0.5,0.2,-0.8,0.3c-0.3,0.2,-0.7,0.3,-1.1,0.4c-0.3,0.1,-0.8,0.2,-1.2,0.3c-0.4,0,-0.8,0,-1.2,0c-0.5,-0.1,-0.8,-0.3,-1,-0.5c-0.4,-0.4,-0.6,-0.9,-0.4,-1.7c0,-0.3,0.1,-0.6,0.2,-0.9c0.2,-0.3,0.3,-0.6,0.4,-0.8c0.2,-0.3,0.3,-0.5,0.5,-0.7c0.1,-0.2,0.3,-0.3,0.4,-0.5c0.1,-0.1,0.2,-0.2,0.4,-0.3c0.1,-0.1,0.2,-0.2,0.3,-0.2c0.1,-0.1,0.2,-0.1,0.4,-0.2c0.1,0,0.2,0,0.4,0c0.1,-0.1,0.2,-0.1,0.4,0c0.1,0,0.2,0,0.3,0.1c0.2,0.1,0.3,0.2,0.4,0.3c0,0.1,0.1,0.3,0.1,0.4c0,0.2,0,0.3,0,0.5c0,0.2,0,0.3,0,0.5c-0.1,0.3,-0.3,0.5,-0.5,0.8c-0.2,0.3,-0.5,0.5,-0.8,0.7c-0.3,0.2,-0.6,0.3,-0.9,0.5c-0.4,0.1,-0.7,0.2,-1,0.2c0,0.2,0,0.4,0.1,0.5c0.1,0.2,0.2,0.2,0.4,0.3c0.3,0.1,0.7,0.1,1,0c0.4,-0.1,0.8,-0.1,1.1,-0.2c0.4,-0.2,0.7,-0.3,1,-0.4c0.3,-0.1,0.6,-0.2,0.8,-0.3c0.2,0,0.3,0,0.4,0c0.1,0.1,0.1,0.2,0.2,0.3Z" class="g6_26" />
<path d="M145.9,998c0,0.1,0,0.2,-0.1,0.3c0,0.1,-0.1,0.2,-0.3,0.2c-0.2,0.1,-0.5,0.2,-0.9,0.3c-0.4,0.1,-0.8,0.1,-1.2,0.2c-0.5,0,-0.9,0,-1.3,0c-0.5,0,-0.8,0,-1.1,0c-0.3,-0.1,-0.6,-0.3,-0.7,-0.5c0,-0.2,0,-0.3,0,-0.4c0.1,-0.2,0.1,-0.4,0.3,-0.5c0.1,-0.2,0.3,-0.4,0.5,-0.6c0.2,-0.2,0.4,-0.4,0.6,-0.6c0.1,-0.1,0.3,-0.3,0.5,-0.4c0.1,-0.2,0.3,-0.3,0.4,-0.4c0.2,-0.2,0.2,-0.3,0.2,-0.4c0,-0.1,-0.1,-0.2,-0.3,-0.2c-0.3,0,-0.6,0,-0.9,0c-0.3,0,-0.6,0,-0.7,0c-0.2,0,-0.3,-0.1,-0.4,-0.2c-0.1,-0.1,-0.2,-0.2,-0.2,-0.3c0,-0.2,0.1,-0.4,0.3,-0.5c0.1,0,0.2,-0.1,0.3,-0.1c0.2,0,0.3,0.1,0.4,0.1c0.1,0.1,0.2,0.1,0.3,0.1c0.2,0,0.3,0,0.5,0c0.1,0,0.3,0,0.4,0c0.2,0,0.3,0,0.4,0c0.3,0,0.5,0.1,0.7,0.2c0.2,0.1,0.4,0.2,0.4,0.4c0.1,0.2,0.1,0.4,0,0.6c0,0.2,-0.2,0.5,-0.5,0.8c-0.1,0.1,-0.2,0.2,-0.4,0.3c-0.1,0.1,-0.2,0.3,-0.4,0.4c-0.2,0.1,-0.3,0.3,-0.5,0.4c-0.1,0.2,-0.3,0.3,-0.4,0.5c0,0.1,-0.1,0.1,0,0.2c0,0.1,0,0.1,0.2,0.1c0.1,0,0.4,0,0.6,0c0.3,0,0.6,0,0.9,-0.1c0.4,0,0.7,0,1,-0.1c0.3,0,0.5,-0.1,0.8,-0.2c0.1,0,0.3,0,0.4,0.1c0.1,0,0.1,0.1,0.2,0.3Z" class="g6_26" />
<path d="M94.6,1015.5c0,0.1,0,0.2,-0.1,0.3c-0.1,0.1,-0.1,0.2,-0.2,0.2c-0.2,0.3,-0.5,0.6,-0.7,0.9c-0.2,0.3,-0.5,0.6,-0.7,1c-0.3,0.3,-0.5,0.6,-0.8,1c-0.2,0.3,-0.5,0.6,-0.7,0.9c-0.1,0,-0.1,0.1,-0.2,0.1c-0.1,0.1,-0.1,0.1,-0.2,0.1c-0.1,0,-0.1,0,-0.2,-0.1c-0.1,0,-0.1,-0.1,-0.2,-0.1c-0.1,-0.3,-0.3,-0.6,-0.5,-0.9c-0.2,-0.3,-0.3,-0.7,-0.5,-1c-0.2,-0.4,-0.3,-0.7,-0.5,-1c-0.1,-0.3,-0.2,-0.6,-0.4,-0.9c0,-0.1,0,-0.2,0,-0.3c0.1,-0.1,0.2,-0.1,0.3,-0.1l0.1,0c0,0,0.1,0,0.1,0c0.1,0,0.1,0.1,0.2,0.2c0.3,0.6,0.5,1.2,0.8,1.7c0.2,0.5,0.5,1,0.8,1.5c0,0.1,0.1,0.1,0.2,0c0.1,-0.2,0.3,-0.4,0.5,-0.6c0.1,-0.3,0.3,-0.5,0.5,-0.7c0.2,-0.3,0.3,-0.5,0.5,-0.8c0.2,-0.2,0.4,-0.4,0.5,-0.6c0.2,-0.3,0.3,-0.5,0.5,-0.6c0.1,-0.2,0.2,-0.3,0.3,-0.4c0.1,-0.3,0.3,-0.3,0.5,-0.2c0,0.1,0.1,0.2,0.1,0.2c0,0.1,0,0.2,0,0.2Z" class="g6_26" />
<path d="M99,1014.9c0,0.1,0,0.2,-0.1,0.2c-0.1,0.1,-0.1,0.1,-0.2,0.1c-0.2,0,-0.3,0,-0.4,0l-0.5,0c-0.1,0,-0.3,0,-0.4,0c-0.1,0,-0.2,0,-0.4,0c0.1,0.3,0.1,0.6,0,0.9c0,0.4,0,0.7,0,1c0,0.4,0,0.7,-0.1,1c0,0.4,0,0.7,0,1c0.2,0,0.4,0,0.6,0l0.6,0c0.1,0,0.2,0,0.2,0.1c0.1,0,0.1,0.1,0.1,0.2c0,0.1,0,0.2,-0.1,0.2c0,0.1,-0.1,0.1,-0.2,0.1c-0.2,0,-0.4,0,-0.6,0c-0.2,0,-0.5,0,-0.7,0.1c-0.1,0,-0.1,0,-0.1,0.1c-0.1,0,-0.1,0,-0.2,0c0,0,-0.1,0,-0.1,0c-0.1,-0.1,-0.1,-0.1,-0.1,-0.1c-0.2,0,-0.4,0,-0.6,0c-0.2,0,-0.3,0,-0.5,0c-0.1,0,-0.2,-0.1,-0.2,-0.1c-0.1,-0.1,-0.1,-0.2,-0.1,-0.3c0,0,0,-0.1,0.1,-0.2c0,0,0.1,-0.1,0.2,-0.1l0.5,0c0.2,0,0.3,0,0.5,0c0,-0.3,0.1,-0.6,0.1,-1c0,-0.3,0,-0.7,0,-1c0,-0.3,0.1,-0.7,0.1,-1c0,-0.3,0,-0.6,0,-0.9c-0.2,0,-0.3,0,-0.5,0c-0.1,0,-0.3,0,-0.4,0c-0.1,0.1,-0.1,0.1,-0.2,0.1c-0.1,0,-0.2,0,-0.2,0c-0.1,0,-0.2,-0.1,-0.3,-0.1c0,-0.1,0,-0.2,0,-0.3c-0.1,0,0,-0.1,0,-0.2c0.1,0,0.2,-0.1,0.3,-0.1c0.1,0,0.1,0,0.3,0c0.1,0,0.2,-0.1,0.3,-0.1l0.7,0c0.1,0,0.1,0,0.1,-0.1c0.1,0,0.1,0,0.2,0c0,0,0.1,0,0.1,0c0.1,0.1,0.1,0.1,0.1,0.2c0.3,0,0.6,0,0.9,0c0.3,0,0.6,0,0.8,0c0.1,0,0.2,0,0.3,0.1c0,0,0.1,0.1,0.1,0.2Z" class="g6_26" />
<path d="M103.6,1019.6c0,0.1,0,0.2,-0.1,0.3c0,0.1,-0.1,0.2,-0.2,0.2c-0.6,0.1,-1.1,0.2,-1.6,0.2c-0.5,0.1,-1,0,-1.3,0c-0.4,-0.1,-0.7,-0.2,-0.9,-0.4c-0.2,-0.1,-0.4,-0.3,-0.5,-0.5c0,-0.2,-0.1,-0.3,-0.1,-0.5c0,-0.2,0,-0.4,0,-0.6c0,-0.1,0.1,-0.3,0.1,-0.5c0.1,-0.2,0.1,-0.4,0.2,-0.6c0.2,-0.3,0.3,-0.6,0.6,-0.9c0.2,-0.3,0.4,-0.6,0.7,-0.9c0.3,-0.3,0.6,-0.5,0.9,-0.7c0.3,-0.3,0.5,-0.5,0.8,-0.6c0.1,-0.1,0.2,-0.1,0.3,-0.1c0.1,0,0.1,0,0.2,0.1c0,0,0.1,0.1,0.1,0.2c0,0.1,0,0.2,-0.1,0.3c-0.1,0.1,-0.1,0.2,-0.2,0.2c-0.1,0.1,-0.1,0.1,-0.2,0.1c-0.2,0.1,-0.5,0.2,-0.7,0.4c-0.3,0.2,-0.5,0.4,-0.7,0.7c-0.2,0.2,-0.4,0.4,-0.6,0.7c-0.2,0.3,-0.4,0.5,-0.5,0.8c0,0.1,-0.1,0.3,-0.1,0.4c0,0.2,-0.1,0.3,-0.1,0.4c0,0.2,0,0.3,0,0.4c0,0.1,0,0.3,0.1,0.4c0,0.1,0.1,0.2,0.3,0.3c0.1,0.1,0.3,0.2,0.5,0.2c0.2,0,0.4,0.1,0.5,0.1c0.2,0,0.4,0,0.6,0c0.3,0,0.5,-0.1,0.7,-0.1c0.3,-0.1,0.6,-0.1,0.8,-0.2c0.3,0,0.4,0,0.5,0.2Z" class="g6_26" />
<path d="M108.6,1019.2c-0.2,0.2,-0.3,0.3,-0.5,0.4c-0.1,0.1,-0.3,0.2,-0.5,0.3c-0.2,0,-0.4,0.1,-0.6,0.1c-0.2,0.1,-0.4,0.1,-0.6,0.2c-0.2,0,-0.4,0,-0.7,0.1c-0.2,0,-0.4,0,-0.6,0c-0.1,0,-0.3,0,-0.4,-0.1c-0.1,0,-0.2,-0.1,-0.3,-0.3c-0.1,-0.1,-0.1,-0.2,-0.2,-0.4c0,-0.1,0,-0.3,0,-0.5c0,-0.1,0,-0.2,0,-0.3c0,-0.1,0,-0.2,0.1,-0.4c0,-0.1,0,-0.2,0,-0.3c0.1,-0.1,0.1,-0.2,0.1,-0.3c-0.1,0,-0.1,0,-0.2,0c-0.1,0,-0.2,0,-0.3,0c-0.1,0,-0.2,0,-0.2,-0.1c-0.1,0,-0.1,-0.1,-0.1,-0.2c0,-0.1,0,-0.2,0.1,-0.3c0.1,0,0.2,-0.1,0.3,-0.1c0.1,0,0.1,0,0.2,0.1c0.1,0,0.1,-0.1,0.2,-0.1c0.1,0,0.1,0,0.2,0c0.1,-0.3,0.2,-0.5,0.2,-0.8c0.1,-0.2,0.2,-0.4,0.2,-0.6c0,-0.1,0,-0.1,0,-0.2c0,0,0,-0.1,0,-0.1c-0.1,0,-0.3,0,-0.4,0.1c-0.1,0,-0.2,0.1,-0.4,0.1c-0.1,0,-0.2,0,-0.2,0c-0.1,0,-0.1,-0.1,-0.2,-0.2c0,-0.1,0,-0.1,0.1,-0.2c0,-0.1,0.1,-0.2,0.2,-0.2c0.3,-0.2,0.7,-0.3,1,-0.3c0.4,-0.1,0.8,-0.2,1.2,-0.2c0.3,0,0.7,0,1,0c0.4,0,0.7,0,0.9,0c0.1,0,0.2,0,0.3,0.1c0,0,0.1,0.1,0.1,0.2c-0.1,0.1,-0.1,0.2,-0.1,0.2c-0.1,0.1,-0.2,0.1,-0.3,0.1c-0.4,0,-0.9,0,-1.3,0c-0.5,0,-0.9,0.1,-1.3,0.2c0,0,0.1,0.1,0.1,0.1c0,0.1,0,0.1,0,0.2c-0.1,0.2,-0.1,0.4,-0.2,0.7c0,0.2,-0.1,0.5,-0.2,0.7c0.2,0,0.5,-0.1,0.7,-0.1c0.3,0,0.5,-0.1,0.7,-0.1c0.3,-0.1,0.5,-0.1,0.7,-0.1c0.2,-0.1,0.4,-0.1,0.5,-0.1c0.1,-0.1,0.2,-0.1,0.2,0c0.1,0.1,0.1,0.1,0.1,0.2c0.1,0.1,0,0.2,0,0.2c0,0.1,-0.1,0.2,-0.2,0.2c-0.1,0,-0.3,0.1,-0.6,0.1c-0.2,0.1,-0.5,0.1,-0.8,0.2c-0.2,0,-0.5,0.1,-0.8,0.1c-0.3,0,-0.5,0.1,-0.7,0.1c-0.1,0.3,-0.1,0.5,-0.2,0.7c0,0.3,-0.1,0.5,-0.1,0.7c0,0.1,0,0.2,0.1,0.3c0,0.1,0,0.2,0.1,0.2c0,0.1,0.1,0.1,0.3,0.1c0.2,0,0.6,0,0.9,-0.1c0.4,0,0.8,-0.1,1.1,-0.3c0.2,0,0.3,-0.1,0.4,-0.1c0.2,-0.1,0.3,-0.2,0.4,-0.3c0,-0.1,0.1,-0.1,0.2,-0.1c0.1,0,0.2,0,0.2,0.1c0.1,0,0.1,0.1,0.1,0.2c0.1,0.1,0,0.2,0,0.2Z" class="g6_26" />
<path d="M111,1015.7c-0.1,0.2,-0.1,0.5,-0.2,0.9c0,0.3,-0.1,0.7,-0.1,1.1c0,0.4,0,0.8,0,1.2c0,0.5,0,0.9,0.1,1.2c0,0.1,0,0.2,0,0.3c-0.1,0,-0.1,0.1,-0.2,0.1c-0.1,0,-0.2,0,-0.3,-0.1c-0.1,0,-0.1,-0.1,-0.1,-0.2c-0.1,-0.4,-0.2,-0.8,-0.2,-1.3c0,-0.4,0,-0.8,0,-1.3c0.1,-0.4,0.1,-0.8,0.2,-1.1c0,-0.4,0.1,-0.7,0.1,-0.9c0.1,-0.1,0.1,-0.2,0.2,-0.2c0.1,-0.1,0.2,-0.1,0.2,0c0.1,0,0.2,0,0.2,0.1c0.1,0,0.1,0.1,0.1,0.2Zm3.3,0.3c0,0.2,0,0.4,-0.2,0.6c-0.1,0.1,-0.3,0.3,-0.6,0.4c-0.1,0.1,-0.3,0.2,-0.4,0.2c-0.2,0.1,-0.4,0.2,-0.6,0.3c-0.1,0.1,-0.3,0.2,-0.5,0.3c-0.2,0,-0.4,0.1,-0.6,0.2c0,0,-0.1,0,-0.2,0c-0.1,0,-0.2,-0.1,-0.2,-0.2c0,0,0,-0.1,0,-0.2c0,-0.1,0.1,-0.1,0.2,-0.2c0.2,-0.1,0.3,-0.2,0.5,-0.2c0.2,-0.1,0.4,-0.2,0.6,-0.3c0.1,-0.1,0.3,-0.2,0.5,-0.2c0.1,-0.1,0.2,-0.2,0.4,-0.2c0.2,-0.2,0.3,-0.3,0.3,-0.4c0,-0.1,0,-0.2,-0.1,-0.3c-0.1,-0.1,-0.3,-0.1,-0.5,-0.2c-0.2,0,-0.4,-0.1,-0.6,-0.1c-0.3,-0.1,-0.5,-0.1,-0.8,-0.2c-0.2,0,-0.5,-0.1,-0.8,-0.1c-0.2,-0.1,-0.4,-0.1,-0.7,-0.2c-0.2,0,-0.4,-0.1,-0.5,-0.1c-0.2,0,-0.3,-0.1,-0.4,-0.1c-0.1,-0.1,-0.2,-0.1,-0.2,-0.2c0,-0.1,0,-0.2,0,-0.2c0,-0.1,0.1,-0.2,0.2,-0.2c0,-0.1,0.1,-0.1,0.2,-0.1c0.1,0,0.1,0,0.2,0c0.1,0.1,0.1,0.1,0.2,0.2c0.2,0,0.5,0.1,0.7,0.1c0.3,0.1,0.6,0.2,0.9,0.2c0.3,0.1,0.6,0.1,0.9,0.2c0.4,0,0.6,0.1,0.9,0.2c0.4,0.1,0.7,0.2,0.9,0.4c0.2,0.2,0.3,0.4,0.3,0.6Z" class="g6_26" />
<path d="M118.3,1016.2c0,-0.1,-0.1,-0.2,-0.3,-0.4c-0.2,-0.1,-0.5,-0.2,-0.8,-0.3c-0.3,-0.2,-0.7,-0.3,-1.1,-0.4c0,0.1,-0.1,0.2,-0.1,0.4c0,0.1,0,0.3,-0.1,0.5c0,0.2,0,0.4,0,0.6c0,0.2,0,0.5,0,0.7c0.1,0,0.3,-0.1,0.5,-0.1c0.2,-0.1,0.4,-0.2,0.6,-0.2c0.2,-0.1,0.4,-0.2,0.5,-0.2c0.2,-0.1,0.4,-0.2,0.5,-0.2c0.2,-0.1,0.3,-0.3,0.3,-0.4Zm1.3,4c-0.1,0,-0.1,0.1,-0.2,0.2c0,0,-0.1,0,-0.2,0c-0.3,-0.1,-0.5,-0.1,-0.8,-0.3c-0.3,-0.1,-0.5,-0.2,-0.8,-0.3c-0.3,-0.1,-0.6,-0.3,-0.9,-0.4c-0.3,-0.1,-0.6,-0.3,-0.8,-0.4c0,0.1,0,0.2,0,0.3c0,0.1,0,0.2,0,0.3c0,0.1,0,0.2,0,0.3c0,0.1,0,0.2,0,0.3c0,0.1,-0.1,0.2,-0.1,0.3c-0.1,0,-0.2,0,-0.3,0c0,0,-0.1,0,-0.2,-0.1c-0.1,0,-0.1,-0.1,-0.1,-0.2c0,-0.3,0,-0.5,0,-0.8c0,-0.3,0,-0.6,0,-0.9c-0.1,-0.1,-0.2,-0.2,-0.2,-0.4c0,-0.2,0,-0.4,0.2,-0.5l0,-0.7c0,-0.2,0.1,-0.5,0.1,-0.7c0,-0.2,0,-0.5,0,-0.7c0.1,-0.2,0.1,-0.4,0.2,-0.5c-0.1,-0.1,-0.2,-0.1,-0.4,-0.1c-0.1,0,-0.2,-0.1,-0.3,-0.1c0,0,-0.1,0,-0.1,0c-0.1,0,-0.1,0,-0.2,0c-0.1,-0.1,-0.1,-0.1,-0.2,-0.1c-0.1,-0.1,-0.1,-0.1,-0.1,-0.1c-0.1,-0.1,-0.1,-0.2,-0.1,-0.3c0,0,0,-0.1,0,-0.1c0.1,-0.2,0.2,-0.2,0.4,-0.2c0.1,0,0.1,0,0.2,0c0,0.1,0.1,0.1,0.1,0.1c0.3,0.1,0.7,0.2,1,0.3c0.3,0,0.6,0.1,0.9,0.2c0.3,0.1,0.6,0.2,0.9,0.3c0.3,0.1,0.5,0.3,0.8,0.4c0.5,0.3,0.8,0.6,0.8,0.9c0,0.4,-0.3,0.7,-0.9,0.9c-0.1,0.1,-0.3,0.2,-0.5,0.2c-0.2,0.1,-0.4,0.2,-0.6,0.3c-0.3,0.1,-0.5,0.1,-0.7,0.2c-0.2,0.1,-0.4,0.1,-0.6,0.2c0,0.1,0,0.1,0,0.1c0,0.1,0,0.1,0,0.1c0.2,0.2,0.5,0.3,0.8,0.4c0.2,0.2,0.5,0.3,0.9,0.5c0.3,0.1,0.6,0.2,0.9,0.4c0.3,0.1,0.6,0.2,0.8,0.2c0.1,0.1,0.2,0.1,0.3,0.2c0,0.1,0,0.2,0,0.3Z" class="g6_26" />
<path d="M124.3,1019.2c-0.1,0.2,-0.2,0.3,-0.4,0.4c-0.2,0.1,-0.3,0.2,-0.5,0.3c-0.2,0,-0.4,0.1,-0.6,0.1c-0.2,0.1,-0.4,0.1,-0.6,0.2c-0.2,0,-0.5,0,-0.7,0.1c-0.2,0,-0.4,0,-0.6,0c-0.1,0,-0.3,0,-0.4,-0.1c-0.1,0,-0.2,-0.1,-0.3,-0.3c-0.1,-0.1,-0.2,-0.2,-0.2,-0.4c0,-0.1,-0.1,-0.3,-0.1,-0.5c0,-0.1,0.1,-0.2,0.1,-0.3c0,-0.1,0,-0.2,0,-0.4c0.1,-0.1,0.1,-0.2,0.1,-0.3c0,-0.1,0.1,-0.2,0.1,-0.3c-0.1,0,-0.2,0,-0.3,0c-0.1,0,-0.1,0,-0.2,0c-0.1,0,-0.2,0,-0.3,-0.1c0,0,-0.1,-0.1,-0.1,-0.2c0,-0.1,0.1,-0.2,0.2,-0.3c0.1,0,0.2,-0.1,0.2,-0.1c0.1,0,0.2,0,0.3,0.1c0,0,0.1,-0.1,0.2,-0.1c0,0,0.1,0,0.2,0c0.1,-0.3,0.2,-0.5,0.2,-0.8c0.1,-0.2,0.1,-0.4,0.2,-0.6c0,-0.1,0,-0.1,0,-0.2c0,0,-0.1,-0.1,-0.1,-0.1c-0.1,0,-0.2,0,-0.3,0.1c-0.1,0,-0.3,0.1,-0.4,0.1c-0.1,0,-0.2,0,-0.2,0c-0.1,0,-0.2,-0.1,-0.2,-0.2c0,-0.1,0,-0.1,0,-0.2c0.1,-0.1,0.1,-0.2,0.2,-0.2c0.4,-0.2,0.8,-0.3,1.1,-0.3c0.4,-0.1,0.8,-0.2,1.1,-0.2c0.4,0,0.8,0,1.1,0c0.3,0,0.6,0,0.9,0c0.1,0,0.2,0,0.3,0.1c0,0,0,0.1,0,0.2c0,0.1,0,0.2,-0.1,0.2c0,0.1,-0.1,0.1,-0.2,0.1c-0.4,0,-0.9,0,-1.3,0c-0.5,0,-0.9,0.1,-1.3,0.2c0,0,0,0.1,0,0.1c0,0.1,0,0.1,0,0.2c0,0.2,0,0.4,-0.1,0.7c0,0.2,-0.1,0.5,-0.2,0.7c0.2,0,0.5,-0.1,0.7,-0.1c0.2,0,0.5,-0.1,0.7,-0.1c0.2,-0.1,0.5,-0.1,0.7,-0.1c0.2,-0.1,0.3,-0.1,0.5,-0.1c0.1,-0.1,0.2,-0.1,0.2,0c0.1,0.1,0.1,0.1,0.1,0.2c0,0.1,0,0.2,0,0.2c0,0.1,-0.1,0.2,-0.2,0.2c-0.2,0,-0.4,0.1,-0.6,0.1c-0.2,0.1,-0.5,0.1,-0.8,0.2c-0.3,0,-0.5,0.1,-0.8,0.1c-0.3,0,-0.5,0.1,-0.7,0.1c-0.1,0.3,-0.1,0.5,-0.2,0.7c-0.1,0.3,-0.1,0.5,-0.1,0.7c0,0.1,0,0.2,0,0.3c0.1,0.1,0.1,0.2,0.1,0.2c0.1,0.1,0.2,0.1,0.4,0.1c0.2,0,0.5,0,0.9,-0.1c0.4,0,0.8,-0.1,1.1,-0.3c0.2,0,0.3,-0.1,0.4,-0.1c0.1,-0.1,0.2,-0.2,0.3,-0.3c0.1,-0.1,0.2,-0.1,0.3,-0.1c0.1,0,0.1,0,0.2,0.1c0.1,0,0.1,0.1,0.1,0.2c0,0.1,0,0.2,-0.1,0.2Z" class="g6_26" />
<path d="M128.1,1012.9c0.1,0.1,0.1,0.3,0,0.5c-0.1,0.1,-0.3,0.3,-0.5,0.4c-0.2,0.2,-0.4,0.4,-0.6,0.6c-0.3,0.2,-0.5,0.4,-0.8,0.6c-0.2,0.2,-0.4,0.4,-0.6,0.6c-0.2,0.3,-0.4,0.6,-0.4,0.8c0,0.2,0.1,0.4,0.4,0.6c0,0.1,0.1,0.2,0.3,0.3c0.1,0.1,0.2,0.2,0.3,0.3c0.2,0.1,0.3,0.2,0.4,0.3c0.1,0.1,0.2,0.2,0.3,0.3c0.4,0.4,0.6,0.8,0.6,1.2c0,0.1,0,0.3,-0.1,0.4c0,0.2,-0.1,0.3,-0.2,0.4c-0.1,0.2,-0.2,0.3,-0.4,0.4c-0.1,0.1,-0.2,0.2,-0.3,0.3c-0.1,0.1,-0.3,0.2,-0.4,0.2c-0.1,0.1,-0.2,0.2,-0.3,0.2c-0.1,0,-0.2,0.1,-0.2,0c-0.1,0,-0.2,-0.1,-0.2,-0.1c-0.1,-0.1,-0.1,-0.2,-0.1,-0.3c0,-0.1,0.1,-0.1,0.2,-0.2c0.1,0,0.2,-0.1,0.3,-0.1c0.1,-0.1,0.2,-0.2,0.3,-0.2c0.1,-0.1,0.2,-0.2,0.3,-0.3c0.1,-0.1,0.1,-0.1,0.2,-0.2c0.2,-0.2,0.2,-0.4,0.2,-0.5c0,-0.3,-0.1,-0.5,-0.4,-0.7c0,-0.1,-0.1,-0.2,-0.3,-0.3c-0.1,-0.1,-0.2,-0.2,-0.3,-0.4c-0.2,-0.1,-0.3,-0.2,-0.4,-0.3c-0.1,-0.1,-0.2,-0.2,-0.3,-0.2c-0.4,-0.4,-0.6,-0.7,-0.6,-1.1c0,-0.4,0.2,-0.7,0.6,-1.2c0.2,-0.2,0.4,-0.4,0.6,-0.6c0.2,-0.2,0.4,-0.4,0.6,-0.5c0.2,-0.2,0.4,-0.4,0.6,-0.5c0.2,-0.1,0.3,-0.3,0.4,-0.4c0.1,-0.1,0.1,-0.1,0.2,-0.2c0,-0.1,0.1,-0.1,0.2,-0.2c0,0,0.1,0,0.2,0c0.1,0,0.1,0.1,0.2,0.1Z" class="g6_26" />
<path d="M132,1014.9c0,0.1,0,0.2,0,0.2c-0.1,0.1,-0.2,0.1,-0.3,0.1c-0.1,0,-0.2,0,-0.4,0l-0.4,0c-0.2,0,-0.3,0,-0.4,0c-0.2,0,-0.3,0,-0.4,0c0,0.3,0,0.6,0,0.9c0,0.4,0,0.7,0,1c-0.1,0.4,-0.1,0.7,-0.1,1c0,0.4,0,0.7,-0.1,1c0.2,0,0.5,0,0.7,0l0.6,0c0.1,0,0.1,0,0.2,0.1c0.1,0,0.1,0.1,0.1,0.2c0,0.1,0,0.2,-0.1,0.2c-0.1,0.1,-0.1,0.1,-0.3,0.1c-0.1,0,-0.3,0,-0.5,0c-0.3,0,-0.5,0,-0.8,0.1l-0.1,0.1c0,0,-0.1,0,-0.1,0c-0.1,0,-0.1,0,-0.2,0c0,-0.1,-0.1,-0.1,-0.1,-0.1c-0.2,0,-0.4,0,-0.5,0c-0.2,0,-0.4,0,-0.5,0c-0.1,0,-0.2,-0.1,-0.3,-0.1c0,-0.1,-0.1,-0.2,-0.1,-0.3c0,0,0.1,-0.1,0.1,-0.2c0.1,0,0.2,-0.1,0.3,-0.1l0.5,0c0.1,0,0.3,0,0.5,0c0,-0.3,0,-0.6,0,-1c0.1,-0.3,0.1,-0.7,0.1,-1c0,-0.3,0,-0.7,0,-1c0,-0.3,0,-0.6,0,-0.9c-0.1,0,-0.2,0,-0.4,0c-0.2,0,-0.3,0,-0.4,0c-0.1,0.1,-0.2,0.1,-0.2,0.1c-0.1,0,-0.2,0,-0.3,0c-0.1,0,-0.1,-0.1,-0.2,-0.1c-0.1,-0.1,-0.1,-0.2,-0.1,-0.3c0,0,0,-0.1,0.1,-0.2c0,0,0.1,-0.1,0.2,-0.1c0.1,0,0.2,0,0.3,0c0.1,0,0.2,-0.1,0.4,-0.1l0.7,0c0,0,0.1,0,0.1,-0.1c0,0,0.1,0,0.1,0c0.1,0,0.2,0,0.2,0c0,0.1,0.1,0.1,0.1,0.2c0.2,0,0.5,0,0.8,0c0.3,0,0.6,0,0.9,0c0.1,0,0.2,0,0.2,0.1c0.1,0,0.1,0.1,0.1,0.2Z" class="g6_26" />
<path d="M137.4,1017.1c0.1,0.1,0,0.3,-0.1,0.6c-0.1,0.2,-0.3,0.4,-0.5,0.6c-0.2,0.2,-0.4,0.4,-0.6,0.6c-0.2,0.2,-0.4,0.4,-0.6,0.5c-0.3,0.2,-0.6,0.4,-0.9,0.6c-0.4,0.2,-0.7,0.4,-1.1,0.6c-0.1,0,-0.2,0,-0.3,0c0,0,-0.1,-0.1,-0.1,-0.2c-0.1,0,-0.1,-0.1,-0.1,-0.2c0,-0.1,0.1,-0.2,0.2,-0.2c0.4,-0.2,0.7,-0.4,1.1,-0.6c0.3,-0.2,0.6,-0.3,0.8,-0.5c0.2,-0.1,0.3,-0.3,0.5,-0.4c0.2,-0.2,0.3,-0.4,0.5,-0.5c0.1,-0.2,0.3,-0.4,0.4,-0.5c0.1,-0.2,0.1,-0.3,0.1,-0.5c0,-0.1,0,-0.3,-0.2,-0.5c-0.1,-0.1,-0.3,-0.3,-0.6,-0.5c-0.1,-0.1,-0.3,-0.2,-0.5,-0.3c-0.2,-0.1,-0.4,-0.3,-0.6,-0.4c-0.2,-0.1,-0.5,-0.2,-0.7,-0.4c-0.2,-0.1,-0.4,-0.2,-0.6,-0.3c-0.1,0.4,-0.1,0.9,-0.2,1.4c0,0.4,0,0.9,-0.1,1.3c0,0.4,0,0.7,-0.1,1c0,0.3,0,0.5,0,0.6c0,0.1,0,0.2,0.1,0.2c0,0.1,0,0.2,0.1,0.3c0,0.1,0,0.1,0,0.2c-0.1,0.1,-0.1,0.1,-0.2,0.1c-0.1,0.1,-0.2,0.1,-0.2,0.1c-0.1,-0.1,-0.2,-0.1,-0.3,-0.2c0,-0.1,0,-0.2,-0.1,-0.3c-0.1,-0.1,-0.1,-0.2,-0.1,-0.4c0,-0.1,0,-0.2,0,-0.4c0.1,-0.2,0.1,-0.4,0.1,-0.6c0,-0.3,0,-0.5,0.1,-0.8c0,-0.3,0,-0.6,0.1,-1c0,-0.3,0,-0.6,0.1,-0.9c0,-0.3,0,-0.6,0,-0.9c0,-0.1,-0.1,-0.1,-0.1,-0.1c-0.1,-0.1,-0.1,-0.1,-0.2,-0.1c-0.1,0,-0.1,0,-0.2,0c0,-0.1,-0.1,-0.1,-0.1,-0.2c-0.1,-0.1,-0.1,-0.1,-0.1,-0.2c0,-0.1,0,-0.1,0.1,-0.2c0,0,0.1,-0.1,0.2,-0.1c0.1,0,0.2,0,0.3,0c0.3,0.2,0.7,0.4,1.1,0.6c0.3,0.2,0.7,0.4,1,0.6c0.3,0.2,0.6,0.3,0.9,0.5c0.2,0.1,0.4,0.3,0.6,0.4c0.8,0.5,1.1,1,1.1,1.6Z" class="g6_26" />
<path d="M142.7,1019.2c-0.1,0.2,-0.2,0.3,-0.4,0.4c-0.2,0.1,-0.3,0.2,-0.5,0.3c-0.2,0,-0.4,0.1,-0.6,0.1c-0.2,0.1,-0.4,0.1,-0.6,0.2c-0.2,0,-0.5,0,-0.7,0.1c-0.2,0,-0.4,0,-0.6,0c-0.1,0,-0.3,0,-0.4,-0.1c-0.1,0,-0.2,-0.1,-0.3,-0.3c-0.1,-0.1,-0.2,-0.2,-0.2,-0.4c0,-0.1,-0.1,-0.3,-0.1,-0.5c0,-0.1,0.1,-0.2,0.1,-0.3c0,-0.1,0,-0.2,0,-0.4c0.1,-0.1,0.1,-0.2,0.1,-0.3c0,-0.1,0.1,-0.2,0.1,-0.3c-0.1,0,-0.2,0,-0.3,0c-0.1,0,-0.1,0,-0.2,0c-0.1,0,-0.2,0,-0.2,-0.1c-0.1,0,-0.1,-0.1,-0.2,-0.2c0,-0.1,0.1,-0.2,0.2,-0.3c0.1,0,0.2,-0.1,0.3,-0.1c0,0,0.1,0,0.2,0.1c0,0,0.1,-0.1,0.2,-0.1c0.1,0,0.1,0,0.2,0c0.1,-0.3,0.2,-0.5,0.2,-0.8c0.1,-0.2,0.1,-0.4,0.2,-0.6c0,-0.1,0,-0.1,0,-0.2c0,0,0,-0.1,-0.1,-0.1c-0.1,0,-0.2,0,-0.3,0.1c-0.1,0,-0.3,0.1,-0.4,0.1c-0.1,0,-0.2,0,-0.2,0c-0.1,0,-0.2,-0.1,-0.2,-0.2c0,-0.1,0,-0.1,0,-0.2c0.1,-0.1,0.1,-0.2,0.2,-0.2c0.4,-0.2,0.8,-0.3,1.1,-0.3c0.4,-0.1,0.8,-0.2,1.2,-0.2c0.3,0,0.7,0,1,0c0.3,0,0.6,0,0.9,0c0.1,0,0.2,0,0.3,0.1c0,0,0.1,0.1,0,0.2c0,0.1,0,0.2,-0.1,0.2c0,0.1,-0.1,0.1,-0.2,0.1c-0.4,0,-0.9,0,-1.3,0c-0.5,0,-0.9,0.1,-1.3,0.2c0,0,0,0.1,0.1,0.1c0,0.1,0,0.1,-0.1,0.2c0,0.2,0,0.4,-0.1,0.7c0,0.2,-0.1,0.5,-0.2,0.7c0.2,0,0.5,-0.1,0.7,-0.1c0.3,0,0.5,-0.1,0.7,-0.1c0.2,-0.1,0.5,-0.1,0.7,-0.1c0.2,-0.1,0.4,-0.1,0.5,-0.1c0.1,-0.1,0.2,-0.1,0.2,0c0.1,0.1,0.1,0.1,0.1,0.2c0,0.1,0,0.2,0,0.2c0,0.1,-0.1,0.2,-0.2,0.2c-0.2,0,-0.4,0.1,-0.6,0.1c-0.2,0.1,-0.5,0.1,-0.8,0.2c-0.3,0,-0.5,0.1,-0.8,0.1c-0.3,0,-0.5,0.1,-0.7,0.1c-0.1,0.3,-0.1,0.5,-0.2,0.7c0,0.3,-0.1,0.5,-0.1,0.7c0,0.1,0,0.2,0,0.3c0.1,0.1,0.1,0.2,0.1,0.2c0.1,0.1,0.2,0.1,0.4,0.1c0.2,0,0.5,0,0.9,-0.1c0.4,0,0.8,-0.1,1.1,-0.3c0.2,0,0.3,-0.1,0.4,-0.1c0.1,-0.1,0.3,-0.2,0.3,-0.3c0.1,-0.1,0.2,-0.1,0.3,-0.1c0.1,0,0.2,0,0.2,0.1c0.1,0,0.1,0.1,0.1,0.2c0,0.1,0,0.2,-0.1,0.2Z" class="g6_26" />
<path d="M148.2,1015.5c0,0.2,0.1,0.4,0.1,0.7c0,0.3,-0.1,0.6,-0.1,0.9c0,0.3,0,0.6,-0.1,0.9c-0.1,0.3,-0.1,0.5,-0.2,0.7c-0.1,0.3,-0.2,0.5,-0.4,0.7c-0.2,0.2,-0.4,0.3,-0.7,0.3c-0.1,0,-0.3,-0.1,-0.5,-0.1c-0.1,-0.1,-0.3,-0.2,-0.5,-0.4c-0.2,-0.3,-0.5,-0.6,-0.7,-1c-0.3,-0.4,-0.5,-0.8,-0.8,-1.3c0,0.3,0,0.5,0,0.8c0,0.2,-0.1,0.4,-0.1,0.6c0,0.3,0,0.5,0,0.7c0,0.2,0,0.3,0,0.5c0,0,0,0.1,0,0.1c0,0.1,0.1,0.1,0.1,0.1c0.1,0.1,0.1,0.1,0.2,0.2c0,0,0,0.1,0,0.2c-0.1,0,-0.1,0.1,-0.2,0.1c0,0.1,-0.1,0.1,-0.2,0.1c-0.2,0,-0.3,-0.1,-0.4,-0.2c-0.1,-0.1,-0.1,-0.3,-0.1,-0.4c-0.1,-0.3,-0.1,-0.5,-0.1,-0.9c0,-0.3,0.1,-0.6,0.1,-1c0,-0.3,0.1,-0.7,0.1,-1c0,-0.4,0.1,-0.7,0.1,-0.9c0,-0.1,-0.1,-0.1,-0.1,-0.2c0,-0.1,-0.1,-0.2,-0.1,-0.3c0,-0.1,0,-0.1,0.1,-0.2c0,0,0,-0.1,0.1,-0.1c0.1,-0.1,0.1,-0.1,0.2,-0.1c0.1,0,0.1,0.1,0.2,0.1c0,0.1,0,0.1,0,0.2c0.1,0,0.1,0.1,0.1,0.1c0.1,0,0.2,0.1,0.2,0.1c0,0.1,0,0.2,0,0.3c0.1,0.2,0.2,0.4,0.3,0.7c0.2,0.3,0.3,0.5,0.5,0.8c0.1,0.2,0.3,0.5,0.5,0.8c0.2,0.2,0.3,0.4,0.5,0.6c0.1,0.1,0.2,0.2,0.3,0.2c0.1,0,0.2,0.1,0.2,0.1c0.2,-0.1,0.2,-0.1,0.3,-0.2c0.1,-0.1,0.1,-0.2,0.2,-0.3c0,-0.1,0.1,-0.3,0.1,-0.5c0.1,-0.2,0.1,-0.5,0.1,-0.7c0.1,-0.3,0.1,-0.5,0.1,-0.8c0,-0.2,0,-0.4,0,-0.6c-0.1,-0.1,-0.1,-0.2,-0.1,-0.3c0,-0.1,0,-0.2,0.1,-0.2c0,-0.1,0.1,-0.1,0.1,-0.1c0.1,-0.1,0.2,-0.1,0.3,0c0.1,0,0.1,0.1,0.2,0.2Z" class="g6_26" />
<path d="M154.8,1015.2c0,0.1,-0.1,0.1,-0.1,0.2c-0.1,0.1,-0.1,0.1,-0.2,0.1c0,0.1,-0.1,0.1,-0.2,0.1c-0.1,0,-0.2,-0.1,-0.3,-0.1c-0.1,0,-0.4,0,-0.8,0c-0.3,0,-0.7,0,-1.2,0c0,0.1,0,0.3,0,0.6c0,0.2,0,0.4,0,0.7l0,0.8c0,0.2,0,0.5,0,0.7c0,0.2,0,0.4,0,0.6c0,0.2,0,0.3,0,0.4c0.2,0.1,0.2,0.2,0.2,0.3c0,0.2,0,0.2,-0.1,0.3c-0.1,0,-0.2,0.1,-0.3,0c-0.1,0,-0.2,0,-0.3,-0.1c-0.1,-0.1,-0.1,-0.2,-0.1,-0.4c-0.1,-0.2,-0.1,-0.5,-0.1,-0.8c0,-0.4,0,-0.7,0,-1.1c0,-0.3,0,-0.7,0,-1c0,-0.4,0,-0.7,0,-1c-0.2,0,-0.4,0,-0.7,0c-0.2,0,-0.5,0,-0.7,0c-0.3,0,-0.5,0,-0.7,0c-0.2,0,-0.4,0,-0.5,0c-0.1,0,-0.2,-0.1,-0.3,-0.1c-0.1,-0.1,-0.1,-0.2,-0.1,-0.3c0,-0.1,0,-0.1,0.1,-0.2c0.1,-0.1,0.1,-0.1,0.2,-0.1c0.3,0,0.6,0,0.9,0c0.3,0,0.7,0,1,0c0.4,0,0.7,0,1.1,0c0.4,0,0.7,0,1.1,0l1.7,0c0.1,0,0.2,0.1,0.3,0.1c0.1,0.1,0.1,0.2,0.1,0.3Z" class="g6_26" />
<path d="M159.8,1019.2c-0.1,0.2,-0.2,0.3,-0.4,0.4c-0.2,0.1,-0.4,0.2,-0.6,0.3c-0.1,0,-0.3,0.1,-0.5,0.1c-0.2,0.1,-0.4,0.1,-0.6,0.2c-0.3,0,-0.5,0,-0.7,0.1c-0.2,0,-0.4,0,-0.6,0c-0.2,0,-0.3,0,-0.4,-0.1c-0.2,0,-0.3,-0.1,-0.3,-0.3c-0.1,-0.1,-0.2,-0.2,-0.2,-0.4c-0.1,-0.1,-0.1,-0.3,-0.1,-0.5c0,-0.1,0,-0.2,0,-0.3c0.1,-0.1,0.1,-0.2,0.1,-0.4c0,-0.1,0.1,-0.2,0.1,-0.3c0,-0.1,0,-0.2,0.1,-0.3c-0.1,0,-0.2,0,-0.3,0c-0.1,0,-0.2,0,-0.2,0c-0.1,0,-0.2,0,-0.3,-0.1c0,0,-0.1,-0.1,-0.1,-0.2c0,-0.1,0.1,-0.2,0.2,-0.3c0.1,0,0.1,-0.1,0.2,-0.1c0.1,0,0.2,0,0.3,0.1c0,0,0.1,-0.1,0.2,-0.1c0,0,0.1,0,0.2,0c0,-0.3,0.1,-0.5,0.2,-0.8c0.1,-0.2,0.1,-0.4,0.1,-0.6c0,-0.1,0,-0.1,0,-0.2c0,0,0,-0.1,0,-0.1c-0.1,0,-0.2,0,-0.3,0.1c-0.2,0,-0.3,0.1,-0.4,0.1c-0.1,0,-0.2,0,-0.3,0c0,0,-0.1,-0.1,-0.1,-0.2c0,-0.1,0,-0.1,0,-0.2c0.1,-0.1,0.1,-0.2,0.2,-0.2c0.4,-0.2,0.7,-0.3,1.1,-0.3c0.4,-0.1,0.8,-0.2,1.1,-0.2c0.4,0,0.7,0,1.1,0c0.3,0,0.6,0,0.9,0c0.1,0,0.2,0,0.2,0.1c0.1,0,0.1,0.1,0.1,0.2c0,0.1,0,0.2,-0.1,0.2c0,0.1,-0.1,0.1,-0.2,0.1c-0.5,0,-0.9,0,-1.3,0c-0.5,0,-0.9,0.1,-1.3,0.2c0,0,0,0.1,0,0.1c0,0.1,0,0.1,0,0.2c0,0.2,0,0.4,-0.1,0.7c-0.1,0.2,-0.1,0.5,-0.2,0.7c0.2,0,0.4,-0.1,0.7,-0.1c0.2,0,0.5,-0.1,0.7,-0.1c0.2,-0.1,0.4,-0.1,0.6,-0.1c0.2,-0.1,0.4,-0.1,0.6,-0.1c0.1,-0.1,0.1,-0.1,0.2,0c0.1,0.1,0.1,0.1,0.1,0.2c0,0.1,0,0.2,0,0.2c-0.1,0.1,-0.1,0.2,-0.2,0.2c-0.2,0,-0.4,0.1,-0.6,0.1c-0.3,0.1,-0.5,0.1,-0.8,0.2c-0.3,0,-0.6,0.1,-0.8,0.1c-0.3,0,-0.5,0.1,-0.7,0.1c-0.1,0.3,-0.2,0.5,-0.2,0.7c-0.1,0.3,-0.1,0.5,-0.1,0.7c0,0.1,0,0.2,0,0.3c0,0.1,0.1,0.2,0.1,0.2c0.1,0.1,0.2,0.1,0.3,0.1c0.3,0,0.6,0,1,-0.1c0.4,0,0.7,-0.1,1.1,-0.3c0.1,0,0.3,-0.1,0.4,-0.1c0.1,-0.1,0.2,-0.2,0.3,-0.3c0.1,-0.1,0.2,-0.1,0.3,-0.1c0,0,0.1,0,0.2,0.1c0,0,0.1,0.1,0.1,0.2c0,0.1,0,0.2,-0.1,0.2Z" class="g6_26" />
<path d="M161.4,1017.4c0.1,0,0.1,0.1,0.2,0.1c0,0.1,0,0.2,0,0.2c0,0.1,0,0.2,0,0.2c-0.1,0.1,-0.1,0.2,-0.2,0.2c-0.1,0.1,-0.2,0.1,-0.3,0.1c-0.1,0,-0.2,-0.1,-0.3,-0.2c-0.1,-0.1,-0.1,-0.2,-0.1,-0.3c0,-0.2,0.1,-0.3,0.2,-0.3c0.1,-0.1,0.2,-0.1,0.3,-0.1c0.1,0,0.2,0,0.2,0.1Zm0,2.4c-0.1,0.1,-0.2,0.1,-0.3,0.1c-0.1,0,-0.2,-0.1,-0.3,-0.1c-0.1,-0.1,-0.2,-0.3,-0.1,-0.4c0,-0.1,0,-0.2,0.1,-0.3c0.1,-0.1,0.2,-0.1,0.3,-0.1c0.1,0,0.2,0,0.3,0.1c0.1,0,0.1,0.1,0.1,0.1c0.1,0.1,0.1,0.2,0.1,0.2c0,0.1,0,0.2,-0.1,0.3c0,0,0,0.1,-0.1,0.1Z" class="g6_26" />
<path d="M95.3,1027.7c-0.3,-0.7,-0.6,-1.5,-0.8,-2.2c-0.3,-0.8,-0.6,-1.6,-0.9,-2.3c-0.1,0.4,-0.3,0.8,-0.6,1.3c-0.2,0.5,-0.4,0.9,-0.7,1.4c-0.2,0.5,-0.4,1,-0.6,1.5c-0.3,0.4,-0.5,0.9,-0.7,1.3c0.3,-0.1,0.7,-0.2,1,-0.2c0.4,-0.1,0.8,-0.2,1.1,-0.3c0.4,-0.1,0.8,-0.2,1.2,-0.2c0.3,-0.1,0.7,-0.2,1,-0.3Zm2.5,2.5c0.1,0.1,0.1,0.3,0.1,0.4c0,0.1,0,0.2,-0.1,0.3c-0.2,0.1,-0.3,0.1,-0.5,0.1c-0.1,0,-0.3,-0.1,-0.4,-0.2c0,-0.1,-0.1,-0.2,-0.2,-0.4c-0.1,-0.1,-0.2,-0.3,-0.3,-0.4c-0.1,-0.2,-0.2,-0.3,-0.2,-0.5c-0.1,-0.2,-0.2,-0.3,-0.3,-0.4c0,-0.1,0,-0.2,-0.1,-0.2c0,-0.1,-0.1,-0.2,-0.1,-0.3c-1,0.2,-1.9,0.4,-2.7,0.6c-0.9,0.2,-1.7,0.4,-2.5,0.6c-0.1,0.1,-0.1,0.3,-0.2,0.5c-0.1,0.2,-0.2,0.3,-0.3,0.5c0,0.1,0,0.2,-0.1,0.3c0,0.2,-0.1,0.3,-0.3,0.3c-0.1,0.1,-0.2,0.1,-0.3,0.1c-0.1,0,-0.2,0,-0.3,-0.1c-0.1,-0.1,-0.2,-0.2,-0.2,-0.3c0,-0.2,0.1,-0.3,0.1,-0.4c0.1,-0.1,0.1,-0.2,0.2,-0.3c0,-0.1,0.1,-0.2,0.2,-0.3c-0.2,0,-0.4,0,-0.5,-0.1c-0.2,0,-0.3,-0.1,-0.3,-0.3c0,-0.1,0,-0.1,0.1,-0.2c0,0,0,-0.1,0,-0.1c0.1,-0.1,0.1,-0.1,0.2,-0.2c0,0,0.1,0,0.2,0c0.1,-0.1,0.3,-0.1,0.4,-0.1c0.1,-0.1,0.2,-0.1,0.3,-0.1c0.2,-0.4,0.4,-0.7,0.6,-1.2c0.2,-0.4,0.4,-0.8,0.7,-1.3c0.2,-0.5,0.4,-0.9,0.6,-1.4c0.2,-0.5,0.4,-0.9,0.6,-1.3c0.2,-0.4,0.4,-0.7,0.6,-1.1c0.1,-0.3,0.3,-0.5,0.3,-0.7c0,-0.1,0.1,-0.2,0.2,-0.3c0.1,-0.1,0.2,-0.1,0.3,-0.1c0.2,0,0.3,0,0.4,0c0,0.1,0.1,0.1,0.2,0.3c0.2,0.4,0.4,0.9,0.6,1.4c0.2,0.6,0.3,1.1,0.5,1.6c0.2,0.5,0.4,0.9,0.6,1.4c0.1,0.4,0.3,0.8,0.5,1.2c0.1,-0.1,0.2,-0.1,0.3,-0.1c0.1,0,0.2,0,0.3,-0.1c0.1,0,0.2,0,0.3,0.1c0.1,0,0.2,0.2,0.2,0.4c0,0,0,0.1,-0.1,0.2c0,0.1,-0.1,0.2,-0.2,0.3c-0.1,0,-0.1,0,-0.2,0c-0.1,0,-0.2,0.1,-0.2,0.1c0,0,0,0.1,0.1,0.2c0,0,0,0.1,0.1,0.2c0,0.1,0.1,0.2,0.1,0.3c0.1,0.2,0.2,0.3,0.3,0.4c0,0.2,0.1,0.3,0.2,0.4c0.1,0.1,0.1,0.2,0.2,0.3Z" class="g6_26" />
<path d="M108,1029.4c0,0.1,0,0.2,-0.1,0.3c-0.1,0.1,-0.1,0.1,-0.3,0.2c0,0,-0.1,0,-0.1,0c-0.1,0,-0.1,0,-0.2,0c-0.2,0.1,-0.4,0.2,-0.7,0.3c-0.2,0.1,-0.5,0.2,-0.8,0.3c-0.4,0.2,-0.9,0.3,-1.3,0.2c-0.5,-0.1,-0.8,-0.4,-1,-0.9c-0.2,-0.3,-0.3,-0.6,-0.3,-0.9c-0.1,-0.3,-0.1,-0.6,-0.1,-0.8c-0.1,-0.1,-0.1,-0.2,-0.3,-0.2c0,0,-0.1,0,-0.2,0c-0.1,0.1,-0.3,0.1,-0.4,0.2c-0.1,0.1,-0.2,0.1,-0.3,0.2c-0.1,0.1,-0.2,0.2,-0.3,0.3c-0.1,0.1,-0.2,0.2,-0.3,0.3c-0.2,0.1,-0.3,0.2,-0.4,0.3c-0.1,0.1,-0.2,0.2,-0.4,0.3c-0.1,0.2,-0.2,0.3,-0.3,0.4c-0.2,0.2,-0.3,0.3,-0.4,0.4c-0.1,0.1,-0.1,0.3,-0.2,0.3c-0.1,0.2,-0.2,0.3,-0.3,0.4c-0.2,0,-0.3,0,-0.4,-0.1c-0.2,0,-0.2,-0.1,-0.3,-0.2c0,-0.1,0,-0.2,0,-0.3l0,-1.5c0,-0.2,0,-0.4,0,-0.6c-0.1,-0.2,-0.1,-0.4,-0.1,-0.6c-0.1,0,-0.2,-0.1,-0.2,-0.2c0.1,-0.1,0.1,-0.2,0.1,-0.3c0.1,-0.1,0.2,-0.2,0.2,-0.3c0.1,-0.1,0.1,-0.1,0.2,-0.1c0.1,0,0.2,-0.1,0.3,0c0.1,0,0.2,0,0.3,0.1c0.1,0,0.1,0.1,0.1,0.2c0.1,0.1,0.1,0.3,0.1,0.5c0,0.2,0,0.3,0,0.5l0,0.6c0,0.2,0,0.4,0,0.5c0.1,-0.2,0.2,-0.3,0.4,-0.5c0.2,-0.1,0.4,-0.3,0.5,-0.4c0.2,-0.2,0.4,-0.4,0.6,-0.6c0.2,-0.2,0.4,-0.3,0.6,-0.4c0.2,-0.2,0.4,-0.3,0.6,-0.4c0.3,-0.1,0.5,-0.1,0.7,-0.1c0.3,0,0.5,0,0.7,0.2c0.2,0.2,0.3,0.4,0.4,0.7c0,0.4,0.1,0.7,0.1,0.9c0.1,0.3,0.1,0.5,0.2,0.7c0.1,0.2,0.3,0.3,0.5,0.4c0.2,0,0.4,0,0.5,-0.1c0.3,-0.1,0.6,-0.3,1,-0.4c0.3,-0.2,0.6,-0.3,0.9,-0.3c0.2,-0.1,0.4,0,0.5,0.1c0.1,0.1,0.2,0.2,0.2,0.4Z" class="g6_26" />
<path d="M114.8,1029.3c0.1,0.1,0.2,0.2,0.1,0.4c0,0.1,-0.1,0.3,-0.2,0.4c-0.3,0.1,-0.7,0.3,-1,0.4c-0.4,0.2,-0.8,0.2,-1.1,0.3c-0.4,0,-0.7,0,-0.9,-0.1c-0.3,-0.1,-0.4,-0.2,-0.6,-0.5c0,0,-0.1,-0.2,-0.2,-0.3c0,-0.2,0,-0.3,0,-0.4c0,-0.1,-0.1,-0.2,-0.1,-0.2c-0.1,0,-0.2,0,-0.2,0.1c-0.1,0,-0.2,0.1,-0.4,0.2c-0.1,0.2,-0.3,0.3,-0.4,0.4c-0.2,0.2,-0.3,0.3,-0.5,0.4c-0.2,0.2,-0.3,0.3,-0.5,0.4c-0.3,0.3,-0.6,0.4,-0.9,0.4c-0.3,0,-0.6,0,-0.7,-0.2c-0.3,-0.2,-0.4,-0.5,-0.4,-0.9c0,-0.2,0,-0.4,0.1,-0.6c0.1,-0.2,0.1,-0.4,0.2,-0.6c0.2,-0.2,0.3,-0.5,0.5,-0.8c0.2,-0.2,0.4,-0.5,0.6,-0.7c0.3,-0.2,0.5,-0.4,0.7,-0.6c0.2,-0.2,0.4,-0.4,0.6,-0.5c0.2,-0.1,0.4,-0.2,0.6,-0.3c0.2,-0.1,0.4,-0.2,0.6,-0.3c0.3,-0.1,0.5,-0.1,0.8,0c0.3,0,0.5,0.1,0.8,0.3c0.1,0.1,0.2,0.3,0.2,0.4c0,0.1,-0.1,0.2,-0.1,0.3c-0.1,0.1,-0.2,0.2,-0.4,0.2c-0.1,0.1,-0.3,0.1,-0.4,0c-0.2,-0.2,-0.4,-0.3,-0.7,-0.2c-0.2,0,-0.5,0.2,-0.8,0.4c-0.2,0.1,-0.4,0.2,-0.6,0.4c-0.2,0.2,-0.4,0.4,-0.6,0.6c-0.2,0.2,-0.3,0.4,-0.5,0.6c-0.2,0.2,-0.3,0.4,-0.4,0.7c-0.1,0.1,-0.1,0.2,-0.1,0.3c0,0.2,0,0.3,0.1,0.4c0.1,0,0.2,0,0.4,-0.2c0.1,-0.1,0.3,-0.2,0.5,-0.4c0.2,-0.2,0.4,-0.3,0.6,-0.5c0.2,-0.2,0.5,-0.4,0.7,-0.5c0.2,-0.2,0.4,-0.3,0.5,-0.4c0.2,-0.1,0.3,-0.1,0.4,-0.2c0.2,0,0.3,0,0.4,0c0.1,0,0.2,0.1,0.3,0.2c0,0.1,0.1,0.2,0.1,0.4c-0.1,0.1,-0.1,0.3,0,0.5c0,0.1,0,0.3,0,0.4c0.1,0.1,0.2,0.2,0.3,0.3c0.1,0,0.2,0.1,0.3,0c0.2,0,0.3,0,0.4,0c0.2,-0.1,0.3,-0.1,0.5,-0.2c0.2,0,0.3,-0.1,0.5,-0.2c0.1,0,0.2,-0.1,0.3,-0.1c0.2,-0.1,0.3,-0.1,0.4,-0.1c0.1,0.1,0.2,0.1,0.2,0.2Z" class="g6_26" />
<path d="M126.7,1029.2c0,0.1,0.1,0.2,0,0.4c0,0.1,-0.1,0.2,-0.2,0.3c-0.3,0.2,-0.7,0.4,-1.1,0.6c-0.4,0.1,-0.8,0.2,-1.3,0.3c-0.4,0.1,-0.9,0.2,-1.4,0.2c-0.5,0.1,-0.9,0.1,-1.3,0.1c-0.3,0,-0.6,-0.1,-0.8,-0.1c-0.3,-0.1,-0.4,-0.2,-0.6,-0.3c-0.1,-0.2,-0.3,-0.5,-0.3,-0.8c0,-0.4,0.1,-0.8,0.3,-1.4c0.4,-1.3,0.7,-2.4,0.8,-3.5c0.2,-1.1,0.4,-2,0.5,-2.8c0,-0.1,0,-0.2,0.2,-0.3c0.1,-0.1,0.2,-0.1,0.3,-0.1c0.2,0,0.3,0,0.4,0.1c0.1,0.1,0.1,0.2,0.1,0.4c-0.1,0.9,-0.2,2,-0.5,3.1c-0.2,1.1,-0.4,2.2,-0.8,3.4c-0.1,0.3,-0.1,0.5,-0.1,0.7c0,0.2,0,0.3,0.1,0.4c0,0.1,0.1,0.1,0.2,0.1c0.1,0.1,0.3,0.1,0.4,0.1c0.4,0,0.9,-0.1,1.3,-0.1c0.4,-0.1,0.8,-0.2,1.2,-0.2c0.3,-0.1,0.7,-0.2,1,-0.3c0.3,-0.2,0.6,-0.3,0.9,-0.4c0.1,-0.1,0.2,-0.1,0.4,-0.1c0.1,0,0.2,0.1,0.3,0.2Z" class="g6_26" />
<path d="M132.9,1023.7c0.1,0.1,0.1,0.2,0.1,0.3c-0.1,0.1,-0.1,0.2,-0.2,0.3c-0.2,0.1,-0.3,0.1,-0.5,0.2c-0.2,0.1,-0.4,0.2,-0.6,0.3c-0.2,0.2,-0.4,0.3,-0.6,0.4c-0.1,0,-0.3,0.1,-0.4,0.2c-0.2,0,-0.3,0,-0.4,0c0,0,-0.1,-0.1,-0.2,-0.2c0,-0.1,0,-0.2,0,-0.3c0,-0.1,0.1,-0.1,0.2,-0.2c0.2,-0.1,0.3,-0.2,0.5,-0.3c0.2,-0.1,0.4,-0.2,0.6,-0.2c0.2,-0.1,0.3,-0.2,0.5,-0.3c0.2,-0.1,0.4,-0.2,0.5,-0.3c0.1,0,0.2,-0.1,0.3,0c0.1,0,0.1,0.1,0.2,0.1Zm-0.8,5.5c0.1,-0.2,0.2,-0.4,0.1,-0.7c0,-0.2,-0.2,-0.4,-0.4,-0.5c-0.1,0,-0.3,0,-0.5,0c-0.1,0,-0.3,0,-0.5,0c-0.2,0,-0.4,-0.1,-0.6,-0.1c-0.1,-0.1,-0.2,-0.2,-0.1,-0.4c-0.1,0,-0.1,0,-0.2,0c0,0,-0.1,0.1,-0.2,0.1c-0.1,0.1,-0.3,0.3,-0.5,0.6c-0.2,0.3,-0.4,0.6,-0.4,0.9c-0.1,0.5,-0.1,0.8,0,1c0.2,0.2,0.4,0.3,0.8,0.3c0.2,0,0.5,0,0.7,0c0.2,-0.1,0.4,-0.1,0.5,-0.2c0.3,-0.1,0.5,-0.3,0.7,-0.4c0.2,-0.2,0.4,-0.4,0.6,-0.6Zm1.8,-1.7c0,0.1,-0.1,0.2,-0.1,0.3c0,0,-0.1,0.1,-0.1,0.1c-0.2,0.1,-0.4,0.1,-0.7,0.1c0.1,0.1,0.2,0.2,0.2,0.3c0.1,0.1,0.1,0.2,0.1,0.4c0,0.2,0,0.3,-0.1,0.5c-0.1,0.2,-0.2,0.4,-0.3,0.6c-0.5,0.6,-1.1,1,-1.6,1.3c-0.3,0.1,-0.6,0.2,-0.8,0.2c-0.3,0.1,-0.6,0.1,-0.9,0.1c-0.8,0,-1.4,-0.2,-1.7,-0.8c-0.2,-0.4,-0.3,-1,-0.1,-1.7c0,-0.3,0.1,-0.5,0.2,-0.8c0.1,-0.2,0.3,-0.4,0.4,-0.6c0.2,-0.2,0.4,-0.4,0.6,-0.6c0.2,-0.2,0.4,-0.3,0.6,-0.4c0.2,-0.1,0.4,-0.1,0.6,-0.1c0.2,0,0.4,0.1,0.6,0.2c0.1,0,0.2,0,0.3,0c0.1,0,0.1,0,0.2,0c0.2,0,0.3,0.1,0.5,0.1c0.2,0.1,0.3,0.2,0.4,0.3l1.1,0c0.2,0,0.3,0.1,0.4,0.2c0.1,0.1,0.2,0.2,0.2,0.3Z" class="g6_26" />
<path d="M139.7,1028.1c0,0.2,-0.1,0.5,-0.3,0.8c-0.2,0.2,-0.4,0.4,-0.8,0.6c-0.1,0,-0.1,0.1,-0.2,0.1c-0.1,0.1,-0.2,0.1,-0.3,0.1c-0.1,0.1,-0.2,0.1,-0.3,0.2c-0.1,0,-0.2,0.1,-0.2,0.1c-0.1,0.1,-0.2,0.1,-0.4,0.2c-0.1,0.1,-0.2,0.1,-0.4,0.2c-0.1,0,-0.2,0.1,-0.4,0.1c-0.1,0.1,-0.3,0.1,-0.4,0.1c-0.2,0,-0.3,-0.1,-0.4,-0.2c-0.1,-0.1,-0.2,-0.2,-0.2,-0.3c0,-0.2,0.1,-0.4,0.3,-0.5c0,-0.1,0.2,-0.1,0.3,-0.2c0.1,0,0.2,0,0.3,0.1c0,0,0.1,0,0.2,-0.1c0,0,0.1,0,0.2,-0.1c0.1,0,0.2,0,0.3,-0.1c0,0,0.1,-0.1,0.2,-0.1c0.1,-0.1,0.1,-0.1,0.2,-0.2c0.1,0,0.2,0,0.3,-0.1c0.1,0,0.1,0,0.2,-0.1c0.1,0,0.1,0,0.2,0c0.1,-0.1,0.3,-0.2,0.3,-0.3c0.1,-0.1,0.1,-0.2,0.1,-0.3c0,-0.1,0,-0.2,-0.1,-0.3c-0.1,-0.2,-0.3,-0.2,-0.4,-0.3c-0.1,-0.1,-0.3,-0.1,-0.5,-0.2c-0.2,-0.1,-0.4,-0.2,-0.6,-0.3c-0.2,0,-0.5,-0.1,-0.7,-0.2c-0.3,0,-0.5,-0.1,-0.7,-0.1c-0.1,0.6,-0.2,1.2,-0.2,1.8c-0.1,0.7,-0.1,1.3,-0.1,2c-0.1,0.6,-0.1,1.2,-0.1,1.9c0,0.6,0,1.1,0,1.6c0.1,0.1,0.2,0.3,0.2,0.4c0,0.1,0,0.2,0,0.4c-0.1,0.1,-0.1,0.2,-0.2,0.3c-0.1,0.1,-0.2,0.1,-0.3,0.2c-0.1,0,-0.2,0,-0.3,0c-0.1,0,-0.2,-0.1,-0.3,-0.2c-0.1,0,-0.1,-0.1,-0.1,-0.3c0,-0.1,0,-0.1,-0.1,-0.2c0,-0.1,0,-0.2,0,-0.3c0,-0.7,0,-1.4,0.1,-2.1c0,-0.7,0,-1.4,0.1,-2c0,-0.7,0,-1.3,0.1,-1.9c0,-0.6,0.1,-1.2,0.1,-1.7c0,0,-0.1,0,-0.2,0l-0.1,0c-0.1,0,-0.2,0,-0.2,0c-0.1,0,-0.1,-0.1,-0.2,-0.1c-0.1,0,-0.2,-0.1,-0.3,-0.2c0,0,0,-0.1,0,-0.2c0,-0.2,0,-0.3,0.1,-0.4c0.1,-0.1,0.3,-0.2,0.5,-0.2c0.9,0.1,1.8,0.2,2.5,0.4c0.8,0.2,1.4,0.5,2,0.7c0.4,0.2,0.7,0.4,0.9,0.7c0.2,0.2,0.3,0.5,0.3,0.8Z" class="g6_26" />
<path d="M143.1,1026.7c0.1,-0.3,0.1,-0.4,0,-0.5c-0.1,-0.1,-0.2,-0.1,-0.3,-0.1c-0.1,0,-0.2,0.1,-0.3,0.1c-0.1,0.1,-0.2,0.2,-0.4,0.4c-0.2,0.2,-0.4,0.4,-0.6,0.7c-0.1,0.2,-0.3,0.5,-0.4,0.8c0.2,0,0.5,-0.1,0.7,-0.2c0.2,-0.1,0.4,-0.2,0.6,-0.3c0.2,-0.1,0.3,-0.3,0.4,-0.4c0.2,-0.2,0.3,-0.3,0.3,-0.5Zm2.8,2.7c0.1,0.1,0.1,0.2,0,0.3c0,0.2,-0.1,0.3,-0.3,0.3c-0.2,0.1,-0.5,0.2,-0.8,0.3c-0.3,0.1,-0.7,0.3,-1,0.4c-0.4,0.1,-0.8,0.2,-1.3,0.3c-0.4,0,-0.8,0,-1.2,-0.1c-0.5,0,-0.8,-0.2,-1,-0.4c-0.4,-0.4,-0.5,-1,-0.4,-1.7c0.1,-0.3,0.1,-0.7,0.3,-1c0.1,-0.2,0.2,-0.5,0.4,-0.8c0.1,-0.2,0.2,-0.4,0.4,-0.6c0.1,-0.2,0.3,-0.4,0.4,-0.5c0.1,-0.1,0.3,-0.2,0.4,-0.3c0.1,-0.1,0.2,-0.2,0.3,-0.2c0.1,-0.1,0.2,-0.1,0.4,-0.2c0.1,0,0.2,0,0.4,-0.1c0.1,0,0.3,0,0.4,0c0.1,0.1,0.2,0.1,0.4,0.2c0.1,0.1,0.2,0.2,0.3,0.3c0,0.1,0.1,0.3,0.1,0.4c0,0.1,0.1,0.3,0,0.5c0,0.1,0,0.3,0,0.4c-0.1,0.3,-0.3,0.6,-0.5,0.9c-0.2,0.2,-0.5,0.5,-0.8,0.7c-0.3,0.2,-0.6,0.3,-0.9,0.4c-0.4,0.2,-0.7,0.3,-1,0.3c0,0.2,0,0.4,0.1,0.5c0.1,0.1,0.3,0.2,0.5,0.3c0.3,0,0.6,0,1,0c0.3,-0.1,0.7,-0.2,1,-0.3c0.4,-0.1,0.7,-0.2,1,-0.3c0.4,-0.1,0.6,-0.2,0.8,-0.3c0.2,0,0.3,0,0.4,0c0.1,0.1,0.2,0.2,0.2,0.3Z" class="g6_26" />
<path d="M150.7,1030c0,0.1,0,0.2,-0.1,0.4c0,0.1,-0.1,0.2,-0.2,0.2c-0.3,0.1,-0.6,0.2,-1,0.3c-0.4,0,-0.8,0.1,-1.2,0.1c-0.5,0.1,-0.9,0.1,-1.3,0.1c-0.5,0,-0.8,0,-1.1,-0.1c-0.3,0,-0.5,-0.2,-0.6,-0.5c-0.1,-0.1,-0.1,-0.2,-0.1,-0.4c0.1,-0.1,0.2,-0.3,0.3,-0.4c0.1,-0.2,0.3,-0.4,0.5,-0.6c0.2,-0.2,0.4,-0.4,0.6,-0.6c0.2,-0.2,0.3,-0.3,0.5,-0.5c0.1,-0.1,0.3,-0.2,0.4,-0.3c0.2,-0.2,0.3,-0.3,0.2,-0.4c0,-0.1,-0.1,-0.2,-0.3,-0.2c-0.3,0,-0.6,0,-0.9,0c-0.3,0,-0.6,0,-0.7,0c-0.2,-0.1,-0.3,-0.1,-0.4,-0.2c-0.1,-0.1,-0.2,-0.2,-0.2,-0.4c0,-0.1,0.1,-0.3,0.3,-0.4c0.1,0,0.2,-0.1,0.3,-0.1c0.2,0,0.3,0.1,0.4,0.1c0.1,0,0.2,0,0.4,0c0.1,0.1,0.3,0.1,0.4,0.1c0.1,0,0.3,0,0.4,0c0.2,0,0.3,0,0.4,0c0.3,0,0.5,0,0.7,0.1c0.2,0.1,0.4,0.3,0.5,0.5c0,0.2,0,0.4,0,0.6c-0.1,0.2,-0.3,0.5,-0.6,0.7c-0.1,0.1,-0.2,0.2,-0.3,0.4c-0.2,0.1,-0.3,0.2,-0.5,0.4c-0.1,0.1,-0.3,0.3,-0.4,0.4c-0.2,0.2,-0.3,0.3,-0.5,0.5c0,0.1,0,0.1,0,0.2c0,0,0.1,0.1,0.2,0.1c0.2,0,0.4,0,0.7,0c0.2,0,0.5,0,0.9,-0.1c0.3,0,0.6,-0.1,0.9,-0.1c0.3,-0.1,0.6,-0.1,0.8,-0.2c0.1,0,0.3,0,0.4,0c0.1,0.1,0.2,0.2,0.2,0.3Z" class="g6_26" />
<path d="M87.5,1051.5l75,0" class="g7_26" />
<path d="M87.5,1066.5l75,0" class="g7_26" />
<path d="M90,1058l0.6,0c0.4,0,0.8,-0.5,0.8,-1.5c0,-1,-0.3,-1.5,-0.9,-1.5l-0.5,0Zm-1.3,-4.5l2.2,0c1.3,0,1.7,1.5,1.7,3c0,2,-0.8,2.9,-1.9,2.9l-0.7,0l0,4l-1.3,0Z" class="g8_26" />
<path d="M93.8,1059.7l1.2,0l-0.6,-4.5Zm-0.2,-6.2l1.6,0l1.6,9.9l-1.3,0l-0.3,-2.1l-1.6,0l-0.3,2.1l-1.3,0Z" class="g8_26" />
<path d="M98.1,1057.8l0.5,0c0.6,0,1,-0.4,1,-1.5c0,-0.9,-0.3,-1.3,-0.9,-1.3l-0.6,0Zm-1.2,-4.3l2.3,0c1,0,1.6,0.9,1.6,2.5c0,1.4,-0.3,2.3,-1,2.5c0.9,0.2,1,0.9,1,3c0,1.1,0,1.6,0.3,1.8l0,0.1l-1.4,0c-0.1,-0.3,-0.1,-0.7,-0.1,-1l-0.1,-1.9c0,-0.8,-0.2,-1.3,-0.7,-1.3l-0.7,0l0,4.2l-1.2,0Z" class="g8_26" />
<path d="M104,1053l0,2l-1,0l0,8l-1,0l0,-8l-2,0l0,-2Z" class="g8_26" />
<path d="M105.5,1063.5l0,-10" class="g7_26" />
<path d="M108.2,1061.9l0.5,0c0.9,0,1.1,-0.8,1.1,-3.5c0,-2.3,-0.1,-3.4,-1.1,-3.4l-0.5,0Zm-1.3,-8.4l2.1,0c1.7,0,2,1.9,2,4.8c0,3.5,-0.5,5.1,-2.1,5.1l-2,0Z" class="g8_26" />
<path d="M113.5,1062.1c0.7,0,0.8,-1,0.8,-3.7c0,-2.6,-0.1,-3.6,-0.8,-3.6c-0.8,0,-0.9,1,-0.9,3.6c0,2.7,0.1,3.7,0.9,3.7Zm0,-8.8c1.8,0,2.1,2.1,2.1,5.1c0,3.1,-0.3,5.2,-2.1,5.2c-1.9,0,-2.2,-2.1,-2.2,-5.2c0,-3,0.3,-5.1,2.2,-5.1Z" class="g8_26" />
<path d="M118.6,1053.5l0.9,7.3l0.9,-7.3l1.3,0l-1.4,9.9l-1.6,0l-1.5,-9.9Z" class="g8_26" />
<path d="M121.5,1063.5l0,-10" class="g7_26" />
<path d="M125.6,1062.1c0.8,0,0.9,-1,0.9,-3.7c0,-2.6,-0.1,-3.6,-0.9,-3.6c-0.7,0,-0.8,1,-0.8,3.6c0,2.7,0.1,3.7,0.8,3.7Zm0,-8.8c1.9,0,2.2,2.1,2.2,5.1c0,3.1,-0.3,5.2,-2.2,5.2c-1.8,0,-2.1,-2.1,-2.1,-5.2c0,-3,0.3,-5.1,2.1,-5.1Z" class="g8_26" />
<path d="M128,1063l0,-10l1,0l0,8l2,0l0,2Z" class="g8_26" />
<path d="M135,1053l0,2l-2,0l0,2l2,0l0,2l-2,0l0,2l2,0l0,2l-4,0l0,-10Z" class="g8_26" />
<path d="M139,1053l0,2l-2,0l0,8l-1,0l0,-8l-1,0l0,-2Z" class="g8_26" />
<path d="M140.3,1059.7l1.2,0l-0.6,-4.5Zm-0.2,-6.2l1.6,0l1.6,9.9l-1.3,0l-0.3,-2.1l-1.6,0l-0.3,2.1l-1.3,0Z" class="g8_26" />
<path d="M147,1063l13,0l0,-10l-13,0Zm13,0l-13,0l0,-10l13,0Z" class="g6_26" />
<path d="M149,1058l0,-4l0,3l2,0l0,1Z" class="g6_26" />
<path d="M151.5,1058.5l0,-4" class="g9_26" />
<path d="M152.9,1057l0,0.1c0,0.3,0.1,0.5,0.5,0.5c0.2,0,0.4,-0.1,0.4,-0.4c0,-0.3,-0.1,-0.5,-0.6,-0.6c-0.7,-0.2,-1,-0.5,-1,-1.1c0,-0.7,0.5,-1,1.1,-1c0.7,0,1.1,0.2,1.1,0.9l0,0.1l-0.6,0c0,-0.3,-0.2,-0.5,-0.4,-0.5c-0.4,0,-0.4,0.2,-0.4,0.4c0,0.2,0,0.4,0.3,0.5l0.6,0.2c0.5,0.3,0.7,0.5,0.7,1c0,0.7,-0.5,1.1,-1.3,1.1c-0.8,0,-1.1,-0.4,-1.1,-1.1l0,-0.1Z" class="g6_26" />
<path d="M156,1054l0,1l0,3l-1,0l0,-3l-1,0l0,-1Z" class="g6_26" />
<path d="M157.4,1056.7l0.7,0l-0.4,-1.6Zm-0.1,-2.2l0.9,0l0.9,3.6l-0.7,0l-0.2,-0.8l-0.9,0l-0.2,0.8l-0.7,0Z" class="g6_26" />
<path d="M149.8,1062.8l0,-2.5l-0.7,0l0,-0.4l0.1,0c0.5,0,0.8,-0.2,0.8,-0.6l0.6,0l0,3.5Z" class="g6_26" />
<path d="M152.4,1060.2l-0.7,1.3l0.7,0Zm-1.2,1.3l1.1,-2.2l0.8,0l0,2.2l0.3,0l0,0.6l-0.3,0l0,0.7l-0.7,0l0,-0.7l-1.2,0Z" class="g6_26" />
<path d="M155.4,1059.9l-1.3,0l-0.1,0.8c0.2,-0.2,0.4,-0.2,0.7,-0.2c0.7,0,0.8,0.5,0.8,1.1c0,0.8,-0.2,1.3,-1.1,1.3c-0.9,0,-1,-0.6,-1,-1l0,-0.1l0.7,0c0,0.2,0,0.6,0.3,0.6c0.3,0,0.4,-0.2,0.4,-0.7c0,-0.6,-0.1,-0.7,-0.4,-0.7c-0.2,0,-0.3,0.1,-0.3,0.3l-0.7,0l0.2,-1.9l1.8,0Z" class="g6_26" />
<path d="M156.3,1061.3c0,0.9,0,1.1,0.3,1.1c0.4,0,0.4,-0.3,0.4,-1.2l0,-0.3c0,-0.9,0,-1.1,-0.4,-1.1c-0.3,0,-0.3,0.2,-0.3,1.1Zm0.3,-2c0.9,0,1.1,0.5,1.1,1.7c0,1,0,1.9,-1.1,1.9c-0.8,0,-1.1,-0.5,-1.1,-1.7c0,-1,0.1,-1.9,1.1,-1.9Z" class="g6_26" />
<image x="440" y="994" width="77" height="55" xlink:href="shade/5.png" />
<image x="440" y="994" width="34" height="55" xlink:href="shade/6.png" />
<image x="440" y="1010" width="77" height="39" xlink:href="shade/7.png" />
<image x="482" y="994" width="34" height="55" xlink:href="shade/8.png" />
<path fill-rule="evenodd" d="M441.4,995.8l74.4,0L481.9,1018c-3.1,2.1,-3.6,2.7,-7,0.5Z" class="g3_26" />
<image x="441" y="995" width="34" height="54" xlink:href="img/69.png" />
<image x="441" y="995" width="32" height="54" xlink:href="img/70.png" />
<image x="441" y="1011" width="75" height="38" xlink:href="img/71.png" />
<image x="441" y="1012" width="75" height="37" xlink:href="img/72.png" />
<image x="482" y="995" width="34" height="54" xlink:href="img/73.png" />
<image x="483" y="995" width="33" height="54" xlink:href="img/74.png" />
<path fill-rule="evenodd" d="M441.4,995.8l74.4,0l-33.9,-22c-3.1,-2,-3.6,-2.7,-6.9,-0.5Z" class="g4_26" />
<path fill-rule="evenodd" d="M443.2,995.8l70.8,0L481.7,974.9c-2.9,-1.9,-3.4,-2.6,-6.5,-0.4Z" class="g3_26" />
<image x="715.5" y="972" width="3" height="1" xlink:href="img/75.png" transform="scale(0.666 , 1)" />
<image x="395.833" y="973" width="5" height="2" xlink:href="img/76.png" transform="scale(1.2 , 1)" />
<image x="474" y="648.666" width="8" height="2" xlink:href="img/77.png" transform="scale(1 , 1.5)" />
<image x="473" y="974" width="10" height="2" xlink:href="img/78.png" />
<image x="435.692" y="487" width="12" height="1" xlink:href="img/79.png" transform="scale(1.083 , 2)" />
<image x="440.624" y="487.5" width="14.999" height="1" xlink:href="img/80.png" transform="scale(1.066 , 2)" />
<image x="442.944" y="488" width="17" height="1" xlink:href="img/81.png" transform="scale(1.058 , 2)" />
<image x="445.714" y="651.333" width="20" height="2" xlink:href="img/82.png" transform="scale(1.05 , 1.5)" />
<image x="467" y="978" width="23" height="2" xlink:href="img/83.png" />
<image x="465" y="979" width="26" height="2" xlink:href="img/84.png" />
<image x="447.428" y="489.5" width="27" height="1" xlink:href="img/85.png" transform="scale(1.037 , 2)" />
<image x="447.566" y="490" width="29" height="1" xlink:href="img/86.png" transform="scale(1.034 , 2)" />
<image x="462" y="490.5" width="32" height="1" xlink:href="img/87.png" transform="scale(1 , 2)" />
<image x="461" y="982" width="35" height="2" xlink:href="img/88.png" />
<image x="460" y="983" width="37" height="2" xlink:href="img/89.png" />
<image x="459" y="491.5" width="39" height="1" xlink:href="img/90.png" transform="scale(1 , 2)" />
<image x="446.372" y="492" width="42" height="1" xlink:href="img/91.png" transform="scale(1.023 , 2)" />
<image x="445.866" y="492.5" width="44" height="1" xlink:href="img/92.png" transform="scale(1.022 , 2)" />
<image x="455" y="986" width="47" height="2" xlink:href="img/93.png" />
<image x="454" y="987" width="49" height="2" xlink:href="img/94.png" />
<image x="453" y="988" width="51" height="2" xlink:href="img/95.png" />
<image x="451" y="494" width="54" height="1" xlink:href="img/96.png" transform="scale(1 , 2)" />
<image x="442.105" y="494.5" width="55.999" height="1" xlink:href="img/97.png" transform="scale(1.017 , 2)" />
<image x="449" y="990" width="59" height="1" xlink:href="img/98.png" />
<image x="448" y="991" width="61" height="2" xlink:href="img/99.png" />
<image x="446" y="992" width="65" height="2" xlink:href="img/100.png" />
<image x="445" y="993" width="67" height="2" xlink:href="img/101.png" />
<image x="437.565" y="496.5" width="68" height="1" xlink:href="img/102.png" transform="scale(1.014 , 2)" />
<image x="443" y="994" width="71" height="1" xlink:href="img/103.png" />
<image x="441" y="995" width="75" height="2" xlink:href="img/104.png" />
<image x="442" y="996" width="73" height="2" xlink:href="img/105.png" />
<image x="443" y="997" width="70" height="2" xlink:href="img/106.png" />
<image x="445" y="498.5" width="67" height="1" xlink:href="img/107.png" transform="scale(1 , 2)" />
<image x="446" y="998" width="65" height="1" xlink:href="img/108.png" />
<image x="448" y="499" width="61" height="1" xlink:href="img/109.png" transform="scale(1 , 2)" />
<image x="449" y="1000" width="59" height="2" xlink:href="img/110.png" />
<image x="450" y="1001" width="57" height="2" xlink:href="img/111.png" />
<image x="452" y="1001" width="53" height="2" xlink:href="img/112.png" />
<image x="453" y="1002" width="51" height="1" xlink:href="img/113.png" />
<image x="454" y="501" width="48" height="1" xlink:href="img/114.png" transform="scale(1 , 2)" />
<image x="456" y="501.5" width="45" height="1" xlink:href="img/115.png" transform="scale(1 , 2)" />
<image x="457" y="1005" width="43" height="2" xlink:href="img/116.png" />
<image x="459" y="670" width="39" height="2" xlink:href="img/117.png" transform="scale(1 , 1.5)" />
<image x="460" y="1006" width="37" height="2" xlink:href="img/118.png" />
<image x="447.441" y="503" width="33" height="1" xlink:href="img/119.png" transform="scale(1.03 , 2)" />
<image x="463" y="503.5" width="31" height="1" xlink:href="img/120.png" transform="scale(1 , 2)" />
<image x="464" y="1009" width="28" height="2" xlink:href="img/121.png" />
<image x="465" y="672.666" width="26" height="2" xlink:href="img/122.png" transform="scale(1 , 1.5)" />
<image x="467" y="1010" width="23" height="2" xlink:href="img/123.png" />
<image x="468" y="505" width="20" height="1" xlink:href="img/124.png" transform="scale(1 , 2)" />
<image x="470" y="505.5" width="17" height="1" xlink:href="img/125.png" transform="scale(1 , 2)" />
<image x="471" y="506" width="14" height="1" xlink:href="img/126.png" transform="scale(1 , 2)" />
<image x="435.692" y="675.333" width="12" height="2" xlink:href="img/127.png" transform="scale(1.083 , 1.5)" />
<image x="472" y="1014" width="13" height="2" xlink:href="img/128.png" />
<image x="236" y="1015" width="1" height="1" xlink:href="img/129.png" transform="scale(2 , 1)" />
<path d="M496.6,1006.7l0,-31.2l-38,0l0,30.4l13.3,7.8c0.8,0.5,0.9,1.4,0.4,2.2c1.5,-1.5,1.9,-2.2,3,-3.1c0.8,-0.6,1.7,-0.6,3.2,-0.7c0.6,0,2.2,0.5,2.9,0.9c0.7,0.7,2.7,2.7,2.7,2.7c0,0,-1.2,-1.6,0.9,-2.5Z" class="g10_26" />
<path d="M460.5,980.5l33,0" class="g11_26" />
<path d="M460.5,988.5l34,0" class="g11_26" />
<path d="M486.5,984.5l0,-2" class="g11_26" />
<path d="M487.5,984.5l0,-2" class="g11_26" />
<path d="M488.9,983.9l0,0.1c0,0.2,0,0.3,0.2,0.3c0.1,0,0.3,-0.1,0.3,-0.3c0,-0.1,-0.1,-0.2,-0.4,-0.3c-0.3,-0.1,-0.5,-0.3,-0.5,-0.6c0,-0.4,0.2,-0.6,0.6,-0.6c0.4,0,0.6,0.2,0.6,0.6l-0.4,0c0,-0.2,0,-0.3,-0.2,-0.3c-0.2,0,-0.2,0.1,-0.2,0.3c0,0.1,0,0.2,0.2,0.2l0.3,0.2c0.3,0.1,0.4,0.2,0.4,0.5c0,0.4,-0.3,0.6,-0.7,0.6c-0.5,0,-0.6,-0.2,-0.6,-0.6l0,-0.1Z" class="g12_26" />
<path d="M489.5,984.5l0,-2" class="g11_26" />
<path d="M491.5,983.8l0.4,0l-0.2,-0.9Zm0,-1.2l0.5,0l0.5,1.9l-0.4,0L492,984.1l-0.6,0l0,0.4l-0.5,0Z" class="g12_26" />
<path d="M487.6,986.7l0,-1.3l-0.4,0l0,-0.3c0.3,0,0.4,-0.1,0.5,-0.3l0.2,0l0,1.9Z" class="g12_26" />
<path d="M488.9,985.8c0.2,0,0.2,-0.1,0.2,-0.4c0,-0.2,0,-0.3,-0.2,-0.3c-0.2,0,-0.2,0.1,-0.2,0.3c0,0.3,0.1,0.4,0.2,0.4Zm-0.2,0.5c0,0.1,0.1,0.2,0.2,0.2c0.2,0,0.3,-0.2,0.3,-0.5l0,-0.1l-0.1,0c0,0.1,-0.1,0.2,-0.3,0.2c-0.4,0,-0.5,-0.3,-0.5,-0.6c0,-0.5,0.2,-0.7,0.6,-0.7c0.6,0,0.6,0.4,0.6,0.9c0,0.6,0,1.1,-0.6,1.1c-0.3,0,-0.5,-0.1,-0.5,-0.5Z" class="g12_26" />
<path d="M489.9,985.9c0,0.5,0.1,0.6,0.2,0.6c0.2,0,0.3,-0.1,0.3,-0.6l0,-0.2c0,-0.5,-0.1,-0.6,-0.3,-0.6c-0.1,0,-0.2,0.1,-0.2,0.6Zm0.2,-1.1c0.5,0,0.7,0.2,0.7,0.9c0,0.6,-0.1,1.1,-0.7,1.1c-0.4,0,-0.6,-0.3,-0.6,-1c0,-0.5,0.1,-1,0.6,-1Z" class="g12_26" />
<path d="M491.1,985.9c0,0.5,0.1,0.6,0.3,0.6c0.1,0,0.2,-0.1,0.2,-0.6l0,-0.2c0,-0.5,-0.1,-0.6,-0.2,-0.6c-0.2,0,-0.3,0.1,-0.3,0.6Zm0.3,-1.1c0.4,0,0.6,0.2,0.6,0.9c0,0.6,-0.1,1.1,-0.6,1.1c-0.5,0,-0.7,-0.3,-0.7,-1c0,-0.5,0.1,-1,0.7,-1Z" class="g12_26" />
<path d="M485,987l8,0l0,-6l-8,0Zm8,0l-8,0l0,-6l8,0Z" class="g12_26" />
<path d="M496.5,1006.5l0,-30" class="g13_26" />
<path d="M461.7,983l0.1,0c0.2,0,0.2,0.2,0.2,0.6c0,0.6,-0.1,0.6,-0.2,0.6l-0.1,0Zm-0.7,4.5l0.7,0l0,-2.1l0.2,0c0.5,0,0.9,-0.5,0.9,-1.8c0,-1.2,-0.3,-1.8,-0.9,-1.8l-0.9,0Zm3,0l0.7,0l-0.6,-5.7l-0.9,0l-0.6,5.7l0.7,0l0.1,-0.8l0.5,0Zm-0.2,-2.1l-0.3,0l0.1,-2.3Zm1.8,-2.4c0.2,0,0.3,0.1,0.3,0.6c0,0.5,-0.1,0.6,-0.2,0.6l-0.1,0Zm-0.8,4.5l0.8,0l0,-2.2l0.1,0c0.1,0,0.2,0.1,0.2,0.6c0,0.3,0,0.5,0,0.8c0,0.3,0,0.7,0.1,0.8l0.7,0c0,-0.1,0,-0.1,0,-0.2c-0.1,-0.1,-0.1,-0.4,-0.1,-0.7l0,-0.4c0,-0.4,0,-0.8,0,-1c-0.1,-0.3,-0.2,-0.5,-0.4,-0.5c0.3,-0.1,0.5,-0.5,0.5,-1.4c0,-0.9,-0.3,-1.5,-0.8,-1.5l-1.1,0Zm1.9,-4.3l0.5,0l0,4.3l0.7,0l0,-4.3l0.5,0l0,-1.4l-1.7,0Zm1.8,4.3l0.8,0l0,-5.7l-0.8,0Zm1.8,-4.5l0.1,0c0.2,0,0.2,0.3,0.2,0.9l0,1.6c0,0.5,0,0.9,-0.2,0.9l-0.1,0Zm-0.8,4.5l1.1,0c0.7,0,0.8,-1.6,0.8,-2.8c0,-1.4,-0.1,-1.7,-0.2,-2.1c-0.1,-0.5,-0.3,-0.8,-0.6,-0.8l-1.1,0Zm3.2,-2.8c0,1.7,0,1.9,-0.2,1.9c-0.2,0,-0.2,-0.2,-0.2,-1.9c0,-1.7,0,-1.9,0.2,-1.9c0.2,0,0.2,0.2,0.2,1.9Zm-1.1,0c0,1.8,0,3,0.9,3c0.9,0,0.9,-1.2,0.9,-3c0,-1.8,0,-3,-0.9,-3c-0.9,0,-0.9,1.2,-0.9,3Zm3.7,1.5l-0.2,-4.4l-0.8,0l0.5,5.7l1,0l0.5,-5.7l-0.7,0Zm1.1,1.3l1.7,0l0,-1.3l-0.9,0l0,-0.9l0.8,0l0,-1.3l-0.8,0l0,-0.9l0.8,0l0,-1.3l-1.6,0ZM479,983l0.1,0c0.2,0,0.3,0.1,0.3,0.6c0,0.5,-0.2,0.6,-0.3,0.6l-0.1,0Zm-0.7,4.5l0.7,0l0,-2.2l0.1,0c0.2,0,0.3,0.1,0.3,0.6c0,0.3,0,0.5,0,0.8c0,0.3,0,0.7,0,0.8l0.8,0c0,-0.1,-0.1,-0.1,-0.1,-0.2c0,-0.1,0,-0.4,0,-0.7l0,-0.4c0,-0.4,0,-0.8,-0.1,-1c-0.1,-0.3,-0.2,-0.5,-0.3,-0.5c0.2,-0.1,0.4,-0.5,0.4,-1.4c0,-0.9,-0.2,-1.5,-0.7,-1.5l-1.1,0Zm2.8,-4.5l0.1,0c0.3,0,0.3,0.3,0.3,0.9l0,1.6c0,0.5,0,0.9,-0.2,0.9l-0.2,0Zm-0.7,4.5l1.1,0c0.7,0,0.7,-1.6,0.7,-2.8c0,-1.4,0,-1.7,-0.1,-2.1c-0.1,-0.5,-0.3,-0.8,-0.7,-0.8l-1,0Zm2.1,0l1.6,0l0,-1.3l-0.9,0l0,-0.9l0.8,0l0,-1.3l-0.8,0l0,-0.9l0.9,0l0,-1.3l-1.6,0Z" class="g12_26" />
<path d="M463.1,1008.5l0,-0.5l-0.8,0Zm-1.2,-0.7l0,-0.6l1.2,0l0,-1.1l-2.3,0l0,1.1Zm1.5,0.9l1.1,0.6l0,-3.2l-1.1,0Zm2.5,1.5l1.9,1.1c0.9,-0.3,0.9,-1.2,0.9,-2.6c0,-1.7,0,-2.7,-1.4,-2.7c-1.4,0,-1.4,1,-1.4,2.7c0,0.5,0,1.1,0,1.5Zm1.6,-1.5c0,1.5,0,1.7,-0.2,1.7c-0.3,0,-0.3,-0.2,-0.3,-1.7c0,-1.6,0,-1.8,0.3,-1.8c0.2,0,0.2,0.2,0.2,1.8Zm2.6,-1.6l0.1,0c0.3,0,0.4,0.1,0.4,0.5c0,0.5,-0.2,0.6,-0.4,0.6l-0.1,0Zm-1.1,4.1l1.1,0l0,-2l0.2,0c0.2,0,0.3,0.1,0.3,0.5c0,0.3,0,0.5,0,0.8c0,0.3,0,0.6,0.1,0.7l1.1,0c0,-0.1,0,-0.1,-0.1,-0.2c0,-0.1,0,-0.3,0,-0.6l0,-0.4c0,-0.3,0,-0.7,-0.1,-0.9c-0.1,-0.3,-0.3,-0.4,-0.5,-0.4c0.3,-0.1,0.6,-0.5,0.6,-1.3c0,-0.8,-0.3,-1.3,-1.1,-1.3l-1.6,0Zm3.1,0l2.4,0l0,-1.1l-1.3,0l0,-0.9l1.2,0l0,-1.2l-1.2,0l0,-0.8l1.3,0l0,-1.1l-2.4,0Zm4.3,-3.7l1,0c0,-0.8,-0.2,-1.5,-1.3,-1.5c-0.4,0,-0.7,0.1,-0.9,0.3c-0.2,0.2,-0.4,0.6,-0.4,1.3c0,0.8,0.2,1.1,0.8,1.5c0.2,0.1,0.4,0.2,0.5,0.3c0.2,0.1,0.3,0.2,0.3,0.5c0,0.3,-0.1,0.5,-0.3,0.5c-0.2,0,-0.3,-0.2,-0.3,-0.5l0,-0.2l-1,0l0,0.1c0,1.2,0.4,1.5,1.2,1.5c1.1,0,1.5,-0.4,1.5,-1.6c0,-1.9,-1.6,-1.4,-1.6,-2.4c0,-0.2,0,-0.4,0.2,-0.4c0.2,0,0.3,0.2,0.3,0.4Z" class="g12_26" />
<path d="M461.7,1000.7l0.2,0c0.3,0,0.3,0.2,0.3,0.7l0,1.3c0,0.4,0,0.7,-0.3,0.7l-0.2,0Zm-0.9,3.6l1.4,0c0.9,0,1,-1.3,1,-2.2c0,-1.1,-0.1,-1.4,-0.2,-1.7c-0.2,-0.4,-0.4,-0.6,-0.9,-0.6l-1.3,0Zm3.9,-1.1c0,0.2,0,0.4,-0.2,0.4c-0.2,0,-0.2,-0.2,-0.2,-0.4c0,-0.2,0,-0.3,0.2,-0.4c0.1,-0.1,0.1,-0.1,0.2,-0.1Zm0.8,-1.4c0,-0.5,-0.1,-1,-1,-1c-0.7,0,-1,0.4,-1,1.2l0.8,0c0,-0.2,0,-0.4,0.2,-0.4c0.1,0,0.2,0.1,0.2,0.2c0,0.3,-0.1,0.3,-0.3,0.4l-0.4,0.1c-0.3,0.1,-0.6,0.3,-0.6,1.1c0,0.7,0.2,1,0.7,1c0.3,0,0.5,-0.1,0.6,-0.4c0,0.1,0,0.2,0,0.3l0.9,0c0,-0.1,-0.1,-0.3,-0.1,-0.5Zm1.6,2.5l1,0l0,-2.6c0,-0.7,-0.3,-0.9,-0.7,-0.9c-0.3,0,-0.5,0.1,-0.7,0.5l0,-0.4l-0.9,0l0,3.4l1,0l0,-2.2c0,-0.2,0,-0.4,0.2,-0.4c0.1,0,0.1,0.1,0.1,0.4Zm1.2,0l1,0l0,-3.4l-1,0Zm0,-3.7l1,0l0,-0.9l-1,0Zm2.1,2.2l1.3,0c0,-1.1,0,-2,-1.1,-2c-1,0,-1.1,0.8,-1.1,1.8c0,1,0.1,1.8,1.1,1.8c0.3,0,0.6,-0.1,0.8,-0.3c0.2,-0.2,0.3,-0.5,0.3,-1l-0.9,0c0,0.4,0,0.6,-0.2,0.6c-0.2,0,-0.2,-0.3,-0.2,-0.4Zm0.4,-0.6l-0.4,0l0,-0.2c0,-0.4,0.1,-0.5,0.2,-0.5c0.2,0,0.2,0.1,0.2,0.5Zm1.1,2.1l0.9,0l0,-4.5l-0.9,0Zm3.9,0l1,0L476,999.8l-1.2,0l-0.8,4.5l1,0l0.1,-0.7l0.6,0Zm-0.2,-1.7l-0.4,0l0.2,-1.8Zm1.4,1.7l0.8,0l0,-1.3l-0.8,0Z" class="g12_26" />
<path d="M483.5,1006.7l0.2,-1.9l0.6,-1.4c0,0,2.4,-0.8,4.3,0l0.4,1.7l-0.9,3.4l-2.6,0Z" class="g14_26" />
<path d="M479.5,1011.3l8.9,0l4.9,-2.7l0,-2.4c0,0,-0.3,-1.5,-2.5,-1.4c0,0,-1.1,-1.5,-2.2,-1.4l-1.1,3.9l-0.9,-1.6l-1,1.6l-1.3,-3.9c0,0,-1.5,0,-2.3,1.3c0,0,-2.3,-0.2,-2.5,1.6Z" class="g15_26" />
<path d="M486.6,1005.7l-0.9,-0.9l0.9,-0.9l0.9,0.9Z" class="g15_26" />
<path d="M491.2,998.4c0,3,-2.1,5.5,-4.8,5.5c-2.6,0,-4.8,-2.5,-4.8,-5.5c0,-3.1,2.2,-5.6,4.8,-5.6c2.7,0,4.8,2.5,4.8,5.6Z" class="g16_26" />
<path d="M482.3,1000.2c0.2,0.7,0,1.3,-0.4,1.4c-0.3,0.1,-0.8,-0.3,-1,-1c-0.1,-0.7,0,-1.3,0.4,-1.4c0.4,-0.1,0.8,0.4,1,1Z" class="g16_26" />
<path d="M490.3,1000.2c-0.1,0.7,0,1.3,0.4,1.4c0.4,0.1,0.8,-0.3,1,-1c0.2,-0.7,0,-1.3,-0.3,-1.4c-0.4,-0.1,-0.9,0.4,-1.1,1Z" class="g16_26" />
<path d="M485.4,996.9c0,0.1,-0.1,0.2,-0.2,0.2l-1.2,0c-0.1,0,-0.2,-0.1,-0.2,-0.2c0,-0.1,0.1,-0.2,0.2,-0.2l1.2,0c0.1,0,0.2,0.1,0.2,0.2Z" class="g17_26" />
<path d="M488.7,996.9c0,0.1,0,0.2,-0.1,0.2l-1.3,0c-0.1,0,-0.2,-0.1,-0.2,-0.2c0,-0.1,0.1,-0.2,0.2,-0.2l1.3,0c0.1,0,0.1,0.1,0.1,0.2Z" class="g17_26" />
<path d="M490.1,994.8c-0.3,0.3,-0.5,0.6,-0.5,0.9l0.8,4.5c0,0,0.5,-0.5,0.7,-1c0.1,-0.4,0.1,-0.5,0.1,-0.9c0,-1.3,-0.4,-2.5,-1.1,-3.5Z" class="g17_26" />
<path d="M481.7,999.2l0.5,1l0.8,-4.5c0,-0.3,-0.2,-0.5,-0.4,-0.8c-0.6,1,-1,2.1,-1,3.4c0,0.4,0,0.5,0.1,0.9Z" class="g17_26" />
<path d="M485.3,1001.7c0,0,1.1,-0.3,2,0Z" class="g18_26" />
<path d="M487.2,999.7l-0.1,0l-0.8,-1.9l-0.8,1.9c0,0.1,-0.1,0.2,-0.1,0.4c0,0.5,0.4,0.9,0.9,0.9c0.5,0,0.9,-0.4,0.9,-0.9c0,-0.1,0,-0.3,0,-0.4Z" class="g18_26" />
<path d="M485.4,998.3c0,0.5,-0.3,0.9,-0.7,0.9c-0.4,0,-0.7,-0.4,-0.7,-0.9c0,-0.4,0.3,-0.8,0.7,-0.8c0.4,0,0.7,0.4,0.7,0.8Z" class="g5_26" />
<path d="M484.4,998.7c0,0.1,0.1,0.3,0.3,0.3c0.2,0,0.3,-0.2,0.3,-0.3c0,-0.2,-0.1,-0.4,-0.3,-0.4c-0.2,0,-0.3,0.2,-0.3,0.4Z" class="g19_26" />
<path d="M488.6,998.3c0,0.5,-0.3,0.9,-0.7,0.9c-0.4,0,-0.7,-0.4,-0.7,-0.9c0,-0.4,0.3,-0.8,0.7,-0.8c0.4,0,0.7,0.4,0.7,0.8Z" class="g5_26" />
<path d="M487.6,998.7c0,0.1,0.2,0.3,0.3,0.3c0.2,0,0.3,-0.2,0.3,-0.3c0,-0.2,-0.1,-0.4,-0.3,-0.4c-0.1,0,-0.3,0.2,-0.3,0.4Z" class="g19_26" />
<path d="M472.5,1014.4l0.5,0l0,0.1l-0.4,0l0,0.3c0,-0.2,0,-0.3,-0.1,-0.4Zm0.1,0.4l0.4,0l0,0.1l-0.4,0l0,-0.1Zm0,0.3l0,0.2l0.3,0c-0.1,0.1,-0.1,0.1,-0.2,0.2l-0.2,0c0.1,-0.2,0.1,-0.3,0.1,-0.4Z" class="g12_26" />
<path d="M473.6,1014.6c-0.1,-0.1,-0.1,-0.1,-0.2,-0.1c-0.1,0,-0.2,0,-0.2,0.1c0,0.1,0.1,0.2,0.1,0.2l0,0.1c-0.1,0,-0.2,-0.1,-0.2,-0.3c0,-0.1,0,-0.3,0.3,-0.3c0.1,0,0.2,0.1,0.2,0.2Z" class="g12_26" />
<path d="M482.9,1014.5l-0.1,-0.1c0.1,0,0.3,0,0.3,0.3Z" class="g12_26" />
<path d="M483.5,1014.1l0.2,0l-0.2,0.2l-0.1,0Zm-0.3,0.7l0.1,0.1l0,-0.5l-0.1,0Zm0.5,0.4l0,0.1c0.1,0,0.1,-0.1,0.1,-0.2l0,-0.2c0,-0.1,0,-0.2,0,-0.3l0,-0.2l-0.1,0l0,0.7c0,0.1,0,0.1,0,0.1Z" class="g12_26" />
<path d="M484,1015.5c-0.1,-0.1,-0.1,-0.1,-0.1,-0.1l0,0.1Z" class="g12_26" />
<path d="M460.5,979.5l0,-2" class="g11_26" />
<path d="M461.5,979.5l0,-2" class="g11_26" />
<path d="M462.5,979.5l0,-2" class="g11_26" />
<path d="M463.7,978.6c0,0.3,0,0.5,-0.2,0.5c-0.3,0,-0.3,-0.4,-0.3,-0.7c0,-0.4,0,-0.8,0.3,-0.8c0.2,0,0.2,0.2,0.2,0.5l-0.1,0c0,-0.2,0,-0.4,-0.1,-0.4c-0.2,0,-0.2,0.3,-0.2,0.7c0,0.3,0,0.6,0.2,0.6c0.1,0,0.1,-0.2,0.1,-0.4Z" class="g12_26" />
<path d="M464.6,978.6c0,0.3,-0.1,0.5,-0.2,0.5c-0.3,0,-0.3,-0.4,-0.3,-0.7c0,-0.4,0,-0.8,0.3,-0.8c0.1,0,0.2,0.2,0.2,0.5l-0.1,0c0,-0.2,0,-0.4,-0.1,-0.4c-0.2,0,-0.2,0.3,-0.2,0.7c0,0.3,0,0.6,0.2,0.6c0.1,0,0.1,-0.2,0.1,-0.4Z" class="g12_26" />
<path d="M464.5,979.5l0,-2" class="g11_26" />
<path d="M465.6,978.4c0,0.3,0,0.6,0.1,0.6c0.2,0,0.2,-0.3,0.2,-0.6c0,-0.4,0,-0.7,-0.2,-0.7c-0.1,0,-0.1,0.3,-0.1,0.7Zm0.4,0c0,0.3,0,0.7,-0.3,0.7c-0.2,0,-0.3,-0.4,-0.3,-0.7c0,-0.4,0.1,-0.8,0.3,-0.8c0.3,0,0.3,0.4,0.3,0.8Z" class="g12_26" />
<path d="M466.5,979.5l0,-2" class="g11_26" />
<path d="M467.5,979.5l0,-2" class="g11_26" />
<path d="M468.5,978c0,-0.2,-0.1,-0.3,-0.2,-0.3c-0.1,0,-0.1,0.1,-0.1,0.3c0,0.4,0.4,0.2,0.4,0.7c0,0.3,-0.1,0.4,-0.3,0.4c-0.2,0,-0.2,-0.1,-0.2,-0.5l0.1,0c0,0.2,0,0.4,0.1,0.4c0.1,0,0.2,-0.1,0.2,-0.3c0,-0.4,-0.4,-0.1,-0.4,-0.7c0,-0.1,0,-0.4,0.2,-0.4c0.2,0,0.3,0.1,0.3,0.4Z" class="g12_26" />
<path d="M469.9,978c0,-0.1,0,-0.3,-0.1,-0.3c-0.2,0,-0.2,0.3,-0.2,0.7c0,0.3,0,0.6,0.2,0.6c0.1,0,0.1,-0.3,0.1,-0.5l-0.2,0l0,-0.2l0.3,0l0,0.8l-0.1,0l0,-0.2c0,0.1,-0.1,0.2,-0.2,0.2c-0.2,0,-0.2,-0.3,-0.2,-0.7c0,-0.4,0,-0.8,0.3,-0.8c0.2,0,0.2,0.4,0.2,0.4Z" class="g12_26" />
<path d="M470.5,979.5l0,-2" class="g11_26" />
<path d="M471.5,979.5l0,-2" class="g11_26" />
<path d="M472.5,979.5l0,-2" class="g11_26" />
<path d="M473,978.3l0.1,0c0.1,0,0.2,0,0.2,-0.3c0,-0.1,-0.1,-0.2,-0.1,-0.2l-0.2,0Zm-0.1,-0.7l0.3,0c0.1,0,0.2,0.2,0.2,0.4c0,0.2,0,0.3,-0.1,0.4c0.1,0,0.1,0.1,0.1,0.2l0,0.3c0,0.1,0,0.2,0.1,0.2l-0.2,0c0,0,0,-0.1,0,-0.2l0,-0.2c0,-0.2,-0.1,-0.3,-0.1,-0.3l-0.2,0l0,0.7l-0.1,0Z" class="g12_26" />
<path d="M473.5,979.5l0,-2" class="g11_26" />
<path d="M474.5,979.5l0,-2" class="g11_26" />
<path d="M475.5,979.5l0,-2" class="g11_26" />
<path d="M476.6,978c0,-0.2,0,-0.3,-0.1,-0.3c-0.1,0,-0.2,0.1,-0.2,0.3c0,0.4,0.4,0.2,0.4,0.7c0,0.3,-0.1,0.4,-0.2,0.4c-0.2,0,-0.3,-0.1,-0.3,-0.5l0.1,0c0,0.2,0,0.4,0.2,0.4c0.1,0,0.1,-0.1,0.1,-0.3c0,-0.4,-0.4,-0.1,-0.4,-0.7c0,-0.1,0,-0.4,0.3,-0.4c0.1,0,0.2,0.1,0.2,0.4Z" class="g12_26" />
<path d="M478.1,979.1l-0.5,0c0,-0.3,0.1,-0.4,0.2,-0.6l0.1,-0.1c0,-0.1,0.1,-0.2,0.1,-0.4c0,-0.1,-0.1,-0.2,-0.2,-0.2c-0.1,0,-0.1,0.2,-0.1,0.3l-0.1,0c0,-0.3,0.1,-0.5,0.2,-0.5c0.2,0,0.3,0.3,0.3,0.4c0,0.3,-0.1,0.4,-0.2,0.5l-0.1,0.2c0,0.1,-0.1,0.2,-0.1,0.3l0.4,0Z" class="g12_26" />
<path d="M478.5,977.7l0.4,0l0,0.1l-0.3,0l-0.1,0.5c0.1,-0.1,0.1,-0.2,0.2,-0.2c0.1,0,0.2,0.2,0.2,0.5c0,0.3,-0.1,0.5,-0.2,0.5c-0.2,0,-0.3,-0.2,-0.3,-0.4l0.1,0c0,0.1,0,0.3,0.2,0.3c0.1,0,0.1,-0.2,0.1,-0.4c0,-0.1,0,-0.3,-0.1,-0.3c-0.1,0,-0.2,0.1,-0.2,0.1l-0.1,0Z" class="g12_26" />
<path d="M479.9,979l0.1,0c0.2,0,0.2,-0.4,0.2,-0.6c0,-0.3,0,-0.6,-0.2,-0.6l-0.1,0Zm-0.1,-1.4l0.3,0c0.2,0,0.3,0.4,0.3,0.8c0,0.3,-0.1,0.7,-0.3,0.7l-0.3,0Z" class="g12_26" />
<path d="M480.5,979.5l0,-2" class="g11_26" />
<path d="M482.2,978.4c0,0.3,0,0.6,0.1,0.6c0.2,0,0.2,-0.3,0.2,-0.6c0,-0.4,0,-0.7,-0.2,-0.7c-0.1,0,-0.1,0.3,-0.1,0.7Zm0.4,0c0,0.3,0,0.7,-0.3,0.7c-0.2,0,-0.2,-0.4,-0.2,-0.7c0,-0.4,0,-0.8,0.2,-0.8c0.3,0,0.3,0.4,0.3,0.8Z" class="g12_26" />
<path d="M483.5,978.6c0,0.3,-0.1,0.5,-0.2,0.5c-0.3,0,-0.3,-0.4,-0.3,-0.7c0,-0.4,0,-0.8,0.3,-0.8c0.1,0,0.2,0.2,0.2,0.5l-0.1,0c0,-0.2,0,-0.4,-0.1,-0.4c-0.2,0,-0.2,0.3,-0.2,0.7c0,0.3,0,0.6,0.2,0.6c0.1,0,0.1,-0.2,0.1,-0.4Z" class="g12_26" />
<path d="M483.5,979.5l0,-2" class="g11_26" />
<path d="M484.7,977.6l0.1,0l0,1.1c0,0.2,0,0.3,0.1,0.3c0.1,0,0.2,-0.1,0.2,-0.3l0,-1.1l0.1,0l0,1.1c0,0.3,-0.1,0.4,-0.3,0.4c-0.2,0,-0.2,-0.1,-0.2,-0.4Z" class="g12_26" />
<path d="M485.7,979l0.1,0c0.1,0,0.2,-0.2,0.2,-0.3c0,-0.2,-0.1,-0.3,-0.2,-0.3l-0.1,0Zm0,-0.7l0.1,0c0,0,0.1,-0.1,0.1,-0.3c0,-0.1,0,-0.2,-0.1,-0.2l-0.1,0Zm-0.2,-0.7l0.3,0c0.1,0,0.2,0.1,0.2,0.4c0,0.1,0,0.3,-0.1,0.3c0.1,0.1,0.2,0.2,0.2,0.4c0,0.3,-0.1,0.4,-0.3,0.4l-0.3,0Z" class="g12_26" />
<path d="M486.5,978.3l0.1,0c0.1,0,0.2,0,0.2,-0.3c0,-0.1,0,-0.2,-0.1,-0.2l-0.2,0Zm-0.1,-0.7l0.3,0c0.1,0,0.2,0.2,0.2,0.4c0,0.2,0,0.3,-0.1,0.4c0.1,0,0.1,0.1,0.1,0.2l0,0.3c0,0.1,0,0.2,0.1,0.2l-0.2,0c0,0,0,-0.1,0,-0.2l0,-0.2c0,-0.2,-0.1,-0.3,-0.1,-0.3l-0.2,0l0,0.7l-0.1,0Z" class="g12_26" />
<path d="M487.5,979.5l0,-2" class="g11_26" />
<path d="M488.8,979l0.1,0c0.1,0,0.2,-0.4,0.2,-0.6c0,-0.3,0,-0.6,-0.2,-0.6l-0.1,0Zm-0.2,-1.4l0.3,0c0.2,0,0.3,0.4,0.3,0.8c0,0.3,-0.1,0.7,-0.3,0.7l-0.3,0Z" class="g12_26" />
<path d="M489.5,979.5l0,-2" class="g11_26" />
<path d="M491.4,979.1l-0.5,0c0,-0.3,0.1,-0.4,0.2,-0.6l0,-0.1c0.1,-0.1,0.1,-0.2,0.1,-0.4c0,-0.1,0,-0.2,-0.1,-0.2c-0.1,0,-0.1,0.2,-0.1,0.3l-0.1,0c0,-0.3,0,-0.5,0.2,-0.5c0.2,0,0.3,0.3,0.3,0.4c0,0.3,-0.1,0.4,-0.2,0.5l-0.1,0.2c-0.1,0.1,-0.1,0.2,-0.1,0.3l0.4,0Z" class="g12_26" />
<path d="M491.9,979c0.2,0,0.2,-0.3,0.2,-0.6c0,-0.3,0,-0.6,-0.2,-0.6c-0.1,0,-0.1,0.3,-0.1,0.6c0,0.3,0,0.6,0.1,0.6Zm-0.2,-0.6c0,-0.3,0,-0.8,0.2,-0.8c0.3,0,0.3,0.4,0.3,0.8c0,0.3,0,0.7,-0.3,0.7c-0.2,0,-0.2,-0.4,-0.2,-0.7Z" class="g12_26" />
<path d="M492.6,977.9c0.1,0,0.2,-0.1,0.2,-0.3l0,1.5l-0.1,0l0,-1.1l-0.1,0Z" class="g12_26" />
<path d="M493.4,977.7l0.4,0l0,0.1l-0.3,0l0,0.5c0,-0.1,0.1,-0.2,0.1,-0.2c0.2,0,0.2,0.2,0.2,0.5c0,0.3,0,0.5,-0.2,0.5c-0.2,0,-0.2,-0.2,-0.2,-0.4l0.1,0c0,0.1,0,0.3,0.1,0.3c0.1,0,0.1,-0.2,0.1,-0.4c0,-0.1,0,-0.3,-0.1,-0.3c-0.1,0,-0.1,0.1,-0.1,0.1l-0.1,0Z" class="g12_26" />
<image x="468" y="1002" width="20" height="15" xlink:href="img/130.png" />
<path d="M339,124l-351,0l0,68l316,0Z" class="g20_26" />
<path d="M107.1,1262.4l3,-2.8l-3,-2.6c-0.3,-0.3,-0.4,-0.8,-0.2,-1.2c0.2,-0.4,0.7,-0.5,1,-0.2l3.8,3.3c0.2,0.2,0.3,0.4,0.3,0.7c0,0.3,-0.1,0.5,-0.3,0.7l-3.7,3.4c-0.3,0.3,-0.8,0.2,-1,-0.2c-0.2,-0.3,-0.2,-0.9,0.1,-1.1Z" class="g21_26" />
<path d="M83.5,1269.5l13,0" class="g22_26" />
<path d="M714.3,51.7l-336.8,0l-35.6,67.2l372.4,0Z" class="g5_26" />
<path d="M472.7,990.9l0.1,0l0,-0.4l0.2,0c0.2,0,0.3,-0.1,0.3,-0.3c0,-0.3,-0.2,-0.3,-0.3,-0.3l-0.3,0Zm0.1,-0.9l0.2,0c0.1,0,0.2,0.1,0.2,0.2c0,0.1,-0.1,0.2,-0.2,0.2l-0.2,0Zm0.6,0.9l0.1,0l0,-0.4l0.1,0c0.1,0,0.2,0,0.2,0.1l0,0.2c0,0,0,0.1,0,0.1l0.2,0c-0.1,0,-0.1,0,-0.1,-0.1l0,-0.2c0,-0.1,0,-0.2,-0.1,-0.2c0.1,0,0.1,-0.1,0.1,-0.2c0,-0.2,-0.1,-0.3,-0.2,-0.3l-0.3,0Zm0.1,-0.9l0.1,0c0.1,0,0.2,0.1,0.2,0.2c0,0.2,-0.1,0.2,-0.2,0.2l-0.1,0Zm0.5,0.9l0.6,0l0,-0.1l-0.4,0l0,-0.3l0.3,0l0,-0.1l-0.3,0l0,-0.4l0.4,0l0,-0.1l-0.6,0Zm1.1,-0.3c0,0.1,0,0.2,-0.1,0.2c-0.2,0,-0.2,-0.1,-0.2,-0.4c0,-0.2,0,-0.4,0.2,-0.4c0.1,0,0.1,0.1,0.1,0.2l0.1,0c0,-0.2,0,-0.3,-0.2,-0.3c-0.3,0,-0.4,0.3,-0.4,0.5c0,0.3,0.1,0.5,0.4,0.5c0.2,0,0.2,-0.1,0.3,-0.3Zm0.2,0.3l0.1,0l0,-0.3l0.4,0l0,0.3l0.2,0l-0.3,-1l-0.2,0Zm0.3,-0.8l0.1,0.5l-0.2,0Zm0.4,0.8l0.1,0l0,-0.8l0.3,0.8l0.2,0l0,-1l-0.1,0l0,0.9l-0.3,-0.9l-0.2,0Zm0.9,-0.9l0.1,0c0.2,0,0.2,0.2,0.2,0.4c0,0.2,0,0.4,-0.2,0.4l-0.1,0Zm-0.1,0.9l0.2,0c0.3,0,0.4,-0.2,0.4,-0.5c0,-0.2,-0.1,-0.5,-0.4,-0.5l-0.2,0Zm0.7,0l0.1,0l0,-1l-0.1,0Zm0.4,-0.9l0.1,0c0.2,0,0.2,0.2,0.2,0.4c0,0.2,0,0.4,-0.2,0.4l-0.1,0Zm-0.2,0.9l0.3,0c0.3,0,0.3,-0.2,0.3,-0.5c0,-0.2,0,-0.5,-0.3,-0.5l-0.3,0Z" class="g23_26" />
<path d="M478.5,990.5l0,-1" class="g24_26" />
<path d="M479.3,990l0.3,0l0,-0.1l-0.6,0l0,0.1l0.2,0l0,0.9l0.1,0Zm0.7,-0.1c-0.3,0,-0.3,0.3,-0.3,0.5c0,0.3,0,0.5,0.3,0.5c0.3,0,0.3,-0.2,0.3,-0.5c0,-0.2,0,-0.5,-0.3,-0.5Zm0,0.1c0.2,0,0.2,0.2,0.2,0.4c0,0.3,0,0.4,-0.2,0.4c-0.2,0,-0.2,-0.1,-0.2,-0.4c0,-0.2,0,-0.4,0.2,-0.4Zm0.7,0.9l0.1,0l0.1,-0.3l0.3,0l0.1,0.3l0.1,0l-0.3,-1l-0.1,0Zm0.3,-0.8l0.2,0.5l-0.3,0Z" class="g23_26" />
<image x="206" y="688" width="108" height="97" xlink:href="img/131.png" />
<image x="533" y="422" width="255" height="88" xlink:href="img/132.png" />
<image x="529" y="515" width="262" height="110" xlink:href="img/133.png" />
<image x="467" y="687" width="288" height="97" xlink:href="img/134.png" />
<image x="81" y="1090" width="288" height="97" xlink:href="img/135.png" />
</svg>