<?xml version="1.0" encoding="UTF-8" standalone="no"?>
<!DOCTYPE svg PUBLIC "-//W3C//DTD SVG 1.1//EN"
"http://www.w3.org/Graphics/SVG/1.1/DTD/svg11.dtd">
<svg version="1.1" xmlns="http://www.w3.org/2000/svg" xmlns:xlink="http://www.w3.org/1999/xlink">
<defs>
<style type="text/css"><![CDATA[
.g10_16{
fill: none;
stroke: #2AABE1;
stroke-width: 3;
stroke-linecap: butt;
stroke-linejoin: miter;
stroke-miterlimit: 22;
}
.g3_16{
fill: #FFFFFF;
}
.g2_16{
fill: #2AABE1;
}
.g1_16{
fill: #373433;
}
.g5_16{
fill: #211D1D;
}
.g4_16{
fill: #44479C;
}
.g7_16{
fill: none;
stroke: #EE1F24;
stroke-width: 1;
stroke-linecap: butt;
stroke-linejoin: miter;
stroke-miterlimit: 22;
}
.g9_16{
fill: #4D4A4B;
}
.g8_16{
fill: none;
stroke: #EE1F24;
stroke-width: 2;
stroke-linecap: butt;
stroke-linejoin: miter;
stroke-miterlimit: 22;
}
.g6_16{
fill: #EE1F24;
}
]]></style>
</defs>
<path d="M84.3,174.6l6,-5.5l-6.1,-5.3c-0.6,-0.6,-0.7,-1.6,-0.3,-2.4c0.4,-0.8,1.3,-0.9,1.9,-0.4l7.7,6.7c0.3,0.3,0.5,0.8,0.6,1.4c0,0.5,-0.2,1,-0.6,1.3L86,177.3c-0.6,0.6,-1.5,0.4,-1.9,-0.3c-0.5,-0.8,-0.4,-1.8,0.2,-2.4Z" class="g1_16" />
<image x="457" y="206" width="390" height="229" xlink:href="img/1.png" />
<image x="319" y="665" width="108" height="165" xlink:href="img/2.png" />
<path d="M85.6,614.4l6,-5.5l-6.1,-5.4c-0.6,-0.5,-0.7,-1.6,-0.3,-2.3c0.4,-0.8,1.3,-0.9,1.9,-0.4l7.7,6.7c0.3,0.3,0.5,0.8,0.6,1.4c0,0.5,-0.2,1,-0.6,1.3l-7.5,6.9c-0.6,0.6,-1.5,0.4,-1.9,-0.4C84.9,616,85,614.9,85.6,614.4Z" class="g1_16" />
<image x="98" y="679" width="105" height="132" xlink:href="img/3.png" />
<image x="215" y="681" width="89" height="125" xlink:href="img/4.png" />
<image x="552" y="702" width="120" height="78" xlink:href="img/5.png" />
<image x="685" y="705" width="120" height="73" xlink:href="img/6.png" />
<image x="440" y="680" width="97" height="136" xlink:href="img/7.png" />
<path d="M118.1,823.3c-1.8,0,-3.2,-1.4,-3.2,-3.1c0,-1.8,1.4,-3.2,3.2,-3.2c1.7,0,3.2,1.4,3.2,3.2c0,1.7,-1.5,3.1,-3.2,3.1Z" class="g2_16" />
<path d="M231.4,823.3c-1.7,0,-3.1,-1.4,-3.1,-3.1c0,-1.8,1.4,-3.2,3.1,-3.2c1.8,0,3.2,1.4,3.2,3.2c0,1.7,-1.4,3.1,-3.2,3.1Z" class="g2_16" />
<path d="M354.3,823.3c-1.7,0,-3.2,-1.4,-3.2,-3.1c0,-1.8,1.5,-3.2,3.2,-3.2c1.8,0,3.2,1.4,3.2,3.2c0,1.7,-1.4,3.1,-3.2,3.1Z" class="g2_16" />
<path d="M473.8,823.3c-1.7,0,-3.2,-1.4,-3.2,-3.1c0,-1.8,1.5,-3.2,3.2,-3.2c1.8,0,3.2,1.4,3.2,3.2c0,1.7,-1.4,3.1,-3.2,3.1Z" class="g2_16" />
<path d="M576.2,802c-1.7,0,-3.2,-1.5,-3.2,-3.2c0,-1.8,1.5,-3.2,3.2,-3.2c1.8,0,3.2,1.4,3.2,3.2c0,1.7,-1.4,3.2,-3.2,3.2Z" class="g2_16" />
<path d="M699.5,802c-1.7,0,-3.2,-1.5,-3.2,-3.2c0,-1.8,1.5,-3.2,3.2,-3.2c1.8,0,3.2,1.4,3.2,3.2c0,1.7,-1.4,3.2,-3.2,3.2Z" class="g2_16" />
<path d="M88,1097l0,32l27,0Z" class="g3_16" />
<path d="M824.9,1150.5c0,9.2,-7.4,16.7,-16.6,16.7l-692.5,0c-9.2,0,-16.6,-7.5,-16.6,-16.7l0,-113.6c0,-9.2,7.4,-16.6,16.6,-16.6l692.5,0c9.2,0,16.6,7.4,16.6,16.6Z" class="g4_16" />
<image x="457" y="441" width="390" height="219" xlink:href="img/8.png" />
<path d="M85,502l0,23l18,0Z" class="g3_16" />
<path d="M118.3,473c-9.2,0,-16.6,7.4,-16.6,16.7c0,5.3,2.4,10,6.3,13.1c2.9,1.9,-1.6,7.3,-1.6,7.3c0,0,7.5,0.1,11.9,-3.8c9.3,0,16.7,-7.4,16.7,-16.6C135,480.4,127.6,473,118.3,473Z" class="g3_16" />
<path d="M112.8,490.5c0,1.4,-1.1,2.5,-2.5,2.5c-1.3,0,-2.4,-1.1,-2.4,-2.5c0,-1.3,1.1,-2.4,2.4,-2.4c1.4,0,2.5,1.1,2.5,2.4Z" class="g5_16" />
<path d="M120.8,490.5c0,1.4,-1.1,2.5,-2.5,2.5c-1.3,0,-2.4,-1.1,-2.4,-2.5c0,-1.3,1.1,-2.4,2.4,-2.4c1.4,0,2.5,1.1,2.5,2.4Z" class="g5_16" />
<path d="M128.8,490.5c0,1.4,-1.1,2.5,-2.4,2.5c-1.4,0,-2.5,-1.1,-2.5,-2.5c0,-1.3,1.1,-2.4,2.5,-2.4c1.3,0,2.4,1.1,2.4,2.4Z" class="g5_16" />
<path d="M410.5,545.8c0,9.2,-5.8,16.6,-12.9,16.6l-304.2,0c-7.1,0,-12.9,-7.4,-12.9,-16.6l0,-66.1c0,-9.2,5.8,-16.6,12.9,-16.6l304.2,0c7.1,0,12.9,7.4,12.9,16.6Z" class="g4_16" />
<path d="M113.3,482.8c-9.2,0,-16.7,7.5,-16.7,16.7c0,5.3,2.5,10.1,6.4,13.1c2.9,1.9,-1.7,7.3,-1.7,7.3c0,0,7.6,0.2,12,-3.7c9.2,0,16.7,-7.5,16.7,-16.7c0,-9.2,-7.5,-16.7,-16.7,-16.7Z" class="g3_16" />
<path d="M107.7,500.4c0,1.3,-1.1,2.4,-2.4,2.4c-1.4,0,-2.5,-1.1,-2.5,-2.4c0,-1.4,1.1,-2.5,2.5,-2.5c1.3,0,2.4,1.1,2.4,2.5Z" class="g5_16" />
<path d="M115.8,500.4c0,1.3,-1.1,2.4,-2.5,2.4c-1.3,0,-2.4,-1.1,-2.4,-2.4c0,-1.4,1.1,-2.5,2.4,-2.5c1.4,0,2.5,1.1,2.5,2.5Z" class="g5_16" />
<path d="M123.8,500.4c0,1.3,-1.1,2.4,-2.5,2.4c-1.3,0,-2.4,-1.1,-2.4,-2.4c0,-1.4,1.1,-2.5,2.4,-2.5c1.4,0,2.5,1.1,2.5,2.5Z" class="g5_16" />
<path fill-rule="evenodd" d="M558,581l186,0l0,-61l-186,0l0,61Z" class="g6_16" />
<path d="M558.5,581.5l186,0l0,-61l-186,0l0,61Z" class="g7_16" />
<path d="M458.1,442.3L558.5,521" class="g8_16" />
<path d="M743.2,521.5L844.9,441.8" class="g8_16" />
<path d="M843.6,658.7L743.6,581" class="g8_16" />
<path d="M459,658.7l99.5,-77.5" class="g8_16" />
<path d="M135.1,1058.8c-12.1,0,-21.9,9.8,-21.9,21.8c0,7,3.3,13.2,8.4,17.2c3.7,2.5,-2.2,9.6,-2.2,9.6c0,0,9.9,0.2,15.7,-4.9c12.1,0,21.9,-9.8,21.9,-21.9c0,-12,-9.8,-21.8,-21.9,-21.8Z" class="g3_16" />
<path d="M127.8,1081.8c0,1.7,-1.5,3.2,-3.2,3.2c-1.8,0,-3.2,-1.5,-3.2,-3.2c0,-1.8,1.4,-3.2,3.2,-3.2c1.7,0,3.2,1.4,3.2,3.2Z" class="g5_16" />
<path d="M138.3,1081.8c0,1.7,-1.4,3.2,-3.2,3.2c-1.8,0,-3.2,-1.5,-3.2,-3.2c0,-1.8,1.4,-3.2,3.2,-3.2c1.8,0,3.2,1.4,3.2,3.2Z" class="g5_16" />
<path d="M148.8,1081.8c0,1.7,-1.4,3.2,-3.2,3.2c-1.7,0,-3.2,-1.5,-3.2,-3.2c0,-1.8,1.5,-3.2,3.2,-3.2c1.8,0,3.2,1.4,3.2,3.2Z" class="g5_16" />
<path d="M107.1,1262.4l3,-2.8l-3,-2.6c-0.3,-0.3,-0.4,-0.8,-0.2,-1.2c0.2,-0.4,0.7,-0.5,1,-0.2l3.8,3.3c0.2,0.2,0.3,0.4,0.3,0.7c0,0.3,-0.1,0.5,-0.3,0.7l-3.7,3.4c-0.3,0.3,-0.8,0.2,-1,-0.2c-0.2,-0.3,-0.2,-0.9,0.1,-1.1Z" class="g9_16" />
<path d="M83.5,1269.5l13,0" class="g10_16" />
<path d="M922,-15.7l0,49.4l-537.1,0l-39.5,78.5l-358.6,0l0,-127.9Z" class="g4_16" />
</svg>