<?xml version="1.0" encoding="UTF-8" standalone="no"?>
<!DOCTYPE svg PUBLIC "-//W3C//DTD SVG 1.1//EN"
"http://www.w3.org/Graphics/SVG/1.1/DTD/svg11.dtd">
<svg version="1.1" xmlns="http://www.w3.org/2000/svg" xmlns:xlink="http://www.w3.org/1999/xlink">
<defs>
<style type="text/css"><![CDATA[
.g11_42{
fill: #353128;
}
.g3_42{
fill: #2AABE1;
}
.g10_42{
fill: #183340;
}
.g9_42{
fill: #EEEAED;
}
.g2_42{
fill: #373433;
}
.g1_42{
fill: #EE1F24;
}
.g5_42{
fill: #211D1D;
}
.g4_42{
fill: #FFFFFF;
}
.g13_42{
fill: none;
stroke: #2AABE1;
stroke-width: 3;
stroke-linecap: butt;
stroke-linejoin: miter;
stroke-miterlimit: 22;
}
.g7_42{
fill: #C8A45A;
}
.g12_42{
fill: #0D3E68;
}
.g8_42{
fill: #9A7231;
}
.g6_42{
fill: #4D4A4B;
}
]]></style>
</defs>
<path d="M922,-15.7l0,49.4l-537.1,0l-39.5,78.5l-358.6,0l0,-127.9Z" class="g1_42" />
<path d="M84.8,174.6l6,-5.5l-6.1,-5.3c-0.6,-0.6,-0.8,-1.6,-0.3,-2.4c0.4,-0.8,1.3,-0.9,1.9,-0.4l7.6,6.7c0.4,0.3,0.6,0.8,0.6,1.4c0,0.5,-0.2,1,-0.5,1.3l-7.5,6.9c-0.6,0.6,-1.5,0.4,-2,-0.3c-0.4,-0.8,-0.3,-1.8,0.3,-2.4Z" class="g2_42" />
<path d="M86,869.5c-1.8,0,-3.2,-1.4,-3.2,-3.2c0,-1.7,1.4,-3.1,3.2,-3.1c1.8,0,3.2,1.4,3.2,3.1c0,1.8,-1.4,3.2,-3.2,3.2Z" class="g3_42" />
<path d="M353.4,869.5c-1.8,0,-3.2,-1.4,-3.2,-3.2c0,-1.7,1.4,-3.1,3.2,-3.1c1.7,0,3.2,1.4,3.2,3.1c0,1.8,-1.5,3.2,-3.2,3.2Z" class="g3_42" />
<path d="M606.8,869.5c-1.8,0,-3.2,-1.4,-3.2,-3.2c0,-1.7,1.4,-3.1,3.2,-3.1c1.8,0,3.2,1.4,3.2,3.1c0,1.8,-1.4,3.2,-3.2,3.2Z" class="g3_42" />
<path d="M808,1215.5c0,9.2,-7.4,16.6,-16.6,16.6l-692.4,0c-9.2,0,-16.6,-7.4,-16.6,-16.6l0,-203.2c0,-9.2,7.4,-16.6,16.6,-16.6l692.4,0c9.2,0,16.6,7.4,16.6,16.6Z" class="g1_42" />
<path d="M549,558l7,0l0,-105l-7,0l0,105Z" class="g1_42" />
<path d="M117,1011.7c-13.1,0,-23.7,10.6,-23.7,23.7c0,7.6,3.6,14.3,9.1,18.6c4,2.7,-2.4,10.4,-2.4,10.4c0,0,10.8,0.2,17,-5.3c13.1,0,23.7,-10.6,23.7,-23.7c0,-13.1,-10.6,-23.7,-23.7,-23.7Z" class="g4_42" />
<path d="M109.1,1036.6c0,1.9,-1.6,3.5,-3.5,3.5c-1.9,0,-3.5,-1.6,-3.5,-3.5c0,-1.9,1.6,-3.5,3.5,-3.5c1.9,0,3.5,1.6,3.5,3.5Z" class="g5_42" />
<path d="M120.5,1036.6c0,1.9,-1.6,3.5,-3.5,3.5c-1.9,0,-3.4,-1.6,-3.4,-3.5c0,-1.9,1.5,-3.5,3.4,-3.5c1.9,0,3.5,1.6,3.5,3.5Z" class="g5_42" />
<path d="M131.9,1036.6c0,1.9,-1.5,3.5,-3.5,3.5c-1.9,0,-3.4,-1.6,-3.4,-3.5c0,-1.9,1.5,-3.5,3.4,-3.5c2,0,3.5,1.6,3.5,3.5Z" class="g5_42" />
<path d="M554,341l290,0l0,-108l-290,0l0,108Z" class="g6_42" />
<path fill-rule="evenodd" d="M590.6,228.2c1.2,0.9,1,0,2,0.8c-0.2,1.2,-1,1,-4.1,1.6l-13.2,2.7c-0.9,0.1,-0.3,0,-0.8,0c-0.1,0,-0.2,0,-0.2,-0.1c-0.1,-0.1,-0.2,0,-0.3,-0.1c-0.2,-1.2,0.1,-0.6,1.3,-1.2c-0.2,-1,-0.6,-2.1,-0.9,-3.1c-1,-3.2,-0.3,-2.6,-1.7,-2.5l-1.4,0.6l0,65.9l24.2,10.9l-0.2,-83.3l-1,0.2l-5.4,1.4c0.4,2.1,1.7,4.1,1.7,6.2Z" class="g7_42" />
<path fill-rule="evenodd" d="M595.5,303.7l5,-2.1l0,-24.3l16.3,-3.6l0.1,21.3c1.6,-0.6,3.6,-1.5,5.3,-2.1l0,-65.9c-1.4,-0.9,-3.8,-1.1,-5.3,-1.5l0,19.6l-16.2,-0.9c-0.4,-2.9,0,-15.3,-0.1,-20.2c0,-2.7,-0.2,-2.3,0.6,-2.3c-1.3,-0.5,-5.9,-1.9,-6.9,-1.1l1,-0.2Z" class="g8_42" />
<path fill-rule="evenodd" d="M600.5,301.6L616.9,295l-0.1,-21.3l-16.3,3.6Z" class="g9_42" />
<path fill-rule="evenodd" d="M616.9,225.5l-15.7,-3.8c-0.8,0,-0.6,-0.4,-0.6,2.3c0.1,4.9,-0.3,17.3,0.1,20.2l16.2,0.9Z" class="g9_42" />
<path fill-rule="evenodd" d="M588.1,221l2.3,7.3l0.2,-0.1c0,-2.1,-1.3,-4.1,-1.7,-6.2l5.4,-1.4c1,-0.8,5.6,0.6,6.9,1.1l15.7,3.8c1.5,0.4,3.9,0.6,5.3,1.5l0,65.9c-1.7,0.6,-3.7,1.5,-5.3,2.1l-16.4,6.6l-5,2.1L571.3,292.8l0,-65.9l1.4,-0.6l0.1,-0.5l-1.7,0.3c-0.9,0.5,-0.5,14.5,-0.5,16.2c0,7.3,-0.3,49.9,0.2,50.9c0.7,1,0,0.3,1.3,0.9l17.6,7.9c2,0.9,4.7,2.8,6.9,2.1l26.3,-10.7l0.1,-67l-9.7,-2.6C610.7,223.2,598.3,220,597,220c-2.4,-0.3,-2.3,-0.2,-4.5,0.3c-1.3,0.4,-3.1,1.3,-4.4,0.7Z" class="g10_42" />
<path fill-rule="evenodd" d="M573.7,225l2.5,7.4c1.5,0,9.8,-1.6,10.7,-2.2c-1.4,-0.6,-2.7,-1.3,-4.1,-2l-3.6,-2c0,-0.1,-0.1,-0.1,-0.2,-0.2l5.9,-11.5l-13.1,4.3Z" class="g4_42" />
<path fill-rule="evenodd" d="M590.4,228.3L588.1,221l-2,-6.2c-0.8,0.7,-5.7,9.9,-6.3,11.2c5.3,2.6,7.1,4.5,10.9,3.6Z" class="g9_42" />
<path fill-rule="evenodd" d="M573.7,225c-0.4,0.9,0.2,0.4,-0.9,0.8l-0.1,0.5c1.4,-0.1,0.7,-0.7,1.7,2.5c0.3,1,0.7,2.1,0.9,3.1c-1.2,0.6,-1.5,0,-1.3,1.2c0.1,0.1,0.2,0,0.3,0.1c0,0.1,0.1,0.1,0.2,0.1c0.5,0,-0.1,0.1,0.8,0l13.2,-2.7c3.1,-0.6,3.9,-0.4,4.1,-1.6c-1,-0.8,-0.8,0.1,-2,-0.8l-0.2,0.1l0.3,1.3c-3.8,0.9,-5.6,-1,-10.9,-3.6c0.6,-1.3,5.5,-10.5,6.3,-11.2l-0.3,-0.7l-0.9,0.4L579,226c0.1,0.1,0.2,0.1,0.2,0.2l3.6,2c1.4,0.7,2.7,1.4,4.1,2c-0.9,0.6,-9.2,2.2,-10.7,2.2Z" class="g11_42" />
<path fill-rule="evenodd" d="M571.1,226.1l1.7,-0.3c1.1,-0.4,0.5,0.1,0.9,-0.8l-1.9,-6.2l13.1,-4.3l0.9,-0.4l0.3,0.7l2,6.2c1.3,0.6,3.1,-0.3,4.4,-0.7c2.2,-0.5,2.1,-0.6,4.5,-0.3c-0.8,-1.9,-6.6,0.8,-8.2,0.8c-0.4,-1.4,-1.9,-6.3,-2.5,-7.2c-2.1,0,-12.6,3.6,-15.2,4.5c-0.2,2.7,1.8,4.7,1.5,7.4c-1,0.1,-1,0.2,-1.5,0.6Z" class="g12_42" />
<path d="M846,318l0,23l-24,0Z" class="g4_42" />
<image x="82" y="670" width="254" height="182" xlink:href="img/1.png" />
<image x="348" y="670" width="244" height="182" xlink:href="img/2.png" />
<image x="602" y="670" width="238" height="182" xlink:href="img/3.png" />
<path d="M107.1,1262.4l3,-2.8l-3,-2.6c-0.3,-0.3,-0.4,-0.8,-0.2,-1.2c0.2,-0.4,0.7,-0.5,1,-0.2l3.8,3.3c0.2,0.2,0.3,0.4,0.3,0.7c0,0.3,-0.1,0.5,-0.3,0.7l-3.7,3.4c-0.3,0.3,-0.8,0.2,-1,-0.2c-0.2,-0.3,-0.2,-0.9,0.1,-1.1Z" class="g6_42" />
<path d="M83.5,1269.5l13,0" class="g13_42" />
</svg>