<?xml version="1.0" encoding="UTF-8" standalone="no"?>
<!DOCTYPE svg PUBLIC "-//W3C//DTD SVG 1.1//EN"
"http://www.w3.org/Graphics/SVG/1.1/DTD/svg11.dtd">
<svg version="1.1" xmlns="http://www.w3.org/2000/svg" xmlns:xlink="http://www.w3.org/1999/xlink">
<defs>
<style type="text/css"><![CDATA[
.g4_18{
fill: none;
stroke: #4D4A4B;
stroke-width: 3;
stroke-linecap: butt;
stroke-linejoin: miter;
stroke-miterlimit: 22;
}
.g3_18{
fill: #4D4A4B;
}
.g2_18{
fill: #373433;
}
.g1_18{
fill: #44479C;
}
.g6_18{
fill: #2F368F;
}
.g5_18{
fill: none;
stroke: #211D1D;
stroke-width: 1;
stroke-linecap: butt;
stroke-linejoin: miter;
stroke-miterlimit: 4;
}
.g8_18{
fill: none;
stroke: #2AABE1;
stroke-width: 3;
stroke-linecap: butt;
stroke-linejoin: miter;
stroke-miterlimit: 22;
}
.g7_18{
fill: #FFFFFF;
}
]]></style>
</defs>
<path d="M922,-15.7l0,49.4l-537.1,0l-39.5,78.5l-358.6,0l0,-127.9Z" class="g1_18" />
<path d="M84.2,184.8l6,-5.5L84.1,174c-0.6,-0.6,-0.8,-1.6,-0.4,-2.4c0.5,-0.8,1.3,-0.9,2,-0.4l7.6,6.7c0.4,0.3,0.6,0.8,0.6,1.4c0,0.5,-0.2,1,-0.6,1.3l-7.5,6.9c-0.6,0.6,-1.4,0.4,-1.9,-0.3c-0.4,-0.8,-0.3,-1.8,0.3,-2.4Z" class="g2_18" />
<path fill-rule="evenodd" d="M398,263l15,0l0,-23l-15,0l0,23Z" class="g3_18" />
<path d="M398.5,263.5l15,0l0,-23l-15,0l0,23Z" class="g4_18" />
<path fill-rule="evenodd" d="M398,403l15,0l0,-23l-15,0l0,23Z" class="g3_18" />
<path d="M398.5,403.5l15,0l0,-23l-15,0l0,23Z" class="g4_18" />
<path fill-rule="evenodd" d="M398,492l15,0l0,-23l-15,0l0,23Z" class="g3_18" />
<path d="M398.5,492.5l15,0l0,-23l-15,0l0,23Z" class="g4_18" />
<path fill-rule="evenodd" d="M398,550l15,0l0,-23l-15,0l0,23Z" class="g3_18" />
<path d="M398.5,550.5l15,0l0,-23l-15,0l0,23Z" class="g4_18" />
<path fill-rule="evenodd" d="M398,342l15,0l0,-23l-15,0l0,23Z" class="g3_18" />
<path d="M398.5,342.5l15,0l0,-23l-15,0l0,23Z" class="g4_18" />
<path fill-rule="evenodd" d="M83,687l15,0l0,-23l-15,0l0,23Z" class="g3_18" />
<path d="M83.5,687.5l15,0l0,-23l-15,0l0,23Z" class="g4_18" />
<image x="83" y="451" width="303" height="198" xlink:href="img/1.png" />
<image x="83" y="238" width="302" height="205" xlink:href="img/2.png" />
<path d="M84.2,745.7l6,-5.5l-6.1,-5.4c-0.6,-0.5,-0.8,-1.6,-0.4,-2.3c0.5,-0.8,1.3,-1,2,-0.4l7.6,6.7c0.4,0.3,0.6,0.8,0.6,1.3c0,0.6,-0.2,1.1,-0.6,1.4l-7.5,6.9c-0.6,0.5,-1.4,0.4,-1.9,-0.4c-0.4,-0.7,-0.3,-1.8,0.3,-2.3Z" class="g2_18" />
<path d="M84.5,868.5l275,0l0,-23l-275,0l0,23Z" class="g4_18" />
<path fill-rule="evenodd" d="M84,912l15,0l0,-23l-15,0l0,23Z" class="g3_18" />
<path d="M84.5,912.5l15,0l0,-23l-15,0l0,23Z" class="g4_18" />
<path fill-rule="evenodd" d="M84,973l15,0l0,-23l-15,0l0,23Z" class="g3_18" />
<path d="M84.5,973.5l15,0l0,-23l-15,0l0,23Z" class="g4_18" />
<path fill-rule="evenodd" d="M86,1047l15,0l0,-23l-15,0l0,23Z" class="g3_18" />
<path d="M86.5,1047.5l15,0l0,-23l-15,0l0,23Z" class="g4_18" />
<path fill-rule="evenodd" d="M86,1126l15,0l0,-23l-15,0l0,23Z" class="g3_18" />
<path d="M86.5,1126.5l15,0l0,-23l-15,0l0,23Z" class="g4_18" />
<path fill-rule="evenodd" d="M86,1189l15,0l0,-23l-15,0l0,23Z" class="g3_18" />
<path d="M86.5,1189.5l15,0l0,-23l-15,0l0,23Z" class="g4_18" />
<image x="677" y="941" width="105" height="127" xlink:href="img/3.png" />
<path d="M729.6,942.1l52,49.9l0,75.6l-103.9,0l0,-74.2Z" class="g5_18" />
<image x="545" y="955" width="143" height="105" xlink:href="img/4.png" />
<path d="M545.5,1059.5l142,0l0,-104l-142,0l0,104Z" class="g5_18" />
<image x="633" y="947" width="70" height="52" xlink:href="img/5.png" />
<path d="M633.5,998.5l68,0l0,-50l-68,0l0,50Z" class="g5_18" />
<image x="747" y="942" width="64" height="50" xlink:href="img/6.png" />
<image x="747" y="942" width="65" height="51" xlink:href="img/7.png" />
<path d="M747.5,991.5l63,0l0,-48l-63,0l0,48Z" class="g5_18" />
<path d="M556.8,971c2.2,0,3.9,-1.8,3.9,-4c0,-2.1,-1.7,-3.9,-3.9,-3.9c-2.2,0,-4,1.8,-4,3.9c0,2.2,1.8,4,4,4Z" class="g6_18" />
<path d="M556.4,966.2l0,2.8c0,0.2,0,0.6,0.4,0.7c0.1,0.1,0.2,0.1,0.3,0.1c0.2,0,0.4,-0.1,0.6,-0.3c0.1,-0.1,0.1,-0.3,0.1,-0.5l0,-4.1c0,-0.1,0,-0.2,-0.1,-0.4c-0.2,-0.3,-0.4,-0.3,-0.6,-0.3c-0.3,0,-0.5,0.2,-0.6,0.3c0,0.1,0,0.1,-0.1,0.2c-0.1,0.3,-0.3,0.4,-0.7,0.4c-0.3,0.1,-0.4,0.1,-0.6,0.3c0,0.1,0,0.2,0,0.3c0,0.1,0,0.3,0.1,0.4c0.2,0.1,0.4,0.1,0.6,0.1Z" class="g7_18" />
<path d="M640.3,959.2c2.2,0,4,-1.8,4,-3.9c0,-2.2,-1.8,-4,-4,-4c-2.1,0,-3.9,1.8,-3.9,4c0,2.1,1.8,3.9,3.9,3.9Z" class="g6_18" />
<path d="M641.6,958c0.2,0,0.3,-0.1,0.5,-0.2c0,0,0.2,-0.2,0.2,-0.4c0,-0.2,-0.1,-0.4,-0.3,-0.5c-0.2,-0.1,-0.3,-0.1,-0.4,-0.1l-1.4,0c0.2,-0.1,0.4,-0.3,0.5,-0.4c0.8,-0.6,1.5,-1.4,1.5,-2.3c0,-0.8,-0.6,-1.7,-1.9,-1.7c-1.4,0,-2,1.1,-2,1.6c0,0.6,0.4,0.7,0.6,0.7c0.3,0,0.5,-0.1,0.6,-0.3c0,-0.1,0.1,-0.2,0.1,-0.3c0.1,-0.2,0.2,-0.5,0.6,-0.5c0.3,0,0.6,0.2,0.6,0.6c0,0.4,-0.3,0.8,-0.8,1.3c-0.4,0.3,-0.8,0.6,-1.2,0.9c-0.3,0.3,-0.5,0.5,-0.5,0.9c0,0.1,0,0.5,0.4,0.6c0.1,0,0.3,0.1,0.4,0.1Z" class="g7_18" />
<path d="M728.5,990.2c2.1,0,3.9,-1.8,3.9,-3.9c0,-2.2,-1.8,-4,-3.9,-4c-2.2,0,-4,1.8,-4,4c0,2.1,1.8,3.9,4,3.9Z" class="g6_18" />
<path d="M728.3,983.4c-1.3,0,-1.8,0.8,-1.8,1.3c0,0.4,0.3,0.6,0.6,0.6c0.1,0,0.3,0,0.5,-0.3c0,-0.1,0.1,-0.2,0.1,-0.2c0.1,-0.2,0.3,-0.2,0.5,-0.2c0.4,0,0.6,0.2,0.6,0.5c0,0.5,-0.3,0.5,-0.6,0.6c-0.2,0,-0.3,0,-0.4,0.1c-0.1,0.1,-0.1,0.3,-0.1,0.4c0,0.1,0,0.4,0.4,0.5c0.1,0,0.2,0,0.3,0c0.3,0,0.4,0.2,0.5,0.4c0.1,0.1,0.1,0.2,0.1,0.2c0,0.2,-0.1,0.4,-0.3,0.5c-0.2,0.1,-0.4,0.1,-0.5,0.1c-0.3,0,-0.4,-0.1,-0.6,-0.2c0,-0.1,-0.1,-0.2,-0.1,-0.2c-0.2,-0.3,-0.4,-0.3,-0.5,-0.3c-0.3,0,-0.6,0.2,-0.6,0.6c0,0.4,0.3,0.8,0.6,0.9c0.1,0.1,0.5,0.3,1.3,0.3c1,0,2.1,-0.5,2.1,-1.6c0,-0.8,-0.5,-1,-0.6,-1.1c-0.1,-0.1,-0.3,-0.2,-0.5,-0.3c0,0,0.1,0,0.1,0c0.1,0,0.8,-0.3,0.8,-1.1c0,-0.4,-0.2,-0.8,-0.4,-1c-0.3,-0.3,-0.7,-0.5,-1.5,-0.5Z" class="g7_18" />
<path d="M754.2,953.9c2.1,0,3.9,-1.7,3.9,-3.9c0,-2.2,-1.8,-3.9,-3.9,-3.9c-2.2,0,-4,1.7,-4,3.9c0,2.2,1.8,3.9,4,3.9Z" class="g6_18" />
<path d="M755.4,952.7c0.2,0,0.3,0,0.5,-0.2c0.1,0,0.2,-0.2,0.2,-0.4c0,-0.2,-0.1,-0.4,-0.3,-0.5c-0.2,-0.1,-0.3,-0.1,-0.4,-0.1l-1.4,0c0.2,-0.1,0.4,-0.2,0.5,-0.4c0.8,-0.6,1.5,-1.3,1.5,-2.2c0,-0.9,-0.6,-1.8,-1.9,-1.8c-1.4,0,-1.9,1.1,-1.9,1.7c0,0.5,0.3,0.6,0.6,0.6c0.2,0,0.4,-0.1,0.5,-0.3c0.1,-0.1,0.1,-0.1,0.1,-0.2c0.1,-0.3,0.2,-0.6,0.6,-0.6c0.4,0,0.6,0.3,0.6,0.6c0,0.4,-0.3,0.8,-0.8,1.3c-0.4,0.4,-0.8,0.7,-1.2,1c-0.3,0.3,-0.5,0.4,-0.5,0.8c0,0.1,0,0.5,0.4,0.6c0.1,0.1,0.3,0.1,0.4,0.1Z" class="g7_18" />
<path d="M695.8,1018.9c2.2,0,4,-1.7,4,-3.9c0,-2.2,-1.8,-4,-4,-4c-2.2,0,-3.9,1.8,-3.9,4c0,2.2,1.7,3.9,3.9,3.9Z" class="g6_18" />
<path d="M697.1,1017.7c0.2,0,0.3,0,0.5,-0.2c0,0,0.2,-0.2,0.2,-0.4c0,-0.2,-0.2,-0.4,-0.4,-0.5c-0.1,-0.1,-0.2,-0.1,-0.4,-0.1l-1.3,0c0.2,-0.1,0.3,-0.2,0.5,-0.4c0.8,-0.6,1.5,-1.3,1.5,-2.3c0,-0.8,-0.6,-1.7,-2,-1.7c-1.4,0,-1.9,1.1,-1.9,1.7c0,0.5,0.4,0.6,0.6,0.6c0.3,0,0.5,-0.1,0.6,-0.3c0,-0.1,0.1,-0.2,0.1,-0.3c0.1,-0.2,0.2,-0.5,0.6,-0.5c0.3,0,0.6,0.2,0.6,0.6c0,0.4,-0.3,0.8,-0.9,1.3c-0.3,0.3,-0.7,0.6,-1.1,1c-0.4,0.3,-0.6,0.4,-0.6,0.8c0,0.1,0.1,0.5,0.5,0.6c0.1,0.1,0.2,0.1,0.4,0.1Z" class="g7_18" />
<path d="M560.2,1025.3c2.2,0,4,-1.7,4,-3.9c0,-2.2,-1.8,-3.9,-4,-3.9c-2.1,0,-3.9,1.7,-3.9,3.9c0,2.2,1.8,3.9,3.9,3.9Z" class="g6_18" />
<path d="M561.5,1024.1c0.2,0,0.3,0,0.5,-0.2c0,0,0.2,-0.2,0.2,-0.4c0,-0.2,-0.1,-0.4,-0.3,-0.5c-0.2,-0.1,-0.3,-0.1,-0.4,-0.1l-1.4,0c0.2,-0.1,0.4,-0.2,0.5,-0.4c0.8,-0.6,1.5,-1.3,1.5,-2.2c0,-0.9,-0.6,-1.8,-1.9,-1.8c-1.4,0,-2,1.1,-2,1.7c0,0.5,0.4,0.6,0.6,0.6c0.3,0,0.5,-0.1,0.6,-0.3c0,-0.1,0.1,-0.2,0.1,-0.2c0.1,-0.3,0.2,-0.6,0.6,-0.6c0.3,0,0.6,0.3,0.6,0.6c0,0.4,-0.3,0.8,-0.8,1.3c-0.4,0.4,-0.8,0.7,-1.2,1c-0.3,0.3,-0.5,0.4,-0.5,0.8c0,0.1,0,0.5,0.4,0.6c0.1,0.1,0.3,0.1,0.4,0.1Z" class="g7_18" />
<path d="M107.1,1262.4l3,-2.8l-3,-2.6c-0.3,-0.3,-0.4,-0.8,-0.2,-1.2c0.2,-0.4,0.7,-0.5,1,-0.2l3.8,3.3c0.2,0.2,0.3,0.4,0.3,0.7c0,0.3,-0.1,0.5,-0.3,0.7l-3.7,3.4c-0.3,0.3,-0.8,0.2,-1,-0.2c-0.2,-0.3,-0.2,-0.9,0.1,-1.1Z" class="g3_18" />
<path d="M83.5,1269.5l13,0" class="g8_18" />
</svg>