<?xml version="1.0" encoding="UTF-8" standalone="no"?>
<!DOCTYPE svg PUBLIC "-//W3C//DTD SVG 1.1//EN"
"http://www.w3.org/Graphics/SVG/1.1/DTD/svg11.dtd">
<svg version="1.1" xmlns="http://www.w3.org/2000/svg" xmlns:xlink="http://www.w3.org/1999/xlink">
<defs>
<style type="text/css"><![CDATA[
.g4_13{
fill: none;
stroke: #2AABE1;
stroke-width: 3;
stroke-linecap: butt;
stroke-linejoin: miter;
stroke-miterlimit: 22;
}
.g3_13{
fill: #4D4A4B;
}
.g2_13{
fill: #373433;
}
.g1_13{
fill: #2AABE1;
}
]]></style>
</defs>
<path d="M-13.2,-15.7l0,49.4l537,0l39.5,78.5l358.7,0l0,-127.9Z" class="g1_13" />
<path d="M84.3,174.6l6,-5.5l-6.1,-5.3c-0.6,-0.6,-0.7,-1.6,-0.3,-2.4c0.4,-0.8,1.3,-0.9,1.9,-0.4l7.7,6.7c0.3,0.3,0.5,0.8,0.5,1.4c0.1,0.5,-0.2,1,-0.5,1.3L86,177.3c-0.6,0.6,-1.5,0.4,-1.9,-0.3c-0.5,-0.8,-0.4,-1.8,0.2,-2.4Z" class="g2_13" />
<path d="M84.3,598.1l6,-5.5l-6.1,-5.3c-0.6,-0.6,-0.7,-1.6,-0.3,-2.4c0.4,-0.7,1.3,-0.9,1.9,-0.4l7.7,6.7c0.3,0.3,0.5,0.8,0.5,1.4c0.1,0.5,-0.2,1,-0.5,1.4L86,600.8c-0.6,0.6,-1.5,0.4,-1.9,-0.3c-0.5,-0.8,-0.4,-1.8,0.2,-2.4Z" class="g2_13" />
<path d="M86.2,530.2C84.4,530.2,83,528.8,83,527c0,-1.7,1.4,-3.2,3.2,-3.2c1.7,0,3.2,1.5,3.2,3.2c0,1.8,-1.5,3.2,-3.2,3.2Z" class="g1_13" />
<path d="M580.5,345.8c-1.8,0,-3.2,-1.4,-3.2,-3.1c0,-1.8,1.4,-3.2,3.2,-3.2c1.7,0,3.1,1.4,3.1,3.2c0,1.7,-1.4,3.1,-3.1,3.1Z" class="g1_13" />
<path d="M579.7,530.5c-1.8,0,-3.2,-1.4,-3.2,-3.2c0,-1.7,1.4,-3.2,3.2,-3.2c1.7,0,3.1,1.5,3.1,3.2c0,1.8,-1.4,3.2,-3.1,3.2Z" class="g1_13" />
<image x="82" y="205" width="484" height="305" xlink:href="img/1.png" />
<image x="497" y="960" width="350" height="176" xlink:href="img/2.png" />
<image x="496" y="635" width="351" height="318" xlink:href="img/3.png" />
<image x="576" y="205" width="271" height="128" xlink:href="img/4.png" />
<image x="576" y="356" width="271" height="154" xlink:href="img/5.png" />
<path d="M817.7,1262.4l3,-2.8l-3,-2.6c-0.3,-0.3,-0.4,-0.8,-0.2,-1.2c0.2,-0.4,0.7,-0.5,1,-0.2l3.8,3.3c0.2,0.2,0.3,0.4,0.3,0.7c0,0.3,-0.1,0.5,-0.3,0.7l-3.7,3.4c-0.3,0.3,-0.8,0.2,-1,-0.2c-0.2,-0.3,-0.2,-0.9,0.1,-1.1Z" class="g3_13" />
<path d="M833.5,1269.5l13,0" class="g4_13" />
</svg>