<?xml version="1.0" encoding="UTF-8" standalone="no"?>
<!DOCTYPE svg PUBLIC "-//W3C//DTD SVG 1.1//EN"
"http://www.w3.org/Graphics/SVG/1.1/DTD/svg11.dtd">
<svg version="1.1" xmlns="http://www.w3.org/2000/svg" xmlns:xlink="http://www.w3.org/1999/xlink">
<defs>
<style type="text/css"><![CDATA[
.g16_15{
fill: #72CFF5;
}
.g12_15{
fill: #0A71B9;
}
.g28_15{
fill: none;
stroke: #72CFF5;
stroke-width: 4;
stroke-linecap: butt;
stroke-linejoin: miter;
stroke-miterlimit: 4;
}
.g11_15{
fill: none;
stroke: #2F368F;
stroke-width: 3;
stroke-linecap: butt;
stroke-linejoin: miter;
stroke-miterlimit: 22;
}
.g22_15{
fill: none;
stroke: #0A71B9;
stroke-width: 4;
stroke-linecap: butt;
stroke-linejoin: miter;
stroke-miterlimit: 4;
}
.g27_15{
fill: none;
stroke: #11AB9E;
stroke-width: 4;
stroke-linecap: butt;
stroke-linejoin: miter;
stroke-miterlimit: 4;
}
.g14_15{
fill: #2AABE1;
}
.g21_15{
fill: none;
stroke: #11AB9E;
stroke-width: 3;
stroke-linecap: butt;
stroke-linejoin: miter;
stroke-miterlimit: 22;
}
.g2_15{
fill: #373433;
}
.g31_15{
fill: #4D4A4B;
}
.g29_15{
fill: none;
stroke: #211D1D;
stroke-width: 1;
stroke-linecap: butt;
stroke-linejoin: miter;
stroke-miterlimit: 22;
}
.g7_15{
fill: #FCE576;
}
.g17_15{
fill: none;
stroke: #72CFF5;
stroke-width: 3;
stroke-linecap: butt;
stroke-linejoin: miter;
stroke-miterlimit: 22;
}
.g6_15{
fill: #F05972;
}
.g13_15{
fill: none;
stroke: #0A71B9;
stroke-width: 3;
stroke-linecap: butt;
stroke-linejoin: miter;
stroke-miterlimit: 22;
}
.g10_15{
fill: #2F368F;
}
.g23_15{
fill: none;
stroke: #2F368F;
stroke-width: 4;
stroke-linecap: butt;
stroke-linejoin: miter;
stroke-miterlimit: 4;
}
.g1_15{
fill: #44479C;
}
.g20_15{
fill: #11AB9E;
}
.g25_15{
fill: none;
stroke: #2AABE1;
stroke-width: 4;
stroke-linecap: butt;
stroke-linejoin: miter;
stroke-miterlimit: 4;
}
.g9_15{
fill: none;
stroke: #1D1A54;
stroke-width: 3;
stroke-linecap: butt;
stroke-linejoin: miter;
stroke-miterlimit: 22;
}
.g5_15{
fill: #0D696E;
}
.g4_15{
fill: #FFFFFF;
}
.g26_15{
fill: none;
stroke: #0D655E;
stroke-width: 4;
stroke-linecap: butt;
stroke-linejoin: miter;
stroke-miterlimit: 4;
}
.g8_15{
fill: #1D1A54;
}
.g3_15{
fill: #2E80BE;
}
.g30_15{
fill: none;
stroke: #2AABE1;
stroke-width: 2;
stroke-linecap: butt;
stroke-linejoin: miter;
stroke-miterlimit: 22;
}
.g15_15{
fill: none;
stroke: #2AABE1;
stroke-width: 3;
stroke-linecap: butt;
stroke-linejoin: miter;
stroke-miterlimit: 22;
}
.g19_15{
fill: none;
stroke: #0D655E;
stroke-width: 3;
stroke-linecap: butt;
stroke-linejoin: miter;
stroke-miterlimit: 22;
}
.g18_15{
fill: #0D655E;
}
.g24_15{
fill: none;
stroke: #1D1A54;
stroke-width: 4;
stroke-linecap: butt;
stroke-linejoin: miter;
stroke-miterlimit: 4;
}
]]></style>
</defs>
<path d="M-13.2,-15.7l0,49.4l537,0l39.5,78.5l358.7,0l0,-127.9Z" class="g1_15" />
<path d="M87.1,174.6l6,-5.5L87,163.8c-0.7,-0.6,-0.8,-1.6,-0.4,-2.4c0.5,-0.8,1.3,-0.9,1.9,-0.4l7.7,6.7c0.4,0.3,0.6,0.8,0.6,1.4c0,0.5,-0.2,1,-0.6,1.3l-7.5,6.9c-0.6,0.6,-1.5,0.4,-1.9,-0.3c-0.5,-0.8,-0.3,-1.8,0.3,-2.4Z" class="g2_15" />
<path d="M81.1,581.5l6,-5.5L81,570.6c-0.6,-0.5,-0.8,-1.6,-0.3,-2.3c0.4,-0.8,1.3,-1,1.9,-0.4l7.6,6.7c0.4,0.3,0.6,0.8,0.6,1.3c0,0.6,-0.2,1.1,-0.5,1.4l-7.5,6.9c-0.7,0.5,-1.5,0.4,-2,-0.4c-0.4,-0.7,-0.3,-1.8,0.3,-2.3Z" class="g2_15" />
<image x="665" y="228" width="188" height="307" xlink:href="img/1.png" />
<image x="667" y="230" width="179" height="298" xlink:href="img/2.png" />
<path d="M183.3,250c-0.5,-27.1,-23,-48.7,-50.2,-48.2C106,202.3,84.4,224.7,84.9,251.9c0.5,27.2,23,48.8,50.1,48.3c27.2,-0.5,48.8,-23,48.3,-50.2Z" class="g3_15" />
<path d="M179.5,250.2C179,225.1,158.3,205.1,133.2,205.6c-25.1,0.5,-45.1,21.2,-44.6,46.3c0.5,25.1,21.2,45,46.3,44.5c25.1,-0.4,45,-21.2,44.6,-46.2Z" class="g4_15" />
<path d="M162.2,252.5c-0.2,-0.1,-0.3,-0.4,-0.3,-0.6c0,-0.4,0.4,-0.8,0.8,-0.8c0.2,0,0.4,0.1,0.5,0.2c0.6,0.6,1.3,0.9,2.2,0.9c0.9,0,1.6,-0.6,1.6,-1.4c0,-1,-0.9,-1.5,-2.2,-1.5l-0.3,0c-0.4,0,-0.7,-0.3,-0.7,-0.7c0,-0.2,0.1,-0.4,0.3,-0.6l2.2,-2.4l-3.4,0c-0.4,0,-0.7,-0.3,-0.7,-0.7c0,-0.4,0.3,-0.7,0.7,-0.7l4.8,0c0.5,0,0.8,0.3,0.8,0.7c0,0.4,-0.2,0.6,-0.5,0.9l-2.2,2.3c1.5,0.2,2.8,0.9,2.8,2.6c0,1.7,-1.3,3,-3.3,3c-1.3,0,-2.4,-0.5,-3.1,-1.2Z" class="g5_15" />
<path d="M176.1,249.1c0,0.4,-0.3,0.8,-0.7,0.8l-2.6,0c-0.4,0,-0.7,-0.4,-0.7,-0.8l0,-0.2c0,-0.4,0.3,-0.7,0.7,-0.7l2.6,0c0.4,0,0.7,0.3,0.7,0.7Z" class="g5_15" />
<path d="M154,215.1c0.2,-0.3,0.1,-0.7,-0.2,-0.9c-0.3,-0.2,-0.7,-0.1,-0.9,0.2l-1.1,1.7c-0.2,0.3,-0.1,0.7,0.2,0.9c0.3,0.2,0.7,0.1,0.9,-0.2Z" class="g5_15" />
<path d="M167.4,226.9c0.3,-0.2,0.4,-0.6,0.2,-0.9c-0.1,-0.3,-0.5,-0.5,-0.9,-0.3l-1.7,1c-0.3,0.2,-0.4,0.6,-0.3,0.9c0.2,0.3,0.6,0.4,0.9,0.2Z" class="g5_15" />
<path d="M172.7,268.4c0.3,0.2,0.7,0.1,0.9,-0.2c0.2,-0.3,0.1,-0.7,-0.2,-0.9l-1.6,-1.1c-0.3,-0.2,-0.7,-0.1,-0.9,0.2c-0.2,0.3,-0.2,0.7,0.1,0.9Z" class="g5_15" />
<path d="M157.2,287.6c0.1,0.3,0.5,0.5,0.9,0.3c0.3,-0.2,0.4,-0.6,0.2,-0.9l-1,-1.8c-0.1,-0.3,-0.5,-0.4,-0.9,-0.2c-0.3,0.2,-0.4,0.6,-0.2,0.9Z" class="g5_15" />
<path d="M154.8,271.9c0.1,0.1,0.1,0.4,0,0.5c-0.2,0.2,-0.4,0.2,-0.6,0.1L132.6,251.9L128.5,251l1.2,1.2l2.9,-1.4Z" class="g6_15" />
<path d="M138.4,252.2c0,-2.6,-2.2,-4.7,-4.9,-4.7c-2.6,0.1,-4.8,2.3,-4.7,4.9c0.1,2.7,2.2,4.8,4.9,4.7c2.7,0,4.8,-2.2,4.7,-4.9Z" class="g7_15" />
<path d="M129.4,217.1l-1,0.3c-0.1,0,-0.2,0,-0.3,0c-0.4,0,-0.7,-0.3,-0.7,-0.6c0,-0.4,0.2,-0.7,0.6,-0.7l1.4,-0.5c0.3,-0.1,0.5,-0.1,0.8,-0.1c0.5,0,0.8,0.3,0.8,0.8l0,7.9c0,0.4,-0.4,0.8,-0.8,0.8c-0.4,0,-0.8,-0.4,-0.8,-0.8Z" class="g5_15" />
<path d="M133.3,223.3l2.8,-2.4c1.3,-1.1,1.8,-1.7,1.8,-2.5c0,-1,-0.7,-1.5,-1.5,-1.5c-0.8,0,-1.3,0.4,-1.9,1c-0.1,0.2,-0.3,0.3,-0.5,0.3c-0.4,0,-0.8,-0.3,-0.8,-0.8c0,-0.1,0.1,-0.3,0.2,-0.5c0.8,-0.9,1.6,-1.5,3.1,-1.5c1.8,0,3.1,1.2,3.1,2.8c0,1.5,-0.8,2.3,-2.4,3.7l-2,1.6l3.8,0c0.4,0,0.7,0.3,0.7,0.7c0,0.4,-0.3,0.7,-0.7,0.7l-5.3,0c-0.5,0,-0.8,-0.3,-0.8,-0.8c0,-0.3,0.1,-0.6,0.4,-0.8Z" class="g5_15" />
<path d="M131.1,287.6C130.4,286.9,130,285.9,130,284c0,-2.8,1.3,-5.1,4,-5.1c0.9,0,1.7,0.3,2.3,0.7c0.3,0.2,0.4,0.4,0.4,0.7c0,0.4,-0.3,0.8,-0.8,0.8c-0.1,0,-0.3,-0.1,-0.4,-0.2c-0.5,-0.3,-1,-0.5,-1.6,-0.5c-1.4,0,-2.1,1.3,-2.2,3c0.5,-0.5,1.1,-0.9,2.2,-0.9c1.8,0,3.3,1,3.3,2.9c0,1.9,-1.5,3.2,-3.5,3.2c-1.1,0,-2,-0.4,-2.6,-1Zm4.4,-2.1l0,-0.1c0,-0.9,-0.7,-1.6,-1.9,-1.6c-1.1,0,-1.9,0.8,-1.9,1.7c0,0.9,0.8,1.7,2,1.7c1.1,0,1.8,-0.8,1.8,-1.7Z" class="g5_15" />
<path d="M98.6,253c-0.2,-0.2,-0.4,-0.4,-0.4,-0.7c0,-0.4,0.4,-0.7,0.8,-0.7c0.2,0,0.3,0,0.4,0.1c0.6,0.4,1.1,0.6,1.8,0.6c1.3,0,2.1,-1.2,2.2,-3c-0.5,0.6,-1.2,1,-2.2,1c-2,0,-3.3,-1.1,-3.3,-2.9l0,-0.1c0,-1.8,1.4,-3.2,3.5,-3.2c1.2,0,1.9,0.4,2.6,1c0.7,0.7,1.1,1.7,1.1,3.6c0,3,-1.5,5.1,-4,5.1c-1,0,-1.8,-0.3,-2.5,-0.8Zm4.7,-5.7c0,-1,-0.7,-1.8,-1.9,-1.8c-1.2,0,-1.8,0.8,-1.8,1.8c0,1,0.7,1.7,1.9,1.7c1.1,0,1.8,-0.8,1.8,-1.7Z" class="g5_15" />
<path d="M95.1,249.1c0,0.4,-0.3,0.8,-0.7,0.8l-2.6,0c-0.4,0,-0.7,-0.4,-0.7,-0.8l0,-0.2c0,-0.4,0.3,-0.7,0.7,-0.7l2.6,0c0.4,0,0.7,0.3,0.7,0.7Z" class="g5_15" />
<path d="M134.8,211.7c0,0.4,-0.3,0.6,-0.7,0.6l-0.4,0c-0.4,0,-0.6,-0.2,-0.6,-0.6l0,-2.5c0,-0.4,0.2,-0.9,0.6,-0.9l0.4,0c0.4,0,0.7,0.5,0.7,0.9Z" class="g5_15" />
<path d="M134.8,294.8c0,0.4,-0.4,0.7,-0.8,0.7l-0.2,0c-0.4,0,-0.7,-0.3,-0.7,-0.7l0,-2.6c0,-0.4,0.3,-0.7,0.7,-0.7l0.2,0c0.4,0,0.8,0.3,0.8,0.7Z" class="g5_15" />
<path d="M111.1,288.1c-0.3,0.2,-0.2,0.7,0.1,0.9c0.3,0.2,0.7,0.1,0.9,-0.1l1.2,-1.6c0.2,-0.3,0.2,-0.7,-0.1,-0.9c-0.3,-0.3,-0.7,-0.2,-0.9,0.1Z" class="g5_15" />
<path d="M94.6,269c-0.3,0.2,-0.5,0.6,-0.3,0.9c0.1,0.3,0.5,0.5,0.8,0.3l1.8,-0.8c0.4,-0.2,0.5,-0.6,0.4,-0.9c-0.2,-0.3,-0.6,-0.5,-0.9,-0.3Z" class="g5_15" />
<path d="M99.8,226.8c-0.3,-0.2,-0.7,-0.1,-0.9,0.2c-0.2,0.3,-0.1,0.7,0.2,1l1.6,1c0.3,0.2,0.8,0.2,1,-0.1c0.2,-0.3,0.1,-0.8,-0.2,-1Z" class="g5_15" />
<path d="M115.2,213.9c-0.2,-0.3,-0.6,-0.5,-0.9,-0.3c-0.3,0.2,-0.4,0.6,-0.3,0.9l1,1.8c0.2,0.3,0.6,0.4,0.9,0.2c0.3,-0.2,0.4,-0.6,0.3,-0.9Z" class="g5_15" />
<path d="M129.4,217.1l-1,0.3c-0.1,0,-0.2,0,-0.3,0c-0.4,0,-0.7,-0.3,-0.7,-0.6c0,-0.4,0.2,-0.7,0.6,-0.7l1.4,-0.5c0.3,-0.1,0.5,-0.1,0.8,-0.1c0.5,0,0.8,0.3,0.8,0.8l0,7.9c0,0.4,-0.4,0.8,-0.8,0.8c-0.4,0,-0.8,-0.4,-0.8,-0.8Z" class="g5_15" />
<path d="M133.3,223.3l2.8,-2.4c1.3,-1.1,1.8,-1.7,1.8,-2.5c0,-1,-0.7,-1.5,-1.5,-1.5c-0.8,0,-1.3,0.4,-1.9,1c-0.1,0.2,-0.3,0.3,-0.5,0.3c-0.4,0,-0.8,-0.3,-0.8,-0.8c0,-0.1,0.1,-0.3,0.2,-0.5c0.8,-0.9,1.6,-1.5,3.1,-1.5c1.8,0,3.1,1.2,3.1,2.8c0,1.5,-0.8,2.3,-2.4,3.7l-2,1.6l3.8,0c0.4,0,0.7,0.3,0.7,0.7c0,0.4,-0.3,0.7,-0.7,0.7l-5.3,0c-0.5,0,-0.8,-0.3,-0.8,-0.8c0,-0.3,0.1,-0.6,0.4,-0.8Z" class="g5_15" />
<path d="M131.1,287.6C130.4,286.9,130,285.9,130,284c0,-2.8,1.3,-5.1,4,-5.1c0.9,0,1.7,0.3,2.3,0.7c0.3,0.2,0.4,0.4,0.4,0.7c0,0.4,-0.3,0.8,-0.8,0.8c-0.1,0,-0.3,-0.1,-0.4,-0.2c-0.5,-0.3,-1,-0.5,-1.6,-0.5c-1.4,0,-2.1,1.3,-2.2,3c0.5,-0.5,1.1,-0.9,2.2,-0.9c1.8,0,3.3,1,3.3,2.9c0,1.9,-1.5,3.2,-3.5,3.2c-1.1,0,-2,-0.4,-2.6,-1Zm4.4,-2.1l0,-0.1c0,-0.9,-0.7,-1.6,-1.9,-1.6c-1.1,0,-1.9,0.8,-1.9,1.7c0,0.9,0.8,1.7,2,1.7c1.1,0,1.8,-0.8,1.8,-1.7Z" class="g5_15" />
<path d="M98.6,253c-0.2,-0.2,-0.4,-0.4,-0.4,-0.7c0,-0.4,0.4,-0.7,0.8,-0.7c0.2,0,0.3,0,0.4,0.1c0.6,0.4,1.1,0.6,1.8,0.6c1.3,0,2.1,-1.2,2.2,-3c-0.5,0.6,-1.2,1,-2.2,1c-2,0,-3.3,-1.1,-3.3,-2.9l0,-0.1c0,-1.8,1.4,-3.2,3.5,-3.2c1.2,0,1.9,0.4,2.6,1c0.7,0.7,1.1,1.7,1.1,3.6c0,3,-1.5,5.1,-4,5.1c-1,0,-1.8,-0.3,-2.5,-0.8Zm4.7,-5.7c0,-1,-0.7,-1.8,-1.9,-1.8c-1.2,0,-1.8,0.8,-1.8,1.8c0,1,0.7,1.7,1.9,1.7c1.1,0,1.8,-0.8,1.8,-1.7Z" class="g5_15" />
<path d="M95.1,249.1c0,0.4,-0.3,0.8,-0.7,0.8l-2.6,0c-0.4,0,-0.7,-0.4,-0.7,-0.8l0,-0.2c0,-0.4,0.3,-0.7,0.7,-0.7l2.6,0c0.4,0,0.7,0.3,0.7,0.7Z" class="g5_15" />
<path d="M134.8,211.7c0,0.4,-0.3,0.6,-0.7,0.6l-0.4,0c-0.4,0,-0.6,-0.2,-0.6,-0.6l0,-2.5c0,-0.4,0.2,-0.9,0.6,-0.9l0.4,0c0.4,0,0.7,0.5,0.7,0.9Z" class="g5_15" />
<path d="M134.8,294.8c0,0.4,-0.4,0.7,-0.8,0.7l-0.2,0c-0.4,0,-0.7,-0.3,-0.7,-0.7l0,-2.6c0,-0.4,0.3,-0.7,0.7,-0.7l0.2,0c0.4,0,0.8,0.3,0.8,0.7Z" class="g5_15" />
<path d="M111.1,288.1c-0.3,0.2,-0.2,0.7,0.1,0.9c0.3,0.2,0.7,0.1,0.9,-0.1l1.2,-1.6c0.2,-0.3,0.2,-0.7,-0.1,-0.9c-0.3,-0.3,-0.7,-0.2,-0.9,0.1Z" class="g5_15" />
<path d="M94.6,269c-0.3,0.2,-0.5,0.6,-0.3,0.9c0.1,0.3,0.5,0.5,0.8,0.3l1.8,-0.8c0.4,-0.2,0.5,-0.6,0.4,-0.9c-0.2,-0.3,-0.6,-0.5,-0.9,-0.3Z" class="g5_15" />
<path d="M99.8,226.8c-0.3,-0.2,-0.7,-0.1,-0.9,0.2c-0.2,0.3,-0.1,0.7,0.2,1l1.6,1c0.3,0.2,0.8,0.2,1,-0.1c0.2,-0.3,0.1,-0.8,-0.2,-1Z" class="g5_15" />
<path d="M115.2,213.9c-0.2,-0.3,-0.6,-0.5,-0.9,-0.3c-0.3,0.2,-0.4,0.6,-0.3,0.9l1,1.8c0.2,0.3,0.6,0.4,0.9,0.2c0.3,-0.2,0.4,-0.6,0.3,-0.9Z" class="g5_15" />
<path d="M135.8,254.8l-0.1,-30.5c0,-1.1,-0.9,-2,-2,-2c-1.2,0,-2.1,0.9,-2.1,2.1l0.1,31.5l1.2,-1.2l2.9,1.3Z" class="g6_15" />
<path d="M128.4,251.9l-16,7.1c-1,0.4,-1.5,1.6,-1.1,2.7c0.5,1,1.7,1.5,2.7,1l16,-7Z" class="g6_15" />
<path d="M138.4,252.2c0,-2.6,-2.2,-4.7,-4.9,-4.7c-2.6,0.1,-4.8,2.3,-4.7,4.9c0.1,2.7,2.2,4.8,4.9,4.7c2.7,0,4.8,-2.2,4.7,-4.9Z" class="g7_15" />
<path fill-rule="evenodd" d="M496,661l11,0l0,-12l-11,0l0,12Z" class="g8_15" />
<path d="M496.5,661.5l11,0l0,-12l-11,0l0,12Z" class="g9_15" />
<path fill-rule="evenodd" d="M496,704l11,0l0,-12l-11,0l0,12Z" class="g10_15" />
<path d="M496.5,704.5l11,0l0,-12l-11,0l0,12Z" class="g11_15" />
<path fill-rule="evenodd" d="M496,774l11,0l0,-12l-11,0l0,12Z" class="g12_15" />
<path d="M496.5,774.5l11,0l0,-12l-11,0l0,12Z" class="g13_15" />
<path fill-rule="evenodd" d="M496,816l11,0l0,-12l-11,0l0,12Z" class="g14_15" />
<path d="M496.5,816.5l11,0l0,-12l-11,0l0,12Z" class="g15_15" />
<path fill-rule="evenodd" d="M496,843l11,0l0,-12l-11,0l0,12Z" class="g16_15" />
<path d="M496.5,843.5l11,0l0,-12l-11,0l0,12Z" class="g17_15" />
<path fill-rule="evenodd" d="M496,871l11,0l0,-12l-11,0l0,12Z" class="g18_15" />
<path d="M496.5,871.5l11,0l0,-12l-11,0l0,12Z" class="g19_15" />
<path fill-rule="evenodd" d="M497,968l12,0l0,-12l-12,0l0,12Z" class="g20_15" />
<path d="M497.5,968.5l12,0l0,-12l-12,0l0,12Z" class="g21_15" />
<image x="89" y="1057" width="409" height="138" xlink:href="img/3.png" />
<path d="M266,1174c0,0,-7.3,0,-7.3,7.2l0,4.2c0,0,0,7.2,7.3,7.2l22.8,0c0,0,7.3,0,7.3,-7.2l0,-4.2c0,0,0,-7.2,-7.3,-7.2Z" class="g22_15" />
<path d="M292.8,1166.8l0,-5.7c0,0,0,-5.8,-4.9,-5.8l-185.6,0c0,0,-7,0,-7,8.2l0,20.9c0,0,0,8.2,7,8.2l148.8,0c0,0,6.9,0,6.9,-8.2l0,-11.8l29.9,0c0,0,4.9,0,4.9,-5.8Z" class="g23_15" />
<path d="M351.5,1072.4c0,0,-8.2,0,-8.2,8.2l0,65.2c0,0,0,8.3,8.2,8.3l125.2,0c0,0,8.2,0,8.2,-8.3l0,-65.2c0,0,0,-8.2,-8.2,-8.2Z" class="g24_15" />
<path fill-rule="evenodd" d="M430,1104l11,0l0,-12l-11,0l0,12Z" class="g8_15" />
<path d="M430.5,1104.5l11,0l0,-12l-11,0l0,12Z" class="g9_15" />
<path fill-rule="evenodd" d="M187,1173l11,0l0,-11l-11,0l0,11Z" class="g10_15" />
<path d="M187.5,1173.5l11,0l0,-11l-11,0l0,11Z" class="g11_15" />
<path fill-rule="evenodd" d="M272,1179l10,0l0,-12l-10,0l0,12Z" class="g12_15" />
<path d="M272.5,1179.5l10,0l0,-12l-10,0l0,12Z" class="g13_15" />
<path fill-rule="evenodd" d="M506,1079l11,0l0,-12l-11,0l0,12Z" class="g8_15" />
<path d="M506.5,1079.5l11,0l0,-12l-11,0l0,12Z" class="g9_15" />
<path fill-rule="evenodd" d="M506,1123l11,0l0,-12l-11,0l0,12Z" class="g10_15" />
<path d="M506.5,1123.5l11,0l0,-12l-11,0l0,12Z" class="g11_15" />
<path fill-rule="evenodd" d="M506,1196l11,0l0,-12l-11,0l0,12Z" class="g12_15" />
<path d="M506.5,1196.5l11,0l0,-12l-11,0l0,12Z" class="g13_15" />
<image x="91" y="637" width="383" height="346" xlink:href="img/4.png" />
<path d="M324.5,661.5c0,0,-8.4,0,-8.4,8.4l0,47.8c0,0,0,8.3,8.4,8.3l139,0c0,0,8.4,0,8.4,-8.3l0,-47.8c0,0,0,-8.4,-8.4,-8.4Z" class="g24_15" />
<path d="M101.5,738.2c0,0,-8.4,0,-8.4,8.3l0,16.3c0,0,0,8.3,8.4,8.3l206.7,0c0,0,8.3,0,8.3,-8.3l0,-16.3c0,0,0,-8.3,-8.3,-8.3Z" class="g23_15" />
<path d="M101.5,773.3c0,0,-8.4,0,-8.4,8.3l0,25.5c0,0,0,8.3,8.4,8.3l32.1,0c0,0,8.4,0,8.4,-8.3l0,-25.5c0,0,0,-8.3,-8.4,-8.3Z" class="g22_15" />
<path d="M153.3,771.6c0,0,-8.4,0,-8.4,8.3l0,27.2c0,0,0,8.3,8.4,8.3l57.2,0c0,0,8.3,0,8.3,-8.3l0,-27.2c0,0,0,-8.3,-8.3,-8.3Z" class="g25_15" />
<path d="M326.2,737.3c0,0,-8.4,0,-8.4,8.4l0,59.7c0,0,0,8.3,8.4,8.3l138.2,0c0,0,8.3,0,8.3,-8.3l0,-59.7c0,0,0,-8.4,-8.3,-8.4Z" class="g26_15" />
<path d="M101.5,900.2c0,0,-8.4,0,-8.4,9.2l0,65.4c0,0,0,9.1,8.4,9.1l364.7,0c0,0,8.4,0,8.4,-9.1l0,-65.4c0,0,0,-9.2,-8.4,-9.2Z" class="g27_15" />
<path d="M229.3,770.7c0,0,-8.4,0,-8.4,8.4l0,27.1c0,0,0,8.4,8.4,8.4l77.2,0c0,0,8.4,0,8.4,-8.4l0,-27.1c0,0,0,-8.4,-8.4,-8.4Z" class="g28_15" />
<path fill-rule="evenodd" d="M432,702l11,0l0,-11l-11,0l0,11Z" class="g8_15" />
<path d="M432.5,702.5l11,0l0,-11l-11,0l0,11Z" class="g9_15" />
<path fill-rule="evenodd" d="M264,763l11,0l0,-12l-11,0l0,12Z" class="g10_15" />
<path d="M264.5,763.5l11,0l0,-12l-11,0l0,12Z" class="g11_15" />
<path fill-rule="evenodd" d="M111,799l11,0l0,-12l-11,0l0,12Z" class="g12_15" />
<path d="M111.5,799.5l11,0l0,-12l-11,0l0,12Z" class="g13_15" />
<path fill-rule="evenodd" d="M175,799l11,0l0,-12l-11,0l0,12Z" class="g14_15" />
<path d="M175.5,799.5l11,0l0,-12l-11,0l0,12Z" class="g15_15" />
<path fill-rule="evenodd" d="M260,799l11,0l0,-12l-11,0l0,12Z" class="g16_15" />
<path d="M260.5,799.5l11,0l0,-12l-11,0l0,12Z" class="g17_15" />
<path fill-rule="evenodd" d="M388,799l11,0l0,-12l-11,0l0,12Z" class="g18_15" />
<path d="M388.5,799.5l11,0l0,-12l-11,0l0,12Z" class="g19_15" />
<path fill-rule="evenodd" d="M444,920l11,0l0,-12l-11,0l0,12Z" class="g20_15" />
<path d="M444.5,920.5l11,0l0,-12l-11,0l0,12Z" class="g21_15" />
<image x="671" y="236" width="172" height="290" xlink:href="img/5.png" />
<path fill-rule="evenodd" d="M99,722l196,0l0,-11L99,711l0,11Z" class="g4_15" />
<path d="M99.5,722.5l196,0l0,-11l-196,0l0,11Z" class="g29_15" />
<path d="M845.8,636.7l0,367.6l-761.7,0l0,-339.1L108,636.7Z" class="g30_15" />
<path d="M845.8,1045.9l0,170.2l-761.7,0l0,-141.7L108,1045.9Z" class="g30_15" />
<path d="M817.7,1262.4l3,-2.8l-3,-2.6c-0.3,-0.3,-0.4,-0.8,-0.2,-1.2c0.2,-0.4,0.7,-0.5,1,-0.2l3.8,3.3c0.2,0.2,0.3,0.4,0.3,0.7c0,0.3,-0.1,0.5,-0.3,0.7l-3.7,3.4c-0.3,0.3,-0.8,0.2,-1,-0.2c-0.2,-0.3,-0.2,-0.9,0.1,-1.1Z" class="g31_15" />
<path d="M833.5,1269.5l13,0" class="g15_15" />
</svg>