<?xml version="1.0" encoding="UTF-8" standalone="no"?>
<!DOCTYPE svg PUBLIC "-//W3C//DTD SVG 1.1//EN"
"http://www.w3.org/Graphics/SVG/1.1/DTD/svg11.dtd">
<svg version="1.1" xmlns="http://www.w3.org/2000/svg" xmlns:xlink="http://www.w3.org/1999/xlink">
<defs>
<style type="text/css"><![CDATA[
.g3_8{
fill: #211D1D;
}
.g2_8{
fill: #FFFFFF;
}
.g6_8{
fill: none;
stroke: #2AABE1;
stroke-width: 3;
stroke-linecap: butt;
stroke-linejoin: miter;
stroke-miterlimit: 22;
}
.g1_8{
fill: #28A448;
}
.g5_8{
fill: #4D4A4B;
}
.g4_8{
fill: #373433;
}
.g7_8{
fill: #3FB761;
}
]]></style>
</defs>
<path d="M809.3,462.9c0,9.2,-7.5,16.7,-16.6,16.7l-692.5,0c-9.2,0,-16.6,-7.5,-16.6,-16.7l0,-37c0,-9.2,7.4,-16.6,16.6,-16.6l692.5,0c9.1,0,16.6,7.4,16.6,16.6Z" class="g1_8" />
<path d="M124.4,417.4c-12.1,0,-21.9,9.7,-21.9,21.8c0,7,3.3,13.2,8.4,17.2c3.7,2.5,-2.2,9.6,-2.2,9.6c0,0,9.9,0.2,15.7,-4.9c12.1,0,21.9,-9.8,21.9,-21.9c0,-12.1,-9.8,-21.8,-21.9,-21.8Z" class="g2_8" />
<path d="M117.1,440.4c0,1.7,-1.4,3.2,-3.2,3.2c-1.8,0,-3.2,-1.5,-3.2,-3.2c0,-1.8,1.4,-3.2,3.2,-3.2c1.8,0,3.2,1.4,3.2,3.2Z" class="g3_8" />
<path d="M127.6,440.4c0,1.7,-1.4,3.2,-3.2,3.2c-1.8,0,-3.2,-1.5,-3.2,-3.2c0,-1.8,1.4,-3.2,3.2,-3.2c1.8,0,3.2,1.4,3.2,3.2Z" class="g3_8" />
<path d="M138.1,440.4c0,1.7,-1.4,3.2,-3.2,3.2c-1.7,0,-3.2,-1.5,-3.2,-3.2c0,-1.8,1.5,-3.2,3.2,-3.2c1.8,0,3.2,1.4,3.2,3.2Z" class="g3_8" />
<path d="M85,524.5L91,519l-6.1,-5.3c-0.6,-0.6,-0.7,-1.6,-0.3,-2.4c0.4,-0.7,1.3,-0.9,1.9,-0.4l7.7,6.7c0.3,0.4,0.5,0.9,0.5,1.4c0.1,0.5,-0.2,1,-0.5,1.4l-7.5,6.8c-0.6,0.6,-1.5,0.4,-1.9,-0.3c-0.5,-0.8,-0.4,-1.8,0.2,-2.4Z" class="g4_8" />
<image x="487" y="558" width="360" height="414" xlink:href="img/1.png" />
<path d="M84.4,1127.3l0,-61.1l762.2,0l0,42.7l-31.2,18.4Z" class="g5_8" />
<path d="M107.1,1262.4l3,-2.8l-3,-2.6c-0.3,-0.3,-0.4,-0.8,-0.2,-1.2c0.2,-0.4,0.7,-0.5,1,-0.2l3.8,3.3c0.2,0.2,0.3,0.4,0.3,0.7c0,0.3,-0.1,0.5,-0.3,0.7l-3.7,3.4c-0.3,0.3,-0.8,0.2,-1,-0.2c-0.2,-0.3,-0.2,-0.9,0.1,-1.1Z" class="g5_8" />
<path d="M83.5,1269.5l13,0" class="g6_8" />
<path d="M922,-15.7l0,49.4l-537.1,0l-39.5,78.5l-358.6,0l0,-127.9Z" class="g7_8" />
</svg>