<?xml version="1.0" encoding="UTF-8" standalone="no"?>
<!DOCTYPE svg PUBLIC "-//W3C//DTD SVG 1.1//EN"
"http://www.w3.org/Graphics/SVG/1.1/DTD/svg11.dtd">
<svg version="1.1" xmlns="http://www.w3.org/2000/svg" xmlns:xlink="http://www.w3.org/1999/xlink">
<defs>
<style type="text/css"><![CDATA[
.g3_14{
fill: #211D1D;
}
.g2_14{
fill: #FFFFFF;
}
.g6_14{
fill: none;
stroke: #2AABE1;
stroke-width: 3;
stroke-linecap: butt;
stroke-linejoin: miter;
stroke-miterlimit: 22;
}
.g1_14{
fill: #2A60AB;
}
.g5_14{
fill: #373433;
}
.g4_14{
fill: #4D4A4B;
}
.g7_14{
fill: #2AABE1;
}
]]></style>
</defs>
<path d="M846.1,604.4c0,9.2,-7.5,16.6,-16.7,16.6l-728.9,0c-9.2,0,-16.7,-7.4,-16.7,-16.6l0,-420.9c0,-9.2,7.5,-16.6,16.7,-16.6l728.9,0c9.2,0,16.7,7.4,16.7,16.6Z" class="g1_14" />
<path d="M121.2,175.3c-8.3,0,-15.1,6.8,-15.1,15.1c0,4.8,2.3,9,5.8,11.8c2.6,1.7,-1.5,6.6,-1.5,6.6c0,0,6.8,0.1,10.8,-3.4c8.3,0,15,-6.7,15,-15c0,-8.3,-6.7,-15.1,-15,-15.1Z" class="g2_14" />
<path d="M116.1,191.1c0,1.3,-1,2.3,-2.2,2.3c-1.2,0,-2.2,-1,-2.2,-2.3c0,-1.2,1,-2.2,2.2,-2.2c1.2,0,2.2,1,2.2,2.2Z" class="g3_14" />
<path d="M123.4,191.1c0,1.3,-1,2.3,-2.2,2.3c-1.2,0,-2.2,-1,-2.2,-2.3c0,-1.2,1,-2.2,2.2,-2.2c1.2,0,2.2,1,2.2,2.2Z" class="g3_14" />
<path d="M130.6,191.1c0,1.3,-1,2.3,-2.2,2.3c-1.2,0,-2.2,-1,-2.2,-2.3c0,-1.2,1,-2.2,2.2,-2.2c1.2,0,2.2,1,2.2,2.2Z" class="g3_14" />
<image x="83" y="771" width="367" height="436" xlink:href="img/1.png" />
<path d="M83.7,698l0,-63l762.4,0l0,34.5L827.2,698Z" class="g4_14" />
<path d="M95.8,740.2l6,-5.4l-6.1,-5.4C95,728.8,94.9,727.8,95.3,727c0.5,-0.7,1.3,-0.9,1.9,-0.4l7.7,6.8c0.4,0.3,0.6,0.8,0.6,1.3c0,0.6,-0.2,1.1,-0.6,1.4l-7.5,6.8c-0.6,0.6,-1.5,0.4,-1.9,-0.3c-0.5,-0.7,-0.3,-1.8,0.3,-2.4Z" class="g5_14" />
<path d="M107.1,1262.4l3,-2.8l-3,-2.6c-0.3,-0.3,-0.4,-0.8,-0.2,-1.2c0.2,-0.4,0.7,-0.5,1,-0.2l3.8,3.3c0.2,0.2,0.3,0.4,0.3,0.7c0,0.3,-0.1,0.5,-0.3,0.7l-3.7,3.4c-0.3,0.3,-0.8,0.2,-1,-0.2c-0.2,-0.3,-0.2,-0.9,0.1,-1.1Z" class="g4_14" />
<path d="M83.5,1269.5l13,0" class="g6_14" />
<path d="M922,-15.7l0,49.4l-537.1,0l-39.5,78.5l-358.6,0l0,-127.9Z" class="g7_14" />
</svg>