<?xml version="1.0" encoding="UTF-8" standalone="no"?>
<!DOCTYPE svg PUBLIC "-//W3C//DTD SVG 1.1//EN"
"http://www.w3.org/Graphics/SVG/1.1/DTD/svg11.dtd">
<svg version="1.1" xmlns="http://www.w3.org/2000/svg" xmlns:xlink="http://www.w3.org/1999/xlink">
<defs>
<style type="text/css"><![CDATA[
.g4_5{
fill: none;
stroke: #2AABE1;
stroke-width: 3;
stroke-linecap: butt;
stroke-linejoin: miter;
stroke-miterlimit: 22;
}
.g3_5{
fill: #4D4A4B;
}
.g2_5{
fill: #FFFFFF;
}
.g1_5{
fill: #2AABE1;
}
]]></style>
</defs>
<path fill-rule="evenodd" d="M-12.3,-14.1l942.7,0l0,181.3l-859.8,0L-12.3,93.6Z" class="g1_5" />
<path d="M259.7,156.9l6.8,-6.2l-6.9,-6c-0.7,-0.6,-0.9,-1.8,-0.4,-2.7c0.5,-0.8,1.5,-1,2.2,-0.4l8.6,7.5c0.4,0.4,0.6,1,0.6,1.6c0,0.6,-0.2,1.1,-0.6,1.5l-8.4,7.7c-0.7,0.7,-1.7,0.5,-2.2,-0.4c-0.5,-0.8,-0.4,-2,0.3,-2.6Z" class="g2_5" />
<path d="M817.7,1262.4l3,-2.8l-3,-2.6c-0.3,-0.3,-0.4,-0.8,-0.2,-1.2c0.2,-0.4,0.7,-0.5,1,-0.2l3.8,3.3c0.2,0.2,0.3,0.4,0.3,0.7c0,0.3,-0.1,0.5,-0.3,0.7l-3.7,3.4c-0.3,0.3,-0.8,0.2,-1,-0.2c-0.2,-0.3,-0.2,-0.9,0.1,-1.1Z" class="g3_5" />
<path d="M833.5,1269.5l13,0" class="g4_5" />
<image x="83" y="213" width="390" height="580" xlink:href="img/1.png" />
</svg>